ISO-10303-21;
HEADER;
/* Generated by software containing ST-Developer
 * from STEP Tools, Inc. (www.steptools.com) 
 */

FILE_DESCRIPTION(
/* description */ (''),
/* implementation_level */ '2;1');

FILE_NAME(
/* name */ 'TRARM02_Link4B_30x40x28.step',
/* time_stamp */ '2026-06-11T09:10:44+09:00',
/* author */ (''),
/* organization */ (''),
/* preprocessor_version */ 'ST-DEVELOPER v20.1',
/* originating_system */ 'Autodesk Translation Framework v15.8.0.0',
/* authorisation */ '');

FILE_SCHEMA (('AUTOMOTIVE_DESIGN { 1 0 10303 214 3 1 1 }'));
ENDSEC;

DATA;
#10=MECHANICAL_DESIGN_GEOMETRIC_PRESENTATION_REPRESENTATION('',(#13),#1113);
#11=SHAPE_REPRESENTATION_RELATIONSHIP('SRR','None',#1120,#12);
#12=ADVANCED_BREP_SHAPE_REPRESENTATION('',(#14),#1112);
#13=STYLED_ITEM('',(#1129),#14);
#14=MANIFOLD_SOLID_BREP('\X2\BCF8CCB4\X0\1',#655);
#15=FACE_BOUND('',#127,.T.);
#16=FACE_BOUND('',#129,.T.);
#17=FACE_BOUND('',#131,.T.);
#18=FACE_BOUND('',#139,.T.);
#19=FACE_BOUND('',#140,.T.);
#20=FACE_BOUND('',#141,.T.);
#21=FACE_BOUND('',#142,.T.);
#22=FACE_BOUND('',#147,.T.);
#23=FACE_BOUND('',#148,.T.);
#24=FACE_BOUND('',#149,.T.);
#25=FACE_BOUND('',#150,.T.);
#26=TOROIDAL_SURFACE('',#694,18.,2.);
#27=CIRCLE('',#671,1.50000000000097);
#28=CIRCLE('',#672,1.50000000000097);
#29=CIRCLE('',#675,1.50000000000027);
#30=CIRCLE('',#676,1.50000000000027);
#31=CIRCLE('',#679,1.50000000000097);
#32=CIRCLE('',#680,1.50000000000097);
#33=CIRCLE('',#683,1.50000000000027);
#34=CIRCLE('',#684,1.50000000000027);
#35=CIRCLE('',#686,1.5);
#36=CIRCLE('',#687,1.5);
#37=CIRCLE('',#689,1.5);
#38=CIRCLE('',#690,1.5);
#39=CIRCLE('',#692,2.);
#40=CIRCLE('',#693,2.);
#41=CIRCLE('',#695,2.);
#42=CIRCLE('',#696,18.);
#43=CIRCLE('',#697,20.);
#44=CIRCLE('',#699,2.);
#45=CIRCLE('',#702,20.);
#46=CIRCLE('',#705,1.45);
#47=CIRCLE('',#706,1.45);
#48=CIRCLE('',#709,1.45);
#49=CIRCLE('',#710,1.45);
#50=CIRCLE('',#713,2.99999997019772);
#51=CIRCLE('',#715,2.99999734905215);
#52=CIRCLE('',#717,19.);
#53=CIRCLE('',#720,2.99999734905215);
#54=CIRCLE('',#723,19.);
#55=CIRCLE('',#730,2.99999997019772);
#56=CYLINDRICAL_SURFACE('',#670,1.50000000000097);
#57=CYLINDRICAL_SURFACE('',#674,1.50000000000027);
#58=CYLINDRICAL_SURFACE('',#678,1.50000000000097);
#59=CYLINDRICAL_SURFACE('',#682,1.50000000000027);
#60=CYLINDRICAL_SURFACE('',#685,1.5);
#61=CYLINDRICAL_SURFACE('',#688,1.5);
#62=CYLINDRICAL_SURFACE('',#691,2.);
#63=CYLINDRICAL_SURFACE('',#698,2.);
#64=CYLINDRICAL_SURFACE('',#701,20.);
#65=CYLINDRICAL_SURFACE('',#704,1.45);
#66=CYLINDRICAL_SURFACE('',#708,1.45);
#67=CYLINDRICAL_SURFACE('',#719,2.99999734905215);
#68=CYLINDRICAL_SURFACE('',#722,19.);
#69=CYLINDRICAL_SURFACE('',#729,2.99999997019772);
#70=FACE_OUTER_BOUND('',#106,.T.);
#71=FACE_OUTER_BOUND('',#107,.T.);
#72=FACE_OUTER_BOUND('',#108,.T.);
#73=FACE_OUTER_BOUND('',#109,.T.);
#74=FACE_OUTER_BOUND('',#110,.T.);
#75=FACE_OUTER_BOUND('',#111,.T.);
#76=FACE_OUTER_BOUND('',#112,.T.);
#77=FACE_OUTER_BOUND('',#113,.T.);
#78=FACE_OUTER_BOUND('',#114,.T.);
#79=FACE_OUTER_BOUND('',#115,.T.);
#80=FACE_OUTER_BOUND('',#116,.T.);
#81=FACE_OUTER_BOUND('',#117,.T.);
#82=FACE_OUTER_BOUND('',#118,.T.);
#83=FACE_OUTER_BOUND('',#119,.T.);
#84=FACE_OUTER_BOUND('',#120,.T.);
#85=FACE_OUTER_BOUND('',#121,.T.);
#86=FACE_OUTER_BOUND('',#122,.T.);
#87=FACE_OUTER_BOUND('',#123,.T.);
#88=FACE_OUTER_BOUND('',#124,.T.);
#89=FACE_OUTER_BOUND('',#125,.T.);
#90=FACE_OUTER_BOUND('',#126,.T.);
#91=FACE_OUTER_BOUND('',#128,.T.);
#92=FACE_OUTER_BOUND('',#130,.T.);
#93=FACE_OUTER_BOUND('',#132,.T.);
#94=FACE_OUTER_BOUND('',#133,.T.);
#95=FACE_OUTER_BOUND('',#134,.T.);
#96=FACE_OUTER_BOUND('',#135,.T.);
#97=FACE_OUTER_BOUND('',#136,.T.);
#98=FACE_OUTER_BOUND('',#137,.T.);
#99=FACE_OUTER_BOUND('',#138,.T.);
#100=FACE_OUTER_BOUND('',#143,.T.);
#101=FACE_OUTER_BOUND('',#144,.T.);
#102=FACE_OUTER_BOUND('',#145,.T.);
#103=FACE_OUTER_BOUND('',#146,.T.);
#104=FACE_OUTER_BOUND('',#151,.T.);
#105=FACE_OUTER_BOUND('',#152,.T.);
#106=EDGE_LOOP('',(#420,#421,#422,#423));
#107=EDGE_LOOP('',(#424,#425,#426,#427));
#108=EDGE_LOOP('',(#428,#429,#430,#431));
#109=EDGE_LOOP('',(#432,#433,#434,#435));
#110=EDGE_LOOP('',(#436,#437,#438,#439));
#111=EDGE_LOOP('',(#440,#441,#442,#443));
#112=EDGE_LOOP('',(#444,#445,#446,#447));
#113=EDGE_LOOP('',(#448,#449,#450,#451));
#114=EDGE_LOOP('',(#452,#453,#454,#455));
#115=EDGE_LOOP('',(#456,#457,#458,#459));
#116=EDGE_LOOP('',(#460,#461,#462,#463));
#117=EDGE_LOOP('',(#464,#465,#466,#467));
#118=EDGE_LOOP('',(#468,#469,#470,#471));
#119=EDGE_LOOP('',(#472,#473,#474,#475));
#120=EDGE_LOOP('',(#476,#477,#478,#479));
#121=EDGE_LOOP('',(#480,#481,#482,#483));
#122=EDGE_LOOP('',(#484,#485,#486,#487));
#123=EDGE_LOOP('',(#488));
#124=EDGE_LOOP('',(#489,#490,#491,#492));
#125=EDGE_LOOP('',(#493));
#126=EDGE_LOOP('',(#494,#495,#496,#497));
#127=EDGE_LOOP('',(#498));
#128=EDGE_LOOP('',(#499,#500,#501,#502));
#129=EDGE_LOOP('',(#503));
#130=EDGE_LOOP('',(#504,#505,#506,#507));
#131=EDGE_LOOP('',(#508,#509,#510,#511));
#132=EDGE_LOOP('',(#512,#513,#514,#515));
#133=EDGE_LOOP('',(#516,#517,#518,#519));
#134=EDGE_LOOP('',(#520,#521,#522,#523));
#135=EDGE_LOOP('',(#524,#525,#526,#527,#528,#529));
#136=EDGE_LOOP('',(#530,#531,#532,#533));
#137=EDGE_LOOP('',(#534,#535,#536,#537,#538,#539));
#138=EDGE_LOOP('',(#540,#541,#542,#543));
#139=EDGE_LOOP('',(#544,#545,#546,#547));
#140=EDGE_LOOP('',(#548,#549,#550,#551));
#141=EDGE_LOOP('',(#552));
#142=EDGE_LOOP('',(#553));
#143=EDGE_LOOP('',(#554,#555,#556,#557,#558,#559));
#144=EDGE_LOOP('',(#560,#561,#562,#563));
#145=EDGE_LOOP('',(#564,#565,#566,#567));
#146=EDGE_LOOP('',(#568,#569,#570,#571,#572,#573));
#147=EDGE_LOOP('',(#574,#575,#576,#577));
#148=EDGE_LOOP('',(#578,#579,#580,#581));
#149=EDGE_LOOP('',(#582));
#150=EDGE_LOOP('',(#583));
#151=EDGE_LOOP('',(#584,#585,#586,#587,#588,#589,#590,#591,#592,#593));
#152=EDGE_LOOP('',(#594,#595,#596,#597));
#153=LINE('',#930,#213);
#154=LINE('',#932,#214);
#155=LINE('',#934,#215);
#156=LINE('',#935,#216);
#157=LINE('',#941,#217);
#158=LINE('',#944,#218);
#159=LINE('',#946,#219);
#160=LINE('',#947,#220);
#161=LINE('',#954,#221);
#162=LINE('',#956,#222);
#163=LINE('',#958,#223);
#164=LINE('',#959,#224);
#165=LINE('',#965,#225);
#166=LINE('',#968,#226);
#167=LINE('',#970,#227);
#168=LINE('',#971,#228);
#169=LINE('',#979,#229);
#170=LINE('',#985,#230);
#171=LINE('',#992,#231);
#172=LINE('',#995,#232);
#173=LINE('',#1006,#233);
#174=LINE('',#1007,#234);
#175=LINE('',#1010,#235);
#176=LINE('',#1012,#236);
#177=LINE('',#1013,#237);
#178=LINE('',#1016,#238);
#179=LINE('',#1020,#239);
#180=LINE('',#1021,#240);
#181=LINE('',#1026,#241);
#182=LINE('',#1033,#242);
#183=LINE('',#1039,#243);
#184=LINE('',#1041,#244);
#185=LINE('',#1044,#245);
#186=LINE('',#1050,#246);
#187=LINE('',#1052,#247);
#188=LINE('',#1053,#248);
#189=LINE('',#1055,#249);
#190=LINE('',#1058,#250);
#191=LINE('',#1060,#251);
#192=LINE('',#1062,#252);
#193=LINE('',#1066,#253);
#194=LINE('',#1068,#254);
#195=LINE('',#1069,#255);
#196=LINE('',#1072,#256);
#197=LINE('',#1076,#257);
#198=LINE('',#1078,#258);
#199=LINE('',#1079,#259);
#200=LINE('',#1082,#260);
#201=LINE('',#1083,#261);
#202=LINE('',#1086,#262);
#203=LINE('',#1087,#263);
#204=LINE('',#1090,#264);
#205=LINE('',#1091,#265);
#206=LINE('',#1094,#266);
#207=LINE('',#1095,#267);
#208=LINE('',#1098,#268);
#209=LINE('',#1099,#269);
#210=LINE('',#1102,#270);
#211=LINE('',#1103,#271);
#212=LINE('',#1107,#272);
#213=VECTOR('',#738,10.);
#214=VECTOR('',#739,10.);
#215=VECTOR('',#740,10.);
#216=VECTOR('',#741,10.);
#217=VECTOR('',#748,10.);
#218=VECTOR('',#751,10.);
#219=VECTOR('',#752,10.);
#220=VECTOR('',#753,10.);
#221=VECTOR('',#762,10.);
#222=VECTOR('',#763,10.);
#223=VECTOR('',#764,10.);
#224=VECTOR('',#765,10.);
#225=VECTOR('',#772,10.);
#226=VECTOR('',#775,10.);
#227=VECTOR('',#776,10.);
#228=VECTOR('',#777,10.);
#229=VECTOR('',#788,1.5);
#230=VECTOR('',#795,1.5);
#231=VECTOR('',#802,10.);
#232=VECTOR('',#805,10.);
#233=VECTOR('',#818,10.);
#234=VECTOR('',#819,10.);
#235=VECTOR('',#822,10.);
#236=VECTOR('',#823,10.);
#237=VECTOR('',#824,10.);
#238=VECTOR('',#827,10.);
#239=VECTOR('',#832,10.);
#240=VECTOR('',#833,10.);
#241=VECTOR('',#838,1.45);
#242=VECTOR('',#847,1.45);
#243=VECTOR('',#854,10.);
#244=VECTOR('',#855,10.);
#245=VECTOR('',#858,10.);
#246=VECTOR('',#863,10.);
#247=VECTOR('',#864,10.);
#248=VECTOR('',#865,10.);
#249=VECTOR('',#868,10.);
#250=VECTOR('',#869,10.);
#251=VECTOR('',#870,10.);
#252=VECTOR('',#871,10.);
#253=VECTOR('',#876,10.);
#254=VECTOR('',#877,10.);
#255=VECTOR('',#878,10.);
#256=VECTOR('',#881,10.);
#257=VECTOR('',#886,10.);
#258=VECTOR('',#887,10.);
#259=VECTOR('',#888,10.);
#260=VECTOR('',#893,10.);
#261=VECTOR('',#894,10.);
#262=VECTOR('',#897,10.);
#263=VECTOR('',#898,10.);
#264=VECTOR('',#901,10.);
#265=VECTOR('',#902,10.);
#266=VECTOR('',#905,10.);
#267=VECTOR('',#906,10.);
#268=VECTOR('',#909,10.);
#269=VECTOR('',#910,10.);
#270=VECTOR('',#913,10.);
#271=VECTOR('',#914,10.);
#272=VECTOR('',#921,10.);
#273=VERTEX_POINT('',#928);
#274=VERTEX_POINT('',#929);
#275=VERTEX_POINT('',#931);
#276=VERTEX_POINT('',#933);
#277=VERTEX_POINT('',#937);
#278=VERTEX_POINT('',#939);
#279=VERTEX_POINT('',#943);
#280=VERTEX_POINT('',#945);
#281=VERTEX_POINT('',#952);
#282=VERTEX_POINT('',#953);
#283=VERTEX_POINT('',#955);
#284=VERTEX_POINT('',#957);
#285=VERTEX_POINT('',#961);
#286=VERTEX_POINT('',#963);
#287=VERTEX_POINT('',#967);
#288=VERTEX_POINT('',#969);
#289=VERTEX_POINT('',#976);
#290=VERTEX_POINT('',#978);
#291=VERTEX_POINT('',#982);
#292=VERTEX_POINT('',#984);
#293=VERTEX_POINT('',#988);
#294=VERTEX_POINT('',#989);
#295=VERTEX_POINT('',#991);
#296=VERTEX_POINT('',#993);
#297=VERTEX_POINT('',#997);
#298=VERTEX_POINT('',#998);
#299=VERTEX_POINT('',#1003);
#300=VERTEX_POINT('',#1004);
#301=VERTEX_POINT('',#1009);
#302=VERTEX_POINT('',#1011);
#303=VERTEX_POINT('',#1015);
#304=VERTEX_POINT('',#1019);
#305=VERTEX_POINT('',#1023);
#306=VERTEX_POINT('',#1025);
#307=VERTEX_POINT('',#1030);
#308=VERTEX_POINT('',#1032);
#309=VERTEX_POINT('',#1037);
#310=VERTEX_POINT('',#1038);
#311=VERTEX_POINT('',#1040);
#312=VERTEX_POINT('',#1042);
#313=VERTEX_POINT('',#1046);
#314=VERTEX_POINT('',#1047);
#315=VERTEX_POINT('',#1049);
#316=VERTEX_POINT('',#1051);
#317=VERTEX_POINT('',#1056);
#318=VERTEX_POINT('',#1057);
#319=VERTEX_POINT('',#1059);
#320=VERTEX_POINT('',#1061);
#321=VERTEX_POINT('',#1065);
#322=VERTEX_POINT('',#1067);
#323=VERTEX_POINT('',#1071);
#324=VERTEX_POINT('',#1075);
#325=VERTEX_POINT('',#1077);
#326=VERTEX_POINT('',#1085);
#327=VERTEX_POINT('',#1089);
#328=VERTEX_POINT('',#1093);
#329=VERTEX_POINT('',#1097);
#330=VERTEX_POINT('',#1101);
#331=EDGE_CURVE('',#273,#274,#153,.T.);
#332=EDGE_CURVE('',#275,#273,#154,.T.);
#333=EDGE_CURVE('',#276,#275,#155,.T.);
#334=EDGE_CURVE('',#276,#274,#156,.T.);
#335=EDGE_CURVE('',#274,#277,#27,.T.);
#336=EDGE_CURVE('',#278,#276,#28,.T.);
#337=EDGE_CURVE('',#278,#277,#157,.T.);
#338=EDGE_CURVE('',#277,#279,#158,.T.);
#339=EDGE_CURVE('',#280,#278,#159,.T.);
#340=EDGE_CURVE('',#280,#279,#160,.T.);
#341=EDGE_CURVE('',#279,#273,#29,.T.);
#342=EDGE_CURVE('',#275,#280,#30,.T.);
#343=EDGE_CURVE('',#281,#282,#161,.T.);
#344=EDGE_CURVE('',#283,#281,#162,.T.);
#345=EDGE_CURVE('',#284,#283,#163,.T.);
#346=EDGE_CURVE('',#284,#282,#164,.T.);
#347=EDGE_CURVE('',#282,#285,#31,.T.);
#348=EDGE_CURVE('',#286,#284,#32,.T.);
#349=EDGE_CURVE('',#286,#285,#165,.T.);
#350=EDGE_CURVE('',#285,#287,#166,.T.);
#351=EDGE_CURVE('',#288,#286,#167,.T.);
#352=EDGE_CURVE('',#288,#287,#168,.T.);
#353=EDGE_CURVE('',#287,#281,#33,.T.);
#354=EDGE_CURVE('',#283,#288,#34,.T.);
#355=EDGE_CURVE('',#289,#289,#35,.T.);
#356=EDGE_CURVE('',#289,#290,#169,.T.);
#357=EDGE_CURVE('',#290,#290,#36,.T.);
#358=EDGE_CURVE('',#291,#291,#37,.T.);
#359=EDGE_CURVE('',#291,#292,#170,.T.);
#360=EDGE_CURVE('',#292,#292,#38,.T.);
#361=EDGE_CURVE('',#293,#294,#39,.T.);
#362=EDGE_CURVE('',#294,#295,#171,.T.);
#363=EDGE_CURVE('',#295,#296,#40,.T.);
#364=EDGE_CURVE('',#296,#293,#172,.T.);
#365=EDGE_CURVE('',#297,#298,#41,.T.);
#366=EDGE_CURVE('',#298,#296,#42,.T.);
#367=EDGE_CURVE('',#295,#297,#43,.T.);
#368=EDGE_CURVE('',#299,#300,#44,.T.);
#369=EDGE_CURVE('',#300,#298,#173,.T.);
#370=EDGE_CURVE('',#297,#299,#174,.T.);
#371=EDGE_CURVE('',#297,#301,#175,.T.);
#372=EDGE_CURVE('',#302,#301,#176,.T.);
#373=EDGE_CURVE('',#299,#302,#177,.T.);
#374=EDGE_CURVE('',#295,#303,#178,.T.);
#375=EDGE_CURVE('',#301,#303,#45,.T.);
#376=EDGE_CURVE('',#294,#304,#179,.T.);
#377=EDGE_CURVE('',#303,#304,#180,.T.);
#378=EDGE_CURVE('',#305,#305,#46,.T.);
#379=EDGE_CURVE('',#305,#306,#181,.T.);
#380=EDGE_CURVE('',#306,#306,#47,.T.);
#381=EDGE_CURVE('',#307,#307,#48,.T.);
#382=EDGE_CURVE('',#307,#308,#182,.T.);
#383=EDGE_CURVE('',#308,#308,#49,.T.);
#384=EDGE_CURVE('',#309,#310,#183,.T.);
#385=EDGE_CURVE('',#311,#309,#184,.T.);
#386=EDGE_CURVE('',#312,#311,#50,.T.);
#387=EDGE_CURVE('',#310,#312,#185,.T.);
#388=EDGE_CURVE('',#313,#314,#51,.T.);
#389=EDGE_CURVE('',#315,#313,#186,.T.);
#390=EDGE_CURVE('',#316,#315,#187,.T.);
#391=EDGE_CURVE('',#314,#316,#188,.T.);
#392=EDGE_CURVE('',#304,#302,#189,.T.);
#393=EDGE_CURVE('',#317,#318,#190,.T.);
#394=EDGE_CURVE('',#318,#319,#191,.T.);
#395=EDGE_CURVE('',#319,#320,#192,.T.);
#396=EDGE_CURVE('',#320,#317,#52,.T.);
#397=EDGE_CURVE('',#321,#313,#193,.T.);
#398=EDGE_CURVE('',#322,#321,#194,.T.);
#399=EDGE_CURVE('',#322,#315,#195,.T.);
#400=EDGE_CURVE('',#323,#314,#196,.T.);
#401=EDGE_CURVE('',#321,#323,#53,.T.);
#402=EDGE_CURVE('',#324,#309,#197,.T.);
#403=EDGE_CURVE('',#325,#324,#198,.T.);
#404=EDGE_CURVE('',#325,#311,#199,.T.);
#405=EDGE_CURVE('',#324,#322,#54,.T.);
#406=EDGE_CURVE('',#309,#317,#200,.T.);
#407=EDGE_CURVE('',#315,#320,#201,.T.);
#408=EDGE_CURVE('',#326,#316,#202,.T.);
#409=EDGE_CURVE('',#323,#326,#203,.T.);
#410=EDGE_CURVE('',#326,#327,#204,.T.);
#411=EDGE_CURVE('',#327,#319,#205,.T.);
#412=EDGE_CURVE('',#327,#328,#206,.T.);
#413=EDGE_CURVE('',#328,#318,#207,.T.);
#414=EDGE_CURVE('',#328,#329,#208,.T.);
#415=EDGE_CURVE('',#329,#310,#209,.T.);
#416=EDGE_CURVE('',#330,#312,#210,.T.);
#417=EDGE_CURVE('',#329,#330,#211,.T.);
#418=EDGE_CURVE('',#330,#325,#55,.T.);
#419=EDGE_CURVE('',#300,#293,#212,.T.);
#420=ORIENTED_EDGE('',*,*,#331,.F.);
#421=ORIENTED_EDGE('',*,*,#332,.F.);
#422=ORIENTED_EDGE('',*,*,#333,.F.);
#423=ORIENTED_EDGE('',*,*,#334,.T.);
#424=ORIENTED_EDGE('',*,*,#335,.F.);
#425=ORIENTED_EDGE('',*,*,#334,.F.);
#426=ORIENTED_EDGE('',*,*,#336,.F.);
#427=ORIENTED_EDGE('',*,*,#337,.T.);
#428=ORIENTED_EDGE('',*,*,#338,.F.);
#429=ORIENTED_EDGE('',*,*,#337,.F.);
#430=ORIENTED_EDGE('',*,*,#339,.F.);
#431=ORIENTED_EDGE('',*,*,#340,.T.);
#432=ORIENTED_EDGE('',*,*,#341,.F.);
#433=ORIENTED_EDGE('',*,*,#340,.F.);
#434=ORIENTED_EDGE('',*,*,#342,.F.);
#435=ORIENTED_EDGE('',*,*,#332,.T.);
#436=ORIENTED_EDGE('',*,*,#343,.F.);
#437=ORIENTED_EDGE('',*,*,#344,.F.);
#438=ORIENTED_EDGE('',*,*,#345,.F.);
#439=ORIENTED_EDGE('',*,*,#346,.T.);
#440=ORIENTED_EDGE('',*,*,#347,.F.);
#441=ORIENTED_EDGE('',*,*,#346,.F.);
#442=ORIENTED_EDGE('',*,*,#348,.F.);
#443=ORIENTED_EDGE('',*,*,#349,.T.);
#444=ORIENTED_EDGE('',*,*,#350,.F.);
#445=ORIENTED_EDGE('',*,*,#349,.F.);
#446=ORIENTED_EDGE('',*,*,#351,.F.);
#447=ORIENTED_EDGE('',*,*,#352,.T.);
#448=ORIENTED_EDGE('',*,*,#353,.F.);
#449=ORIENTED_EDGE('',*,*,#352,.F.);
#450=ORIENTED_EDGE('',*,*,#354,.F.);
#451=ORIENTED_EDGE('',*,*,#344,.T.);
#452=ORIENTED_EDGE('',*,*,#355,.F.);
#453=ORIENTED_EDGE('',*,*,#356,.T.);
#454=ORIENTED_EDGE('',*,*,#357,.F.);
#455=ORIENTED_EDGE('',*,*,#356,.F.);
#456=ORIENTED_EDGE('',*,*,#358,.F.);
#457=ORIENTED_EDGE('',*,*,#359,.T.);
#458=ORIENTED_EDGE('',*,*,#360,.F.);
#459=ORIENTED_EDGE('',*,*,#359,.F.);
#460=ORIENTED_EDGE('',*,*,#361,.T.);
#461=ORIENTED_EDGE('',*,*,#362,.T.);
#462=ORIENTED_EDGE('',*,*,#363,.T.);
#463=ORIENTED_EDGE('',*,*,#364,.T.);
#464=ORIENTED_EDGE('',*,*,#365,.T.);
#465=ORIENTED_EDGE('',*,*,#366,.T.);
#466=ORIENTED_EDGE('',*,*,#363,.F.);
#467=ORIENTED_EDGE('',*,*,#367,.T.);
#468=ORIENTED_EDGE('',*,*,#368,.T.);
#469=ORIENTED_EDGE('',*,*,#369,.T.);
#470=ORIENTED_EDGE('',*,*,#365,.F.);
#471=ORIENTED_EDGE('',*,*,#370,.T.);
#472=ORIENTED_EDGE('',*,*,#370,.F.);
#473=ORIENTED_EDGE('',*,*,#371,.T.);
#474=ORIENTED_EDGE('',*,*,#372,.F.);
#475=ORIENTED_EDGE('',*,*,#373,.F.);
#476=ORIENTED_EDGE('',*,*,#367,.F.);
#477=ORIENTED_EDGE('',*,*,#374,.T.);
#478=ORIENTED_EDGE('',*,*,#375,.F.);
#479=ORIENTED_EDGE('',*,*,#371,.F.);
#480=ORIENTED_EDGE('',*,*,#362,.F.);
#481=ORIENTED_EDGE('',*,*,#376,.T.);
#482=ORIENTED_EDGE('',*,*,#377,.F.);
#483=ORIENTED_EDGE('',*,*,#374,.F.);
#484=ORIENTED_EDGE('',*,*,#378,.F.);
#485=ORIENTED_EDGE('',*,*,#379,.T.);
#486=ORIENTED_EDGE('',*,*,#380,.T.);
#487=ORIENTED_EDGE('',*,*,#379,.F.);
#488=ORIENTED_EDGE('',*,*,#380,.F.);
#489=ORIENTED_EDGE('',*,*,#381,.F.);
#490=ORIENTED_EDGE('',*,*,#382,.T.);
#491=ORIENTED_EDGE('',*,*,#383,.T.);
#492=ORIENTED_EDGE('',*,*,#382,.F.);
#493=ORIENTED_EDGE('',*,*,#383,.F.);
#494=ORIENTED_EDGE('',*,*,#384,.F.);
#495=ORIENTED_EDGE('',*,*,#385,.F.);
#496=ORIENTED_EDGE('',*,*,#386,.F.);
#497=ORIENTED_EDGE('',*,*,#387,.F.);
#498=ORIENTED_EDGE('',*,*,#378,.T.);
#499=ORIENTED_EDGE('',*,*,#388,.F.);
#500=ORIENTED_EDGE('',*,*,#389,.F.);
#501=ORIENTED_EDGE('',*,*,#390,.F.);
#502=ORIENTED_EDGE('',*,*,#391,.F.);
#503=ORIENTED_EDGE('',*,*,#381,.T.);
#504=ORIENTED_EDGE('',*,*,#375,.T.);
#505=ORIENTED_EDGE('',*,*,#377,.T.);
#506=ORIENTED_EDGE('',*,*,#392,.T.);
#507=ORIENTED_EDGE('',*,*,#372,.T.);
#508=ORIENTED_EDGE('',*,*,#393,.T.);
#509=ORIENTED_EDGE('',*,*,#394,.T.);
#510=ORIENTED_EDGE('',*,*,#395,.T.);
#511=ORIENTED_EDGE('',*,*,#396,.T.);
#512=ORIENTED_EDGE('',*,*,#389,.T.);
#513=ORIENTED_EDGE('',*,*,#397,.F.);
#514=ORIENTED_EDGE('',*,*,#398,.F.);
#515=ORIENTED_EDGE('',*,*,#399,.T.);
#516=ORIENTED_EDGE('',*,*,#388,.T.);
#517=ORIENTED_EDGE('',*,*,#400,.F.);
#518=ORIENTED_EDGE('',*,*,#401,.F.);
#519=ORIENTED_EDGE('',*,*,#397,.T.);
#520=ORIENTED_EDGE('',*,*,#385,.T.);
#521=ORIENTED_EDGE('',*,*,#402,.F.);
#522=ORIENTED_EDGE('',*,*,#403,.F.);
#523=ORIENTED_EDGE('',*,*,#404,.T.);
#524=ORIENTED_EDGE('',*,*,#405,.F.);
#525=ORIENTED_EDGE('',*,*,#402,.T.);
#526=ORIENTED_EDGE('',*,*,#406,.T.);
#527=ORIENTED_EDGE('',*,*,#396,.F.);
#528=ORIENTED_EDGE('',*,*,#407,.F.);
#529=ORIENTED_EDGE('',*,*,#399,.F.);
#530=ORIENTED_EDGE('',*,*,#391,.T.);
#531=ORIENTED_EDGE('',*,*,#408,.F.);
#532=ORIENTED_EDGE('',*,*,#409,.F.);
#533=ORIENTED_EDGE('',*,*,#400,.T.);
#534=ORIENTED_EDGE('',*,*,#410,.F.);
#535=ORIENTED_EDGE('',*,*,#408,.T.);
#536=ORIENTED_EDGE('',*,*,#390,.T.);
#537=ORIENTED_EDGE('',*,*,#407,.T.);
#538=ORIENTED_EDGE('',*,*,#395,.F.);
#539=ORIENTED_EDGE('',*,*,#411,.F.);
#540=ORIENTED_EDGE('',*,*,#412,.F.);
#541=ORIENTED_EDGE('',*,*,#411,.T.);
#542=ORIENTED_EDGE('',*,*,#394,.F.);
#543=ORIENTED_EDGE('',*,*,#413,.F.);
#544=ORIENTED_EDGE('',*,*,#338,.T.);
#545=ORIENTED_EDGE('',*,*,#341,.T.);
#546=ORIENTED_EDGE('',*,*,#331,.T.);
#547=ORIENTED_EDGE('',*,*,#335,.T.);
#548=ORIENTED_EDGE('',*,*,#350,.T.);
#549=ORIENTED_EDGE('',*,*,#353,.T.);
#550=ORIENTED_EDGE('',*,*,#343,.T.);
#551=ORIENTED_EDGE('',*,*,#347,.T.);
#552=ORIENTED_EDGE('',*,*,#357,.T.);
#553=ORIENTED_EDGE('',*,*,#360,.T.);
#554=ORIENTED_EDGE('',*,*,#414,.F.);
#555=ORIENTED_EDGE('',*,*,#413,.T.);
#556=ORIENTED_EDGE('',*,*,#393,.F.);
#557=ORIENTED_EDGE('',*,*,#406,.F.);
#558=ORIENTED_EDGE('',*,*,#384,.T.);
#559=ORIENTED_EDGE('',*,*,#415,.F.);
#560=ORIENTED_EDGE('',*,*,#387,.T.);
#561=ORIENTED_EDGE('',*,*,#416,.F.);
#562=ORIENTED_EDGE('',*,*,#417,.F.);
#563=ORIENTED_EDGE('',*,*,#415,.T.);
#564=ORIENTED_EDGE('',*,*,#386,.T.);
#565=ORIENTED_EDGE('',*,*,#404,.F.);
#566=ORIENTED_EDGE('',*,*,#418,.F.);
#567=ORIENTED_EDGE('',*,*,#416,.T.);
#568=ORIENTED_EDGE('',*,*,#368,.F.);
#569=ORIENTED_EDGE('',*,*,#373,.T.);
#570=ORIENTED_EDGE('',*,*,#392,.F.);
#571=ORIENTED_EDGE('',*,*,#376,.F.);
#572=ORIENTED_EDGE('',*,*,#361,.F.);
#573=ORIENTED_EDGE('',*,*,#419,.F.);
#574=ORIENTED_EDGE('',*,*,#339,.T.);
#575=ORIENTED_EDGE('',*,*,#336,.T.);
#576=ORIENTED_EDGE('',*,*,#333,.T.);
#577=ORIENTED_EDGE('',*,*,#342,.T.);
#578=ORIENTED_EDGE('',*,*,#351,.T.);
#579=ORIENTED_EDGE('',*,*,#348,.T.);
#580=ORIENTED_EDGE('',*,*,#345,.T.);
#581=ORIENTED_EDGE('',*,*,#354,.T.);
#582=ORIENTED_EDGE('',*,*,#355,.T.);
#583=ORIENTED_EDGE('',*,*,#358,.T.);
#584=ORIENTED_EDGE('',*,*,#403,.T.);
#585=ORIENTED_EDGE('',*,*,#405,.T.);
#586=ORIENTED_EDGE('',*,*,#398,.T.);
#587=ORIENTED_EDGE('',*,*,#401,.T.);
#588=ORIENTED_EDGE('',*,*,#409,.T.);
#589=ORIENTED_EDGE('',*,*,#410,.T.);
#590=ORIENTED_EDGE('',*,*,#412,.T.);
#591=ORIENTED_EDGE('',*,*,#414,.T.);
#592=ORIENTED_EDGE('',*,*,#417,.T.);
#593=ORIENTED_EDGE('',*,*,#418,.T.);
#594=ORIENTED_EDGE('',*,*,#369,.F.);
#595=ORIENTED_EDGE('',*,*,#419,.T.);
#596=ORIENTED_EDGE('',*,*,#364,.F.);
#597=ORIENTED_EDGE('',*,*,#366,.F.);
#598=PLANE('',#669);
#599=PLANE('',#673);
#600=PLANE('',#677);
#601=PLANE('',#681);
#602=PLANE('',#700);
#603=PLANE('',#703);
#604=PLANE('',#707);
#605=PLANE('',#711);
#606=PLANE('',#712);
#607=PLANE('',#714);
#608=PLANE('',#716);
#609=PLANE('',#718);
#610=PLANE('',#721);
#611=PLANE('',#724);
#612=PLANE('',#725);
#613=PLANE('',#726);
#614=PLANE('',#727);
#615=PLANE('',#728);
#616=PLANE('',#731);
#617=PLANE('',#732);
#618=PLANE('',#733);
#619=ADVANCED_FACE('',(#70),#598,.F.);
#620=ADVANCED_FACE('',(#71),#56,.F.);
#621=ADVANCED_FACE('',(#72),#599,.F.);
#622=ADVANCED_FACE('',(#73),#57,.F.);
#623=ADVANCED_FACE('',(#74),#600,.F.);
#624=ADVANCED_FACE('',(#75),#58,.F.);
#625=ADVANCED_FACE('',(#76),#601,.F.);
#626=ADVANCED_FACE('',(#77),#59,.F.);
#627=ADVANCED_FACE('',(#78),#60,.F.);
#628=ADVANCED_FACE('',(#79),#61,.F.);
#629=ADVANCED_FACE('',(#80),#62,.T.);
#630=ADVANCED_FACE('',(#81),#26,.T.);
#631=ADVANCED_FACE('',(#82),#63,.T.);
#632=ADVANCED_FACE('',(#83),#602,.T.);
#633=ADVANCED_FACE('',(#84),#64,.T.);
#634=ADVANCED_FACE('',(#85),#603,.T.);
#635=ADVANCED_FACE('',(#86),#65,.F.);
#636=ADVANCED_FACE('',(#87),#604,.T.);
#637=ADVANCED_FACE('',(#88),#66,.F.);
#638=ADVANCED_FACE('',(#89),#605,.T.);
#639=ADVANCED_FACE('',(#90,#15),#606,.T.);
#640=ADVANCED_FACE('',(#91,#16),#607,.T.);
#641=ADVANCED_FACE('',(#92,#17),#608,.T.);
#642=ADVANCED_FACE('',(#93),#609,.T.);
#643=ADVANCED_FACE('',(#94),#67,.T.);
#644=ADVANCED_FACE('',(#95),#610,.T.);
#645=ADVANCED_FACE('',(#96),#68,.F.);
#646=ADVANCED_FACE('',(#97),#611,.T.);
#647=ADVANCED_FACE('',(#98),#612,.T.);
#648=ADVANCED_FACE('',(#99,#18,#19,#20,#21),#613,.T.);
#649=ADVANCED_FACE('',(#100),#614,.T.);
#650=ADVANCED_FACE('',(#101),#615,.T.);
#651=ADVANCED_FACE('',(#102),#69,.T.);
#652=ADVANCED_FACE('',(#103,#22,#23,#24,#25),#616,.T.);
#653=ADVANCED_FACE('',(#104),#617,.T.);
#654=ADVANCED_FACE('',(#105),#618,.F.);
#655=CLOSED_SHELL('',(#619,#620,#621,#622,#623,#624,#625,#626,#627,#628,
#629,#630,#631,#632,#633,#634,#635,#636,#637,#638,#639,#640,#641,#642,#643,
#644,#645,#646,#647,#648,#649,#650,#651,#652,#653,#654));
#656=DERIVED_UNIT_ELEMENT(#658,1.);
#657=DERIVED_UNIT_ELEMENT(#1115,-3.);
#658=(
MASS_UNIT()
NAMED_UNIT(*)
SI_UNIT(.KILO.,.GRAM.)
);
#659=DERIVED_UNIT((#656,#657));
#660=MEASURE_REPRESENTATION_ITEM('density measure',
POSITIVE_RATIO_MEASURE(7850.),#659);
#661=PROPERTY_DEFINITION_REPRESENTATION(#666,#663);
#662=PROPERTY_DEFINITION_REPRESENTATION(#667,#664);
#663=REPRESENTATION('material name',(#665),#1112);
#664=REPRESENTATION('density',(#660),#1112);
#665=DESCRIPTIVE_REPRESENTATION_ITEM('\X2\AC15CCA0\X0\','\X2\AC15CCA0\X0\');
#666=PROPERTY_DEFINITION('material property','material name',#1122);
#667=PROPERTY_DEFINITION('material property','density of part',#1122);
#668=AXIS2_PLACEMENT_3D('',#926,#734,#735);
#669=AXIS2_PLACEMENT_3D('',#927,#736,#737);
#670=AXIS2_PLACEMENT_3D('',#936,#742,#743);
#671=AXIS2_PLACEMENT_3D('',#938,#744,#745);
#672=AXIS2_PLACEMENT_3D('',#940,#746,#747);
#673=AXIS2_PLACEMENT_3D('',#942,#749,#750);
#674=AXIS2_PLACEMENT_3D('',#948,#754,#755);
#675=AXIS2_PLACEMENT_3D('',#949,#756,#757);
#676=AXIS2_PLACEMENT_3D('',#950,#758,#759);
#677=AXIS2_PLACEMENT_3D('',#951,#760,#761);
#678=AXIS2_PLACEMENT_3D('',#960,#766,#767);
#679=AXIS2_PLACEMENT_3D('',#962,#768,#769);
#680=AXIS2_PLACEMENT_3D('',#964,#770,#771);
#681=AXIS2_PLACEMENT_3D('',#966,#773,#774);
#682=AXIS2_PLACEMENT_3D('',#972,#778,#779);
#683=AXIS2_PLACEMENT_3D('',#973,#780,#781);
#684=AXIS2_PLACEMENT_3D('',#974,#782,#783);
#685=AXIS2_PLACEMENT_3D('',#975,#784,#785);
#686=AXIS2_PLACEMENT_3D('',#977,#786,#787);
#687=AXIS2_PLACEMENT_3D('',#980,#789,#790);
#688=AXIS2_PLACEMENT_3D('',#981,#791,#792);
#689=AXIS2_PLACEMENT_3D('',#983,#793,#794);
#690=AXIS2_PLACEMENT_3D('',#986,#796,#797);
#691=AXIS2_PLACEMENT_3D('',#987,#798,#799);
#692=AXIS2_PLACEMENT_3D('',#990,#800,#801);
#693=AXIS2_PLACEMENT_3D('',#994,#803,#804);
#694=AXIS2_PLACEMENT_3D('',#996,#806,#807);
#695=AXIS2_PLACEMENT_3D('',#999,#808,#809);
#696=AXIS2_PLACEMENT_3D('',#1000,#810,#811);
#697=AXIS2_PLACEMENT_3D('',#1001,#812,#813);
#698=AXIS2_PLACEMENT_3D('',#1002,#814,#815);
#699=AXIS2_PLACEMENT_3D('',#1005,#816,#817);
#700=AXIS2_PLACEMENT_3D('',#1008,#820,#821);
#701=AXIS2_PLACEMENT_3D('',#1014,#825,#826);
#702=AXIS2_PLACEMENT_3D('',#1017,#828,#829);
#703=AXIS2_PLACEMENT_3D('',#1018,#830,#831);
#704=AXIS2_PLACEMENT_3D('',#1022,#834,#835);
#705=AXIS2_PLACEMENT_3D('',#1024,#836,#837);
#706=AXIS2_PLACEMENT_3D('',#1027,#839,#840);
#707=AXIS2_PLACEMENT_3D('',#1028,#841,#842);
#708=AXIS2_PLACEMENT_3D('',#1029,#843,#844);
#709=AXIS2_PLACEMENT_3D('',#1031,#845,#846);
#710=AXIS2_PLACEMENT_3D('',#1034,#848,#849);
#711=AXIS2_PLACEMENT_3D('',#1035,#850,#851);
#712=AXIS2_PLACEMENT_3D('',#1036,#852,#853);
#713=AXIS2_PLACEMENT_3D('',#1043,#856,#857);
#714=AXIS2_PLACEMENT_3D('',#1045,#859,#860);
#715=AXIS2_PLACEMENT_3D('',#1048,#861,#862);
#716=AXIS2_PLACEMENT_3D('',#1054,#866,#867);
#717=AXIS2_PLACEMENT_3D('',#1063,#872,#873);
#718=AXIS2_PLACEMENT_3D('',#1064,#874,#875);
#719=AXIS2_PLACEMENT_3D('',#1070,#879,#880);
#720=AXIS2_PLACEMENT_3D('',#1073,#882,#883);
#721=AXIS2_PLACEMENT_3D('',#1074,#884,#885);
#722=AXIS2_PLACEMENT_3D('',#1080,#889,#890);
#723=AXIS2_PLACEMENT_3D('',#1081,#891,#892);
#724=AXIS2_PLACEMENT_3D('',#1084,#895,#896);
#725=AXIS2_PLACEMENT_3D('',#1088,#899,#900);
#726=AXIS2_PLACEMENT_3D('',#1092,#903,#904);
#727=AXIS2_PLACEMENT_3D('',#1096,#907,#908);
#728=AXIS2_PLACEMENT_3D('',#1100,#911,#912);
#729=AXIS2_PLACEMENT_3D('',#1104,#915,#916);
#730=AXIS2_PLACEMENT_3D('',#1105,#917,#918);
#731=AXIS2_PLACEMENT_3D('',#1106,#919,#920);
#732=AXIS2_PLACEMENT_3D('',#1108,#922,#923);
#733=AXIS2_PLACEMENT_3D('',#1109,#924,#925);
#734=DIRECTION('axis',(0.,0.,1.));
#735=DIRECTION('refdir',(1.,0.,0.));
#736=DIRECTION('center_axis',(1.,0.,8.63198401646059E-14));
#737=DIRECTION('ref_axis',(-8.63198401646059E-14,0.,1.));
#738=DIRECTION('',(8.63198401646059E-14,-2.0175636638467E-29,-1.));
#739=DIRECTION('',(0.,-1.,0.));
#740=DIRECTION('',(-8.63198401646059E-14,0.,1.));
#741=DIRECTION('',(0.,-1.,0.));
#742=DIRECTION('center_axis',(0.,-1.,0.));
#743=DIRECTION('ref_axis',(-1.26179001695073E-6,0.,-0.999999999999204));
#744=DIRECTION('center_axis',(2.33731163079003E-16,1.,0.));
#745=DIRECTION('ref_axis',(1.,0.,5.07741996594912E-13));
#746=DIRECTION('center_axis',(0.,-1.,0.));
#747=DIRECTION('ref_axis',(1.,0.,5.07741996594912E-13));
#748=DIRECTION('',(0.,-1.,0.));
#749=DIRECTION('center_axis',(-1.,0.,-5.0987016531556E-13));
#750=DIRECTION('ref_axis',(5.0987016531556E-13,0.,-1.));
#751=DIRECTION('',(-5.0987016531556E-13,1.19172546758489E-28,1.));
#752=DIRECTION('',(5.0987016531556E-13,0.,-1.));
#753=DIRECTION('',(0.,-1.,0.));
#754=DIRECTION('center_axis',(0.,-1.,0.));
#755=DIRECTION('ref_axis',(-1.,0.,-5.12182888693647E-13));
#756=DIRECTION('center_axis',(2.33731163079003E-16,1.,0.));
#757=DIRECTION('ref_axis',(-1.,0.,-5.12182888693647E-13));
#758=DIRECTION('center_axis',(0.,-1.,0.));
#759=DIRECTION('ref_axis',(-1.,0.,-5.12182888693647E-13));
#760=DIRECTION('center_axis',(1.,0.,8.63198401646059E-14));
#761=DIRECTION('ref_axis',(-8.63198401646059E-14,0.,1.));
#762=DIRECTION('',(8.63198401646059E-14,-2.0175636638467E-29,-1.));
#763=DIRECTION('',(0.,-1.,0.));
#764=DIRECTION('',(-8.63198401646059E-14,0.,1.));
#765=DIRECTION('',(0.,-1.,0.));
#766=DIRECTION('center_axis',(0.,-1.,0.));
#767=DIRECTION('ref_axis',(-1.26179001695073E-6,0.,-0.999999999999204));
#768=DIRECTION('center_axis',(2.33731163079003E-16,1.,0.));
#769=DIRECTION('ref_axis',(1.,0.,5.07741996594912E-13));
#770=DIRECTION('center_axis',(0.,-1.,0.));
#771=DIRECTION('ref_axis',(1.,0.,5.07741996594912E-13));
#772=DIRECTION('',(0.,-1.,0.));
#773=DIRECTION('center_axis',(-1.,0.,-5.0987016531556E-13));
#774=DIRECTION('ref_axis',(5.0987016531556E-13,0.,-1.));
#775=DIRECTION('',(-5.0987016531556E-13,1.19172546758489E-28,1.));
#776=DIRECTION('',(5.0987016531556E-13,0.,-1.));
#777=DIRECTION('',(0.,-1.,0.));
#778=DIRECTION('center_axis',(0.,-1.,0.));
#779=DIRECTION('ref_axis',(-1.,0.,-5.12182888693647E-13));
#780=DIRECTION('center_axis',(2.33731163079003E-16,1.,0.));
#781=DIRECTION('ref_axis',(-1.,0.,-5.12182888693647E-13));
#782=DIRECTION('center_axis',(0.,-1.,0.));
#783=DIRECTION('ref_axis',(-1.,0.,-5.12182888693647E-13));
#784=DIRECTION('center_axis',(0.,-1.,0.));
#785=DIRECTION('ref_axis',(-1.,0.,0.));
#786=DIRECTION('center_axis',(0.,-1.,0.));
#787=DIRECTION('ref_axis',(-1.,0.,0.));
#788=DIRECTION('',(0.,-1.,0.));
#789=DIRECTION('center_axis',(2.33731163079003E-16,1.,0.));
#790=DIRECTION('ref_axis',(-1.,0.,0.));
#791=DIRECTION('center_axis',(0.,-1.,0.));
#792=DIRECTION('ref_axis',(-1.,0.,0.));
#793=DIRECTION('center_axis',(0.,-1.,0.));
#794=DIRECTION('ref_axis',(-1.,0.,0.));
#795=DIRECTION('',(0.,-1.,0.));
#796=DIRECTION('center_axis',(2.33731163079003E-16,1.,0.));
#797=DIRECTION('ref_axis',(-1.,0.,0.));
#798=DIRECTION('center_axis',(0.,-1.,0.));
#799=DIRECTION('ref_axis',(0.707106781186548,0.,-0.707106781186547));
#800=DIRECTION('center_axis',(0.,-1.,0.));
#801=DIRECTION('ref_axis',(0.707106781186548,0.,-0.707106781186547));
#802=DIRECTION('',(0.,-1.,0.));
#803=DIRECTION('center_axis',(1.14423774522196E-16,1.,0.));
#804=DIRECTION('ref_axis',(1.,-1.14423774522196E-16,0.));
#805=DIRECTION('',(0.,1.,0.));
#806=DIRECTION('center_axis',(0.,0.,1.));
#807=DIRECTION('ref_axis',(1.,0.,0.));
#808=DIRECTION('center_axis',(0.,-1.,0.));
#809=DIRECTION('ref_axis',(-1.,0.,0.));
#810=DIRECTION('center_axis',(0.,0.,1.));
#811=DIRECTION('ref_axis',(-6.12323399573676E-17,-1.,0.));
#812=DIRECTION('center_axis',(0.,0.,-1.));
#813=DIRECTION('ref_axis',(-6.12323399573677E-17,-1.,0.));
#814=DIRECTION('center_axis',(0.,-1.,0.));
#815=DIRECTION('ref_axis',(-0.707106781186548,0.,-0.707106781186547));
#816=DIRECTION('center_axis',(0.,-1.,0.));
#817=DIRECTION('ref_axis',(-0.707106781186548,0.,-0.707106781186547));
#818=DIRECTION('',(0.,-1.,0.));
#819=DIRECTION('',(0.,1.,0.));
#820=DIRECTION('center_axis',(-1.,0.,0.));
#821=DIRECTION('ref_axis',(0.,-1.,0.));
#822=DIRECTION('',(0.,0.,1.));
#823=DIRECTION('',(-7.40148683083438E-17,-1.,0.));
#824=DIRECTION('',(0.,0.,1.));
#825=DIRECTION('center_axis',(0.,0.,1.));
#826=DIRECTION('ref_axis',(-1.,0.,0.));
#827=DIRECTION('',(0.,0.,1.));
#828=DIRECTION('center_axis',(0.,0.,1.));
#829=DIRECTION('ref_axis',(-1.,0.,0.));
#830=DIRECTION('center_axis',(1.,0.,0.));
#831=DIRECTION('ref_axis',(0.,1.,0.));
#832=DIRECTION('',(0.,0.,1.));
#833=DIRECTION('',(0.,1.,0.));
#834=DIRECTION('center_axis',(0.,0.,-1.));
#835=DIRECTION('ref_axis',(-1.,0.,0.));
#836=DIRECTION('center_axis',(0.,0.,-1.));
#837=DIRECTION('ref_axis',(-1.,0.,0.));
#838=DIRECTION('',(0.,0.,-1.));
#839=DIRECTION('center_axis',(0.,0.,-1.));
#840=DIRECTION('ref_axis',(-1.,0.,0.));
#841=DIRECTION('center_axis',(0.,0.,1.));
#842=DIRECTION('ref_axis',(-1.,0.,0.));
#843=DIRECTION('center_axis',(0.,0.,-1.));
#844=DIRECTION('ref_axis',(-1.,0.,0.));
#845=DIRECTION('center_axis',(0.,0.,-1.));
#846=DIRECTION('ref_axis',(-1.,0.,0.));
#847=DIRECTION('',(0.,0.,-1.));
#848=DIRECTION('center_axis',(0.,0.,-1.));
#849=DIRECTION('ref_axis',(-1.,0.,0.));
#850=DIRECTION('center_axis',(0.,0.,1.));
#851=DIRECTION('ref_axis',(-1.,0.,0.));
#852=DIRECTION('center_axis',(0.,0.,1.));
#853=DIRECTION('ref_axis',(-1.,0.,0.));
#854=DIRECTION('',(8.23785492455428E-13,1.,0.));
#855=DIRECTION('',(-1.,0.,0.));
#856=DIRECTION('center_axis',(0.,0.,-1.));
#857=DIRECTION('ref_axis',(7.40148690436143E-16,-1.,0.));
#858=DIRECTION('',(1.,0.,0.));
#859=DIRECTION('center_axis',(0.,0.,1.));
#860=DIRECTION('ref_axis',(-1.,0.,0.));
#861=DIRECTION('center_axis',(0.,0.,-1.));
#862=DIRECTION('ref_axis',(-1.48029867423174E-15,1.,0.));
#863=DIRECTION('',(-1.,1.38777878078145E-16,0.));
#864=DIRECTION('',(-2.96059734846348E-14,-1.,0.));
#865=DIRECTION('',(1.,-5.55111512312578E-16,0.));
#866=DIRECTION('center_axis',(0.,0.,1.));
#867=DIRECTION('ref_axis',(-1.,0.,0.));
#868=DIRECTION('',(-1.,0.,0.));
#869=DIRECTION('',(8.23785492455428E-13,1.,0.));
#870=DIRECTION('',(1.,-2.33731163079003E-16,0.));
#871=DIRECTION('',(9.65411214489059E-17,-1.,0.));
#872=DIRECTION('center_axis',(0.,0.,-1.));
#873=DIRECTION('ref_axis',(-1.,6.57368896216916E-17,0.));
#874=DIRECTION('center_axis',(-1.38777878078145E-16,-1.,0.));
#875=DIRECTION('ref_axis',(1.,-1.38777878078145E-16,0.));
#876=DIRECTION('',(0.,0.,1.));
#877=DIRECTION('',(-1.,1.38777878078145E-16,0.));
#878=DIRECTION('',(0.,0.,1.));
#879=DIRECTION('center_axis',(0.,0.,1.));
#880=DIRECTION('ref_axis',(-1.48029867423174E-15,1.,0.));
#881=DIRECTION('',(0.,0.,1.));
#882=DIRECTION('center_axis',(0.,0.,-1.));
#883=DIRECTION('ref_axis',(-1.48029867423174E-15,1.,0.));
#884=DIRECTION('center_axis',(0.,-1.,0.));
#885=DIRECTION('ref_axis',(1.,0.,0.));
#886=DIRECTION('',(0.,0.,1.));
#887=DIRECTION('',(-1.,0.,0.));
#888=DIRECTION('',(0.,0.,1.));
#889=DIRECTION('center_axis',(0.,0.,1.));
#890=DIRECTION('ref_axis',(6.8977514906128E-8,-0.999999999999998,0.));
#891=DIRECTION('center_axis',(0.,0.,1.));
#892=DIRECTION('ref_axis',(-1.,6.57368896216916E-17,0.));
#893=DIRECTION('',(0.,0.,1.));
#894=DIRECTION('',(0.,0.,1.));
#895=DIRECTION('center_axis',(5.55111512312578E-16,1.,0.));
#896=DIRECTION('ref_axis',(-1.,5.55111512312578E-16,0.));
#897=DIRECTION('',(0.,0.,1.));
#898=DIRECTION('',(1.,-5.55111512312578E-16,0.));
#899=DIRECTION('center_axis',(-1.,-9.65411214489059E-17,0.));
#900=DIRECTION('ref_axis',(9.65411214489059E-17,-1.,0.));
#901=DIRECTION('',(-9.65411214489059E-17,1.,0.));
#902=DIRECTION('',(0.,0.,1.));
#903=DIRECTION('center_axis',(-2.33731163079003E-16,-1.,0.));
#904=DIRECTION('ref_axis',(1.,-2.33731163079003E-16,0.));
#905=DIRECTION('',(-1.,2.33731163079003E-16,0.));
#906=DIRECTION('',(0.,0.,1.));
#907=DIRECTION('center_axis',(1.,5.59938568215842E-14,0.));
#908=DIRECTION('ref_axis',(-5.59938568215842E-14,1.,0.));
#909=DIRECTION('',(5.59938568215842E-14,-1.,0.));
#910=DIRECTION('',(0.,0.,1.));
#911=DIRECTION('center_axis',(0.,1.,0.));
#912=DIRECTION('ref_axis',(-1.,0.,0.));
#913=DIRECTION('',(0.,0.,1.));
#914=DIRECTION('',(1.,0.,0.));
#915=DIRECTION('center_axis',(0.,0.,1.));
#916=DIRECTION('ref_axis',(7.40148690436143E-16,-1.,0.));
#917=DIRECTION('center_axis',(0.,0.,-1.));
#918=DIRECTION('ref_axis',(7.40148690436143E-16,-1.,0.));
#919=DIRECTION('center_axis',(0.,1.,0.));
#920=DIRECTION('ref_axis',(-1.,0.,0.));
#921=DIRECTION('',(1.,0.,0.));
#922=DIRECTION('center_axis',(0.,0.,1.));
#923=DIRECTION('ref_axis',(1.,0.,0.));
#924=DIRECTION('center_axis',(0.,0.,1.));
#925=DIRECTION('ref_axis',(1.,0.,0.));
#926=CARTESIAN_POINT('',(0.,0.,0.));
#927=CARTESIAN_POINT('Origin',(16.500000000001,30.,11.0000000000008));
#928=CARTESIAN_POINT('',(16.5000000000003,29.,19.0000000000008));
#929=CARTESIAN_POINT('',(16.500000000001,29.,11.0000000000008));
#930=CARTESIAN_POINT('',(16.5000000000014,29.,6.50000000000191));
#931=CARTESIAN_POINT('',(16.5000000000003,30.,19.0000000000008));
#932=CARTESIAN_POINT('',(16.5000000000003,30.,19.0000000000008));
#933=CARTESIAN_POINT('',(16.500000000001,30.,11.0000000000008));
#934=CARTESIAN_POINT('',(16.5000000000014,30.,5.50000000000023));
#935=CARTESIAN_POINT('',(16.500000000001,30.,11.0000000000008));
#936=CARTESIAN_POINT('Origin',(15.,30.,11.));
#937=CARTESIAN_POINT('',(13.5000000000038,29.,11.0000037853708));
#938=CARTESIAN_POINT('Origin',(15.,29.,11.));
#939=CARTESIAN_POINT('',(13.5000000000038,30.,11.0000037853708));
#940=CARTESIAN_POINT('Origin',(15.,30.,11.));
#941=CARTESIAN_POINT('',(13.5000000000038,30.,11.0000037853708));
#942=CARTESIAN_POINT('Origin',(13.4999999999997,30.,18.9999999999992));
#943=CARTESIAN_POINT('',(13.4999999999997,29.,18.9999999999992));
#944=CARTESIAN_POINT('',(13.5000000000041,29.,10.5000000000079));
#945=CARTESIAN_POINT('',(13.4999999999997,30.,18.9999999999992));
#946=CARTESIAN_POINT('',(13.5000000000046,30.,9.49999999999796));
#947=CARTESIAN_POINT('',(13.4999999999997,30.,18.9999999999992));
#948=CARTESIAN_POINT('Origin',(15.,30.,19.));
#949=CARTESIAN_POINT('Origin',(15.,29.,19.));
#950=CARTESIAN_POINT('Origin',(15.,30.,19.));
#951=CARTESIAN_POINT('Origin',(-13.499999999999,30.,11.0000000000008));
#952=CARTESIAN_POINT('',(-13.4999999999997,29.,19.0000000000008));
#953=CARTESIAN_POINT('',(-13.499999999999,29.,11.0000000000008));
#954=CARTESIAN_POINT('',(-13.4999999999986,29.,6.50000000000062));
#955=CARTESIAN_POINT('',(-13.4999999999997,30.,19.0000000000008));
#956=CARTESIAN_POINT('',(-13.4999999999997,30.,19.0000000000008));
#957=CARTESIAN_POINT('',(-13.499999999999,30.,11.0000000000008));
#958=CARTESIAN_POINT('',(-13.4999999999986,30.,5.49999999999894));
#959=CARTESIAN_POINT('',(-13.499999999999,30.,11.0000000000008));
#960=CARTESIAN_POINT('Origin',(-15.,30.,11.));
#961=CARTESIAN_POINT('',(-16.4999999999962,29.,11.0000037853708));
#962=CARTESIAN_POINT('Origin',(-15.,29.,11.));
#963=CARTESIAN_POINT('',(-16.4999999999962,30.,11.0000037853708));
#964=CARTESIAN_POINT('Origin',(-15.,30.,11.));
#965=CARTESIAN_POINT('',(-16.4999999999962,30.,11.0000037853708));
#966=CARTESIAN_POINT('Origin',(-16.5000000000003,30.,18.9999999999992));
#967=CARTESIAN_POINT('',(-16.5000000000003,29.,18.9999999999992));
#968=CARTESIAN_POINT('',(-16.4999999999959,29.,10.5000000000003));
#969=CARTESIAN_POINT('',(-16.5000000000003,30.,18.9999999999992));
#970=CARTESIAN_POINT('',(-16.4999999999954,30.,9.49999999999031));
#971=CARTESIAN_POINT('',(-16.5000000000003,30.,18.9999999999992));
#972=CARTESIAN_POINT('Origin',(-15.,30.,19.));
#973=CARTESIAN_POINT('Origin',(-15.,29.,19.));
#974=CARTESIAN_POINT('Origin',(-15.,30.,19.));
#975=CARTESIAN_POINT('Origin',(-1.85037168013591E-15,30.,10.));
#976=CARTESIAN_POINT('',(1.5,30.,10.));
#977=CARTESIAN_POINT('Origin',(-1.85037168013591E-15,30.,10.));
#978=CARTESIAN_POINT('',(1.5,29.,10.));
#979=CARTESIAN_POINT('',(1.5,30.,10.));
#980=CARTESIAN_POINT('Origin',(-1.85037168013591E-15,29.,10.));
#981=CARTESIAN_POINT('Origin',(2.05596788671764E-16,30.,20.));
#982=CARTESIAN_POINT('',(1.5,30.,20.));
#983=CARTESIAN_POINT('Origin',(2.05596788671764E-16,30.,20.));
#984=CARTESIAN_POINT('',(1.5,29.,20.));
#985=CARTESIAN_POINT('',(1.5,30.,20.));
#986=CARTESIAN_POINT('Origin',(2.05596788671764E-16,29.,20.));
#987=CARTESIAN_POINT('Origin',(18.,2.5,2.));
#988=CARTESIAN_POINT('',(18.,30.,0.));
#989=CARTESIAN_POINT('',(20.,30.,2.));
#990=CARTESIAN_POINT('Origin',(18.,30.,2.));
#991=CARTESIAN_POINT('',(20.,-2.44929359829471E-15,2.));
#992=CARTESIAN_POINT('',(20.,2.5,2.));
#993=CARTESIAN_POINT('',(18.,-2.22044604925031E-15,0.));
#994=CARTESIAN_POINT('Origin',(18.,-2.22044604925031E-15,2.));
#995=CARTESIAN_POINT('',(18.,2.5,0.));
#996=CARTESIAN_POINT('Origin',(0.,0.,2.));
#997=CARTESIAN_POINT('',(-20.,0.,2.));
#998=CARTESIAN_POINT('',(-18.,0.,0.));
#999=CARTESIAN_POINT('Origin',(-18.,0.,2.));
#1000=CARTESIAN_POINT('Origin',(0.,0.,0.));
#1001=CARTESIAN_POINT('Origin',(0.,0.,2.));
#1002=CARTESIAN_POINT('Origin',(-18.,17.5,2.));
#1003=CARTESIAN_POINT('',(-20.,30.,2.));
#1004=CARTESIAN_POINT('',(-18.,30.,0.));
#1005=CARTESIAN_POINT('Origin',(-18.,30.,2.));
#1006=CARTESIAN_POINT('',(-18.,17.5,0.));
#1007=CARTESIAN_POINT('',(-20.,17.5,2.));
#1008=CARTESIAN_POINT('Origin',(-20.,30.,0.));
#1009=CARTESIAN_POINT('',(-20.,0.,28.));
#1010=CARTESIAN_POINT('',(-20.,0.,0.));
#1011=CARTESIAN_POINT('',(-20.,30.,28.));
#1012=CARTESIAN_POINT('',(-20.,30.,28.));
#1013=CARTESIAN_POINT('',(-20.,30.,0.));
#1014=CARTESIAN_POINT('Origin',(0.,0.,0.));
#1015=CARTESIAN_POINT('',(20.,-2.44929359829471E-15,28.));
#1016=CARTESIAN_POINT('',(20.,-2.44929359829471E-15,0.));
#1017=CARTESIAN_POINT('Origin',(0.,0.,28.));
#1018=CARTESIAN_POINT('Origin',(20.,0.,0.));
#1019=CARTESIAN_POINT('',(20.,30.,28.));
#1020=CARTESIAN_POINT('',(20.,30.,0.));
#1021=CARTESIAN_POINT('',(20.,0.,28.));
#1022=CARTESIAN_POINT('Origin',(-15.,3.,26.));
#1023=CARTESIAN_POINT('',(-13.55,3.,26.));
#1024=CARTESIAN_POINT('Origin',(-15.,3.,26.));
#1025=CARTESIAN_POINT('',(-13.55,3.,21.));
#1026=CARTESIAN_POINT('',(-13.55,3.,26.));
#1027=CARTESIAN_POINT('Origin',(-15.,3.,21.));
#1028=CARTESIAN_POINT('Origin',(-15.,3.,21.));
#1029=CARTESIAN_POINT('Origin',(15.,3.,26.));
#1030=CARTESIAN_POINT('',(16.45,3.,26.));
#1031=CARTESIAN_POINT('Origin',(15.,3.,26.));
#1032=CARTESIAN_POINT('',(16.45,3.,21.));
#1033=CARTESIAN_POINT('',(16.45,3.,26.));
#1034=CARTESIAN_POINT('Origin',(15.,3.,21.));
#1035=CARTESIAN_POINT('Origin',(15.,3.,21.));
#1036=CARTESIAN_POINT('Origin',(-15.5000000149011,3.,26.));
#1037=CARTESIAN_POINT('',(-19.,2.98022762024175E-8,26.));
#1038=CARTESIAN_POINT('',(-18.9999999999951,5.99999997019772,26.));
#1039=CARTESIAN_POINT('',(-18.9999999999951,5.99999997019772,26.));
#1040=CARTESIAN_POINT('',(-15.,2.98022762024175E-8,26.));
#1041=CARTESIAN_POINT('',(-17.2500000074506,2.9802275647306E-8,26.));
#1042=CARTESIAN_POINT('',(-15.,5.99999997019772,26.));
#1043=CARTESIAN_POINT('Origin',(-15.,3.,26.));
#1044=CARTESIAN_POINT('',(-15.2500000074506,5.99999997019772,26.));
#1045=CARTESIAN_POINT('Origin',(15.5000013254739,3.,26.));
#1046=CARTESIAN_POINT('',(15.,2.65094785678599E-6,26.));
#1047=CARTESIAN_POINT('',(15.,5.99999734905214,26.));
#1048=CARTESIAN_POINT('Origin',(15.,3.,26.));
#1049=CARTESIAN_POINT('',(18.9999999999998,2.6509478523451E-6,26.));
#1050=CARTESIAN_POINT('',(15.2500006627369,2.65094785206754E-6,26.));
#1051=CARTESIAN_POINT('',(19.,5.99999734905214,26.));
#1052=CARTESIAN_POINT('',(19.,5.99999734905214,26.));
#1053=CARTESIAN_POINT('',(17.250000662737,5.99999734905215,26.));
#1054=CARTESIAN_POINT('Origin',(0.,5.,28.));
#1055=CARTESIAN_POINT('',(-20.,30.,28.));
#1056=CARTESIAN_POINT('',(-19.,2.9802275647306E-8,28.));
#1057=CARTESIAN_POINT('',(-18.9999999999963,29.,28.));
#1058=CARTESIAN_POINT('',(-18.9999999999979,2.50000001490896,28.));
#1059=CARTESIAN_POINT('',(19.,29.,28.));
#1060=CARTESIAN_POINT('',(-18.9999999999963,29.,28.));
#1061=CARTESIAN_POINT('',(18.9999999999998,2.65094785137365E-6,28.));
#1062=CARTESIAN_POINT('',(19.,5.99999734905215,28.));
#1063=CARTESIAN_POINT('Origin',(0.,0.,28.));
#1064=CARTESIAN_POINT('Origin',(14.9999999999998,2.65094785192876E-6,2.));
#1065=CARTESIAN_POINT('',(14.9999999999998,2.65094785192876E-6,2.));
#1066=CARTESIAN_POINT('',(14.9999999999998,2.65094785192876E-6,2.));
#1067=CARTESIAN_POINT('',(18.9999999999998,2.65094785137365E-6,2.));
#1068=CARTESIAN_POINT('',(7.49999999999991,2.65094785317777E-6,2.));
#1069=CARTESIAN_POINT('',(18.9999999999998,2.65094785137365E-6,2.));
#1070=CARTESIAN_POINT('Origin',(15.,3.,2.));
#1071=CARTESIAN_POINT('',(15.,5.99999734905215,2.));
#1072=CARTESIAN_POINT('',(15.,5.99999734905215,2.));
#1073=CARTESIAN_POINT('Origin',(15.,3.,2.));
#1074=CARTESIAN_POINT('Origin',(-19.,2.9802275647306E-8,2.));
#1075=CARTESIAN_POINT('',(-19.,2.9802275647306E-8,2.));
#1076=CARTESIAN_POINT('',(-19.,2.9802275647306E-8,2.));
#1077=CARTESIAN_POINT('',(-15.,2.9802275647306E-8,2.));
#1078=CARTESIAN_POINT('',(-9.5,2.98022753697502E-8,2.));
#1079=CARTESIAN_POINT('',(-15.,2.9802275647306E-8,2.));
#1080=CARTESIAN_POINT('Origin',(0.,0.,2.));
#1081=CARTESIAN_POINT('Origin',(0.,0.,2.));
#1082=CARTESIAN_POINT('',(-19.,2.9802275647306E-8,2.));
#1083=CARTESIAN_POINT('',(18.9999999999998,2.65094785137365E-6,2.));
#1084=CARTESIAN_POINT('Origin',(19.,5.99999734905215,2.));
#1085=CARTESIAN_POINT('',(19.,5.99999734905215,2.));
#1086=CARTESIAN_POINT('',(19.,5.99999734905215,2.));
#1087=CARTESIAN_POINT('',(9.5,5.99999734905215,2.));
#1088=CARTESIAN_POINT('Origin',(19.,29.,2.));
#1089=CARTESIAN_POINT('',(19.,29.,2.));
#1090=CARTESIAN_POINT('',(19.,17.,2.));
#1091=CARTESIAN_POINT('',(19.,29.,2.));
#1092=CARTESIAN_POINT('Origin',(-18.9999999999963,29.,2.));
#1093=CARTESIAN_POINT('',(-18.9999999999963,29.,2.));
#1094=CARTESIAN_POINT('',(-9.49999999999817,29.,2.));
#1095=CARTESIAN_POINT('',(-18.9999999999963,29.,2.));
#1096=CARTESIAN_POINT('Origin',(-18.9999999999951,5.99999997019772,2.));
#1097=CARTESIAN_POINT('',(-18.9999999999951,5.99999997019772,2.));
#1098=CARTESIAN_POINT('',(-18.999999999995,5.49999998509833,2.));
#1099=CARTESIAN_POINT('',(-18.9999999999951,5.99999997019772,2.));
#1100=CARTESIAN_POINT('Origin',(-15.,5.99999997019772,2.));
#1101=CARTESIAN_POINT('',(-15.,5.99999997019772,2.));
#1102=CARTESIAN_POINT('',(-15.,5.99999997019772,2.));
#1103=CARTESIAN_POINT('',(-7.5,5.99999997019772,2.));
#1104=CARTESIAN_POINT('Origin',(-15.,3.,2.));
#1105=CARTESIAN_POINT('Origin',(-15.,3.,2.));
#1106=CARTESIAN_POINT('Origin',(20.,30.,0.));
#1107=CARTESIAN_POINT('',(-20.,30.,0.));
#1108=CARTESIAN_POINT('Origin',(0.,5.,2.));
#1109=CARTESIAN_POINT('Origin',(0.,5.,0.));
#1110=UNCERTAINTY_MEASURE_WITH_UNIT(LENGTH_MEASURE(0.01),#1114,
'DISTANCE_ACCURACY_VALUE',
'Maximum model space distance between geometric entities at asserted c
onnectivities');
#1111=UNCERTAINTY_MEASURE_WITH_UNIT(LENGTH_MEASURE(0.01),#1114,
'DISTANCE_ACCURACY_VALUE',
'Maximum model space distance between geometric entities at asserted c
onnectivities');
#1112=(
GEOMETRIC_REPRESENTATION_CONTEXT(3)
GLOBAL_UNCERTAINTY_ASSIGNED_CONTEXT((#1110))
GLOBAL_UNIT_ASSIGNED_CONTEXT((#1114,#1116,#1117))
REPRESENTATION_CONTEXT('','3D')
);
#1113=(
GEOMETRIC_REPRESENTATION_CONTEXT(3)
GLOBAL_UNCERTAINTY_ASSIGNED_CONTEXT((#1111))
GLOBAL_UNIT_ASSIGNED_CONTEXT((#1114,#1116,#1117))
REPRESENTATION_CONTEXT('','3D')
);
#1114=(
LENGTH_UNIT()
NAMED_UNIT(*)
SI_UNIT(.MILLI.,.METRE.)
);
#1115=(
LENGTH_UNIT()
NAMED_UNIT(*)
SI_UNIT($,.METRE.)
);
#1116=(
NAMED_UNIT(*)
PLANE_ANGLE_UNIT()
SI_UNIT($,.RADIAN.)
);
#1117=(
NAMED_UNIT(*)
SI_UNIT($,.STERADIAN.)
SOLID_ANGLE_UNIT()
);
#1118=SHAPE_DEFINITION_REPRESENTATION(#1119,#1120);
#1119=PRODUCT_DEFINITION_SHAPE('',$,#1122);
#1120=SHAPE_REPRESENTATION('',(#668),#1112);
#1121=PRODUCT_DEFINITION_CONTEXT('part definition',#1126,'design');
#1122=PRODUCT_DEFINITION('(\X2\C800C7A5B418C9C0\X0\ \X2\C54AC74C\X0\)',
'(\X2\C800C7A5B418C9C0\X0\ \X2\C54AC74C\X0\)',#1123,#1121);
#1123=PRODUCT_DEFINITION_FORMATION('',$,#1128);
#1124=PRODUCT_RELATED_PRODUCT_CATEGORY('(\X2\C800C7A5B418C9C0\X0\ \X2\C54AC74C\X0\)',
'(\X2\C800C7A5B418C9C0\X0\ \X2\C54AC74C\X0\)',(#1128));
#1125=APPLICATION_PROTOCOL_DEFINITION('international standard',
'automotive_design',2009,#1126);
#1126=APPLICATION_CONTEXT(
'Core Data for Automotive Mechanical Design Process');
#1127=PRODUCT_CONTEXT('part definition',#1126,'mechanical');
#1128=PRODUCT('(\X2\C800C7A5B418C9C0\X0\ \X2\C54AC74C\X0\)',
'(\X2\C800C7A5B418C9C0\X0\ \X2\C54AC74C\X0\)',$,(#1127));
#1129=PRESENTATION_STYLE_ASSIGNMENT((#1130));
#1130=SURFACE_STYLE_USAGE(.BOTH.,#1131);
#1131=SURFACE_SIDE_STYLE('',(#1132));
#1132=SURFACE_STYLE_FILL_AREA(#1133);
#1133=FILL_AREA_STYLE('\X2\AC15CCA0\X0\ - \X2\C0C8D2F4\X0\',(#1134));
#1134=FILL_AREA_STYLE_COLOUR('\X2\AC15CCA0\X0\ - \X2\C0C8D2F4\X0\',#1135);
#1135=COLOUR_RGB('\X2\AC15CCA0\X0\ - \X2\C0C8D2F4\X0\',0.627450980392157,
0.627450980392157,0.627450980392157);
ENDSEC;
END-ISO-10303-21;
