ISO-10303-21;
HEADER;
/* Generated by software containing ST-Developer
 * from STEP Tools, Inc. (www.steptools.com) 
 */

FILE_DESCRIPTION(
/* description */ (''),
/* implementation_level */ '2;1');

FILE_NAME(
/* name */ 'TRARM02_Link3B_100x50x33.step',
/* time_stamp */ '2026-06-11T09:10:24+09:00',
/* author */ (''),
/* organization */ (''),
/* preprocessor_version */ 'ST-DEVELOPER v20.1',
/* originating_system */ 'Autodesk Translation Framework v15.8.0.0',
/* authorisation */ '');

FILE_SCHEMA (('AUTOMOTIVE_DESIGN { 1 0 10303 214 3 1 1 }'));
ENDSEC;

DATA;
#10=MECHANICAL_DESIGN_GEOMETRIC_PRESENTATION_REPRESENTATION('',(#13),#1167);
#11=SHAPE_REPRESENTATION_RELATIONSHIP('SRR','None',#1174,#12);
#12=ADVANCED_BREP_SHAPE_REPRESENTATION('',(#14),#1166);
#13=STYLED_ITEM('',(#1183),#14);
#14=MANIFOLD_SOLID_BREP('\X2\BCF8CCB4\X0\1',#671);
#15=FACE_BOUND('',#256,.T.);
#16=FACE_BOUND('',#257,.T.);
#17=FACE_BOUND('',#258,.T.);
#18=FACE_BOUND('',#259,.T.);
#19=FACE_BOUND('',#260,.T.);
#20=PLANE('',#695);
#21=PLANE('',#698);
#22=PLANE('',#702);
#23=PLANE('',#706);
#24=PLANE('',#710);
#25=PLANE('',#714);
#26=PLANE('',#715);
#27=PLANE('',#719);
#28=PLANE('',#720);
#29=PLANE('',#724);
#30=PLANE('',#725);
#31=PLANE('',#729);
#32=PLANE('',#730);
#33=PLANE('',#731);
#34=PLANE('',#735);
#35=PLANE('',#736);
#36=PLANE('',#740);
#37=PLANE('',#741);
#38=PLANE('',#745);
#39=PLANE('',#746);
#40=PLANE('',#747);
#41=PLANE('',#749);
#42=PLANE('',#751);
#43=LINE('',#984,#105);
#44=LINE('',#987,#106);
#45=LINE('',#995,#107);
#46=LINE('',#996,#108);
#47=LINE('',#999,#109);
#48=LINE('',#1001,#110);
#49=LINE('',#1002,#111);
#50=LINE('',#1005,#112);
#51=LINE('',#1012,#113);
#52=LINE('',#1019,#114);
#53=LINE('',#1026,#115);
#54=LINE('',#1033,#116);
#55=LINE('',#1039,#117);
#56=LINE('',#1041,#118);
#57=LINE('',#1043,#119);
#58=LINE('',#1044,#120);
#59=LINE('',#1050,#121);
#60=LINE('',#1053,#122);
#61=LINE('',#1055,#123);
#62=LINE('',#1056,#124);
#63=LINE('',#1059,#125);
#64=LINE('',#1061,#126);
#65=LINE('',#1062,#127);
#66=LINE('',#1068,#128);
#67=LINE('',#1071,#129);
#68=LINE('',#1073,#130);
#69=LINE('',#1074,#131);
#70=LINE('',#1077,#132);
#71=LINE('',#1079,#133);
#72=LINE('',#1080,#134);
#73=LINE('',#1086,#135);
#74=LINE('',#1089,#136);
#75=LINE('',#1091,#137);
#76=LINE('',#1092,#138);
#77=LINE('',#1095,#139);
#78=LINE('',#1097,#140);
#79=LINE('',#1098,#141);
#80=LINE('',#1101,#142);
#81=LINE('',#1103,#143);
#82=LINE('',#1104,#144);
#83=LINE('',#1110,#145);
#84=LINE('',#1113,#146);
#85=LINE('',#1115,#147);
#86=LINE('',#1116,#148);
#87=LINE('',#1119,#149);
#88=LINE('',#1121,#150);
#89=LINE('',#1122,#151);
#90=LINE('',#1128,#152);
#91=LINE('',#1131,#153);
#92=LINE('',#1133,#154);
#93=LINE('',#1134,#155);
#94=LINE('',#1137,#156);
#95=LINE('',#1139,#157);
#96=LINE('',#1140,#158);
#97=LINE('',#1146,#159);
#98=LINE('',#1149,#160);
#99=LINE('',#1151,#161);
#100=LINE('',#1152,#162);
#101=LINE('',#1154,#163);
#102=LINE('',#1155,#164);
#103=LINE('',#1158,#165);
#104=LINE('',#1161,#166);
#105=VECTOR('',#762,10.);
#106=VECTOR('',#765,10.);
#107=VECTOR('',#776,10.);
#108=VECTOR('',#777,10.);
#109=VECTOR('',#780,10.);
#110=VECTOR('',#781,10.);
#111=VECTOR('',#782,10.);
#112=VECTOR('',#785,10.);
#113=VECTOR('',#794,1.45);
#114=VECTOR('',#803,1.45);
#115=VECTOR('',#812,1.45);
#116=VECTOR('',#821,1.45);
#117=VECTOR('',#828,10.);
#118=VECTOR('',#829,10.);
#119=VECTOR('',#830,10.);
#120=VECTOR('',#831,10.);
#121=VECTOR('',#838,10.);
#122=VECTOR('',#841,10.);
#123=VECTOR('',#842,10.);
#124=VECTOR('',#843,10.);
#125=VECTOR('',#846,10.);
#126=VECTOR('',#847,10.);
#127=VECTOR('',#848,10.);
#128=VECTOR('',#855,10.);
#129=VECTOR('',#858,10.);
#130=VECTOR('',#859,10.);
#131=VECTOR('',#860,10.);
#132=VECTOR('',#863,10.);
#133=VECTOR('',#864,10.);
#134=VECTOR('',#865,10.);
#135=VECTOR('',#872,10.);
#136=VECTOR('',#875,10.);
#137=VECTOR('',#876,10.);
#138=VECTOR('',#877,10.);
#139=VECTOR('',#880,10.);
#140=VECTOR('',#881,10.);
#141=VECTOR('',#882,10.);
#142=VECTOR('',#885,10.);
#143=VECTOR('',#886,10.);
#144=VECTOR('',#887,10.);
#145=VECTOR('',#894,10.);
#146=VECTOR('',#897,10.);
#147=VECTOR('',#898,10.);
#148=VECTOR('',#899,10.);
#149=VECTOR('',#902,10.);
#150=VECTOR('',#903,10.);
#151=VECTOR('',#904,10.);
#152=VECTOR('',#911,10.);
#153=VECTOR('',#914,10.);
#154=VECTOR('',#915,10.);
#155=VECTOR('',#916,10.);
#156=VECTOR('',#919,10.);
#157=VECTOR('',#920,10.);
#158=VECTOR('',#921,10.);
#159=VECTOR('',#928,10.);
#160=VECTOR('',#931,10.);
#161=VECTOR('',#932,10.);
#162=VECTOR('',#933,10.);
#163=VECTOR('',#936,10.);
#164=VECTOR('',#937,10.);
#165=VECTOR('',#940,10.);
#166=VECTOR('',#945,10.);
#167=CYLINDRICAL_SURFACE('',#688,2.);
#168=CYLINDRICAL_SURFACE('',#694,2.);
#169=CYLINDRICAL_SURFACE('',#696,25.);
#170=CYLINDRICAL_SURFACE('',#699,1.45);
#171=CYLINDRICAL_SURFACE('',#703,1.45);
#172=CYLINDRICAL_SURFACE('',#707,1.45);
#173=CYLINDRICAL_SURFACE('',#711,1.45);
#174=CYLINDRICAL_SURFACE('',#716,3.00000123679638);
#175=CYLINDRICAL_SURFACE('',#721,19.);
#176=CYLINDRICAL_SURFACE('',#726,2.99999885261059);
#177=CYLINDRICAL_SURFACE('',#732,2.99999999999999);
#178=CYLINDRICAL_SURFACE('',#737,23.9987631033252);
#179=CYLINDRICAL_SURFACE('',#742,3.00000041723251);
#180=CYLINDRICAL_SURFACE('',#750,20.);
#181=FACE_OUTER_BOUND('',#220,.T.);
#182=FACE_OUTER_BOUND('',#221,.T.);
#183=FACE_OUTER_BOUND('',#222,.T.);
#184=FACE_OUTER_BOUND('',#223,.T.);
#185=FACE_OUTER_BOUND('',#224,.T.);
#186=FACE_OUTER_BOUND('',#225,.T.);
#187=FACE_OUTER_BOUND('',#226,.T.);
#188=FACE_OUTER_BOUND('',#227,.T.);
#189=FACE_OUTER_BOUND('',#228,.T.);
#190=FACE_OUTER_BOUND('',#229,.T.);
#191=FACE_OUTER_BOUND('',#230,.T.);
#192=FACE_OUTER_BOUND('',#231,.T.);
#193=FACE_OUTER_BOUND('',#232,.T.);
#194=FACE_OUTER_BOUND('',#233,.T.);
#195=FACE_OUTER_BOUND('',#234,.T.);
#196=FACE_OUTER_BOUND('',#235,.T.);
#197=FACE_OUTER_BOUND('',#236,.T.);
#198=FACE_OUTER_BOUND('',#237,.T.);
#199=FACE_OUTER_BOUND('',#238,.T.);
#200=FACE_OUTER_BOUND('',#239,.T.);
#201=FACE_OUTER_BOUND('',#240,.T.);
#202=FACE_OUTER_BOUND('',#241,.T.);
#203=FACE_OUTER_BOUND('',#242,.T.);
#204=FACE_OUTER_BOUND('',#243,.T.);
#205=FACE_OUTER_BOUND('',#244,.T.);
#206=FACE_OUTER_BOUND('',#245,.T.);
#207=FACE_OUTER_BOUND('',#246,.T.);
#208=FACE_OUTER_BOUND('',#247,.T.);
#209=FACE_OUTER_BOUND('',#248,.T.);
#210=FACE_OUTER_BOUND('',#249,.T.);
#211=FACE_OUTER_BOUND('',#250,.T.);
#212=FACE_OUTER_BOUND('',#251,.T.);
#213=FACE_OUTER_BOUND('',#252,.T.);
#214=FACE_OUTER_BOUND('',#253,.T.);
#215=FACE_OUTER_BOUND('',#254,.T.);
#216=FACE_OUTER_BOUND('',#255,.T.);
#217=FACE_OUTER_BOUND('',#261,.T.);
#218=FACE_OUTER_BOUND('',#262,.T.);
#219=FACE_OUTER_BOUND('',#263,.T.);
#220=EDGE_LOOP('',(#446,#447,#448,#449));
#221=EDGE_LOOP('',(#450,#451,#452,#453));
#222=EDGE_LOOP('',(#454,#455,#456,#457));
#223=EDGE_LOOP('',(#458,#459,#460,#461));
#224=EDGE_LOOP('',(#462,#463,#464,#465));
#225=EDGE_LOOP('',(#466,#467,#468,#469));
#226=EDGE_LOOP('',(#470,#471,#472,#473));
#227=EDGE_LOOP('',(#474,#475,#476,#477));
#228=EDGE_LOOP('',(#478));
#229=EDGE_LOOP('',(#479,#480,#481,#482));
#230=EDGE_LOOP('',(#483));
#231=EDGE_LOOP('',(#484,#485,#486,#487));
#232=EDGE_LOOP('',(#488));
#233=EDGE_LOOP('',(#489,#490,#491,#492));
#234=EDGE_LOOP('',(#493));
#235=EDGE_LOOP('',(#494,#495,#496,#497));
#236=EDGE_LOOP('',(#498,#499,#500,#501));
#237=EDGE_LOOP('',(#502,#503,#504,#505));
#238=EDGE_LOOP('',(#506,#507,#508,#509));
#239=EDGE_LOOP('',(#510,#511,#512,#513));
#240=EDGE_LOOP('',(#514,#515,#516,#517));
#241=EDGE_LOOP('',(#518,#519,#520,#521));
#242=EDGE_LOOP('',(#522,#523,#524,#525));
#243=EDGE_LOOP('',(#526,#527,#528,#529));
#244=EDGE_LOOP('',(#530,#531,#532,#533));
#245=EDGE_LOOP('',(#534,#535,#536,#537));
#246=EDGE_LOOP('',(#538,#539,#540,#541));
#247=EDGE_LOOP('',(#542,#543,#544,#545));
#248=EDGE_LOOP('',(#546,#547,#548,#549));
#249=EDGE_LOOP('',(#550,#551,#552,#553));
#250=EDGE_LOOP('',(#554,#555,#556,#557));
#251=EDGE_LOOP('',(#558,#559,#560,#561));
#252=EDGE_LOOP('',(#562,#563,#564,#565));
#253=EDGE_LOOP('',(#566,#567,#568,#569));
#254=EDGE_LOOP('',(#570,#571,#572,#573));
#255=EDGE_LOOP('',(#574,#575,#576,#577));
#256=EDGE_LOOP('',(#578));
#257=EDGE_LOOP('',(#579));
#258=EDGE_LOOP('',(#580));
#259=EDGE_LOOP('',(#581));
#260=EDGE_LOOP('',(#582,#583,#584,#585,#586,#587,#588,#589,#590,#591,#592,
#593,#594,#595,#596,#597,#598,#599,#600,#601));
#261=EDGE_LOOP('',(#602,#603,#604,#605));
#262=EDGE_LOOP('',(#606,#607,#608,#609));
#263=EDGE_LOOP('',(#610,#611,#612,#613,#614,#615,#616,#617,#618,#619,#620,
#621,#622,#623,#624,#625,#626,#627,#628,#629));
#264=B_SPLINE_CURVE_WITH_KNOTS('',3,(#956,#957,#958,#959,#960,#961,#962,
#963,#964,#965,#966,#967),.UNSPECIFIED.,.F.,.F.,(4,2,2,2,2,4),(-0.000948274020237033,
0.,0.0798892663246179,0.158034348793513,0.236154219302622,0.314261601912843),
 .UNSPECIFIED.);
#265=B_SPLINE_CURVE_WITH_KNOTS('',3,(#970,#971,#972,#973,#974,#975,#976,
#977,#978,#979,#980,#981),.UNSPECIFIED.,.F.,.F.,(4,2,2,2,2,4),(-0.315205451524208,
-0.314257190814398,-0.234369045846281,-0.156225060252406,-0.0781062862644239,
0.),.UNSPECIFIED.);
#266=CIRCLE('',#686,23.);
#267=CIRCLE('',#687,25.);
#268=CIRCLE('',#689,2.);
#269=CIRCLE('',#691,2.);
#270=CIRCLE('',#692,20.);
#271=CIRCLE('',#693,18.);
#272=CIRCLE('',#697,25.);
#273=CIRCLE('',#700,1.45);
#274=CIRCLE('',#701,1.45);
#275=CIRCLE('',#704,1.45);
#276=CIRCLE('',#705,1.45);
#277=CIRCLE('',#708,1.45);
#278=CIRCLE('',#709,1.45);
#279=CIRCLE('',#712,1.45);
#280=CIRCLE('',#713,1.45);
#281=CIRCLE('',#717,3.00000123679638);
#282=CIRCLE('',#718,3.00000123679638);
#283=CIRCLE('',#722,19.);
#284=CIRCLE('',#723,19.);
#285=CIRCLE('',#727,2.99999885261059);
#286=CIRCLE('',#728,2.99999885261059);
#287=CIRCLE('',#733,2.99999999999999);
#288=CIRCLE('',#734,2.99999999999999);
#289=CIRCLE('',#738,23.9987631033252);
#290=CIRCLE('',#739,23.9987631033252);
#291=CIRCLE('',#743,3.00000041723251);
#292=CIRCLE('',#744,3.00000041723251);
#293=CIRCLE('',#748,20.);
#294=VERTEX_POINT('',#952);
#295=VERTEX_POINT('',#953);
#296=VERTEX_POINT('',#955);
#297=VERTEX_POINT('',#968);
#298=VERTEX_POINT('',#983);
#299=VERTEX_POINT('',#985);
#300=VERTEX_POINT('',#989);
#301=VERTEX_POINT('',#990);
#302=VERTEX_POINT('',#998);
#303=VERTEX_POINT('',#1000);
#304=VERTEX_POINT('',#1004);
#305=VERTEX_POINT('',#1009);
#306=VERTEX_POINT('',#1011);
#307=VERTEX_POINT('',#1016);
#308=VERTEX_POINT('',#1018);
#309=VERTEX_POINT('',#1023);
#310=VERTEX_POINT('',#1025);
#311=VERTEX_POINT('',#1030);
#312=VERTEX_POINT('',#1032);
#313=VERTEX_POINT('',#1037);
#314=VERTEX_POINT('',#1038);
#315=VERTEX_POINT('',#1040);
#316=VERTEX_POINT('',#1042);
#317=VERTEX_POINT('',#1046);
#318=VERTEX_POINT('',#1048);
#319=VERTEX_POINT('',#1052);
#320=VERTEX_POINT('',#1054);
#321=VERTEX_POINT('',#1058);
#322=VERTEX_POINT('',#1060);
#323=VERTEX_POINT('',#1064);
#324=VERTEX_POINT('',#1066);
#325=VERTEX_POINT('',#1070);
#326=VERTEX_POINT('',#1072);
#327=VERTEX_POINT('',#1076);
#328=VERTEX_POINT('',#1078);
#329=VERTEX_POINT('',#1082);
#330=VERTEX_POINT('',#1084);
#331=VERTEX_POINT('',#1088);
#332=VERTEX_POINT('',#1090);
#333=VERTEX_POINT('',#1094);
#334=VERTEX_POINT('',#1096);
#335=VERTEX_POINT('',#1100);
#336=VERTEX_POINT('',#1102);
#337=VERTEX_POINT('',#1106);
#338=VERTEX_POINT('',#1108);
#339=VERTEX_POINT('',#1112);
#340=VERTEX_POINT('',#1114);
#341=VERTEX_POINT('',#1118);
#342=VERTEX_POINT('',#1120);
#343=VERTEX_POINT('',#1124);
#344=VERTEX_POINT('',#1126);
#345=VERTEX_POINT('',#1130);
#346=VERTEX_POINT('',#1132);
#347=VERTEX_POINT('',#1136);
#348=VERTEX_POINT('',#1138);
#349=VERTEX_POINT('',#1142);
#350=VERTEX_POINT('',#1144);
#351=VERTEX_POINT('',#1148);
#352=VERTEX_POINT('',#1150);
#353=VERTEX_POINT('',#1157);
#354=EDGE_CURVE('',#294,#295,#266,.T.);
#355=EDGE_CURVE('',#295,#296,#264,.T.);
#356=EDGE_CURVE('',#296,#297,#267,.T.);
#357=EDGE_CURVE('',#294,#297,#265,.T.);
#358=EDGE_CURVE('',#295,#298,#43,.T.);
#359=EDGE_CURVE('',#298,#299,#268,.T.);
#360=EDGE_CURVE('',#299,#296,#44,.T.);
#361=EDGE_CURVE('',#300,#301,#269,.T.);
#362=EDGE_CURVE('',#301,#299,#270,.T.);
#363=EDGE_CURVE('',#298,#300,#271,.T.);
#364=EDGE_CURVE('',#297,#301,#45,.T.);
#365=EDGE_CURVE('',#300,#294,#46,.T.);
#366=EDGE_CURVE('',#297,#302,#47,.T.);
#367=EDGE_CURVE('',#303,#302,#48,.T.);
#368=EDGE_CURVE('',#301,#303,#49,.T.);
#369=EDGE_CURVE('',#296,#304,#50,.T.);
#370=EDGE_CURVE('',#302,#304,#272,.T.);
#371=EDGE_CURVE('',#305,#305,#273,.T.);
#372=EDGE_CURVE('',#305,#306,#51,.T.);
#373=EDGE_CURVE('',#306,#306,#274,.T.);
#374=EDGE_CURVE('',#307,#307,#275,.T.);
#375=EDGE_CURVE('',#307,#308,#52,.T.);
#376=EDGE_CURVE('',#308,#308,#276,.T.);
#377=EDGE_CURVE('',#309,#309,#277,.T.);
#378=EDGE_CURVE('',#309,#310,#53,.T.);
#379=EDGE_CURVE('',#310,#310,#278,.T.);
#380=EDGE_CURVE('',#311,#311,#279,.T.);
#381=EDGE_CURVE('',#311,#312,#54,.T.);
#382=EDGE_CURVE('',#312,#312,#280,.T.);
#383=EDGE_CURVE('',#313,#314,#55,.T.);
#384=EDGE_CURVE('',#313,#315,#56,.T.);
#385=EDGE_CURVE('',#316,#315,#57,.T.);
#386=EDGE_CURVE('',#314,#316,#58,.T.);
#387=EDGE_CURVE('',#314,#317,#281,.T.);
#388=EDGE_CURVE('',#318,#316,#282,.T.);
#389=EDGE_CURVE('',#317,#318,#59,.T.);
#390=EDGE_CURVE('',#317,#319,#60,.T.);
#391=EDGE_CURVE('',#320,#318,#61,.T.);
#392=EDGE_CURVE('',#319,#320,#62,.T.);
#393=EDGE_CURVE('',#319,#321,#63,.T.);
#394=EDGE_CURVE('',#322,#320,#64,.T.);
#395=EDGE_CURVE('',#321,#322,#65,.T.);
#396=EDGE_CURVE('',#321,#323,#283,.T.);
#397=EDGE_CURVE('',#324,#322,#284,.T.);
#398=EDGE_CURVE('',#323,#324,#66,.T.);
#399=EDGE_CURVE('',#323,#325,#67,.T.);
#400=EDGE_CURVE('',#326,#324,#68,.T.);
#401=EDGE_CURVE('',#325,#326,#69,.T.);
#402=EDGE_CURVE('',#325,#327,#70,.T.);
#403=EDGE_CURVE('',#328,#326,#71,.T.);
#404=EDGE_CURVE('',#327,#328,#72,.T.);
#405=EDGE_CURVE('',#327,#329,#285,.T.);
#406=EDGE_CURVE('',#330,#328,#286,.T.);
#407=EDGE_CURVE('',#329,#330,#73,.T.);
#408=EDGE_CURVE('',#329,#331,#74,.T.);
#409=EDGE_CURVE('',#332,#330,#75,.T.);
#410=EDGE_CURVE('',#331,#332,#76,.T.);
#411=EDGE_CURVE('',#331,#333,#77,.T.);
#412=EDGE_CURVE('',#334,#332,#78,.T.);
#413=EDGE_CURVE('',#333,#334,#79,.T.);
#414=EDGE_CURVE('',#333,#335,#80,.T.);
#415=EDGE_CURVE('',#336,#334,#81,.T.);
#416=EDGE_CURVE('',#335,#336,#82,.T.);
#417=EDGE_CURVE('',#335,#337,#287,.T.);
#418=EDGE_CURVE('',#338,#336,#288,.T.);
#419=EDGE_CURVE('',#337,#338,#83,.T.);
#420=EDGE_CURVE('',#337,#339,#84,.T.);
#421=EDGE_CURVE('',#340,#338,#85,.T.);
#422=EDGE_CURVE('',#339,#340,#86,.T.);
#423=EDGE_CURVE('',#339,#341,#87,.T.);
#424=EDGE_CURVE('',#342,#340,#88,.T.);
#425=EDGE_CURVE('',#341,#342,#89,.T.);
#426=EDGE_CURVE('',#341,#343,#289,.T.);
#427=EDGE_CURVE('',#344,#342,#290,.T.);
#428=EDGE_CURVE('',#343,#344,#90,.T.);
#429=EDGE_CURVE('',#343,#345,#91,.T.);
#430=EDGE_CURVE('',#346,#344,#92,.T.);
#431=EDGE_CURVE('',#345,#346,#93,.T.);
#432=EDGE_CURVE('',#345,#347,#94,.T.);
#433=EDGE_CURVE('',#348,#346,#95,.T.);
#434=EDGE_CURVE('',#347,#348,#96,.T.);
#435=EDGE_CURVE('',#347,#349,#291,.T.);
#436=EDGE_CURVE('',#350,#348,#292,.T.);
#437=EDGE_CURVE('',#349,#350,#97,.T.);
#438=EDGE_CURVE('',#349,#351,#98,.T.);
#439=EDGE_CURVE('',#352,#350,#99,.T.);
#440=EDGE_CURVE('',#351,#352,#100,.T.);
#441=EDGE_CURVE('',#351,#313,#101,.T.);
#442=EDGE_CURVE('',#315,#352,#102,.T.);
#443=EDGE_CURVE('',#304,#353,#103,.T.);
#444=EDGE_CURVE('',#353,#303,#293,.T.);
#445=EDGE_CURVE('',#299,#353,#104,.T.);
#446=ORIENTED_EDGE('',*,*,#354,.T.);
#447=ORIENTED_EDGE('',*,*,#355,.T.);
#448=ORIENTED_EDGE('',*,*,#356,.T.);
#449=ORIENTED_EDGE('',*,*,#357,.F.);
#450=ORIENTED_EDGE('',*,*,#358,.T.);
#451=ORIENTED_EDGE('',*,*,#359,.T.);
#452=ORIENTED_EDGE('',*,*,#360,.T.);
#453=ORIENTED_EDGE('',*,*,#355,.F.);
#454=ORIENTED_EDGE('',*,*,#361,.T.);
#455=ORIENTED_EDGE('',*,*,#362,.T.);
#456=ORIENTED_EDGE('',*,*,#359,.F.);
#457=ORIENTED_EDGE('',*,*,#363,.T.);
#458=ORIENTED_EDGE('',*,*,#364,.T.);
#459=ORIENTED_EDGE('',*,*,#361,.F.);
#460=ORIENTED_EDGE('',*,*,#365,.T.);
#461=ORIENTED_EDGE('',*,*,#357,.T.);
#462=ORIENTED_EDGE('',*,*,#364,.F.);
#463=ORIENTED_EDGE('',*,*,#366,.T.);
#464=ORIENTED_EDGE('',*,*,#367,.F.);
#465=ORIENTED_EDGE('',*,*,#368,.F.);
#466=ORIENTED_EDGE('',*,*,#356,.F.);
#467=ORIENTED_EDGE('',*,*,#369,.T.);
#468=ORIENTED_EDGE('',*,*,#370,.F.);
#469=ORIENTED_EDGE('',*,*,#366,.F.);
#470=ORIENTED_EDGE('',*,*,#354,.F.);
#471=ORIENTED_EDGE('',*,*,#365,.F.);
#472=ORIENTED_EDGE('',*,*,#363,.F.);
#473=ORIENTED_EDGE('',*,*,#358,.F.);
#474=ORIENTED_EDGE('',*,*,#371,.F.);
#475=ORIENTED_EDGE('',*,*,#372,.T.);
#476=ORIENTED_EDGE('',*,*,#373,.T.);
#477=ORIENTED_EDGE('',*,*,#372,.F.);
#478=ORIENTED_EDGE('',*,*,#373,.F.);
#479=ORIENTED_EDGE('',*,*,#374,.F.);
#480=ORIENTED_EDGE('',*,*,#375,.T.);
#481=ORIENTED_EDGE('',*,*,#376,.T.);
#482=ORIENTED_EDGE('',*,*,#375,.F.);
#483=ORIENTED_EDGE('',*,*,#376,.F.);
#484=ORIENTED_EDGE('',*,*,#377,.F.);
#485=ORIENTED_EDGE('',*,*,#378,.T.);
#486=ORIENTED_EDGE('',*,*,#379,.T.);
#487=ORIENTED_EDGE('',*,*,#378,.F.);
#488=ORIENTED_EDGE('',*,*,#379,.F.);
#489=ORIENTED_EDGE('',*,*,#380,.F.);
#490=ORIENTED_EDGE('',*,*,#381,.T.);
#491=ORIENTED_EDGE('',*,*,#382,.T.);
#492=ORIENTED_EDGE('',*,*,#381,.F.);
#493=ORIENTED_EDGE('',*,*,#382,.F.);
#494=ORIENTED_EDGE('',*,*,#383,.F.);
#495=ORIENTED_EDGE('',*,*,#384,.T.);
#496=ORIENTED_EDGE('',*,*,#385,.F.);
#497=ORIENTED_EDGE('',*,*,#386,.F.);
#498=ORIENTED_EDGE('',*,*,#387,.F.);
#499=ORIENTED_EDGE('',*,*,#386,.T.);
#500=ORIENTED_EDGE('',*,*,#388,.F.);
#501=ORIENTED_EDGE('',*,*,#389,.F.);
#502=ORIENTED_EDGE('',*,*,#390,.F.);
#503=ORIENTED_EDGE('',*,*,#389,.T.);
#504=ORIENTED_EDGE('',*,*,#391,.F.);
#505=ORIENTED_EDGE('',*,*,#392,.F.);
#506=ORIENTED_EDGE('',*,*,#393,.F.);
#507=ORIENTED_EDGE('',*,*,#392,.T.);
#508=ORIENTED_EDGE('',*,*,#394,.F.);
#509=ORIENTED_EDGE('',*,*,#395,.F.);
#510=ORIENTED_EDGE('',*,*,#396,.F.);
#511=ORIENTED_EDGE('',*,*,#395,.T.);
#512=ORIENTED_EDGE('',*,*,#397,.F.);
#513=ORIENTED_EDGE('',*,*,#398,.F.);
#514=ORIENTED_EDGE('',*,*,#399,.F.);
#515=ORIENTED_EDGE('',*,*,#398,.T.);
#516=ORIENTED_EDGE('',*,*,#400,.F.);
#517=ORIENTED_EDGE('',*,*,#401,.F.);
#518=ORIENTED_EDGE('',*,*,#402,.F.);
#519=ORIENTED_EDGE('',*,*,#401,.T.);
#520=ORIENTED_EDGE('',*,*,#403,.F.);
#521=ORIENTED_EDGE('',*,*,#404,.F.);
#522=ORIENTED_EDGE('',*,*,#405,.F.);
#523=ORIENTED_EDGE('',*,*,#404,.T.);
#524=ORIENTED_EDGE('',*,*,#406,.F.);
#525=ORIENTED_EDGE('',*,*,#407,.F.);
#526=ORIENTED_EDGE('',*,*,#408,.F.);
#527=ORIENTED_EDGE('',*,*,#407,.T.);
#528=ORIENTED_EDGE('',*,*,#409,.F.);
#529=ORIENTED_EDGE('',*,*,#410,.F.);
#530=ORIENTED_EDGE('',*,*,#411,.F.);
#531=ORIENTED_EDGE('',*,*,#410,.T.);
#532=ORIENTED_EDGE('',*,*,#412,.F.);
#533=ORIENTED_EDGE('',*,*,#413,.F.);
#534=ORIENTED_EDGE('',*,*,#414,.F.);
#535=ORIENTED_EDGE('',*,*,#413,.T.);
#536=ORIENTED_EDGE('',*,*,#415,.F.);
#537=ORIENTED_EDGE('',*,*,#416,.F.);
#538=ORIENTED_EDGE('',*,*,#417,.F.);
#539=ORIENTED_EDGE('',*,*,#416,.T.);
#540=ORIENTED_EDGE('',*,*,#418,.F.);
#541=ORIENTED_EDGE('',*,*,#419,.F.);
#542=ORIENTED_EDGE('',*,*,#420,.F.);
#543=ORIENTED_EDGE('',*,*,#419,.T.);
#544=ORIENTED_EDGE('',*,*,#421,.F.);
#545=ORIENTED_EDGE('',*,*,#422,.F.);
#546=ORIENTED_EDGE('',*,*,#423,.F.);
#547=ORIENTED_EDGE('',*,*,#422,.T.);
#548=ORIENTED_EDGE('',*,*,#424,.F.);
#549=ORIENTED_EDGE('',*,*,#425,.F.);
#550=ORIENTED_EDGE('',*,*,#426,.F.);
#551=ORIENTED_EDGE('',*,*,#425,.T.);
#552=ORIENTED_EDGE('',*,*,#427,.F.);
#553=ORIENTED_EDGE('',*,*,#428,.F.);
#554=ORIENTED_EDGE('',*,*,#429,.F.);
#555=ORIENTED_EDGE('',*,*,#428,.T.);
#556=ORIENTED_EDGE('',*,*,#430,.F.);
#557=ORIENTED_EDGE('',*,*,#431,.F.);
#558=ORIENTED_EDGE('',*,*,#432,.F.);
#559=ORIENTED_EDGE('',*,*,#431,.T.);
#560=ORIENTED_EDGE('',*,*,#433,.F.);
#561=ORIENTED_EDGE('',*,*,#434,.F.);
#562=ORIENTED_EDGE('',*,*,#435,.F.);
#563=ORIENTED_EDGE('',*,*,#434,.T.);
#564=ORIENTED_EDGE('',*,*,#436,.F.);
#565=ORIENTED_EDGE('',*,*,#437,.F.);
#566=ORIENTED_EDGE('',*,*,#438,.F.);
#567=ORIENTED_EDGE('',*,*,#437,.T.);
#568=ORIENTED_EDGE('',*,*,#439,.F.);
#569=ORIENTED_EDGE('',*,*,#440,.F.);
#570=ORIENTED_EDGE('',*,*,#441,.F.);
#571=ORIENTED_EDGE('',*,*,#440,.T.);
#572=ORIENTED_EDGE('',*,*,#442,.F.);
#573=ORIENTED_EDGE('',*,*,#384,.F.);
#574=ORIENTED_EDGE('',*,*,#370,.T.);
#575=ORIENTED_EDGE('',*,*,#443,.T.);
#576=ORIENTED_EDGE('',*,*,#444,.T.);
#577=ORIENTED_EDGE('',*,*,#367,.T.);
#578=ORIENTED_EDGE('',*,*,#371,.T.);
#579=ORIENTED_EDGE('',*,*,#374,.T.);
#580=ORIENTED_EDGE('',*,*,#377,.T.);
#581=ORIENTED_EDGE('',*,*,#380,.T.);
#582=ORIENTED_EDGE('',*,*,#442,.T.);
#583=ORIENTED_EDGE('',*,*,#439,.T.);
#584=ORIENTED_EDGE('',*,*,#436,.T.);
#585=ORIENTED_EDGE('',*,*,#433,.T.);
#586=ORIENTED_EDGE('',*,*,#430,.T.);
#587=ORIENTED_EDGE('',*,*,#427,.T.);
#588=ORIENTED_EDGE('',*,*,#424,.T.);
#589=ORIENTED_EDGE('',*,*,#421,.T.);
#590=ORIENTED_EDGE('',*,*,#418,.T.);
#591=ORIENTED_EDGE('',*,*,#415,.T.);
#592=ORIENTED_EDGE('',*,*,#412,.T.);
#593=ORIENTED_EDGE('',*,*,#409,.T.);
#594=ORIENTED_EDGE('',*,*,#406,.T.);
#595=ORIENTED_EDGE('',*,*,#403,.T.);
#596=ORIENTED_EDGE('',*,*,#400,.T.);
#597=ORIENTED_EDGE('',*,*,#397,.T.);
#598=ORIENTED_EDGE('',*,*,#394,.T.);
#599=ORIENTED_EDGE('',*,*,#391,.T.);
#600=ORIENTED_EDGE('',*,*,#388,.T.);
#601=ORIENTED_EDGE('',*,*,#385,.T.);
#602=ORIENTED_EDGE('',*,*,#360,.F.);
#603=ORIENTED_EDGE('',*,*,#445,.T.);
#604=ORIENTED_EDGE('',*,*,#443,.F.);
#605=ORIENTED_EDGE('',*,*,#369,.F.);
#606=ORIENTED_EDGE('',*,*,#362,.F.);
#607=ORIENTED_EDGE('',*,*,#368,.T.);
#608=ORIENTED_EDGE('',*,*,#444,.F.);
#609=ORIENTED_EDGE('',*,*,#445,.F.);
#610=ORIENTED_EDGE('',*,*,#383,.T.);
#611=ORIENTED_EDGE('',*,*,#387,.T.);
#612=ORIENTED_EDGE('',*,*,#390,.T.);
#613=ORIENTED_EDGE('',*,*,#393,.T.);
#614=ORIENTED_EDGE('',*,*,#396,.T.);
#615=ORIENTED_EDGE('',*,*,#399,.T.);
#616=ORIENTED_EDGE('',*,*,#402,.T.);
#617=ORIENTED_EDGE('',*,*,#405,.T.);
#618=ORIENTED_EDGE('',*,*,#408,.T.);
#619=ORIENTED_EDGE('',*,*,#411,.T.);
#620=ORIENTED_EDGE('',*,*,#414,.T.);
#621=ORIENTED_EDGE('',*,*,#417,.T.);
#622=ORIENTED_EDGE('',*,*,#420,.T.);
#623=ORIENTED_EDGE('',*,*,#423,.T.);
#624=ORIENTED_EDGE('',*,*,#426,.T.);
#625=ORIENTED_EDGE('',*,*,#429,.T.);
#626=ORIENTED_EDGE('',*,*,#432,.T.);
#627=ORIENTED_EDGE('',*,*,#435,.T.);
#628=ORIENTED_EDGE('',*,*,#438,.T.);
#629=ORIENTED_EDGE('',*,*,#441,.T.);
#630=TOROIDAL_SURFACE('',#685,23.,2.);
#631=TOROIDAL_SURFACE('',#690,18.,2.);
#632=ADVANCED_FACE('',(#181),#630,.T.);
#633=ADVANCED_FACE('',(#182),#167,.T.);
#634=ADVANCED_FACE('',(#183),#631,.T.);
#635=ADVANCED_FACE('',(#184),#168,.T.);
#636=ADVANCED_FACE('',(#185),#20,.T.);
#637=ADVANCED_FACE('',(#186),#169,.T.);
#638=ADVANCED_FACE('',(#187),#21,.F.);
#639=ADVANCED_FACE('',(#188),#170,.F.);
#640=ADVANCED_FACE('',(#189),#22,.T.);
#641=ADVANCED_FACE('',(#190),#171,.F.);
#642=ADVANCED_FACE('',(#191),#23,.T.);
#643=ADVANCED_FACE('',(#192),#172,.F.);
#644=ADVANCED_FACE('',(#193),#24,.T.);
#645=ADVANCED_FACE('',(#194),#173,.F.);
#646=ADVANCED_FACE('',(#195),#25,.T.);
#647=ADVANCED_FACE('',(#196),#26,.T.);
#648=ADVANCED_FACE('',(#197),#174,.T.);
#649=ADVANCED_FACE('',(#198),#27,.T.);
#650=ADVANCED_FACE('',(#199),#28,.T.);
#651=ADVANCED_FACE('',(#200),#175,.F.);
#652=ADVANCED_FACE('',(#201),#29,.T.);
#653=ADVANCED_FACE('',(#202),#30,.T.);
#654=ADVANCED_FACE('',(#203),#176,.T.);
#655=ADVANCED_FACE('',(#204),#31,.T.);
#656=ADVANCED_FACE('',(#205),#32,.T.);
#657=ADVANCED_FACE('',(#206),#33,.T.);
#658=ADVANCED_FACE('',(#207),#177,.T.);
#659=ADVANCED_FACE('',(#208),#34,.T.);
#660=ADVANCED_FACE('',(#209),#35,.T.);
#661=ADVANCED_FACE('',(#210),#178,.F.);
#662=ADVANCED_FACE('',(#211),#36,.T.);
#663=ADVANCED_FACE('',(#212),#37,.T.);
#664=ADVANCED_FACE('',(#213),#179,.T.);
#665=ADVANCED_FACE('',(#214),#38,.T.);
#666=ADVANCED_FACE('',(#215),#39,.T.);
#667=ADVANCED_FACE('',(#216,#15,#16,#17,#18,#19),#40,.T.);
#668=ADVANCED_FACE('',(#217),#41,.T.);
#669=ADVANCED_FACE('',(#218),#180,.T.);
#670=ADVANCED_FACE('',(#219),#42,.T.);
#671=CLOSED_SHELL('',(#632,#633,#634,#635,#636,#637,#638,#639,#640,#641,
#642,#643,#644,#645,#646,#647,#648,#649,#650,#651,#652,#653,#654,#655,#656,
#657,#658,#659,#660,#661,#662,#663,#664,#665,#666,#667,#668,#669,#670));
#672=DERIVED_UNIT_ELEMENT(#674,1.);
#673=DERIVED_UNIT_ELEMENT(#1169,-3.);
#674=(
MASS_UNIT()
NAMED_UNIT(*)
SI_UNIT(.KILO.,.GRAM.)
);
#675=DERIVED_UNIT((#672,#673));
#676=MEASURE_REPRESENTATION_ITEM('density measure',
POSITIVE_RATIO_MEASURE(7850.),#675);
#677=PROPERTY_DEFINITION_REPRESENTATION(#682,#679);
#678=PROPERTY_DEFINITION_REPRESENTATION(#683,#680);
#679=REPRESENTATION('material name',(#681),#1166);
#680=REPRESENTATION('density',(#676),#1166);
#681=DESCRIPTIVE_REPRESENTATION_ITEM('\X2\AC15CCA0\X0\','\X2\AC15CCA0\X0\');
#682=PROPERTY_DEFINITION('material property','material name',#1176);
#683=PROPERTY_DEFINITION('material property','density of part',#1176);
#684=AXIS2_PLACEMENT_3D('',#950,#752,#753);
#685=AXIS2_PLACEMENT_3D('',#951,#754,#755);
#686=AXIS2_PLACEMENT_3D('',#954,#756,#757);
#687=AXIS2_PLACEMENT_3D('',#969,#758,#759);
#688=AXIS2_PLACEMENT_3D('',#982,#760,#761);
#689=AXIS2_PLACEMENT_3D('',#986,#763,#764);
#690=AXIS2_PLACEMENT_3D('',#988,#766,#767);
#691=AXIS2_PLACEMENT_3D('',#991,#768,#769);
#692=AXIS2_PLACEMENT_3D('',#992,#770,#771);
#693=AXIS2_PLACEMENT_3D('',#993,#772,#773);
#694=AXIS2_PLACEMENT_3D('',#994,#774,#775);
#695=AXIS2_PLACEMENT_3D('',#997,#778,#779);
#696=AXIS2_PLACEMENT_3D('',#1003,#783,#784);
#697=AXIS2_PLACEMENT_3D('',#1006,#786,#787);
#698=AXIS2_PLACEMENT_3D('',#1007,#788,#789);
#699=AXIS2_PLACEMENT_3D('',#1008,#790,#791);
#700=AXIS2_PLACEMENT_3D('',#1010,#792,#793);
#701=AXIS2_PLACEMENT_3D('',#1013,#795,#796);
#702=AXIS2_PLACEMENT_3D('',#1014,#797,#798);
#703=AXIS2_PLACEMENT_3D('',#1015,#799,#800);
#704=AXIS2_PLACEMENT_3D('',#1017,#801,#802);
#705=AXIS2_PLACEMENT_3D('',#1020,#804,#805);
#706=AXIS2_PLACEMENT_3D('',#1021,#806,#807);
#707=AXIS2_PLACEMENT_3D('',#1022,#808,#809);
#708=AXIS2_PLACEMENT_3D('',#1024,#810,#811);
#709=AXIS2_PLACEMENT_3D('',#1027,#813,#814);
#710=AXIS2_PLACEMENT_3D('',#1028,#815,#816);
#711=AXIS2_PLACEMENT_3D('',#1029,#817,#818);
#712=AXIS2_PLACEMENT_3D('',#1031,#819,#820);
#713=AXIS2_PLACEMENT_3D('',#1034,#822,#823);
#714=AXIS2_PLACEMENT_3D('',#1035,#824,#825);
#715=AXIS2_PLACEMENT_3D('',#1036,#826,#827);
#716=AXIS2_PLACEMENT_3D('',#1045,#832,#833);
#717=AXIS2_PLACEMENT_3D('',#1047,#834,#835);
#718=AXIS2_PLACEMENT_3D('',#1049,#836,#837);
#719=AXIS2_PLACEMENT_3D('',#1051,#839,#840);
#720=AXIS2_PLACEMENT_3D('',#1057,#844,#845);
#721=AXIS2_PLACEMENT_3D('',#1063,#849,#850);
#722=AXIS2_PLACEMENT_3D('',#1065,#851,#852);
#723=AXIS2_PLACEMENT_3D('',#1067,#853,#854);
#724=AXIS2_PLACEMENT_3D('',#1069,#856,#857);
#725=AXIS2_PLACEMENT_3D('',#1075,#861,#862);
#726=AXIS2_PLACEMENT_3D('',#1081,#866,#867);
#727=AXIS2_PLACEMENT_3D('',#1083,#868,#869);
#728=AXIS2_PLACEMENT_3D('',#1085,#870,#871);
#729=AXIS2_PLACEMENT_3D('',#1087,#873,#874);
#730=AXIS2_PLACEMENT_3D('',#1093,#878,#879);
#731=AXIS2_PLACEMENT_3D('',#1099,#883,#884);
#732=AXIS2_PLACEMENT_3D('',#1105,#888,#889);
#733=AXIS2_PLACEMENT_3D('',#1107,#890,#891);
#734=AXIS2_PLACEMENT_3D('',#1109,#892,#893);
#735=AXIS2_PLACEMENT_3D('',#1111,#895,#896);
#736=AXIS2_PLACEMENT_3D('',#1117,#900,#901);
#737=AXIS2_PLACEMENT_3D('',#1123,#905,#906);
#738=AXIS2_PLACEMENT_3D('',#1125,#907,#908);
#739=AXIS2_PLACEMENT_3D('',#1127,#909,#910);
#740=AXIS2_PLACEMENT_3D('',#1129,#912,#913);
#741=AXIS2_PLACEMENT_3D('',#1135,#917,#918);
#742=AXIS2_PLACEMENT_3D('',#1141,#922,#923);
#743=AXIS2_PLACEMENT_3D('',#1143,#924,#925);
#744=AXIS2_PLACEMENT_3D('',#1145,#926,#927);
#745=AXIS2_PLACEMENT_3D('',#1147,#929,#930);
#746=AXIS2_PLACEMENT_3D('',#1153,#934,#935);
#747=AXIS2_PLACEMENT_3D('',#1156,#938,#939);
#748=AXIS2_PLACEMENT_3D('',#1159,#941,#942);
#749=AXIS2_PLACEMENT_3D('',#1160,#943,#944);
#750=AXIS2_PLACEMENT_3D('',#1162,#946,#947);
#751=AXIS2_PLACEMENT_3D('',#1163,#948,#949);
#752=DIRECTION('axis',(0.,0.,1.));
#753=DIRECTION('refdir',(1.,0.,0.));
#754=DIRECTION('center_axis',(0.,0.,1.));
#755=DIRECTION('ref_axis',(1.,0.,0.));
#756=DIRECTION('center_axis',(0.,0.,1.));
#757=DIRECTION('ref_axis',(-6.12323399573676E-17,-1.,0.));
#758=DIRECTION('center_axis',(0.,0.,-1.));
#759=DIRECTION('ref_axis',(-6.12323399573677E-17,-1.,0.));
#760=DIRECTION('center_axis',(0.0496911578371373,-0.99876463134855,0.));
#761=DIRECTION('ref_axis',(0.706233243635842,0.0351369546716508,-0.707106781186548));
#762=DIRECTION('',(-0.0496911578371373,0.99876463134855,0.));
#763=DIRECTION('center_axis',(0.0496911578371329,-0.99876463134855,0.));
#764=DIRECTION('ref_axis',(0.,0.,-1.));
#765=DIRECTION('',(0.0496911578371373,-0.99876463134855,0.));
#766=DIRECTION('center_axis',(0.,0.,1.));
#767=DIRECTION('ref_axis',(1.,0.,0.));
#768=DIRECTION('center_axis',(0.0496911578371417,0.99876463134855,0.));
#769=DIRECTION('ref_axis',(0.,0.,-1.));
#770=DIRECTION('center_axis',(0.,0.,-1.));
#771=DIRECTION('ref_axis',(-8.18789480661052E-16,1.,0.));
#772=DIRECTION('center_axis',(0.,0.,1.));
#773=DIRECTION('ref_axis',(-8.18789480661052E-16,1.,0.));
#774=DIRECTION('center_axis',(-0.0496911578371373,-0.99876463134855,0.));
#775=DIRECTION('ref_axis',(-0.706233243635842,0.0351369546716477,-0.707106781186548));
#776=DIRECTION('',(0.0496911578371373,0.99876463134855,0.));
#777=DIRECTION('',(-0.0496911578371373,-0.99876463134855,0.));
#778=DIRECTION('center_axis',(-0.99876463134855,0.0496911578371373,0.));
#779=DIRECTION('ref_axis',(-0.0496911578371373,-0.99876463134855,0.));
#780=DIRECTION('',(0.,0.,1.));
#781=DIRECTION('',(-0.0496911578371373,-0.99876463134855,0.));
#782=DIRECTION('',(0.,0.,1.));
#783=DIRECTION('center_axis',(0.,0.,1.));
#784=DIRECTION('ref_axis',(-1.,0.,0.));
#785=DIRECTION('',(0.,0.,1.));
#786=DIRECTION('center_axis',(0.,0.,1.));
#787=DIRECTION('ref_axis',(-1.,0.,0.));
#788=DIRECTION('center_axis',(0.,0.,1.));
#789=DIRECTION('ref_axis',(1.,0.,0.));
#790=DIRECTION('center_axis',(0.,0.,-1.));
#791=DIRECTION('ref_axis',(-1.,0.,0.));
#792=DIRECTION('center_axis',(0.,0.,-1.));
#793=DIRECTION('ref_axis',(-1.,0.,0.));
#794=DIRECTION('',(0.,0.,-1.));
#795=DIRECTION('center_axis',(0.,0.,-1.));
#796=DIRECTION('ref_axis',(-1.,0.,0.));
#797=DIRECTION('center_axis',(0.,0.,1.));
#798=DIRECTION('ref_axis',(-1.,0.,0.));
#799=DIRECTION('center_axis',(0.,0.,-1.));
#800=DIRECTION('ref_axis',(-1.,0.,0.));
#801=DIRECTION('center_axis',(0.,0.,-1.));
#802=DIRECTION('ref_axis',(-1.,0.,0.));
#803=DIRECTION('',(0.,0.,-1.));
#804=DIRECTION('center_axis',(0.,0.,-1.));
#805=DIRECTION('ref_axis',(-1.,0.,0.));
#806=DIRECTION('center_axis',(0.,0.,1.));
#807=DIRECTION('ref_axis',(-1.,0.,0.));
#808=DIRECTION('center_axis',(0.,0.,-1.));
#809=DIRECTION('ref_axis',(-1.,0.,0.));
#810=DIRECTION('center_axis',(0.,0.,-1.));
#811=DIRECTION('ref_axis',(-1.,0.,0.));
#812=DIRECTION('',(0.,0.,-1.));
#813=DIRECTION('center_axis',(0.,0.,-1.));
#814=DIRECTION('ref_axis',(-1.,0.,0.));
#815=DIRECTION('center_axis',(0.,0.,1.));
#816=DIRECTION('ref_axis',(-1.,0.,0.));
#817=DIRECTION('center_axis',(0.,0.,-1.));
#818=DIRECTION('ref_axis',(-1.,0.,0.));
#819=DIRECTION('center_axis',(0.,0.,-1.));
#820=DIRECTION('ref_axis',(-1.,0.,0.));
#821=DIRECTION('',(0.,0.,-1.));
#822=DIRECTION('center_axis',(0.,0.,-1.));
#823=DIRECTION('ref_axis',(-1.,0.,0.));
#824=DIRECTION('center_axis',(0.,0.,1.));
#825=DIRECTION('ref_axis',(-1.,0.,0.));
#826=DIRECTION('center_axis',(0.,-1.,0.));
#827=DIRECTION('ref_axis',(1.,0.,0.));
#828=DIRECTION('',(-1.,0.,0.));
#829=DIRECTION('',(0.,0.,1.));
#830=DIRECTION('',(1.,0.,0.));
#831=DIRECTION('',(0.,0.,1.));
#832=DIRECTION('center_axis',(0.,0.,1.));
#833=DIRECTION('ref_axis',(0.,1.,0.));
#834=DIRECTION('center_axis',(0.,0.,-1.));
#835=DIRECTION('ref_axis',(0.,1.,0.));
#836=DIRECTION('center_axis',(0.,0.,1.));
#837=DIRECTION('ref_axis',(0.,1.,0.));
#838=DIRECTION('',(0.,0.,1.));
#839=DIRECTION('center_axis',(0.,1.,0.));
#840=DIRECTION('ref_axis',(-1.,0.,0.));
#841=DIRECTION('',(1.,0.,0.));
#842=DIRECTION('',(-1.,0.,0.));
#843=DIRECTION('',(0.,0.,1.));
#844=DIRECTION('center_axis',(-0.99876463134855,-0.0496911578371373,0.));
#845=DIRECTION('ref_axis',(0.0496911578371373,-0.99876463134855,0.));
#846=DIRECTION('',(-0.0496911578371373,0.99876463134855,0.));
#847=DIRECTION('',(0.0496911578371373,-0.99876463134855,0.));
#848=DIRECTION('',(0.,0.,1.));
#849=DIRECTION('center_axis',(0.,0.,1.));
#850=DIRECTION('ref_axis',(0.99876463134855,0.0496911578371379,0.));
#851=DIRECTION('center_axis',(0.,0.,1.));
#852=DIRECTION('ref_axis',(0.99876463134855,0.0496911578371379,0.));
#853=DIRECTION('center_axis',(0.,0.,-1.));
#854=DIRECTION('ref_axis',(0.99876463134855,0.0496911578371379,0.));
#855=DIRECTION('',(0.,0.,1.));
#856=DIRECTION('center_axis',(0.99876463134855,-0.0496911578371368,0.));
#857=DIRECTION('ref_axis',(0.0496911578371368,0.99876463134855,0.));
#858=DIRECTION('',(-0.0496911578371368,-0.99876463134855,0.));
#859=DIRECTION('',(0.0496911578371368,0.99876463134855,0.));
#860=DIRECTION('',(0.,0.,1.));
#861=DIRECTION('center_axis',(0.,1.,0.));
#862=DIRECTION('ref_axis',(-1.,0.,0.));
#863=DIRECTION('',(1.,0.,0.));
#864=DIRECTION('',(-1.,0.,0.));
#865=DIRECTION('',(0.,0.,1.));
#866=DIRECTION('center_axis',(0.,0.,1.));
#867=DIRECTION('ref_axis',(0.,-1.,0.));
#868=DIRECTION('center_axis',(0.,0.,-1.));
#869=DIRECTION('ref_axis',(0.,-1.,0.));
#870=DIRECTION('center_axis',(0.,0.,1.));
#871=DIRECTION('ref_axis',(0.,-1.,0.));
#872=DIRECTION('',(0.,0.,1.));
#873=DIRECTION('center_axis',(0.,-1.,0.));
#874=DIRECTION('ref_axis',(1.,0.,0.));
#875=DIRECTION('',(-1.,0.,0.));
#876=DIRECTION('',(1.,0.,0.));
#877=DIRECTION('',(0.,0.,1.));
#878=DIRECTION('center_axis',(0.99876463134855,-0.0496911578371373,0.));
#879=DIRECTION('ref_axis',(0.0496911578371373,0.99876463134855,0.));
#880=DIRECTION('',(-0.0496911578371373,-0.99876463134855,0.));
#881=DIRECTION('',(0.0496911578371373,0.99876463134855,0.));
#882=DIRECTION('',(0.,0.,1.));
#883=DIRECTION('center_axis',(0.,1.,0.));
#884=DIRECTION('ref_axis',(-1.,0.,0.));
#885=DIRECTION('',(1.,0.,0.));
#886=DIRECTION('',(-1.,0.,0.));
#887=DIRECTION('',(0.,0.,1.));
#888=DIRECTION('center_axis',(0.,0.,1.));
#889=DIRECTION('ref_axis',(0.,-1.,0.));
#890=DIRECTION('center_axis',(0.,0.,-1.));
#891=DIRECTION('ref_axis',(0.,-1.,0.));
#892=DIRECTION('center_axis',(0.,0.,1.));
#893=DIRECTION('ref_axis',(0.,-1.,0.));
#894=DIRECTION('',(0.,0.,1.));
#895=DIRECTION('center_axis',(9.05527336682615E-16,-1.,0.));
#896=DIRECTION('ref_axis',(1.,9.05527336682615E-16,0.));
#897=DIRECTION('',(-1.,-9.05527336682615E-16,0.));
#898=DIRECTION('',(1.,9.05527336682615E-16,0.));
#899=DIRECTION('',(0.,0.,1.));
#900=DIRECTION('center_axis',(0.99876463134855,-0.0496911578371367,0.));
#901=DIRECTION('ref_axis',(0.0496911578371367,0.99876463134855,0.));
#902=DIRECTION('',(-0.0496911578371367,-0.99876463134855,0.));
#903=DIRECTION('',(0.0496911578371367,0.99876463134855,0.));
#904=DIRECTION('',(0.,0.,1.));
#905=DIRECTION('center_axis',(0.,0.,1.));
#906=DIRECTION('ref_axis',(-1.,-1.48037366071931E-14,0.));
#907=DIRECTION('center_axis',(0.,0.,1.));
#908=DIRECTION('ref_axis',(-1.,-1.48037366071931E-14,0.));
#909=DIRECTION('center_axis',(0.,0.,-1.));
#910=DIRECTION('ref_axis',(-1.,-1.48037366071931E-14,0.));
#911=DIRECTION('',(0.,0.,1.));
#912=DIRECTION('center_axis',(-0.99876463134855,-0.0496911578371375,0.));
#913=DIRECTION('ref_axis',(0.0496911578371375,-0.99876463134855,0.));
#914=DIRECTION('',(-0.0496911578371375,0.99876463134855,0.));
#915=DIRECTION('',(0.0496911578371375,-0.99876463134855,0.));
#916=DIRECTION('',(0.,0.,1.));
#917=DIRECTION('center_axis',(0.,-1.,0.));
#918=DIRECTION('ref_axis',(1.,0.,0.));
#919=DIRECTION('',(-1.,0.,0.));
#920=DIRECTION('',(1.,0.,0.));
#921=DIRECTION('',(0.,0.,1.));
#922=DIRECTION('center_axis',(0.,0.,1.));
#923=DIRECTION('ref_axis',(0.,1.,0.));
#924=DIRECTION('center_axis',(0.,0.,-1.));
#925=DIRECTION('ref_axis',(0.,1.,0.));
#926=DIRECTION('center_axis',(0.,0.,1.));
#927=DIRECTION('ref_axis',(0.,1.,0.));
#928=DIRECTION('',(0.,0.,1.));
#929=DIRECTION('center_axis',(0.,1.,0.));
#930=DIRECTION('ref_axis',(-1.,0.,0.));
#931=DIRECTION('',(1.,0.,0.));
#932=DIRECTION('',(-1.,0.,0.));
#933=DIRECTION('',(0.,0.,1.));
#934=DIRECTION('center_axis',(-0.99876463134855,-0.0496911578371373,0.));
#935=DIRECTION('ref_axis',(0.0496911578371373,-0.99876463134855,0.));
#936=DIRECTION('',(-0.0496911578371373,0.99876463134855,0.));
#937=DIRECTION('',(0.0496911578371373,-0.99876463134855,0.));
#938=DIRECTION('center_axis',(0.,0.,1.));
#939=DIRECTION('ref_axis',(-1.,0.,0.));
#940=DIRECTION('',(-0.0496911578371373,0.99876463134855,0.));
#941=DIRECTION('center_axis',(0.,0.,1.));
#942=DIRECTION('ref_axis',(0.99876463134855,0.0496911578371381,0.));
#943=DIRECTION('center_axis',(0.99876463134855,0.0496911578371373,0.));
#944=DIRECTION('ref_axis',(-0.0496911578371373,0.99876463134855,0.));
#945=DIRECTION('',(0.,0.,1.));
#946=DIRECTION('center_axis',(0.,0.,1.));
#947=DIRECTION('ref_axis',(0.99876463134855,0.0496911578371381,0.));
#948=DIRECTION('center_axis',(0.,0.,1.));
#949=DIRECTION('ref_axis',(1.,0.,0.));
#950=CARTESIAN_POINT('',(0.,0.,0.));
#951=CARTESIAN_POINT('Origin',(0.,0.,2.));
#952=CARTESIAN_POINT('',(-22.9999484707619,-0.0486861612384794,0.));
#953=CARTESIAN_POINT('',(22.9999484707619,-0.0486861612345013,0.));
#954=CARTESIAN_POINT('Origin',(0.,0.,0.));
#955=CARTESIAN_POINT('',(25.,-3.06161699786838E-15,2.));
#956=CARTESIAN_POINT('Ctrl Pts',(22.9999484707619,-0.0486861612344987,0.));
#957=CARTESIAN_POINT('Ctrl Pts',(23.0031084891652,-0.04861094675189,7.20976627317976E-18));
#958=CARTESIAN_POINT('Ctrl Pts',(23.0062685029454,-0.0485357239363391,7.48849902879894E-6));
#959=CARTESIAN_POINT('Ctrl Pts',(23.2756476167777,-0.0421225464763693,0.00128422794662795));
#960=CARTESIAN_POINT('Ctrl Pts',(23.5389598549988,-0.0357918727565862,0.0556829196006089));
#961=CARTESIAN_POINT('Ctrl Pts',(24.0234712922383,-0.024050758228824,0.262099670773578));
#962=CARTESIAN_POINT('Ctrl Pts',(24.2408388244774,-0.018736521872954,0.409990040248278));
#963=CARTESIAN_POINT('Ctrl Pts',(24.6066026897164,-0.0097500015809526,0.780734336589775));
#964=CARTESIAN_POINT('Ctrl Pts',(24.751524597739,-0.00616435190789774,1.0000202275408));
#965=CARTESIAN_POINT('Ctrl Pts',(24.949161905261,-0.00126568490563154,1.48178502287086));
#966=CARTESIAN_POINT('Ctrl Pts',(25.,4.22802174458581E-14,1.73964571245188));
#967=CARTESIAN_POINT('Ctrl Pts',(25.,4.2244311347639E-14,2.));
#968=CARTESIAN_POINT('',(-25.,0.,2.));
#969=CARTESIAN_POINT('Origin',(0.,0.,2.));
#970=CARTESIAN_POINT('Ctrl Pts',(-22.9999484707619,-0.0486861612384771,
0.));
#971=CARTESIAN_POINT('Ctrl Pts',(-23.0031084891648,-0.0486109467558759,
1.93485138608049E-19));
#972=CARTESIAN_POINT('Ctrl Pts',(-23.006268502946,-0.0485357239367575,7.48849903117208E-6));
#973=CARTESIAN_POINT('Ctrl Pts',(-23.2756476167692,-0.0421225465366302,
0.00128422794661582));
#974=CARTESIAN_POINT('Ctrl Pts',(-23.538959854997,-0.0357918727559948,0.0556829195998428));
#975=CARTESIAN_POINT('Ctrl Pts',(-24.0234712922382,-0.0240507582294283,
0.262099670773491));
#976=CARTESIAN_POINT('Ctrl Pts',(-24.2408388244773,-0.0187365218729012,
0.409990040248192));
#977=CARTESIAN_POINT('Ctrl Pts',(-24.6066026897165,-0.00975000158090234,
0.780734336589763));
#978=CARTESIAN_POINT('Ctrl Pts',(-24.751524597739,-0.00616435190819152,
1.00002022754079));
#979=CARTESIAN_POINT('Ctrl Pts',(-24.949161905261,-0.00126568490540872,
1.48178502287094));
#980=CARTESIAN_POINT('Ctrl Pts',(-25.,1.16824634942223E-13,1.73964571245192));
#981=CARTESIAN_POINT('Ctrl Pts',(-25.,5.55761491514983E-13,2.));
#982=CARTESIAN_POINT('Origin',(21.7928985379238,24.212346055836,2.));
#983=CARTESIAN_POINT('',(17.9777633642739,100.894440841069,0.));
#984=CARTESIAN_POINT('',(21.7928985379238,24.212346055836,0.));
#985=CARTESIAN_POINT('',(19.975292626971,100.993823156743,2.));
#986=CARTESIAN_POINT('Origin',(17.9777633642739,100.894440841069,2.));
#987=CARTESIAN_POINT('',(23.7904278006209,24.3117283715103,2.));
#988=CARTESIAN_POINT('Origin',(0.,100.,2.));
#989=CARTESIAN_POINT('',(-17.9777633642739,100.894440841068,0.));
#990=CARTESIAN_POINT('',(-19.975292626971,100.993823156743,2.));
#991=CARTESIAN_POINT('Origin',(-17.9777633642739,100.894440841068,2.));
#992=CARTESIAN_POINT('Origin',(0.,100.,2.));
#993=CARTESIAN_POINT('Origin',(0.,100.,0.));
#994=CARTESIAN_POINT('Origin',(-19.2805448514093,74.7092576342073,2.));
#995=CARTESIAN_POINT('',(-21.2780741141064,74.8086399498816,2.));
#996=CARTESIAN_POINT('',(-19.2805448514093,74.7092576342073,0.));
#997=CARTESIAN_POINT('Origin',(-19.975292626971,100.993823156743,0.));
#998=CARTESIAN_POINT('',(-25.,0.,33.));
#999=CARTESIAN_POINT('',(-25.,0.,0.));
#1000=CARTESIAN_POINT('',(-19.975292626971,100.993823156743,33.));
#1001=CARTESIAN_POINT('',(-19.975292626971,100.993823156743,33.));
#1002=CARTESIAN_POINT('',(-19.975292626971,100.993823156743,0.));
#1003=CARTESIAN_POINT('Origin',(0.,0.,0.));
#1004=CARTESIAN_POINT('',(25.,0.,33.));
#1005=CARTESIAN_POINT('',(25.,-3.06161699786838E-15,0.));
#1006=CARTESIAN_POINT('Origin',(0.,0.,33.));
#1007=CARTESIAN_POINT('Origin',(0.,47.5,0.));
#1008=CARTESIAN_POINT('Origin',(18.,25.,33.));
#1009=CARTESIAN_POINT('',(19.45,25.,33.));
#1010=CARTESIAN_POINT('Origin',(18.,25.,33.));
#1011=CARTESIAN_POINT('',(19.45,25.,28.));
#1012=CARTESIAN_POINT('',(19.45,25.,33.));
#1013=CARTESIAN_POINT('Origin',(18.,25.,28.));
#1014=CARTESIAN_POINT('Origin',(18.,25.,28.));
#1015=CARTESIAN_POINT('Origin',(-15.,80.,33.));
#1016=CARTESIAN_POINT('',(-13.55,80.,33.));
#1017=CARTESIAN_POINT('Origin',(-15.,80.,33.));
#1018=CARTESIAN_POINT('',(-13.55,80.,28.));
#1019=CARTESIAN_POINT('',(-13.55,80.,33.));
#1020=CARTESIAN_POINT('Origin',(-15.,80.,28.));
#1021=CARTESIAN_POINT('Origin',(-15.,80.,28.));
#1022=CARTESIAN_POINT('Origin',(-18.,25.,33.));
#1023=CARTESIAN_POINT('',(-16.55,25.,33.));
#1024=CARTESIAN_POINT('Origin',(-18.,25.,33.));
#1025=CARTESIAN_POINT('',(-16.55,25.,28.));
#1026=CARTESIAN_POINT('',(-16.55,25.,33.));
#1027=CARTESIAN_POINT('Origin',(-18.,25.,28.));
#1028=CARTESIAN_POINT('Origin',(-18.,25.,28.));
#1029=CARTESIAN_POINT('Origin',(15.,80.,33.));
#1030=CARTESIAN_POINT('',(16.45,80.,33.));
#1031=CARTESIAN_POINT('Origin',(15.,80.,33.));
#1032=CARTESIAN_POINT('',(16.45,80.,28.));
#1033=CARTESIAN_POINT('',(16.45,80.,33.));
#1034=CARTESIAN_POINT('Origin',(15.,80.,28.));
#1035=CARTESIAN_POINT('Origin',(15.,80.,28.));
#1036=CARTESIAN_POINT('Origin',(15.0000002235176,76.9999987632036,2.));
#1037=CARTESIAN_POINT('',(20.1678113736514,76.9999987632036,2.));
#1038=CARTESIAN_POINT('',(15.,76.9999987632036,2.));
#1039=CARTESIAN_POINT('',(7.5000001117588,76.9999987632036,2.));
#1040=CARTESIAN_POINT('',(20.1678113736514,76.9999987632036,33.));
#1041=CARTESIAN_POINT('',(20.1678113736514,76.9999987632036,2.));
#1042=CARTESIAN_POINT('',(15.,76.9999987632036,33.));
#1043=CARTESIAN_POINT('',(15.0000002235176,76.9999987632036,33.));
#1044=CARTESIAN_POINT('',(15.,76.9999987632036,2.));
#1045=CARTESIAN_POINT('Origin',(15.,80.,2.));
#1046=CARTESIAN_POINT('',(15.,83.0000012367964,2.));
#1047=CARTESIAN_POINT('Origin',(15.,80.,2.));
#1048=CARTESIAN_POINT('',(15.,83.0000012367964,33.));
#1049=CARTESIAN_POINT('Origin',(15.,80.,33.));
#1050=CARTESIAN_POINT('',(15.,83.0000012367964,2.));
#1051=CARTESIAN_POINT('Origin',(19.8692955265935,83.0000012367964,2.));
#1052=CARTESIAN_POINT('',(19.8692955265935,83.0000012367964,2.));
#1053=CARTESIAN_POINT('',(9.93464776329673,83.0000012367964,2.));
#1054=CARTESIAN_POINT('',(19.8692955265935,83.0000012367964,33.));
#1055=CARTESIAN_POINT('',(15.,83.0000012367964,33.));
#1056=CARTESIAN_POINT('',(19.8692955265935,83.0000012367964,2.));
#1057=CARTESIAN_POINT('Origin',(18.9765279956225,100.944131998906,2.));
#1058=CARTESIAN_POINT('',(18.9765279956225,100.944131998906,2.));
#1059=CARTESIAN_POINT('',(20.2793094827579,74.7589487920445,2.));
#1060=CARTESIAN_POINT('',(18.9765279956225,100.944131998906,33.));
#1061=CARTESIAN_POINT('',(19.8692955265935,83.0000012367964,33.));
#1062=CARTESIAN_POINT('',(18.9765279956225,100.944131998906,2.));
#1063=CARTESIAN_POINT('Origin',(0.,100.,2.));
#1064=CARTESIAN_POINT('',(-18.9765279956225,100.944131998906,2.));
#1065=CARTESIAN_POINT('Origin',(0.,100.,2.));
#1066=CARTESIAN_POINT('',(-18.9765279956225,100.944131998906,33.));
#1067=CARTESIAN_POINT('Origin',(0.,100.,33.));
#1068=CARTESIAN_POINT('',(-18.9765279956225,100.944131998906,2.));
#1069=CARTESIAN_POINT('Origin',(-19.8692956452129,82.9999988526106,2.));
#1070=CARTESIAN_POINT('',(-19.8692956452129,82.9999988526106,2.));
#1071=CARTESIAN_POINT('',(-20.7256933075531,65.786882218897,2.));
#1072=CARTESIAN_POINT('',(-19.8692956452129,82.9999988526106,33.));
#1073=CARTESIAN_POINT('',(-18.9765279956225,100.944131998906,33.));
#1074=CARTESIAN_POINT('',(-19.8692956452129,82.9999988526106,2.));
#1075=CARTESIAN_POINT('Origin',(-15.,82.9999988526106,2.));
#1076=CARTESIAN_POINT('',(-15.,82.9999988526106,2.));
#1077=CARTESIAN_POINT('',(-7.5,82.9999988526106,2.));
#1078=CARTESIAN_POINT('',(-15.,82.9999988526106,33.));
#1079=CARTESIAN_POINT('',(-15.,82.9999988526106,33.));
#1080=CARTESIAN_POINT('',(-15.,82.9999988526106,2.));
#1081=CARTESIAN_POINT('Origin',(-15.,80.,2.));
#1082=CARTESIAN_POINT('',(-15.,77.0000011473894,2.));
#1083=CARTESIAN_POINT('Origin',(-15.,80.,2.));
#1084=CARTESIAN_POINT('',(-15.,77.0000011473894,33.));
#1085=CARTESIAN_POINT('Origin',(-15.,80.,33.));
#1086=CARTESIAN_POINT('',(-15.,77.0000011473894,2.));
#1087=CARTESIAN_POINT('Origin',(-20.1678112550319,77.0000011473894,2.));
#1088=CARTESIAN_POINT('',(-20.1678112550319,77.0000011473894,2.));
#1089=CARTESIAN_POINT('',(-10.0839056275159,77.0000011473894,2.));
#1090=CARTESIAN_POINT('',(-20.1678112550319,77.0000011473894,33.));
#1091=CARTESIAN_POINT('',(-15.0000002235174,77.0000011473894,33.));
#1092=CARTESIAN_POINT('',(-20.1678112550319,77.0000011473894,2.));
#1093=CARTESIAN_POINT('Origin',(-22.6056897039458,28.0000004172325,2.));
#1094=CARTESIAN_POINT('',(-22.6056897039458,28.0000004172325,2.));
#1095=CARTESIAN_POINT('',(-22.0938903369195,38.2868830012079,2.));
#1096=CARTESIAN_POINT('',(-22.6056897039458,28.0000004172325,33.));
#1097=CARTESIAN_POINT('',(-20.1678112550319,77.0000011473894,33.));
#1098=CARTESIAN_POINT('',(-22.6056897039458,28.0000004172325,2.));
#1099=CARTESIAN_POINT('Origin',(-18.,28.0000004172325,2.));
#1100=CARTESIAN_POINT('',(-18.,28.,2.));
#1101=CARTESIAN_POINT('',(-9.,28.0000004172325,2.));
#1102=CARTESIAN_POINT('',(-18.,28.,33.));
#1103=CARTESIAN_POINT('',(-18.,28.0000004172325,33.));
#1104=CARTESIAN_POINT('',(-18.,28.,2.));
#1105=CARTESIAN_POINT('Origin',(-18.,25.,2.));
#1106=CARTESIAN_POINT('',(-18.,22.,2.));
#1107=CARTESIAN_POINT('Origin',(-18.,25.,2.));
#1108=CARTESIAN_POINT('',(-18.,22.,33.));
#1109=CARTESIAN_POINT('Origin',(-18.,25.,33.));
#1110=CARTESIAN_POINT('',(-18.,22.,2.));
#1111=CARTESIAN_POINT('Origin',(-22.9042054486944,22.,2.));
#1112=CARTESIAN_POINT('',(-22.9042054486944,22.,2.));
#1113=CARTESIAN_POINT('',(-11.4521027243472,22.,2.));
#1114=CARTESIAN_POINT('',(-22.9042054486944,22.,33.));
#1115=CARTESIAN_POINT('',(-18.,22.,33.));
#1116=CARTESIAN_POINT('',(-22.9042054486944,22.,2.));
#1117=CARTESIAN_POINT('Origin',(-23.9987631033252,-3.50830475781549E-13,
2.));
#1118=CARTESIAN_POINT('',(-23.9987631033252,-3.5527136788005E-13,2.));
#1119=CARTESIAN_POINT('',(-22.7904270366092,24.2868827925915,2.));
#1120=CARTESIAN_POINT('',(-23.9987631033252,-3.5527136788005E-13,33.));
#1121=CARTESIAN_POINT('',(-22.9042054486944,22.,33.));
#1122=CARTESIAN_POINT('',(-23.9987631033252,-3.5527136788005E-13,2.));
#1123=CARTESIAN_POINT('Origin',(0.,0.,2.));
#1124=CARTESIAN_POINT('',(23.9987631033252,0.,2.));
#1125=CARTESIAN_POINT('Origin',(0.,0.,2.));
#1126=CARTESIAN_POINT('',(23.9987631033252,0.,33.));
#1127=CARTESIAN_POINT('Origin',(0.,0.,33.));
#1128=CARTESIAN_POINT('',(23.9987631033252,0.,2.));
#1129=CARTESIAN_POINT('Origin',(22.9042054323842,22.0000003278255,2.));
#1130=CARTESIAN_POINT('',(22.9042054323842,22.0000003278255,2.));
#1131=CARTESIAN_POINT('',(22.2431482011387,35.2868829565045,2.));
#1132=CARTESIAN_POINT('',(22.9042054323842,22.0000003278255,33.));
#1133=CARTESIAN_POINT('',(23.9987631033252,0.,33.));
#1134=CARTESIAN_POINT('',(22.9042054323842,22.0000003278255,2.));
#1135=CARTESIAN_POINT('Origin',(18.0000002682209,22.0000003278255,2.));
#1136=CARTESIAN_POINT('',(18.,21.9999995827675,2.));
#1137=CARTESIAN_POINT('',(9.00000013411045,22.0000003278255,2.));
#1138=CARTESIAN_POINT('',(18.,21.9999995827675,33.));
#1139=CARTESIAN_POINT('',(18.0000002682209,22.0000003278255,33.));
#1140=CARTESIAN_POINT('',(18.,21.9999995827675,2.));
#1141=CARTESIAN_POINT('Origin',(18.,25.,2.));
#1142=CARTESIAN_POINT('',(18.,28.0000004172325,2.));
#1143=CARTESIAN_POINT('Origin',(18.,25.,2.));
#1144=CARTESIAN_POINT('',(18.,28.0000004172325,33.));
#1145=CARTESIAN_POINT('Origin',(18.,25.,33.));
#1146=CARTESIAN_POINT('',(18.,28.0000004172325,2.));
#1147=CARTESIAN_POINT('Origin',(22.6056897039458,28.0000004172325,2.));
#1148=CARTESIAN_POINT('',(22.6056897039458,28.0000004172325,2.));
#1149=CARTESIAN_POINT('',(11.3028448519729,28.0000004172325,2.));
#1150=CARTESIAN_POINT('',(22.6056897039458,28.0000004172325,33.));
#1151=CARTESIAN_POINT('',(18.,28.0000004172325,33.));
#1152=CARTESIAN_POINT('',(22.6056897039458,28.0000004172325,2.));
#1153=CARTESIAN_POINT('Origin',(20.1678113736514,76.9999987632036,2.));
#1154=CARTESIAN_POINT('',(20.8749511717723,62.7868821741935,2.));
#1155=CARTESIAN_POINT('',(22.6056897039458,28.0000004172325,33.));
#1156=CARTESIAN_POINT('Origin',(0.,47.5,33.));
#1157=CARTESIAN_POINT('',(19.975292626971,100.993823156743,33.));
#1158=CARTESIAN_POINT('',(25.,0.,33.));
#1159=CARTESIAN_POINT('Origin',(0.,100.,33.));
#1160=CARTESIAN_POINT('Origin',(25.,1.77635683940025E-14,0.));
#1161=CARTESIAN_POINT('',(19.975292626971,100.993823156743,0.));
#1162=CARTESIAN_POINT('Origin',(0.,100.,0.));
#1163=CARTESIAN_POINT('Origin',(0.,47.5,2.));
#1164=UNCERTAINTY_MEASURE_WITH_UNIT(LENGTH_MEASURE(0.01),#1168,
'DISTANCE_ACCURACY_VALUE',
'Maximum model space distance between geometric entities at asserted c
onnectivities');
#1165=UNCERTAINTY_MEASURE_WITH_UNIT(LENGTH_MEASURE(0.01),#1168,
'DISTANCE_ACCURACY_VALUE',
'Maximum model space distance between geometric entities at asserted c
onnectivities');
#1166=(
GEOMETRIC_REPRESENTATION_CONTEXT(3)
GLOBAL_UNCERTAINTY_ASSIGNED_CONTEXT((#1164))
GLOBAL_UNIT_ASSIGNED_CONTEXT((#1168,#1170,#1171))
REPRESENTATION_CONTEXT('','3D')
);
#1167=(
GEOMETRIC_REPRESENTATION_CONTEXT(3)
GLOBAL_UNCERTAINTY_ASSIGNED_CONTEXT((#1165))
GLOBAL_UNIT_ASSIGNED_CONTEXT((#1168,#1170,#1171))
REPRESENTATION_CONTEXT('','3D')
);
#1168=(
LENGTH_UNIT()
NAMED_UNIT(*)
SI_UNIT(.MILLI.,.METRE.)
);
#1169=(
LENGTH_UNIT()
NAMED_UNIT(*)
SI_UNIT($,.METRE.)
);
#1170=(
NAMED_UNIT(*)
PLANE_ANGLE_UNIT()
SI_UNIT($,.RADIAN.)
);
#1171=(
NAMED_UNIT(*)
SI_UNIT($,.STERADIAN.)
SOLID_ANGLE_UNIT()
);
#1172=SHAPE_DEFINITION_REPRESENTATION(#1173,#1174);
#1173=PRODUCT_DEFINITION_SHAPE('',$,#1176);
#1174=SHAPE_REPRESENTATION('',(#684),#1166);
#1175=PRODUCT_DEFINITION_CONTEXT('part definition',#1180,'design');
#1176=PRODUCT_DEFINITION('(\X2\C800C7A5B418C9C0\X0\ \X2\C54AC74C\X0\)',
'(\X2\C800C7A5B418C9C0\X0\ \X2\C54AC74C\X0\)',#1177,#1175);
#1177=PRODUCT_DEFINITION_FORMATION('',$,#1182);
#1178=PRODUCT_RELATED_PRODUCT_CATEGORY('(\X2\C800C7A5B418C9C0\X0\ \X2\C54AC74C\X0\)',
'(\X2\C800C7A5B418C9C0\X0\ \X2\C54AC74C\X0\)',(#1182));
#1179=APPLICATION_PROTOCOL_DEFINITION('international standard',
'automotive_design',2009,#1180);
#1180=APPLICATION_CONTEXT(
'Core Data for Automotive Mechanical Design Process');
#1181=PRODUCT_CONTEXT('part definition',#1180,'mechanical');
#1182=PRODUCT('(\X2\C800C7A5B418C9C0\X0\ \X2\C54AC74C\X0\)',
'(\X2\C800C7A5B418C9C0\X0\ \X2\C54AC74C\X0\)',$,(#1181));
#1183=PRESENTATION_STYLE_ASSIGNMENT((#1184));
#1184=SURFACE_STYLE_USAGE(.BOTH.,#1185);
#1185=SURFACE_SIDE_STYLE('',(#1186));
#1186=SURFACE_STYLE_FILL_AREA(#1187);
#1187=FILL_AREA_STYLE('\X2\AC15CCA0\X0\ - \X2\C0C8D2F4\X0\',(#1188));
#1188=FILL_AREA_STYLE_COLOUR('\X2\AC15CCA0\X0\ - \X2\C0C8D2F4\X0\',#1189);
#1189=COLOUR_RGB('\X2\AC15CCA0\X0\ - \X2\C0C8D2F4\X0\',0.627450980392157,
0.627450980392157,0.627450980392157);
ENDSEC;
END-ISO-10303-21;
