ISO-10303-21;
HEADER;
/* Generated by software containing ST-Developer
 * from STEP Tools, Inc. (www.steptools.com) 
 */

FILE_DESCRIPTION(
/* description */ (''),
/* implementation_level */ '2;1');

FILE_NAME(
/* name */ 'TRARM02_Link1B_50x50x43.step',
/* time_stamp */ '2026-06-11T09:09:33+09:00',
/* author */ (''),
/* organization */ (''),
/* preprocessor_version */ 'ST-DEVELOPER v20.1',
/* originating_system */ 'Autodesk Translation Framework v15.8.0.0',
/* authorisation */ '');

FILE_SCHEMA (('AUTOMOTIVE_DESIGN { 1 0 10303 214 3 1 1 }'));
ENDSEC;

DATA;
#10=MECHANICAL_DESIGN_GEOMETRIC_PRESENTATION_REPRESENTATION('',(#13),#2115);
#11=SHAPE_REPRESENTATION_RELATIONSHIP('SRR','None',#2122,#12);
#12=ADVANCED_BREP_SHAPE_REPRESENTATION('',(#14),#2114);
#13=STYLED_ITEM('',(#2131),#14);
#14=MANIFOLD_SOLID_BREP('\X2\BCF8CCB4\X0\1',#1241);
#15=CONICAL_SURFACE('',#1294,2.5,0.785398163397449);
#16=CONICAL_SURFACE('',#1296,2.5,0.785398163397449);
#17=CONICAL_SURFACE('',#1298,2.5,0.785398163397449);
#18=CONICAL_SURFACE('',#1300,2.5,0.785398163397449);
#19=FACE_BOUND('',#159,.T.);
#20=FACE_BOUND('',#160,.T.);
#21=FACE_BOUND('',#164,.T.);
#22=FACE_BOUND('',#165,.T.);
#23=FACE_BOUND('',#172,.T.);
#24=FACE_BOUND('',#173,.T.);
#25=FACE_BOUND('',#174,.T.);
#26=FACE_BOUND('',#175,.T.);
#27=FACE_BOUND('',#176,.T.);
#28=FACE_BOUND('',#177,.T.);
#29=FACE_BOUND('',#178,.T.);
#30=FACE_BOUND('',#205,.T.);
#31=FACE_BOUND('',#206,.T.);
#32=FACE_BOUND('',#207,.T.);
#33=FACE_BOUND('',#228,.T.);
#34=FACE_BOUND('',#229,.T.);
#35=FACE_BOUND('',#230,.T.);
#36=FACE_BOUND('',#231,.T.);
#37=FACE_BOUND('',#232,.T.);
#38=FACE_BOUND('',#233,.T.);
#39=B_SPLINE_CURVE_WITH_KNOTS('',3,(#1809,#1810,#1811,#1812,#1813,#1814),
 .UNSPECIFIED.,.F.,.F.,(4,2,4),(0.,0.182562961234333,0.297021355879786),
 .UNSPECIFIED.);
#40=B_SPLINE_CURVE_WITH_KNOTS('',3,(#1846,#1847,#1848,#1849,#1850,#1851),
 .UNSPECIFIED.,.F.,.F.,(4,2,4),(0.745675947777956,0.860134342423409,1.04269730365774),
 .UNSPECIFIED.);
#41=TOROIDAL_SURFACE('',#1274,3.4,1.4);
#42=TOROIDAL_SURFACE('',#1287,3.4,1.4);
#43=TOROIDAL_SURFACE('',#1311,23.,2.);
#44=PLANE('',#1258);
#45=PLANE('',#1262);
#46=PLANE('',#1266);
#47=PLANE('',#1270);
#48=PLANE('',#1280);
#49=PLANE('',#1290);
#50=PLANE('',#1304);
#51=PLANE('',#1306);
#52=PLANE('',#1318);
#53=PLANE('',#1322);
#54=PLANE('',#1326);
#55=PLANE('',#1330);
#56=PLANE('',#1334);
#57=PLANE('',#1338);
#58=PLANE('',#1339);
#59=PLANE('',#1343);
#60=PLANE('',#1344);
#61=PLANE('',#1345);
#62=PLANE('',#1349);
#63=PLANE('',#1350);
#64=PLANE('',#1351);
#65=PLANE('',#1352);
#66=PLANE('',#1353);
#67=PLANE('',#1357);
#68=PLANE('',#1358);
#69=PLANE('',#1359);
#70=PLANE('',#1363);
#71=PLANE('',#1364);
#72=PLANE('',#1368);
#73=PLANE('',#1372);
#74=PLANE('',#1373);
#75=PLANE('',#1374);
#76=PLANE('',#1377);
#77=PLANE('',#1378);
#78=PLANE('',#1379);
#79=PLANE('',#1380);
#80=FACE_OUTER_BOUND('',#147,.T.);
#81=FACE_OUTER_BOUND('',#148,.T.);
#82=FACE_OUTER_BOUND('',#149,.T.);
#83=FACE_OUTER_BOUND('',#150,.T.);
#84=FACE_OUTER_BOUND('',#151,.T.);
#85=FACE_OUTER_BOUND('',#152,.T.);
#86=FACE_OUTER_BOUND('',#153,.T.);
#87=FACE_OUTER_BOUND('',#154,.T.);
#88=FACE_OUTER_BOUND('',#155,.T.);
#89=FACE_OUTER_BOUND('',#156,.T.);
#90=FACE_OUTER_BOUND('',#157,.T.);
#91=FACE_OUTER_BOUND('',#158,.T.);
#92=FACE_OUTER_BOUND('',#161,.T.);
#93=FACE_OUTER_BOUND('',#162,.T.);
#94=FACE_OUTER_BOUND('',#163,.T.);
#95=FACE_OUTER_BOUND('',#166,.T.);
#96=FACE_OUTER_BOUND('',#167,.T.);
#97=FACE_OUTER_BOUND('',#168,.T.);
#98=FACE_OUTER_BOUND('',#169,.T.);
#99=FACE_OUTER_BOUND('',#170,.T.);
#100=FACE_OUTER_BOUND('',#171,.T.);
#101=FACE_OUTER_BOUND('',#179,.T.);
#102=FACE_OUTER_BOUND('',#180,.T.);
#103=FACE_OUTER_BOUND('',#181,.T.);
#104=FACE_OUTER_BOUND('',#182,.T.);
#105=FACE_OUTER_BOUND('',#183,.T.);
#106=FACE_OUTER_BOUND('',#184,.T.);
#107=FACE_OUTER_BOUND('',#185,.T.);
#108=FACE_OUTER_BOUND('',#186,.T.);
#109=FACE_OUTER_BOUND('',#187,.T.);
#110=FACE_OUTER_BOUND('',#188,.T.);
#111=FACE_OUTER_BOUND('',#189,.T.);
#112=FACE_OUTER_BOUND('',#190,.T.);
#113=FACE_OUTER_BOUND('',#191,.T.);
#114=FACE_OUTER_BOUND('',#192,.T.);
#115=FACE_OUTER_BOUND('',#193,.T.);
#116=FACE_OUTER_BOUND('',#194,.T.);
#117=FACE_OUTER_BOUND('',#195,.T.);
#118=FACE_OUTER_BOUND('',#196,.T.);
#119=FACE_OUTER_BOUND('',#197,.T.);
#120=FACE_OUTER_BOUND('',#198,.T.);
#121=FACE_OUTER_BOUND('',#199,.T.);
#122=FACE_OUTER_BOUND('',#200,.T.);
#123=FACE_OUTER_BOUND('',#201,.T.);
#124=FACE_OUTER_BOUND('',#202,.T.);
#125=FACE_OUTER_BOUND('',#203,.T.);
#126=FACE_OUTER_BOUND('',#204,.T.);
#127=FACE_OUTER_BOUND('',#208,.T.);
#128=FACE_OUTER_BOUND('',#209,.T.);
#129=FACE_OUTER_BOUND('',#210,.T.);
#130=FACE_OUTER_BOUND('',#211,.T.);
#131=FACE_OUTER_BOUND('',#212,.T.);
#132=FACE_OUTER_BOUND('',#213,.T.);
#133=FACE_OUTER_BOUND('',#214,.T.);
#134=FACE_OUTER_BOUND('',#215,.T.);
#135=FACE_OUTER_BOUND('',#216,.T.);
#136=FACE_OUTER_BOUND('',#217,.T.);
#137=FACE_OUTER_BOUND('',#218,.T.);
#138=FACE_OUTER_BOUND('',#219,.T.);
#139=FACE_OUTER_BOUND('',#220,.T.);
#140=FACE_OUTER_BOUND('',#221,.T.);
#141=FACE_OUTER_BOUND('',#222,.T.);
#142=FACE_OUTER_BOUND('',#223,.T.);
#143=FACE_OUTER_BOUND('',#224,.T.);
#144=FACE_OUTER_BOUND('',#225,.T.);
#145=FACE_OUTER_BOUND('',#226,.T.);
#146=FACE_OUTER_BOUND('',#227,.T.);
#147=EDGE_LOOP('',(#804,#805,#806,#807));
#148=EDGE_LOOP('',(#808,#809,#810,#811));
#149=EDGE_LOOP('',(#812,#813,#814,#815));
#150=EDGE_LOOP('',(#816,#817,#818,#819));
#151=EDGE_LOOP('',(#820,#821,#822,#823));
#152=EDGE_LOOP('',(#824,#825,#826,#827));
#153=EDGE_LOOP('',(#828,#829,#830,#831));
#154=EDGE_LOOP('',(#832,#833,#834,#835));
#155=EDGE_LOOP('',(#836,#837,#838,#839));
#156=EDGE_LOOP('',(#840,#841,#842,#843));
#157=EDGE_LOOP('',(#844,#845,#846,#847));
#158=EDGE_LOOP('',(#848,#849,#850,#851,#852,#853));
#159=EDGE_LOOP('',(#854));
#160=EDGE_LOOP('',(#855));
#161=EDGE_LOOP('',(#856,#857,#858,#859));
#162=EDGE_LOOP('',(#860,#861,#862,#863));
#163=EDGE_LOOP('',(#864,#865,#866,#867,#868,#869));
#164=EDGE_LOOP('',(#870));
#165=EDGE_LOOP('',(#871));
#166=EDGE_LOOP('',(#872,#873,#874,#875));
#167=EDGE_LOOP('',(#876,#877,#878,#879));
#168=EDGE_LOOP('',(#880,#881,#882,#883));
#169=EDGE_LOOP('',(#884,#885,#886,#887));
#170=EDGE_LOOP('',(#888,#889,#890,#891));
#171=EDGE_LOOP('',(#892,#893,#894,#895,#896,#897));
#172=EDGE_LOOP('',(#898));
#173=EDGE_LOOP('',(#899,#900,#901,#902));
#174=EDGE_LOOP('',(#903,#904,#905,#906));
#175=EDGE_LOOP('',(#907));
#176=EDGE_LOOP('',(#908));
#177=EDGE_LOOP('',(#909));
#178=EDGE_LOOP('',(#910));
#179=EDGE_LOOP('',(#911,#912,#913,#914,#915,#916,#917,#918,#919,#920));
#180=EDGE_LOOP('',(#921,#922,#923,#924));
#181=EDGE_LOOP('',(#925,#926,#927,#928));
#182=EDGE_LOOP('',(#929,#930,#931,#932));
#183=EDGE_LOOP('',(#933,#934,#935,#936));
#184=EDGE_LOOP('',(#937,#938,#939,#940));
#185=EDGE_LOOP('',(#941));
#186=EDGE_LOOP('',(#942,#943,#944,#945));
#187=EDGE_LOOP('',(#946));
#188=EDGE_LOOP('',(#947,#948,#949,#950));
#189=EDGE_LOOP('',(#951));
#190=EDGE_LOOP('',(#952,#953,#954,#955));
#191=EDGE_LOOP('',(#956));
#192=EDGE_LOOP('',(#957,#958,#959,#960));
#193=EDGE_LOOP('',(#961));
#194=EDGE_LOOP('',(#962,#963,#964,#965));
#195=EDGE_LOOP('',(#966,#967,#968,#969));
#196=EDGE_LOOP('',(#970,#971,#972,#973));
#197=EDGE_LOOP('',(#974,#975,#976,#977));
#198=EDGE_LOOP('',(#978,#979,#980,#981));
#199=EDGE_LOOP('',(#982,#983,#984,#985));
#200=EDGE_LOOP('',(#986,#987,#988,#989));
#201=EDGE_LOOP('',(#990,#991,#992,#993));
#202=EDGE_LOOP('',(#994,#995,#996,#997));
#203=EDGE_LOOP('',(#998,#999,#1000,#1001));
#204=EDGE_LOOP('',(#1002,#1003,#1004,#1005));
#205=EDGE_LOOP('',(#1006));
#206=EDGE_LOOP('',(#1007,#1008,#1009,#1010));
#207=EDGE_LOOP('',(#1011,#1012,#1013,#1014));
#208=EDGE_LOOP('',(#1015,#1016,#1017,#1018));
#209=EDGE_LOOP('',(#1019,#1020,#1021,#1022));
#210=EDGE_LOOP('',(#1023,#1024,#1025,#1026));
#211=EDGE_LOOP('',(#1027,#1028,#1029,#1030));
#212=EDGE_LOOP('',(#1031,#1032,#1033,#1034));
#213=EDGE_LOOP('',(#1035,#1036,#1037,#1038));
#214=EDGE_LOOP('',(#1039,#1040,#1041,#1042));
#215=EDGE_LOOP('',(#1043,#1044,#1045,#1046));
#216=EDGE_LOOP('',(#1047,#1048,#1049,#1050));
#217=EDGE_LOOP('',(#1051,#1052,#1053,#1054));
#218=EDGE_LOOP('',(#1055,#1056,#1057,#1058));
#219=EDGE_LOOP('',(#1059,#1060,#1061,#1062));
#220=EDGE_LOOP('',(#1063,#1064,#1065,#1066));
#221=EDGE_LOOP('',(#1067,#1068,#1069,#1070,#1071,#1072,#1073,#1074,#1075,
#1076,#1077,#1078,#1079,#1080,#1081,#1082,#1083,#1084,#1085,#1086,#1087,
#1088,#1089,#1090));
#222=EDGE_LOOP('',(#1091,#1092,#1093,#1094));
#223=EDGE_LOOP('',(#1095,#1096,#1097,#1098));
#224=EDGE_LOOP('',(#1099,#1100,#1101,#1102));
#225=EDGE_LOOP('',(#1103,#1104,#1105,#1106));
#226=EDGE_LOOP('',(#1107,#1108,#1109,#1110));
#227=EDGE_LOOP('',(#1111,#1112,#1113,#1114,#1115,#1116,#1117,#1118,#1119,
#1120));
#228=EDGE_LOOP('',(#1121));
#229=EDGE_LOOP('',(#1122));
#230=EDGE_LOOP('',(#1123));
#231=EDGE_LOOP('',(#1124));
#232=EDGE_LOOP('',(#1125));
#233=EDGE_LOOP('',(#1126,#1127,#1128,#1129,#1130,#1131,#1132,#1133,#1134,
#1135,#1136,#1137,#1138,#1139,#1140,#1141,#1142,#1143,#1144,#1145,#1146,
#1147,#1148,#1149));
#234=LINE('',#1752,#346);
#235=LINE('',#1757,#347);
#236=LINE('',#1759,#348);
#237=LINE('',#1761,#349);
#238=LINE('',#1762,#350);
#239=LINE('',#1767,#351);
#240=LINE('',#1771,#352);
#241=LINE('',#1773,#353);
#242=LINE('',#1774,#354);
#243=LINE('',#1781,#355);
#244=LINE('',#1783,#356);
#245=LINE('',#1785,#357);
#246=LINE('',#1786,#358);
#247=LINE('',#1791,#359);
#248=LINE('',#1795,#360);
#249=LINE('',#1797,#361);
#250=LINE('',#1798,#362);
#251=LINE('',#1820,#363);
#252=LINE('',#1821,#364);
#253=LINE('',#1824,#365);
#254=LINE('',#1828,#366);
#255=LINE('',#1829,#367);
#256=LINE('',#1839,#368);
#257=LINE('',#1842,#369);
#258=LINE('',#1856,#370);
#259=LINE('',#1858,#371);
#260=LINE('',#1861,#372);
#261=LINE('',#1868,#373);
#262=LINE('',#1872,#374);
#263=LINE('',#1876,#375);
#264=LINE('',#1880,#376);
#265=LINE('',#1884,#377);
#266=LINE('',#1887,#378);
#267=LINE('',#1890,#379);
#268=LINE('',#1894,#380);
#269=LINE('',#1896,#381);
#270=LINE('',#1897,#382);
#271=LINE('',#1900,#383);
#272=LINE('',#1903,#384);
#273=LINE('',#1904,#385);
#274=LINE('',#1906,#386);
#275=LINE('',#1910,#387);
#276=LINE('',#1916,#388);
#277=LINE('',#1921,#389);
#278=LINE('',#1928,#390);
#279=LINE('',#1935,#391);
#280=LINE('',#1942,#392);
#281=LINE('',#1949,#393);
#282=LINE('',#1957,#394);
#283=LINE('',#1960,#395);
#284=LINE('',#1963,#396);
#285=LINE('',#1965,#397);
#286=LINE('',#1966,#398);
#287=LINE('',#1969,#399);
#288=LINE('',#1971,#400);
#289=LINE('',#1972,#401);
#290=LINE('',#1977,#402);
#291=LINE('',#1981,#403);
#292=LINE('',#1983,#404);
#293=LINE('',#1984,#405);
#294=LINE('',#1987,#406);
#295=LINE('',#1989,#407);
#296=LINE('',#1990,#408);
#297=LINE('',#1993,#409);
#298=LINE('',#1995,#410);
#299=LINE('',#1996,#411);
#300=LINE('',#2001,#412);
#301=LINE('',#2005,#413);
#302=LINE('',#2007,#414);
#303=LINE('',#2008,#415);
#304=LINE('',#2011,#416);
#305=LINE('',#2013,#417);
#306=LINE('',#2014,#418);
#307=LINE('',#2017,#419);
#308=LINE('',#2019,#420);
#309=LINE('',#2020,#421);
#310=LINE('',#2023,#422);
#311=LINE('',#2025,#423);
#312=LINE('',#2026,#424);
#313=LINE('',#2029,#425);
#314=LINE('',#2031,#426);
#315=LINE('',#2032,#427);
#316=LINE('',#2037,#428);
#317=LINE('',#2041,#429);
#318=LINE('',#2043,#430);
#319=LINE('',#2044,#431);
#320=LINE('',#2047,#432);
#321=LINE('',#2049,#433);
#322=LINE('',#2050,#434);
#323=LINE('',#2053,#435);
#324=LINE('',#2055,#436);
#325=LINE('',#2056,#437);
#326=LINE('',#2061,#438);
#327=LINE('',#2065,#439);
#328=LINE('',#2067,#440);
#329=LINE('',#2068,#441);
#330=LINE('',#2071,#442);
#331=LINE('',#2073,#443);
#332=LINE('',#2074,#444);
#333=LINE('',#2079,#445);
#334=LINE('',#2083,#446);
#335=LINE('',#2085,#447);
#336=LINE('',#2086,#448);
#337=LINE('',#2091,#449);
#338=LINE('',#2094,#450);
#339=LINE('',#2095,#451);
#340=LINE('',#2099,#452);
#341=LINE('',#2100,#453);
#342=LINE('',#2104,#454);
#343=LINE('',#2106,#455);
#344=LINE('',#2108,#456);
#345=LINE('',#2110,#457);
#346=VECTOR('',#1387,15.);
#347=VECTOR('',#1392,10.);
#348=VECTOR('',#1393,10.);
#349=VECTOR('',#1394,10.);
#350=VECTOR('',#1395,10.);
#351=VECTOR('',#1400,10.);
#352=VECTOR('',#1405,10.);
#353=VECTOR('',#1406,10.);
#354=VECTOR('',#1407,10.);
#355=VECTOR('',#1416,10.);
#356=VECTOR('',#1417,10.);
#357=VECTOR('',#1418,10.);
#358=VECTOR('',#1419,10.);
#359=VECTOR('',#1424,10.);
#360=VECTOR('',#1429,10.);
#361=VECTOR('',#1430,10.);
#362=VECTOR('',#1431,10.);
#363=VECTOR('',#1450,10.);
#364=VECTOR('',#1451,10.);
#365=VECTOR('',#1454,10.);
#366=VECTOR('',#1457,10.);
#367=VECTOR('',#1458,10.);
#368=VECTOR('',#1467,10.);
#369=VECTOR('',#1470,10.);
#370=VECTOR('',#1479,10.);
#371=VECTOR('',#1480,10.);
#372=VECTOR('',#1483,10.);
#373=VECTOR('',#1490,2.5);
#374=VECTOR('',#1495,2.5);
#375=VECTOR('',#1500,2.5);
#376=VECTOR('',#1505,2.5);
#377=VECTOR('',#1510,10.);
#378=VECTOR('',#1513,10.);
#379=VECTOR('',#1516,10.);
#380=VECTOR('',#1519,10.);
#381=VECTOR('',#1520,10.);
#382=VECTOR('',#1521,10.);
#383=VECTOR('',#1524,10.);
#384=VECTOR('',#1527,10.);
#385=VECTOR('',#1528,10.);
#386=VECTOR('',#1531,10.);
#387=VECTOR('',#1536,10.);
#388=VECTOR('',#1545,10.);
#389=VECTOR('',#1550,1.45);
#390=VECTOR('',#1559,1.45);
#391=VECTOR('',#1568,1.45);
#392=VECTOR('',#1577,1.45);
#393=VECTOR('',#1586,1.45);
#394=VECTOR('',#1595,10.);
#395=VECTOR('',#1598,10.);
#396=VECTOR('',#1601,10.);
#397=VECTOR('',#1602,10.);
#398=VECTOR('',#1603,10.);
#399=VECTOR('',#1606,10.);
#400=VECTOR('',#1607,10.);
#401=VECTOR('',#1608,10.);
#402=VECTOR('',#1613,10.);
#403=VECTOR('',#1618,10.);
#404=VECTOR('',#1619,10.);
#405=VECTOR('',#1620,10.);
#406=VECTOR('',#1623,10.);
#407=VECTOR('',#1624,10.);
#408=VECTOR('',#1625,10.);
#409=VECTOR('',#1628,10.);
#410=VECTOR('',#1629,10.);
#411=VECTOR('',#1630,10.);
#412=VECTOR('',#1635,10.);
#413=VECTOR('',#1640,10.);
#414=VECTOR('',#1641,10.);
#415=VECTOR('',#1642,10.);
#416=VECTOR('',#1645,10.);
#417=VECTOR('',#1646,10.);
#418=VECTOR('',#1647,10.);
#419=VECTOR('',#1650,10.);
#420=VECTOR('',#1651,10.);
#421=VECTOR('',#1652,10.);
#422=VECTOR('',#1655,10.);
#423=VECTOR('',#1656,10.);
#424=VECTOR('',#1657,10.);
#425=VECTOR('',#1660,10.);
#426=VECTOR('',#1661,10.);
#427=VECTOR('',#1662,10.);
#428=VECTOR('',#1667,10.);
#429=VECTOR('',#1672,10.);
#430=VECTOR('',#1673,10.);
#431=VECTOR('',#1674,10.);
#432=VECTOR('',#1677,10.);
#433=VECTOR('',#1678,10.);
#434=VECTOR('',#1679,10.);
#435=VECTOR('',#1682,10.);
#436=VECTOR('',#1683,10.);
#437=VECTOR('',#1684,10.);
#438=VECTOR('',#1689,10.);
#439=VECTOR('',#1694,10.);
#440=VECTOR('',#1695,10.);
#441=VECTOR('',#1696,10.);
#442=VECTOR('',#1699,10.);
#443=VECTOR('',#1700,10.);
#444=VECTOR('',#1701,10.);
#445=VECTOR('',#1706,10.);
#446=VECTOR('',#1711,10.);
#447=VECTOR('',#1712,10.);
#448=VECTOR('',#1713,10.);
#449=VECTOR('',#1718,10.);
#450=VECTOR('',#1723,10.);
#451=VECTOR('',#1724,10.);
#452=VECTOR('',#1729,10.);
#453=VECTOR('',#1730,10.);
#454=VECTOR('',#1735,10.);
#455=VECTOR('',#1738,10.);
#456=VECTOR('',#1741,10.);
#457=VECTOR('',#1744,10.);
#458=CIRCLE('',#1256,15.);
#459=CIRCLE('',#1257,15.);
#460=CIRCLE('',#1260,2.5);
#461=CIRCLE('',#1261,2.5);
#462=CIRCLE('',#1264,2.5);
#463=CIRCLE('',#1265,2.5);
#464=CIRCLE('',#1268,2.5000000372529);
#465=CIRCLE('',#1269,2.5000000372529);
#466=CIRCLE('',#1272,2.5000000372529);
#467=CIRCLE('',#1273,2.5000000372529);
#468=CIRCLE('',#1275,1.4);
#469=CIRCLE('',#1276,2.);
#470=CIRCLE('',#1277,3.4);
#471=CIRCLE('',#1279,1.4);
#472=CIRCLE('',#1281,2.);
#473=CIRCLE('',#1282,3.5);
#474=CIRCLE('',#1283,3.5);
#475=CIRCLE('',#1285,1.4);
#476=CIRCLE('',#1286,1.4);
#477=CIRCLE('',#1288,2.);
#478=CIRCLE('',#1289,3.4);
#479=CIRCLE('',#1291,2.);
#480=CIRCLE('',#1292,3.5);
#481=CIRCLE('',#1293,3.5);
#482=CIRCLE('',#1295,1.5);
#483=CIRCLE('',#1297,1.5);
#484=CIRCLE('',#1299,1.5);
#485=CIRCLE('',#1301,1.5);
#486=CIRCLE('',#1303,2.);
#487=CIRCLE('',#1305,2.);
#488=CIRCLE('',#1307,23.);
#489=CIRCLE('',#1310,2.);
#490=CIRCLE('',#1312,2.);
#491=CIRCLE('',#1313,25.);
#492=CIRCLE('',#1316,1.45);
#493=CIRCLE('',#1317,1.45);
#494=CIRCLE('',#1320,1.45);
#495=CIRCLE('',#1321,1.45);
#496=CIRCLE('',#1324,1.45);
#497=CIRCLE('',#1325,1.45);
#498=CIRCLE('',#1328,1.45);
#499=CIRCLE('',#1329,1.45);
#500=CIRCLE('',#1332,1.45);
#501=CIRCLE('',#1333,1.45);
#502=CIRCLE('',#1336,24.);
#503=CIRCLE('',#1337,24.);
#504=CIRCLE('',#1341,3.);
#505=CIRCLE('',#1342,3.);
#506=CIRCLE('',#1347,2.99999989569189);
#507=CIRCLE('',#1348,2.99999989569189);
#508=CIRCLE('',#1355,3.00000019371511);
#509=CIRCLE('',#1356,3.00000019371511);
#510=CIRCLE('',#1361,3.00000041723252);
#511=CIRCLE('',#1362,3.00000041723252);
#512=CIRCLE('',#1366,24.);
#513=CIRCLE('',#1367,24.);
#514=CIRCLE('',#1370,3.00000004470367);
#515=CIRCLE('',#1371,3.00000004470367);
#516=CIRCLE('',#1376,25.);
#517=VERTEX_POINT('',#1749);
#518=VERTEX_POINT('',#1751);
#519=VERTEX_POINT('',#1755);
#520=VERTEX_POINT('',#1756);
#521=VERTEX_POINT('',#1758);
#522=VERTEX_POINT('',#1760);
#523=VERTEX_POINT('',#1764);
#524=VERTEX_POINT('',#1766);
#525=VERTEX_POINT('',#1770);
#526=VERTEX_POINT('',#1772);
#527=VERTEX_POINT('',#1779);
#528=VERTEX_POINT('',#1780);
#529=VERTEX_POINT('',#1782);
#530=VERTEX_POINT('',#1784);
#531=VERTEX_POINT('',#1788);
#532=VERTEX_POINT('',#1790);
#533=VERTEX_POINT('',#1794);
#534=VERTEX_POINT('',#1796);
#535=VERTEX_POINT('',#1803);
#536=VERTEX_POINT('',#1804);
#537=VERTEX_POINT('',#1806);
#538=VERTEX_POINT('',#1808);
#539=VERTEX_POINT('',#1817);
#540=VERTEX_POINT('',#1818);
#541=VERTEX_POINT('',#1823);
#542=VERTEX_POINT('',#1825);
#543=VERTEX_POINT('',#1827);
#544=VERTEX_POINT('',#1830);
#545=VERTEX_POINT('',#1832);
#546=VERTEX_POINT('',#1835);
#547=VERTEX_POINT('',#1836);
#548=VERTEX_POINT('',#1838);
#549=VERTEX_POINT('',#1840);
#550=VERTEX_POINT('',#1844);
#551=VERTEX_POINT('',#1845);
#552=VERTEX_POINT('',#1855);
#553=VERTEX_POINT('',#1857);
#554=VERTEX_POINT('',#1859);
#555=VERTEX_POINT('',#1862);
#556=VERTEX_POINT('',#1864);
#557=VERTEX_POINT('',#1867);
#558=VERTEX_POINT('',#1871);
#559=VERTEX_POINT('',#1875);
#560=VERTEX_POINT('',#1879);
#561=VERTEX_POINT('',#1883);
#562=VERTEX_POINT('',#1885);
#563=VERTEX_POINT('',#1889);
#564=VERTEX_POINT('',#1891);
#565=VERTEX_POINT('',#1893);
#566=VERTEX_POINT('',#1895);
#567=VERTEX_POINT('',#1899);
#568=VERTEX_POINT('',#1901);
#569=VERTEX_POINT('',#1908);
#570=VERTEX_POINT('',#1912);
#571=VERTEX_POINT('',#1918);
#572=VERTEX_POINT('',#1920);
#573=VERTEX_POINT('',#1925);
#574=VERTEX_POINT('',#1927);
#575=VERTEX_POINT('',#1932);
#576=VERTEX_POINT('',#1934);
#577=VERTEX_POINT('',#1939);
#578=VERTEX_POINT('',#1941);
#579=VERTEX_POINT('',#1946);
#580=VERTEX_POINT('',#1948);
#581=VERTEX_POINT('',#1953);
#582=VERTEX_POINT('',#1954);
#583=VERTEX_POINT('',#1956);
#584=VERTEX_POINT('',#1958);
#585=VERTEX_POINT('',#1962);
#586=VERTEX_POINT('',#1964);
#587=VERTEX_POINT('',#1968);
#588=VERTEX_POINT('',#1970);
#589=VERTEX_POINT('',#1974);
#590=VERTEX_POINT('',#1976);
#591=VERTEX_POINT('',#1980);
#592=VERTEX_POINT('',#1982);
#593=VERTEX_POINT('',#1986);
#594=VERTEX_POINT('',#1988);
#595=VERTEX_POINT('',#1992);
#596=VERTEX_POINT('',#1994);
#597=VERTEX_POINT('',#1998);
#598=VERTEX_POINT('',#2000);
#599=VERTEX_POINT('',#2004);
#600=VERTEX_POINT('',#2006);
#601=VERTEX_POINT('',#2010);
#602=VERTEX_POINT('',#2012);
#603=VERTEX_POINT('',#2016);
#604=VERTEX_POINT('',#2018);
#605=VERTEX_POINT('',#2022);
#606=VERTEX_POINT('',#2024);
#607=VERTEX_POINT('',#2028);
#608=VERTEX_POINT('',#2030);
#609=VERTEX_POINT('',#2034);
#610=VERTEX_POINT('',#2036);
#611=VERTEX_POINT('',#2040);
#612=VERTEX_POINT('',#2042);
#613=VERTEX_POINT('',#2046);
#614=VERTEX_POINT('',#2048);
#615=VERTEX_POINT('',#2052);
#616=VERTEX_POINT('',#2054);
#617=VERTEX_POINT('',#2058);
#618=VERTEX_POINT('',#2060);
#619=VERTEX_POINT('',#2064);
#620=VERTEX_POINT('',#2066);
#621=VERTEX_POINT('',#2070);
#622=VERTEX_POINT('',#2072);
#623=VERTEX_POINT('',#2076);
#624=VERTEX_POINT('',#2078);
#625=VERTEX_POINT('',#2082);
#626=VERTEX_POINT('',#2084);
#627=VERTEX_POINT('',#2088);
#628=VERTEX_POINT('',#2090);
#629=VERTEX_POINT('',#2098);
#630=VERTEX_POINT('',#2102);
#631=EDGE_CURVE('',#517,#517,#458,.T.);
#632=EDGE_CURVE('',#517,#518,#234,.T.);
#633=EDGE_CURVE('',#518,#518,#459,.T.);
#634=EDGE_CURVE('',#519,#520,#235,.T.);
#635=EDGE_CURVE('',#519,#521,#236,.T.);
#636=EDGE_CURVE('',#522,#521,#237,.T.);
#637=EDGE_CURVE('',#520,#522,#238,.T.);
#638=EDGE_CURVE('',#523,#519,#460,.T.);
#639=EDGE_CURVE('',#523,#524,#239,.T.);
#640=EDGE_CURVE('',#521,#524,#461,.T.);
#641=EDGE_CURVE('',#525,#523,#240,.T.);
#642=EDGE_CURVE('',#525,#526,#241,.T.);
#643=EDGE_CURVE('',#524,#526,#242,.T.);
#644=EDGE_CURVE('',#520,#525,#462,.T.);
#645=EDGE_CURVE('',#526,#522,#463,.T.);
#646=EDGE_CURVE('',#527,#528,#243,.T.);
#647=EDGE_CURVE('',#527,#529,#244,.T.);
#648=EDGE_CURVE('',#530,#529,#245,.T.);
#649=EDGE_CURVE('',#528,#530,#246,.T.);
#650=EDGE_CURVE('',#531,#527,#464,.T.);
#651=EDGE_CURVE('',#531,#532,#247,.T.);
#652=EDGE_CURVE('',#529,#532,#465,.T.);
#653=EDGE_CURVE('',#533,#531,#248,.T.);
#654=EDGE_CURVE('',#533,#534,#249,.T.);
#655=EDGE_CURVE('',#532,#534,#250,.T.);
#656=EDGE_CURVE('',#528,#533,#466,.T.);
#657=EDGE_CURVE('',#534,#530,#467,.T.);
#658=EDGE_CURVE('',#535,#536,#468,.T.);
#659=EDGE_CURVE('',#536,#537,#469,.T.);
#660=EDGE_CURVE('',#537,#538,#39,.T.);
#661=EDGE_CURVE('',#538,#535,#470,.T.);
#662=EDGE_CURVE('',#539,#540,#471,.T.);
#663=EDGE_CURVE('',#540,#536,#251,.T.);
#664=EDGE_CURVE('',#535,#539,#252,.T.);
#665=EDGE_CURVE('',#541,#538,#253,.T.);
#666=EDGE_CURVE('',#542,#541,#472,.T.);
#667=EDGE_CURVE('',#542,#543,#254,.T.);
#668=EDGE_CURVE('',#539,#543,#255,.T.);
#669=EDGE_CURVE('',#544,#544,#473,.T.);
#670=EDGE_CURVE('',#545,#545,#474,.T.);
#671=EDGE_CURVE('',#546,#547,#475,.T.);
#672=EDGE_CURVE('',#547,#548,#256,.T.);
#673=EDGE_CURVE('',#548,#549,#476,.T.);
#674=EDGE_CURVE('',#549,#546,#257,.T.);
#675=EDGE_CURVE('',#550,#551,#40,.T.);
#676=EDGE_CURVE('',#551,#547,#477,.T.);
#677=EDGE_CURVE('',#546,#550,#478,.T.);
#678=EDGE_CURVE('',#552,#549,#258,.T.);
#679=EDGE_CURVE('',#553,#552,#259,.T.);
#680=EDGE_CURVE('',#554,#553,#479,.T.);
#681=EDGE_CURVE('',#554,#550,#260,.T.);
#682=EDGE_CURVE('',#555,#555,#480,.T.);
#683=EDGE_CURVE('',#556,#556,#481,.T.);
#684=EDGE_CURVE('',#544,#557,#261,.T.);
#685=EDGE_CURVE('',#557,#557,#482,.T.);
#686=EDGE_CURVE('',#545,#558,#262,.T.);
#687=EDGE_CURVE('',#558,#558,#483,.T.);
#688=EDGE_CURVE('',#555,#559,#263,.T.);
#689=EDGE_CURVE('',#559,#559,#484,.T.);
#690=EDGE_CURVE('',#556,#560,#264,.T.);
#691=EDGE_CURVE('',#560,#560,#485,.T.);
#692=EDGE_CURVE('',#541,#561,#265,.T.);
#693=EDGE_CURVE('',#561,#562,#486,.T.);
#694=EDGE_CURVE('',#562,#542,#266,.T.);
#695=EDGE_CURVE('',#561,#563,#267,.T.);
#696=EDGE_CURVE('',#564,#563,#487,.T.);
#697=EDGE_CURVE('',#564,#565,#268,.T.);
#698=EDGE_CURVE('',#566,#565,#269,.T.);
#699=EDGE_CURVE('',#562,#566,#270,.T.);
#700=EDGE_CURVE('',#567,#537,#271,.T.);
#701=EDGE_CURVE('',#568,#567,#488,.T.);
#702=EDGE_CURVE('',#551,#568,#272,.T.);
#703=EDGE_CURVE('',#563,#554,#273,.T.);
#704=EDGE_CURVE('',#553,#564,#274,.T.);
#705=EDGE_CURVE('',#568,#569,#489,.T.);
#706=EDGE_CURVE('',#569,#547,#275,.T.);
#707=EDGE_CURVE('',#567,#570,#490,.T.);
#708=EDGE_CURVE('',#570,#569,#491,.T.);
#709=EDGE_CURVE('',#536,#570,#276,.T.);
#710=EDGE_CURVE('',#571,#571,#492,.T.);
#711=EDGE_CURVE('',#571,#572,#277,.T.);
#712=EDGE_CURVE('',#572,#572,#493,.T.);
#713=EDGE_CURVE('',#573,#573,#494,.T.);
#714=EDGE_CURVE('',#573,#574,#278,.T.);
#715=EDGE_CURVE('',#574,#574,#495,.T.);
#716=EDGE_CURVE('',#575,#575,#496,.T.);
#717=EDGE_CURVE('',#575,#576,#279,.T.);
#718=EDGE_CURVE('',#576,#576,#497,.T.);
#719=EDGE_CURVE('',#577,#577,#498,.T.);
#720=EDGE_CURVE('',#577,#578,#280,.T.);
#721=EDGE_CURVE('',#578,#578,#499,.T.);
#722=EDGE_CURVE('',#579,#579,#500,.T.);
#723=EDGE_CURVE('',#579,#580,#281,.T.);
#724=EDGE_CURVE('',#580,#580,#501,.T.);
#725=EDGE_CURVE('',#581,#582,#502,.T.);
#726=EDGE_CURVE('',#581,#583,#282,.T.);
#727=EDGE_CURVE('',#583,#584,#503,.T.);
#728=EDGE_CURVE('',#582,#584,#283,.T.);
#729=EDGE_CURVE('',#585,#581,#284,.T.);
#730=EDGE_CURVE('',#585,#586,#285,.T.);
#731=EDGE_CURVE('',#586,#583,#286,.T.);
#732=EDGE_CURVE('',#587,#585,#287,.T.);
#733=EDGE_CURVE('',#587,#588,#288,.T.);
#734=EDGE_CURVE('',#588,#586,#289,.T.);
#735=EDGE_CURVE('',#589,#587,#504,.T.);
#736=EDGE_CURVE('',#589,#590,#290,.T.);
#737=EDGE_CURVE('',#590,#588,#505,.T.);
#738=EDGE_CURVE('',#591,#589,#291,.T.);
#739=EDGE_CURVE('',#591,#592,#292,.T.);
#740=EDGE_CURVE('',#592,#590,#293,.T.);
#741=EDGE_CURVE('',#593,#591,#294,.T.);
#742=EDGE_CURVE('',#593,#594,#295,.T.);
#743=EDGE_CURVE('',#594,#592,#296,.T.);
#744=EDGE_CURVE('',#595,#593,#297,.T.);
#745=EDGE_CURVE('',#595,#596,#298,.T.);
#746=EDGE_CURVE('',#596,#594,#299,.T.);
#747=EDGE_CURVE('',#597,#595,#506,.T.);
#748=EDGE_CURVE('',#597,#598,#300,.T.);
#749=EDGE_CURVE('',#598,#596,#507,.T.);
#750=EDGE_CURVE('',#599,#597,#301,.T.);
#751=EDGE_CURVE('',#599,#600,#302,.T.);
#752=EDGE_CURVE('',#600,#598,#303,.T.);
#753=EDGE_CURVE('',#601,#599,#304,.T.);
#754=EDGE_CURVE('',#601,#602,#305,.T.);
#755=EDGE_CURVE('',#602,#600,#306,.T.);
#756=EDGE_CURVE('',#603,#601,#307,.T.);
#757=EDGE_CURVE('',#603,#604,#308,.T.);
#758=EDGE_CURVE('',#604,#602,#309,.T.);
#759=EDGE_CURVE('',#605,#603,#310,.T.);
#760=EDGE_CURVE('',#605,#606,#311,.T.);
#761=EDGE_CURVE('',#606,#604,#312,.T.);
#762=EDGE_CURVE('',#607,#605,#313,.T.);
#763=EDGE_CURVE('',#607,#608,#314,.T.);
#764=EDGE_CURVE('',#608,#606,#315,.T.);
#765=EDGE_CURVE('',#609,#607,#508,.T.);
#766=EDGE_CURVE('',#609,#610,#316,.T.);
#767=EDGE_CURVE('',#610,#608,#509,.T.);
#768=EDGE_CURVE('',#611,#609,#317,.T.);
#769=EDGE_CURVE('',#611,#612,#318,.T.);
#770=EDGE_CURVE('',#612,#610,#319,.T.);
#771=EDGE_CURVE('',#613,#611,#320,.T.);
#772=EDGE_CURVE('',#613,#614,#321,.T.);
#773=EDGE_CURVE('',#614,#612,#322,.T.);
#774=EDGE_CURVE('',#615,#613,#323,.T.);
#775=EDGE_CURVE('',#615,#616,#324,.T.);
#776=EDGE_CURVE('',#616,#614,#325,.T.);
#777=EDGE_CURVE('',#617,#615,#510,.T.);
#778=EDGE_CURVE('',#617,#618,#326,.T.);
#779=EDGE_CURVE('',#618,#616,#511,.T.);
#780=EDGE_CURVE('',#619,#617,#327,.T.);
#781=EDGE_CURVE('',#619,#620,#328,.T.);
#782=EDGE_CURVE('',#620,#618,#329,.T.);
#783=EDGE_CURVE('',#621,#619,#330,.T.);
#784=EDGE_CURVE('',#621,#622,#331,.T.);
#785=EDGE_CURVE('',#622,#620,#332,.T.);
#786=EDGE_CURVE('',#623,#621,#512,.T.);
#787=EDGE_CURVE('',#623,#624,#333,.T.);
#788=EDGE_CURVE('',#624,#622,#513,.T.);
#789=EDGE_CURVE('',#625,#623,#334,.T.);
#790=EDGE_CURVE('',#625,#626,#335,.T.);
#791=EDGE_CURVE('',#626,#624,#336,.T.);
#792=EDGE_CURVE('',#627,#625,#514,.T.);
#793=EDGE_CURVE('',#627,#628,#337,.T.);
#794=EDGE_CURVE('',#628,#626,#515,.T.);
#795=EDGE_CURVE('',#582,#627,#338,.T.);
#796=EDGE_CURVE('',#584,#628,#339,.T.);
#797=EDGE_CURVE('',#629,#540,#340,.T.);
#798=EDGE_CURVE('',#570,#629,#341,.T.);
#799=EDGE_CURVE('',#630,#629,#516,.T.);
#800=EDGE_CURVE('',#569,#630,#342,.T.);
#801=EDGE_CURVE('',#548,#630,#343,.T.);
#802=EDGE_CURVE('',#565,#552,#344,.T.);
#803=EDGE_CURVE('',#543,#566,#345,.T.);
#804=ORIENTED_EDGE('',*,*,#631,.F.);
#805=ORIENTED_EDGE('',*,*,#632,.T.);
#806=ORIENTED_EDGE('',*,*,#633,.F.);
#807=ORIENTED_EDGE('',*,*,#632,.F.);
#808=ORIENTED_EDGE('',*,*,#634,.F.);
#809=ORIENTED_EDGE('',*,*,#635,.T.);
#810=ORIENTED_EDGE('',*,*,#636,.F.);
#811=ORIENTED_EDGE('',*,*,#637,.F.);
#812=ORIENTED_EDGE('',*,*,#638,.F.);
#813=ORIENTED_EDGE('',*,*,#639,.T.);
#814=ORIENTED_EDGE('',*,*,#640,.F.);
#815=ORIENTED_EDGE('',*,*,#635,.F.);
#816=ORIENTED_EDGE('',*,*,#641,.F.);
#817=ORIENTED_EDGE('',*,*,#642,.T.);
#818=ORIENTED_EDGE('',*,*,#643,.F.);
#819=ORIENTED_EDGE('',*,*,#639,.F.);
#820=ORIENTED_EDGE('',*,*,#644,.F.);
#821=ORIENTED_EDGE('',*,*,#637,.T.);
#822=ORIENTED_EDGE('',*,*,#645,.F.);
#823=ORIENTED_EDGE('',*,*,#642,.F.);
#824=ORIENTED_EDGE('',*,*,#646,.F.);
#825=ORIENTED_EDGE('',*,*,#647,.T.);
#826=ORIENTED_EDGE('',*,*,#648,.F.);
#827=ORIENTED_EDGE('',*,*,#649,.F.);
#828=ORIENTED_EDGE('',*,*,#650,.F.);
#829=ORIENTED_EDGE('',*,*,#651,.T.);
#830=ORIENTED_EDGE('',*,*,#652,.F.);
#831=ORIENTED_EDGE('',*,*,#647,.F.);
#832=ORIENTED_EDGE('',*,*,#653,.F.);
#833=ORIENTED_EDGE('',*,*,#654,.T.);
#834=ORIENTED_EDGE('',*,*,#655,.F.);
#835=ORIENTED_EDGE('',*,*,#651,.F.);
#836=ORIENTED_EDGE('',*,*,#656,.F.);
#837=ORIENTED_EDGE('',*,*,#649,.T.);
#838=ORIENTED_EDGE('',*,*,#657,.F.);
#839=ORIENTED_EDGE('',*,*,#654,.F.);
#840=ORIENTED_EDGE('',*,*,#658,.T.);
#841=ORIENTED_EDGE('',*,*,#659,.T.);
#842=ORIENTED_EDGE('',*,*,#660,.T.);
#843=ORIENTED_EDGE('',*,*,#661,.T.);
#844=ORIENTED_EDGE('',*,*,#662,.T.);
#845=ORIENTED_EDGE('',*,*,#663,.T.);
#846=ORIENTED_EDGE('',*,*,#658,.F.);
#847=ORIENTED_EDGE('',*,*,#664,.T.);
#848=ORIENTED_EDGE('',*,*,#664,.F.);
#849=ORIENTED_EDGE('',*,*,#661,.F.);
#850=ORIENTED_EDGE('',*,*,#665,.F.);
#851=ORIENTED_EDGE('',*,*,#666,.F.);
#852=ORIENTED_EDGE('',*,*,#667,.T.);
#853=ORIENTED_EDGE('',*,*,#668,.F.);
#854=ORIENTED_EDGE('',*,*,#669,.F.);
#855=ORIENTED_EDGE('',*,*,#670,.F.);
#856=ORIENTED_EDGE('',*,*,#671,.T.);
#857=ORIENTED_EDGE('',*,*,#672,.T.);
#858=ORIENTED_EDGE('',*,*,#673,.T.);
#859=ORIENTED_EDGE('',*,*,#674,.T.);
#860=ORIENTED_EDGE('',*,*,#675,.T.);
#861=ORIENTED_EDGE('',*,*,#676,.T.);
#862=ORIENTED_EDGE('',*,*,#671,.F.);
#863=ORIENTED_EDGE('',*,*,#677,.T.);
#864=ORIENTED_EDGE('',*,*,#677,.F.);
#865=ORIENTED_EDGE('',*,*,#674,.F.);
#866=ORIENTED_EDGE('',*,*,#678,.F.);
#867=ORIENTED_EDGE('',*,*,#679,.F.);
#868=ORIENTED_EDGE('',*,*,#680,.F.);
#869=ORIENTED_EDGE('',*,*,#681,.T.);
#870=ORIENTED_EDGE('',*,*,#682,.F.);
#871=ORIENTED_EDGE('',*,*,#683,.F.);
#872=ORIENTED_EDGE('',*,*,#669,.T.);
#873=ORIENTED_EDGE('',*,*,#684,.T.);
#874=ORIENTED_EDGE('',*,*,#685,.F.);
#875=ORIENTED_EDGE('',*,*,#684,.F.);
#876=ORIENTED_EDGE('',*,*,#670,.T.);
#877=ORIENTED_EDGE('',*,*,#686,.T.);
#878=ORIENTED_EDGE('',*,*,#687,.F.);
#879=ORIENTED_EDGE('',*,*,#686,.F.);
#880=ORIENTED_EDGE('',*,*,#682,.T.);
#881=ORIENTED_EDGE('',*,*,#688,.T.);
#882=ORIENTED_EDGE('',*,*,#689,.F.);
#883=ORIENTED_EDGE('',*,*,#688,.F.);
#884=ORIENTED_EDGE('',*,*,#683,.T.);
#885=ORIENTED_EDGE('',*,*,#690,.T.);
#886=ORIENTED_EDGE('',*,*,#691,.F.);
#887=ORIENTED_EDGE('',*,*,#690,.F.);
#888=ORIENTED_EDGE('',*,*,#666,.T.);
#889=ORIENTED_EDGE('',*,*,#692,.T.);
#890=ORIENTED_EDGE('',*,*,#693,.T.);
#891=ORIENTED_EDGE('',*,*,#694,.T.);
#892=ORIENTED_EDGE('',*,*,#693,.F.);
#893=ORIENTED_EDGE('',*,*,#695,.T.);
#894=ORIENTED_EDGE('',*,*,#696,.F.);
#895=ORIENTED_EDGE('',*,*,#697,.T.);
#896=ORIENTED_EDGE('',*,*,#698,.F.);
#897=ORIENTED_EDGE('',*,*,#699,.F.);
#898=ORIENTED_EDGE('',*,*,#631,.T.);
#899=ORIENTED_EDGE('',*,*,#634,.T.);
#900=ORIENTED_EDGE('',*,*,#644,.T.);
#901=ORIENTED_EDGE('',*,*,#641,.T.);
#902=ORIENTED_EDGE('',*,*,#638,.T.);
#903=ORIENTED_EDGE('',*,*,#646,.T.);
#904=ORIENTED_EDGE('',*,*,#656,.T.);
#905=ORIENTED_EDGE('',*,*,#653,.T.);
#906=ORIENTED_EDGE('',*,*,#650,.T.);
#907=ORIENTED_EDGE('',*,*,#685,.T.);
#908=ORIENTED_EDGE('',*,*,#687,.T.);
#909=ORIENTED_EDGE('',*,*,#691,.T.);
#910=ORIENTED_EDGE('',*,*,#689,.T.);
#911=ORIENTED_EDGE('',*,*,#692,.F.);
#912=ORIENTED_EDGE('',*,*,#665,.T.);
#913=ORIENTED_EDGE('',*,*,#660,.F.);
#914=ORIENTED_EDGE('',*,*,#700,.F.);
#915=ORIENTED_EDGE('',*,*,#701,.F.);
#916=ORIENTED_EDGE('',*,*,#702,.F.);
#917=ORIENTED_EDGE('',*,*,#675,.F.);
#918=ORIENTED_EDGE('',*,*,#681,.F.);
#919=ORIENTED_EDGE('',*,*,#703,.F.);
#920=ORIENTED_EDGE('',*,*,#695,.F.);
#921=ORIENTED_EDGE('',*,*,#680,.T.);
#922=ORIENTED_EDGE('',*,*,#704,.T.);
#923=ORIENTED_EDGE('',*,*,#696,.T.);
#924=ORIENTED_EDGE('',*,*,#703,.T.);
#925=ORIENTED_EDGE('',*,*,#676,.F.);
#926=ORIENTED_EDGE('',*,*,#702,.T.);
#927=ORIENTED_EDGE('',*,*,#705,.T.);
#928=ORIENTED_EDGE('',*,*,#706,.T.);
#929=ORIENTED_EDGE('',*,*,#707,.T.);
#930=ORIENTED_EDGE('',*,*,#708,.T.);
#931=ORIENTED_EDGE('',*,*,#705,.F.);
#932=ORIENTED_EDGE('',*,*,#701,.T.);
#933=ORIENTED_EDGE('',*,*,#659,.F.);
#934=ORIENTED_EDGE('',*,*,#709,.T.);
#935=ORIENTED_EDGE('',*,*,#707,.F.);
#936=ORIENTED_EDGE('',*,*,#700,.T.);
#937=ORIENTED_EDGE('',*,*,#710,.F.);
#938=ORIENTED_EDGE('',*,*,#711,.T.);
#939=ORIENTED_EDGE('',*,*,#712,.T.);
#940=ORIENTED_EDGE('',*,*,#711,.F.);
#941=ORIENTED_EDGE('',*,*,#712,.F.);
#942=ORIENTED_EDGE('',*,*,#713,.F.);
#943=ORIENTED_EDGE('',*,*,#714,.T.);
#944=ORIENTED_EDGE('',*,*,#715,.T.);
#945=ORIENTED_EDGE('',*,*,#714,.F.);
#946=ORIENTED_EDGE('',*,*,#715,.F.);
#947=ORIENTED_EDGE('',*,*,#716,.F.);
#948=ORIENTED_EDGE('',*,*,#717,.T.);
#949=ORIENTED_EDGE('',*,*,#718,.T.);
#950=ORIENTED_EDGE('',*,*,#717,.F.);
#951=ORIENTED_EDGE('',*,*,#718,.F.);
#952=ORIENTED_EDGE('',*,*,#719,.F.);
#953=ORIENTED_EDGE('',*,*,#720,.T.);
#954=ORIENTED_EDGE('',*,*,#721,.T.);
#955=ORIENTED_EDGE('',*,*,#720,.F.);
#956=ORIENTED_EDGE('',*,*,#721,.F.);
#957=ORIENTED_EDGE('',*,*,#722,.F.);
#958=ORIENTED_EDGE('',*,*,#723,.T.);
#959=ORIENTED_EDGE('',*,*,#724,.T.);
#960=ORIENTED_EDGE('',*,*,#723,.F.);
#961=ORIENTED_EDGE('',*,*,#724,.F.);
#962=ORIENTED_EDGE('',*,*,#725,.F.);
#963=ORIENTED_EDGE('',*,*,#726,.T.);
#964=ORIENTED_EDGE('',*,*,#727,.T.);
#965=ORIENTED_EDGE('',*,*,#728,.F.);
#966=ORIENTED_EDGE('',*,*,#729,.F.);
#967=ORIENTED_EDGE('',*,*,#730,.T.);
#968=ORIENTED_EDGE('',*,*,#731,.T.);
#969=ORIENTED_EDGE('',*,*,#726,.F.);
#970=ORIENTED_EDGE('',*,*,#732,.F.);
#971=ORIENTED_EDGE('',*,*,#733,.T.);
#972=ORIENTED_EDGE('',*,*,#734,.T.);
#973=ORIENTED_EDGE('',*,*,#730,.F.);
#974=ORIENTED_EDGE('',*,*,#735,.F.);
#975=ORIENTED_EDGE('',*,*,#736,.T.);
#976=ORIENTED_EDGE('',*,*,#737,.T.);
#977=ORIENTED_EDGE('',*,*,#733,.F.);
#978=ORIENTED_EDGE('',*,*,#738,.F.);
#979=ORIENTED_EDGE('',*,*,#739,.T.);
#980=ORIENTED_EDGE('',*,*,#740,.T.);
#981=ORIENTED_EDGE('',*,*,#736,.F.);
#982=ORIENTED_EDGE('',*,*,#741,.F.);
#983=ORIENTED_EDGE('',*,*,#742,.T.);
#984=ORIENTED_EDGE('',*,*,#743,.T.);
#985=ORIENTED_EDGE('',*,*,#739,.F.);
#986=ORIENTED_EDGE('',*,*,#744,.F.);
#987=ORIENTED_EDGE('',*,*,#745,.T.);
#988=ORIENTED_EDGE('',*,*,#746,.T.);
#989=ORIENTED_EDGE('',*,*,#742,.F.);
#990=ORIENTED_EDGE('',*,*,#747,.F.);
#991=ORIENTED_EDGE('',*,*,#748,.T.);
#992=ORIENTED_EDGE('',*,*,#749,.T.);
#993=ORIENTED_EDGE('',*,*,#745,.F.);
#994=ORIENTED_EDGE('',*,*,#750,.F.);
#995=ORIENTED_EDGE('',*,*,#751,.T.);
#996=ORIENTED_EDGE('',*,*,#752,.T.);
#997=ORIENTED_EDGE('',*,*,#748,.F.);
#998=ORIENTED_EDGE('',*,*,#753,.F.);
#999=ORIENTED_EDGE('',*,*,#754,.T.);
#1000=ORIENTED_EDGE('',*,*,#755,.T.);
#1001=ORIENTED_EDGE('',*,*,#751,.F.);
#1002=ORIENTED_EDGE('',*,*,#756,.F.);
#1003=ORIENTED_EDGE('',*,*,#757,.T.);
#1004=ORIENTED_EDGE('',*,*,#758,.T.);
#1005=ORIENTED_EDGE('',*,*,#754,.F.);
#1006=ORIENTED_EDGE('',*,*,#633,.T.);
#1007=ORIENTED_EDGE('',*,*,#636,.T.);
#1008=ORIENTED_EDGE('',*,*,#640,.T.);
#1009=ORIENTED_EDGE('',*,*,#643,.T.);
#1010=ORIENTED_EDGE('',*,*,#645,.T.);
#1011=ORIENTED_EDGE('',*,*,#648,.T.);
#1012=ORIENTED_EDGE('',*,*,#652,.T.);
#1013=ORIENTED_EDGE('',*,*,#655,.T.);
#1014=ORIENTED_EDGE('',*,*,#657,.T.);
#1015=ORIENTED_EDGE('',*,*,#759,.F.);
#1016=ORIENTED_EDGE('',*,*,#760,.T.);
#1017=ORIENTED_EDGE('',*,*,#761,.T.);
#1018=ORIENTED_EDGE('',*,*,#757,.F.);
#1019=ORIENTED_EDGE('',*,*,#762,.F.);
#1020=ORIENTED_EDGE('',*,*,#763,.T.);
#1021=ORIENTED_EDGE('',*,*,#764,.T.);
#1022=ORIENTED_EDGE('',*,*,#760,.F.);
#1023=ORIENTED_EDGE('',*,*,#765,.F.);
#1024=ORIENTED_EDGE('',*,*,#766,.T.);
#1025=ORIENTED_EDGE('',*,*,#767,.T.);
#1026=ORIENTED_EDGE('',*,*,#763,.F.);
#1027=ORIENTED_EDGE('',*,*,#768,.F.);
#1028=ORIENTED_EDGE('',*,*,#769,.T.);
#1029=ORIENTED_EDGE('',*,*,#770,.T.);
#1030=ORIENTED_EDGE('',*,*,#766,.F.);
#1031=ORIENTED_EDGE('',*,*,#771,.F.);
#1032=ORIENTED_EDGE('',*,*,#772,.T.);
#1033=ORIENTED_EDGE('',*,*,#773,.T.);
#1034=ORIENTED_EDGE('',*,*,#769,.F.);
#1035=ORIENTED_EDGE('',*,*,#774,.F.);
#1036=ORIENTED_EDGE('',*,*,#775,.T.);
#1037=ORIENTED_EDGE('',*,*,#776,.T.);
#1038=ORIENTED_EDGE('',*,*,#772,.F.);
#1039=ORIENTED_EDGE('',*,*,#777,.F.);
#1040=ORIENTED_EDGE('',*,*,#778,.T.);
#1041=ORIENTED_EDGE('',*,*,#779,.T.);
#1042=ORIENTED_EDGE('',*,*,#775,.F.);
#1043=ORIENTED_EDGE('',*,*,#780,.F.);
#1044=ORIENTED_EDGE('',*,*,#781,.T.);
#1045=ORIENTED_EDGE('',*,*,#782,.T.);
#1046=ORIENTED_EDGE('',*,*,#778,.F.);
#1047=ORIENTED_EDGE('',*,*,#783,.F.);
#1048=ORIENTED_EDGE('',*,*,#784,.T.);
#1049=ORIENTED_EDGE('',*,*,#785,.T.);
#1050=ORIENTED_EDGE('',*,*,#781,.F.);
#1051=ORIENTED_EDGE('',*,*,#786,.F.);
#1052=ORIENTED_EDGE('',*,*,#787,.T.);
#1053=ORIENTED_EDGE('',*,*,#788,.T.);
#1054=ORIENTED_EDGE('',*,*,#784,.F.);
#1055=ORIENTED_EDGE('',*,*,#789,.F.);
#1056=ORIENTED_EDGE('',*,*,#790,.T.);
#1057=ORIENTED_EDGE('',*,*,#791,.T.);
#1058=ORIENTED_EDGE('',*,*,#787,.F.);
#1059=ORIENTED_EDGE('',*,*,#792,.F.);
#1060=ORIENTED_EDGE('',*,*,#793,.T.);
#1061=ORIENTED_EDGE('',*,*,#794,.T.);
#1062=ORIENTED_EDGE('',*,*,#790,.F.);
#1063=ORIENTED_EDGE('',*,*,#795,.F.);
#1064=ORIENTED_EDGE('',*,*,#728,.T.);
#1065=ORIENTED_EDGE('',*,*,#796,.T.);
#1066=ORIENTED_EDGE('',*,*,#793,.F.);
#1067=ORIENTED_EDGE('',*,*,#796,.F.);
#1068=ORIENTED_EDGE('',*,*,#727,.F.);
#1069=ORIENTED_EDGE('',*,*,#731,.F.);
#1070=ORIENTED_EDGE('',*,*,#734,.F.);
#1071=ORIENTED_EDGE('',*,*,#737,.F.);
#1072=ORIENTED_EDGE('',*,*,#740,.F.);
#1073=ORIENTED_EDGE('',*,*,#743,.F.);
#1074=ORIENTED_EDGE('',*,*,#746,.F.);
#1075=ORIENTED_EDGE('',*,*,#749,.F.);
#1076=ORIENTED_EDGE('',*,*,#752,.F.);
#1077=ORIENTED_EDGE('',*,*,#755,.F.);
#1078=ORIENTED_EDGE('',*,*,#758,.F.);
#1079=ORIENTED_EDGE('',*,*,#761,.F.);
#1080=ORIENTED_EDGE('',*,*,#764,.F.);
#1081=ORIENTED_EDGE('',*,*,#767,.F.);
#1082=ORIENTED_EDGE('',*,*,#770,.F.);
#1083=ORIENTED_EDGE('',*,*,#773,.F.);
#1084=ORIENTED_EDGE('',*,*,#776,.F.);
#1085=ORIENTED_EDGE('',*,*,#779,.F.);
#1086=ORIENTED_EDGE('',*,*,#782,.F.);
#1087=ORIENTED_EDGE('',*,*,#785,.F.);
#1088=ORIENTED_EDGE('',*,*,#788,.F.);
#1089=ORIENTED_EDGE('',*,*,#791,.F.);
#1090=ORIENTED_EDGE('',*,*,#794,.F.);
#1091=ORIENTED_EDGE('',*,*,#663,.F.);
#1092=ORIENTED_EDGE('',*,*,#797,.F.);
#1093=ORIENTED_EDGE('',*,*,#798,.F.);
#1094=ORIENTED_EDGE('',*,*,#709,.F.);
#1095=ORIENTED_EDGE('',*,*,#708,.F.);
#1096=ORIENTED_EDGE('',*,*,#798,.T.);
#1097=ORIENTED_EDGE('',*,*,#799,.F.);
#1098=ORIENTED_EDGE('',*,*,#800,.F.);
#1099=ORIENTED_EDGE('',*,*,#672,.F.);
#1100=ORIENTED_EDGE('',*,*,#706,.F.);
#1101=ORIENTED_EDGE('',*,*,#800,.T.);
#1102=ORIENTED_EDGE('',*,*,#801,.F.);
#1103=ORIENTED_EDGE('',*,*,#704,.F.);
#1104=ORIENTED_EDGE('',*,*,#679,.T.);
#1105=ORIENTED_EDGE('',*,*,#802,.F.);
#1106=ORIENTED_EDGE('',*,*,#697,.F.);
#1107=ORIENTED_EDGE('',*,*,#694,.F.);
#1108=ORIENTED_EDGE('',*,*,#699,.T.);
#1109=ORIENTED_EDGE('',*,*,#803,.F.);
#1110=ORIENTED_EDGE('',*,*,#667,.F.);
#1111=ORIENTED_EDGE('',*,*,#803,.T.);
#1112=ORIENTED_EDGE('',*,*,#698,.T.);
#1113=ORIENTED_EDGE('',*,*,#802,.T.);
#1114=ORIENTED_EDGE('',*,*,#678,.T.);
#1115=ORIENTED_EDGE('',*,*,#673,.F.);
#1116=ORIENTED_EDGE('',*,*,#801,.T.);
#1117=ORIENTED_EDGE('',*,*,#799,.T.);
#1118=ORIENTED_EDGE('',*,*,#797,.T.);
#1119=ORIENTED_EDGE('',*,*,#662,.F.);
#1120=ORIENTED_EDGE('',*,*,#668,.T.);
#1121=ORIENTED_EDGE('',*,*,#710,.T.);
#1122=ORIENTED_EDGE('',*,*,#713,.T.);
#1123=ORIENTED_EDGE('',*,*,#716,.T.);
#1124=ORIENTED_EDGE('',*,*,#719,.T.);
#1125=ORIENTED_EDGE('',*,*,#722,.T.);
#1126=ORIENTED_EDGE('',*,*,#725,.T.);
#1127=ORIENTED_EDGE('',*,*,#795,.T.);
#1128=ORIENTED_EDGE('',*,*,#792,.T.);
#1129=ORIENTED_EDGE('',*,*,#789,.T.);
#1130=ORIENTED_EDGE('',*,*,#786,.T.);
#1131=ORIENTED_EDGE('',*,*,#783,.T.);
#1132=ORIENTED_EDGE('',*,*,#780,.T.);
#1133=ORIENTED_EDGE('',*,*,#777,.T.);
#1134=ORIENTED_EDGE('',*,*,#774,.T.);
#1135=ORIENTED_EDGE('',*,*,#771,.T.);
#1136=ORIENTED_EDGE('',*,*,#768,.T.);
#1137=ORIENTED_EDGE('',*,*,#765,.T.);
#1138=ORIENTED_EDGE('',*,*,#762,.T.);
#1139=ORIENTED_EDGE('',*,*,#759,.T.);
#1140=ORIENTED_EDGE('',*,*,#756,.T.);
#1141=ORIENTED_EDGE('',*,*,#753,.T.);
#1142=ORIENTED_EDGE('',*,*,#750,.T.);
#1143=ORIENTED_EDGE('',*,*,#747,.T.);
#1144=ORIENTED_EDGE('',*,*,#744,.T.);
#1145=ORIENTED_EDGE('',*,*,#741,.T.);
#1146=ORIENTED_EDGE('',*,*,#738,.T.);
#1147=ORIENTED_EDGE('',*,*,#735,.T.);
#1148=ORIENTED_EDGE('',*,*,#732,.T.);
#1149=ORIENTED_EDGE('',*,*,#729,.T.);
#1150=CYLINDRICAL_SURFACE('',#1255,15.);
#1151=CYLINDRICAL_SURFACE('',#1259,2.5);
#1152=CYLINDRICAL_SURFACE('',#1263,2.5);
#1153=CYLINDRICAL_SURFACE('',#1267,2.5000000372529);
#1154=CYLINDRICAL_SURFACE('',#1271,2.5000000372529);
#1155=CYLINDRICAL_SURFACE('',#1278,1.4);
#1156=CYLINDRICAL_SURFACE('',#1284,1.4);
#1157=CYLINDRICAL_SURFACE('',#1302,2.);
#1158=CYLINDRICAL_SURFACE('',#1308,2.);
#1159=CYLINDRICAL_SURFACE('',#1309,2.);
#1160=CYLINDRICAL_SURFACE('',#1314,2.);
#1161=CYLINDRICAL_SURFACE('',#1315,1.45);
#1162=CYLINDRICAL_SURFACE('',#1319,1.45);
#1163=CYLINDRICAL_SURFACE('',#1323,1.45);
#1164=CYLINDRICAL_SURFACE('',#1327,1.45);
#1165=CYLINDRICAL_SURFACE('',#1331,1.45);
#1166=CYLINDRICAL_SURFACE('',#1335,24.);
#1167=CYLINDRICAL_SURFACE('',#1340,3.);
#1168=CYLINDRICAL_SURFACE('',#1346,2.99999989569189);
#1169=CYLINDRICAL_SURFACE('',#1354,3.00000019371511);
#1170=CYLINDRICAL_SURFACE('',#1360,3.00000041723252);
#1171=CYLINDRICAL_SURFACE('',#1365,24.);
#1172=CYLINDRICAL_SURFACE('',#1369,3.00000004470367);
#1173=CYLINDRICAL_SURFACE('',#1375,25.);
#1174=ADVANCED_FACE('',(#80),#1150,.F.);
#1175=ADVANCED_FACE('',(#81),#44,.F.);
#1176=ADVANCED_FACE('',(#82),#1151,.F.);
#1177=ADVANCED_FACE('',(#83),#45,.F.);
#1178=ADVANCED_FACE('',(#84),#1152,.F.);
#1179=ADVANCED_FACE('',(#85),#46,.F.);
#1180=ADVANCED_FACE('',(#86),#1153,.F.);
#1181=ADVANCED_FACE('',(#87),#47,.F.);
#1182=ADVANCED_FACE('',(#88),#1154,.F.);
#1183=ADVANCED_FACE('',(#89),#41,.F.);
#1184=ADVANCED_FACE('',(#90),#1155,.F.);
#1185=ADVANCED_FACE('',(#91,#19,#20),#48,.T.);
#1186=ADVANCED_FACE('',(#92),#1156,.F.);
#1187=ADVANCED_FACE('',(#93),#42,.F.);
#1188=ADVANCED_FACE('',(#94,#21,#22),#49,.T.);
#1189=ADVANCED_FACE('',(#95),#15,.F.);
#1190=ADVANCED_FACE('',(#96),#16,.F.);
#1191=ADVANCED_FACE('',(#97),#17,.F.);
#1192=ADVANCED_FACE('',(#98),#18,.F.);
#1193=ADVANCED_FACE('',(#99),#1157,.T.);
#1194=ADVANCED_FACE('',(#100,#23,#24,#25,#26,#27,#28,#29),#50,.T.);
#1195=ADVANCED_FACE('',(#101),#51,.F.);
#1196=ADVANCED_FACE('',(#102),#1158,.T.);
#1197=ADVANCED_FACE('',(#103),#1159,.T.);
#1198=ADVANCED_FACE('',(#104),#43,.T.);
#1199=ADVANCED_FACE('',(#105),#1160,.T.);
#1200=ADVANCED_FACE('',(#106),#1161,.F.);
#1201=ADVANCED_FACE('',(#107),#52,.T.);
#1202=ADVANCED_FACE('',(#108),#1162,.F.);
#1203=ADVANCED_FACE('',(#109),#53,.T.);
#1204=ADVANCED_FACE('',(#110),#1163,.F.);
#1205=ADVANCED_FACE('',(#111),#54,.T.);
#1206=ADVANCED_FACE('',(#112),#1164,.F.);
#1207=ADVANCED_FACE('',(#113),#55,.T.);
#1208=ADVANCED_FACE('',(#114),#1165,.F.);
#1209=ADVANCED_FACE('',(#115),#56,.T.);
#1210=ADVANCED_FACE('',(#116),#1166,.F.);
#1211=ADVANCED_FACE('',(#117),#57,.F.);
#1212=ADVANCED_FACE('',(#118),#58,.F.);
#1213=ADVANCED_FACE('',(#119),#1167,.T.);
#1214=ADVANCED_FACE('',(#120),#59,.F.);
#1215=ADVANCED_FACE('',(#121),#60,.F.);
#1216=ADVANCED_FACE('',(#122),#61,.F.);
#1217=ADVANCED_FACE('',(#123),#1168,.T.);
#1218=ADVANCED_FACE('',(#124),#62,.F.);
#1219=ADVANCED_FACE('',(#125),#63,.F.);
#1220=ADVANCED_FACE('',(#126,#30,#31,#32),#64,.F.);
#1221=ADVANCED_FACE('',(#127),#65,.F.);
#1222=ADVANCED_FACE('',(#128),#66,.F.);
#1223=ADVANCED_FACE('',(#129),#1169,.T.);
#1224=ADVANCED_FACE('',(#130),#67,.F.);
#1225=ADVANCED_FACE('',(#131),#68,.F.);
#1226=ADVANCED_FACE('',(#132),#69,.F.);
#1227=ADVANCED_FACE('',(#133),#1170,.T.);
#1228=ADVANCED_FACE('',(#134),#70,.F.);
#1229=ADVANCED_FACE('',(#135),#71,.F.);
#1230=ADVANCED_FACE('',(#136),#1171,.F.);
#1231=ADVANCED_FACE('',(#137),#72,.F.);
#1232=ADVANCED_FACE('',(#138),#1172,.T.);
#1233=ADVANCED_FACE('',(#139),#73,.F.);
#1234=ADVANCED_FACE('',(#140),#74,.T.);
#1235=ADVANCED_FACE('',(#141),#75,.T.);
#1236=ADVANCED_FACE('',(#142),#1173,.T.);
#1237=ADVANCED_FACE('',(#143),#76,.T.);
#1238=ADVANCED_FACE('',(#144),#77,.T.);
#1239=ADVANCED_FACE('',(#145),#78,.T.);
#1240=ADVANCED_FACE('',(#146,#33,#34,#35,#36,#37,#38),#79,.T.);
#1241=CLOSED_SHELL('',(#1174,#1175,#1176,#1177,#1178,#1179,#1180,#1181,
#1182,#1183,#1184,#1185,#1186,#1187,#1188,#1189,#1190,#1191,#1192,#1193,
#1194,#1195,#1196,#1197,#1198,#1199,#1200,#1201,#1202,#1203,#1204,#1205,
#1206,#1207,#1208,#1209,#1210,#1211,#1212,#1213,#1214,#1215,#1216,#1217,
#1218,#1219,#1220,#1221,#1222,#1223,#1224,#1225,#1226,#1227,#1228,#1229,
#1230,#1231,#1232,#1233,#1234,#1235,#1236,#1237,#1238,#1239,#1240));
#1242=DERIVED_UNIT_ELEMENT(#1244,1.);
#1243=DERIVED_UNIT_ELEMENT(#2117,-3.);
#1244=(
MASS_UNIT()
NAMED_UNIT(*)
SI_UNIT(.KILO.,.GRAM.)
);
#1245=DERIVED_UNIT((#1242,#1243));
#1246=MEASURE_REPRESENTATION_ITEM('density measure',
POSITIVE_RATIO_MEASURE(7850.),#1245);
#1247=PROPERTY_DEFINITION_REPRESENTATION(#1252,#1249);
#1248=PROPERTY_DEFINITION_REPRESENTATION(#1253,#1250);
#1249=REPRESENTATION('material name',(#1251),#2114);
#1250=REPRESENTATION('density',(#1246),#2114);
#1251=DESCRIPTIVE_REPRESENTATION_ITEM('\X2\AC15CCA0\X0\','\X2\AC15CCA0\X0\');
#1252=PROPERTY_DEFINITION('material property','material name',#2124);
#1253=PROPERTY_DEFINITION('material property','density of part',#2124);
#1254=AXIS2_PLACEMENT_3D('',#1747,#1381,#1382);
#1255=AXIS2_PLACEMENT_3D('',#1748,#1383,#1384);
#1256=AXIS2_PLACEMENT_3D('',#1750,#1385,#1386);
#1257=AXIS2_PLACEMENT_3D('',#1753,#1388,#1389);
#1258=AXIS2_PLACEMENT_3D('',#1754,#1390,#1391);
#1259=AXIS2_PLACEMENT_3D('',#1763,#1396,#1397);
#1260=AXIS2_PLACEMENT_3D('',#1765,#1398,#1399);
#1261=AXIS2_PLACEMENT_3D('',#1768,#1401,#1402);
#1262=AXIS2_PLACEMENT_3D('',#1769,#1403,#1404);
#1263=AXIS2_PLACEMENT_3D('',#1775,#1408,#1409);
#1264=AXIS2_PLACEMENT_3D('',#1776,#1410,#1411);
#1265=AXIS2_PLACEMENT_3D('',#1777,#1412,#1413);
#1266=AXIS2_PLACEMENT_3D('',#1778,#1414,#1415);
#1267=AXIS2_PLACEMENT_3D('',#1787,#1420,#1421);
#1268=AXIS2_PLACEMENT_3D('',#1789,#1422,#1423);
#1269=AXIS2_PLACEMENT_3D('',#1792,#1425,#1426);
#1270=AXIS2_PLACEMENT_3D('',#1793,#1427,#1428);
#1271=AXIS2_PLACEMENT_3D('',#1799,#1432,#1433);
#1272=AXIS2_PLACEMENT_3D('',#1800,#1434,#1435);
#1273=AXIS2_PLACEMENT_3D('',#1801,#1436,#1437);
#1274=AXIS2_PLACEMENT_3D('',#1802,#1438,#1439);
#1275=AXIS2_PLACEMENT_3D('',#1805,#1440,#1441);
#1276=AXIS2_PLACEMENT_3D('',#1807,#1442,#1443);
#1277=AXIS2_PLACEMENT_3D('',#1815,#1444,#1445);
#1278=AXIS2_PLACEMENT_3D('',#1816,#1446,#1447);
#1279=AXIS2_PLACEMENT_3D('',#1819,#1448,#1449);
#1280=AXIS2_PLACEMENT_3D('',#1822,#1452,#1453);
#1281=AXIS2_PLACEMENT_3D('',#1826,#1455,#1456);
#1282=AXIS2_PLACEMENT_3D('',#1831,#1459,#1460);
#1283=AXIS2_PLACEMENT_3D('',#1833,#1461,#1462);
#1284=AXIS2_PLACEMENT_3D('',#1834,#1463,#1464);
#1285=AXIS2_PLACEMENT_3D('',#1837,#1465,#1466);
#1286=AXIS2_PLACEMENT_3D('',#1841,#1468,#1469);
#1287=AXIS2_PLACEMENT_3D('',#1843,#1471,#1472);
#1288=AXIS2_PLACEMENT_3D('',#1852,#1473,#1474);
#1289=AXIS2_PLACEMENT_3D('',#1853,#1475,#1476);
#1290=AXIS2_PLACEMENT_3D('',#1854,#1477,#1478);
#1291=AXIS2_PLACEMENT_3D('',#1860,#1481,#1482);
#1292=AXIS2_PLACEMENT_3D('',#1863,#1484,#1485);
#1293=AXIS2_PLACEMENT_3D('',#1865,#1486,#1487);
#1294=AXIS2_PLACEMENT_3D('',#1866,#1488,#1489);
#1295=AXIS2_PLACEMENT_3D('',#1869,#1491,#1492);
#1296=AXIS2_PLACEMENT_3D('',#1870,#1493,#1494);
#1297=AXIS2_PLACEMENT_3D('',#1873,#1496,#1497);
#1298=AXIS2_PLACEMENT_3D('',#1874,#1498,#1499);
#1299=AXIS2_PLACEMENT_3D('',#1877,#1501,#1502);
#1300=AXIS2_PLACEMENT_3D('',#1878,#1503,#1504);
#1301=AXIS2_PLACEMENT_3D('',#1881,#1506,#1507);
#1302=AXIS2_PLACEMENT_3D('',#1882,#1508,#1509);
#1303=AXIS2_PLACEMENT_3D('',#1886,#1511,#1512);
#1304=AXIS2_PLACEMENT_3D('',#1888,#1514,#1515);
#1305=AXIS2_PLACEMENT_3D('',#1892,#1517,#1518);
#1306=AXIS2_PLACEMENT_3D('',#1898,#1522,#1523);
#1307=AXIS2_PLACEMENT_3D('',#1902,#1525,#1526);
#1308=AXIS2_PLACEMENT_3D('',#1905,#1529,#1530);
#1309=AXIS2_PLACEMENT_3D('',#1907,#1532,#1533);
#1310=AXIS2_PLACEMENT_3D('',#1909,#1534,#1535);
#1311=AXIS2_PLACEMENT_3D('',#1911,#1537,#1538);
#1312=AXIS2_PLACEMENT_3D('',#1913,#1539,#1540);
#1313=AXIS2_PLACEMENT_3D('',#1914,#1541,#1542);
#1314=AXIS2_PLACEMENT_3D('',#1915,#1543,#1544);
#1315=AXIS2_PLACEMENT_3D('',#1917,#1546,#1547);
#1316=AXIS2_PLACEMENT_3D('',#1919,#1548,#1549);
#1317=AXIS2_PLACEMENT_3D('',#1922,#1551,#1552);
#1318=AXIS2_PLACEMENT_3D('',#1923,#1553,#1554);
#1319=AXIS2_PLACEMENT_3D('',#1924,#1555,#1556);
#1320=AXIS2_PLACEMENT_3D('',#1926,#1557,#1558);
#1321=AXIS2_PLACEMENT_3D('',#1929,#1560,#1561);
#1322=AXIS2_PLACEMENT_3D('',#1930,#1562,#1563);
#1323=AXIS2_PLACEMENT_3D('',#1931,#1564,#1565);
#1324=AXIS2_PLACEMENT_3D('',#1933,#1566,#1567);
#1325=AXIS2_PLACEMENT_3D('',#1936,#1569,#1570);
#1326=AXIS2_PLACEMENT_3D('',#1937,#1571,#1572);
#1327=AXIS2_PLACEMENT_3D('',#1938,#1573,#1574);
#1328=AXIS2_PLACEMENT_3D('',#1940,#1575,#1576);
#1329=AXIS2_PLACEMENT_3D('',#1943,#1578,#1579);
#1330=AXIS2_PLACEMENT_3D('',#1944,#1580,#1581);
#1331=AXIS2_PLACEMENT_3D('',#1945,#1582,#1583);
#1332=AXIS2_PLACEMENT_3D('',#1947,#1584,#1585);
#1333=AXIS2_PLACEMENT_3D('',#1950,#1587,#1588);
#1334=AXIS2_PLACEMENT_3D('',#1951,#1589,#1590);
#1335=AXIS2_PLACEMENT_3D('',#1952,#1591,#1592);
#1336=AXIS2_PLACEMENT_3D('',#1955,#1593,#1594);
#1337=AXIS2_PLACEMENT_3D('',#1959,#1596,#1597);
#1338=AXIS2_PLACEMENT_3D('',#1961,#1599,#1600);
#1339=AXIS2_PLACEMENT_3D('',#1967,#1604,#1605);
#1340=AXIS2_PLACEMENT_3D('',#1973,#1609,#1610);
#1341=AXIS2_PLACEMENT_3D('',#1975,#1611,#1612);
#1342=AXIS2_PLACEMENT_3D('',#1978,#1614,#1615);
#1343=AXIS2_PLACEMENT_3D('',#1979,#1616,#1617);
#1344=AXIS2_PLACEMENT_3D('',#1985,#1621,#1622);
#1345=AXIS2_PLACEMENT_3D('',#1991,#1626,#1627);
#1346=AXIS2_PLACEMENT_3D('',#1997,#1631,#1632);
#1347=AXIS2_PLACEMENT_3D('',#1999,#1633,#1634);
#1348=AXIS2_PLACEMENT_3D('',#2002,#1636,#1637);
#1349=AXIS2_PLACEMENT_3D('',#2003,#1638,#1639);
#1350=AXIS2_PLACEMENT_3D('',#2009,#1643,#1644);
#1351=AXIS2_PLACEMENT_3D('',#2015,#1648,#1649);
#1352=AXIS2_PLACEMENT_3D('',#2021,#1653,#1654);
#1353=AXIS2_PLACEMENT_3D('',#2027,#1658,#1659);
#1354=AXIS2_PLACEMENT_3D('',#2033,#1663,#1664);
#1355=AXIS2_PLACEMENT_3D('',#2035,#1665,#1666);
#1356=AXIS2_PLACEMENT_3D('',#2038,#1668,#1669);
#1357=AXIS2_PLACEMENT_3D('',#2039,#1670,#1671);
#1358=AXIS2_PLACEMENT_3D('',#2045,#1675,#1676);
#1359=AXIS2_PLACEMENT_3D('',#2051,#1680,#1681);
#1360=AXIS2_PLACEMENT_3D('',#2057,#1685,#1686);
#1361=AXIS2_PLACEMENT_3D('',#2059,#1687,#1688);
#1362=AXIS2_PLACEMENT_3D('',#2062,#1690,#1691);
#1363=AXIS2_PLACEMENT_3D('',#2063,#1692,#1693);
#1364=AXIS2_PLACEMENT_3D('',#2069,#1697,#1698);
#1365=AXIS2_PLACEMENT_3D('',#2075,#1702,#1703);
#1366=AXIS2_PLACEMENT_3D('',#2077,#1704,#1705);
#1367=AXIS2_PLACEMENT_3D('',#2080,#1707,#1708);
#1368=AXIS2_PLACEMENT_3D('',#2081,#1709,#1710);
#1369=AXIS2_PLACEMENT_3D('',#2087,#1714,#1715);
#1370=AXIS2_PLACEMENT_3D('',#2089,#1716,#1717);
#1371=AXIS2_PLACEMENT_3D('',#2092,#1719,#1720);
#1372=AXIS2_PLACEMENT_3D('',#2093,#1721,#1722);
#1373=AXIS2_PLACEMENT_3D('',#2096,#1725,#1726);
#1374=AXIS2_PLACEMENT_3D('',#2097,#1727,#1728);
#1375=AXIS2_PLACEMENT_3D('',#2101,#1731,#1732);
#1376=AXIS2_PLACEMENT_3D('',#2103,#1733,#1734);
#1377=AXIS2_PLACEMENT_3D('',#2105,#1736,#1737);
#1378=AXIS2_PLACEMENT_3D('',#2107,#1739,#1740);
#1379=AXIS2_PLACEMENT_3D('',#2109,#1742,#1743);
#1380=AXIS2_PLACEMENT_3D('',#2111,#1745,#1746);
#1381=DIRECTION('axis',(0.,0.,1.));
#1382=DIRECTION('refdir',(1.,0.,0.));
#1383=DIRECTION('center_axis',(0.,1.,0.));
#1384=DIRECTION('ref_axis',(1.,0.,0.));
#1385=DIRECTION('center_axis',(0.,1.,0.));
#1386=DIRECTION('ref_axis',(1.,0.,0.));
#1387=DIRECTION('',(0.,1.,0.));
#1388=DIRECTION('center_axis',(0.,-1.,0.));
#1389=DIRECTION('ref_axis',(1.,0.,0.));
#1390=DIRECTION('center_axis',(-1.,0.,0.));
#1391=DIRECTION('ref_axis',(0.,0.,1.));
#1392=DIRECTION('',(0.,0.,1.));
#1393=DIRECTION('',(0.,1.,0.));
#1394=DIRECTION('',(0.,0.,-1.));
#1395=DIRECTION('',(0.,1.,0.));
#1396=DIRECTION('center_axis',(0.,1.,0.));
#1397=DIRECTION('ref_axis',(-1.,0.,0.));
#1398=DIRECTION('center_axis',(0.,1.,0.));
#1399=DIRECTION('ref_axis',(-1.,0.,0.));
#1400=DIRECTION('',(0.,1.,0.));
#1401=DIRECTION('center_axis',(0.,-1.,0.));
#1402=DIRECTION('ref_axis',(-1.,0.,0.));
#1403=DIRECTION('center_axis',(1.,0.,0.));
#1404=DIRECTION('ref_axis',(0.,0.,-1.));
#1405=DIRECTION('',(0.,0.,-1.));
#1406=DIRECTION('',(0.,1.,0.));
#1407=DIRECTION('',(0.,0.,1.));
#1408=DIRECTION('center_axis',(0.,1.,0.));
#1409=DIRECTION('ref_axis',(1.,0.,0.));
#1410=DIRECTION('center_axis',(0.,1.,0.));
#1411=DIRECTION('ref_axis',(1.,0.,0.));
#1412=DIRECTION('center_axis',(0.,-1.,0.));
#1413=DIRECTION('ref_axis',(1.,0.,0.));
#1414=DIRECTION('center_axis',(-1.,0.,0.));
#1415=DIRECTION('ref_axis',(0.,0.,1.));
#1416=DIRECTION('',(0.,0.,1.));
#1417=DIRECTION('',(0.,1.,0.));
#1418=DIRECTION('',(0.,0.,-1.));
#1419=DIRECTION('',(0.,1.,0.));
#1420=DIRECTION('center_axis',(0.,1.,0.));
#1421=DIRECTION('ref_axis',(-1.,0.,0.));
#1422=DIRECTION('center_axis',(0.,1.,0.));
#1423=DIRECTION('ref_axis',(-1.,0.,0.));
#1424=DIRECTION('',(0.,1.,0.));
#1425=DIRECTION('center_axis',(0.,-1.,0.));
#1426=DIRECTION('ref_axis',(-1.,0.,0.));
#1427=DIRECTION('center_axis',(1.,0.,0.));
#1428=DIRECTION('ref_axis',(0.,0.,-1.));
#1429=DIRECTION('',(0.,0.,-1.));
#1430=DIRECTION('',(0.,1.,0.));
#1431=DIRECTION('',(0.,0.,1.));
#1432=DIRECTION('center_axis',(0.,1.,0.));
#1433=DIRECTION('ref_axis',(1.,0.,0.));
#1434=DIRECTION('center_axis',(0.,1.,0.));
#1435=DIRECTION('ref_axis',(1.,0.,0.));
#1436=DIRECTION('center_axis',(0.,-1.,0.));
#1437=DIRECTION('ref_axis',(1.,0.,0.));
#1438=DIRECTION('center_axis',(0.,1.,0.));
#1439=DIRECTION('ref_axis',(0.,0.,1.));
#1440=DIRECTION('center_axis',(0.,0.,1.));
#1441=DIRECTION('ref_axis',(0.,-1.,0.));
#1442=DIRECTION('center_axis',(0.,-1.,0.));
#1443=DIRECTION('ref_axis',(-0.707106781186548,0.,-0.707106781186547));
#1444=DIRECTION('center_axis',(0.,1.,0.));
#1445=DIRECTION('ref_axis',(-0.707106781186548,0.,-0.707106781186547));
#1446=DIRECTION('center_axis',(0.,0.,1.));
#1447=DIRECTION('ref_axis',(0.707106781186549,-0.707106781186546,0.));
#1448=DIRECTION('center_axis',(0.,0.,1.));
#1449=DIRECTION('ref_axis',(0.707106781186549,-0.707106781186546,0.));
#1450=DIRECTION('',(0.,0.,-1.));
#1451=DIRECTION('',(0.,0.,1.));
#1452=DIRECTION('center_axis',(0.,1.,0.));
#1453=DIRECTION('ref_axis',(-1.,0.,0.));
#1454=DIRECTION('',(1.,0.,0.));
#1455=DIRECTION('center_axis',(0.,-1.,0.));
#1456=DIRECTION('ref_axis',(-0.707106781186548,0.,-0.707106781186547));
#1457=DIRECTION('',(0.,0.,1.));
#1458=DIRECTION('',(-1.,0.,0.));
#1459=DIRECTION('center_axis',(0.,1.,0.));
#1460=DIRECTION('ref_axis',(-1.,0.,0.));
#1461=DIRECTION('center_axis',(0.,1.,0.));
#1462=DIRECTION('ref_axis',(-1.,0.,0.));
#1463=DIRECTION('center_axis',(0.,0.,1.));
#1464=DIRECTION('ref_axis',(-0.707106781186547,-0.707106781186548,0.));
#1465=DIRECTION('center_axis',(0.,0.,-1.));
#1466=DIRECTION('ref_axis',(0.,-1.,0.));
#1467=DIRECTION('',(0.,0.,1.));
#1468=DIRECTION('center_axis',(0.,0.,1.));
#1469=DIRECTION('ref_axis',(-0.707106781186547,-0.707106781186548,0.));
#1470=DIRECTION('',(0.,0.,-1.));
#1471=DIRECTION('center_axis',(0.,1.,0.));
#1472=DIRECTION('ref_axis',(0.,0.,1.));
#1473=DIRECTION('center_axis',(0.,-1.,0.));
#1474=DIRECTION('ref_axis',(0.707106781186548,0.,-0.707106781186547));
#1475=DIRECTION('center_axis',(0.,1.,0.));
#1476=DIRECTION('ref_axis',(0.707106781186548,0.,-0.707106781186547));
#1477=DIRECTION('center_axis',(0.,1.,0.));
#1478=DIRECTION('ref_axis',(-1.,0.,0.));
#1479=DIRECTION('',(-1.,0.,0.));
#1480=DIRECTION('',(0.,0.,1.));
#1481=DIRECTION('center_axis',(0.,-1.,0.));
#1482=DIRECTION('ref_axis',(0.707106781186548,0.,-0.707106781186547));
#1483=DIRECTION('',(-1.,0.,0.));
#1484=DIRECTION('center_axis',(0.,1.,0.));
#1485=DIRECTION('ref_axis',(-1.,0.,0.));
#1486=DIRECTION('center_axis',(0.,1.,0.));
#1487=DIRECTION('ref_axis',(-1.,0.,0.));
#1488=DIRECTION('center_axis',(0.,1.,0.));
#1489=DIRECTION('ref_axis',(-1.,0.,0.));
#1490=DIRECTION('',(-0.707106781186548,-0.707106781186547,8.65956056235494E-17));
#1491=DIRECTION('center_axis',(0.,1.,0.));
#1492=DIRECTION('ref_axis',(-1.,0.,0.));
#1493=DIRECTION('center_axis',(0.,1.,0.));
#1494=DIRECTION('ref_axis',(-1.,0.,0.));
#1495=DIRECTION('',(-0.707106781186548,-0.707106781186547,8.65956056235494E-17));
#1496=DIRECTION('center_axis',(0.,1.,0.));
#1497=DIRECTION('ref_axis',(-1.,0.,0.));
#1498=DIRECTION('center_axis',(0.,1.,0.));
#1499=DIRECTION('ref_axis',(-1.,0.,0.));
#1500=DIRECTION('',(-0.707106781186548,-0.707106781186547,8.65956056235494E-17));
#1501=DIRECTION('center_axis',(0.,1.,0.));
#1502=DIRECTION('ref_axis',(-1.,0.,0.));
#1503=DIRECTION('center_axis',(0.,1.,0.));
#1504=DIRECTION('ref_axis',(-1.,0.,0.));
#1505=DIRECTION('',(-0.707106781186548,-0.707106781186547,8.65956056235494E-17));
#1506=DIRECTION('center_axis',(0.,1.,0.));
#1507=DIRECTION('ref_axis',(-1.,0.,0.));
#1508=DIRECTION('center_axis',(0.,1.,0.));
#1509=DIRECTION('ref_axis',(-0.707106781186548,0.,-0.707106781186547));
#1510=DIRECTION('',(0.,-1.,0.));
#1511=DIRECTION('center_axis',(0.,1.,0.));
#1512=DIRECTION('ref_axis',(-0.707106781186548,0.,-0.707106781186547));
#1513=DIRECTION('',(0.,1.,0.));
#1514=DIRECTION('center_axis',(0.,-1.,0.));
#1515=DIRECTION('ref_axis',(1.,0.,0.));
#1516=DIRECTION('',(1.,0.,0.));
#1517=DIRECTION('center_axis',(0.,1.,0.));
#1518=DIRECTION('ref_axis',(0.707106781186548,0.,-0.707106781186547));
#1519=DIRECTION('',(0.,0.,1.));
#1520=DIRECTION('',(1.,0.,0.));
#1521=DIRECTION('',(0.,0.,1.));
#1522=DIRECTION('center_axis',(0.,0.,1.));
#1523=DIRECTION('ref_axis',(1.,0.,0.));
#1524=DIRECTION('',(0.,-1.,0.));
#1525=DIRECTION('center_axis',(0.,0.,1.));
#1526=DIRECTION('ref_axis',(6.12323399573677E-17,1.,0.));
#1527=DIRECTION('',(-1.85037170770859E-16,1.,0.));
#1528=DIRECTION('',(0.,1.,0.));
#1529=DIRECTION('center_axis',(0.,1.,0.));
#1530=DIRECTION('ref_axis',(0.707106781186548,0.,-0.707106781186547));
#1531=DIRECTION('',(0.,-1.,0.));
#1532=DIRECTION('center_axis',(1.85037170770859E-16,-1.,0.));
#1533=DIRECTION('ref_axis',(0.707106781186546,0.,-0.707106781186549));
#1534=DIRECTION('center_axis',(0.,-1.,0.));
#1535=DIRECTION('ref_axis',(0.,0.,-1.));
#1536=DIRECTION('',(1.85037170770859E-16,-1.,0.));
#1537=DIRECTION('center_axis',(0.,0.,1.));
#1538=DIRECTION('ref_axis',(1.,0.,0.));
#1539=DIRECTION('center_axis',(0.,1.,0.));
#1540=DIRECTION('ref_axis',(0.,0.,-1.));
#1541=DIRECTION('center_axis',(0.,0.,-1.));
#1542=DIRECTION('ref_axis',(6.12323399573677E-17,1.,0.));
#1543=DIRECTION('center_axis',(0.,-1.,0.));
#1544=DIRECTION('ref_axis',(-0.707106781186548,0.,-0.707106781186547));
#1545=DIRECTION('',(0.,1.,0.));
#1546=DIRECTION('center_axis',(0.,0.,-1.));
#1547=DIRECTION('ref_axis',(-1.,0.,0.));
#1548=DIRECTION('center_axis',(0.,0.,-1.));
#1549=DIRECTION('ref_axis',(-1.,0.,0.));
#1550=DIRECTION('',(0.,0.,-1.));
#1551=DIRECTION('center_axis',(0.,0.,-1.));
#1552=DIRECTION('ref_axis',(-1.,0.,0.));
#1553=DIRECTION('center_axis',(0.,0.,1.));
#1554=DIRECTION('ref_axis',(-1.,0.,0.));
#1555=DIRECTION('center_axis',(0.,0.,-1.));
#1556=DIRECTION('ref_axis',(-1.,0.,0.));
#1557=DIRECTION('center_axis',(0.,0.,-1.));
#1558=DIRECTION('ref_axis',(-1.,0.,0.));
#1559=DIRECTION('',(0.,0.,-1.));
#1560=DIRECTION('center_axis',(0.,0.,-1.));
#1561=DIRECTION('ref_axis',(-1.,0.,0.));
#1562=DIRECTION('center_axis',(0.,0.,1.));
#1563=DIRECTION('ref_axis',(-1.,0.,0.));
#1564=DIRECTION('center_axis',(0.,0.,-1.));
#1565=DIRECTION('ref_axis',(-1.,0.,0.));
#1566=DIRECTION('center_axis',(0.,0.,-1.));
#1567=DIRECTION('ref_axis',(-1.,0.,0.));
#1568=DIRECTION('',(0.,0.,-1.));
#1569=DIRECTION('center_axis',(0.,0.,-1.));
#1570=DIRECTION('ref_axis',(-1.,0.,0.));
#1571=DIRECTION('center_axis',(0.,0.,1.));
#1572=DIRECTION('ref_axis',(-1.,0.,0.));
#1573=DIRECTION('center_axis',(0.,0.,-1.));
#1574=DIRECTION('ref_axis',(-1.,0.,0.));
#1575=DIRECTION('center_axis',(0.,0.,-1.));
#1576=DIRECTION('ref_axis',(-1.,0.,0.));
#1577=DIRECTION('',(0.,0.,-1.));
#1578=DIRECTION('center_axis',(0.,0.,-1.));
#1579=DIRECTION('ref_axis',(-1.,0.,0.));
#1580=DIRECTION('center_axis',(0.,0.,1.));
#1581=DIRECTION('ref_axis',(-1.,0.,0.));
#1582=DIRECTION('center_axis',(0.,0.,-1.));
#1583=DIRECTION('ref_axis',(-1.,0.,0.));
#1584=DIRECTION('center_axis',(0.,0.,-1.));
#1585=DIRECTION('ref_axis',(-1.,0.,0.));
#1586=DIRECTION('',(0.,0.,-1.));
#1587=DIRECTION('center_axis',(0.,0.,-1.));
#1588=DIRECTION('ref_axis',(-1.,0.,0.));
#1589=DIRECTION('center_axis',(0.,0.,1.));
#1590=DIRECTION('ref_axis',(-1.,0.,0.));
#1591=DIRECTION('center_axis',(0.,0.,-1.));
#1592=DIRECTION('ref_axis',(-0.125000001862645,0.99215674141455,0.));
#1593=DIRECTION('center_axis',(0.,0.,-1.));
#1594=DIRECTION('ref_axis',(-0.125000001862645,0.99215674141455,0.));
#1595=DIRECTION('',(0.,0.,-1.));
#1596=DIRECTION('center_axis',(0.,0.,-1.));
#1597=DIRECTION('ref_axis',(-0.125000001862645,0.99215674141455,0.));
#1598=DIRECTION('',(0.,0.,-1.));
#1599=DIRECTION('center_axis',(-1.,0.,0.));
#1600=DIRECTION('ref_axis',(0.,1.,0.));
#1601=DIRECTION('',(0.,1.,0.));
#1602=DIRECTION('',(0.,0.,-1.));
#1603=DIRECTION('',(0.,1.,0.));
#1604=DIRECTION('center_axis',(0.,-1.,0.));
#1605=DIRECTION('ref_axis',(-1.,0.,0.));
#1606=DIRECTION('',(-1.,0.,0.));
#1607=DIRECTION('',(0.,0.,-1.));
#1608=DIRECTION('',(-1.,0.,0.));
#1609=DIRECTION('center_axis',(0.,0.,-1.));
#1610=DIRECTION('ref_axis',(0.999999972692814,-0.000233697180471411,0.));
#1611=DIRECTION('center_axis',(0.,0.,1.));
#1612=DIRECTION('ref_axis',(-0.000467493689364495,-0.999999890724819,0.));
#1613=DIRECTION('',(0.,0.,-1.));
#1614=DIRECTION('center_axis',(0.,0.,1.));
#1615=DIRECTION('ref_axis',(-0.000467493689364495,-0.999999890724819,0.));
#1616=DIRECTION('center_axis',(0.,1.,0.));
#1617=DIRECTION('ref_axis',(1.,0.,0.));
#1618=DIRECTION('',(1.,0.,0.));
#1619=DIRECTION('',(0.,0.,-1.));
#1620=DIRECTION('',(1.,0.,0.));
#1621=DIRECTION('center_axis',(-0.999999999999999,3.97364293568279E-8,0.));
#1622=DIRECTION('ref_axis',(3.97364293568279E-8,0.999999999999999,0.));
#1623=DIRECTION('',(3.97364293568279E-8,0.999999999999999,0.));
#1624=DIRECTION('',(0.,0.,-1.));
#1625=DIRECTION('',(3.97364293568279E-8,0.999999999999999,0.));
#1626=DIRECTION('center_axis',(0.,-1.,0.));
#1627=DIRECTION('ref_axis',(-1.,0.,0.));
#1628=DIRECTION('',(-1.,0.,0.));
#1629=DIRECTION('',(0.,0.,-1.));
#1630=DIRECTION('',(-1.,0.,0.));
#1631=DIRECTION('center_axis',(0.,0.,-1.));
#1632=DIRECTION('ref_axis',(1.,3.40896778600554E-10,0.));
#1633=DIRECTION('center_axis',(0.,0.,1.));
#1634=DIRECTION('ref_axis',(-9.93410780796777E-8,-0.999999999999995,0.));
#1635=DIRECTION('',(0.,0.,-1.));
#1636=DIRECTION('center_axis',(0.,0.,1.));
#1637=DIRECTION('ref_axis',(-9.93410780796777E-8,-0.999999999999995,0.));
#1638=DIRECTION('center_axis',(0.,1.,0.));
#1639=DIRECTION('ref_axis',(1.,0.,0.));
#1640=DIRECTION('',(1.,0.,0.));
#1641=DIRECTION('',(0.,0.,-1.));
#1642=DIRECTION('',(1.,0.,0.));
#1643=DIRECTION('center_axis',(-1.,0.,0.));
#1644=DIRECTION('ref_axis',(0.,1.,0.));
#1645=DIRECTION('',(0.,1.,0.));
#1646=DIRECTION('',(0.,0.,-1.));
#1647=DIRECTION('',(0.,1.,0.));
#1648=DIRECTION('center_axis',(0.,-1.,0.));
#1649=DIRECTION('ref_axis',(-1.,0.,0.));
#1650=DIRECTION('',(-1.,0.,0.));
#1651=DIRECTION('',(0.,0.,-1.));
#1652=DIRECTION('',(-1.,0.,0.));
#1653=DIRECTION('center_axis',(1.,0.,0.));
#1654=DIRECTION('ref_axis',(0.,-1.,0.));
#1655=DIRECTION('',(0.,-1.,0.));
#1656=DIRECTION('',(0.,0.,-1.));
#1657=DIRECTION('',(0.,-1.,0.));
#1658=DIRECTION('center_axis',(0.,1.,0.));
#1659=DIRECTION('ref_axis',(1.,0.,0.));
#1660=DIRECTION('',(1.,0.,0.));
#1661=DIRECTION('',(0.,0.,-1.));
#1662=DIRECTION('',(1.,0.,0.));
#1663=DIRECTION('center_axis',(0.,0.,-1.));
#1664=DIRECTION('ref_axis',(-1.,-3.40906647249064E-10,0.));
#1665=DIRECTION('center_axis',(0.,0.,1.));
#1666=DIRECTION('ref_axis',(9.93410682110292E-8,0.999999999999995,0.));
#1667=DIRECTION('',(0.,0.,-1.));
#1668=DIRECTION('center_axis',(0.,0.,1.));
#1669=DIRECTION('ref_axis',(9.93410682110292E-8,0.999999999999995,0.));
#1670=DIRECTION('center_axis',(0.,-1.,0.));
#1671=DIRECTION('ref_axis',(-1.,0.,0.));
#1672=DIRECTION('',(-1.,0.,0.));
#1673=DIRECTION('',(0.,0.,-1.));
#1674=DIRECTION('',(-1.,0.,0.));
#1675=DIRECTION('center_axis',(1.,0.,0.));
#1676=DIRECTION('ref_axis',(0.,-1.,0.));
#1677=DIRECTION('',(0.,-1.,0.));
#1678=DIRECTION('',(0.,0.,-1.));
#1679=DIRECTION('',(0.,-1.,0.));
#1680=DIRECTION('center_axis',(0.,1.,0.));
#1681=DIRECTION('ref_axis',(1.,0.,0.));
#1682=DIRECTION('',(1.,0.,0.));
#1683=DIRECTION('',(0.,0.,-1.));
#1684=DIRECTION('',(1.,0.,0.));
#1685=DIRECTION('center_axis',(0.,0.,-1.));
#1686=DIRECTION('ref_axis',(-0.999999972692813,-0.000233697180606353,0.));
#1687=DIRECTION('center_axis',(0.,0.,1.));
#1688=DIRECTION('ref_axis',(9.93410608095439E-8,0.999999999999995,0.));
#1689=DIRECTION('',(0.,0.,-1.));
#1690=DIRECTION('center_axis',(0.,0.,1.));
#1691=DIRECTION('ref_axis',(9.93410608095439E-8,0.999999999999995,0.));
#1692=DIRECTION('center_axis',(0.,-1.,0.));
#1693=DIRECTION('ref_axis',(-1.,0.,0.));
#1694=DIRECTION('',(-1.,0.,0.));
#1695=DIRECTION('',(0.,0.,-1.));
#1696=DIRECTION('',(-1.,0.,0.));
#1697=DIRECTION('center_axis',(1.,0.,0.));
#1698=DIRECTION('ref_axis',(0.,-1.,0.));
#1699=DIRECTION('',(0.,-1.,0.));
#1700=DIRECTION('',(0.,0.,-1.));
#1701=DIRECTION('',(0.,-1.,0.));
#1702=DIRECTION('center_axis',(0.,0.,-1.));
#1703=DIRECTION('ref_axis',(1.,3.15132653305739E-8,0.));
#1704=DIRECTION('center_axis',(0.,0.,-1.));
#1705=DIRECTION('ref_axis',(1.,3.15132653305739E-8,0.));
#1706=DIRECTION('',(0.,0.,-1.));
#1707=DIRECTION('center_axis',(0.,0.,-1.));
#1708=DIRECTION('ref_axis',(1.,3.15132653305739E-8,0.));
#1709=DIRECTION('center_axis',(-1.,2.91262515458862E-16,0.));
#1710=DIRECTION('ref_axis',(2.91262515458862E-16,1.,0.));
#1711=DIRECTION('',(2.91262515458862E-16,1.,0.));
#1712=DIRECTION('',(0.,0.,-1.));
#1713=DIRECTION('',(2.91262515458862E-16,1.,0.));
#1714=DIRECTION('center_axis',(0.,0.,-1.));
#1715=DIRECTION('ref_axis',(9.75590335985064E-11,-1.,0.));
#1716=DIRECTION('center_axis',(0.,0.,1.));
#1717=DIRECTION('ref_axis',(-0.999999999999939,3.47693756008717E-7,0.));
#1718=DIRECTION('',(0.,0.,-1.));
#1719=DIRECTION('center_axis',(0.,0.,1.));
#1720=DIRECTION('ref_axis',(-0.999999999999939,3.47693756008717E-7,0.));
#1721=DIRECTION('center_axis',(1.,-1.45631257729431E-16,0.));
#1722=DIRECTION('ref_axis',(-1.45631257729431E-16,-1.,0.));
#1723=DIRECTION('',(-1.45631257729431E-16,-1.,0.));
#1724=DIRECTION('',(-1.45631257729431E-16,-1.,0.));
#1725=DIRECTION('center_axis',(0.,0.,1.));
#1726=DIRECTION('ref_axis',(-1.,0.,0.));
#1727=DIRECTION('center_axis',(-1.,0.,0.));
#1728=DIRECTION('ref_axis',(0.,-1.,0.));
#1729=DIRECTION('',(0.,-1.,0.));
#1730=DIRECTION('',(0.,0.,1.));
#1731=DIRECTION('center_axis',(0.,0.,1.));
#1732=DIRECTION('ref_axis',(1.,0.,0.));
#1733=DIRECTION('center_axis',(0.,0.,1.));
#1734=DIRECTION('ref_axis',(1.,0.,0.));
#1735=DIRECTION('',(0.,0.,1.));
#1736=DIRECTION('center_axis',(1.,1.85037170770859E-16,0.));
#1737=DIRECTION('ref_axis',(-1.85037170770859E-16,1.,0.));
#1738=DIRECTION('',(-1.85037170770859E-16,1.,0.));
#1739=DIRECTION('center_axis',(1.,0.,0.));
#1740=DIRECTION('ref_axis',(0.,1.,0.));
#1741=DIRECTION('',(0.,1.,0.));
#1742=DIRECTION('center_axis',(-1.,0.,0.));
#1743=DIRECTION('ref_axis',(0.,-1.,0.));
#1744=DIRECTION('',(0.,-1.,0.));
#1745=DIRECTION('center_axis',(0.,0.,1.));
#1746=DIRECTION('ref_axis',(1.,0.,0.));
#1747=CARTESIAN_POINT('',(0.,0.,0.));
#1748=CARTESIAN_POINT('Origin',(0.,0.,25.));
#1749=CARTESIAN_POINT('',(-15.,0.,25.));
#1750=CARTESIAN_POINT('Origin',(0.,0.,25.));
#1751=CARTESIAN_POINT('',(-15.,2.,25.));
#1752=CARTESIAN_POINT('',(-15.,0.,25.));
#1753=CARTESIAN_POINT('Origin',(0.,2.,25.));
#1754=CARTESIAN_POINT('Origin',(16.,0.,20.));
#1755=CARTESIAN_POINT('',(16.,0.,20.));
#1756=CARTESIAN_POINT('',(16.,0.,30.));
#1757=CARTESIAN_POINT('',(16.,0.,10.));
#1758=CARTESIAN_POINT('',(16.,2.,20.));
#1759=CARTESIAN_POINT('',(16.,0.,20.));
#1760=CARTESIAN_POINT('',(16.,2.,30.));
#1761=CARTESIAN_POINT('',(16.,2.,31.5));
#1762=CARTESIAN_POINT('',(16.,0.,30.));
#1763=CARTESIAN_POINT('Origin',(18.5,0.,20.));
#1764=CARTESIAN_POINT('',(21.,0.,20.));
#1765=CARTESIAN_POINT('Origin',(18.5,0.,20.));
#1766=CARTESIAN_POINT('',(21.,2.,20.));
#1767=CARTESIAN_POINT('',(21.,0.,20.));
#1768=CARTESIAN_POINT('Origin',(18.5,2.,20.));
#1769=CARTESIAN_POINT('Origin',(21.,0.,30.));
#1770=CARTESIAN_POINT('',(21.,0.,30.));
#1771=CARTESIAN_POINT('',(21.,0.,15.));
#1772=CARTESIAN_POINT('',(21.,2.,30.));
#1773=CARTESIAN_POINT('',(21.,0.,30.));
#1774=CARTESIAN_POINT('',(21.,2.,36.5));
#1775=CARTESIAN_POINT('Origin',(18.5,0.,30.));
#1776=CARTESIAN_POINT('Origin',(18.5,0.,30.));
#1777=CARTESIAN_POINT('Origin',(18.5,2.,30.));
#1778=CARTESIAN_POINT('Origin',(-21.0000000745058,0.,20.));
#1779=CARTESIAN_POINT('',(-21.0000000745058,0.,20.));
#1780=CARTESIAN_POINT('',(-21.0000000745058,0.,30.));
#1781=CARTESIAN_POINT('',(-21.0000000745058,0.,10.));
#1782=CARTESIAN_POINT('',(-21.0000000745058,2.,20.));
#1783=CARTESIAN_POINT('',(-21.0000000745058,0.,20.));
#1784=CARTESIAN_POINT('',(-21.0000000745058,2.,30.));
#1785=CARTESIAN_POINT('',(-21.0000000745058,2.,31.5));
#1786=CARTESIAN_POINT('',(-21.0000000745058,0.,30.));
#1787=CARTESIAN_POINT('Origin',(-18.5000000372529,0.,20.));
#1788=CARTESIAN_POINT('',(-16.,0.,20.));
#1789=CARTESIAN_POINT('Origin',(-18.5000000372529,0.,20.));
#1790=CARTESIAN_POINT('',(-16.,2.,20.));
#1791=CARTESIAN_POINT('',(-16.,0.,20.));
#1792=CARTESIAN_POINT('Origin',(-18.5000000372529,2.,20.));
#1793=CARTESIAN_POINT('Origin',(-16.,0.,30.));
#1794=CARTESIAN_POINT('',(-16.,0.,30.));
#1795=CARTESIAN_POINT('',(-16.,0.,15.));
#1796=CARTESIAN_POINT('',(-16.,2.,30.));
#1797=CARTESIAN_POINT('',(-16.,0.,30.));
#1798=CARTESIAN_POINT('',(-16.,2.,36.5));
#1799=CARTESIAN_POINT('Origin',(-18.5000000372529,0.,30.));
#1800=CARTESIAN_POINT('Origin',(-18.5000000372529,0.,30.));
#1801=CARTESIAN_POINT('Origin',(-18.5000000372529,2.,30.));
#1802=CARTESIAN_POINT('Origin',(-23.,3.4,2.));
#1803=CARTESIAN_POINT('',(-26.4,2.,2.));
#1804=CARTESIAN_POINT('',(-25.,3.4,2.));
#1805=CARTESIAN_POINT('Origin',(-26.4,3.4,2.));
#1806=CARTESIAN_POINT('',(-23.,3.4,0.));
#1807=CARTESIAN_POINT('Origin',(-23.,3.4,2.));
#1808=CARTESIAN_POINT('',(-25.7495454169735,2.,0.));
#1809=CARTESIAN_POINT('Ctrl Pts',(-23.,3.4,0.));
#1810=CARTESIAN_POINT('Ctrl Pts',(-23.4667313317568,3.00950455158809,0.));
#1811=CARTESIAN_POINT('Ctrl Pts',(-24.0325578254286,2.54786818376878,0.));
#1812=CARTESIAN_POINT('Ctrl Pts',(-24.9272788444179,2.12393982655158,0.));
#1813=CARTESIAN_POINT('Ctrl Pts',(-25.368017434822,2.,0.));
#1814=CARTESIAN_POINT('Ctrl Pts',(-25.7495454169735,2.,0.));
#1815=CARTESIAN_POINT('Origin',(-23.,2.,2.));
#1816=CARTESIAN_POINT('Origin',(-26.4,3.39999999999999,0.));
#1817=CARTESIAN_POINT('',(-26.4,2.,43.));
#1818=CARTESIAN_POINT('',(-25.,3.4,43.));
#1819=CARTESIAN_POINT('Origin',(-26.4,3.39999999999999,43.));
#1820=CARTESIAN_POINT('',(-25.,3.39999999999999,0.));
#1821=CARTESIAN_POINT('',(-26.4,2.,0.));
#1822=CARTESIAN_POINT('Origin',(-25.,2.,0.));
#1823=CARTESIAN_POINT('',(-33.,2.,0.));
#1824=CARTESIAN_POINT('',(-35.,2.,0.));
#1825=CARTESIAN_POINT('',(-35.,2.,2.));
#1826=CARTESIAN_POINT('Origin',(-33.,2.,2.));
#1827=CARTESIAN_POINT('',(-35.,2.,43.));
#1828=CARTESIAN_POINT('',(-35.,2.,0.));
#1829=CARTESIAN_POINT('',(-35.,2.,43.));
#1830=CARTESIAN_POINT('',(-26.5,2.,15.));
#1831=CARTESIAN_POINT('Origin',(-30.,2.,15.));
#1832=CARTESIAN_POINT('',(-26.5,2.,35.));
#1833=CARTESIAN_POINT('Origin',(-30.,2.,35.));
#1834=CARTESIAN_POINT('Origin',(26.4,3.4,0.));
#1835=CARTESIAN_POINT('',(26.4,2.,2.));
#1836=CARTESIAN_POINT('',(25.,3.4,2.));
#1837=CARTESIAN_POINT('Origin',(26.4,3.4,2.));
#1838=CARTESIAN_POINT('',(25.,3.4,43.));
#1839=CARTESIAN_POINT('',(25.,3.4,0.));
#1840=CARTESIAN_POINT('',(26.4,2.,43.));
#1841=CARTESIAN_POINT('Origin',(26.4,3.4,43.));
#1842=CARTESIAN_POINT('',(26.4,2.,0.));
#1843=CARTESIAN_POINT('Origin',(23.,3.4,2.));
#1844=CARTESIAN_POINT('',(25.7495454169735,2.,0.));
#1845=CARTESIAN_POINT('',(23.,3.4,0.));
#1846=CARTESIAN_POINT('Ctrl Pts',(25.7495454169735,2.,0.));
#1847=CARTESIAN_POINT('Ctrl Pts',(25.368017434822,2.,-4.87009139855508E-19));
#1848=CARTESIAN_POINT('Ctrl Pts',(24.9272788444179,2.12393982655158,0.));
#1849=CARTESIAN_POINT('Ctrl Pts',(24.0325578254286,2.54786818376878,0.));
#1850=CARTESIAN_POINT('Ctrl Pts',(23.4667313317568,3.00950455158809,0.));
#1851=CARTESIAN_POINT('Ctrl Pts',(23.,3.4,0.));
#1852=CARTESIAN_POINT('Origin',(23.,3.4,2.));
#1853=CARTESIAN_POINT('Origin',(23.,2.,2.));
#1854=CARTESIAN_POINT('Origin',(35.,2.,0.));
#1855=CARTESIAN_POINT('',(35.,2.,43.));
#1856=CARTESIAN_POINT('',(35.,2.,43.));
#1857=CARTESIAN_POINT('',(35.,2.,2.));
#1858=CARTESIAN_POINT('',(35.,2.,0.));
#1859=CARTESIAN_POINT('',(33.,2.,0.));
#1860=CARTESIAN_POINT('Origin',(33.,2.,2.));
#1861=CARTESIAN_POINT('',(35.,2.,0.));
#1862=CARTESIAN_POINT('',(33.5,2.,35.));
#1863=CARTESIAN_POINT('Origin',(30.,2.,35.));
#1864=CARTESIAN_POINT('',(33.5,2.,15.));
#1865=CARTESIAN_POINT('Origin',(30.,2.,15.));
#1866=CARTESIAN_POINT('Origin',(-30.,0.999999999999996,15.));
#1867=CARTESIAN_POINT('',(-28.5,-4.44089209850063E-15,15.));
#1868=CARTESIAN_POINT('',(-27.5,0.999999999999996,15.));
#1869=CARTESIAN_POINT('Origin',(-30.,0.,15.));
#1870=CARTESIAN_POINT('Origin',(-30.,0.999999999999996,35.));
#1871=CARTESIAN_POINT('',(-28.5,-4.44089209850063E-15,35.));
#1872=CARTESIAN_POINT('',(-27.5,0.999999999999996,35.));
#1873=CARTESIAN_POINT('Origin',(-30.,0.,35.));
#1874=CARTESIAN_POINT('Origin',(30.,1.,35.));
#1875=CARTESIAN_POINT('',(31.5,-4.44089209850063E-15,35.));
#1876=CARTESIAN_POINT('',(32.5,1.,35.));
#1877=CARTESIAN_POINT('Origin',(30.,0.,35.));
#1878=CARTESIAN_POINT('Origin',(30.,1.,15.));
#1879=CARTESIAN_POINT('',(31.5,-4.44089209850063E-15,15.));
#1880=CARTESIAN_POINT('',(32.5,1.,15.));
#1881=CARTESIAN_POINT('Origin',(30.,0.,15.));
#1882=CARTESIAN_POINT('Origin',(-33.,19.75,2.));
#1883=CARTESIAN_POINT('',(-33.,0.,0.));
#1884=CARTESIAN_POINT('',(-33.,19.75,0.));
#1885=CARTESIAN_POINT('',(-35.,0.,2.));
#1886=CARTESIAN_POINT('Origin',(-33.,0.,2.));
#1887=CARTESIAN_POINT('',(-35.,19.75,2.));
#1888=CARTESIAN_POINT('Origin',(-35.,0.,0.));
#1889=CARTESIAN_POINT('',(33.,0.,0.));
#1890=CARTESIAN_POINT('',(-35.,0.,0.));
#1891=CARTESIAN_POINT('',(35.,0.,2.));
#1892=CARTESIAN_POINT('Origin',(33.,0.,2.));
#1893=CARTESIAN_POINT('',(35.,0.,43.));
#1894=CARTESIAN_POINT('',(35.,0.,0.));
#1895=CARTESIAN_POINT('',(-35.,0.,43.));
#1896=CARTESIAN_POINT('',(-35.,0.,43.));
#1897=CARTESIAN_POINT('',(-35.,0.,0.));
#1898=CARTESIAN_POINT('Origin',(0.,37.5,0.));
#1899=CARTESIAN_POINT('',(-23.,50.,0.));
#1900=CARTESIAN_POINT('',(-23.,43.75,0.));
#1901=CARTESIAN_POINT('',(23.,50.,0.));
#1902=CARTESIAN_POINT('Origin',(0.,50.,0.));
#1903=CARTESIAN_POINT('',(23.,19.75,0.));
#1904=CARTESIAN_POINT('',(33.,18.75,0.));
#1905=CARTESIAN_POINT('Origin',(33.,18.75,2.));
#1906=CARTESIAN_POINT('',(35.,18.75,2.));
#1907=CARTESIAN_POINT('Origin',(23.,19.75,2.));
#1908=CARTESIAN_POINT('',(25.,50.,2.));
#1909=CARTESIAN_POINT('Origin',(23.,50.,2.));
#1910=CARTESIAN_POINT('',(25.,19.75,2.));
#1911=CARTESIAN_POINT('Origin',(0.,50.,2.));
#1912=CARTESIAN_POINT('',(-25.,50.,2.));
#1913=CARTESIAN_POINT('Origin',(-23.,50.,2.));
#1914=CARTESIAN_POINT('Origin',(0.,50.,2.));
#1915=CARTESIAN_POINT('Origin',(-23.,43.75,2.));
#1916=CARTESIAN_POINT('',(-25.,43.75,2.));
#1917=CARTESIAN_POINT('Origin',(20.,25.,43.));
#1918=CARTESIAN_POINT('',(21.45,25.,43.));
#1919=CARTESIAN_POINT('Origin',(20.,25.,43.));
#1920=CARTESIAN_POINT('',(21.45,25.,38.));
#1921=CARTESIAN_POINT('',(21.45,25.,43.));
#1922=CARTESIAN_POINT('Origin',(20.,25.,38.));
#1923=CARTESIAN_POINT('Origin',(20.,25.,38.));
#1924=CARTESIAN_POINT('Origin',(-20.,10.,43.));
#1925=CARTESIAN_POINT('',(-18.55,10.,43.));
#1926=CARTESIAN_POINT('Origin',(-20.,10.,43.));
#1927=CARTESIAN_POINT('',(-18.55,10.,38.));
#1928=CARTESIAN_POINT('',(-18.55,10.,43.));
#1929=CARTESIAN_POINT('Origin',(-20.,10.,38.));
#1930=CARTESIAN_POINT('Origin',(-20.,10.,38.));
#1931=CARTESIAN_POINT('Origin',(20.,10.,43.));
#1932=CARTESIAN_POINT('',(21.45,10.,43.));
#1933=CARTESIAN_POINT('Origin',(20.,10.,43.));
#1934=CARTESIAN_POINT('',(21.45,10.,38.));
#1935=CARTESIAN_POINT('',(21.45,10.,43.));
#1936=CARTESIAN_POINT('Origin',(20.,10.,38.));
#1937=CARTESIAN_POINT('Origin',(20.,10.,38.));
#1938=CARTESIAN_POINT('Origin',(-20.,25.,43.));
#1939=CARTESIAN_POINT('',(-18.55,25.,43.));
#1940=CARTESIAN_POINT('Origin',(-20.,25.,43.));
#1941=CARTESIAN_POINT('',(-18.55,25.,38.));
#1942=CARTESIAN_POINT('',(-18.55,25.,43.));
#1943=CARTESIAN_POINT('Origin',(-20.,25.,38.));
#1944=CARTESIAN_POINT('Origin',(-20.,25.,38.));
#1945=CARTESIAN_POINT('Origin',(0.,70.,43.));
#1946=CARTESIAN_POINT('',(1.45,70.,43.));
#1947=CARTESIAN_POINT('Origin',(0.,70.,43.));
#1948=CARTESIAN_POINT('',(1.45,70.,38.));
#1949=CARTESIAN_POINT('',(1.45,70.,43.));
#1950=CARTESIAN_POINT('Origin',(0.,70.,38.));
#1951=CARTESIAN_POINT('Origin',(0.,70.,38.));
#1952=CARTESIAN_POINT('Origin',(0.,50.,43.));
#1953=CARTESIAN_POINT('',(-24.,50.0000007650231,43.));
#1954=CARTESIAN_POINT('',(-3.00000004470348,73.8117617939492,43.));
#1955=CARTESIAN_POINT('Origin',(0.,50.,43.));
#1956=CARTESIAN_POINT('',(-24.,50.0000007650231,1.99999999999999));
#1957=CARTESIAN_POINT('',(-24.,50.0000007650231,43.));
#1958=CARTESIAN_POINT('',(-3.00000004470348,73.8117617939492,1.99999999999999));
#1959=CARTESIAN_POINT('Origin',(0.,50.,1.99999999999999));
#1960=CARTESIAN_POINT('',(-3.00000004470348,73.8117617939492,43.));
#1961=CARTESIAN_POINT('Origin',(-24.,28.0000004172325,43.));
#1962=CARTESIAN_POINT('',(-24.,28.0000004172325,43.));
#1963=CARTESIAN_POINT('',(-24.,32.7500002086163,43.));
#1964=CARTESIAN_POINT('',(-24.,28.0000004172325,1.99999999999999));
#1965=CARTESIAN_POINT('',(-24.,28.0000004172325,43.));
#1966=CARTESIAN_POINT('',(-24.,50.0000007650231,1.99999999999999));
#1967=CARTESIAN_POINT('Origin',(-20.0000002980236,28.0000004172325,43.));
#1968=CARTESIAN_POINT('',(-20.0000002980236,28.,43.));
#1969=CARTESIAN_POINT('',(-10.0000001490118,28.0000004172325,43.));
#1970=CARTESIAN_POINT('',(-20.0000002980236,28.,1.99999999999999));
#1971=CARTESIAN_POINT('',(-20.0000002980236,28.,43.));
#1972=CARTESIAN_POINT('',(-20.0000002980232,28.0000004172325,1.99999999999999));
#1973=CARTESIAN_POINT('Origin',(-20.,25.,43.));
#1974=CARTESIAN_POINT('',(-20.0014024810681,22.0000003278255,43.));
#1975=CARTESIAN_POINT('Origin',(-20.,25.,43.));
#1976=CARTESIAN_POINT('',(-20.0014024810681,22.0000003278255,1.99999999999999));
#1977=CARTESIAN_POINT('',(-20.0014024810681,22.0000003278255,43.));
#1978=CARTESIAN_POINT('Origin',(-20.,25.,1.99999999999999));
#1979=CARTESIAN_POINT('Origin',(-24.,22.0000003278255,43.));
#1980=CARTESIAN_POINT('',(-24.,22.0000003278255,43.));
#1981=CARTESIAN_POINT('',(-12.,22.0000003278255,43.));
#1982=CARTESIAN_POINT('',(-24.,22.0000003278255,1.99999999999999));
#1983=CARTESIAN_POINT('',(-24.,22.0000003278255,43.));
#1984=CARTESIAN_POINT('',(-20.0000002980232,22.0000003278255,1.99999999999999));
#1985=CARTESIAN_POINT('Origin',(-24.0000003576279,13.0000001937151,43.));
#1986=CARTESIAN_POINT('',(-24.0000003576279,13.0000001937151,43.));
#1987=CARTESIAN_POINT('',(-23.9999998708566,25.2500005736947,43.));
#1988=CARTESIAN_POINT('',(-24.0000003576279,13.0000001937151,1.99999999999999));
#1989=CARTESIAN_POINT('',(-24.0000003576279,13.0000001937151,43.));
#1990=CARTESIAN_POINT('',(-24.,22.0000003278255,1.99999999999999));
#1991=CARTESIAN_POINT('Origin',(-20.0000003000686,13.0000001937151,43.));
#1992=CARTESIAN_POINT('',(-20.0000003000686,12.9999998956919,43.));
#1993=CARTESIAN_POINT('',(-10.0000001500343,13.0000001937151,43.));
#1994=CARTESIAN_POINT('',(-20.0000003000686,12.9999998956919,1.99999999999999));
#1995=CARTESIAN_POINT('',(-20.0000003000686,12.9999998956919,43.));
#1996=CARTESIAN_POINT('',(-20.0000002980232,13.0000001937151,1.99999999999999));
#1997=CARTESIAN_POINT('Origin',(-20.,10.,43.));
#1998=CARTESIAN_POINT('',(-20.0000002980232,7.00000010430813,43.));
#1999=CARTESIAN_POINT('Origin',(-20.,10.,43.));
#2000=CARTESIAN_POINT('',(-20.0000002980232,7.00000010430813,1.99999999999999));
#2001=CARTESIAN_POINT('',(-20.0000002980232,7.00000010430813,43.));
#2002=CARTESIAN_POINT('Origin',(-20.,10.,1.99999999999999));
#2003=CARTESIAN_POINT('Origin',(-24.,7.00000010430813,43.));
#2004=CARTESIAN_POINT('',(-24.,7.00000010430813,43.));
#2005=CARTESIAN_POINT('',(-12.,7.00000010430813,43.));
#2006=CARTESIAN_POINT('',(-24.,7.00000010430813,1.99999999999999));
#2007=CARTESIAN_POINT('',(-24.,7.00000010430813,43.));
#2008=CARTESIAN_POINT('',(-20.0000002980232,7.00000010430813,1.99999999999999));
#2009=CARTESIAN_POINT('Origin',(-24.,2.,43.));
#2010=CARTESIAN_POINT('',(-24.,2.,43.));
#2011=CARTESIAN_POINT('',(-24.,19.75,43.));
#2012=CARTESIAN_POINT('',(-24.,2.,1.99999999999999));
#2013=CARTESIAN_POINT('',(-24.,2.,43.));
#2014=CARTESIAN_POINT('',(-24.,7.00000010430813,1.99999999999999));
#2015=CARTESIAN_POINT('Origin',(24.,2.,43.));
#2016=CARTESIAN_POINT('',(24.,2.,43.));
#2017=CARTESIAN_POINT('',(12.,2.,43.));
#2018=CARTESIAN_POINT('',(24.,2.,1.99999999999999));
#2019=CARTESIAN_POINT('',(24.,2.,43.));
#2020=CARTESIAN_POINT('',(-24.,2.,1.99999999999999));
#2021=CARTESIAN_POINT('Origin',(24.,7.00000010430813,43.));
#2022=CARTESIAN_POINT('',(24.,7.00000010430813,43.));
#2023=CARTESIAN_POINT('',(24.,22.2500000521541,43.));
#2024=CARTESIAN_POINT('',(24.,7.00000010430813,1.99999999999999));
#2025=CARTESIAN_POINT('',(24.,7.00000010430813,43.));
#2026=CARTESIAN_POINT('',(24.,7.00000010430813,1.99999999999999));
#2027=CARTESIAN_POINT('Origin',(20.0000003000687,7.00000010430813,43.));
#2028=CARTESIAN_POINT('',(20.0000003000687,6.99999980628491,43.));
#2029=CARTESIAN_POINT('',(10.0000001500343,7.00000010430813,43.));
#2030=CARTESIAN_POINT('',(20.0000003000687,6.99999980628491,1.99999999999999));
#2031=CARTESIAN_POINT('',(20.0000003000687,6.99999980628491,43.));
#2032=CARTESIAN_POINT('',(20.0000002980232,7.00000010430813,1.99999999999999));
#2033=CARTESIAN_POINT('Origin',(20.,10.,43.));
#2034=CARTESIAN_POINT('',(20.0000002980232,13.0000001937151,43.));
#2035=CARTESIAN_POINT('Origin',(20.,10.,43.));
#2036=CARTESIAN_POINT('',(20.0000002980232,13.0000001937151,1.99999999999999));
#2037=CARTESIAN_POINT('',(20.0000002980232,13.0000001937151,43.));
#2038=CARTESIAN_POINT('Origin',(20.,10.,1.99999999999999));
#2039=CARTESIAN_POINT('Origin',(24.,13.0000001937151,43.));
#2040=CARTESIAN_POINT('',(24.,13.0000001937151,43.));
#2041=CARTESIAN_POINT('',(12.,13.0000001937151,43.));
#2042=CARTESIAN_POINT('',(24.,13.0000001937151,1.99999999999999));
#2043=CARTESIAN_POINT('',(24.,13.0000001937151,43.));
#2044=CARTESIAN_POINT('',(20.0000002980232,13.0000001937151,1.99999999999999));
#2045=CARTESIAN_POINT('Origin',(24.,22.0000003278255,43.));
#2046=CARTESIAN_POINT('',(24.,22.0000003278255,43.));
#2047=CARTESIAN_POINT('',(24.,29.7500001639128,43.));
#2048=CARTESIAN_POINT('',(24.,22.0000003278255,1.99999999999999));
#2049=CARTESIAN_POINT('',(24.,22.0000003278255,43.));
#2050=CARTESIAN_POINT('',(24.,22.0000003278255,1.99999999999999));
#2051=CARTESIAN_POINT('Origin',(20.0014024812636,22.0000003278255,43.));
#2052=CARTESIAN_POINT('',(20.0014024812636,21.9999999105931,43.));
#2053=CARTESIAN_POINT('',(10.0007012406318,22.0000003278255,43.));
#2054=CARTESIAN_POINT('',(20.0014024812636,21.9999999105931,1.99999999999999));
#2055=CARTESIAN_POINT('',(20.0014024812636,21.9999999105931,43.));
#2056=CARTESIAN_POINT('',(20.0000002980232,22.0000003278255,1.99999999999999));
#2057=CARTESIAN_POINT('Origin',(20.,25.,43.));
#2058=CARTESIAN_POINT('',(20.0000002980232,28.0000004172325,43.));
#2059=CARTESIAN_POINT('Origin',(20.,25.,43.));
#2060=CARTESIAN_POINT('',(20.0000002980232,28.0000004172325,1.99999999999999));
#2061=CARTESIAN_POINT('',(20.0000002980232,28.0000004172325,43.));
#2062=CARTESIAN_POINT('Origin',(20.,25.,1.99999999999999));
#2063=CARTESIAN_POINT('Origin',(24.,28.0000004172325,43.));
#2064=CARTESIAN_POINT('',(24.,28.0000004172325,43.));
#2065=CARTESIAN_POINT('',(12.,28.0000004172325,43.));
#2066=CARTESIAN_POINT('',(24.,28.0000004172325,1.99999999999999));
#2067=CARTESIAN_POINT('',(24.,28.0000004172325,43.));
#2068=CARTESIAN_POINT('',(20.0000002980232,28.0000004172325,1.99999999999999));
#2069=CARTESIAN_POINT('Origin',(24.,50.0000007563184,43.));
#2070=CARTESIAN_POINT('',(24.,50.0000007563184,43.));
#2071=CARTESIAN_POINT('',(24.,43.7500003781592,43.));
#2072=CARTESIAN_POINT('',(24.,50.0000007563184,1.99999999999999));
#2073=CARTESIAN_POINT('',(24.,50.0000007563184,43.));
#2074=CARTESIAN_POINT('',(24.,50.0000007563184,1.99999999999999));
#2075=CARTESIAN_POINT('Origin',(0.,50.,43.));
#2076=CARTESIAN_POINT('',(3.00000004470349,73.8117617939492,43.));
#2077=CARTESIAN_POINT('Origin',(0.,50.,43.));
#2078=CARTESIAN_POINT('',(3.00000004470349,73.8117617939492,1.99999999999999));
#2079=CARTESIAN_POINT('',(3.00000004470349,73.8117617939492,43.));
#2080=CARTESIAN_POINT('Origin',(0.,50.,1.99999999999999));
#2081=CARTESIAN_POINT('Origin',(3.00000004470348,70.0000010436666,43.));
#2082=CARTESIAN_POINT('',(3.00000004470348,70.0000010436666,43.));
#2083=CARTESIAN_POINT('',(3.00000004470348,53.7500005218333,43.));
#2084=CARTESIAN_POINT('',(3.00000004470348,70.0000010436666,1.99999999999999));
#2085=CARTESIAN_POINT('',(3.00000004470348,70.0000010436666,43.));
#2086=CARTESIAN_POINT('',(3.00000004470348,70.0000010430813,1.99999999999999));
#2087=CARTESIAN_POINT('Origin',(0.,70.,43.));
#2088=CARTESIAN_POINT('',(-3.00000004470348,70.0000010430813,43.));
#2089=CARTESIAN_POINT('Origin',(0.,70.,43.));
#2090=CARTESIAN_POINT('',(-3.00000004470348,70.0000010430813,1.99999999999999));
#2091=CARTESIAN_POINT('',(-3.00000004470348,70.0000010430813,43.));
#2092=CARTESIAN_POINT('Origin',(0.,70.,1.99999999999999));
#2093=CARTESIAN_POINT('Origin',(-3.00000004470348,73.8117617939492,43.));
#2094=CARTESIAN_POINT('',(-3.00000004470349,55.6558808969746,43.));
#2095=CARTESIAN_POINT('',(-3.00000004470348,70.0000010430813,1.99999999999999));
#2096=CARTESIAN_POINT('Origin',(-1.78813936990707E-7,37.9058808969746,1.99999999999999));
#2097=CARTESIAN_POINT('Origin',(-25.,50.,0.));
#2098=CARTESIAN_POINT('',(-25.,50.,43.));
#2099=CARTESIAN_POINT('',(-25.,50.,43.));
#2100=CARTESIAN_POINT('',(-25.,50.,0.));
#2101=CARTESIAN_POINT('Origin',(0.,50.,0.));
#2102=CARTESIAN_POINT('',(25.,50.,43.));
#2103=CARTESIAN_POINT('Origin',(0.,50.,43.));
#2104=CARTESIAN_POINT('',(25.,50.,0.));
#2105=CARTESIAN_POINT('Origin',(25.,2.,0.));
#2106=CARTESIAN_POINT('',(25.,50.,43.));
#2107=CARTESIAN_POINT('Origin',(35.,0.,0.));
#2108=CARTESIAN_POINT('',(35.,0.,43.));
#2109=CARTESIAN_POINT('Origin',(-35.,2.,0.));
#2110=CARTESIAN_POINT('',(-35.,0.,43.));
#2111=CARTESIAN_POINT('Origin',(0.,37.5,43.));
#2112=UNCERTAINTY_MEASURE_WITH_UNIT(LENGTH_MEASURE(0.01),#2116,
'DISTANCE_ACCURACY_VALUE',
'Maximum model space distance between geometric entities at asserted c
onnectivities');
#2113=UNCERTAINTY_MEASURE_WITH_UNIT(LENGTH_MEASURE(0.01),#2116,
'DISTANCE_ACCURACY_VALUE',
'Maximum model space distance between geometric entities at asserted c
onnectivities');
#2114=(
GEOMETRIC_REPRESENTATION_CONTEXT(3)
GLOBAL_UNCERTAINTY_ASSIGNED_CONTEXT((#2112))
GLOBAL_UNIT_ASSIGNED_CONTEXT((#2116,#2118,#2119))
REPRESENTATION_CONTEXT('','3D')
);
#2115=(
GEOMETRIC_REPRESENTATION_CONTEXT(3)
GLOBAL_UNCERTAINTY_ASSIGNED_CONTEXT((#2113))
GLOBAL_UNIT_ASSIGNED_CONTEXT((#2116,#2118,#2119))
REPRESENTATION_CONTEXT('','3D')
);
#2116=(
LENGTH_UNIT()
NAMED_UNIT(*)
SI_UNIT(.MILLI.,.METRE.)
);
#2117=(
LENGTH_UNIT()
NAMED_UNIT(*)
SI_UNIT($,.METRE.)
);
#2118=(
NAMED_UNIT(*)
PLANE_ANGLE_UNIT()
SI_UNIT($,.RADIAN.)
);
#2119=(
NAMED_UNIT(*)
SI_UNIT($,.STERADIAN.)
SOLID_ANGLE_UNIT()
);
#2120=SHAPE_DEFINITION_REPRESENTATION(#2121,#2122);
#2121=PRODUCT_DEFINITION_SHAPE('',$,#2124);
#2122=SHAPE_REPRESENTATION('',(#1254),#2114);
#2123=PRODUCT_DEFINITION_CONTEXT('part definition',#2128,'design');
#2124=PRODUCT_DEFINITION('(\X2\C800C7A5B418C9C0\X0\ \X2\C54AC74C\X0\)',
'(\X2\C800C7A5B418C9C0\X0\ \X2\C54AC74C\X0\)',#2125,#2123);
#2125=PRODUCT_DEFINITION_FORMATION('',$,#2130);
#2126=PRODUCT_RELATED_PRODUCT_CATEGORY('(\X2\C800C7A5B418C9C0\X0\ \X2\C54AC74C\X0\)',
'(\X2\C800C7A5B418C9C0\X0\ \X2\C54AC74C\X0\)',(#2130));
#2127=APPLICATION_PROTOCOL_DEFINITION('international standard',
'automotive_design',2009,#2128);
#2128=APPLICATION_CONTEXT(
'Core Data for Automotive Mechanical Design Process');
#2129=PRODUCT_CONTEXT('part definition',#2128,'mechanical');
#2130=PRODUCT('(\X2\C800C7A5B418C9C0\X0\ \X2\C54AC74C\X0\)',
'(\X2\C800C7A5B418C9C0\X0\ \X2\C54AC74C\X0\)',$,(#2129));
#2131=PRESENTATION_STYLE_ASSIGNMENT((#2132));
#2132=SURFACE_STYLE_USAGE(.BOTH.,#2133);
#2133=SURFACE_SIDE_STYLE('',(#2134));
#2134=SURFACE_STYLE_FILL_AREA(#2135);
#2135=FILL_AREA_STYLE('\X2\AC15CCA0\X0\ - \X2\C0C8D2F4\X0\',(#2136));
#2136=FILL_AREA_STYLE_COLOUR('\X2\AC15CCA0\X0\ - \X2\C0C8D2F4\X0\',#2137);
#2137=COLOUR_RGB('\X2\AC15CCA0\X0\ - \X2\C0C8D2F4\X0\',0.627450980392157,
0.627450980392157,0.627450980392157);
ENDSEC;
END-ISO-10303-21;
