ISO-10303-21;
HEADER;
/* Generated by software containing ST-Developer
 * from STEP Tools, Inc. (www.steptools.com) 
 */

FILE_DESCRIPTION(
/* description */ (''),
/* implementation_level */ '2;1');

FILE_NAME(
/* name */ 'TRARM02_Link1A_R90x20.step',
/* time_stamp */ '2026-06-11T09:09:21+09:00',
/* author */ (''),
/* organization */ (''),
/* preprocessor_version */ 'ST-DEVELOPER v20.1',
/* originating_system */ 'Autodesk Translation Framework v15.8.0.0',
/* authorisation */ '');

FILE_SCHEMA (('AUTOMOTIVE_DESIGN { 1 0 10303 214 3 1 1 }'));
ENDSEC;

DATA;
#10=MECHANICAL_DESIGN_GEOMETRIC_PRESENTATION_REPRESENTATION('',(#13),#1715);
#11=SHAPE_REPRESENTATION_RELATIONSHIP('SRR','None',#1722,#12);
#12=ADVANCED_BREP_SHAPE_REPRESENTATION('',(#14),#1714);
#13=STYLED_ITEM('',(#1731),#14);
#14=MANIFOLD_SOLID_BREP('\X2\BCF8CCB4\X0\1',#946);
#15=TOROIDAL_SURFACE('',#991,1.99999999999999,1.);
#16=TOROIDAL_SURFACE('',#1002,2.,1.);
#17=TOROIDAL_SURFACE('',#1013,2.,1.);
#18=TOROIDAL_SURFACE('',#1024,2.,1.);
#19=TOROIDAL_SURFACE('',#1063,43.,2.);
#20=B_SPLINE_CURVE_WITH_KNOTS('',3,(#1448,#1449,#1450,#1451,#1452,#1453,
#1454,#1455,#1456,#1457),.UNSPECIFIED.,.F.,.F.,(4,2,2,2,4),(0.304046784644083,
0.341675843001807,0.37930490135953,0.417613660834806,0.455922420310082),
 .UNSPECIFIED.);
#21=B_SPLINE_CURVE_WITH_KNOTS('',3,(#1468,#1469,#1470,#1471,#1472,#1473,
#1474,#1475,#1476,#1477),.UNSPECIFIED.,.F.,.F.,(4,2,2,2,4),(0.153577274750435,
0.193000623238114,0.232423971725793,0.27002883008733,0.307633688448868),
 .UNSPECIFIED.);
#22=B_SPLINE_CURVE_WITH_KNOTS('',3,(#1501,#1502,#1503,#1504,#1505,#1506,
#1507,#1508,#1509,#1510),.UNSPECIFIED.,.F.,.F.,(4,2,2,2,4),(0.307633688448868,
0.345238546810406,0.382843405171943,0.422266753659622,0.461690102147301),
 .UNSPECIFIED.);
#23=B_SPLINE_CURVE_WITH_KNOTS('',3,(#1521,#1522,#1523,#1524,#1525,#1526,
#1527,#1528,#1529,#1530),.UNSPECIFIED.,.F.,.F.,(4,2,2,2,4),(0.152171148978084,
0.19047990845336,0.228788667928636,0.266417726286359,0.304046784644083),
 .UNSPECIFIED.);
#24=B_SPLINE_CURVE_WITH_KNOTS('',3,(#1554,#1555,#1556,#1557,#1558,#1559,
#1560,#1561,#1562,#1563),.UNSPECIFIED.,.F.,.F.,(4,2,2,2,4),(0.304046784644083,
0.341675843001807,0.379304901359531,0.417613660834806,0.455922420310082),
 .UNSPECIFIED.);
#25=B_SPLINE_CURVE_WITH_KNOTS('',3,(#1574,#1575,#1576,#1577,#1578,#1579,
#1580,#1581,#1582,#1583),.UNSPECIFIED.,.F.,.F.,(4,2,2,2,4),(0.153577274750435,
0.193000623238114,0.232423971725793,0.27002883008733,0.307633688448868),
 .UNSPECIFIED.);
#26=B_SPLINE_CURVE_WITH_KNOTS('',3,(#1607,#1608,#1609,#1610,#1611,#1612,
#1613,#1614,#1615,#1616),.UNSPECIFIED.,.F.,.F.,(4,2,2,2,4),(0.307633688448868,
0.345238546810405,0.382843405171943,0.422266753659621,0.4616901021473),
 .UNSPECIFIED.);
#27=B_SPLINE_CURVE_WITH_KNOTS('',3,(#1627,#1628,#1629,#1630,#1631,#1632,
#1633,#1634,#1635,#1636),.UNSPECIFIED.,.F.,.F.,(4,2,2,2,4),(0.152171148978084,
0.19047990845336,0.228788667928636,0.26641772628636,0.304046784644083),
 .UNSPECIFIED.);
#28=FACE_BOUND('',#196,.T.);
#29=FACE_BOUND('',#197,.T.);
#30=FACE_BOUND('',#198,.T.);
#31=FACE_BOUND('',#233,.T.);
#32=FACE_BOUND('',#234,.T.);
#33=FACE_BOUND('',#235,.T.);
#34=FACE_BOUND('',#242,.T.);
#35=FACE_BOUND('',#243,.T.);
#36=FACE_BOUND('',#244,.T.);
#37=FACE_BOUND('',#245,.T.);
#38=FACE_BOUND('',#246,.T.);
#39=FACE_BOUND('',#247,.T.);
#40=FACE_BOUND('',#248,.T.);
#41=FACE_BOUND('',#249,.T.);
#42=FACE_BOUND('',#250,.T.);
#43=FACE_BOUND('',#253,.T.);
#44=CIRCLE('',#962,2.5);
#45=CIRCLE('',#963,2.5);
#46=CIRCLE('',#966,2.5);
#47=CIRCLE('',#967,2.5);
#48=CIRCLE('',#970,2.5);
#49=CIRCLE('',#971,2.5);
#50=CIRCLE('',#974,2.5);
#51=CIRCLE('',#975,2.5);
#52=CIRCLE('',#977,2.);
#53=CIRCLE('',#978,2.);
#54=CIRCLE('',#980,2.);
#55=CIRCLE('',#981,2.);
#56=CIRCLE('',#983,2.);
#57=CIRCLE('',#984,2.);
#58=CIRCLE('',#986,15.);
#59=CIRCLE('',#987,15.);
#60=CIRCLE('',#990,1.);
#61=CIRCLE('',#992,1.);
#62=CIRCLE('',#993,1.99999999999999);
#63=CIRCLE('',#994,2.99999999999999);
#64=CIRCLE('',#998,2.99999999999999);
#65=CIRCLE('',#1001,1.);
#66=CIRCLE('',#1003,0.999999999999999);
#67=CIRCLE('',#1004,2.);
#68=CIRCLE('',#1005,3.);
#69=CIRCLE('',#1009,3.);
#70=CIRCLE('',#1012,1.);
#71=CIRCLE('',#1014,1.);
#72=CIRCLE('',#1015,2.);
#73=CIRCLE('',#1016,3.);
#74=CIRCLE('',#1020,3.);
#75=CIRCLE('',#1023,1.);
#76=CIRCLE('',#1025,0.999999999999999);
#77=CIRCLE('',#1026,2.);
#78=CIRCLE('',#1027,3.);
#79=CIRCLE('',#1031,3.);
#80=CIRCLE('',#1034,1.45);
#81=CIRCLE('',#1035,1.45);
#82=CIRCLE('',#1038,1.45);
#83=CIRCLE('',#1039,1.45);
#84=CIRCLE('',#1042,1.45);
#85=CIRCLE('',#1043,1.45);
#86=CIRCLE('',#1046,1.45);
#87=CIRCLE('',#1047,1.45);
#88=CIRCLE('',#1050,43.);
#89=CIRCLE('',#1052,43.);
#90=CIRCLE('',#1053,43.);
#91=CIRCLE('',#1054,43.);
#92=CIRCLE('',#1055,43.);
#93=CIRCLE('',#1056,43.);
#94=CIRCLE('',#1058,43.);
#95=CIRCLE('',#1060,43.);
#96=CIRCLE('',#1062,43.);
#97=CIRCLE('',#1064,45.);
#98=CIRCLE('',#1065,2.);
#99=CIRCLE('',#1066,43.);
#100=CIRCLE('',#1068,45.);
#101=CIRCLE('',#1071,43.);
#102=CYLINDRICAL_SURFACE('',#961,2.5);
#103=CYLINDRICAL_SURFACE('',#965,2.5);
#104=CYLINDRICAL_SURFACE('',#969,2.5);
#105=CYLINDRICAL_SURFACE('',#973,2.5);
#106=CYLINDRICAL_SURFACE('',#976,2.);
#107=CYLINDRICAL_SURFACE('',#979,2.);
#108=CYLINDRICAL_SURFACE('',#982,2.);
#109=CYLINDRICAL_SURFACE('',#985,15.);
#110=CYLINDRICAL_SURFACE('',#989,1.);
#111=CYLINDRICAL_SURFACE('',#995,1.);
#112=CYLINDRICAL_SURFACE('',#997,2.99999999999999);
#113=CYLINDRICAL_SURFACE('',#1000,1.);
#114=CYLINDRICAL_SURFACE('',#1006,1.);
#115=CYLINDRICAL_SURFACE('',#1008,3.);
#116=CYLINDRICAL_SURFACE('',#1011,1.);
#117=CYLINDRICAL_SURFACE('',#1017,1.);
#118=CYLINDRICAL_SURFACE('',#1019,3.);
#119=CYLINDRICAL_SURFACE('',#1022,1.);
#120=CYLINDRICAL_SURFACE('',#1028,1.);
#121=CYLINDRICAL_SURFACE('',#1030,3.);
#122=CYLINDRICAL_SURFACE('',#1033,1.45);
#123=CYLINDRICAL_SURFACE('',#1037,1.45);
#124=CYLINDRICAL_SURFACE('',#1041,1.45);
#125=CYLINDRICAL_SURFACE('',#1045,1.45);
#126=CYLINDRICAL_SURFACE('',#1067,45.);
#127=CYLINDRICAL_SURFACE('',#1070,43.);
#128=FACE_OUTER_BOUND('',#183,.T.);
#129=FACE_OUTER_BOUND('',#184,.T.);
#130=FACE_OUTER_BOUND('',#185,.T.);
#131=FACE_OUTER_BOUND('',#186,.T.);
#132=FACE_OUTER_BOUND('',#187,.T.);
#133=FACE_OUTER_BOUND('',#188,.T.);
#134=FACE_OUTER_BOUND('',#189,.T.);
#135=FACE_OUTER_BOUND('',#190,.T.);
#136=FACE_OUTER_BOUND('',#191,.T.);
#137=FACE_OUTER_BOUND('',#192,.T.);
#138=FACE_OUTER_BOUND('',#193,.T.);
#139=FACE_OUTER_BOUND('',#194,.T.);
#140=FACE_OUTER_BOUND('',#195,.T.);
#141=FACE_OUTER_BOUND('',#199,.T.);
#142=FACE_OUTER_BOUND('',#200,.T.);
#143=FACE_OUTER_BOUND('',#201,.T.);
#144=FACE_OUTER_BOUND('',#202,.T.);
#145=FACE_OUTER_BOUND('',#203,.T.);
#146=FACE_OUTER_BOUND('',#204,.T.);
#147=FACE_OUTER_BOUND('',#205,.T.);
#148=FACE_OUTER_BOUND('',#206,.T.);
#149=FACE_OUTER_BOUND('',#207,.T.);
#150=FACE_OUTER_BOUND('',#208,.T.);
#151=FACE_OUTER_BOUND('',#209,.T.);
#152=FACE_OUTER_BOUND('',#210,.T.);
#153=FACE_OUTER_BOUND('',#211,.T.);
#154=FACE_OUTER_BOUND('',#212,.T.);
#155=FACE_OUTER_BOUND('',#213,.T.);
#156=FACE_OUTER_BOUND('',#214,.T.);
#157=FACE_OUTER_BOUND('',#215,.T.);
#158=FACE_OUTER_BOUND('',#216,.T.);
#159=FACE_OUTER_BOUND('',#217,.T.);
#160=FACE_OUTER_BOUND('',#218,.T.);
#161=FACE_OUTER_BOUND('',#219,.T.);
#162=FACE_OUTER_BOUND('',#220,.T.);
#163=FACE_OUTER_BOUND('',#221,.T.);
#164=FACE_OUTER_BOUND('',#222,.T.);
#165=FACE_OUTER_BOUND('',#223,.T.);
#166=FACE_OUTER_BOUND('',#224,.T.);
#167=FACE_OUTER_BOUND('',#225,.T.);
#168=FACE_OUTER_BOUND('',#226,.T.);
#169=FACE_OUTER_BOUND('',#227,.T.);
#170=FACE_OUTER_BOUND('',#228,.T.);
#171=FACE_OUTER_BOUND('',#229,.T.);
#172=FACE_OUTER_BOUND('',#230,.T.);
#173=FACE_OUTER_BOUND('',#231,.T.);
#174=FACE_OUTER_BOUND('',#232,.T.);
#175=FACE_OUTER_BOUND('',#236,.T.);
#176=FACE_OUTER_BOUND('',#237,.T.);
#177=FACE_OUTER_BOUND('',#238,.T.);
#178=FACE_OUTER_BOUND('',#239,.T.);
#179=FACE_OUTER_BOUND('',#240,.T.);
#180=FACE_OUTER_BOUND('',#241,.T.);
#181=FACE_OUTER_BOUND('',#251,.T.);
#182=FACE_OUTER_BOUND('',#252,.T.);
#183=EDGE_LOOP('',(#603,#604,#605,#606));
#184=EDGE_LOOP('',(#607,#608,#609,#610));
#185=EDGE_LOOP('',(#611,#612,#613,#614));
#186=EDGE_LOOP('',(#615,#616,#617,#618));
#187=EDGE_LOOP('',(#619,#620,#621,#622));
#188=EDGE_LOOP('',(#623,#624,#625,#626));
#189=EDGE_LOOP('',(#627,#628,#629,#630));
#190=EDGE_LOOP('',(#631,#632,#633,#634));
#191=EDGE_LOOP('',(#635,#636,#637,#638));
#192=EDGE_LOOP('',(#639,#640,#641,#642));
#193=EDGE_LOOP('',(#643,#644,#645,#646));
#194=EDGE_LOOP('',(#647,#648,#649,#650));
#195=EDGE_LOOP('',(#651));
#196=EDGE_LOOP('',(#652));
#197=EDGE_LOOP('',(#653));
#198=EDGE_LOOP('',(#654));
#199=EDGE_LOOP('',(#655,#656,#657,#658));
#200=EDGE_LOOP('',(#659,#660,#661,#662));
#201=EDGE_LOOP('',(#663,#664,#665,#666));
#202=EDGE_LOOP('',(#667,#668,#669,#670));
#203=EDGE_LOOP('',(#671,#672,#673,#674));
#204=EDGE_LOOP('',(#675,#676,#677,#678));
#205=EDGE_LOOP('',(#679,#680,#681,#682));
#206=EDGE_LOOP('',(#683,#684,#685,#686));
#207=EDGE_LOOP('',(#687,#688,#689,#690));
#208=EDGE_LOOP('',(#691,#692,#693,#694));
#209=EDGE_LOOP('',(#695,#696,#697,#698));
#210=EDGE_LOOP('',(#699,#700,#701,#702));
#211=EDGE_LOOP('',(#703,#704,#705,#706));
#212=EDGE_LOOP('',(#707,#708,#709,#710));
#213=EDGE_LOOP('',(#711,#712,#713,#714));
#214=EDGE_LOOP('',(#715,#716,#717,#718));
#215=EDGE_LOOP('',(#719,#720,#721,#722));
#216=EDGE_LOOP('',(#723,#724,#725,#726));
#217=EDGE_LOOP('',(#727,#728,#729,#730));
#218=EDGE_LOOP('',(#731,#732,#733,#734));
#219=EDGE_LOOP('',(#735,#736,#737,#738));
#220=EDGE_LOOP('',(#739,#740,#741,#742));
#221=EDGE_LOOP('',(#743,#744,#745,#746));
#222=EDGE_LOOP('',(#747,#748,#749,#750));
#223=EDGE_LOOP('',(#751,#752,#753,#754));
#224=EDGE_LOOP('',(#755));
#225=EDGE_LOOP('',(#756,#757,#758,#759));
#226=EDGE_LOOP('',(#760));
#227=EDGE_LOOP('',(#761,#762,#763,#764));
#228=EDGE_LOOP('',(#765));
#229=EDGE_LOOP('',(#766,#767,#768,#769));
#230=EDGE_LOOP('',(#770));
#231=EDGE_LOOP('',(#771,#772,#773,#774));
#232=EDGE_LOOP('',(#775,#776,#777,#778,#779,#780,#781,#782,#783,#784,#785,
#786,#787,#788,#789,#790,#791));
#233=EDGE_LOOP('',(#792,#793,#794,#795));
#234=EDGE_LOOP('',(#796,#797,#798,#799));
#235=EDGE_LOOP('',(#800));
#236=EDGE_LOOP('',(#801,#802,#803,#804));
#237=EDGE_LOOP('',(#805,#806,#807,#808));
#238=EDGE_LOOP('',(#809,#810,#811,#812));
#239=EDGE_LOOP('',(#813,#814,#815,#816));
#240=EDGE_LOOP('',(#817,#818,#819,#820));
#241=EDGE_LOOP('',(#821));
#242=EDGE_LOOP('',(#822,#823,#824,#825));
#243=EDGE_LOOP('',(#826,#827,#828,#829));
#244=EDGE_LOOP('',(#830));
#245=EDGE_LOOP('',(#831));
#246=EDGE_LOOP('',(#832));
#247=EDGE_LOOP('',(#833));
#248=EDGE_LOOP('',(#834));
#249=EDGE_LOOP('',(#835));
#250=EDGE_LOOP('',(#836));
#251=EDGE_LOOP('',(#837,#838,#839,#840,#841,#842,#843,#844,#845,#846,#847,
#848,#849,#850,#851,#852,#853,#854,#855,#856,#857,#858,#859,#860,#861,#862,
#863,#864));
#252=EDGE_LOOP('',(#865));
#253=EDGE_LOOP('',(#866));
#254=LINE('',#1371,#320);
#255=LINE('',#1373,#321);
#256=LINE('',#1375,#322);
#257=LINE('',#1376,#323);
#258=LINE('',#1381,#324);
#259=LINE('',#1385,#325);
#260=LINE('',#1387,#326);
#261=LINE('',#1388,#327);
#262=LINE('',#1395,#328);
#263=LINE('',#1397,#329);
#264=LINE('',#1399,#330);
#265=LINE('',#1400,#331);
#266=LINE('',#1405,#332);
#267=LINE('',#1409,#333);
#268=LINE('',#1411,#334);
#269=LINE('',#1412,#335);
#270=LINE('',#1420,#336);
#271=LINE('',#1426,#337);
#272=LINE('',#1432,#338);
#273=LINE('',#1438,#339);
#274=LINE('',#1446,#340);
#275=LINE('',#1458,#341);
#276=LINE('',#1478,#342);
#277=LINE('',#1479,#343);
#278=LINE('',#1482,#344);
#279=LINE('',#1484,#345);
#280=LINE('',#1485,#346);
#281=LINE('',#1488,#347);
#282=LINE('',#1492,#348);
#283=LINE('',#1493,#349);
#284=LINE('',#1499,#350);
#285=LINE('',#1511,#351);
#286=LINE('',#1531,#352);
#287=LINE('',#1532,#353);
#288=LINE('',#1535,#354);
#289=LINE('',#1537,#355);
#290=LINE('',#1538,#356);
#291=LINE('',#1541,#357);
#292=LINE('',#1545,#358);
#293=LINE('',#1546,#359);
#294=LINE('',#1552,#360);
#295=LINE('',#1564,#361);
#296=LINE('',#1584,#362);
#297=LINE('',#1585,#363);
#298=LINE('',#1588,#364);
#299=LINE('',#1590,#365);
#300=LINE('',#1591,#366);
#301=LINE('',#1594,#367);
#302=LINE('',#1598,#368);
#303=LINE('',#1599,#369);
#304=LINE('',#1605,#370);
#305=LINE('',#1617,#371);
#306=LINE('',#1637,#372);
#307=LINE('',#1638,#373);
#308=LINE('',#1641,#374);
#309=LINE('',#1643,#375);
#310=LINE('',#1644,#376);
#311=LINE('',#1647,#377);
#312=LINE('',#1651,#378);
#313=LINE('',#1652,#379);
#314=LINE('',#1657,#380);
#315=LINE('',#1664,#381);
#316=LINE('',#1671,#382);
#317=LINE('',#1678,#383);
#318=LINE('',#1705,#384);
#319=LINE('',#1710,#385);
#320=VECTOR('',#1077,10.);
#321=VECTOR('',#1078,10.);
#322=VECTOR('',#1079,10.);
#323=VECTOR('',#1080,10.);
#324=VECTOR('',#1085,10.);
#325=VECTOR('',#1090,10.);
#326=VECTOR('',#1091,10.);
#327=VECTOR('',#1092,10.);
#328=VECTOR('',#1101,10.);
#329=VECTOR('',#1102,10.);
#330=VECTOR('',#1103,10.);
#331=VECTOR('',#1104,10.);
#332=VECTOR('',#1109,10.);
#333=VECTOR('',#1114,10.);
#334=VECTOR('',#1115,10.);
#335=VECTOR('',#1116,10.);
#336=VECTOR('',#1127,2.);
#337=VECTOR('',#1134,2.);
#338=VECTOR('',#1141,2.);
#339=VECTOR('',#1148,15.);
#340=VECTOR('',#1157,10.);
#341=VECTOR('',#1158,10.);
#342=VECTOR('',#1169,10.);
#343=VECTOR('',#1170,10.);
#344=VECTOR('',#1173,10.);
#345=VECTOR('',#1174,10.);
#346=VECTOR('',#1175,10.);
#347=VECTOR('',#1178,10.);
#348=VECTOR('',#1183,10.);
#349=VECTOR('',#1184,10.);
#350=VECTOR('',#1189,10.);
#351=VECTOR('',#1190,10.);
#352=VECTOR('',#1201,10.);
#353=VECTOR('',#1202,10.);
#354=VECTOR('',#1205,10.);
#355=VECTOR('',#1206,10.);
#356=VECTOR('',#1207,10.);
#357=VECTOR('',#1210,10.);
#358=VECTOR('',#1215,10.);
#359=VECTOR('',#1216,10.);
#360=VECTOR('',#1221,10.);
#361=VECTOR('',#1222,10.);
#362=VECTOR('',#1233,10.);
#363=VECTOR('',#1234,10.);
#364=VECTOR('',#1237,10.);
#365=VECTOR('',#1238,10.);
#366=VECTOR('',#1239,10.);
#367=VECTOR('',#1242,10.);
#368=VECTOR('',#1247,10.);
#369=VECTOR('',#1248,10.);
#370=VECTOR('',#1253,10.);
#371=VECTOR('',#1254,10.);
#372=VECTOR('',#1265,10.);
#373=VECTOR('',#1266,10.);
#374=VECTOR('',#1269,10.);
#375=VECTOR('',#1270,10.);
#376=VECTOR('',#1271,10.);
#377=VECTOR('',#1274,10.);
#378=VECTOR('',#1279,10.);
#379=VECTOR('',#1280,10.);
#380=VECTOR('',#1285,1.45);
#381=VECTOR('',#1294,1.45);
#382=VECTOR('',#1303,1.45);
#383=VECTOR('',#1312,1.45);
#384=VECTOR('',#1357,45.);
#385=VECTOR('',#1364,43.);
#386=VERTEX_POINT('',#1369);
#387=VERTEX_POINT('',#1370);
#388=VERTEX_POINT('',#1372);
#389=VERTEX_POINT('',#1374);
#390=VERTEX_POINT('',#1378);
#391=VERTEX_POINT('',#1380);
#392=VERTEX_POINT('',#1384);
#393=VERTEX_POINT('',#1386);
#394=VERTEX_POINT('',#1393);
#395=VERTEX_POINT('',#1394);
#396=VERTEX_POINT('',#1396);
#397=VERTEX_POINT('',#1398);
#398=VERTEX_POINT('',#1402);
#399=VERTEX_POINT('',#1404);
#400=VERTEX_POINT('',#1408);
#401=VERTEX_POINT('',#1410);
#402=VERTEX_POINT('',#1417);
#403=VERTEX_POINT('',#1419);
#404=VERTEX_POINT('',#1423);
#405=VERTEX_POINT('',#1425);
#406=VERTEX_POINT('',#1429);
#407=VERTEX_POINT('',#1431);
#408=VERTEX_POINT('',#1435);
#409=VERTEX_POINT('',#1437);
#410=VERTEX_POINT('',#1442);
#411=VERTEX_POINT('',#1443);
#412=VERTEX_POINT('',#1445);
#413=VERTEX_POINT('',#1447);
#414=VERTEX_POINT('',#1460);
#415=VERTEX_POINT('',#1461);
#416=VERTEX_POINT('',#1466);
#417=VERTEX_POINT('',#1467);
#418=VERTEX_POINT('',#1481);
#419=VERTEX_POINT('',#1483);
#420=VERTEX_POINT('',#1487);
#421=VERTEX_POINT('',#1491);
#422=VERTEX_POINT('',#1495);
#423=VERTEX_POINT('',#1496);
#424=VERTEX_POINT('',#1498);
#425=VERTEX_POINT('',#1500);
#426=VERTEX_POINT('',#1513);
#427=VERTEX_POINT('',#1514);
#428=VERTEX_POINT('',#1519);
#429=VERTEX_POINT('',#1520);
#430=VERTEX_POINT('',#1534);
#431=VERTEX_POINT('',#1536);
#432=VERTEX_POINT('',#1540);
#433=VERTEX_POINT('',#1544);
#434=VERTEX_POINT('',#1548);
#435=VERTEX_POINT('',#1549);
#436=VERTEX_POINT('',#1551);
#437=VERTEX_POINT('',#1553);
#438=VERTEX_POINT('',#1566);
#439=VERTEX_POINT('',#1567);
#440=VERTEX_POINT('',#1572);
#441=VERTEX_POINT('',#1573);
#442=VERTEX_POINT('',#1587);
#443=VERTEX_POINT('',#1589);
#444=VERTEX_POINT('',#1593);
#445=VERTEX_POINT('',#1597);
#446=VERTEX_POINT('',#1601);
#447=VERTEX_POINT('',#1602);
#448=VERTEX_POINT('',#1604);
#449=VERTEX_POINT('',#1606);
#450=VERTEX_POINT('',#1619);
#451=VERTEX_POINT('',#1620);
#452=VERTEX_POINT('',#1625);
#453=VERTEX_POINT('',#1626);
#454=VERTEX_POINT('',#1640);
#455=VERTEX_POINT('',#1642);
#456=VERTEX_POINT('',#1646);
#457=VERTEX_POINT('',#1650);
#458=VERTEX_POINT('',#1654);
#459=VERTEX_POINT('',#1656);
#460=VERTEX_POINT('',#1661);
#461=VERTEX_POINT('',#1663);
#462=VERTEX_POINT('',#1668);
#463=VERTEX_POINT('',#1670);
#464=VERTEX_POINT('',#1675);
#465=VERTEX_POINT('',#1677);
#466=VERTEX_POINT('',#1687);
#467=VERTEX_POINT('',#1697);
#468=VERTEX_POINT('',#1699);
#469=VERTEX_POINT('',#1703);
#470=VERTEX_POINT('',#1708);
#471=EDGE_CURVE('',#386,#387,#254,.T.);
#472=EDGE_CURVE('',#386,#388,#255,.T.);
#473=EDGE_CURVE('',#389,#388,#256,.T.);
#474=EDGE_CURVE('',#387,#389,#257,.T.);
#475=EDGE_CURVE('',#390,#386,#44,.T.);
#476=EDGE_CURVE('',#390,#391,#258,.T.);
#477=EDGE_CURVE('',#388,#391,#45,.T.);
#478=EDGE_CURVE('',#392,#390,#259,.T.);
#479=EDGE_CURVE('',#392,#393,#260,.T.);
#480=EDGE_CURVE('',#391,#393,#261,.T.);
#481=EDGE_CURVE('',#387,#392,#46,.T.);
#482=EDGE_CURVE('',#393,#389,#47,.T.);
#483=EDGE_CURVE('',#394,#395,#262,.T.);
#484=EDGE_CURVE('',#394,#396,#263,.T.);
#485=EDGE_CURVE('',#397,#396,#264,.T.);
#486=EDGE_CURVE('',#395,#397,#265,.T.);
#487=EDGE_CURVE('',#398,#394,#48,.T.);
#488=EDGE_CURVE('',#398,#399,#266,.T.);
#489=EDGE_CURVE('',#396,#399,#49,.T.);
#490=EDGE_CURVE('',#400,#398,#267,.T.);
#491=EDGE_CURVE('',#400,#401,#268,.T.);
#492=EDGE_CURVE('',#399,#401,#269,.T.);
#493=EDGE_CURVE('',#395,#400,#50,.T.);
#494=EDGE_CURVE('',#401,#397,#51,.T.);
#495=EDGE_CURVE('',#402,#402,#52,.T.);
#496=EDGE_CURVE('',#402,#403,#270,.T.);
#497=EDGE_CURVE('',#403,#403,#53,.T.);
#498=EDGE_CURVE('',#404,#404,#54,.T.);
#499=EDGE_CURVE('',#404,#405,#271,.T.);
#500=EDGE_CURVE('',#405,#405,#55,.T.);
#501=EDGE_CURVE('',#406,#406,#56,.T.);
#502=EDGE_CURVE('',#406,#407,#272,.T.);
#503=EDGE_CURVE('',#407,#407,#57,.T.);
#504=EDGE_CURVE('',#408,#408,#58,.T.);
#505=EDGE_CURVE('',#408,#409,#273,.T.);
#506=EDGE_CURVE('',#409,#409,#59,.T.);
#507=EDGE_CURVE('',#410,#411,#60,.T.);
#508=EDGE_CURVE('',#411,#412,#274,.T.);
#509=EDGE_CURVE('',#412,#413,#20,.F.);
#510=EDGE_CURVE('',#413,#410,#275,.T.);
#511=EDGE_CURVE('',#414,#415,#61,.T.);
#512=EDGE_CURVE('',#415,#411,#62,.T.);
#513=EDGE_CURVE('',#410,#414,#63,.T.);
#514=EDGE_CURVE('',#416,#417,#21,.F.);
#515=EDGE_CURVE('',#417,#415,#276,.T.);
#516=EDGE_CURVE('',#414,#416,#277,.T.);
#517=EDGE_CURVE('',#418,#414,#278,.T.);
#518=EDGE_CURVE('',#419,#418,#279,.T.);
#519=EDGE_CURVE('',#416,#419,#280,.T.);
#520=EDGE_CURVE('',#420,#410,#281,.T.);
#521=EDGE_CURVE('',#418,#420,#64,.T.);
#522=EDGE_CURVE('',#421,#413,#282,.T.);
#523=EDGE_CURVE('',#420,#421,#283,.T.);
#524=EDGE_CURVE('',#422,#423,#65,.T.);
#525=EDGE_CURVE('',#423,#424,#284,.T.);
#526=EDGE_CURVE('',#424,#425,#22,.F.);
#527=EDGE_CURVE('',#425,#422,#285,.T.);
#528=EDGE_CURVE('',#426,#427,#66,.T.);
#529=EDGE_CURVE('',#427,#423,#67,.T.);
#530=EDGE_CURVE('',#422,#426,#68,.T.);
#531=EDGE_CURVE('',#428,#429,#23,.F.);
#532=EDGE_CURVE('',#429,#427,#286,.T.);
#533=EDGE_CURVE('',#426,#428,#287,.T.);
#534=EDGE_CURVE('',#430,#426,#288,.T.);
#535=EDGE_CURVE('',#431,#430,#289,.T.);
#536=EDGE_CURVE('',#428,#431,#290,.T.);
#537=EDGE_CURVE('',#432,#422,#291,.T.);
#538=EDGE_CURVE('',#430,#432,#69,.T.);
#539=EDGE_CURVE('',#433,#425,#292,.T.);
#540=EDGE_CURVE('',#432,#433,#293,.T.);
#541=EDGE_CURVE('',#434,#435,#70,.T.);
#542=EDGE_CURVE('',#435,#436,#294,.T.);
#543=EDGE_CURVE('',#436,#437,#24,.F.);
#544=EDGE_CURVE('',#437,#434,#295,.T.);
#545=EDGE_CURVE('',#438,#439,#71,.T.);
#546=EDGE_CURVE('',#439,#435,#72,.T.);
#547=EDGE_CURVE('',#434,#438,#73,.T.);
#548=EDGE_CURVE('',#440,#441,#25,.F.);
#549=EDGE_CURVE('',#441,#439,#296,.T.);
#550=EDGE_CURVE('',#438,#440,#297,.T.);
#551=EDGE_CURVE('',#442,#438,#298,.T.);
#552=EDGE_CURVE('',#443,#442,#299,.T.);
#553=EDGE_CURVE('',#440,#443,#300,.T.);
#554=EDGE_CURVE('',#444,#434,#301,.T.);
#555=EDGE_CURVE('',#442,#444,#74,.T.);
#556=EDGE_CURVE('',#445,#437,#302,.T.);
#557=EDGE_CURVE('',#444,#445,#303,.T.);
#558=EDGE_CURVE('',#446,#447,#75,.T.);
#559=EDGE_CURVE('',#447,#448,#304,.T.);
#560=EDGE_CURVE('',#448,#449,#26,.F.);
#561=EDGE_CURVE('',#449,#446,#305,.T.);
#562=EDGE_CURVE('',#450,#451,#76,.T.);
#563=EDGE_CURVE('',#451,#447,#77,.T.);
#564=EDGE_CURVE('',#446,#450,#78,.T.);
#565=EDGE_CURVE('',#452,#453,#27,.F.);
#566=EDGE_CURVE('',#453,#451,#306,.T.);
#567=EDGE_CURVE('',#450,#452,#307,.T.);
#568=EDGE_CURVE('',#454,#450,#308,.T.);
#569=EDGE_CURVE('',#455,#454,#309,.T.);
#570=EDGE_CURVE('',#452,#455,#310,.T.);
#571=EDGE_CURVE('',#456,#446,#311,.T.);
#572=EDGE_CURVE('',#454,#456,#79,.T.);
#573=EDGE_CURVE('',#457,#449,#312,.T.);
#574=EDGE_CURVE('',#456,#457,#313,.T.);
#575=EDGE_CURVE('',#458,#458,#80,.T.);
#576=EDGE_CURVE('',#458,#459,#314,.T.);
#577=EDGE_CURVE('',#459,#459,#81,.T.);
#578=EDGE_CURVE('',#460,#460,#82,.T.);
#579=EDGE_CURVE('',#460,#461,#315,.T.);
#580=EDGE_CURVE('',#461,#461,#83,.T.);
#581=EDGE_CURVE('',#462,#462,#84,.T.);
#582=EDGE_CURVE('',#462,#463,#316,.T.);
#583=EDGE_CURVE('',#463,#463,#85,.T.);
#584=EDGE_CURVE('',#464,#464,#86,.T.);
#585=EDGE_CURVE('',#464,#465,#317,.T.);
#586=EDGE_CURVE('',#465,#465,#87,.T.);
#587=EDGE_CURVE('',#424,#429,#88,.T.);
#588=EDGE_CURVE('',#433,#443,#89,.T.);
#589=EDGE_CURVE('',#445,#455,#90,.T.);
#590=EDGE_CURVE('',#457,#419,#91,.T.);
#591=EDGE_CURVE('',#421,#466,#92,.T.);
#592=EDGE_CURVE('',#466,#431,#93,.T.);
#593=EDGE_CURVE('',#436,#441,#94,.T.);
#594=EDGE_CURVE('',#412,#417,#95,.T.);
#595=EDGE_CURVE('',#448,#453,#96,.T.);
#596=EDGE_CURVE('',#467,#467,#97,.T.);
#597=EDGE_CURVE('',#467,#468,#98,.T.);
#598=EDGE_CURVE('',#468,#468,#99,.T.);
#599=EDGE_CURVE('',#469,#469,#100,.T.);
#600=EDGE_CURVE('',#469,#467,#318,.T.);
#601=EDGE_CURVE('',#470,#470,#101,.T.);
#602=EDGE_CURVE('',#470,#466,#319,.T.);
#603=ORIENTED_EDGE('',*,*,#471,.F.);
#604=ORIENTED_EDGE('',*,*,#472,.T.);
#605=ORIENTED_EDGE('',*,*,#473,.F.);
#606=ORIENTED_EDGE('',*,*,#474,.F.);
#607=ORIENTED_EDGE('',*,*,#475,.F.);
#608=ORIENTED_EDGE('',*,*,#476,.T.);
#609=ORIENTED_EDGE('',*,*,#477,.F.);
#610=ORIENTED_EDGE('',*,*,#472,.F.);
#611=ORIENTED_EDGE('',*,*,#478,.F.);
#612=ORIENTED_EDGE('',*,*,#479,.T.);
#613=ORIENTED_EDGE('',*,*,#480,.F.);
#614=ORIENTED_EDGE('',*,*,#476,.F.);
#615=ORIENTED_EDGE('',*,*,#481,.F.);
#616=ORIENTED_EDGE('',*,*,#474,.T.);
#617=ORIENTED_EDGE('',*,*,#482,.F.);
#618=ORIENTED_EDGE('',*,*,#479,.F.);
#619=ORIENTED_EDGE('',*,*,#483,.F.);
#620=ORIENTED_EDGE('',*,*,#484,.T.);
#621=ORIENTED_EDGE('',*,*,#485,.F.);
#622=ORIENTED_EDGE('',*,*,#486,.F.);
#623=ORIENTED_EDGE('',*,*,#487,.F.);
#624=ORIENTED_EDGE('',*,*,#488,.T.);
#625=ORIENTED_EDGE('',*,*,#489,.F.);
#626=ORIENTED_EDGE('',*,*,#484,.F.);
#627=ORIENTED_EDGE('',*,*,#490,.F.);
#628=ORIENTED_EDGE('',*,*,#491,.T.);
#629=ORIENTED_EDGE('',*,*,#492,.F.);
#630=ORIENTED_EDGE('',*,*,#488,.F.);
#631=ORIENTED_EDGE('',*,*,#493,.F.);
#632=ORIENTED_EDGE('',*,*,#486,.T.);
#633=ORIENTED_EDGE('',*,*,#494,.F.);
#634=ORIENTED_EDGE('',*,*,#491,.F.);
#635=ORIENTED_EDGE('',*,*,#495,.F.);
#636=ORIENTED_EDGE('',*,*,#496,.T.);
#637=ORIENTED_EDGE('',*,*,#497,.F.);
#638=ORIENTED_EDGE('',*,*,#496,.F.);
#639=ORIENTED_EDGE('',*,*,#498,.F.);
#640=ORIENTED_EDGE('',*,*,#499,.T.);
#641=ORIENTED_EDGE('',*,*,#500,.F.);
#642=ORIENTED_EDGE('',*,*,#499,.F.);
#643=ORIENTED_EDGE('',*,*,#501,.F.);
#644=ORIENTED_EDGE('',*,*,#502,.T.);
#645=ORIENTED_EDGE('',*,*,#503,.F.);
#646=ORIENTED_EDGE('',*,*,#502,.F.);
#647=ORIENTED_EDGE('',*,*,#504,.F.);
#648=ORIENTED_EDGE('',*,*,#505,.T.);
#649=ORIENTED_EDGE('',*,*,#506,.F.);
#650=ORIENTED_EDGE('',*,*,#505,.F.);
#651=ORIENTED_EDGE('',*,*,#504,.T.);
#652=ORIENTED_EDGE('',*,*,#495,.T.);
#653=ORIENTED_EDGE('',*,*,#498,.T.);
#654=ORIENTED_EDGE('',*,*,#501,.T.);
#655=ORIENTED_EDGE('',*,*,#507,.T.);
#656=ORIENTED_EDGE('',*,*,#508,.T.);
#657=ORIENTED_EDGE('',*,*,#509,.T.);
#658=ORIENTED_EDGE('',*,*,#510,.T.);
#659=ORIENTED_EDGE('',*,*,#511,.T.);
#660=ORIENTED_EDGE('',*,*,#512,.T.);
#661=ORIENTED_EDGE('',*,*,#507,.F.);
#662=ORIENTED_EDGE('',*,*,#513,.T.);
#663=ORIENTED_EDGE('',*,*,#514,.T.);
#664=ORIENTED_EDGE('',*,*,#515,.T.);
#665=ORIENTED_EDGE('',*,*,#511,.F.);
#666=ORIENTED_EDGE('',*,*,#516,.T.);
#667=ORIENTED_EDGE('',*,*,#516,.F.);
#668=ORIENTED_EDGE('',*,*,#517,.F.);
#669=ORIENTED_EDGE('',*,*,#518,.F.);
#670=ORIENTED_EDGE('',*,*,#519,.F.);
#671=ORIENTED_EDGE('',*,*,#513,.F.);
#672=ORIENTED_EDGE('',*,*,#520,.F.);
#673=ORIENTED_EDGE('',*,*,#521,.F.);
#674=ORIENTED_EDGE('',*,*,#517,.T.);
#675=ORIENTED_EDGE('',*,*,#510,.F.);
#676=ORIENTED_EDGE('',*,*,#522,.F.);
#677=ORIENTED_EDGE('',*,*,#523,.F.);
#678=ORIENTED_EDGE('',*,*,#520,.T.);
#679=ORIENTED_EDGE('',*,*,#524,.T.);
#680=ORIENTED_EDGE('',*,*,#525,.T.);
#681=ORIENTED_EDGE('',*,*,#526,.T.);
#682=ORIENTED_EDGE('',*,*,#527,.T.);
#683=ORIENTED_EDGE('',*,*,#528,.T.);
#684=ORIENTED_EDGE('',*,*,#529,.T.);
#685=ORIENTED_EDGE('',*,*,#524,.F.);
#686=ORIENTED_EDGE('',*,*,#530,.T.);
#687=ORIENTED_EDGE('',*,*,#531,.T.);
#688=ORIENTED_EDGE('',*,*,#532,.T.);
#689=ORIENTED_EDGE('',*,*,#528,.F.);
#690=ORIENTED_EDGE('',*,*,#533,.T.);
#691=ORIENTED_EDGE('',*,*,#533,.F.);
#692=ORIENTED_EDGE('',*,*,#534,.F.);
#693=ORIENTED_EDGE('',*,*,#535,.F.);
#694=ORIENTED_EDGE('',*,*,#536,.F.);
#695=ORIENTED_EDGE('',*,*,#530,.F.);
#696=ORIENTED_EDGE('',*,*,#537,.F.);
#697=ORIENTED_EDGE('',*,*,#538,.F.);
#698=ORIENTED_EDGE('',*,*,#534,.T.);
#699=ORIENTED_EDGE('',*,*,#527,.F.);
#700=ORIENTED_EDGE('',*,*,#539,.F.);
#701=ORIENTED_EDGE('',*,*,#540,.F.);
#702=ORIENTED_EDGE('',*,*,#537,.T.);
#703=ORIENTED_EDGE('',*,*,#541,.T.);
#704=ORIENTED_EDGE('',*,*,#542,.T.);
#705=ORIENTED_EDGE('',*,*,#543,.T.);
#706=ORIENTED_EDGE('',*,*,#544,.T.);
#707=ORIENTED_EDGE('',*,*,#545,.T.);
#708=ORIENTED_EDGE('',*,*,#546,.T.);
#709=ORIENTED_EDGE('',*,*,#541,.F.);
#710=ORIENTED_EDGE('',*,*,#547,.T.);
#711=ORIENTED_EDGE('',*,*,#548,.T.);
#712=ORIENTED_EDGE('',*,*,#549,.T.);
#713=ORIENTED_EDGE('',*,*,#545,.F.);
#714=ORIENTED_EDGE('',*,*,#550,.T.);
#715=ORIENTED_EDGE('',*,*,#550,.F.);
#716=ORIENTED_EDGE('',*,*,#551,.F.);
#717=ORIENTED_EDGE('',*,*,#552,.F.);
#718=ORIENTED_EDGE('',*,*,#553,.F.);
#719=ORIENTED_EDGE('',*,*,#547,.F.);
#720=ORIENTED_EDGE('',*,*,#554,.F.);
#721=ORIENTED_EDGE('',*,*,#555,.F.);
#722=ORIENTED_EDGE('',*,*,#551,.T.);
#723=ORIENTED_EDGE('',*,*,#544,.F.);
#724=ORIENTED_EDGE('',*,*,#556,.F.);
#725=ORIENTED_EDGE('',*,*,#557,.F.);
#726=ORIENTED_EDGE('',*,*,#554,.T.);
#727=ORIENTED_EDGE('',*,*,#558,.T.);
#728=ORIENTED_EDGE('',*,*,#559,.T.);
#729=ORIENTED_EDGE('',*,*,#560,.T.);
#730=ORIENTED_EDGE('',*,*,#561,.T.);
#731=ORIENTED_EDGE('',*,*,#562,.T.);
#732=ORIENTED_EDGE('',*,*,#563,.T.);
#733=ORIENTED_EDGE('',*,*,#558,.F.);
#734=ORIENTED_EDGE('',*,*,#564,.T.);
#735=ORIENTED_EDGE('',*,*,#565,.T.);
#736=ORIENTED_EDGE('',*,*,#566,.T.);
#737=ORIENTED_EDGE('',*,*,#562,.F.);
#738=ORIENTED_EDGE('',*,*,#567,.T.);
#739=ORIENTED_EDGE('',*,*,#567,.F.);
#740=ORIENTED_EDGE('',*,*,#568,.F.);
#741=ORIENTED_EDGE('',*,*,#569,.F.);
#742=ORIENTED_EDGE('',*,*,#570,.F.);
#743=ORIENTED_EDGE('',*,*,#564,.F.);
#744=ORIENTED_EDGE('',*,*,#571,.F.);
#745=ORIENTED_EDGE('',*,*,#572,.F.);
#746=ORIENTED_EDGE('',*,*,#568,.T.);
#747=ORIENTED_EDGE('',*,*,#561,.F.);
#748=ORIENTED_EDGE('',*,*,#573,.F.);
#749=ORIENTED_EDGE('',*,*,#574,.F.);
#750=ORIENTED_EDGE('',*,*,#571,.T.);
#751=ORIENTED_EDGE('',*,*,#575,.F.);
#752=ORIENTED_EDGE('',*,*,#576,.T.);
#753=ORIENTED_EDGE('',*,*,#577,.T.);
#754=ORIENTED_EDGE('',*,*,#576,.F.);
#755=ORIENTED_EDGE('',*,*,#577,.F.);
#756=ORIENTED_EDGE('',*,*,#578,.F.);
#757=ORIENTED_EDGE('',*,*,#579,.T.);
#758=ORIENTED_EDGE('',*,*,#580,.T.);
#759=ORIENTED_EDGE('',*,*,#579,.F.);
#760=ORIENTED_EDGE('',*,*,#580,.F.);
#761=ORIENTED_EDGE('',*,*,#581,.F.);
#762=ORIENTED_EDGE('',*,*,#582,.T.);
#763=ORIENTED_EDGE('',*,*,#583,.T.);
#764=ORIENTED_EDGE('',*,*,#582,.F.);
#765=ORIENTED_EDGE('',*,*,#583,.F.);
#766=ORIENTED_EDGE('',*,*,#584,.F.);
#767=ORIENTED_EDGE('',*,*,#585,.T.);
#768=ORIENTED_EDGE('',*,*,#586,.T.);
#769=ORIENTED_EDGE('',*,*,#585,.F.);
#770=ORIENTED_EDGE('',*,*,#586,.F.);
#771=ORIENTED_EDGE('',*,*,#532,.F.);
#772=ORIENTED_EDGE('',*,*,#587,.F.);
#773=ORIENTED_EDGE('',*,*,#525,.F.);
#774=ORIENTED_EDGE('',*,*,#529,.F.);
#775=ORIENTED_EDGE('',*,*,#535,.T.);
#776=ORIENTED_EDGE('',*,*,#538,.T.);
#777=ORIENTED_EDGE('',*,*,#540,.T.);
#778=ORIENTED_EDGE('',*,*,#588,.T.);
#779=ORIENTED_EDGE('',*,*,#552,.T.);
#780=ORIENTED_EDGE('',*,*,#555,.T.);
#781=ORIENTED_EDGE('',*,*,#557,.T.);
#782=ORIENTED_EDGE('',*,*,#589,.T.);
#783=ORIENTED_EDGE('',*,*,#569,.T.);
#784=ORIENTED_EDGE('',*,*,#572,.T.);
#785=ORIENTED_EDGE('',*,*,#574,.T.);
#786=ORIENTED_EDGE('',*,*,#590,.T.);
#787=ORIENTED_EDGE('',*,*,#518,.T.);
#788=ORIENTED_EDGE('',*,*,#521,.T.);
#789=ORIENTED_EDGE('',*,*,#523,.T.);
#790=ORIENTED_EDGE('',*,*,#591,.T.);
#791=ORIENTED_EDGE('',*,*,#592,.T.);
#792=ORIENTED_EDGE('',*,*,#473,.T.);
#793=ORIENTED_EDGE('',*,*,#477,.T.);
#794=ORIENTED_EDGE('',*,*,#480,.T.);
#795=ORIENTED_EDGE('',*,*,#482,.T.);
#796=ORIENTED_EDGE('',*,*,#485,.T.);
#797=ORIENTED_EDGE('',*,*,#489,.T.);
#798=ORIENTED_EDGE('',*,*,#492,.T.);
#799=ORIENTED_EDGE('',*,*,#494,.T.);
#800=ORIENTED_EDGE('',*,*,#506,.T.);
#801=ORIENTED_EDGE('',*,*,#549,.F.);
#802=ORIENTED_EDGE('',*,*,#593,.F.);
#803=ORIENTED_EDGE('',*,*,#542,.F.);
#804=ORIENTED_EDGE('',*,*,#546,.F.);
#805=ORIENTED_EDGE('',*,*,#515,.F.);
#806=ORIENTED_EDGE('',*,*,#594,.F.);
#807=ORIENTED_EDGE('',*,*,#508,.F.);
#808=ORIENTED_EDGE('',*,*,#512,.F.);
#809=ORIENTED_EDGE('',*,*,#566,.F.);
#810=ORIENTED_EDGE('',*,*,#595,.F.);
#811=ORIENTED_EDGE('',*,*,#559,.F.);
#812=ORIENTED_EDGE('',*,*,#563,.F.);
#813=ORIENTED_EDGE('',*,*,#596,.T.);
#814=ORIENTED_EDGE('',*,*,#597,.T.);
#815=ORIENTED_EDGE('',*,*,#598,.T.);
#816=ORIENTED_EDGE('',*,*,#597,.F.);
#817=ORIENTED_EDGE('',*,*,#599,.F.);
#818=ORIENTED_EDGE('',*,*,#600,.T.);
#819=ORIENTED_EDGE('',*,*,#596,.F.);
#820=ORIENTED_EDGE('',*,*,#600,.F.);
#821=ORIENTED_EDGE('',*,*,#598,.F.);
#822=ORIENTED_EDGE('',*,*,#471,.T.);
#823=ORIENTED_EDGE('',*,*,#481,.T.);
#824=ORIENTED_EDGE('',*,*,#478,.T.);
#825=ORIENTED_EDGE('',*,*,#475,.T.);
#826=ORIENTED_EDGE('',*,*,#483,.T.);
#827=ORIENTED_EDGE('',*,*,#493,.T.);
#828=ORIENTED_EDGE('',*,*,#490,.T.);
#829=ORIENTED_EDGE('',*,*,#487,.T.);
#830=ORIENTED_EDGE('',*,*,#497,.T.);
#831=ORIENTED_EDGE('',*,*,#500,.T.);
#832=ORIENTED_EDGE('',*,*,#503,.T.);
#833=ORIENTED_EDGE('',*,*,#575,.T.);
#834=ORIENTED_EDGE('',*,*,#578,.T.);
#835=ORIENTED_EDGE('',*,*,#581,.T.);
#836=ORIENTED_EDGE('',*,*,#584,.T.);
#837=ORIENTED_EDGE('',*,*,#601,.F.);
#838=ORIENTED_EDGE('',*,*,#602,.T.);
#839=ORIENTED_EDGE('',*,*,#591,.F.);
#840=ORIENTED_EDGE('',*,*,#522,.T.);
#841=ORIENTED_EDGE('',*,*,#509,.F.);
#842=ORIENTED_EDGE('',*,*,#594,.T.);
#843=ORIENTED_EDGE('',*,*,#514,.F.);
#844=ORIENTED_EDGE('',*,*,#519,.T.);
#845=ORIENTED_EDGE('',*,*,#590,.F.);
#846=ORIENTED_EDGE('',*,*,#573,.T.);
#847=ORIENTED_EDGE('',*,*,#560,.F.);
#848=ORIENTED_EDGE('',*,*,#595,.T.);
#849=ORIENTED_EDGE('',*,*,#565,.F.);
#850=ORIENTED_EDGE('',*,*,#570,.T.);
#851=ORIENTED_EDGE('',*,*,#589,.F.);
#852=ORIENTED_EDGE('',*,*,#556,.T.);
#853=ORIENTED_EDGE('',*,*,#543,.F.);
#854=ORIENTED_EDGE('',*,*,#593,.T.);
#855=ORIENTED_EDGE('',*,*,#548,.F.);
#856=ORIENTED_EDGE('',*,*,#553,.T.);
#857=ORIENTED_EDGE('',*,*,#588,.F.);
#858=ORIENTED_EDGE('',*,*,#539,.T.);
#859=ORIENTED_EDGE('',*,*,#526,.F.);
#860=ORIENTED_EDGE('',*,*,#587,.T.);
#861=ORIENTED_EDGE('',*,*,#531,.F.);
#862=ORIENTED_EDGE('',*,*,#536,.T.);
#863=ORIENTED_EDGE('',*,*,#592,.F.);
#864=ORIENTED_EDGE('',*,*,#602,.F.);
#865=ORIENTED_EDGE('',*,*,#599,.T.);
#866=ORIENTED_EDGE('',*,*,#601,.T.);
#867=PLANE('',#960);
#868=PLANE('',#964);
#869=PLANE('',#968);
#870=PLANE('',#972);
#871=PLANE('',#988);
#872=PLANE('',#996);
#873=PLANE('',#999);
#874=PLANE('',#1007);
#875=PLANE('',#1010);
#876=PLANE('',#1018);
#877=PLANE('',#1021);
#878=PLANE('',#1029);
#879=PLANE('',#1032);
#880=PLANE('',#1036);
#881=PLANE('',#1040);
#882=PLANE('',#1044);
#883=PLANE('',#1048);
#884=PLANE('',#1049);
#885=PLANE('',#1051);
#886=PLANE('',#1057);
#887=PLANE('',#1059);
#888=PLANE('',#1061);
#889=PLANE('',#1069);
#890=PLANE('',#1072);
#891=ADVANCED_FACE('',(#128),#867,.F.);
#892=ADVANCED_FACE('',(#129),#102,.F.);
#893=ADVANCED_FACE('',(#130),#868,.F.);
#894=ADVANCED_FACE('',(#131),#103,.F.);
#895=ADVANCED_FACE('',(#132),#869,.F.);
#896=ADVANCED_FACE('',(#133),#104,.F.);
#897=ADVANCED_FACE('',(#134),#870,.F.);
#898=ADVANCED_FACE('',(#135),#105,.F.);
#899=ADVANCED_FACE('',(#136),#106,.F.);
#900=ADVANCED_FACE('',(#137),#107,.F.);
#901=ADVANCED_FACE('',(#138),#108,.F.);
#902=ADVANCED_FACE('',(#139),#109,.T.);
#903=ADVANCED_FACE('',(#140,#28,#29,#30),#871,.T.);
#904=ADVANCED_FACE('',(#141),#110,.T.);
#905=ADVANCED_FACE('',(#142),#15,.T.);
#906=ADVANCED_FACE('',(#143),#111,.T.);
#907=ADVANCED_FACE('',(#144),#872,.T.);
#908=ADVANCED_FACE('',(#145),#112,.T.);
#909=ADVANCED_FACE('',(#146),#873,.T.);
#910=ADVANCED_FACE('',(#147),#113,.T.);
#911=ADVANCED_FACE('',(#148),#16,.T.);
#912=ADVANCED_FACE('',(#149),#114,.T.);
#913=ADVANCED_FACE('',(#150),#874,.T.);
#914=ADVANCED_FACE('',(#151),#115,.T.);
#915=ADVANCED_FACE('',(#152),#875,.T.);
#916=ADVANCED_FACE('',(#153),#116,.T.);
#917=ADVANCED_FACE('',(#154),#17,.T.);
#918=ADVANCED_FACE('',(#155),#117,.T.);
#919=ADVANCED_FACE('',(#156),#876,.T.);
#920=ADVANCED_FACE('',(#157),#118,.T.);
#921=ADVANCED_FACE('',(#158),#877,.T.);
#922=ADVANCED_FACE('',(#159),#119,.T.);
#923=ADVANCED_FACE('',(#160),#18,.T.);
#924=ADVANCED_FACE('',(#161),#120,.T.);
#925=ADVANCED_FACE('',(#162),#878,.T.);
#926=ADVANCED_FACE('',(#163),#121,.T.);
#927=ADVANCED_FACE('',(#164),#879,.T.);
#928=ADVANCED_FACE('',(#165),#122,.F.);
#929=ADVANCED_FACE('',(#166),#880,.T.);
#930=ADVANCED_FACE('',(#167),#123,.F.);
#931=ADVANCED_FACE('',(#168),#881,.T.);
#932=ADVANCED_FACE('',(#169),#124,.F.);
#933=ADVANCED_FACE('',(#170),#882,.T.);
#934=ADVANCED_FACE('',(#171),#125,.F.);
#935=ADVANCED_FACE('',(#172),#883,.T.);
#936=ADVANCED_FACE('',(#173),#884,.T.);
#937=ADVANCED_FACE('',(#174,#31,#32,#33),#885,.T.);
#938=ADVANCED_FACE('',(#175),#886,.T.);
#939=ADVANCED_FACE('',(#176),#887,.T.);
#940=ADVANCED_FACE('',(#177),#888,.T.);
#941=ADVANCED_FACE('',(#178),#19,.T.);
#942=ADVANCED_FACE('',(#179),#126,.T.);
#943=ADVANCED_FACE('',(#180,#34,#35,#36,#37,#38,#39,#40,#41,#42),#889,.F.);
#944=ADVANCED_FACE('',(#181),#127,.F.);
#945=ADVANCED_FACE('',(#182,#43),#890,.T.);
#946=CLOSED_SHELL('',(#891,#892,#893,#894,#895,#896,#897,#898,#899,#900,
#901,#902,#903,#904,#905,#906,#907,#908,#909,#910,#911,#912,#913,#914,#915,
#916,#917,#918,#919,#920,#921,#922,#923,#924,#925,#926,#927,#928,#929,#930,
#931,#932,#933,#934,#935,#936,#937,#938,#939,#940,#941,#942,#943,#944,#945));
#947=DERIVED_UNIT_ELEMENT(#949,1.);
#948=DERIVED_UNIT_ELEMENT(#1717,-3.);
#949=(
MASS_UNIT()
NAMED_UNIT(*)
SI_UNIT(.KILO.,.GRAM.)
);
#950=DERIVED_UNIT((#947,#948));
#951=MEASURE_REPRESENTATION_ITEM('density measure',
POSITIVE_RATIO_MEASURE(7850.),#950);
#952=PROPERTY_DEFINITION_REPRESENTATION(#957,#954);
#953=PROPERTY_DEFINITION_REPRESENTATION(#958,#955);
#954=REPRESENTATION('material name',(#956),#1714);
#955=REPRESENTATION('density',(#951),#1714);
#956=DESCRIPTIVE_REPRESENTATION_ITEM('\X2\AC15CCA0\X0\','\X2\AC15CCA0\X0\');
#957=PROPERTY_DEFINITION('material property','material name',#1724);
#958=PROPERTY_DEFINITION('material property','density of part',#1724);
#959=AXIS2_PLACEMENT_3D('',#1367,#1073,#1074);
#960=AXIS2_PLACEMENT_3D('',#1368,#1075,#1076);
#961=AXIS2_PLACEMENT_3D('',#1377,#1081,#1082);
#962=AXIS2_PLACEMENT_3D('',#1379,#1083,#1084);
#963=AXIS2_PLACEMENT_3D('',#1382,#1086,#1087);
#964=AXIS2_PLACEMENT_3D('',#1383,#1088,#1089);
#965=AXIS2_PLACEMENT_3D('',#1389,#1093,#1094);
#966=AXIS2_PLACEMENT_3D('',#1390,#1095,#1096);
#967=AXIS2_PLACEMENT_3D('',#1391,#1097,#1098);
#968=AXIS2_PLACEMENT_3D('',#1392,#1099,#1100);
#969=AXIS2_PLACEMENT_3D('',#1401,#1105,#1106);
#970=AXIS2_PLACEMENT_3D('',#1403,#1107,#1108);
#971=AXIS2_PLACEMENT_3D('',#1406,#1110,#1111);
#972=AXIS2_PLACEMENT_3D('',#1407,#1112,#1113);
#973=AXIS2_PLACEMENT_3D('',#1413,#1117,#1118);
#974=AXIS2_PLACEMENT_3D('',#1414,#1119,#1120);
#975=AXIS2_PLACEMENT_3D('',#1415,#1121,#1122);
#976=AXIS2_PLACEMENT_3D('',#1416,#1123,#1124);
#977=AXIS2_PLACEMENT_3D('',#1418,#1125,#1126);
#978=AXIS2_PLACEMENT_3D('',#1421,#1128,#1129);
#979=AXIS2_PLACEMENT_3D('',#1422,#1130,#1131);
#980=AXIS2_PLACEMENT_3D('',#1424,#1132,#1133);
#981=AXIS2_PLACEMENT_3D('',#1427,#1135,#1136);
#982=AXIS2_PLACEMENT_3D('',#1428,#1137,#1138);
#983=AXIS2_PLACEMENT_3D('',#1430,#1139,#1140);
#984=AXIS2_PLACEMENT_3D('',#1433,#1142,#1143);
#985=AXIS2_PLACEMENT_3D('',#1434,#1144,#1145);
#986=AXIS2_PLACEMENT_3D('',#1436,#1146,#1147);
#987=AXIS2_PLACEMENT_3D('',#1439,#1149,#1150);
#988=AXIS2_PLACEMENT_3D('',#1440,#1151,#1152);
#989=AXIS2_PLACEMENT_3D('',#1441,#1153,#1154);
#990=AXIS2_PLACEMENT_3D('',#1444,#1155,#1156);
#991=AXIS2_PLACEMENT_3D('',#1459,#1159,#1160);
#992=AXIS2_PLACEMENT_3D('',#1462,#1161,#1162);
#993=AXIS2_PLACEMENT_3D('',#1463,#1163,#1164);
#994=AXIS2_PLACEMENT_3D('',#1464,#1165,#1166);
#995=AXIS2_PLACEMENT_3D('',#1465,#1167,#1168);
#996=AXIS2_PLACEMENT_3D('',#1480,#1171,#1172);
#997=AXIS2_PLACEMENT_3D('',#1486,#1176,#1177);
#998=AXIS2_PLACEMENT_3D('',#1489,#1179,#1180);
#999=AXIS2_PLACEMENT_3D('',#1490,#1181,#1182);
#1000=AXIS2_PLACEMENT_3D('',#1494,#1185,#1186);
#1001=AXIS2_PLACEMENT_3D('',#1497,#1187,#1188);
#1002=AXIS2_PLACEMENT_3D('',#1512,#1191,#1192);
#1003=AXIS2_PLACEMENT_3D('',#1515,#1193,#1194);
#1004=AXIS2_PLACEMENT_3D('',#1516,#1195,#1196);
#1005=AXIS2_PLACEMENT_3D('',#1517,#1197,#1198);
#1006=AXIS2_PLACEMENT_3D('',#1518,#1199,#1200);
#1007=AXIS2_PLACEMENT_3D('',#1533,#1203,#1204);
#1008=AXIS2_PLACEMENT_3D('',#1539,#1208,#1209);
#1009=AXIS2_PLACEMENT_3D('',#1542,#1211,#1212);
#1010=AXIS2_PLACEMENT_3D('',#1543,#1213,#1214);
#1011=AXIS2_PLACEMENT_3D('',#1547,#1217,#1218);
#1012=AXIS2_PLACEMENT_3D('',#1550,#1219,#1220);
#1013=AXIS2_PLACEMENT_3D('',#1565,#1223,#1224);
#1014=AXIS2_PLACEMENT_3D('',#1568,#1225,#1226);
#1015=AXIS2_PLACEMENT_3D('',#1569,#1227,#1228);
#1016=AXIS2_PLACEMENT_3D('',#1570,#1229,#1230);
#1017=AXIS2_PLACEMENT_3D('',#1571,#1231,#1232);
#1018=AXIS2_PLACEMENT_3D('',#1586,#1235,#1236);
#1019=AXIS2_PLACEMENT_3D('',#1592,#1240,#1241);
#1020=AXIS2_PLACEMENT_3D('',#1595,#1243,#1244);
#1021=AXIS2_PLACEMENT_3D('',#1596,#1245,#1246);
#1022=AXIS2_PLACEMENT_3D('',#1600,#1249,#1250);
#1023=AXIS2_PLACEMENT_3D('',#1603,#1251,#1252);
#1024=AXIS2_PLACEMENT_3D('',#1618,#1255,#1256);
#1025=AXIS2_PLACEMENT_3D('',#1621,#1257,#1258);
#1026=AXIS2_PLACEMENT_3D('',#1622,#1259,#1260);
#1027=AXIS2_PLACEMENT_3D('',#1623,#1261,#1262);
#1028=AXIS2_PLACEMENT_3D('',#1624,#1263,#1264);
#1029=AXIS2_PLACEMENT_3D('',#1639,#1267,#1268);
#1030=AXIS2_PLACEMENT_3D('',#1645,#1272,#1273);
#1031=AXIS2_PLACEMENT_3D('',#1648,#1275,#1276);
#1032=AXIS2_PLACEMENT_3D('',#1649,#1277,#1278);
#1033=AXIS2_PLACEMENT_3D('',#1653,#1281,#1282);
#1034=AXIS2_PLACEMENT_3D('',#1655,#1283,#1284);
#1035=AXIS2_PLACEMENT_3D('',#1658,#1286,#1287);
#1036=AXIS2_PLACEMENT_3D('',#1659,#1288,#1289);
#1037=AXIS2_PLACEMENT_3D('',#1660,#1290,#1291);
#1038=AXIS2_PLACEMENT_3D('',#1662,#1292,#1293);
#1039=AXIS2_PLACEMENT_3D('',#1665,#1295,#1296);
#1040=AXIS2_PLACEMENT_3D('',#1666,#1297,#1298);
#1041=AXIS2_PLACEMENT_3D('',#1667,#1299,#1300);
#1042=AXIS2_PLACEMENT_3D('',#1669,#1301,#1302);
#1043=AXIS2_PLACEMENT_3D('',#1672,#1304,#1305);
#1044=AXIS2_PLACEMENT_3D('',#1673,#1306,#1307);
#1045=AXIS2_PLACEMENT_3D('',#1674,#1308,#1309);
#1046=AXIS2_PLACEMENT_3D('',#1676,#1310,#1311);
#1047=AXIS2_PLACEMENT_3D('',#1679,#1313,#1314);
#1048=AXIS2_PLACEMENT_3D('',#1680,#1315,#1316);
#1049=AXIS2_PLACEMENT_3D('',#1681,#1317,#1318);
#1050=AXIS2_PLACEMENT_3D('',#1682,#1319,#1320);
#1051=AXIS2_PLACEMENT_3D('',#1683,#1321,#1322);
#1052=AXIS2_PLACEMENT_3D('',#1684,#1323,#1324);
#1053=AXIS2_PLACEMENT_3D('',#1685,#1325,#1326);
#1054=AXIS2_PLACEMENT_3D('',#1686,#1327,#1328);
#1055=AXIS2_PLACEMENT_3D('',#1688,#1329,#1330);
#1056=AXIS2_PLACEMENT_3D('',#1689,#1331,#1332);
#1057=AXIS2_PLACEMENT_3D('',#1690,#1333,#1334);
#1058=AXIS2_PLACEMENT_3D('',#1691,#1335,#1336);
#1059=AXIS2_PLACEMENT_3D('',#1692,#1337,#1338);
#1060=AXIS2_PLACEMENT_3D('',#1693,#1339,#1340);
#1061=AXIS2_PLACEMENT_3D('',#1694,#1341,#1342);
#1062=AXIS2_PLACEMENT_3D('',#1695,#1343,#1344);
#1063=AXIS2_PLACEMENT_3D('',#1696,#1345,#1346);
#1064=AXIS2_PLACEMENT_3D('',#1698,#1347,#1348);
#1065=AXIS2_PLACEMENT_3D('',#1700,#1349,#1350);
#1066=AXIS2_PLACEMENT_3D('',#1701,#1351,#1352);
#1067=AXIS2_PLACEMENT_3D('',#1702,#1353,#1354);
#1068=AXIS2_PLACEMENT_3D('',#1704,#1355,#1356);
#1069=AXIS2_PLACEMENT_3D('',#1706,#1358,#1359);
#1070=AXIS2_PLACEMENT_3D('',#1707,#1360,#1361);
#1071=AXIS2_PLACEMENT_3D('',#1709,#1362,#1363);
#1072=AXIS2_PLACEMENT_3D('',#1711,#1365,#1366);
#1073=DIRECTION('axis',(0.,0.,1.));
#1074=DIRECTION('refdir',(1.,0.,0.));
#1075=DIRECTION('center_axis',(-1.,0.,0.));
#1076=DIRECTION('ref_axis',(0.,-1.,0.));
#1077=DIRECTION('',(0.,-1.,0.));
#1078=DIRECTION('',(0.,0.,1.));
#1079=DIRECTION('',(0.,1.,0.));
#1080=DIRECTION('',(0.,0.,1.));
#1081=DIRECTION('center_axis',(0.,0.,1.));
#1082=DIRECTION('ref_axis',(-1.,0.,0.));
#1083=DIRECTION('center_axis',(0.,0.,1.));
#1084=DIRECTION('ref_axis',(-1.,0.,0.));
#1085=DIRECTION('',(0.,0.,1.));
#1086=DIRECTION('center_axis',(0.,0.,-1.));
#1087=DIRECTION('ref_axis',(-1.,0.,0.));
#1088=DIRECTION('center_axis',(1.,0.,0.));
#1089=DIRECTION('ref_axis',(0.,1.,0.));
#1090=DIRECTION('',(0.,1.,0.));
#1091=DIRECTION('',(0.,0.,1.));
#1092=DIRECTION('',(0.,-1.,0.));
#1093=DIRECTION('center_axis',(0.,0.,1.));
#1094=DIRECTION('ref_axis',(1.,0.,0.));
#1095=DIRECTION('center_axis',(0.,0.,1.));
#1096=DIRECTION('ref_axis',(1.,0.,0.));
#1097=DIRECTION('center_axis',(0.,0.,-1.));
#1098=DIRECTION('ref_axis',(1.,0.,0.));
#1099=DIRECTION('center_axis',(1.,0.,0.));
#1100=DIRECTION('ref_axis',(0.,1.,0.));
#1101=DIRECTION('',(0.,1.,0.));
#1102=DIRECTION('',(0.,0.,1.));
#1103=DIRECTION('',(0.,-1.,0.));
#1104=DIRECTION('',(0.,0.,1.));
#1105=DIRECTION('center_axis',(0.,0.,1.));
#1106=DIRECTION('ref_axis',(1.,0.,0.));
#1107=DIRECTION('center_axis',(0.,0.,1.));
#1108=DIRECTION('ref_axis',(1.,0.,0.));
#1109=DIRECTION('',(0.,0.,1.));
#1110=DIRECTION('center_axis',(0.,0.,-1.));
#1111=DIRECTION('ref_axis',(1.,0.,0.));
#1112=DIRECTION('center_axis',(-1.,0.,0.));
#1113=DIRECTION('ref_axis',(0.,-1.,0.));
#1114=DIRECTION('',(0.,-1.,0.));
#1115=DIRECTION('',(0.,0.,1.));
#1116=DIRECTION('',(0.,1.,0.));
#1117=DIRECTION('center_axis',(0.,0.,1.));
#1118=DIRECTION('ref_axis',(-1.,0.,0.));
#1119=DIRECTION('center_axis',(0.,0.,1.));
#1120=DIRECTION('ref_axis',(-1.,0.,0.));
#1121=DIRECTION('center_axis',(0.,0.,-1.));
#1122=DIRECTION('ref_axis',(-1.,0.,0.));
#1123=DIRECTION('center_axis',(0.,0.,-1.));
#1124=DIRECTION('ref_axis',(-1.,0.,0.));
#1125=DIRECTION('center_axis',(0.,0.,-1.));
#1126=DIRECTION('ref_axis',(-1.,0.,0.));
#1127=DIRECTION('',(0.,0.,-1.));
#1128=DIRECTION('center_axis',(0.,0.,1.));
#1129=DIRECTION('ref_axis',(-1.,0.,0.));
#1130=DIRECTION('center_axis',(0.,0.,-1.));
#1131=DIRECTION('ref_axis',(-1.,0.,0.));
#1132=DIRECTION('center_axis',(0.,0.,-1.));
#1133=DIRECTION('ref_axis',(-1.,0.,0.));
#1134=DIRECTION('',(0.,0.,-1.));
#1135=DIRECTION('center_axis',(0.,0.,1.));
#1136=DIRECTION('ref_axis',(-1.,0.,0.));
#1137=DIRECTION('center_axis',(0.,0.,-1.));
#1138=DIRECTION('ref_axis',(-1.,0.,0.));
#1139=DIRECTION('center_axis',(0.,0.,-1.));
#1140=DIRECTION('ref_axis',(-1.,0.,0.));
#1141=DIRECTION('',(0.,0.,-1.));
#1142=DIRECTION('center_axis',(0.,0.,1.));
#1143=DIRECTION('ref_axis',(-1.,0.,0.));
#1144=DIRECTION('center_axis',(0.,0.,1.));
#1145=DIRECTION('ref_axis',(-1.,0.,0.));
#1146=DIRECTION('center_axis',(0.,0.,1.));
#1147=DIRECTION('ref_axis',(-1.,0.,0.));
#1148=DIRECTION('',(0.,0.,-1.));
#1149=DIRECTION('center_axis',(0.,0.,-1.));
#1150=DIRECTION('ref_axis',(-1.,0.,0.));
#1151=DIRECTION('center_axis',(0.,0.,1.));
#1152=DIRECTION('ref_axis',(-1.,0.,0.));
#1153=DIRECTION('center_axis',(-1.,1.25081389221083E-15,0.));
#1154=DIRECTION('ref_axis',(0.,0.707106781186548,0.707106781186548));
#1155=DIRECTION('center_axis',(1.,0.,0.));
#1156=DIRECTION('ref_axis',(0.,1.,0.));
#1157=DIRECTION('',(1.,-1.25081389221083E-15,0.));
#1158=DIRECTION('',(-1.,1.25081389221083E-15,0.));
#1159=DIRECTION('center_axis',(0.,0.,1.));
#1160=DIRECTION('ref_axis',(-1.,1.77635683940026E-15,0.));
#1161=DIRECTION('center_axis',(-1.,0.,0.));
#1162=DIRECTION('ref_axis',(0.,-1.,0.));
#1163=DIRECTION('center_axis',(0.,0.,-1.));
#1164=DIRECTION('ref_axis',(-1.,1.48029736616688E-15,0.));
#1165=DIRECTION('center_axis',(0.,0.,1.));
#1166=DIRECTION('ref_axis',(-1.,1.48029736616688E-15,0.));
#1167=DIRECTION('center_axis',(1.,1.41457962564925E-15,0.));
#1168=DIRECTION('ref_axis',(0.,-0.707106781186548,0.707106781186547));
#1169=DIRECTION('',(-1.,-1.41457962564925E-15,0.));
#1170=DIRECTION('',(1.,1.41457962564925E-15,0.));
#1171=DIRECTION('center_axis',(1.41457962564925E-15,-1.,0.));
#1172=DIRECTION('ref_axis',(1.,1.41457962564925E-15,0.));
#1173=DIRECTION('',(0.,0.,1.));
#1174=DIRECTION('',(-1.,-1.41457962564925E-15,0.));
#1175=DIRECTION('',(0.,0.,-1.));
#1176=DIRECTION('center_axis',(0.,0.,1.));
#1177=DIRECTION('ref_axis',(1.48029736616688E-15,1.,0.));
#1178=DIRECTION('',(0.,0.,1.));
#1179=DIRECTION('center_axis',(0.,0.,-1.));
#1180=DIRECTION('ref_axis',(1.48029736616688E-15,1.,0.));
#1181=DIRECTION('center_axis',(1.25081389221083E-15,1.,0.));
#1182=DIRECTION('ref_axis',(-1.,1.25081389221083E-15,0.));
#1183=DIRECTION('',(0.,0.,1.));
#1184=DIRECTION('',(1.,-1.25081389221083E-15,0.));
#1185=DIRECTION('center_axis',(-1.,4.04165620937725E-16,0.));
#1186=DIRECTION('ref_axis',(0.,0.707106781186548,0.707106781186547));
#1187=DIRECTION('center_axis',(1.,0.,0.));
#1188=DIRECTION('ref_axis',(0.,1.,0.));
#1189=DIRECTION('',(1.,-4.04165620937725E-16,0.));
#1190=DIRECTION('',(-1.,4.04165620937725E-16,0.));
#1191=DIRECTION('center_axis',(0.,0.,1.));
#1192=DIRECTION('ref_axis',(-1.,2.99363011417123E-8,0.));
#1193=DIRECTION('center_axis',(-0.999999999999992,-1.251221659615E-7,0.));
#1194=DIRECTION('ref_axis',(1.251221659615E-7,-0.999999999999992,0.));
#1195=DIRECTION('center_axis',(0.,0.,-1.));
#1196=DIRECTION('ref_axis',(-1.,-8.96159442949814E-10,0.));
#1197=DIRECTION('center_axis',(0.,0.,1.));
#1198=DIRECTION('ref_axis',(-1.,-8.96159442949814E-10,0.));
#1199=DIRECTION('center_axis',(1.,-8.93438521318045E-17,0.));
#1200=DIRECTION('ref_axis',(0.,-0.707106781186548,0.707106781186547));
#1201=DIRECTION('',(-1.,8.93438521318045E-17,0.));
#1202=DIRECTION('',(1.,-8.93438521318045E-17,0.));
#1203=DIRECTION('center_axis',(-8.93438521318045E-17,-1.,0.));
#1204=DIRECTION('ref_axis',(1.,-8.93438521318045E-17,0.));
#1205=DIRECTION('',(0.,0.,1.));
#1206=DIRECTION('',(-1.,8.93438521318045E-17,0.));
#1207=DIRECTION('',(0.,0.,-1.));
#1208=DIRECTION('center_axis',(0.,0.,1.));
#1209=DIRECTION('ref_axis',(-1.,-8.96158641568436E-10,0.));
#1210=DIRECTION('',(0.,0.,1.));
#1211=DIRECTION('center_axis',(0.,0.,-1.));
#1212=DIRECTION('ref_axis',(1.23329844115006E-7,0.999999999999992,0.));
#1213=DIRECTION('center_axis',(4.04165620937725E-16,1.,0.));
#1214=DIRECTION('ref_axis',(-1.,4.04165620937725E-16,0.));
#1215=DIRECTION('',(0.,0.,1.));
#1216=DIRECTION('',(1.,-4.04165620937725E-16,0.));
#1217=DIRECTION('center_axis',(1.,-8.93438521362967E-17,0.));
#1218=DIRECTION('ref_axis',(0.,-0.707106781186548,0.707106781186547));
#1219=DIRECTION('center_axis',(-1.,0.,0.));
#1220=DIRECTION('ref_axis',(0.,-1.,0.));
#1221=DIRECTION('',(-1.,8.93438521362967E-17,0.));
#1222=DIRECTION('',(1.,-8.93438521362967E-17,0.));
#1223=DIRECTION('center_axis',(0.,0.,1.));
#1224=DIRECTION('ref_axis',(1.,0.,0.));
#1225=DIRECTION('center_axis',(0.999999999999992,1.23615366831586E-7,0.));
#1226=DIRECTION('ref_axis',(-1.23615366831587E-7,0.999999999999992,0.));
#1227=DIRECTION('center_axis',(0.,0.,-1.));
#1228=DIRECTION('ref_axis',(1.,-6.10639686963547E-10,0.));
#1229=DIRECTION('center_axis',(0.,0.,1.));
#1230=DIRECTION('ref_axis',(1.,-6.10639686963547E-10,0.));
#1231=DIRECTION('center_axis',(-1.,2.02082810474306E-16,0.));
#1232=DIRECTION('ref_axis',(0.,0.707106781186548,0.707106781186547));
#1233=DIRECTION('',(1.,-2.02082810474306E-16,0.));
#1234=DIRECTION('',(-1.,2.02082810474306E-16,0.));
#1235=DIRECTION('center_axis',(2.02082810474306E-16,1.,0.));
#1236=DIRECTION('ref_axis',(-1.,2.02082810474306E-16,0.));
#1237=DIRECTION('',(0.,0.,1.));
#1238=DIRECTION('',(1.,-2.02082810474306E-16,0.));
#1239=DIRECTION('',(0.,0.,-1.));
#1240=DIRECTION('center_axis',(0.,0.,1.));
#1241=DIRECTION('ref_axis',(1.,-6.10639156077199E-10,0.));
#1242=DIRECTION('',(0.,0.,1.));
#1243=DIRECTION('center_axis',(0.,0.,-1.));
#1244=DIRECTION('ref_axis',(-1.24836643244919E-7,-0.999999999999992,0.));
#1245=DIRECTION('center_axis',(-8.93438521362967E-17,-1.,0.));
#1246=DIRECTION('ref_axis',(1.,-8.93438521362967E-17,0.));
#1247=DIRECTION('',(0.,0.,1.));
#1248=DIRECTION('',(-1.,8.93438521362967E-17,0.));
#1249=DIRECTION('center_axis',(1.,4.04165620892626E-16,0.));
#1250=DIRECTION('ref_axis',(0.,-0.707106781186548,0.707106781186547));
#1251=DIRECTION('center_axis',(-1.,0.,0.));
#1252=DIRECTION('ref_axis',(0.,-1.,0.));
#1253=DIRECTION('',(-1.,-4.04165620892626E-16,0.));
#1254=DIRECTION('',(1.,4.04165620892626E-16,0.));
#1255=DIRECTION('center_axis',(0.,0.,1.));
#1256=DIRECTION('ref_axis',(1.,0.,0.));
#1257=DIRECTION('center_axis',(0.999999999999992,1.24635533005346E-7,0.));
#1258=DIRECTION('ref_axis',(-1.24635533005346E-7,0.999999999999992,0.));
#1259=DIRECTION('center_axis',(0.,0.,-1.));
#1260=DIRECTION('ref_axis',(1.,8.57190614785471E-10,0.));
#1261=DIRECTION('center_axis',(0.,0.,1.));
#1262=DIRECTION('ref_axis',(1.,8.57190614785471E-10,0.));
#1263=DIRECTION('center_axis',(-1.,0.,0.));
#1264=DIRECTION('ref_axis',(0.,0.707106781186548,0.707106781186547));
#1265=DIRECTION('',(1.,0.,0.));
#1266=DIRECTION('',(-1.,0.,0.));
#1267=DIRECTION('center_axis',(0.,1.,0.));
#1268=DIRECTION('ref_axis',(-1.,0.,0.));
#1269=DIRECTION('',(0.,0.,1.));
#1270=DIRECTION('',(1.,0.,0.));
#1271=DIRECTION('',(0.,0.,-1.));
#1272=DIRECTION('center_axis',(0.,0.,1.));
#1273=DIRECTION('ref_axis',(1.,8.57190553552776E-10,0.));
#1274=DIRECTION('',(0.,0.,1.));
#1275=DIRECTION('center_axis',(0.,0.,-1.));
#1276=DIRECTION('ref_axis',(-1.22921150295478E-7,-0.999999999999992,0.));
#1277=DIRECTION('center_axis',(4.04165620892626E-16,-1.,0.));
#1278=DIRECTION('ref_axis',(1.,4.04165620892626E-16,0.));
#1279=DIRECTION('',(0.,0.,1.));
#1280=DIRECTION('',(-1.,-4.04165620892626E-16,0.));
#1281=DIRECTION('center_axis',(0.,0.,1.));
#1282=DIRECTION('ref_axis',(1.,0.,0.));
#1283=DIRECTION('center_axis',(0.,0.,1.));
#1284=DIRECTION('ref_axis',(1.,0.,0.));
#1285=DIRECTION('',(0.,0.,1.));
#1286=DIRECTION('center_axis',(0.,0.,1.));
#1287=DIRECTION('ref_axis',(1.,0.,0.));
#1288=DIRECTION('center_axis',(0.,0.,-1.));
#1289=DIRECTION('ref_axis',(1.,0.,0.));
#1290=DIRECTION('center_axis',(0.,0.,1.));
#1291=DIRECTION('ref_axis',(1.,0.,0.));
#1292=DIRECTION('center_axis',(0.,0.,1.));
#1293=DIRECTION('ref_axis',(1.,0.,0.));
#1294=DIRECTION('',(0.,0.,1.));
#1295=DIRECTION('center_axis',(0.,0.,1.));
#1296=DIRECTION('ref_axis',(1.,0.,0.));
#1297=DIRECTION('center_axis',(0.,0.,-1.));
#1298=DIRECTION('ref_axis',(1.,0.,0.));
#1299=DIRECTION('center_axis',(0.,0.,1.));
#1300=DIRECTION('ref_axis',(1.,0.,0.));
#1301=DIRECTION('center_axis',(0.,0.,1.));
#1302=DIRECTION('ref_axis',(1.,0.,0.));
#1303=DIRECTION('',(0.,0.,1.));
#1304=DIRECTION('center_axis',(0.,0.,1.));
#1305=DIRECTION('ref_axis',(1.,0.,0.));
#1306=DIRECTION('center_axis',(0.,0.,-1.));
#1307=DIRECTION('ref_axis',(1.,0.,0.));
#1308=DIRECTION('center_axis',(0.,0.,1.));
#1309=DIRECTION('ref_axis',(1.,0.,0.));
#1310=DIRECTION('center_axis',(0.,0.,1.));
#1311=DIRECTION('ref_axis',(1.,0.,0.));
#1312=DIRECTION('',(0.,0.,1.));
#1313=DIRECTION('center_axis',(0.,0.,1.));
#1314=DIRECTION('ref_axis',(1.,0.,0.));
#1315=DIRECTION('center_axis',(0.,0.,-1.));
#1316=DIRECTION('ref_axis',(1.,0.,0.));
#1317=DIRECTION('center_axis',(0.,0.,1.));
#1318=DIRECTION('ref_axis',(-1.,0.,0.));
#1319=DIRECTION('center_axis',(0.,0.,-1.));
#1320=DIRECTION('ref_axis',(-1.,0.,0.));
#1321=DIRECTION('center_axis',(0.,0.,1.));
#1322=DIRECTION('ref_axis',(1.,0.,0.));
#1323=DIRECTION('center_axis',(0.,0.,1.));
#1324=DIRECTION('ref_axis',(-1.,0.,0.));
#1325=DIRECTION('center_axis',(0.,0.,1.));
#1326=DIRECTION('ref_axis',(-1.,0.,0.));
#1327=DIRECTION('center_axis',(0.,0.,1.));
#1328=DIRECTION('ref_axis',(-1.,0.,0.));
#1329=DIRECTION('center_axis',(0.,0.,1.));
#1330=DIRECTION('ref_axis',(-1.,0.,0.));
#1331=DIRECTION('center_axis',(0.,0.,1.));
#1332=DIRECTION('ref_axis',(-1.,0.,0.));
#1333=DIRECTION('center_axis',(0.,0.,1.));
#1334=DIRECTION('ref_axis',(-1.,0.,0.));
#1335=DIRECTION('center_axis',(0.,0.,-1.));
#1336=DIRECTION('ref_axis',(-1.,0.,0.));
#1337=DIRECTION('center_axis',(0.,0.,1.));
#1338=DIRECTION('ref_axis',(-1.,0.,0.));
#1339=DIRECTION('center_axis',(0.,0.,-1.));
#1340=DIRECTION('ref_axis',(-1.,0.,0.));
#1341=DIRECTION('center_axis',(0.,0.,1.));
#1342=DIRECTION('ref_axis',(-1.,0.,0.));
#1343=DIRECTION('center_axis',(0.,0.,-1.));
#1344=DIRECTION('ref_axis',(-1.,0.,0.));
#1345=DIRECTION('center_axis',(0.,0.,1.));
#1346=DIRECTION('ref_axis',(1.,0.,0.));
#1347=DIRECTION('center_axis',(0.,0.,-1.));
#1348=DIRECTION('ref_axis',(1.,0.,0.));
#1349=DIRECTION('center_axis',(1.22464679914735E-16,-1.,0.));
#1350=DIRECTION('ref_axis',(-1.,-1.22464679914735E-16,0.));
#1351=DIRECTION('center_axis',(0.,0.,1.));
#1352=DIRECTION('ref_axis',(1.,0.,0.));
#1353=DIRECTION('center_axis',(0.,0.,1.));
#1354=DIRECTION('ref_axis',(1.,0.,0.));
#1355=DIRECTION('center_axis',(0.,0.,1.));
#1356=DIRECTION('ref_axis',(-1.,0.,0.));
#1357=DIRECTION('',(0.,0.,-1.));
#1358=DIRECTION('center_axis',(0.,0.,1.));
#1359=DIRECTION('ref_axis',(1.,0.,0.));
#1360=DIRECTION('center_axis',(0.,0.,1.));
#1361=DIRECTION('ref_axis',(-1.,0.,0.));
#1362=DIRECTION('center_axis',(0.,0.,-1.));
#1363=DIRECTION('ref_axis',(-1.,0.,0.));
#1364=DIRECTION('',(0.,0.,-1.));
#1365=DIRECTION('center_axis',(0.,0.,1.));
#1366=DIRECTION('ref_axis',(-1.,0.,0.));
#1367=CARTESIAN_POINT('',(0.,0.,0.));
#1368=CARTESIAN_POINT('Origin',(-21.,5.,0.));
#1369=CARTESIAN_POINT('',(-21.,5.,0.));
#1370=CARTESIAN_POINT('',(-21.,-5.,0.));
#1371=CARTESIAN_POINT('',(-21.,2.5,0.));
#1372=CARTESIAN_POINT('',(-21.,5.,2.));
#1373=CARTESIAN_POINT('',(-21.,5.,0.));
#1374=CARTESIAN_POINT('',(-21.,-5.,2.));
#1375=CARTESIAN_POINT('',(-21.,2.5,2.));
#1376=CARTESIAN_POINT('',(-21.,-5.,0.));
#1377=CARTESIAN_POINT('Origin',(-18.5,5.,0.));
#1378=CARTESIAN_POINT('',(-16.,5.,0.));
#1379=CARTESIAN_POINT('Origin',(-18.5,5.,0.));
#1380=CARTESIAN_POINT('',(-16.,5.,2.));
#1381=CARTESIAN_POINT('',(-16.,5.,0.));
#1382=CARTESIAN_POINT('Origin',(-18.5,5.,2.));
#1383=CARTESIAN_POINT('Origin',(-16.,-5.,0.));
#1384=CARTESIAN_POINT('',(-16.,-5.,0.));
#1385=CARTESIAN_POINT('',(-16.,-2.5,0.));
#1386=CARTESIAN_POINT('',(-16.,-5.,2.));
#1387=CARTESIAN_POINT('',(-16.,-5.,0.));
#1388=CARTESIAN_POINT('',(-16.,-2.5,2.));
#1389=CARTESIAN_POINT('Origin',(-18.5,-5.,0.));
#1390=CARTESIAN_POINT('Origin',(-18.5,-5.,0.));
#1391=CARTESIAN_POINT('Origin',(-18.5,-5.,2.));
#1392=CARTESIAN_POINT('Origin',(21.,-5.,0.));
#1393=CARTESIAN_POINT('',(21.,-5.,0.));
#1394=CARTESIAN_POINT('',(21.,5.,0.));
#1395=CARTESIAN_POINT('',(21.,-2.5,0.));
#1396=CARTESIAN_POINT('',(21.,-5.,2.));
#1397=CARTESIAN_POINT('',(21.,-5.,0.));
#1398=CARTESIAN_POINT('',(21.,5.,2.));
#1399=CARTESIAN_POINT('',(21.,-2.5,2.));
#1400=CARTESIAN_POINT('',(21.,5.,0.));
#1401=CARTESIAN_POINT('Origin',(18.5,-5.,0.));
#1402=CARTESIAN_POINT('',(16.,-5.,0.));
#1403=CARTESIAN_POINT('Origin',(18.5,-5.,0.));
#1404=CARTESIAN_POINT('',(16.,-5.,2.));
#1405=CARTESIAN_POINT('',(16.,-5.,0.));
#1406=CARTESIAN_POINT('Origin',(18.5,-5.,2.));
#1407=CARTESIAN_POINT('Origin',(16.,5.,0.));
#1408=CARTESIAN_POINT('',(16.,5.,0.));
#1409=CARTESIAN_POINT('',(16.,2.5,0.));
#1410=CARTESIAN_POINT('',(16.,5.,2.));
#1411=CARTESIAN_POINT('',(16.,5.,0.));
#1412=CARTESIAN_POINT('',(16.,2.5,2.));
#1413=CARTESIAN_POINT('Origin',(18.5,5.,0.));
#1414=CARTESIAN_POINT('Origin',(18.5,5.,0.));
#1415=CARTESIAN_POINT('Origin',(18.5,5.,2.));
#1416=CARTESIAN_POINT('Origin',(-8.7,0.,3.));
#1417=CARTESIAN_POINT('',(-6.7,2.44929359829471E-16,3.));
#1418=CARTESIAN_POINT('Origin',(-8.7,0.,3.));
#1419=CARTESIAN_POINT('',(-6.7,2.44929359829471E-16,0.));
#1420=CARTESIAN_POINT('',(-6.7,-2.44929359829471E-16,3.));
#1421=CARTESIAN_POINT('Origin',(-8.7,0.,0.));
#1422=CARTESIAN_POINT('Origin',(0.,0.,3.));
#1423=CARTESIAN_POINT('',(2.,2.44929359829471E-16,3.));
#1424=CARTESIAN_POINT('Origin',(0.,0.,3.));
#1425=CARTESIAN_POINT('',(2.,2.44929359829471E-16,0.));
#1426=CARTESIAN_POINT('',(2.,-2.44929359829471E-16,3.));
#1427=CARTESIAN_POINT('Origin',(0.,0.,0.));
#1428=CARTESIAN_POINT('Origin',(8.7,0.,3.));
#1429=CARTESIAN_POINT('',(10.7,2.44929359829471E-16,3.));
#1430=CARTESIAN_POINT('Origin',(8.7,0.,3.));
#1431=CARTESIAN_POINT('',(10.7,2.44929359829471E-16,0.));
#1432=CARTESIAN_POINT('',(10.7,-2.44929359829471E-16,3.));
#1433=CARTESIAN_POINT('Origin',(8.7,0.,0.));
#1434=CARTESIAN_POINT('Origin',(0.,0.,2.));
#1435=CARTESIAN_POINT('',(15.,1.83697019872103E-15,3.));
#1436=CARTESIAN_POINT('Origin',(0.,0.,3.));
#1437=CARTESIAN_POINT('',(15.,1.83697019872103E-15,2.));
#1438=CARTESIAN_POINT('',(15.,1.83697019872103E-15,2.));
#1439=CARTESIAN_POINT('Origin',(0.,0.,2.));
#1440=CARTESIAN_POINT('Origin',(0.,0.,3.));
#1441=CARTESIAN_POINT('Origin',(38.5698051533946,-8.00000000000002,6.));
#1442=CARTESIAN_POINT('',(30.,-7.00000000000001,6.));
#1443=CARTESIAN_POINT('',(30.,-8.00000000000001,7.));
#1444=CARTESIAN_POINT('Origin',(30.,-8.00000000000001,6.));
#1445=CARTESIAN_POINT('',(42.2492603485552,-8.00000000000003,7.));
#1446=CARTESIAN_POINT('',(38.5698051533946,-8.00000000000002,7.));
#1447=CARTESIAN_POINT('',(42.4264068711928,-7.00000000000003,6.));
#1448=CARTESIAN_POINT('Ctrl Pts',(42.4264068711928,-7.00000000000003,6.));
#1449=CARTESIAN_POINT('Ctrl Pts',(42.4264068711928,-7.00000000000003,6.12543019452574));
#1450=CARTESIAN_POINT('Ctrl Pts',(42.4222969161758,-7.02505312013878,6.25910456830011));
#1451=CARTESIAN_POINT('Ctrl Pts',(42.4053647286269,-7.12654819825867,6.50471629672634));
#1452=CARTESIAN_POINT('Ctrl Pts',(42.3925112433746,-7.20298022121971,6.61665560123995));
#1453=CARTESIAN_POINT('Ctrl Pts',(42.362034119753,-7.38012791381467,6.79487636858581));
#1454=CARTESIAN_POINT('Ctrl Pts',(42.3422663505728,-7.49321381486961,6.87239620774705));
#1455=CARTESIAN_POINT('Ctrl Pts',(42.2977733194897,-7.74042280447521,6.97494977197377));
#1456=CARTESIAN_POINT('Ctrl Pts',(42.2730177187724,-7.87453358506195,7.));
#1457=CARTESIAN_POINT('Ctrl Pts',(42.2492603485552,-8.00000000000002,7.));
#1458=CARTESIAN_POINT('',(38.5698051533946,-7.00000000000002,6.));
#1459=CARTESIAN_POINT('Origin',(30.,-10.,6.));
#1460=CARTESIAN_POINT('',(30.,-13.,6.));
#1461=CARTESIAN_POINT('',(30.,-12.,7.));
#1462=CARTESIAN_POINT('Origin',(30.,-12.,6.));
#1463=CARTESIAN_POINT('Origin',(30.,-10.,7.));
#1464=CARTESIAN_POINT('Origin',(30.,-10.,6.));
#1465=CARTESIAN_POINT('Origin',(32.3566017177982,-12.,6.));
#1466=CARTESIAN_POINT('',(40.9878030638384,-13.,6.));
#1467=CARTESIAN_POINT('',(41.2916456441252,-12.,7.));
#1468=CARTESIAN_POINT('Ctrl Pts',(41.2916456441252,-12.,7.));
#1469=CARTESIAN_POINT('Ctrl Pts',(41.254972761811,-12.1261903051053,7.));
#1470=CARTESIAN_POINT('Ctrl Pts',(41.2151251977407,-12.2609252760787,6.97470218537155));
#1471=CARTESIAN_POINT('Ctrl Pts',(41.1403851713414,-12.5094181177465,6.87098767362152));
#1472=CARTESIAN_POINT('Ctrl Pts',(41.1055256792127,-12.6231786203882,6.79255352644458));
#1473=CARTESIAN_POINT('Ctrl Pts',(41.0510897807597,-12.7990666592106,6.61359492109129));
#1474=CARTESIAN_POINT('Ctrl Pts',(41.0274380922904,-12.8744746953867,6.5027086450268));
#1475=CARTESIAN_POINT('Ctrl Pts',(40.9957699818193,-12.974961221695,6.25859733065447));
#1476=CARTESIAN_POINT('Ctrl Pts',(40.9878030638384,-13.,6.12534952787179));
#1477=CARTESIAN_POINT('Ctrl Pts',(40.9878030638384,-13.,6.));
#1478=CARTESIAN_POINT('',(32.3566017177982,-12.,7.));
#1479=CARTESIAN_POINT('',(32.3566017177982,-13.,6.));
#1480=CARTESIAN_POINT('Origin',(30.,-13.,2.));
#1481=CARTESIAN_POINT('',(30.,-13.,2.));
#1482=CARTESIAN_POINT('',(30.,-13.,2.));
#1483=CARTESIAN_POINT('',(40.9878030638384,-13.,2.));
#1484=CARTESIAN_POINT('',(15.,-13.,2.));
#1485=CARTESIAN_POINT('',(40.9878030638384,-13.,2.));
#1486=CARTESIAN_POINT('Origin',(30.,-10.,2.));
#1487=CARTESIAN_POINT('',(30.,-7.00000000000001,2.));
#1488=CARTESIAN_POINT('',(30.,-7.00000000000001,2.));
#1489=CARTESIAN_POINT('Origin',(30.,-10.,2.));
#1490=CARTESIAN_POINT('Origin',(42.4264068711929,-7.00000000000003,2.));
#1491=CARTESIAN_POINT('',(42.4264068711929,-7.00000000000003,2.));
#1492=CARTESIAN_POINT('',(42.4264068711928,-7.00000000000003,2.));
#1493=CARTESIAN_POINT('',(21.2132034355964,-7.,2.));
#1494=CARTESIAN_POINT('Origin',(37.8505032497174,12.,6.));
#1495=CARTESIAN_POINT('',(30.0000003699895,13.,6.));
#1496=CARTESIAN_POINT('',(30.0000003699895,12.,7.));
#1497=CARTESIAN_POINT('Origin',(30.0000003699895,12.,6.));
#1498=CARTESIAN_POINT('',(41.2916456441252,12.,7.));
#1499=CARTESIAN_POINT('',(37.8505032497174,12.,7.));
#1500=CARTESIAN_POINT('',(40.9878030638384,13.,6.));
#1501=CARTESIAN_POINT('Ctrl Pts',(40.9878030638384,13.,6.));
#1502=CARTESIAN_POINT('Ctrl Pts',(40.9878030638384,13.,6.12534952787179));
#1503=CARTESIAN_POINT('Ctrl Pts',(40.9957699818193,12.9749612216949,6.25859733065447));
#1504=CARTESIAN_POINT('Ctrl Pts',(41.0274380922904,12.8744746953867,6.5027086450268));
#1505=CARTESIAN_POINT('Ctrl Pts',(41.0510897807597,12.7990666592106,6.61359492109129));
#1506=CARTESIAN_POINT('Ctrl Pts',(41.1055256792127,12.6231786203881,6.79255352644458));
#1507=CARTESIAN_POINT('Ctrl Pts',(41.1403851713414,12.5094181177465,6.87098767362152));
#1508=CARTESIAN_POINT('Ctrl Pts',(41.2151251977407,12.2609252760786,6.97470218537156));
#1509=CARTESIAN_POINT('Ctrl Pts',(41.254972761811,12.1261903051052,7.));
#1510=CARTESIAN_POINT('Ctrl Pts',(41.2916456441252,12.,7.));
#1511=CARTESIAN_POINT('',(37.8505032497174,13.,6.));
#1512=CARTESIAN_POINT('Origin',(30.,10.,6.));
#1513=CARTESIAN_POINT('',(30.0000003753665,7.00000000000002,6.));
#1514=CARTESIAN_POINT('',(30.0000002502443,8.00000000000002,7.));
#1515=CARTESIAN_POINT('Origin',(30.0000002502443,8.00000000000002,6.));
#1516=CARTESIAN_POINT('Origin',(30.,10.,7.));
#1517=CARTESIAN_POINT('Origin',(30.,10.,6.));
#1518=CARTESIAN_POINT('Origin',(32.3566019054815,8.00000000000002,6.));
#1519=CARTESIAN_POINT('',(42.4264068711928,7.00000000000002,6.));
#1520=CARTESIAN_POINT('',(42.2492603485552,8.00000000000002,7.));
#1521=CARTESIAN_POINT('Ctrl Pts',(42.2492603485552,8.00000000000002,7.));
#1522=CARTESIAN_POINT('Ctrl Pts',(42.2730177187724,7.87453358506195,7.));
#1523=CARTESIAN_POINT('Ctrl Pts',(42.2977733194897,7.74042280447522,6.97494977197377));
#1524=CARTESIAN_POINT('Ctrl Pts',(42.3422663505728,7.49321381486961,6.87239620774705));
#1525=CARTESIAN_POINT('Ctrl Pts',(42.362034119753,7.38012791381467,6.79487636858581));
#1526=CARTESIAN_POINT('Ctrl Pts',(42.3925112433746,7.20298022121971,6.61665560123995));
#1527=CARTESIAN_POINT('Ctrl Pts',(42.4053647286269,7.12654819825867,6.50471629672634));
#1528=CARTESIAN_POINT('Ctrl Pts',(42.4222969161758,7.02505312013878,6.25910456830011));
#1529=CARTESIAN_POINT('Ctrl Pts',(42.4264068711928,7.00000000000002,6.12543019452574));
#1530=CARTESIAN_POINT('Ctrl Pts',(42.4264068711928,7.00000000000002,6.));
#1531=CARTESIAN_POINT('',(32.3566019054815,8.00000000000002,7.));
#1532=CARTESIAN_POINT('',(32.3566019054815,7.00000000000002,6.));
#1533=CARTESIAN_POINT('Origin',(30.0000003753665,7.00000000000002,2.));
#1534=CARTESIAN_POINT('',(30.0000003753665,7.00000000000002,2.));
#1535=CARTESIAN_POINT('',(30.0000003753665,7.00000000000002,2.));
#1536=CARTESIAN_POINT('',(42.4264068711929,7.00000000000002,2.));
#1537=CARTESIAN_POINT('',(15.0000001876832,7.00000000000003,2.));
#1538=CARTESIAN_POINT('',(42.4264068711928,7.00000000000002,2.));
#1539=CARTESIAN_POINT('Origin',(30.,10.,2.));
#1540=CARTESIAN_POINT('',(30.0000003699895,13.,2.));
#1541=CARTESIAN_POINT('',(30.0000003699895,13.,2.));
#1542=CARTESIAN_POINT('Origin',(30.,10.,2.));
#1543=CARTESIAN_POINT('Origin',(40.9878030638384,13.,2.));
#1544=CARTESIAN_POINT('',(40.9878030638384,13.,2.));
#1545=CARTESIAN_POINT('',(40.9878030638384,13.,2.));
#1546=CARTESIAN_POINT('',(20.4939015319192,13.,2.));
#1547=CARTESIAN_POINT('Origin',(-38.5698051533946,8.00000000000002,6.));
#1548=CARTESIAN_POINT('',(-30.0000003745099,7.00000000000002,6.));
#1549=CARTESIAN_POINT('',(-30.0000003745099,8.00000000000002,7.));
#1550=CARTESIAN_POINT('Origin',(-30.0000003745099,8.00000000000002,6.));
#1551=CARTESIAN_POINT('',(-42.2492603485552,8.00000000000002,7.));
#1552=CARTESIAN_POINT('',(-38.5698051533946,8.00000000000002,7.));
#1553=CARTESIAN_POINT('',(-42.4264068711928,7.00000000000002,6.));
#1554=CARTESIAN_POINT('Ctrl Pts',(-42.4264068711928,7.00000000000002,6.));
#1555=CARTESIAN_POINT('Ctrl Pts',(-42.4264068711928,7.00000000000002,6.12543019452574));
#1556=CARTESIAN_POINT('Ctrl Pts',(-42.4222969161758,7.02505312013877,6.2591045683001));
#1557=CARTESIAN_POINT('Ctrl Pts',(-42.4053647286269,7.12654819825866,6.50471629672634));
#1558=CARTESIAN_POINT('Ctrl Pts',(-42.3925112433746,7.20298022121971,6.61665560123995));
#1559=CARTESIAN_POINT('Ctrl Pts',(-42.362034119753,7.38012791381467,6.79487636858581));
#1560=CARTESIAN_POINT('Ctrl Pts',(-42.3422663505728,7.49321381486961,6.87239620774705));
#1561=CARTESIAN_POINT('Ctrl Pts',(-42.2977733194897,7.74042280447521,6.97494977197378));
#1562=CARTESIAN_POINT('Ctrl Pts',(-42.2730177187724,7.87453358506195,7.));
#1563=CARTESIAN_POINT('Ctrl Pts',(-42.2492603485552,8.00000000000002,7.));
#1564=CARTESIAN_POINT('',(-38.5698051533946,7.00000000000002,6.));
#1565=CARTESIAN_POINT('Origin',(-30.,10.,6.));
#1566=CARTESIAN_POINT('',(-30.0000003708461,13.,6.));
#1567=CARTESIAN_POINT('',(-30.0000002472307,12.,7.));
#1568=CARTESIAN_POINT('Origin',(-30.0000002472307,12.,6.));
#1569=CARTESIAN_POINT('Origin',(-30.,10.,7.));
#1570=CARTESIAN_POINT('Origin',(-30.,10.,6.));
#1571=CARTESIAN_POINT('Origin',(-32.3566019032213,12.,6.));
#1572=CARTESIAN_POINT('',(-40.9878030638384,13.,6.));
#1573=CARTESIAN_POINT('',(-41.2916456441252,12.,7.));
#1574=CARTESIAN_POINT('Ctrl Pts',(-41.2916456441252,12.,7.));
#1575=CARTESIAN_POINT('Ctrl Pts',(-41.254972761811,12.1261903051053,7.));
#1576=CARTESIAN_POINT('Ctrl Pts',(-41.2151251977407,12.2609252760787,6.97470218537155));
#1577=CARTESIAN_POINT('Ctrl Pts',(-41.1403851713414,12.5094181177465,6.87098767362152));
#1578=CARTESIAN_POINT('Ctrl Pts',(-41.1055256792127,12.6231786203882,6.79255352644458));
#1579=CARTESIAN_POINT('Ctrl Pts',(-41.0510897807597,12.7990666592106,6.61359492109129));
#1580=CARTESIAN_POINT('Ctrl Pts',(-41.0274380922904,12.8744746953867,6.5027086450268));
#1581=CARTESIAN_POINT('Ctrl Pts',(-40.9957699818193,12.974961221695,6.25859733065447));
#1582=CARTESIAN_POINT('Ctrl Pts',(-40.9878030638384,13.,6.12534952787179));
#1583=CARTESIAN_POINT('Ctrl Pts',(-40.9878030638384,13.,6.));
#1584=CARTESIAN_POINT('',(-32.3566019032213,12.,7.));
#1585=CARTESIAN_POINT('',(-32.3566019032213,13.,6.));
#1586=CARTESIAN_POINT('Origin',(-30.0000003708461,13.,2.));
#1587=CARTESIAN_POINT('',(-30.0000003708461,13.,2.));
#1588=CARTESIAN_POINT('',(-30.0000003708461,13.,2.));
#1589=CARTESIAN_POINT('',(-40.9878030638384,13.,2.));
#1590=CARTESIAN_POINT('',(-15.000000185423,13.,2.));
#1591=CARTESIAN_POINT('',(-40.9878030638384,13.,2.));
#1592=CARTESIAN_POINT('Origin',(-30.,10.,2.));
#1593=CARTESIAN_POINT('',(-30.0000003745099,7.00000000000002,2.));
#1594=CARTESIAN_POINT('',(-30.0000003745099,7.00000000000002,2.));
#1595=CARTESIAN_POINT('Origin',(-30.,10.,2.));
#1596=CARTESIAN_POINT('Origin',(-42.4264068711929,7.00000000000002,2.));
#1597=CARTESIAN_POINT('',(-42.4264068711929,7.00000000000002,2.));
#1598=CARTESIAN_POINT('',(-42.4264068711928,7.00000000000002,2.));
#1599=CARTESIAN_POINT('',(-21.2132034355964,7.00000000000002,2.));
#1600=CARTESIAN_POINT('Origin',(-37.8505032497174,-12.,6.));
#1601=CARTESIAN_POINT('',(-30.0000003687635,-13.,6.));
#1602=CARTESIAN_POINT('',(-30.0000003687635,-12.,7.));
#1603=CARTESIAN_POINT('Origin',(-30.0000003687635,-12.,6.));
#1604=CARTESIAN_POINT('',(-41.2916456441252,-12.,7.));
#1605=CARTESIAN_POINT('',(-37.8505032497174,-12.,7.));
#1606=CARTESIAN_POINT('',(-40.9878030638384,-13.,6.));
#1607=CARTESIAN_POINT('Ctrl Pts',(-40.9878030638384,-13.,6.));
#1608=CARTESIAN_POINT('Ctrl Pts',(-40.9878030638384,-13.,6.12534952787179));
#1609=CARTESIAN_POINT('Ctrl Pts',(-40.9957699818193,-12.974961221695,6.25859733065447));
#1610=CARTESIAN_POINT('Ctrl Pts',(-41.0274380922904,-12.8744746953867,6.5027086450268));
#1611=CARTESIAN_POINT('Ctrl Pts',(-41.0510897807597,-12.7990666592106,6.61359492109129));
#1612=CARTESIAN_POINT('Ctrl Pts',(-41.1055256792127,-12.6231786203882,6.79255352644458));
#1613=CARTESIAN_POINT('Ctrl Pts',(-41.1403851713414,-12.5094181177465,6.87098767362152));
#1614=CARTESIAN_POINT('Ctrl Pts',(-41.2151251977407,-12.2609252760787,6.97470218537156));
#1615=CARTESIAN_POINT('Ctrl Pts',(-41.254972761811,-12.1261903051053,7.));
#1616=CARTESIAN_POINT('Ctrl Pts',(-41.2916456441252,-12.,7.));
#1617=CARTESIAN_POINT('',(-37.8505032497174,-13.,6.));
#1618=CARTESIAN_POINT('Origin',(-30.,-10.,6.));
#1619=CARTESIAN_POINT('',(-30.0000003739066,-7.00000000000002,6.));
#1620=CARTESIAN_POINT('',(-30.0000002492711,-8.00000000000002,7.));
#1621=CARTESIAN_POINT('Origin',(-30.0000002492711,-8.00000000000002,6.));
#1622=CARTESIAN_POINT('Origin',(-30.,-10.,7.));
#1623=CARTESIAN_POINT('Origin',(-30.,-10.,6.));
#1624=CARTESIAN_POINT('Origin',(-32.3566019047515,-8.00000000000002,6.));
#1625=CARTESIAN_POINT('',(-42.4264068711928,-7.00000000000002,6.));
#1626=CARTESIAN_POINT('',(-42.2492603485552,-8.00000000000002,7.));
#1627=CARTESIAN_POINT('Ctrl Pts',(-42.2492603485552,-8.00000000000002,7.));
#1628=CARTESIAN_POINT('Ctrl Pts',(-42.2730177187724,-7.87453358506195,7.));
#1629=CARTESIAN_POINT('Ctrl Pts',(-42.2977733194897,-7.74042280447522,6.97494977197377));
#1630=CARTESIAN_POINT('Ctrl Pts',(-42.3422663505728,-7.49321381486961,6.87239620774705));
#1631=CARTESIAN_POINT('Ctrl Pts',(-42.362034119753,-7.38012791381467,6.79487636858581));
#1632=CARTESIAN_POINT('Ctrl Pts',(-42.3925112433746,-7.20298022121971,6.61665560123995));
#1633=CARTESIAN_POINT('Ctrl Pts',(-42.4053647286269,-7.12654819825867,6.50471629672634));
#1634=CARTESIAN_POINT('Ctrl Pts',(-42.4222969161758,-7.02505312013878,6.2591045683001));
#1635=CARTESIAN_POINT('Ctrl Pts',(-42.4264068711928,-7.00000000000002,6.12543019452574));
#1636=CARTESIAN_POINT('Ctrl Pts',(-42.4264068711928,-7.00000000000002,6.));
#1637=CARTESIAN_POINT('',(-32.3566019047515,-8.00000000000002,7.));
#1638=CARTESIAN_POINT('',(-32.3566019047515,-7.00000000000002,6.));
#1639=CARTESIAN_POINT('Origin',(-30.0000003739066,-7.00000000000002,2.));
#1640=CARTESIAN_POINT('',(-30.0000003739066,-7.00000000000002,2.));
#1641=CARTESIAN_POINT('',(-30.0000003739066,-7.00000000000002,2.));
#1642=CARTESIAN_POINT('',(-42.4264068711928,-7.00000000000002,2.));
#1643=CARTESIAN_POINT('',(-15.0000001869533,-7.00000000000002,2.));
#1644=CARTESIAN_POINT('',(-42.4264068711928,-7.00000000000002,2.));
#1645=CARTESIAN_POINT('Origin',(-30.,-10.,2.));
#1646=CARTESIAN_POINT('',(-30.0000003687635,-13.,2.));
#1647=CARTESIAN_POINT('',(-30.0000003687635,-13.,2.));
#1648=CARTESIAN_POINT('Origin',(-30.,-10.,2.));
#1649=CARTESIAN_POINT('Origin',(-40.9878030638384,-13.,2.));
#1650=CARTESIAN_POINT('',(-40.9878030638384,-13.,2.));
#1651=CARTESIAN_POINT('',(-40.9878030638384,-13.,2.));
#1652=CARTESIAN_POINT('',(-20.4939015319192,-13.,2.));
#1653=CARTESIAN_POINT('Origin',(30.,10.,0.));
#1654=CARTESIAN_POINT('',(28.55,10.,0.));
#1655=CARTESIAN_POINT('Origin',(30.,10.,0.));
#1656=CARTESIAN_POINT('',(28.55,10.,5.));
#1657=CARTESIAN_POINT('',(28.55,10.,0.));
#1658=CARTESIAN_POINT('Origin',(30.,10.,5.));
#1659=CARTESIAN_POINT('Origin',(30.,10.,5.));
#1660=CARTESIAN_POINT('Origin',(-30.,-10.,0.));
#1661=CARTESIAN_POINT('',(-31.45,-10.,0.));
#1662=CARTESIAN_POINT('Origin',(-30.,-10.,0.));
#1663=CARTESIAN_POINT('',(-31.45,-10.,5.));
#1664=CARTESIAN_POINT('',(-31.45,-10.,0.));
#1665=CARTESIAN_POINT('Origin',(-30.,-10.,5.));
#1666=CARTESIAN_POINT('Origin',(-30.,-10.,5.));
#1667=CARTESIAN_POINT('Origin',(30.,-10.,0.));
#1668=CARTESIAN_POINT('',(28.55,-10.,0.));
#1669=CARTESIAN_POINT('Origin',(30.,-10.,0.));
#1670=CARTESIAN_POINT('',(28.55,-10.,5.));
#1671=CARTESIAN_POINT('',(28.55,-10.,0.));
#1672=CARTESIAN_POINT('Origin',(30.,-10.,5.));
#1673=CARTESIAN_POINT('Origin',(30.,-10.,5.));
#1674=CARTESIAN_POINT('Origin',(-30.,10.,0.));
#1675=CARTESIAN_POINT('',(-31.45,10.,0.));
#1676=CARTESIAN_POINT('Origin',(-30.,10.,0.));
#1677=CARTESIAN_POINT('',(-31.45,10.,5.));
#1678=CARTESIAN_POINT('',(-31.45,10.,0.));
#1679=CARTESIAN_POINT('Origin',(-30.,10.,5.));
#1680=CARTESIAN_POINT('Origin',(-30.,10.,5.));
#1681=CARTESIAN_POINT('Origin',(34.7132034355964,10.,7.));
#1682=CARTESIAN_POINT('Origin',(0.,0.,7.));
#1683=CARTESIAN_POINT('Origin',(0.,0.,2.));
#1684=CARTESIAN_POINT('Origin',(0.,0.,2.));
#1685=CARTESIAN_POINT('Origin',(0.,0.,2.));
#1686=CARTESIAN_POINT('Origin',(0.,0.,2.));
#1687=CARTESIAN_POINT('',(43.,5.26598123633362E-15,2.));
#1688=CARTESIAN_POINT('Origin',(0.,0.,2.));
#1689=CARTESIAN_POINT('Origin',(0.,0.,2.));
#1690=CARTESIAN_POINT('Origin',(-34.7132034355964,10.,7.));
#1691=CARTESIAN_POINT('Origin',(0.,0.,7.));
#1692=CARTESIAN_POINT('Origin',(34.7132034355964,-10.,7.));
#1693=CARTESIAN_POINT('Origin',(0.,0.,7.));
#1694=CARTESIAN_POINT('Origin',(-34.7132034355964,-10.,7.));
#1695=CARTESIAN_POINT('Origin',(0.,0.,7.));
#1696=CARTESIAN_POINT('Origin',(0.,0.,2.));
#1697=CARTESIAN_POINT('',(-45.,5.51091059616309E-15,2.));
#1698=CARTESIAN_POINT('Origin',(0.,0.,2.));
#1699=CARTESIAN_POINT('',(-43.,-5.26598123633362E-15,0.));
#1700=CARTESIAN_POINT('Origin',(-43.,-5.26598123633362E-15,2.));
#1701=CARTESIAN_POINT('Origin',(0.,0.,0.));
#1702=CARTESIAN_POINT('Origin',(0.,0.,0.));
#1703=CARTESIAN_POINT('',(-45.,-5.51091059616309E-15,20.));
#1704=CARTESIAN_POINT('Origin',(0.,0.,20.));
#1705=CARTESIAN_POINT('',(-45.,-5.51091059616309E-15,0.));
#1706=CARTESIAN_POINT('Origin',(0.,0.,0.));
#1707=CARTESIAN_POINT('Origin',(0.,0.,2.));
#1708=CARTESIAN_POINT('',(43.,5.26598123633362E-15,20.));
#1709=CARTESIAN_POINT('Origin',(0.,0.,20.));
#1710=CARTESIAN_POINT('',(43.,5.26598123633362E-15,2.));
#1711=CARTESIAN_POINT('Origin',(0.,0.,20.));
#1712=UNCERTAINTY_MEASURE_WITH_UNIT(LENGTH_MEASURE(0.01),#1716,
'DISTANCE_ACCURACY_VALUE',
'Maximum model space distance between geometric entities at asserted c
onnectivities');
#1713=UNCERTAINTY_MEASURE_WITH_UNIT(LENGTH_MEASURE(0.01),#1716,
'DISTANCE_ACCURACY_VALUE',
'Maximum model space distance between geometric entities at asserted c
onnectivities');
#1714=(
GEOMETRIC_REPRESENTATION_CONTEXT(3)
GLOBAL_UNCERTAINTY_ASSIGNED_CONTEXT((#1712))
GLOBAL_UNIT_ASSIGNED_CONTEXT((#1716,#1718,#1719))
REPRESENTATION_CONTEXT('','3D')
);
#1715=(
GEOMETRIC_REPRESENTATION_CONTEXT(3)
GLOBAL_UNCERTAINTY_ASSIGNED_CONTEXT((#1713))
GLOBAL_UNIT_ASSIGNED_CONTEXT((#1716,#1718,#1719))
REPRESENTATION_CONTEXT('','3D')
);
#1716=(
LENGTH_UNIT()
NAMED_UNIT(*)
SI_UNIT(.MILLI.,.METRE.)
);
#1717=(
LENGTH_UNIT()
NAMED_UNIT(*)
SI_UNIT($,.METRE.)
);
#1718=(
NAMED_UNIT(*)
PLANE_ANGLE_UNIT()
SI_UNIT($,.RADIAN.)
);
#1719=(
NAMED_UNIT(*)
SI_UNIT($,.STERADIAN.)
SOLID_ANGLE_UNIT()
);
#1720=SHAPE_DEFINITION_REPRESENTATION(#1721,#1722);
#1721=PRODUCT_DEFINITION_SHAPE('',$,#1724);
#1722=SHAPE_REPRESENTATION('',(#959),#1714);
#1723=PRODUCT_DEFINITION_CONTEXT('part definition',#1728,'design');
#1724=PRODUCT_DEFINITION('(\X2\C800C7A5B418C9C0\X0\ \X2\C54AC74C\X0\)',
'(\X2\C800C7A5B418C9C0\X0\ \X2\C54AC74C\X0\)',#1725,#1723);
#1725=PRODUCT_DEFINITION_FORMATION('',$,#1730);
#1726=PRODUCT_RELATED_PRODUCT_CATEGORY('(\X2\C800C7A5B418C9C0\X0\ \X2\C54AC74C\X0\)',
'(\X2\C800C7A5B418C9C0\X0\ \X2\C54AC74C\X0\)',(#1730));
#1727=APPLICATION_PROTOCOL_DEFINITION('international standard',
'automotive_design',2009,#1728);
#1728=APPLICATION_CONTEXT(
'Core Data for Automotive Mechanical Design Process');
#1729=PRODUCT_CONTEXT('part definition',#1728,'mechanical');
#1730=PRODUCT('(\X2\C800C7A5B418C9C0\X0\ \X2\C54AC74C\X0\)',
'(\X2\C800C7A5B418C9C0\X0\ \X2\C54AC74C\X0\)',$,(#1729));
#1731=PRESENTATION_STYLE_ASSIGNMENT((#1732));
#1732=SURFACE_STYLE_USAGE(.BOTH.,#1733);
#1733=SURFACE_SIDE_STYLE('',(#1734));
#1734=SURFACE_STYLE_FILL_AREA(#1735);
#1735=FILL_AREA_STYLE('\X2\AC15CCA0\X0\ - \X2\C0C8D2F4\X0\',(#1736));
#1736=FILL_AREA_STYLE_COLOUR('\X2\AC15CCA0\X0\ - \X2\C0C8D2F4\X0\',#1737);
#1737=COLOUR_RGB('\X2\AC15CCA0\X0\ - \X2\C0C8D2F4\X0\',0.627450980392157,
0.627450980392157,0.627450980392157);
ENDSEC;
END-ISO-10303-21;
