ISO-10303-21;
HEADER;
/* Generated by software containing ST-Developer
 * from STEP Tools, Inc. (www.steptools.com) 
 */

FILE_DESCRIPTION(
/* description */ (''),
/* implementation_level */ '2;1');

FILE_NAME(
/* name */ 'TRARM02_Link2B_100x50x43.step',
/* time_stamp */ '2026-06-11T09:10:03+09:00',
/* author */ (''),
/* organization */ (''),
/* preprocessor_version */ 'ST-DEVELOPER v20.1',
/* originating_system */ 'Autodesk Translation Framework v15.8.0.0',
/* authorisation */ '');

FILE_SCHEMA (('AUTOMOTIVE_DESIGN { 1 0 10303 214 3 1 1 }'));
ENDSEC;

DATA;
#10=MECHANICAL_DESIGN_GEOMETRIC_PRESENTATION_REPRESENTATION('',(#13),#1115);
#11=SHAPE_REPRESENTATION_RELATIONSHIP('SRR','None',#1122,#12);
#12=ADVANCED_BREP_SHAPE_REPRESENTATION('',(#14),#1114);
#13=STYLED_ITEM('',(#1131),#14);
#14=MANIFOLD_SOLID_BREP('\X2\BCF8CCB4\X0\1',#647);
#15=FACE_BOUND('',#228,.T.);
#16=FACE_BOUND('',#230,.T.);
#17=FACE_BOUND('',#232,.T.);
#18=FACE_BOUND('',#234,.T.);
#19=FACE_BOUND('',#252,.T.);
#20=PLANE('',#673);
#21=PLANE('',#676);
#22=PLANE('',#680);
#23=PLANE('',#684);
#24=PLANE('',#688);
#25=PLANE('',#692);
#26=PLANE('',#693);
#27=PLANE('',#695);
#28=PLANE('',#697);
#29=PLANE('',#699);
#30=PLANE('',#701);
#31=PLANE('',#704);
#32=PLANE('',#707);
#33=PLANE('',#708);
#34=PLANE('',#712);
#35=PLANE('',#715);
#36=PLANE('',#716);
#37=PLANE('',#717);
#38=PLANE('',#720);
#39=PLANE('',#724);
#40=PLANE('',#725);
#41=PLANE('',#727);
#42=PLANE('',#729);
#43=LINE('',#942,#101);
#44=LINE('',#943,#102);
#45=LINE('',#951,#103);
#46=LINE('',#952,#104);
#47=LINE('',#955,#105);
#48=LINE('',#957,#106);
#49=LINE('',#958,#107);
#50=LINE('',#961,#108);
#51=LINE('',#968,#109);
#52=LINE('',#975,#110);
#53=LINE('',#982,#111);
#54=LINE('',#989,#112);
#55=LINE('',#997,#113);
#56=LINE('',#999,#114);
#57=LINE('',#1000,#115);
#58=LINE('',#1006,#116);
#59=LINE('',#1008,#117);
#60=LINE('',#1009,#118);
#61=LINE('',#1013,#119);
#62=LINE('',#1015,#120);
#63=LINE('',#1018,#121);
#64=LINE('',#1022,#122);
#65=LINE('',#1024,#123);
#66=LINE('',#1027,#124);
#67=LINE('',#1030,#125);
#68=LINE('',#1032,#126);
#69=LINE('',#1033,#127);
#70=LINE('',#1036,#128);
#71=LINE('',#1040,#129);
#72=LINE('',#1042,#130);
#73=LINE('',#1043,#131);
#74=LINE('',#1046,#132);
#75=LINE('',#1050,#133);
#76=LINE('',#1051,#134);
#77=LINE('',#1053,#135);
#78=LINE('',#1055,#136);
#79=LINE('',#1056,#137);
#80=LINE('',#1059,#138);
#81=LINE('',#1060,#139);
#82=LINE('',#1066,#140);
#83=LINE('',#1067,#141);
#84=LINE('',#1070,#142);
#85=LINE('',#1071,#143);
#86=LINE('',#1074,#144);
#87=LINE('',#1078,#145);
#88=LINE('',#1079,#146);
#89=LINE('',#1082,#147);
#90=LINE('',#1084,#148);
#91=LINE('',#1085,#149);
#92=LINE('',#1086,#150);
#93=LINE('',#1089,#151);
#94=LINE('',#1090,#152);
#95=LINE('',#1093,#153);
#96=LINE('',#1097,#154);
#97=LINE('',#1098,#155);
#98=LINE('',#1103,#156);
#99=LINE('',#1106,#157);
#100=LINE('',#1109,#158);
#101=VECTOR('',#746,10.);
#102=VECTOR('',#747,10.);
#103=VECTOR('',#758,10.);
#104=VECTOR('',#759,10.);
#105=VECTOR('',#762,10.);
#106=VECTOR('',#763,10.);
#107=VECTOR('',#764,10.);
#108=VECTOR('',#767,10.);
#109=VECTOR('',#776,1.45);
#110=VECTOR('',#785,1.45);
#111=VECTOR('',#794,1.45);
#112=VECTOR('',#803,1.45);
#113=VECTOR('',#812,10.);
#114=VECTOR('',#813,10.);
#115=VECTOR('',#814,10.);
#116=VECTOR('',#819,10.);
#117=VECTOR('',#820,10.);
#118=VECTOR('',#821,10.);
#119=VECTOR('',#824,10.);
#120=VECTOR('',#825,10.);
#121=VECTOR('',#828,10.);
#122=VECTOR('',#831,10.);
#123=VECTOR('',#832,10.);
#124=VECTOR('',#835,10.);
#125=VECTOR('',#838,10.);
#126=VECTOR('',#839,10.);
#127=VECTOR('',#840,10.);
#128=VECTOR('',#843,10.);
#129=VECTOR('',#848,10.);
#130=VECTOR('',#849,10.);
#131=VECTOR('',#850,10.);
#132=VECTOR('',#853,10.);
#133=VECTOR('',#858,10.);
#134=VECTOR('',#859,10.);
#135=VECTOR('',#860,10.);
#136=VECTOR('',#861,10.);
#137=VECTOR('',#862,10.);
#138=VECTOR('',#865,10.);
#139=VECTOR('',#866,10.);
#140=VECTOR('',#873,10.);
#141=VECTOR('',#874,10.);
#142=VECTOR('',#877,10.);
#143=VECTOR('',#878,10.);
#144=VECTOR('',#881,10.);
#145=VECTOR('',#886,10.);
#146=VECTOR('',#887,10.);
#147=VECTOR('',#890,10.);
#148=VECTOR('',#891,10.);
#149=VECTOR('',#892,10.);
#150=VECTOR('',#893,10.);
#151=VECTOR('',#896,10.);
#152=VECTOR('',#897,10.);
#153=VECTOR('',#900,10.);
#154=VECTOR('',#905,10.);
#155=VECTOR('',#906,10.);
#156=VECTOR('',#915,10.);
#157=VECTOR('',#918,10.);
#158=VECTOR('',#923,10.);
#159=CYLINDRICAL_SURFACE('',#666,2.);
#160=CYLINDRICAL_SURFACE('',#672,2.);
#161=CYLINDRICAL_SURFACE('',#674,25.);
#162=CYLINDRICAL_SURFACE('',#677,1.45);
#163=CYLINDRICAL_SURFACE('',#681,1.45);
#164=CYLINDRICAL_SURFACE('',#685,1.45);
#165=CYLINDRICAL_SURFACE('',#689,1.45);
#166=CYLINDRICAL_SURFACE('',#702,3.00000008940698);
#167=CYLINDRICAL_SURFACE('',#705,3.00000149011607);
#168=CYLINDRICAL_SURFACE('',#709,24.);
#169=CYLINDRICAL_SURFACE('',#713,3.00000000000781);
#170=CYLINDRICAL_SURFACE('',#718,3.00000000000001);
#171=CYLINDRICAL_SURFACE('',#721,24.);
#172=CYLINDRICAL_SURFACE('',#728,25.);
#173=FACE_OUTER_BOUND('',#212,.T.);
#174=FACE_OUTER_BOUND('',#213,.T.);
#175=FACE_OUTER_BOUND('',#214,.T.);
#176=FACE_OUTER_BOUND('',#215,.T.);
#177=FACE_OUTER_BOUND('',#216,.T.);
#178=FACE_OUTER_BOUND('',#217,.T.);
#179=FACE_OUTER_BOUND('',#218,.T.);
#180=FACE_OUTER_BOUND('',#219,.T.);
#181=FACE_OUTER_BOUND('',#220,.T.);
#182=FACE_OUTER_BOUND('',#221,.T.);
#183=FACE_OUTER_BOUND('',#222,.T.);
#184=FACE_OUTER_BOUND('',#223,.T.);
#185=FACE_OUTER_BOUND('',#224,.T.);
#186=FACE_OUTER_BOUND('',#225,.T.);
#187=FACE_OUTER_BOUND('',#226,.T.);
#188=FACE_OUTER_BOUND('',#227,.T.);
#189=FACE_OUTER_BOUND('',#229,.T.);
#190=FACE_OUTER_BOUND('',#231,.T.);
#191=FACE_OUTER_BOUND('',#233,.T.);
#192=FACE_OUTER_BOUND('',#235,.T.);
#193=FACE_OUTER_BOUND('',#236,.T.);
#194=FACE_OUTER_BOUND('',#237,.T.);
#195=FACE_OUTER_BOUND('',#238,.T.);
#196=FACE_OUTER_BOUND('',#239,.T.);
#197=FACE_OUTER_BOUND('',#240,.T.);
#198=FACE_OUTER_BOUND('',#241,.T.);
#199=FACE_OUTER_BOUND('',#242,.T.);
#200=FACE_OUTER_BOUND('',#243,.T.);
#201=FACE_OUTER_BOUND('',#244,.T.);
#202=FACE_OUTER_BOUND('',#245,.T.);
#203=FACE_OUTER_BOUND('',#246,.T.);
#204=FACE_OUTER_BOUND('',#247,.T.);
#205=FACE_OUTER_BOUND('',#248,.T.);
#206=FACE_OUTER_BOUND('',#249,.T.);
#207=FACE_OUTER_BOUND('',#250,.T.);
#208=FACE_OUTER_BOUND('',#251,.T.);
#209=FACE_OUTER_BOUND('',#253,.T.);
#210=FACE_OUTER_BOUND('',#254,.T.);
#211=FACE_OUTER_BOUND('',#255,.T.);
#212=EDGE_LOOP('',(#430,#431,#432,#433));
#213=EDGE_LOOP('',(#434,#435,#436,#437));
#214=EDGE_LOOP('',(#438,#439,#440,#441));
#215=EDGE_LOOP('',(#442,#443,#444,#445));
#216=EDGE_LOOP('',(#446,#447,#448,#449));
#217=EDGE_LOOP('',(#450,#451,#452,#453));
#218=EDGE_LOOP('',(#454,#455,#456,#457));
#219=EDGE_LOOP('',(#458,#459,#460,#461));
#220=EDGE_LOOP('',(#462));
#221=EDGE_LOOP('',(#463,#464,#465,#466));
#222=EDGE_LOOP('',(#467));
#223=EDGE_LOOP('',(#468,#469,#470,#471));
#224=EDGE_LOOP('',(#472));
#225=EDGE_LOOP('',(#473,#474,#475,#476));
#226=EDGE_LOOP('',(#477));
#227=EDGE_LOOP('',(#478,#479,#480,#481));
#228=EDGE_LOOP('',(#482));
#229=EDGE_LOOP('',(#483,#484,#485,#486));
#230=EDGE_LOOP('',(#487));
#231=EDGE_LOOP('',(#488,#489,#490,#491));
#232=EDGE_LOOP('',(#492));
#233=EDGE_LOOP('',(#493,#494,#495,#496));
#234=EDGE_LOOP('',(#497));
#235=EDGE_LOOP('',(#498,#499,#500,#501));
#236=EDGE_LOOP('',(#502,#503,#504,#505));
#237=EDGE_LOOP('',(#506,#507,#508,#509));
#238=EDGE_LOOP('',(#510,#511,#512,#513));
#239=EDGE_LOOP('',(#514,#515,#516,#517,#518,#519,#520,#521));
#240=EDGE_LOOP('',(#522,#523,#524,#525));
#241=EDGE_LOOP('',(#526,#527,#528,#529,#530,#531));
#242=EDGE_LOOP('',(#532,#533,#534,#535));
#243=EDGE_LOOP('',(#536,#537,#538,#539));
#244=EDGE_LOOP('',(#540,#541,#542,#543));
#245=EDGE_LOOP('',(#544,#545,#546,#547,#548,#549,#550,#551));
#246=EDGE_LOOP('',(#552,#553,#554,#555));
#247=EDGE_LOOP('',(#556,#557,#558,#559));
#248=EDGE_LOOP('',(#560,#561,#562,#563));
#249=EDGE_LOOP('',(#564,#565,#566,#567,#568,#569));
#250=EDGE_LOOP('',(#570,#571,#572,#573));
#251=EDGE_LOOP('',(#574,#575,#576,#577));
#252=EDGE_LOOP('',(#578,#579,#580,#581));
#253=EDGE_LOOP('',(#582,#583,#584,#585));
#254=EDGE_LOOP('',(#586,#587,#588,#589));
#255=EDGE_LOOP('',(#590,#591,#592,#593,#594,#595,#596,#597,#598,#599,#600,
#601,#602,#603,#604,#605));
#256=CIRCLE('',#662,2.);
#257=CIRCLE('',#663,23.);
#258=CIRCLE('',#664,2.);
#259=CIRCLE('',#665,25.);
#260=CIRCLE('',#667,2.);
#261=CIRCLE('',#669,2.);
#262=CIRCLE('',#670,25.);
#263=CIRCLE('',#671,23.);
#264=CIRCLE('',#675,25.);
#265=CIRCLE('',#678,1.45);
#266=CIRCLE('',#679,1.45);
#267=CIRCLE('',#682,1.45);
#268=CIRCLE('',#683,1.45);
#269=CIRCLE('',#686,1.45);
#270=CIRCLE('',#687,1.45);
#271=CIRCLE('',#690,1.45);
#272=CIRCLE('',#691,1.45);
#273=CIRCLE('',#694,3.00000008940698);
#274=CIRCLE('',#696,3.00000149011607);
#275=CIRCLE('',#698,3.00000000000001);
#276=CIRCLE('',#700,3.00000000000781);
#277=CIRCLE('',#703,3.00000008940698);
#278=CIRCLE('',#706,3.00000149011607);
#279=CIRCLE('',#710,24.);
#280=CIRCLE('',#711,24.);
#281=CIRCLE('',#714,3.00000000000781);
#282=CIRCLE('',#719,3.00000000000001);
#283=CIRCLE('',#722,24.);
#284=CIRCLE('',#723,24.);
#285=CIRCLE('',#726,25.);
#286=VERTEX_POINT('',#930);
#287=VERTEX_POINT('',#931);
#288=VERTEX_POINT('',#933);
#289=VERTEX_POINT('',#935);
#290=VERTEX_POINT('',#939);
#291=VERTEX_POINT('',#940);
#292=VERTEX_POINT('',#945);
#293=VERTEX_POINT('',#946);
#294=VERTEX_POINT('',#954);
#295=VERTEX_POINT('',#956);
#296=VERTEX_POINT('',#960);
#297=VERTEX_POINT('',#965);
#298=VERTEX_POINT('',#967);
#299=VERTEX_POINT('',#972);
#300=VERTEX_POINT('',#974);
#301=VERTEX_POINT('',#979);
#302=VERTEX_POINT('',#981);
#303=VERTEX_POINT('',#986);
#304=VERTEX_POINT('',#988);
#305=VERTEX_POINT('',#993);
#306=VERTEX_POINT('',#994);
#307=VERTEX_POINT('',#996);
#308=VERTEX_POINT('',#998);
#309=VERTEX_POINT('',#1002);
#310=VERTEX_POINT('',#1003);
#311=VERTEX_POINT('',#1005);
#312=VERTEX_POINT('',#1007);
#313=VERTEX_POINT('',#1011);
#314=VERTEX_POINT('',#1012);
#315=VERTEX_POINT('',#1014);
#316=VERTEX_POINT('',#1016);
#317=VERTEX_POINT('',#1020);
#318=VERTEX_POINT('',#1021);
#319=VERTEX_POINT('',#1023);
#320=VERTEX_POINT('',#1025);
#321=VERTEX_POINT('',#1029);
#322=VERTEX_POINT('',#1031);
#323=VERTEX_POINT('',#1035);
#324=VERTEX_POINT('',#1039);
#325=VERTEX_POINT('',#1041);
#326=VERTEX_POINT('',#1045);
#327=VERTEX_POINT('',#1049);
#328=VERTEX_POINT('',#1052);
#329=VERTEX_POINT('',#1054);
#330=VERTEX_POINT('',#1058);
#331=VERTEX_POINT('',#1062);
#332=VERTEX_POINT('',#1064);
#333=VERTEX_POINT('',#1069);
#334=VERTEX_POINT('',#1073);
#335=VERTEX_POINT('',#1077);
#336=VERTEX_POINT('',#1081);
#337=VERTEX_POINT('',#1083);
#338=VERTEX_POINT('',#1088);
#339=VERTEX_POINT('',#1092);
#340=VERTEX_POINT('',#1096);
#341=VERTEX_POINT('',#1105);
#342=EDGE_CURVE('',#286,#287,#256,.T.);
#343=EDGE_CURVE('',#287,#288,#257,.T.);
#344=EDGE_CURVE('',#288,#289,#258,.T.);
#345=EDGE_CURVE('',#289,#286,#259,.T.);
#346=EDGE_CURVE('',#290,#291,#260,.T.);
#347=EDGE_CURVE('',#291,#289,#43,.T.);
#348=EDGE_CURVE('',#288,#290,#44,.T.);
#349=EDGE_CURVE('',#292,#293,#261,.T.);
#350=EDGE_CURVE('',#293,#291,#262,.T.);
#351=EDGE_CURVE('',#290,#292,#263,.T.);
#352=EDGE_CURVE('',#286,#293,#45,.T.);
#353=EDGE_CURVE('',#292,#287,#46,.T.);
#354=EDGE_CURVE('',#286,#294,#47,.T.);
#355=EDGE_CURVE('',#295,#294,#48,.T.);
#356=EDGE_CURVE('',#293,#295,#49,.T.);
#357=EDGE_CURVE('',#289,#296,#50,.T.);
#358=EDGE_CURVE('',#294,#296,#264,.T.);
#359=EDGE_CURVE('',#297,#297,#265,.T.);
#360=EDGE_CURVE('',#297,#298,#51,.T.);
#361=EDGE_CURVE('',#298,#298,#266,.T.);
#362=EDGE_CURVE('',#299,#299,#267,.T.);
#363=EDGE_CURVE('',#299,#300,#52,.T.);
#364=EDGE_CURVE('',#300,#300,#268,.T.);
#365=EDGE_CURVE('',#301,#301,#269,.T.);
#366=EDGE_CURVE('',#301,#302,#53,.T.);
#367=EDGE_CURVE('',#302,#302,#270,.T.);
#368=EDGE_CURVE('',#303,#303,#271,.T.);
#369=EDGE_CURVE('',#303,#304,#54,.T.);
#370=EDGE_CURVE('',#304,#304,#272,.T.);
#371=EDGE_CURVE('',#305,#306,#273,.T.);
#372=EDGE_CURVE('',#307,#305,#55,.T.);
#373=EDGE_CURVE('',#308,#307,#56,.T.);
#374=EDGE_CURVE('',#306,#308,#57,.T.);
#375=EDGE_CURVE('',#309,#310,#274,.T.);
#376=EDGE_CURVE('',#311,#309,#58,.T.);
#377=EDGE_CURVE('',#312,#311,#59,.T.);
#378=EDGE_CURVE('',#310,#312,#60,.T.);
#379=EDGE_CURVE('',#313,#314,#61,.T.);
#380=EDGE_CURVE('',#315,#313,#62,.T.);
#381=EDGE_CURVE('',#316,#315,#275,.T.);
#382=EDGE_CURVE('',#314,#316,#63,.T.);
#383=EDGE_CURVE('',#317,#318,#64,.T.);
#384=EDGE_CURVE('',#319,#317,#65,.T.);
#385=EDGE_CURVE('',#320,#319,#276,.T.);
#386=EDGE_CURVE('',#318,#320,#66,.T.);
#387=EDGE_CURVE('',#321,#305,#67,.T.);
#388=EDGE_CURVE('',#322,#321,#68,.T.);
#389=EDGE_CURVE('',#322,#307,#69,.T.);
#390=EDGE_CURVE('',#323,#306,#70,.T.);
#391=EDGE_CURVE('',#321,#323,#277,.T.);
#392=EDGE_CURVE('',#324,#309,#71,.T.);
#393=EDGE_CURVE('',#325,#324,#72,.T.);
#394=EDGE_CURVE('',#325,#311,#73,.T.);
#395=EDGE_CURVE('',#326,#310,#74,.T.);
#396=EDGE_CURVE('',#324,#326,#278,.T.);
#397=EDGE_CURVE('',#327,#325,#75,.T.);
#398=EDGE_CURVE('',#327,#308,#76,.T.);
#399=EDGE_CURVE('',#307,#328,#77,.T.);
#400=EDGE_CURVE('',#329,#328,#78,.T.);
#401=EDGE_CURVE('',#312,#329,#79,.T.);
#402=EDGE_CURVE('',#330,#312,#80,.T.);
#403=EDGE_CURVE('',#326,#330,#81,.T.);
#404=EDGE_CURVE('',#330,#331,#279,.T.);
#405=EDGE_CURVE('',#332,#329,#280,.T.);
#406=EDGE_CURVE('',#318,#332,#82,.T.);
#407=EDGE_CURVE('',#331,#318,#83,.T.);
#408=EDGE_CURVE('',#333,#320,#84,.T.);
#409=EDGE_CURVE('',#331,#333,#85,.T.);
#410=EDGE_CURVE('',#334,#319,#86,.T.);
#411=EDGE_CURVE('',#333,#334,#281,.T.);
#412=EDGE_CURVE('',#335,#317,#87,.T.);
#413=EDGE_CURVE('',#334,#335,#88,.T.);
#414=EDGE_CURVE('',#335,#336,#89,.T.);
#415=EDGE_CURVE('',#337,#332,#90,.T.);
#416=EDGE_CURVE('',#313,#337,#91,.T.);
#417=EDGE_CURVE('',#336,#314,#92,.T.);
#418=EDGE_CURVE('',#338,#316,#93,.T.);
#419=EDGE_CURVE('',#336,#338,#94,.T.);
#420=EDGE_CURVE('',#339,#315,#95,.T.);
#421=EDGE_CURVE('',#338,#339,#282,.T.);
#422=EDGE_CURVE('',#340,#313,#96,.T.);
#423=EDGE_CURVE('',#339,#340,#97,.T.);
#424=EDGE_CURVE('',#340,#322,#283,.T.);
#425=EDGE_CURVE('',#328,#337,#284,.T.);
#426=EDGE_CURVE('',#323,#327,#98,.T.);
#427=EDGE_CURVE('',#296,#341,#99,.T.);
#428=EDGE_CURVE('',#341,#295,#285,.T.);
#429=EDGE_CURVE('',#291,#341,#100,.T.);
#430=ORIENTED_EDGE('',*,*,#342,.T.);
#431=ORIENTED_EDGE('',*,*,#343,.T.);
#432=ORIENTED_EDGE('',*,*,#344,.T.);
#433=ORIENTED_EDGE('',*,*,#345,.T.);
#434=ORIENTED_EDGE('',*,*,#346,.T.);
#435=ORIENTED_EDGE('',*,*,#347,.T.);
#436=ORIENTED_EDGE('',*,*,#344,.F.);
#437=ORIENTED_EDGE('',*,*,#348,.T.);
#438=ORIENTED_EDGE('',*,*,#349,.T.);
#439=ORIENTED_EDGE('',*,*,#350,.T.);
#440=ORIENTED_EDGE('',*,*,#346,.F.);
#441=ORIENTED_EDGE('',*,*,#351,.T.);
#442=ORIENTED_EDGE('',*,*,#342,.F.);
#443=ORIENTED_EDGE('',*,*,#352,.T.);
#444=ORIENTED_EDGE('',*,*,#349,.F.);
#445=ORIENTED_EDGE('',*,*,#353,.T.);
#446=ORIENTED_EDGE('',*,*,#352,.F.);
#447=ORIENTED_EDGE('',*,*,#354,.T.);
#448=ORIENTED_EDGE('',*,*,#355,.F.);
#449=ORIENTED_EDGE('',*,*,#356,.F.);
#450=ORIENTED_EDGE('',*,*,#345,.F.);
#451=ORIENTED_EDGE('',*,*,#357,.T.);
#452=ORIENTED_EDGE('',*,*,#358,.F.);
#453=ORIENTED_EDGE('',*,*,#354,.F.);
#454=ORIENTED_EDGE('',*,*,#343,.F.);
#455=ORIENTED_EDGE('',*,*,#353,.F.);
#456=ORIENTED_EDGE('',*,*,#351,.F.);
#457=ORIENTED_EDGE('',*,*,#348,.F.);
#458=ORIENTED_EDGE('',*,*,#359,.F.);
#459=ORIENTED_EDGE('',*,*,#360,.T.);
#460=ORIENTED_EDGE('',*,*,#361,.T.);
#461=ORIENTED_EDGE('',*,*,#360,.F.);
#462=ORIENTED_EDGE('',*,*,#361,.F.);
#463=ORIENTED_EDGE('',*,*,#362,.F.);
#464=ORIENTED_EDGE('',*,*,#363,.T.);
#465=ORIENTED_EDGE('',*,*,#364,.T.);
#466=ORIENTED_EDGE('',*,*,#363,.F.);
#467=ORIENTED_EDGE('',*,*,#364,.F.);
#468=ORIENTED_EDGE('',*,*,#365,.F.);
#469=ORIENTED_EDGE('',*,*,#366,.T.);
#470=ORIENTED_EDGE('',*,*,#367,.T.);
#471=ORIENTED_EDGE('',*,*,#366,.F.);
#472=ORIENTED_EDGE('',*,*,#367,.F.);
#473=ORIENTED_EDGE('',*,*,#368,.F.);
#474=ORIENTED_EDGE('',*,*,#369,.T.);
#475=ORIENTED_EDGE('',*,*,#370,.T.);
#476=ORIENTED_EDGE('',*,*,#369,.F.);
#477=ORIENTED_EDGE('',*,*,#370,.F.);
#478=ORIENTED_EDGE('',*,*,#371,.F.);
#479=ORIENTED_EDGE('',*,*,#372,.F.);
#480=ORIENTED_EDGE('',*,*,#373,.F.);
#481=ORIENTED_EDGE('',*,*,#374,.F.);
#482=ORIENTED_EDGE('',*,*,#362,.T.);
#483=ORIENTED_EDGE('',*,*,#375,.F.);
#484=ORIENTED_EDGE('',*,*,#376,.F.);
#485=ORIENTED_EDGE('',*,*,#377,.F.);
#486=ORIENTED_EDGE('',*,*,#378,.F.);
#487=ORIENTED_EDGE('',*,*,#359,.T.);
#488=ORIENTED_EDGE('',*,*,#379,.F.);
#489=ORIENTED_EDGE('',*,*,#380,.F.);
#490=ORIENTED_EDGE('',*,*,#381,.F.);
#491=ORIENTED_EDGE('',*,*,#382,.F.);
#492=ORIENTED_EDGE('',*,*,#368,.T.);
#493=ORIENTED_EDGE('',*,*,#383,.F.);
#494=ORIENTED_EDGE('',*,*,#384,.F.);
#495=ORIENTED_EDGE('',*,*,#385,.F.);
#496=ORIENTED_EDGE('',*,*,#386,.F.);
#497=ORIENTED_EDGE('',*,*,#365,.T.);
#498=ORIENTED_EDGE('',*,*,#372,.T.);
#499=ORIENTED_EDGE('',*,*,#387,.F.);
#500=ORIENTED_EDGE('',*,*,#388,.F.);
#501=ORIENTED_EDGE('',*,*,#389,.T.);
#502=ORIENTED_EDGE('',*,*,#371,.T.);
#503=ORIENTED_EDGE('',*,*,#390,.F.);
#504=ORIENTED_EDGE('',*,*,#391,.F.);
#505=ORIENTED_EDGE('',*,*,#387,.T.);
#506=ORIENTED_EDGE('',*,*,#376,.T.);
#507=ORIENTED_EDGE('',*,*,#392,.F.);
#508=ORIENTED_EDGE('',*,*,#393,.F.);
#509=ORIENTED_EDGE('',*,*,#394,.T.);
#510=ORIENTED_EDGE('',*,*,#375,.T.);
#511=ORIENTED_EDGE('',*,*,#395,.F.);
#512=ORIENTED_EDGE('',*,*,#396,.F.);
#513=ORIENTED_EDGE('',*,*,#392,.T.);
#514=ORIENTED_EDGE('',*,*,#397,.F.);
#515=ORIENTED_EDGE('',*,*,#398,.T.);
#516=ORIENTED_EDGE('',*,*,#373,.T.);
#517=ORIENTED_EDGE('',*,*,#399,.T.);
#518=ORIENTED_EDGE('',*,*,#400,.F.);
#519=ORIENTED_EDGE('',*,*,#401,.F.);
#520=ORIENTED_EDGE('',*,*,#377,.T.);
#521=ORIENTED_EDGE('',*,*,#394,.F.);
#522=ORIENTED_EDGE('',*,*,#378,.T.);
#523=ORIENTED_EDGE('',*,*,#402,.F.);
#524=ORIENTED_EDGE('',*,*,#403,.F.);
#525=ORIENTED_EDGE('',*,*,#395,.T.);
#526=ORIENTED_EDGE('',*,*,#404,.F.);
#527=ORIENTED_EDGE('',*,*,#402,.T.);
#528=ORIENTED_EDGE('',*,*,#401,.T.);
#529=ORIENTED_EDGE('',*,*,#405,.F.);
#530=ORIENTED_EDGE('',*,*,#406,.F.);
#531=ORIENTED_EDGE('',*,*,#407,.F.);
#532=ORIENTED_EDGE('',*,*,#386,.T.);
#533=ORIENTED_EDGE('',*,*,#408,.F.);
#534=ORIENTED_EDGE('',*,*,#409,.F.);
#535=ORIENTED_EDGE('',*,*,#407,.T.);
#536=ORIENTED_EDGE('',*,*,#385,.T.);
#537=ORIENTED_EDGE('',*,*,#410,.F.);
#538=ORIENTED_EDGE('',*,*,#411,.F.);
#539=ORIENTED_EDGE('',*,*,#408,.T.);
#540=ORIENTED_EDGE('',*,*,#384,.T.);
#541=ORIENTED_EDGE('',*,*,#412,.F.);
#542=ORIENTED_EDGE('',*,*,#413,.F.);
#543=ORIENTED_EDGE('',*,*,#410,.T.);
#544=ORIENTED_EDGE('',*,*,#414,.F.);
#545=ORIENTED_EDGE('',*,*,#412,.T.);
#546=ORIENTED_EDGE('',*,*,#383,.T.);
#547=ORIENTED_EDGE('',*,*,#406,.T.);
#548=ORIENTED_EDGE('',*,*,#415,.F.);
#549=ORIENTED_EDGE('',*,*,#416,.F.);
#550=ORIENTED_EDGE('',*,*,#379,.T.);
#551=ORIENTED_EDGE('',*,*,#417,.F.);
#552=ORIENTED_EDGE('',*,*,#382,.T.);
#553=ORIENTED_EDGE('',*,*,#418,.F.);
#554=ORIENTED_EDGE('',*,*,#419,.F.);
#555=ORIENTED_EDGE('',*,*,#417,.T.);
#556=ORIENTED_EDGE('',*,*,#381,.T.);
#557=ORIENTED_EDGE('',*,*,#420,.F.);
#558=ORIENTED_EDGE('',*,*,#421,.F.);
#559=ORIENTED_EDGE('',*,*,#418,.T.);
#560=ORIENTED_EDGE('',*,*,#380,.T.);
#561=ORIENTED_EDGE('',*,*,#422,.F.);
#562=ORIENTED_EDGE('',*,*,#423,.F.);
#563=ORIENTED_EDGE('',*,*,#420,.T.);
#564=ORIENTED_EDGE('',*,*,#424,.F.);
#565=ORIENTED_EDGE('',*,*,#422,.T.);
#566=ORIENTED_EDGE('',*,*,#416,.T.);
#567=ORIENTED_EDGE('',*,*,#425,.F.);
#568=ORIENTED_EDGE('',*,*,#399,.F.);
#569=ORIENTED_EDGE('',*,*,#389,.F.);
#570=ORIENTED_EDGE('',*,*,#374,.T.);
#571=ORIENTED_EDGE('',*,*,#398,.F.);
#572=ORIENTED_EDGE('',*,*,#426,.F.);
#573=ORIENTED_EDGE('',*,*,#390,.T.);
#574=ORIENTED_EDGE('',*,*,#427,.T.);
#575=ORIENTED_EDGE('',*,*,#428,.T.);
#576=ORIENTED_EDGE('',*,*,#355,.T.);
#577=ORIENTED_EDGE('',*,*,#358,.T.);
#578=ORIENTED_EDGE('',*,*,#400,.T.);
#579=ORIENTED_EDGE('',*,*,#425,.T.);
#580=ORIENTED_EDGE('',*,*,#415,.T.);
#581=ORIENTED_EDGE('',*,*,#405,.T.);
#582=ORIENTED_EDGE('',*,*,#347,.F.);
#583=ORIENTED_EDGE('',*,*,#429,.T.);
#584=ORIENTED_EDGE('',*,*,#427,.F.);
#585=ORIENTED_EDGE('',*,*,#357,.F.);
#586=ORIENTED_EDGE('',*,*,#350,.F.);
#587=ORIENTED_EDGE('',*,*,#356,.T.);
#588=ORIENTED_EDGE('',*,*,#428,.F.);
#589=ORIENTED_EDGE('',*,*,#429,.F.);
#590=ORIENTED_EDGE('',*,*,#397,.T.);
#591=ORIENTED_EDGE('',*,*,#393,.T.);
#592=ORIENTED_EDGE('',*,*,#396,.T.);
#593=ORIENTED_EDGE('',*,*,#403,.T.);
#594=ORIENTED_EDGE('',*,*,#404,.T.);
#595=ORIENTED_EDGE('',*,*,#409,.T.);
#596=ORIENTED_EDGE('',*,*,#411,.T.);
#597=ORIENTED_EDGE('',*,*,#413,.T.);
#598=ORIENTED_EDGE('',*,*,#414,.T.);
#599=ORIENTED_EDGE('',*,*,#419,.T.);
#600=ORIENTED_EDGE('',*,*,#421,.T.);
#601=ORIENTED_EDGE('',*,*,#423,.T.);
#602=ORIENTED_EDGE('',*,*,#424,.T.);
#603=ORIENTED_EDGE('',*,*,#388,.T.);
#604=ORIENTED_EDGE('',*,*,#391,.T.);
#605=ORIENTED_EDGE('',*,*,#426,.T.);
#606=TOROIDAL_SURFACE('',#661,23.,2.);
#607=TOROIDAL_SURFACE('',#668,23.,2.);
#608=ADVANCED_FACE('',(#173),#606,.T.);
#609=ADVANCED_FACE('',(#174),#159,.T.);
#610=ADVANCED_FACE('',(#175),#607,.T.);
#611=ADVANCED_FACE('',(#176),#160,.T.);
#612=ADVANCED_FACE('',(#177),#20,.T.);
#613=ADVANCED_FACE('',(#178),#161,.T.);
#614=ADVANCED_FACE('',(#179),#21,.F.);
#615=ADVANCED_FACE('',(#180),#162,.F.);
#616=ADVANCED_FACE('',(#181),#22,.T.);
#617=ADVANCED_FACE('',(#182),#163,.F.);
#618=ADVANCED_FACE('',(#183),#23,.T.);
#619=ADVANCED_FACE('',(#184),#164,.F.);
#620=ADVANCED_FACE('',(#185),#24,.T.);
#621=ADVANCED_FACE('',(#186),#165,.F.);
#622=ADVANCED_FACE('',(#187),#25,.T.);
#623=ADVANCED_FACE('',(#188,#15),#26,.T.);
#624=ADVANCED_FACE('',(#189,#16),#27,.T.);
#625=ADVANCED_FACE('',(#190,#17),#28,.T.);
#626=ADVANCED_FACE('',(#191,#18),#29,.T.);
#627=ADVANCED_FACE('',(#192),#30,.T.);
#628=ADVANCED_FACE('',(#193),#166,.T.);
#629=ADVANCED_FACE('',(#194),#31,.T.);
#630=ADVANCED_FACE('',(#195),#167,.T.);
#631=ADVANCED_FACE('',(#196),#32,.T.);
#632=ADVANCED_FACE('',(#197),#33,.T.);
#633=ADVANCED_FACE('',(#198),#168,.F.);
#634=ADVANCED_FACE('',(#199),#34,.T.);
#635=ADVANCED_FACE('',(#200),#169,.T.);
#636=ADVANCED_FACE('',(#201),#35,.T.);
#637=ADVANCED_FACE('',(#202),#36,.T.);
#638=ADVANCED_FACE('',(#203),#37,.T.);
#639=ADVANCED_FACE('',(#204),#170,.T.);
#640=ADVANCED_FACE('',(#205),#38,.T.);
#641=ADVANCED_FACE('',(#206),#171,.F.);
#642=ADVANCED_FACE('',(#207),#39,.T.);
#643=ADVANCED_FACE('',(#208,#19),#40,.T.);
#644=ADVANCED_FACE('',(#209),#41,.T.);
#645=ADVANCED_FACE('',(#210),#172,.T.);
#646=ADVANCED_FACE('',(#211),#42,.T.);
#647=CLOSED_SHELL('',(#608,#609,#610,#611,#612,#613,#614,#615,#616,#617,
#618,#619,#620,#621,#622,#623,#624,#625,#626,#627,#628,#629,#630,#631,#632,
#633,#634,#635,#636,#637,#638,#639,#640,#641,#642,#643,#644,#645,#646));
#648=DERIVED_UNIT_ELEMENT(#650,1.);
#649=DERIVED_UNIT_ELEMENT(#1117,-3.);
#650=(
MASS_UNIT()
NAMED_UNIT(*)
SI_UNIT(.KILO.,.GRAM.)
);
#651=DERIVED_UNIT((#648,#649));
#652=MEASURE_REPRESENTATION_ITEM('density measure',
POSITIVE_RATIO_MEASURE(7850.),#651);
#653=PROPERTY_DEFINITION_REPRESENTATION(#658,#655);
#654=PROPERTY_DEFINITION_REPRESENTATION(#659,#656);
#655=REPRESENTATION('material name',(#657),#1114);
#656=REPRESENTATION('density',(#652),#1114);
#657=DESCRIPTIVE_REPRESENTATION_ITEM('\X2\AC15CCA0\X0\','\X2\AC15CCA0\X0\');
#658=PROPERTY_DEFINITION('material property','material name',#1124);
#659=PROPERTY_DEFINITION('material property','density of part',#1124);
#660=AXIS2_PLACEMENT_3D('',#928,#730,#731);
#661=AXIS2_PLACEMENT_3D('',#929,#732,#733);
#662=AXIS2_PLACEMENT_3D('',#932,#734,#735);
#663=AXIS2_PLACEMENT_3D('',#934,#736,#737);
#664=AXIS2_PLACEMENT_3D('',#936,#738,#739);
#665=AXIS2_PLACEMENT_3D('',#937,#740,#741);
#666=AXIS2_PLACEMENT_3D('',#938,#742,#743);
#667=AXIS2_PLACEMENT_3D('',#941,#744,#745);
#668=AXIS2_PLACEMENT_3D('',#944,#748,#749);
#669=AXIS2_PLACEMENT_3D('',#947,#750,#751);
#670=AXIS2_PLACEMENT_3D('',#948,#752,#753);
#671=AXIS2_PLACEMENT_3D('',#949,#754,#755);
#672=AXIS2_PLACEMENT_3D('',#950,#756,#757);
#673=AXIS2_PLACEMENT_3D('',#953,#760,#761);
#674=AXIS2_PLACEMENT_3D('',#959,#765,#766);
#675=AXIS2_PLACEMENT_3D('',#962,#768,#769);
#676=AXIS2_PLACEMENT_3D('',#963,#770,#771);
#677=AXIS2_PLACEMENT_3D('',#964,#772,#773);
#678=AXIS2_PLACEMENT_3D('',#966,#774,#775);
#679=AXIS2_PLACEMENT_3D('',#969,#777,#778);
#680=AXIS2_PLACEMENT_3D('',#970,#779,#780);
#681=AXIS2_PLACEMENT_3D('',#971,#781,#782);
#682=AXIS2_PLACEMENT_3D('',#973,#783,#784);
#683=AXIS2_PLACEMENT_3D('',#976,#786,#787);
#684=AXIS2_PLACEMENT_3D('',#977,#788,#789);
#685=AXIS2_PLACEMENT_3D('',#978,#790,#791);
#686=AXIS2_PLACEMENT_3D('',#980,#792,#793);
#687=AXIS2_PLACEMENT_3D('',#983,#795,#796);
#688=AXIS2_PLACEMENT_3D('',#984,#797,#798);
#689=AXIS2_PLACEMENT_3D('',#985,#799,#800);
#690=AXIS2_PLACEMENT_3D('',#987,#801,#802);
#691=AXIS2_PLACEMENT_3D('',#990,#804,#805);
#692=AXIS2_PLACEMENT_3D('',#991,#806,#807);
#693=AXIS2_PLACEMENT_3D('',#992,#808,#809);
#694=AXIS2_PLACEMENT_3D('',#995,#810,#811);
#695=AXIS2_PLACEMENT_3D('',#1001,#815,#816);
#696=AXIS2_PLACEMENT_3D('',#1004,#817,#818);
#697=AXIS2_PLACEMENT_3D('',#1010,#822,#823);
#698=AXIS2_PLACEMENT_3D('',#1017,#826,#827);
#699=AXIS2_PLACEMENT_3D('',#1019,#829,#830);
#700=AXIS2_PLACEMENT_3D('',#1026,#833,#834);
#701=AXIS2_PLACEMENT_3D('',#1028,#836,#837);
#702=AXIS2_PLACEMENT_3D('',#1034,#841,#842);
#703=AXIS2_PLACEMENT_3D('',#1037,#844,#845);
#704=AXIS2_PLACEMENT_3D('',#1038,#846,#847);
#705=AXIS2_PLACEMENT_3D('',#1044,#851,#852);
#706=AXIS2_PLACEMENT_3D('',#1047,#854,#855);
#707=AXIS2_PLACEMENT_3D('',#1048,#856,#857);
#708=AXIS2_PLACEMENT_3D('',#1057,#863,#864);
#709=AXIS2_PLACEMENT_3D('',#1061,#867,#868);
#710=AXIS2_PLACEMENT_3D('',#1063,#869,#870);
#711=AXIS2_PLACEMENT_3D('',#1065,#871,#872);
#712=AXIS2_PLACEMENT_3D('',#1068,#875,#876);
#713=AXIS2_PLACEMENT_3D('',#1072,#879,#880);
#714=AXIS2_PLACEMENT_3D('',#1075,#882,#883);
#715=AXIS2_PLACEMENT_3D('',#1076,#884,#885);
#716=AXIS2_PLACEMENT_3D('',#1080,#888,#889);
#717=AXIS2_PLACEMENT_3D('',#1087,#894,#895);
#718=AXIS2_PLACEMENT_3D('',#1091,#898,#899);
#719=AXIS2_PLACEMENT_3D('',#1094,#901,#902);
#720=AXIS2_PLACEMENT_3D('',#1095,#903,#904);
#721=AXIS2_PLACEMENT_3D('',#1099,#907,#908);
#722=AXIS2_PLACEMENT_3D('',#1100,#909,#910);
#723=AXIS2_PLACEMENT_3D('',#1101,#911,#912);
#724=AXIS2_PLACEMENT_3D('',#1102,#913,#914);
#725=AXIS2_PLACEMENT_3D('',#1104,#916,#917);
#726=AXIS2_PLACEMENT_3D('',#1107,#919,#920);
#727=AXIS2_PLACEMENT_3D('',#1108,#921,#922);
#728=AXIS2_PLACEMENT_3D('',#1110,#924,#925);
#729=AXIS2_PLACEMENT_3D('',#1111,#926,#927);
#730=DIRECTION('axis',(0.,0.,1.));
#731=DIRECTION('refdir',(1.,0.,0.));
#732=DIRECTION('center_axis',(0.,0.,1.));
#733=DIRECTION('ref_axis',(1.,0.,0.));
#734=DIRECTION('center_axis',(0.,-1.,0.));
#735=DIRECTION('ref_axis',(-1.,0.,0.));
#736=DIRECTION('center_axis',(0.,0.,1.));
#737=DIRECTION('ref_axis',(-6.12323399573676E-17,-1.,0.));
#738=DIRECTION('center_axis',(-1.22464679914735E-16,-1.,0.));
#739=DIRECTION('ref_axis',(0.,0.,-1.));
#740=DIRECTION('center_axis',(0.,0.,-1.));
#741=DIRECTION('ref_axis',(-6.12323399573677E-17,-1.,0.));
#742=DIRECTION('center_axis',(4.44089209850063E-17,-1.,0.));
#743=DIRECTION('ref_axis',(0.707106781186548,0.,-0.707106781186547));
#744=DIRECTION('center_axis',(0.,-1.,0.));
#745=DIRECTION('ref_axis',(0.,0.,-1.));
#746=DIRECTION('',(4.44089209850063E-17,-1.,0.));
#747=DIRECTION('',(-4.44089209850063E-17,1.,0.));
#748=DIRECTION('center_axis',(0.,0.,1.));
#749=DIRECTION('ref_axis',(1.,0.,0.));
#750=DIRECTION('center_axis',(0.,1.,0.));
#751=DIRECTION('ref_axis',(0.,0.,-1.));
#752=DIRECTION('center_axis',(0.,0.,-1.));
#753=DIRECTION('ref_axis',(6.12323399573676E-17,1.,0.));
#754=DIRECTION('center_axis',(0.,0.,1.));
#755=DIRECTION('ref_axis',(6.12323399573676E-17,1.,0.));
#756=DIRECTION('center_axis',(-4.44089209850063E-17,-1.,0.));
#757=DIRECTION('ref_axis',(-0.707106781186546,0.,-0.707106781186549));
#758=DIRECTION('',(4.44089209850063E-17,1.,0.));
#759=DIRECTION('',(-4.44089209850063E-17,-1.,0.));
#760=DIRECTION('center_axis',(-1.,4.44089209850063E-17,0.));
#761=DIRECTION('ref_axis',(-4.44089209850063E-17,-1.,0.));
#762=DIRECTION('',(0.,0.,1.));
#763=DIRECTION('',(-8.88178419700125E-17,-1.,0.));
#764=DIRECTION('',(0.,0.,1.));
#765=DIRECTION('center_axis',(0.,0.,1.));
#766=DIRECTION('ref_axis',(-1.,0.,0.));
#767=DIRECTION('',(0.,0.,1.));
#768=DIRECTION('center_axis',(0.,0.,1.));
#769=DIRECTION('ref_axis',(-1.,0.,0.));
#770=DIRECTION('center_axis',(0.,0.,1.));
#771=DIRECTION('ref_axis',(1.,0.,0.));
#772=DIRECTION('center_axis',(0.,0.,-1.));
#773=DIRECTION('ref_axis',(-1.,0.,0.));
#774=DIRECTION('center_axis',(0.,0.,-1.));
#775=DIRECTION('ref_axis',(-1.,0.,0.));
#776=DIRECTION('',(0.,0.,-1.));
#777=DIRECTION('center_axis',(0.,0.,-1.));
#778=DIRECTION('ref_axis',(-1.,0.,0.));
#779=DIRECTION('center_axis',(0.,0.,1.));
#780=DIRECTION('ref_axis',(-1.,0.,0.));
#781=DIRECTION('center_axis',(0.,0.,-1.));
#782=DIRECTION('ref_axis',(-1.,0.,0.));
#783=DIRECTION('center_axis',(0.,0.,-1.));
#784=DIRECTION('ref_axis',(-1.,0.,0.));
#785=DIRECTION('',(0.,0.,-1.));
#786=DIRECTION('center_axis',(0.,0.,-1.));
#787=DIRECTION('ref_axis',(-1.,0.,0.));
#788=DIRECTION('center_axis',(0.,0.,1.));
#789=DIRECTION('ref_axis',(-1.,0.,0.));
#790=DIRECTION('center_axis',(0.,0.,-1.));
#791=DIRECTION('ref_axis',(-1.,0.,0.));
#792=DIRECTION('center_axis',(0.,0.,-1.));
#793=DIRECTION('ref_axis',(-1.,0.,0.));
#794=DIRECTION('',(0.,0.,-1.));
#795=DIRECTION('center_axis',(0.,0.,-1.));
#796=DIRECTION('ref_axis',(-1.,0.,0.));
#797=DIRECTION('center_axis',(0.,0.,1.));
#798=DIRECTION('ref_axis',(-1.,0.,0.));
#799=DIRECTION('center_axis',(0.,0.,-1.));
#800=DIRECTION('ref_axis',(-1.,0.,0.));
#801=DIRECTION('center_axis',(0.,0.,-1.));
#802=DIRECTION('ref_axis',(-1.,0.,0.));
#803=DIRECTION('',(0.,0.,-1.));
#804=DIRECTION('center_axis',(0.,0.,-1.));
#805=DIRECTION('ref_axis',(-1.,0.,0.));
#806=DIRECTION('center_axis',(0.,0.,1.));
#807=DIRECTION('ref_axis',(-1.,0.,0.));
#808=DIRECTION('center_axis',(0.,0.,1.));
#809=DIRECTION('ref_axis',(-1.,0.,0.));
#810=DIRECTION('center_axis',(0.,0.,-1.));
#811=DIRECTION('ref_axis',(0.,1.,0.));
#812=DIRECTION('',(-1.,-2.23517445166938E-8,0.));
#813=DIRECTION('',(0.,-1.,0.));
#814=DIRECTION('',(1.,0.,0.));
#815=DIRECTION('center_axis',(0.,0.,1.));
#816=DIRECTION('ref_axis',(-1.,0.,0.));
#817=DIRECTION('center_axis',(0.,0.,-1.));
#818=DIRECTION('ref_axis',(-0.000996699538768377,0.999999503294891,0.));
#819=DIRECTION('',(-1.,1.35479161703434E-11,0.));
#820=DIRECTION('',(2.22044604923024E-15,-1.,0.));
#821=DIRECTION('',(1.,0.,0.));
#822=DIRECTION('center_axis',(0.,0.,1.));
#823=DIRECTION('ref_axis',(-1.,0.,0.));
#824=DIRECTION('',(0.,1.,0.));
#825=DIRECTION('',(-1.,1.78676518025611E-15,0.));
#826=DIRECTION('center_axis',(0.,0.,-1.));
#827=DIRECTION('ref_axis',(0.,-1.,0.));
#828=DIRECTION('',(1.,2.77555756156289E-16,0.));
#829=DIRECTION('center_axis',(0.,0.,1.));
#830=DIRECTION('ref_axis',(-1.,0.,0.));
#831=DIRECTION('',(0.,1.,0.));
#832=DIRECTION('',(-1.,-4.43757490021073E-15,0.));
#833=DIRECTION('center_axis',(0.,0.,-1.));
#834=DIRECTION('ref_axis',(-0.000996700246598623,-0.999999503294186,0.));
#835=DIRECTION('',(1.,0.,0.));
#836=DIRECTION('center_axis',(2.23517445166938E-8,-1.,0.));
#837=DIRECTION('ref_axis',(1.,2.23517445166938E-8,0.));
#838=DIRECTION('',(0.,0.,1.));
#839=DIRECTION('',(-1.,-2.23517445166938E-8,0.));
#840=DIRECTION('',(0.,0.,1.));
#841=DIRECTION('center_axis',(0.,0.,1.));
#842=DIRECTION('ref_axis',(0.,1.,0.));
#843=DIRECTION('',(0.,0.,1.));
#844=DIRECTION('center_axis',(0.,0.,-1.));
#845=DIRECTION('ref_axis',(0.,1.,0.));
#846=DIRECTION('center_axis',(-1.35479161703434E-11,-1.,0.));
#847=DIRECTION('ref_axis',(1.,-1.35479161703434E-11,0.));
#848=DIRECTION('',(0.,0.,1.));
#849=DIRECTION('',(-1.,1.35479161703434E-11,0.));
#850=DIRECTION('',(0.,0.,1.));
#851=DIRECTION('center_axis',(0.,0.,1.));
#852=DIRECTION('ref_axis',(-0.000996699538768377,0.999999503294891,0.));
#853=DIRECTION('',(0.,0.,1.));
#854=DIRECTION('center_axis',(0.,0.,-1.));
#855=DIRECTION('ref_axis',(-0.000996699538768377,0.999999503294891,0.));
#856=DIRECTION('center_axis',(-1.,5.04646829888098E-17,0.));
#857=DIRECTION('ref_axis',(-5.04646829888098E-17,-1.,0.));
#858=DIRECTION('',(5.04646829888098E-17,1.,0.));
#859=DIRECTION('',(0.,0.,1.));
#860=DIRECTION('',(0.,0.,1.));
#861=DIRECTION('',(2.22044604923024E-15,-1.,0.));
#862=DIRECTION('',(0.,0.,1.));
#863=DIRECTION('center_axis',(0.,1.,0.));
#864=DIRECTION('ref_axis',(-1.,0.,0.));
#865=DIRECTION('',(0.,0.,1.));
#866=DIRECTION('',(1.,0.,0.));
#867=DIRECTION('center_axis',(0.,0.,1.));
#868=DIRECTION('ref_axis',(1.,0.,0.));
#869=DIRECTION('center_axis',(0.,0.,1.));
#870=DIRECTION('ref_axis',(1.,0.,0.));
#871=DIRECTION('center_axis',(0.,0.,-1.));
#872=DIRECTION('ref_axis',(1.,0.,0.));
#873=DIRECTION('',(0.,0.,1.));
#874=DIRECTION('',(0.,0.,1.));
#875=DIRECTION('center_axis',(0.,1.,0.));
#876=DIRECTION('ref_axis',(-1.,0.,0.));
#877=DIRECTION('',(0.,0.,1.));
#878=DIRECTION('',(1.,0.,0.));
#879=DIRECTION('center_axis',(0.,0.,1.));
#880=DIRECTION('ref_axis',(0.999999875848291,-0.000498300514728493,0.));
#881=DIRECTION('',(0.,0.,1.));
#882=DIRECTION('center_axis',(0.,0.,-1.));
#883=DIRECTION('ref_axis',(-0.000996700246598623,-0.999999503294186,0.));
#884=DIRECTION('center_axis',(4.43757490021073E-15,-1.,0.));
#885=DIRECTION('ref_axis',(1.,4.43757490021073E-15,0.));
#886=DIRECTION('',(0.,0.,1.));
#887=DIRECTION('',(-1.,-4.43757490021073E-15,0.));
#888=DIRECTION('center_axis',(1.,-1.00929364165971E-16,0.));
#889=DIRECTION('ref_axis',(1.00929364165971E-16,1.,0.));
#890=DIRECTION('',(-1.00929364165971E-16,-1.,0.));
#891=DIRECTION('',(0.,1.,0.));
#892=DIRECTION('',(0.,0.,1.));
#893=DIRECTION('',(0.,0.,1.));
#894=DIRECTION('center_axis',(-2.77555756156289E-16,1.,0.));
#895=DIRECTION('ref_axis',(-1.,-2.77555756156289E-16,0.));
#896=DIRECTION('',(0.,0.,1.));
#897=DIRECTION('',(1.,2.77555756156289E-16,0.));
#898=DIRECTION('center_axis',(0.,0.,1.));
#899=DIRECTION('ref_axis',(1.,6.20687333161688E-11,0.));
#900=DIRECTION('',(0.,0.,1.));
#901=DIRECTION('center_axis',(0.,0.,-1.));
#902=DIRECTION('ref_axis',(0.,-1.,0.));
#903=DIRECTION('center_axis',(-1.78676518025611E-15,-1.,0.));
#904=DIRECTION('ref_axis',(1.,-1.78676518025611E-15,0.));
#905=DIRECTION('',(0.,0.,1.));
#906=DIRECTION('',(-1.,1.78676518025611E-15,0.));
#907=DIRECTION('center_axis',(0.,0.,1.));
#908=DIRECTION('ref_axis',(-1.,0.,0.));
#909=DIRECTION('center_axis',(0.,0.,1.));
#910=DIRECTION('ref_axis',(-1.,0.,0.));
#911=DIRECTION('center_axis',(0.,0.,-1.));
#912=DIRECTION('ref_axis',(-1.,0.,0.));
#913=DIRECTION('center_axis',(0.,1.,0.));
#914=DIRECTION('ref_axis',(-1.,0.,0.));
#915=DIRECTION('',(1.,0.,0.));
#916=DIRECTION('center_axis',(0.,0.,1.));
#917=DIRECTION('ref_axis',(-1.,0.,0.));
#918=DIRECTION('',(-4.44089209850063E-17,1.,0.));
#919=DIRECTION('center_axis',(0.,0.,1.));
#920=DIRECTION('ref_axis',(1.,0.,0.));
#921=DIRECTION('center_axis',(1.,4.44089209850063E-17,0.));
#922=DIRECTION('ref_axis',(-4.44089209850063E-17,1.,0.));
#923=DIRECTION('',(0.,0.,1.));
#924=DIRECTION('center_axis',(0.,0.,1.));
#925=DIRECTION('ref_axis',(1.,0.,0.));
#926=DIRECTION('center_axis',(0.,0.,1.));
#927=DIRECTION('ref_axis',(1.,0.,0.));
#928=CARTESIAN_POINT('',(0.,0.,0.));
#929=CARTESIAN_POINT('Origin',(0.,0.,2.));
#930=CARTESIAN_POINT('',(-25.,0.,2.));
#931=CARTESIAN_POINT('',(-23.,0.,0.));
#932=CARTESIAN_POINT('Origin',(-23.,0.,2.));
#933=CARTESIAN_POINT('',(23.,-2.81668763803891E-15,0.));
#934=CARTESIAN_POINT('Origin',(0.,0.,0.));
#935=CARTESIAN_POINT('',(25.,-3.06161699786838E-15,2.));
#936=CARTESIAN_POINT('Origin',(23.,-2.81668763803891E-15,2.));
#937=CARTESIAN_POINT('Origin',(0.,0.,2.));
#938=CARTESIAN_POINT('Origin',(23.,25.,2.));
#939=CARTESIAN_POINT('',(23.,100.,0.));
#940=CARTESIAN_POINT('',(25.,100.,2.));
#941=CARTESIAN_POINT('Origin',(23.,100.,2.));
#942=CARTESIAN_POINT('',(25.,25.,2.));
#943=CARTESIAN_POINT('',(23.,25.,0.));
#944=CARTESIAN_POINT('Origin',(0.,100.,2.));
#945=CARTESIAN_POINT('',(-23.,100.,0.));
#946=CARTESIAN_POINT('',(-25.,100.,2.));
#947=CARTESIAN_POINT('Origin',(-23.,100.,2.));
#948=CARTESIAN_POINT('Origin',(0.,100.,2.));
#949=CARTESIAN_POINT('Origin',(0.,100.,0.));
#950=CARTESIAN_POINT('Origin',(-23.,75.,2.));
#951=CARTESIAN_POINT('',(-25.,75.,2.));
#952=CARTESIAN_POINT('',(-23.,75.,0.));
#953=CARTESIAN_POINT('Origin',(-25.,100.,0.));
#954=CARTESIAN_POINT('',(-25.,0.,43.));
#955=CARTESIAN_POINT('',(-25.,0.,0.));
#956=CARTESIAN_POINT('',(-25.,100.,43.));
#957=CARTESIAN_POINT('',(-25.,100.,43.));
#958=CARTESIAN_POINT('',(-25.,100.,0.));
#959=CARTESIAN_POINT('Origin',(0.,0.,0.));
#960=CARTESIAN_POINT('',(25.,-1.11022302462516E-15,43.));
#961=CARTESIAN_POINT('',(25.,-3.06161699786838E-15,0.));
#962=CARTESIAN_POINT('Origin',(0.,0.,43.));
#963=CARTESIAN_POINT('Origin',(0.,50.,0.));
#964=CARTESIAN_POINT('Origin',(20.,97.,41.));
#965=CARTESIAN_POINT('',(21.45,97.,41.));
#966=CARTESIAN_POINT('Origin',(20.,97.,41.));
#967=CARTESIAN_POINT('',(21.45,97.,36.));
#968=CARTESIAN_POINT('',(21.45,97.,41.));
#969=CARTESIAN_POINT('Origin',(20.,97.,36.));
#970=CARTESIAN_POINT('Origin',(20.,97.,36.));
#971=CARTESIAN_POINT('Origin',(20.,3.,41.));
#972=CARTESIAN_POINT('',(21.45,3.,41.));
#973=CARTESIAN_POINT('Origin',(20.,3.,41.));
#974=CARTESIAN_POINT('',(21.45,3.,36.));
#975=CARTESIAN_POINT('',(21.45,3.,41.));
#976=CARTESIAN_POINT('Origin',(20.,3.,36.));
#977=CARTESIAN_POINT('Origin',(20.,3.,36.));
#978=CARTESIAN_POINT('Origin',(-20.,97.,41.));
#979=CARTESIAN_POINT('',(-18.55,97.,41.));
#980=CARTESIAN_POINT('Origin',(-20.,97.,41.));
#981=CARTESIAN_POINT('',(-18.55,97.,36.));
#982=CARTESIAN_POINT('',(-18.55,97.,41.));
#983=CARTESIAN_POINT('Origin',(-20.,97.,36.));
#984=CARTESIAN_POINT('Origin',(-20.,97.,36.));
#985=CARTESIAN_POINT('Origin',(-20.,3.,41.));
#986=CARTESIAN_POINT('',(-18.55,3.,41.));
#987=CARTESIAN_POINT('Origin',(-20.,3.,41.));
#988=CARTESIAN_POINT('',(-18.55,3.,36.));
#989=CARTESIAN_POINT('',(-18.55,3.,41.));
#990=CARTESIAN_POINT('Origin',(-20.,3.,36.));
#991=CARTESIAN_POINT('Origin',(-20.,3.,36.));
#992=CARTESIAN_POINT('Origin',(4.44089209850063E-15,49.9999999553004,41.));
#993=CARTESIAN_POINT('',(20.,-8.94069795975838E-8,41.));
#994=CARTESIAN_POINT('',(20.0000002980232,6.00000008940697,41.));
#995=CARTESIAN_POINT('Origin',(20.,3.,41.));
#996=CARTESIAN_POINT('',(24.,-1.11022302462516E-15,41.));
#997=CARTESIAN_POINT('',(10.0000005587936,-3.12924415268867E-7,41.));
#998=CARTESIAN_POINT('',(24.,6.00000008940698,41.));
#999=CARTESIAN_POINT('',(24.,6.00000008940698,41.));
#1000=CARTESIAN_POINT('',(12.,6.00000008940698,41.));
#1001=CARTESIAN_POINT('Origin',(4.44089209850063E-15,49.9999999553004,41.));
#1002=CARTESIAN_POINT('',(19.9970098998984,94.,41.));
#1003=CARTESIAN_POINT('',(19.9970098998985,100.,41.));
#1004=CARTESIAN_POINT('Origin',(20.,97.,41.));
#1005=CARTESIAN_POINT('',(24.,93.9999999999458,41.));
#1006=CARTESIAN_POINT('',(9.99850495024731,94.0000000001355,41.));
#1007=CARTESIAN_POINT('',(24.,100.,41.));
#1008=CARTESIAN_POINT('',(24.,100.,41.));
#1009=CARTESIAN_POINT('',(12.,100.,41.));
#1010=CARTESIAN_POINT('Origin',(-20.5,3.,41.));
#1011=CARTESIAN_POINT('',(-24.,0.,41.));
#1012=CARTESIAN_POINT('',(-24.,6.00000000000001,41.));
#1013=CARTESIAN_POINT('',(-24.,6.00000000000001,41.));
#1014=CARTESIAN_POINT('',(-20.0000002980232,0.,41.));
#1015=CARTESIAN_POINT('',(-22.25,-3.05311331771918E-15,41.));
#1016=CARTESIAN_POINT('',(-20.0000002983956,6.,41.));
#1017=CARTESIAN_POINT('Origin',(-20.,3.,41.));
#1018=CARTESIAN_POINT('',(-20.25,6.00000000000001,41.));
#1019=CARTESIAN_POINT('Origin',(4.44089209850063E-15,49.9999999553004,41.));
#1020=CARTESIAN_POINT('',(-24.,94.0000014901098,41.));
#1021=CARTESIAN_POINT('',(-24.,100.000000000008,41.));
#1022=CARTESIAN_POINT('',(-24.,100.000000000008,41.));
#1023=CARTESIAN_POINT('',(-20.0029901007398,94.0000014901096,41.));
#1024=CARTESIAN_POINT('',(-12.0000000000001,94.0000014901099,41.));
#1025=CARTESIAN_POINT('',(-20.0000002980228,100.,41.));
#1026=CARTESIAN_POINT('Origin',(-20.,97.,41.));
#1027=CARTESIAN_POINT('',(-9.99999999999999,100.000000000008,41.));
#1028=CARTESIAN_POINT('Origin',(20.,-8.94069795975838E-8,2.));
#1029=CARTESIAN_POINT('',(20.,-8.94069795975838E-8,2.));
#1030=CARTESIAN_POINT('',(20.,-8.94069795975838E-8,2.));
#1031=CARTESIAN_POINT('',(24.,-1.53080849955701E-15,2.));
#1032=CARTESIAN_POINT('',(10.0000005587936,-3.12924415268867E-7,2.));
#1033=CARTESIAN_POINT('',(24.,-1.53080849955701E-15,2.));
#1034=CARTESIAN_POINT('Origin',(20.,3.,2.));
#1035=CARTESIAN_POINT('',(20.,6.00000008940698,2.));
#1036=CARTESIAN_POINT('',(20.,6.00000008940698,2.));
#1037=CARTESIAN_POINT('Origin',(20.,3.,2.));
#1038=CARTESIAN_POINT('Origin',(19.9970098998985,94.,2.));
#1039=CARTESIAN_POINT('',(19.9970098998984,94.,2.));
#1040=CARTESIAN_POINT('',(19.9970098998984,94.,2.));
#1041=CARTESIAN_POINT('',(24.,93.9999999999458,2.));
#1042=CARTESIAN_POINT('',(9.9985049502473,94.0000000001355,2.));
#1043=CARTESIAN_POINT('',(24.,93.9999999999458,2.));
#1044=CARTESIAN_POINT('Origin',(20.,97.,2.));
#1045=CARTESIAN_POINT('',(19.9970098998985,100.,2.));
#1046=CARTESIAN_POINT('',(19.9970098998985,100.,2.));
#1047=CARTESIAN_POINT('Origin',(20.,97.,2.));
#1048=CARTESIAN_POINT('Origin',(24.,93.9999999999458,2.));
#1049=CARTESIAN_POINT('',(24.,6.00000008940698,2.));
#1050=CARTESIAN_POINT('',(24.,71.9999999999729,2.));
#1051=CARTESIAN_POINT('',(24.,6.00000008940698,2.));
#1052=CARTESIAN_POINT('',(24.,-1.11022302462516E-15,43.));
#1053=CARTESIAN_POINT('',(24.,-1.53080849955701E-15,2.));
#1054=CARTESIAN_POINT('',(24.,100.,43.));
#1055=CARTESIAN_POINT('',(24.,75.,43.));
#1056=CARTESIAN_POINT('',(24.,100.,2.));
#1057=CARTESIAN_POINT('Origin',(24.,100.,2.));
#1058=CARTESIAN_POINT('',(24.,100.,2.));
#1059=CARTESIAN_POINT('',(24.,100.,2.));
#1060=CARTESIAN_POINT('',(12.,100.,2.));
#1061=CARTESIAN_POINT('Origin',(0.,100.,2.));
#1062=CARTESIAN_POINT('',(-24.,100.000000000008,2.));
#1063=CARTESIAN_POINT('Origin',(0.,100.,2.));
#1064=CARTESIAN_POINT('',(-24.,100.000000000008,43.));
#1065=CARTESIAN_POINT('Origin',(0.,100.,43.));
#1066=CARTESIAN_POINT('',(-24.,100.000000000008,2.));
#1067=CARTESIAN_POINT('',(-24.,100.000000000008,2.));
#1068=CARTESIAN_POINT('Origin',(-20.,100.000000000008,2.));
#1069=CARTESIAN_POINT('',(-20.,100.000000000008,2.));
#1070=CARTESIAN_POINT('',(-20.,100.000000000008,2.));
#1071=CARTESIAN_POINT('',(-10.,100.000000000008,2.));
#1072=CARTESIAN_POINT('Origin',(-20.,97.,2.));
#1073=CARTESIAN_POINT('',(-20.0029901007398,94.0000014901096,2.));
#1074=CARTESIAN_POINT('',(-20.0029901007398,94.0000014901096,2.));
#1075=CARTESIAN_POINT('Origin',(-20.,97.,2.));
#1076=CARTESIAN_POINT('Origin',(-24.,94.0000014901098,2.));
#1077=CARTESIAN_POINT('',(-24.,94.0000014901098,2.));
#1078=CARTESIAN_POINT('',(-24.,94.0000014901098,2.));
#1079=CARTESIAN_POINT('',(-12.0000000000001,94.0000014901099,2.));
#1080=CARTESIAN_POINT('Origin',(-24.,6.00000000000001,2.));
#1081=CARTESIAN_POINT('',(-24.,6.00000000000001,2.));
#1082=CARTESIAN_POINT('',(-24.,28.,2.));
#1083=CARTESIAN_POINT('',(-24.,0.,43.));
#1084=CARTESIAN_POINT('',(-24.,25.,43.));
#1085=CARTESIAN_POINT('',(-24.,0.,2.));
#1086=CARTESIAN_POINT('',(-24.,6.00000000000001,2.));
#1087=CARTESIAN_POINT('Origin',(-20.,6.00000000000001,2.));
#1088=CARTESIAN_POINT('',(-20.,6.00000000000001,2.));
#1089=CARTESIAN_POINT('',(-20.,6.00000000000001,2.));
#1090=CARTESIAN_POINT('',(-9.99999999999999,6.00000000000001,2.));
#1091=CARTESIAN_POINT('Origin',(-20.,3.,2.));
#1092=CARTESIAN_POINT('',(-20.,-7.21644966006352E-15,2.));
#1093=CARTESIAN_POINT('',(-20.,-7.21644966006352E-15,2.));
#1094=CARTESIAN_POINT('Origin',(-20.,3.,2.));
#1095=CARTESIAN_POINT('Origin',(-24.,0.,2.));
#1096=CARTESIAN_POINT('',(-24.,0.,2.));
#1097=CARTESIAN_POINT('',(-24.,0.,2.));
#1098=CARTESIAN_POINT('',(-12.,-2.22044604925031E-14,2.));
#1099=CARTESIAN_POINT('Origin',(0.,0.,2.));
#1100=CARTESIAN_POINT('Origin',(0.,0.,2.));
#1101=CARTESIAN_POINT('Origin',(0.,0.,43.));
#1102=CARTESIAN_POINT('Origin',(24.,6.00000008940698,2.));
#1103=CARTESIAN_POINT('',(12.,6.00000008940698,2.));
#1104=CARTESIAN_POINT('Origin',(0.,50.,43.));
#1105=CARTESIAN_POINT('',(25.,100.,43.));
#1106=CARTESIAN_POINT('',(25.,-1.53080849893419E-15,43.));
#1107=CARTESIAN_POINT('Origin',(0.,100.,43.));
#1108=CARTESIAN_POINT('Origin',(25.,0.,0.));
#1109=CARTESIAN_POINT('',(25.,100.,0.));
#1110=CARTESIAN_POINT('Origin',(0.,100.,0.));
#1111=CARTESIAN_POINT('Origin',(0.,50.,2.));
#1112=UNCERTAINTY_MEASURE_WITH_UNIT(LENGTH_MEASURE(0.01),#1116,
'DISTANCE_ACCURACY_VALUE',
'Maximum model space distance between geometric entities at asserted c
onnectivities');
#1113=UNCERTAINTY_MEASURE_WITH_UNIT(LENGTH_MEASURE(0.01),#1116,
'DISTANCE_ACCURACY_VALUE',
'Maximum model space distance between geometric entities at asserted c
onnectivities');
#1114=(
GEOMETRIC_REPRESENTATION_CONTEXT(3)
GLOBAL_UNCERTAINTY_ASSIGNED_CONTEXT((#1112))
GLOBAL_UNIT_ASSIGNED_CONTEXT((#1116,#1118,#1119))
REPRESENTATION_CONTEXT('','3D')
);
#1115=(
GEOMETRIC_REPRESENTATION_CONTEXT(3)
GLOBAL_UNCERTAINTY_ASSIGNED_CONTEXT((#1113))
GLOBAL_UNIT_ASSIGNED_CONTEXT((#1116,#1118,#1119))
REPRESENTATION_CONTEXT('','3D')
);
#1116=(
LENGTH_UNIT()
NAMED_UNIT(*)
SI_UNIT(.MILLI.,.METRE.)
);
#1117=(
LENGTH_UNIT()
NAMED_UNIT(*)
SI_UNIT($,.METRE.)
);
#1118=(
NAMED_UNIT(*)
PLANE_ANGLE_UNIT()
SI_UNIT($,.RADIAN.)
);
#1119=(
NAMED_UNIT(*)
SI_UNIT($,.STERADIAN.)
SOLID_ANGLE_UNIT()
);
#1120=SHAPE_DEFINITION_REPRESENTATION(#1121,#1122);
#1121=PRODUCT_DEFINITION_SHAPE('',$,#1124);
#1122=SHAPE_REPRESENTATION('',(#660),#1114);
#1123=PRODUCT_DEFINITION_CONTEXT('part definition',#1128,'design');
#1124=PRODUCT_DEFINITION('(\X2\C800C7A5B418C9C0\X0\ \X2\C54AC74C\X0\)',
'(\X2\C800C7A5B418C9C0\X0\ \X2\C54AC74C\X0\)',#1125,#1123);
#1125=PRODUCT_DEFINITION_FORMATION('',$,#1130);
#1126=PRODUCT_RELATED_PRODUCT_CATEGORY('(\X2\C800C7A5B418C9C0\X0\ \X2\C54AC74C\X0\)',
'(\X2\C800C7A5B418C9C0\X0\ \X2\C54AC74C\X0\)',(#1130));
#1127=APPLICATION_PROTOCOL_DEFINITION('international standard',
'automotive_design',2009,#1128);
#1128=APPLICATION_CONTEXT(
'Core Data for Automotive Mechanical Design Process');
#1129=PRODUCT_CONTEXT('part definition',#1128,'mechanical');
#1130=PRODUCT('(\X2\C800C7A5B418C9C0\X0\ \X2\C54AC74C\X0\)',
'(\X2\C800C7A5B418C9C0\X0\ \X2\C54AC74C\X0\)',$,(#1129));
#1131=PRESENTATION_STYLE_ASSIGNMENT((#1132));
#1132=SURFACE_STYLE_USAGE(.BOTH.,#1133);
#1133=SURFACE_SIDE_STYLE('',(#1134));
#1134=SURFACE_STYLE_FILL_AREA(#1135);
#1135=FILL_AREA_STYLE('\X2\AC15CCA0\X0\ - \X2\C0C8D2F4\X0\',(#1136));
#1136=FILL_AREA_STYLE_COLOUR('\X2\AC15CCA0\X0\ - \X2\C0C8D2F4\X0\',#1137);
#1137=COLOUR_RGB('\X2\AC15CCA0\X0\ - \X2\C0C8D2F4\X0\',0.627450980392157,
0.627450980392157,0.627450980392157);
ENDSEC;
END-ISO-10303-21;
