ISO-10303-21;
HEADER;
/* Generated by software containing ST-Developer
 * from STEP Tools, Inc. (www.steptools.com) 
 */

FILE_DESCRIPTION(
/* description */ (''),
/* implementation_level */ '2;1');

FILE_NAME(
/* name */ 'TRARM02_Link1C_50x50x7.step',
/* time_stamp */ '2026-06-11T09:09:42+09:00',
/* author */ (''),
/* organization */ (''),
/* preprocessor_version */ 'ST-DEVELOPER v20.1',
/* originating_system */ 'Autodesk Translation Framework v15.8.0.0',
/* authorisation */ '');

FILE_SCHEMA (('AUTOMOTIVE_DESIGN { 1 0 10303 214 3 1 1 }'));
ENDSEC;

DATA;
#10=MECHANICAL_DESIGN_GEOMETRIC_PRESENTATION_REPRESENTATION('',(#13),#1129);
#11=SHAPE_REPRESENTATION_RELATIONSHIP('SRR','None',#1136,#12);
#12=ADVANCED_BREP_SHAPE_REPRESENTATION('',(#14),#1128);
#13=STYLED_ITEM('',(#1145),#14);
#14=MANIFOLD_SOLID_BREP('\X2\BCF8CCB4\X0\1',#669);
#15=FACE_BOUND('',#128,.T.);
#16=FACE_BOUND('',#129,.T.);
#17=FACE_BOUND('',#140,.T.);
#18=FACE_BOUND('',#141,.T.);
#19=FACE_BOUND('',#142,.T.);
#20=FACE_BOUND('',#143,.T.);
#21=FACE_BOUND('',#144,.T.);
#22=FACE_BOUND('',#150,.T.);
#23=FACE_BOUND('',#151,.T.);
#24=FACE_BOUND('',#152,.T.);
#25=FACE_BOUND('',#153,.T.);
#26=FACE_BOUND('',#162,.T.);
#27=FACE_BOUND('',#163,.T.);
#28=FACE_BOUND('',#164,.T.);
#29=FACE_BOUND('',#165,.T.);
#30=FACE_BOUND('',#166,.T.);
#31=FACE_BOUND('',#167,.T.);
#32=FACE_BOUND('',#168,.T.);
#33=FACE_BOUND('',#169,.T.);
#34=FACE_BOUND('',#170,.T.);
#35=CIRCLE('',#685,2.5);
#36=CIRCLE('',#686,2.5);
#37=CIRCLE('',#689,2.5);
#38=CIRCLE('',#690,2.5);
#39=CIRCLE('',#693,2.5000000372529);
#40=CIRCLE('',#694,2.5000000372529);
#41=CIRCLE('',#697,2.5000000372529);
#42=CIRCLE('',#698,2.5000000372529);
#43=CIRCLE('',#700,2.);
#44=CIRCLE('',#701,2.);
#45=CIRCLE('',#703,2.);
#46=CIRCLE('',#705,25.);
#47=CIRCLE('',#706,24.);
#48=CIRCLE('',#707,25.);
#49=CIRCLE('',#709,2.);
#50=CIRCLE('',#711,1.5);
#51=CIRCLE('',#712,1.5);
#52=CIRCLE('',#714,1.5);
#53=CIRCLE('',#715,1.5);
#54=CIRCLE('',#717,1.5);
#55=CIRCLE('',#718,1.5);
#56=CIRCLE('',#720,1.5);
#57=CIRCLE('',#721,1.5);
#58=CIRCLE('',#723,2.);
#59=CIRCLE('',#724,2.);
#60=CIRCLE('',#726,2.);
#61=CIRCLE('',#727,2.);
#62=CIRCLE('',#729,2.);
#63=CIRCLE('',#730,2.);
#64=CIRCLE('',#732,24.);
#65=CIRCLE('',#735,25.);
#66=CIRCLE('',#743,25.);
#67=CYLINDRICAL_SURFACE('',#684,2.5);
#68=CYLINDRICAL_SURFACE('',#688,2.5);
#69=CYLINDRICAL_SURFACE('',#692,2.5000000372529);
#70=CYLINDRICAL_SURFACE('',#696,2.5000000372529);
#71=CYLINDRICAL_SURFACE('',#699,2.);
#72=CYLINDRICAL_SURFACE('',#708,2.);
#73=CYLINDRICAL_SURFACE('',#710,1.5);
#74=CYLINDRICAL_SURFACE('',#713,1.5);
#75=CYLINDRICAL_SURFACE('',#716,1.5);
#76=CYLINDRICAL_SURFACE('',#719,1.5);
#77=CYLINDRICAL_SURFACE('',#722,2.);
#78=CYLINDRICAL_SURFACE('',#725,2.);
#79=CYLINDRICAL_SURFACE('',#728,2.);
#80=CYLINDRICAL_SURFACE('',#731,24.);
#81=CYLINDRICAL_SURFACE('',#734,25.);
#82=CYLINDRICAL_SURFACE('',#742,25.);
#83=FACE_OUTER_BOUND('',#117,.T.);
#84=FACE_OUTER_BOUND('',#118,.T.);
#85=FACE_OUTER_BOUND('',#119,.T.);
#86=FACE_OUTER_BOUND('',#120,.T.);
#87=FACE_OUTER_BOUND('',#121,.T.);
#88=FACE_OUTER_BOUND('',#122,.T.);
#89=FACE_OUTER_BOUND('',#123,.T.);
#90=FACE_OUTER_BOUND('',#124,.T.);
#91=FACE_OUTER_BOUND('',#125,.T.);
#92=FACE_OUTER_BOUND('',#126,.T.);
#93=FACE_OUTER_BOUND('',#127,.T.);
#94=FACE_OUTER_BOUND('',#130,.T.);
#95=FACE_OUTER_BOUND('',#131,.T.);
#96=FACE_OUTER_BOUND('',#132,.T.);
#97=FACE_OUTER_BOUND('',#133,.T.);
#98=FACE_OUTER_BOUND('',#134,.T.);
#99=FACE_OUTER_BOUND('',#135,.T.);
#100=FACE_OUTER_BOUND('',#136,.T.);
#101=FACE_OUTER_BOUND('',#137,.T.);
#102=FACE_OUTER_BOUND('',#138,.T.);
#103=FACE_OUTER_BOUND('',#139,.T.);
#104=FACE_OUTER_BOUND('',#145,.T.);
#105=FACE_OUTER_BOUND('',#146,.T.);
#106=FACE_OUTER_BOUND('',#147,.T.);
#107=FACE_OUTER_BOUND('',#148,.T.);
#108=FACE_OUTER_BOUND('',#149,.T.);
#109=FACE_OUTER_BOUND('',#154,.T.);
#110=FACE_OUTER_BOUND('',#155,.T.);
#111=FACE_OUTER_BOUND('',#156,.T.);
#112=FACE_OUTER_BOUND('',#157,.T.);
#113=FACE_OUTER_BOUND('',#158,.T.);
#114=FACE_OUTER_BOUND('',#159,.T.);
#115=FACE_OUTER_BOUND('',#160,.T.);
#116=FACE_OUTER_BOUND('',#161,.T.);
#117=EDGE_LOOP('',(#437,#438,#439,#440));
#118=EDGE_LOOP('',(#441,#442,#443,#444));
#119=EDGE_LOOP('',(#445,#446,#447,#448));
#120=EDGE_LOOP('',(#449,#450,#451,#452));
#121=EDGE_LOOP('',(#453,#454,#455,#456));
#122=EDGE_LOOP('',(#457,#458,#459,#460));
#123=EDGE_LOOP('',(#461,#462,#463,#464));
#124=EDGE_LOOP('',(#465,#466,#467,#468));
#125=EDGE_LOOP('',(#469,#470,#471,#472));
#126=EDGE_LOOP('',(#473,#474,#475,#476,#477,#478));
#127=EDGE_LOOP('',(#479,#480,#481,#482,#483,#484,#485,#486));
#128=EDGE_LOOP('',(#487));
#129=EDGE_LOOP('',(#488,#489,#490,#491));
#130=EDGE_LOOP('',(#492,#493,#494,#495));
#131=EDGE_LOOP('',(#496,#497,#498,#499));
#132=EDGE_LOOP('',(#500,#501,#502,#503));
#133=EDGE_LOOP('',(#504,#505,#506,#507));
#134=EDGE_LOOP('',(#508,#509,#510,#511));
#135=EDGE_LOOP('',(#512,#513,#514,#515));
#136=EDGE_LOOP('',(#516,#517,#518,#519));
#137=EDGE_LOOP('',(#520,#521,#522,#523));
#138=EDGE_LOOP('',(#524,#525,#526,#527));
#139=EDGE_LOOP('',(#528));
#140=EDGE_LOOP('',(#529,#530,#531,#532));
#141=EDGE_LOOP('',(#533,#534,#535,#536));
#142=EDGE_LOOP('',(#537));
#143=EDGE_LOOP('',(#538));
#144=EDGE_LOOP('',(#539));
#145=EDGE_LOOP('',(#540,#541,#542,#543));
#146=EDGE_LOOP('',(#544,#545,#546,#547));
#147=EDGE_LOOP('',(#548,#549,#550,#551));
#148=EDGE_LOOP('',(#552,#553,#554,#555));
#149=EDGE_LOOP('',(#556,#557,#558,#559));
#150=EDGE_LOOP('',(#560));
#151=EDGE_LOOP('',(#561));
#152=EDGE_LOOP('',(#562));
#153=EDGE_LOOP('',(#563));
#154=EDGE_LOOP('',(#564,#565,#566,#567,#568));
#155=EDGE_LOOP('',(#569,#570,#571,#572));
#156=EDGE_LOOP('',(#573,#574,#575,#576));
#157=EDGE_LOOP('',(#577,#578,#579,#580));
#158=EDGE_LOOP('',(#581,#582,#583,#584,#585));
#159=EDGE_LOOP('',(#586,#587,#588,#589));
#160=EDGE_LOOP('',(#590,#591,#592,#593));
#161=EDGE_LOOP('',(#594,#595,#596,#597,#598,#599,#600,#601));
#162=EDGE_LOOP('',(#602,#603,#604,#605));
#163=EDGE_LOOP('',(#606,#607,#608,#609));
#164=EDGE_LOOP('',(#610));
#165=EDGE_LOOP('',(#611));
#166=EDGE_LOOP('',(#612));
#167=EDGE_LOOP('',(#613));
#168=EDGE_LOOP('',(#614));
#169=EDGE_LOOP('',(#615));
#170=EDGE_LOOP('',(#616));
#171=LINE('',#945,#229);
#172=LINE('',#947,#230);
#173=LINE('',#949,#231);
#174=LINE('',#950,#232);
#175=LINE('',#955,#233);
#176=LINE('',#959,#234);
#177=LINE('',#961,#235);
#178=LINE('',#962,#236);
#179=LINE('',#969,#237);
#180=LINE('',#971,#238);
#181=LINE('',#973,#239);
#182=LINE('',#974,#240);
#183=LINE('',#979,#241);
#184=LINE('',#983,#242);
#185=LINE('',#985,#243);
#186=LINE('',#986,#244);
#187=LINE('',#995,#245);
#188=LINE('',#998,#246);
#189=LINE('',#1001,#247);
#190=LINE('',#1005,#248);
#191=LINE('',#1007,#249);
#192=LINE('',#1008,#250);
#193=LINE('',#1011,#251);
#194=LINE('',#1013,#252);
#195=LINE('',#1017,#253);
#196=LINE('',#1019,#254);
#197=LINE('',#1020,#255);
#198=LINE('',#1027,#256);
#199=LINE('',#1029,#257);
#200=LINE('',#1030,#258);
#201=LINE('',#1034,#259);
#202=LINE('',#1039,#260);
#203=LINE('',#1045,#261);
#204=LINE('',#1051,#262);
#205=LINE('',#1057,#263);
#206=LINE('',#1063,#264);
#207=LINE('',#1069,#265);
#208=LINE('',#1075,#266);
#209=LINE('',#1079,#267);
#210=LINE('',#1084,#268);
#211=LINE('',#1087,#269);
#212=LINE('',#1090,#270);
#213=LINE('',#1091,#271);
#214=LINE('',#1094,#272);
#215=LINE('',#1095,#273);
#216=LINE('',#1097,#274);
#217=LINE('',#1101,#275);
#218=LINE('',#1103,#276);
#219=LINE('',#1104,#277);
#220=LINE('',#1107,#278);
#221=LINE('',#1108,#279);
#222=LINE('',#1112,#280);
#223=LINE('',#1115,#281);
#224=LINE('',#1116,#282);
#225=LINE('',#1119,#283);
#226=LINE('',#1120,#284);
#227=LINE('',#1122,#285);
#228=LINE('',#1124,#286);
#229=VECTOR('',#753,10.);
#230=VECTOR('',#754,10.);
#231=VECTOR('',#755,10.);
#232=VECTOR('',#756,10.);
#233=VECTOR('',#761,10.);
#234=VECTOR('',#766,10.);
#235=VECTOR('',#767,10.);
#236=VECTOR('',#768,10.);
#237=VECTOR('',#777,10.);
#238=VECTOR('',#778,10.);
#239=VECTOR('',#779,10.);
#240=VECTOR('',#780,10.);
#241=VECTOR('',#785,10.);
#242=VECTOR('',#790,10.);
#243=VECTOR('',#791,10.);
#244=VECTOR('',#792,10.);
#245=VECTOR('',#803,10.);
#246=VECTOR('',#806,10.);
#247=VECTOR('',#809,10.);
#248=VECTOR('',#812,10.);
#249=VECTOR('',#813,10.);
#250=VECTOR('',#814,10.);
#251=VECTOR('',#817,10.);
#252=VECTOR('',#818,10.);
#253=VECTOR('',#821,10.);
#254=VECTOR('',#822,10.);
#255=VECTOR('',#823,10.);
#256=VECTOR('',#828,10.);
#257=VECTOR('',#829,10.);
#258=VECTOR('',#830,10.);
#259=VECTOR('',#835,10.);
#260=VECTOR('',#840,1.5);
#261=VECTOR('',#847,1.5);
#262=VECTOR('',#854,1.5);
#263=VECTOR('',#861,1.5);
#264=VECTOR('',#868,2.);
#265=VECTOR('',#875,2.);
#266=VECTOR('',#882,2.);
#267=VECTOR('',#887,24.);
#268=VECTOR('',#894,10.);
#269=VECTOR('',#897,10.);
#270=VECTOR('',#900,10.);
#271=VECTOR('',#901,10.);
#272=VECTOR('',#904,10.);
#273=VECTOR('',#905,10.);
#274=VECTOR('',#908,10.);
#275=VECTOR('',#913,10.);
#276=VECTOR('',#914,10.);
#277=VECTOR('',#915,10.);
#278=VECTOR('',#918,10.);
#279=VECTOR('',#919,10.);
#280=VECTOR('',#924,10.);
#281=VECTOR('',#927,10.);
#282=VECTOR('',#928,10.);
#283=VECTOR('',#931,10.);
#284=VECTOR('',#932,10.);
#285=VECTOR('',#935,10.);
#286=VECTOR('',#938,10.);
#287=VERTEX_POINT('',#943);
#288=VERTEX_POINT('',#944);
#289=VERTEX_POINT('',#946);
#290=VERTEX_POINT('',#948);
#291=VERTEX_POINT('',#952);
#292=VERTEX_POINT('',#954);
#293=VERTEX_POINT('',#958);
#294=VERTEX_POINT('',#960);
#295=VERTEX_POINT('',#967);
#296=VERTEX_POINT('',#968);
#297=VERTEX_POINT('',#970);
#298=VERTEX_POINT('',#972);
#299=VERTEX_POINT('',#976);
#300=VERTEX_POINT('',#978);
#301=VERTEX_POINT('',#982);
#302=VERTEX_POINT('',#984);
#303=VERTEX_POINT('',#991);
#304=VERTEX_POINT('',#992);
#305=VERTEX_POINT('',#994);
#306=VERTEX_POINT('',#996);
#307=VERTEX_POINT('',#1000);
#308=VERTEX_POINT('',#1002);
#309=VERTEX_POINT('',#1004);
#310=VERTEX_POINT('',#1006);
#311=VERTEX_POINT('',#1010);
#312=VERTEX_POINT('',#1012);
#313=VERTEX_POINT('',#1014);
#314=VERTEX_POINT('',#1016);
#315=VERTEX_POINT('',#1018);
#316=VERTEX_POINT('',#1021);
#317=VERTEX_POINT('',#1023);
#318=VERTEX_POINT('',#1024);
#319=VERTEX_POINT('',#1026);
#320=VERTEX_POINT('',#1028);
#321=VERTEX_POINT('',#1032);
#322=VERTEX_POINT('',#1036);
#323=VERTEX_POINT('',#1038);
#324=VERTEX_POINT('',#1042);
#325=VERTEX_POINT('',#1044);
#326=VERTEX_POINT('',#1048);
#327=VERTEX_POINT('',#1050);
#328=VERTEX_POINT('',#1054);
#329=VERTEX_POINT('',#1056);
#330=VERTEX_POINT('',#1060);
#331=VERTEX_POINT('',#1062);
#332=VERTEX_POINT('',#1066);
#333=VERTEX_POINT('',#1068);
#334=VERTEX_POINT('',#1072);
#335=VERTEX_POINT('',#1074);
#336=VERTEX_POINT('',#1078);
#337=VERTEX_POINT('',#1083);
#338=VERTEX_POINT('',#1085);
#339=VERTEX_POINT('',#1089);
#340=VERTEX_POINT('',#1093);
#341=VERTEX_POINT('',#1100);
#342=VERTEX_POINT('',#1102);
#343=VERTEX_POINT('',#1106);
#344=VERTEX_POINT('',#1110);
#345=VERTEX_POINT('',#1114);
#346=VERTEX_POINT('',#1118);
#347=EDGE_CURVE('',#287,#288,#171,.T.);
#348=EDGE_CURVE('',#287,#289,#172,.T.);
#349=EDGE_CURVE('',#290,#289,#173,.T.);
#350=EDGE_CURVE('',#288,#290,#174,.T.);
#351=EDGE_CURVE('',#291,#287,#35,.T.);
#352=EDGE_CURVE('',#291,#292,#175,.T.);
#353=EDGE_CURVE('',#289,#292,#36,.T.);
#354=EDGE_CURVE('',#293,#291,#176,.T.);
#355=EDGE_CURVE('',#293,#294,#177,.T.);
#356=EDGE_CURVE('',#292,#294,#178,.T.);
#357=EDGE_CURVE('',#288,#293,#37,.T.);
#358=EDGE_CURVE('',#294,#290,#38,.T.);
#359=EDGE_CURVE('',#295,#296,#179,.T.);
#360=EDGE_CURVE('',#295,#297,#180,.T.);
#361=EDGE_CURVE('',#298,#297,#181,.T.);
#362=EDGE_CURVE('',#296,#298,#182,.T.);
#363=EDGE_CURVE('',#299,#295,#39,.T.);
#364=EDGE_CURVE('',#299,#300,#183,.T.);
#365=EDGE_CURVE('',#297,#300,#40,.T.);
#366=EDGE_CURVE('',#301,#299,#184,.T.);
#367=EDGE_CURVE('',#301,#302,#185,.T.);
#368=EDGE_CURVE('',#300,#302,#186,.T.);
#369=EDGE_CURVE('',#296,#301,#41,.T.);
#370=EDGE_CURVE('',#302,#298,#42,.T.);
#371=EDGE_CURVE('',#303,#304,#43,.T.);
#372=EDGE_CURVE('',#304,#305,#187,.T.);
#373=EDGE_CURVE('',#305,#306,#44,.T.);
#374=EDGE_CURVE('',#306,#303,#188,.T.);
#375=EDGE_CURVE('',#307,#305,#189,.T.);
#376=EDGE_CURVE('',#308,#307,#45,.T.);
#377=EDGE_CURVE('',#309,#308,#190,.T.);
#378=EDGE_CURVE('',#309,#310,#191,.T.);
#379=EDGE_CURVE('',#310,#306,#192,.T.);
#380=EDGE_CURVE('',#304,#311,#193,.T.);
#381=EDGE_CURVE('',#311,#312,#194,.T.);
#382=EDGE_CURVE('',#312,#313,#46,.T.);
#383=EDGE_CURVE('',#313,#314,#195,.T.);
#384=EDGE_CURVE('',#314,#315,#196,.T.);
#385=EDGE_CURVE('',#307,#315,#197,.T.);
#386=EDGE_CURVE('',#316,#316,#47,.T.);
#387=EDGE_CURVE('',#317,#318,#48,.T.);
#388=EDGE_CURVE('',#318,#319,#198,.T.);
#389=EDGE_CURVE('',#319,#320,#199,.T.);
#390=EDGE_CURVE('',#320,#317,#200,.T.);
#391=EDGE_CURVE('',#315,#321,#49,.T.);
#392=EDGE_CURVE('',#321,#308,#201,.T.);
#393=EDGE_CURVE('',#322,#322,#50,.T.);
#394=EDGE_CURVE('',#322,#323,#202,.T.);
#395=EDGE_CURVE('',#323,#323,#51,.T.);
#396=EDGE_CURVE('',#324,#324,#52,.T.);
#397=EDGE_CURVE('',#324,#325,#203,.T.);
#398=EDGE_CURVE('',#325,#325,#53,.T.);
#399=EDGE_CURVE('',#326,#326,#54,.T.);
#400=EDGE_CURVE('',#326,#327,#204,.T.);
#401=EDGE_CURVE('',#327,#327,#55,.T.);
#402=EDGE_CURVE('',#328,#328,#56,.T.);
#403=EDGE_CURVE('',#328,#329,#205,.T.);
#404=EDGE_CURVE('',#329,#329,#57,.T.);
#405=EDGE_CURVE('',#330,#330,#58,.T.);
#406=EDGE_CURVE('',#330,#331,#206,.T.);
#407=EDGE_CURVE('',#331,#331,#59,.T.);
#408=EDGE_CURVE('',#332,#332,#60,.T.);
#409=EDGE_CURVE('',#332,#333,#207,.T.);
#410=EDGE_CURVE('',#333,#333,#61,.T.);
#411=EDGE_CURVE('',#334,#334,#62,.T.);
#412=EDGE_CURVE('',#334,#335,#208,.T.);
#413=EDGE_CURVE('',#335,#335,#63,.T.);
#414=EDGE_CURVE('',#316,#336,#209,.T.);
#415=EDGE_CURVE('',#336,#336,#64,.T.);
#416=EDGE_CURVE('',#317,#337,#210,.T.);
#417=EDGE_CURVE('',#337,#338,#65,.T.);
#418=EDGE_CURVE('',#318,#338,#211,.T.);
#419=EDGE_CURVE('',#320,#339,#212,.T.);
#420=EDGE_CURVE('',#339,#337,#213,.T.);
#421=EDGE_CURVE('',#319,#340,#214,.T.);
#422=EDGE_CURVE('',#340,#339,#215,.T.);
#423=EDGE_CURVE('',#338,#340,#216,.T.);
#424=EDGE_CURVE('',#341,#314,#217,.T.);
#425=EDGE_CURVE('',#342,#341,#218,.T.);
#426=EDGE_CURVE('',#342,#321,#219,.T.);
#427=EDGE_CURVE('',#343,#341,#220,.T.);
#428=EDGE_CURVE('',#343,#313,#221,.T.);
#429=EDGE_CURVE('',#344,#343,#66,.T.);
#430=EDGE_CURVE('',#344,#312,#222,.T.);
#431=EDGE_CURVE('',#344,#345,#223,.T.);
#432=EDGE_CURVE('',#345,#311,#224,.T.);
#433=EDGE_CURVE('',#346,#303,#225,.T.);
#434=EDGE_CURVE('',#346,#345,#226,.T.);
#435=EDGE_CURVE('',#310,#346,#227,.T.);
#436=EDGE_CURVE('',#309,#342,#228,.T.);
#437=ORIENTED_EDGE('',*,*,#347,.F.);
#438=ORIENTED_EDGE('',*,*,#348,.T.);
#439=ORIENTED_EDGE('',*,*,#349,.F.);
#440=ORIENTED_EDGE('',*,*,#350,.F.);
#441=ORIENTED_EDGE('',*,*,#351,.F.);
#442=ORIENTED_EDGE('',*,*,#352,.T.);
#443=ORIENTED_EDGE('',*,*,#353,.F.);
#444=ORIENTED_EDGE('',*,*,#348,.F.);
#445=ORIENTED_EDGE('',*,*,#354,.F.);
#446=ORIENTED_EDGE('',*,*,#355,.T.);
#447=ORIENTED_EDGE('',*,*,#356,.F.);
#448=ORIENTED_EDGE('',*,*,#352,.F.);
#449=ORIENTED_EDGE('',*,*,#357,.F.);
#450=ORIENTED_EDGE('',*,*,#350,.T.);
#451=ORIENTED_EDGE('',*,*,#358,.F.);
#452=ORIENTED_EDGE('',*,*,#355,.F.);
#453=ORIENTED_EDGE('',*,*,#359,.F.);
#454=ORIENTED_EDGE('',*,*,#360,.T.);
#455=ORIENTED_EDGE('',*,*,#361,.F.);
#456=ORIENTED_EDGE('',*,*,#362,.F.);
#457=ORIENTED_EDGE('',*,*,#363,.F.);
#458=ORIENTED_EDGE('',*,*,#364,.T.);
#459=ORIENTED_EDGE('',*,*,#365,.F.);
#460=ORIENTED_EDGE('',*,*,#360,.F.);
#461=ORIENTED_EDGE('',*,*,#366,.F.);
#462=ORIENTED_EDGE('',*,*,#367,.T.);
#463=ORIENTED_EDGE('',*,*,#368,.F.);
#464=ORIENTED_EDGE('',*,*,#364,.F.);
#465=ORIENTED_EDGE('',*,*,#369,.F.);
#466=ORIENTED_EDGE('',*,*,#362,.T.);
#467=ORIENTED_EDGE('',*,*,#370,.F.);
#468=ORIENTED_EDGE('',*,*,#367,.F.);
#469=ORIENTED_EDGE('',*,*,#371,.T.);
#470=ORIENTED_EDGE('',*,*,#372,.T.);
#471=ORIENTED_EDGE('',*,*,#373,.T.);
#472=ORIENTED_EDGE('',*,*,#374,.T.);
#473=ORIENTED_EDGE('',*,*,#373,.F.);
#474=ORIENTED_EDGE('',*,*,#375,.F.);
#475=ORIENTED_EDGE('',*,*,#376,.F.);
#476=ORIENTED_EDGE('',*,*,#377,.F.);
#477=ORIENTED_EDGE('',*,*,#378,.T.);
#478=ORIENTED_EDGE('',*,*,#379,.T.);
#479=ORIENTED_EDGE('',*,*,#372,.F.);
#480=ORIENTED_EDGE('',*,*,#380,.T.);
#481=ORIENTED_EDGE('',*,*,#381,.T.);
#482=ORIENTED_EDGE('',*,*,#382,.T.);
#483=ORIENTED_EDGE('',*,*,#383,.T.);
#484=ORIENTED_EDGE('',*,*,#384,.T.);
#485=ORIENTED_EDGE('',*,*,#385,.F.);
#486=ORIENTED_EDGE('',*,*,#375,.T.);
#487=ORIENTED_EDGE('',*,*,#386,.T.);
#488=ORIENTED_EDGE('',*,*,#387,.T.);
#489=ORIENTED_EDGE('',*,*,#388,.T.);
#490=ORIENTED_EDGE('',*,*,#389,.T.);
#491=ORIENTED_EDGE('',*,*,#390,.T.);
#492=ORIENTED_EDGE('',*,*,#376,.T.);
#493=ORIENTED_EDGE('',*,*,#385,.T.);
#494=ORIENTED_EDGE('',*,*,#391,.T.);
#495=ORIENTED_EDGE('',*,*,#392,.T.);
#496=ORIENTED_EDGE('',*,*,#393,.F.);
#497=ORIENTED_EDGE('',*,*,#394,.T.);
#498=ORIENTED_EDGE('',*,*,#395,.F.);
#499=ORIENTED_EDGE('',*,*,#394,.F.);
#500=ORIENTED_EDGE('',*,*,#396,.F.);
#501=ORIENTED_EDGE('',*,*,#397,.T.);
#502=ORIENTED_EDGE('',*,*,#398,.F.);
#503=ORIENTED_EDGE('',*,*,#397,.F.);
#504=ORIENTED_EDGE('',*,*,#399,.F.);
#505=ORIENTED_EDGE('',*,*,#400,.T.);
#506=ORIENTED_EDGE('',*,*,#401,.F.);
#507=ORIENTED_EDGE('',*,*,#400,.F.);
#508=ORIENTED_EDGE('',*,*,#402,.F.);
#509=ORIENTED_EDGE('',*,*,#403,.T.);
#510=ORIENTED_EDGE('',*,*,#404,.F.);
#511=ORIENTED_EDGE('',*,*,#403,.F.);
#512=ORIENTED_EDGE('',*,*,#405,.F.);
#513=ORIENTED_EDGE('',*,*,#406,.T.);
#514=ORIENTED_EDGE('',*,*,#407,.F.);
#515=ORIENTED_EDGE('',*,*,#406,.F.);
#516=ORIENTED_EDGE('',*,*,#408,.F.);
#517=ORIENTED_EDGE('',*,*,#409,.T.);
#518=ORIENTED_EDGE('',*,*,#410,.F.);
#519=ORIENTED_EDGE('',*,*,#409,.F.);
#520=ORIENTED_EDGE('',*,*,#411,.F.);
#521=ORIENTED_EDGE('',*,*,#412,.T.);
#522=ORIENTED_EDGE('',*,*,#413,.F.);
#523=ORIENTED_EDGE('',*,*,#412,.F.);
#524=ORIENTED_EDGE('',*,*,#386,.F.);
#525=ORIENTED_EDGE('',*,*,#414,.T.);
#526=ORIENTED_EDGE('',*,*,#415,.T.);
#527=ORIENTED_EDGE('',*,*,#414,.F.);
#528=ORIENTED_EDGE('',*,*,#415,.F.);
#529=ORIENTED_EDGE('',*,*,#347,.T.);
#530=ORIENTED_EDGE('',*,*,#357,.T.);
#531=ORIENTED_EDGE('',*,*,#354,.T.);
#532=ORIENTED_EDGE('',*,*,#351,.T.);
#533=ORIENTED_EDGE('',*,*,#359,.T.);
#534=ORIENTED_EDGE('',*,*,#369,.T.);
#535=ORIENTED_EDGE('',*,*,#366,.T.);
#536=ORIENTED_EDGE('',*,*,#363,.T.);
#537=ORIENTED_EDGE('',*,*,#405,.T.);
#538=ORIENTED_EDGE('',*,*,#408,.T.);
#539=ORIENTED_EDGE('',*,*,#411,.T.);
#540=ORIENTED_EDGE('',*,*,#387,.F.);
#541=ORIENTED_EDGE('',*,*,#416,.T.);
#542=ORIENTED_EDGE('',*,*,#417,.T.);
#543=ORIENTED_EDGE('',*,*,#418,.F.);
#544=ORIENTED_EDGE('',*,*,#390,.F.);
#545=ORIENTED_EDGE('',*,*,#419,.T.);
#546=ORIENTED_EDGE('',*,*,#420,.T.);
#547=ORIENTED_EDGE('',*,*,#416,.F.);
#548=ORIENTED_EDGE('',*,*,#389,.F.);
#549=ORIENTED_EDGE('',*,*,#421,.T.);
#550=ORIENTED_EDGE('',*,*,#422,.T.);
#551=ORIENTED_EDGE('',*,*,#419,.F.);
#552=ORIENTED_EDGE('',*,*,#388,.F.);
#553=ORIENTED_EDGE('',*,*,#418,.T.);
#554=ORIENTED_EDGE('',*,*,#423,.T.);
#555=ORIENTED_EDGE('',*,*,#421,.F.);
#556=ORIENTED_EDGE('',*,*,#423,.F.);
#557=ORIENTED_EDGE('',*,*,#417,.F.);
#558=ORIENTED_EDGE('',*,*,#420,.F.);
#559=ORIENTED_EDGE('',*,*,#422,.F.);
#560=ORIENTED_EDGE('',*,*,#393,.T.);
#561=ORIENTED_EDGE('',*,*,#396,.T.);
#562=ORIENTED_EDGE('',*,*,#399,.T.);
#563=ORIENTED_EDGE('',*,*,#402,.T.);
#564=ORIENTED_EDGE('',*,*,#391,.F.);
#565=ORIENTED_EDGE('',*,*,#384,.F.);
#566=ORIENTED_EDGE('',*,*,#424,.F.);
#567=ORIENTED_EDGE('',*,*,#425,.F.);
#568=ORIENTED_EDGE('',*,*,#426,.T.);
#569=ORIENTED_EDGE('',*,*,#427,.T.);
#570=ORIENTED_EDGE('',*,*,#424,.T.);
#571=ORIENTED_EDGE('',*,*,#383,.F.);
#572=ORIENTED_EDGE('',*,*,#428,.F.);
#573=ORIENTED_EDGE('',*,*,#429,.T.);
#574=ORIENTED_EDGE('',*,*,#428,.T.);
#575=ORIENTED_EDGE('',*,*,#382,.F.);
#576=ORIENTED_EDGE('',*,*,#430,.F.);
#577=ORIENTED_EDGE('',*,*,#431,.F.);
#578=ORIENTED_EDGE('',*,*,#430,.T.);
#579=ORIENTED_EDGE('',*,*,#381,.F.);
#580=ORIENTED_EDGE('',*,*,#432,.F.);
#581=ORIENTED_EDGE('',*,*,#371,.F.);
#582=ORIENTED_EDGE('',*,*,#433,.F.);
#583=ORIENTED_EDGE('',*,*,#434,.T.);
#584=ORIENTED_EDGE('',*,*,#432,.T.);
#585=ORIENTED_EDGE('',*,*,#380,.F.);
#586=ORIENTED_EDGE('',*,*,#374,.F.);
#587=ORIENTED_EDGE('',*,*,#379,.F.);
#588=ORIENTED_EDGE('',*,*,#435,.T.);
#589=ORIENTED_EDGE('',*,*,#433,.T.);
#590=ORIENTED_EDGE('',*,*,#392,.F.);
#591=ORIENTED_EDGE('',*,*,#426,.F.);
#592=ORIENTED_EDGE('',*,*,#436,.F.);
#593=ORIENTED_EDGE('',*,*,#377,.T.);
#594=ORIENTED_EDGE('',*,*,#436,.T.);
#595=ORIENTED_EDGE('',*,*,#425,.T.);
#596=ORIENTED_EDGE('',*,*,#427,.F.);
#597=ORIENTED_EDGE('',*,*,#429,.F.);
#598=ORIENTED_EDGE('',*,*,#431,.T.);
#599=ORIENTED_EDGE('',*,*,#434,.F.);
#600=ORIENTED_EDGE('',*,*,#435,.F.);
#601=ORIENTED_EDGE('',*,*,#378,.F.);
#602=ORIENTED_EDGE('',*,*,#349,.T.);
#603=ORIENTED_EDGE('',*,*,#353,.T.);
#604=ORIENTED_EDGE('',*,*,#356,.T.);
#605=ORIENTED_EDGE('',*,*,#358,.T.);
#606=ORIENTED_EDGE('',*,*,#361,.T.);
#607=ORIENTED_EDGE('',*,*,#365,.T.);
#608=ORIENTED_EDGE('',*,*,#368,.T.);
#609=ORIENTED_EDGE('',*,*,#370,.T.);
#610=ORIENTED_EDGE('',*,*,#395,.T.);
#611=ORIENTED_EDGE('',*,*,#398,.T.);
#612=ORIENTED_EDGE('',*,*,#401,.T.);
#613=ORIENTED_EDGE('',*,*,#404,.T.);
#614=ORIENTED_EDGE('',*,*,#407,.T.);
#615=ORIENTED_EDGE('',*,*,#410,.T.);
#616=ORIENTED_EDGE('',*,*,#413,.T.);
#617=PLANE('',#683);
#618=PLANE('',#687);
#619=PLANE('',#691);
#620=PLANE('',#695);
#621=PLANE('',#702);
#622=PLANE('',#704);
#623=PLANE('',#733);
#624=PLANE('',#736);
#625=PLANE('',#737);
#626=PLANE('',#738);
#627=PLANE('',#739);
#628=PLANE('',#740);
#629=PLANE('',#741);
#630=PLANE('',#744);
#631=PLANE('',#745);
#632=PLANE('',#746);
#633=PLANE('',#747);
#634=PLANE('',#748);
#635=ADVANCED_FACE('',(#83),#617,.F.);
#636=ADVANCED_FACE('',(#84),#67,.F.);
#637=ADVANCED_FACE('',(#85),#618,.F.);
#638=ADVANCED_FACE('',(#86),#68,.F.);
#639=ADVANCED_FACE('',(#87),#619,.F.);
#640=ADVANCED_FACE('',(#88),#69,.F.);
#641=ADVANCED_FACE('',(#89),#620,.F.);
#642=ADVANCED_FACE('',(#90),#70,.F.);
#643=ADVANCED_FACE('',(#91),#71,.T.);
#644=ADVANCED_FACE('',(#92),#621,.T.);
#645=ADVANCED_FACE('',(#93,#15,#16),#622,.T.);
#646=ADVANCED_FACE('',(#94),#72,.T.);
#647=ADVANCED_FACE('',(#95),#73,.F.);
#648=ADVANCED_FACE('',(#96),#74,.F.);
#649=ADVANCED_FACE('',(#97),#75,.F.);
#650=ADVANCED_FACE('',(#98),#76,.F.);
#651=ADVANCED_FACE('',(#99),#77,.F.);
#652=ADVANCED_FACE('',(#100),#78,.F.);
#653=ADVANCED_FACE('',(#101),#79,.F.);
#654=ADVANCED_FACE('',(#102),#80,.F.);
#655=ADVANCED_FACE('',(#103,#17,#18,#19,#20,#21),#623,.T.);
#656=ADVANCED_FACE('',(#104),#81,.T.);
#657=ADVANCED_FACE('',(#105),#624,.F.);
#658=ADVANCED_FACE('',(#106),#625,.F.);
#659=ADVANCED_FACE('',(#107),#626,.F.);
#660=ADVANCED_FACE('',(#108,#22,#23,#24,#25),#627,.T.);
#661=ADVANCED_FACE('',(#109),#628,.T.);
#662=ADVANCED_FACE('',(#110),#629,.T.);
#663=ADVANCED_FACE('',(#111),#82,.T.);
#664=ADVANCED_FACE('',(#112),#630,.T.);
#665=ADVANCED_FACE('',(#113),#631,.T.);
#666=ADVANCED_FACE('',(#114),#632,.T.);
#667=ADVANCED_FACE('',(#115),#633,.T.);
#668=ADVANCED_FACE('',(#116,#26,#27,#28,#29,#30,#31,#32,#33,#34),#634,.F.);
#669=CLOSED_SHELL('',(#635,#636,#637,#638,#639,#640,#641,#642,#643,#644,
#645,#646,#647,#648,#649,#650,#651,#652,#653,#654,#655,#656,#657,#658,#659,
#660,#661,#662,#663,#664,#665,#666,#667,#668));
#670=DERIVED_UNIT_ELEMENT(#672,1.);
#671=DERIVED_UNIT_ELEMENT(#1131,-3.);
#672=(
MASS_UNIT()
NAMED_UNIT(*)
SI_UNIT(.KILO.,.GRAM.)
);
#673=DERIVED_UNIT((#670,#671));
#674=MEASURE_REPRESENTATION_ITEM('density measure',
POSITIVE_RATIO_MEASURE(7850.),#673);
#675=PROPERTY_DEFINITION_REPRESENTATION(#680,#677);
#676=PROPERTY_DEFINITION_REPRESENTATION(#681,#678);
#677=REPRESENTATION('material name',(#679),#1128);
#678=REPRESENTATION('density',(#674),#1128);
#679=DESCRIPTIVE_REPRESENTATION_ITEM('\X2\AC15CCA0\X0\','\X2\AC15CCA0\X0\');
#680=PROPERTY_DEFINITION('material property','material name',#1138);
#681=PROPERTY_DEFINITION('material property','density of part',#1138);
#682=AXIS2_PLACEMENT_3D('',#941,#749,#750);
#683=AXIS2_PLACEMENT_3D('',#942,#751,#752);
#684=AXIS2_PLACEMENT_3D('',#951,#757,#758);
#685=AXIS2_PLACEMENT_3D('',#953,#759,#760);
#686=AXIS2_PLACEMENT_3D('',#956,#762,#763);
#687=AXIS2_PLACEMENT_3D('',#957,#764,#765);
#688=AXIS2_PLACEMENT_3D('',#963,#769,#770);
#689=AXIS2_PLACEMENT_3D('',#964,#771,#772);
#690=AXIS2_PLACEMENT_3D('',#965,#773,#774);
#691=AXIS2_PLACEMENT_3D('',#966,#775,#776);
#692=AXIS2_PLACEMENT_3D('',#975,#781,#782);
#693=AXIS2_PLACEMENT_3D('',#977,#783,#784);
#694=AXIS2_PLACEMENT_3D('',#980,#786,#787);
#695=AXIS2_PLACEMENT_3D('',#981,#788,#789);
#696=AXIS2_PLACEMENT_3D('',#987,#793,#794);
#697=AXIS2_PLACEMENT_3D('',#988,#795,#796);
#698=AXIS2_PLACEMENT_3D('',#989,#797,#798);
#699=AXIS2_PLACEMENT_3D('',#990,#799,#800);
#700=AXIS2_PLACEMENT_3D('',#993,#801,#802);
#701=AXIS2_PLACEMENT_3D('',#997,#804,#805);
#702=AXIS2_PLACEMENT_3D('',#999,#807,#808);
#703=AXIS2_PLACEMENT_3D('',#1003,#810,#811);
#704=AXIS2_PLACEMENT_3D('',#1009,#815,#816);
#705=AXIS2_PLACEMENT_3D('',#1015,#819,#820);
#706=AXIS2_PLACEMENT_3D('',#1022,#824,#825);
#707=AXIS2_PLACEMENT_3D('',#1025,#826,#827);
#708=AXIS2_PLACEMENT_3D('',#1031,#831,#832);
#709=AXIS2_PLACEMENT_3D('',#1033,#833,#834);
#710=AXIS2_PLACEMENT_3D('',#1035,#836,#837);
#711=AXIS2_PLACEMENT_3D('',#1037,#838,#839);
#712=AXIS2_PLACEMENT_3D('',#1040,#841,#842);
#713=AXIS2_PLACEMENT_3D('',#1041,#843,#844);
#714=AXIS2_PLACEMENT_3D('',#1043,#845,#846);
#715=AXIS2_PLACEMENT_3D('',#1046,#848,#849);
#716=AXIS2_PLACEMENT_3D('',#1047,#850,#851);
#717=AXIS2_PLACEMENT_3D('',#1049,#852,#853);
#718=AXIS2_PLACEMENT_3D('',#1052,#855,#856);
#719=AXIS2_PLACEMENT_3D('',#1053,#857,#858);
#720=AXIS2_PLACEMENT_3D('',#1055,#859,#860);
#721=AXIS2_PLACEMENT_3D('',#1058,#862,#863);
#722=AXIS2_PLACEMENT_3D('',#1059,#864,#865);
#723=AXIS2_PLACEMENT_3D('',#1061,#866,#867);
#724=AXIS2_PLACEMENT_3D('',#1064,#869,#870);
#725=AXIS2_PLACEMENT_3D('',#1065,#871,#872);
#726=AXIS2_PLACEMENT_3D('',#1067,#873,#874);
#727=AXIS2_PLACEMENT_3D('',#1070,#876,#877);
#728=AXIS2_PLACEMENT_3D('',#1071,#878,#879);
#729=AXIS2_PLACEMENT_3D('',#1073,#880,#881);
#730=AXIS2_PLACEMENT_3D('',#1076,#883,#884);
#731=AXIS2_PLACEMENT_3D('',#1077,#885,#886);
#732=AXIS2_PLACEMENT_3D('',#1080,#888,#889);
#733=AXIS2_PLACEMENT_3D('',#1081,#890,#891);
#734=AXIS2_PLACEMENT_3D('',#1082,#892,#893);
#735=AXIS2_PLACEMENT_3D('',#1086,#895,#896);
#736=AXIS2_PLACEMENT_3D('',#1088,#898,#899);
#737=AXIS2_PLACEMENT_3D('',#1092,#902,#903);
#738=AXIS2_PLACEMENT_3D('',#1096,#906,#907);
#739=AXIS2_PLACEMENT_3D('',#1098,#909,#910);
#740=AXIS2_PLACEMENT_3D('',#1099,#911,#912);
#741=AXIS2_PLACEMENT_3D('',#1105,#916,#917);
#742=AXIS2_PLACEMENT_3D('',#1109,#920,#921);
#743=AXIS2_PLACEMENT_3D('',#1111,#922,#923);
#744=AXIS2_PLACEMENT_3D('',#1113,#925,#926);
#745=AXIS2_PLACEMENT_3D('',#1117,#929,#930);
#746=AXIS2_PLACEMENT_3D('',#1121,#933,#934);
#747=AXIS2_PLACEMENT_3D('',#1123,#936,#937);
#748=AXIS2_PLACEMENT_3D('',#1125,#939,#940);
#749=DIRECTION('axis',(0.,0.,1.));
#750=DIRECTION('refdir',(1.,0.,0.));
#751=DIRECTION('center_axis',(0.,-1.,0.));
#752=DIRECTION('ref_axis',(-1.,0.,0.));
#753=DIRECTION('',(-1.,0.,0.));
#754=DIRECTION('',(0.,0.,-1.));
#755=DIRECTION('',(1.,0.,0.));
#756=DIRECTION('',(0.,0.,-1.));
#757=DIRECTION('center_axis',(0.,0.,-1.));
#758=DIRECTION('ref_axis',(2.98023223876953E-8,-1.,0.));
#759=DIRECTION('center_axis',(0.,0.,-1.));
#760=DIRECTION('ref_axis',(2.98023223876953E-8,-1.,0.));
#761=DIRECTION('',(0.,0.,-1.));
#762=DIRECTION('center_axis',(0.,0.,1.));
#763=DIRECTION('ref_axis',(2.98023223876953E-8,-1.,0.));
#764=DIRECTION('center_axis',(0.,1.,0.));
#765=DIRECTION('ref_axis',(1.,0.,0.));
#766=DIRECTION('',(1.,0.,0.));
#767=DIRECTION('',(0.,0.,-1.));
#768=DIRECTION('',(-1.,0.,0.));
#769=DIRECTION('center_axis',(0.,0.,-1.));
#770=DIRECTION('ref_axis',(0.,1.,0.));
#771=DIRECTION('center_axis',(0.,0.,-1.));
#772=DIRECTION('ref_axis',(0.,1.,0.));
#773=DIRECTION('center_axis',(0.,0.,1.));
#774=DIRECTION('ref_axis',(0.,1.,0.));
#775=DIRECTION('center_axis',(-0.000415141136426075,-0.999999913828915,
0.));
#776=DIRECTION('ref_axis',(-0.999999913828915,0.000415141136426075,0.));
#777=DIRECTION('',(-0.999999913828915,0.000415141136426075,0.));
#778=DIRECTION('',(0.,0.,-1.));
#779=DIRECTION('',(0.999999913828915,-0.000415141136426075,0.));
#780=DIRECTION('',(0.,0.,-1.));
#781=DIRECTION('center_axis',(0.,0.,-1.));
#782=DIRECTION('ref_axis',(0.999999954025424,0.00030323118165436,0.));
#783=DIRECTION('center_axis',(0.,0.,-1.));
#784=DIRECTION('ref_axis',(-0.000415141136427344,-0.999999913828915,0.));
#785=DIRECTION('',(0.,0.,-1.));
#786=DIRECTION('center_axis',(0.,0.,1.));
#787=DIRECTION('ref_axis',(-0.000415141136427344,-0.999999913828915,0.));
#788=DIRECTION('center_axis',(-0.00102160334317474,0.999999478163168,0.));
#789=DIRECTION('ref_axis',(0.999999478163168,0.00102160334317474,0.));
#790=DIRECTION('',(0.999999478163168,0.00102160334317474,0.));
#791=DIRECTION('',(0.,0.,-1.));
#792=DIRECTION('',(-0.999999478163168,-0.00102160334317474,0.));
#793=DIRECTION('center_axis',(0.,0.,-1.));
#794=DIRECTION('ref_axis',(-0.999870471660144,0.0160947165903028,0.));
#795=DIRECTION('center_axis',(0.,0.,-1.));
#796=DIRECTION('ref_axis',(0.0892938072931797,0.996005329292514,0.));
#797=DIRECTION('center_axis',(0.,0.,1.));
#798=DIRECTION('ref_axis',(0.0892938072931797,0.996005329292514,0.));
#799=DIRECTION('center_axis',(0.,1.,0.));
#800=DIRECTION('ref_axis',(0.707106781186548,0.,0.707106781186548));
#801=DIRECTION('center_axis',(0.,-1.,0.));
#802=DIRECTION('ref_axis',(0.707106781186548,0.,0.707106781186548));
#803=DIRECTION('',(0.,-1.,0.));
#804=DIRECTION('center_axis',(0.,1.,0.));
#805=DIRECTION('ref_axis',(0.707106781186548,0.,0.707106781186548));
#806=DIRECTION('',(0.,1.,0.));
#807=DIRECTION('center_axis',(0.,-1.,0.));
#808=DIRECTION('ref_axis',(1.,0.,0.));
#809=DIRECTION('',(1.,0.,0.));
#810=DIRECTION('center_axis',(0.,1.,0.));
#811=DIRECTION('ref_axis',(-0.707106781186548,0.,0.707106781186548));
#812=DIRECTION('',(0.,0.,1.));
#813=DIRECTION('',(1.,0.,0.));
#814=DIRECTION('',(0.,0.,1.));
#815=DIRECTION('center_axis',(0.,0.,1.));
#816=DIRECTION('ref_axis',(1.,0.,0.));
#817=DIRECTION('',(-1.,0.,0.));
#818=DIRECTION('',(-1.85037170770859E-16,1.,0.));
#819=DIRECTION('center_axis',(0.,0.,1.));
#820=DIRECTION('ref_axis',(1.,0.,0.));
#821=DIRECTION('',(0.,-1.,0.));
#822=DIRECTION('',(-1.,0.,0.));
#823=DIRECTION('',(0.,1.,0.));
#824=DIRECTION('center_axis',(0.,0.,-1.));
#825=DIRECTION('ref_axis',(-1.,0.,0.));
#826=DIRECTION('center_axis',(0.,0.,1.));
#827=DIRECTION('ref_axis',(-1.,0.,0.));
#828=DIRECTION('',(0.,-1.,0.));
#829=DIRECTION('',(-1.,0.,0.));
#830=DIRECTION('',(0.,1.,0.));
#831=DIRECTION('center_axis',(0.,-1.,0.));
#832=DIRECTION('ref_axis',(-0.707106781186548,0.,0.707106781186548));
#833=DIRECTION('center_axis',(0.,-1.,0.));
#834=DIRECTION('ref_axis',(-0.707106781186548,0.,0.707106781186548));
#835=DIRECTION('',(0.,-1.,0.));
#836=DIRECTION('center_axis',(0.,0.,-1.));
#837=DIRECTION('ref_axis',(-1.,0.,0.));
#838=DIRECTION('center_axis',(0.,0.,-1.));
#839=DIRECTION('ref_axis',(-1.,0.,0.));
#840=DIRECTION('',(0.,0.,-1.));
#841=DIRECTION('center_axis',(0.,0.,1.));
#842=DIRECTION('ref_axis',(-1.,0.,0.));
#843=DIRECTION('center_axis',(0.,0.,-1.));
#844=DIRECTION('ref_axis',(-1.,0.,0.));
#845=DIRECTION('center_axis',(0.,0.,-1.));
#846=DIRECTION('ref_axis',(-1.,0.,0.));
#847=DIRECTION('',(0.,0.,-1.));
#848=DIRECTION('center_axis',(0.,0.,1.));
#849=DIRECTION('ref_axis',(-1.,0.,0.));
#850=DIRECTION('center_axis',(0.,0.,-1.));
#851=DIRECTION('ref_axis',(-1.,0.,0.));
#852=DIRECTION('center_axis',(0.,0.,-1.));
#853=DIRECTION('ref_axis',(-1.,0.,0.));
#854=DIRECTION('',(0.,0.,-1.));
#855=DIRECTION('center_axis',(0.,0.,1.));
#856=DIRECTION('ref_axis',(-1.,0.,0.));
#857=DIRECTION('center_axis',(0.,0.,-1.));
#858=DIRECTION('ref_axis',(-1.,0.,0.));
#859=DIRECTION('center_axis',(0.,0.,-1.));
#860=DIRECTION('ref_axis',(-1.,0.,0.));
#861=DIRECTION('',(0.,0.,-1.));
#862=DIRECTION('center_axis',(0.,0.,1.));
#863=DIRECTION('ref_axis',(-1.,0.,0.));
#864=DIRECTION('center_axis',(0.,0.,-1.));
#865=DIRECTION('ref_axis',(-1.,0.,0.));
#866=DIRECTION('center_axis',(0.,0.,-1.));
#867=DIRECTION('ref_axis',(-1.,0.,0.));
#868=DIRECTION('',(0.,0.,-1.));
#869=DIRECTION('center_axis',(0.,0.,1.));
#870=DIRECTION('ref_axis',(-1.,0.,0.));
#871=DIRECTION('center_axis',(0.,0.,-1.));
#872=DIRECTION('ref_axis',(-1.,0.,0.));
#873=DIRECTION('center_axis',(0.,0.,-1.));
#874=DIRECTION('ref_axis',(-1.,0.,0.));
#875=DIRECTION('',(0.,0.,-1.));
#876=DIRECTION('center_axis',(0.,0.,1.));
#877=DIRECTION('ref_axis',(-1.,0.,0.));
#878=DIRECTION('center_axis',(0.,0.,-1.));
#879=DIRECTION('ref_axis',(-1.,0.,0.));
#880=DIRECTION('center_axis',(0.,0.,-1.));
#881=DIRECTION('ref_axis',(-1.,0.,0.));
#882=DIRECTION('',(0.,0.,-1.));
#883=DIRECTION('center_axis',(0.,0.,1.));
#884=DIRECTION('ref_axis',(-1.,0.,0.));
#885=DIRECTION('center_axis',(0.,0.,-1.));
#886=DIRECTION('ref_axis',(-1.,0.,0.));
#887=DIRECTION('',(0.,0.,-1.));
#888=DIRECTION('center_axis',(0.,0.,-1.));
#889=DIRECTION('ref_axis',(-1.,0.,0.));
#890=DIRECTION('center_axis',(0.,0.,1.));
#891=DIRECTION('ref_axis',(-1.,0.,0.));
#892=DIRECTION('center_axis',(0.,0.,-1.));
#893=DIRECTION('ref_axis',(-1.,0.,0.));
#894=DIRECTION('',(0.,0.,-1.));
#895=DIRECTION('center_axis',(0.,0.,1.));
#896=DIRECTION('ref_axis',(-1.,0.,0.));
#897=DIRECTION('',(0.,0.,-1.));
#898=DIRECTION('center_axis',(-1.,0.,0.));
#899=DIRECTION('ref_axis',(0.,1.,0.));
#900=DIRECTION('',(0.,0.,-1.));
#901=DIRECTION('',(0.,1.,0.));
#902=DIRECTION('center_axis',(0.,-1.,0.));
#903=DIRECTION('ref_axis',(-1.,0.,0.));
#904=DIRECTION('',(0.,0.,-1.));
#905=DIRECTION('',(-1.,0.,0.));
#906=DIRECTION('center_axis',(1.,0.,0.));
#907=DIRECTION('ref_axis',(0.,-1.,0.));
#908=DIRECTION('',(0.,-1.,0.));
#909=DIRECTION('center_axis',(0.,0.,1.));
#910=DIRECTION('ref_axis',(-1.,0.,0.));
#911=DIRECTION('center_axis',(0.,1.,0.));
#912=DIRECTION('ref_axis',(-1.,0.,0.));
#913=DIRECTION('',(0.,0.,1.));
#914=DIRECTION('',(1.,0.,0.));
#915=DIRECTION('',(0.,0.,1.));
#916=DIRECTION('center_axis',(-1.,0.,0.));
#917=DIRECTION('ref_axis',(0.,-1.,0.));
#918=DIRECTION('',(0.,-1.,0.));
#919=DIRECTION('',(0.,0.,1.));
#920=DIRECTION('center_axis',(0.,0.,1.));
#921=DIRECTION('ref_axis',(1.,0.,0.));
#922=DIRECTION('center_axis',(0.,0.,1.));
#923=DIRECTION('ref_axis',(1.,0.,0.));
#924=DIRECTION('',(0.,0.,1.));
#925=DIRECTION('center_axis',(1.,1.85037170770859E-16,0.));
#926=DIRECTION('ref_axis',(-1.85037170770859E-16,1.,0.));
#927=DIRECTION('',(1.85037170770859E-16,-1.,0.));
#928=DIRECTION('',(0.,0.,1.));
#929=DIRECTION('center_axis',(0.,1.,0.));
#930=DIRECTION('ref_axis',(-1.,0.,0.));
#931=DIRECTION('',(0.,0.,1.));
#932=DIRECTION('',(-1.,0.,0.));
#933=DIRECTION('center_axis',(1.,0.,0.));
#934=DIRECTION('ref_axis',(0.,1.,0.));
#935=DIRECTION('',(0.,1.,0.));
#936=DIRECTION('center_axis',(-1.,0.,0.));
#937=DIRECTION('ref_axis',(0.,-1.,0.));
#938=DIRECTION('',(0.,1.,0.));
#939=DIRECTION('center_axis',(0.,0.,1.));
#940=DIRECTION('ref_axis',(1.,0.,0.));
#941=CARTESIAN_POINT('',(0.,0.,0.));
#942=CARTESIAN_POINT('Origin',(5.00000007450581,31.5,2.));
#943=CARTESIAN_POINT('',(5.00000007450581,31.5,2.));
#944=CARTESIAN_POINT('',(-5.,31.5,2.));
#945=CARTESIAN_POINT('',(2.5000000372529,31.5,2.));
#946=CARTESIAN_POINT('',(5.00000007450581,31.5,5.55111512312578E-16));
#947=CARTESIAN_POINT('',(5.00000007450581,31.5,2.));
#948=CARTESIAN_POINT('',(-5.,31.5,5.55111512312578E-16));
#949=CARTESIAN_POINT('',(2.5000000372529,31.5,0.));
#950=CARTESIAN_POINT('',(-5.,31.5,2.));
#951=CARTESIAN_POINT('Origin',(5.,34.,2.));
#952=CARTESIAN_POINT('',(5.00000007450581,36.5,2.));
#953=CARTESIAN_POINT('Origin',(5.,34.,2.));
#954=CARTESIAN_POINT('',(5.00000007450581,36.5,5.55111512312578E-16));
#955=CARTESIAN_POINT('',(5.00000007450581,36.5,2.));
#956=CARTESIAN_POINT('Origin',(5.,34.,0.));
#957=CARTESIAN_POINT('Origin',(-5.,36.5,2.));
#958=CARTESIAN_POINT('',(-5.,36.5,2.));
#959=CARTESIAN_POINT('',(-2.5,36.5,2.));
#960=CARTESIAN_POINT('',(-5.,36.5,5.55111512312578E-16));
#961=CARTESIAN_POINT('',(-5.,36.5,2.));
#962=CARTESIAN_POINT('',(-2.5,36.5,0.));
#963=CARTESIAN_POINT('Origin',(-5.,34.,2.));
#964=CARTESIAN_POINT('Origin',(-5.,34.,2.));
#965=CARTESIAN_POINT('Origin',(-5.,34.,0.));
#966=CARTESIAN_POINT('Origin',(4.99896214714347,63.5000001781748,2.));
#967=CARTESIAN_POINT('',(4.99896214714347,63.5000001781748,2.));
#968=CARTESIAN_POINT('',(-4.85702286844829,63.5040918033474,2.));
#969=CARTESIAN_POINT('',(2.5022837068041,63.5010366521891,2.));
#970=CARTESIAN_POINT('',(4.99896214714347,63.5000001781748,5.55111512312578E-16));
#971=CARTESIAN_POINT('',(4.99896214714347,63.5000001781748,2.));
#972=CARTESIAN_POINT('',(-4.85702286844829,63.5040918033474,5.55111512312578E-16));
#973=CARTESIAN_POINT('',(2.50487833868318,63.5010355750506,-1.38777878078145E-16));
#974=CARTESIAN_POINT('',(-4.85702286844829,63.5040918033474,2.));
#975=CARTESIAN_POINT('Origin',(5.,66.,2.));
#976=CARTESIAN_POINT('',(4.99744599160382,68.4999987326608,2.));
#977=CARTESIAN_POINT('Origin',(5.,66.,2.));
#978=CARTESIAN_POINT('',(4.99744599160382,68.4999987326608,5.55111512312578E-16));
#979=CARTESIAN_POINT('',(4.99744599160382,68.4999987326608,2.));
#980=CARTESIAN_POINT('Origin',(5.,66.,0.));
#981=CARTESIAN_POINT('Origin',(-4.7767654784406,68.4900133603354,2.));
#982=CARTESIAN_POINT('',(-4.7767654784406,68.4900133603354,2.));
#983=CARTESIAN_POINT('',(-2.39782995671534,68.4924436900858,2.));
#984=CARTESIAN_POINT('',(-4.7767654784406,68.4900133603354,5.55111512312578E-16));
#985=CARTESIAN_POINT('',(-4.7767654784406,68.4900133603354,2.));
#986=CARTESIAN_POINT('',(-2.40421497427824,68.4924371671271,0.));
#987=CARTESIAN_POINT('Origin',(-5.,66.,2.));
#988=CARTESIAN_POINT('Origin',(-5.,66.,2.));
#989=CARTESIAN_POINT('Origin',(-5.,66.,0.));
#990=CARTESIAN_POINT('Origin',(33.,18.75,5.));
#991=CARTESIAN_POINT('',(35.,2.,5.));
#992=CARTESIAN_POINT('',(33.,2.,7.));
#993=CARTESIAN_POINT('Origin',(33.,2.,5.));
#994=CARTESIAN_POINT('',(33.,0.,7.));
#995=CARTESIAN_POINT('',(33.,18.75,7.));
#996=CARTESIAN_POINT('',(35.,0.,5.));
#997=CARTESIAN_POINT('Origin',(33.,0.,5.));
#998=CARTESIAN_POINT('',(35.,18.75,5.));
#999=CARTESIAN_POINT('Origin',(-35.,0.,0.));
#1000=CARTESIAN_POINT('',(-33.,0.,7.));
#1001=CARTESIAN_POINT('',(-35.,0.,7.));
#1002=CARTESIAN_POINT('',(-35.,0.,5.));
#1003=CARTESIAN_POINT('Origin',(-33.,0.,5.));
#1004=CARTESIAN_POINT('',(-35.,0.,0.));
#1005=CARTESIAN_POINT('',(-35.,0.,0.));
#1006=CARTESIAN_POINT('',(35.,0.,0.));
#1007=CARTESIAN_POINT('',(-35.,0.,0.));
#1008=CARTESIAN_POINT('',(35.,0.,0.));
#1009=CARTESIAN_POINT('Origin',(0.,37.5,7.));
#1010=CARTESIAN_POINT('',(25.,2.,7.));
#1011=CARTESIAN_POINT('',(35.,2.,7.));
#1012=CARTESIAN_POINT('',(25.,50.,7.));
#1013=CARTESIAN_POINT('',(25.,50.,7.));
#1014=CARTESIAN_POINT('',(-25.,50.,7.));
#1015=CARTESIAN_POINT('Origin',(0.,50.,7.));
#1016=CARTESIAN_POINT('',(-25.,2.,7.));
#1017=CARTESIAN_POINT('',(-25.,50.,7.));
#1018=CARTESIAN_POINT('',(-33.,2.,7.));
#1019=CARTESIAN_POINT('',(-35.,2.,7.));
#1020=CARTESIAN_POINT('',(-33.,19.75,7.));
#1021=CARTESIAN_POINT('',(24.,50.,7.));
#1022=CARTESIAN_POINT('Origin',(0.,50.,7.));
#1023=CARTESIAN_POINT('',(-24.,43.,7.));
#1024=CARTESIAN_POINT('',(24.,43.,7.));
#1025=CARTESIAN_POINT('Origin',(0.,50.,7.));
#1026=CARTESIAN_POINT('',(24.,2.,7.));
#1027=CARTESIAN_POINT('',(24.,40.25,7.));
#1028=CARTESIAN_POINT('',(-24.,2.,7.));
#1029=CARTESIAN_POINT('',(12.,2.,7.));
#1030=CARTESIAN_POINT('',(-24.,19.75,7.));
#1031=CARTESIAN_POINT('Origin',(-33.,19.75,5.));
#1032=CARTESIAN_POINT('',(-35.,2.,5.));
#1033=CARTESIAN_POINT('Origin',(-33.,2.,5.));
#1034=CARTESIAN_POINT('',(-35.,19.75,5.));
#1035=CARTESIAN_POINT('Origin',(20.0000002980232,25.,2.));
#1036=CARTESIAN_POINT('',(21.5000002980232,25.,2.));
#1037=CARTESIAN_POINT('Origin',(20.0000002980232,25.,2.));
#1038=CARTESIAN_POINT('',(21.5000002980232,25.,5.55111512312578E-16));
#1039=CARTESIAN_POINT('',(21.5000002980232,25.,2.));
#1040=CARTESIAN_POINT('Origin',(20.0000002980232,25.,0.));
#1041=CARTESIAN_POINT('Origin',(20.0000002980232,10.,2.));
#1042=CARTESIAN_POINT('',(21.5000002980232,10.,2.));
#1043=CARTESIAN_POINT('Origin',(20.0000002980232,10.,2.));
#1044=CARTESIAN_POINT('',(21.5000002980232,10.,5.55111512312578E-16));
#1045=CARTESIAN_POINT('',(21.5000002980232,10.,2.));
#1046=CARTESIAN_POINT('Origin',(20.0000002980232,10.,0.));
#1047=CARTESIAN_POINT('Origin',(-20.,25.,2.));
#1048=CARTESIAN_POINT('',(-18.5,25.,2.));
#1049=CARTESIAN_POINT('Origin',(-20.,25.,2.));
#1050=CARTESIAN_POINT('',(-18.5,25.,5.55111512312578E-16));
#1051=CARTESIAN_POINT('',(-18.5,25.,2.));
#1052=CARTESIAN_POINT('Origin',(-20.,25.,0.));
#1053=CARTESIAN_POINT('Origin',(-20.,10.,2.));
#1054=CARTESIAN_POINT('',(-18.5,10.,2.));
#1055=CARTESIAN_POINT('Origin',(-20.,10.,2.));
#1056=CARTESIAN_POINT('',(-18.5,10.,5.55111512312578E-16));
#1057=CARTESIAN_POINT('',(-18.5,10.,2.));
#1058=CARTESIAN_POINT('Origin',(-20.,10.,0.));
#1059=CARTESIAN_POINT('Origin',(-8.7,50.,2.));
#1060=CARTESIAN_POINT('',(-6.7,50.,2.));
#1061=CARTESIAN_POINT('Origin',(-8.7,50.,2.));
#1062=CARTESIAN_POINT('',(-6.7,50.,5.55111512312578E-16));
#1063=CARTESIAN_POINT('',(-6.7,50.,2.));
#1064=CARTESIAN_POINT('Origin',(-8.7,50.,0.));
#1065=CARTESIAN_POINT('Origin',(0.,50.,2.));
#1066=CARTESIAN_POINT('',(2.,50.,2.));
#1067=CARTESIAN_POINT('Origin',(0.,50.,2.));
#1068=CARTESIAN_POINT('',(2.,50.,5.55111512312578E-16));
#1069=CARTESIAN_POINT('',(2.,50.,2.));
#1070=CARTESIAN_POINT('Origin',(0.,50.,0.));
#1071=CARTESIAN_POINT('Origin',(8.7,50.,2.));
#1072=CARTESIAN_POINT('',(10.7,50.,2.));
#1073=CARTESIAN_POINT('Origin',(8.7,50.,2.));
#1074=CARTESIAN_POINT('',(10.7,50.,5.55111512312578E-16));
#1075=CARTESIAN_POINT('',(10.7,50.,2.));
#1076=CARTESIAN_POINT('Origin',(8.7,50.,0.));
#1077=CARTESIAN_POINT('Origin',(0.,50.,7.));
#1078=CARTESIAN_POINT('',(24.,50.,2.));
#1079=CARTESIAN_POINT('',(24.,50.,7.));
#1080=CARTESIAN_POINT('Origin',(0.,50.,2.));
#1081=CARTESIAN_POINT('Origin',(0.,50.,2.));
#1082=CARTESIAN_POINT('Origin',(0.,50.,7.));
#1083=CARTESIAN_POINT('',(-24.,43.,2.));
#1084=CARTESIAN_POINT('',(-24.,43.,7.));
#1085=CARTESIAN_POINT('',(24.,43.,2.));
#1086=CARTESIAN_POINT('Origin',(0.,50.,2.));
#1087=CARTESIAN_POINT('',(24.,43.,7.));
#1088=CARTESIAN_POINT('Origin',(-24.,2.,7.));
#1089=CARTESIAN_POINT('',(-24.,2.,2.));
#1090=CARTESIAN_POINT('',(-24.,2.,7.));
#1091=CARTESIAN_POINT('',(-24.,2.,2.));
#1092=CARTESIAN_POINT('Origin',(24.,2.,7.));
#1093=CARTESIAN_POINT('',(24.,2.,2.));
#1094=CARTESIAN_POINT('',(24.,2.,7.));
#1095=CARTESIAN_POINT('',(-24.,2.,2.));
#1096=CARTESIAN_POINT('Origin',(24.,43.,7.));
#1097=CARTESIAN_POINT('',(24.,2.,2.));
#1098=CARTESIAN_POINT('Origin',(0.,22.5,2.));
#1099=CARTESIAN_POINT('Origin',(-25.,2.,0.));
#1100=CARTESIAN_POINT('',(-25.,2.,0.));
#1101=CARTESIAN_POINT('',(-25.,2.,0.));
#1102=CARTESIAN_POINT('',(-35.,2.,0.));
#1103=CARTESIAN_POINT('',(-35.,2.,0.));
#1104=CARTESIAN_POINT('',(-35.,2.,0.));
#1105=CARTESIAN_POINT('Origin',(-25.,50.,0.));
#1106=CARTESIAN_POINT('',(-25.,50.,0.));
#1107=CARTESIAN_POINT('',(-25.,50.,0.));
#1108=CARTESIAN_POINT('',(-25.,50.,0.));
#1109=CARTESIAN_POINT('Origin',(0.,50.,0.));
#1110=CARTESIAN_POINT('',(25.,50.,0.));
#1111=CARTESIAN_POINT('Origin',(0.,50.,0.));
#1112=CARTESIAN_POINT('',(25.,50.,0.));
#1113=CARTESIAN_POINT('Origin',(25.,2.,0.));
#1114=CARTESIAN_POINT('',(25.,2.,0.));
#1115=CARTESIAN_POINT('',(25.,50.,0.));
#1116=CARTESIAN_POINT('',(25.,2.,0.));
#1117=CARTESIAN_POINT('Origin',(35.,2.,0.));
#1118=CARTESIAN_POINT('',(35.,2.,0.));
#1119=CARTESIAN_POINT('',(35.,2.,0.));
#1120=CARTESIAN_POINT('',(35.,2.,0.));
#1121=CARTESIAN_POINT('Origin',(35.,0.,0.));
#1122=CARTESIAN_POINT('',(35.,0.,0.));
#1123=CARTESIAN_POINT('Origin',(-35.,2.,0.));
#1124=CARTESIAN_POINT('',(-35.,0.,0.));
#1125=CARTESIAN_POINT('Origin',(0.,37.5,0.));
#1126=UNCERTAINTY_MEASURE_WITH_UNIT(LENGTH_MEASURE(0.01),#1130,
'DISTANCE_ACCURACY_VALUE',
'Maximum model space distance between geometric entities at asserted c
onnectivities');
#1127=UNCERTAINTY_MEASURE_WITH_UNIT(LENGTH_MEASURE(0.01),#1130,
'DISTANCE_ACCURACY_VALUE',
'Maximum model space distance between geometric entities at asserted c
onnectivities');
#1128=(
GEOMETRIC_REPRESENTATION_CONTEXT(3)
GLOBAL_UNCERTAINTY_ASSIGNED_CONTEXT((#1126))
GLOBAL_UNIT_ASSIGNED_CONTEXT((#1130,#1132,#1133))
REPRESENTATION_CONTEXT('','3D')
);
#1129=(
GEOMETRIC_REPRESENTATION_CONTEXT(3)
GLOBAL_UNCERTAINTY_ASSIGNED_CONTEXT((#1127))
GLOBAL_UNIT_ASSIGNED_CONTEXT((#1130,#1132,#1133))
REPRESENTATION_CONTEXT('','3D')
);
#1130=(
LENGTH_UNIT()
NAMED_UNIT(*)
SI_UNIT(.MILLI.,.METRE.)
);
#1131=(
LENGTH_UNIT()
NAMED_UNIT(*)
SI_UNIT($,.METRE.)
);
#1132=(
NAMED_UNIT(*)
PLANE_ANGLE_UNIT()
SI_UNIT($,.RADIAN.)
);
#1133=(
NAMED_UNIT(*)
SI_UNIT($,.STERADIAN.)
SOLID_ANGLE_UNIT()
);
#1134=SHAPE_DEFINITION_REPRESENTATION(#1135,#1136);
#1135=PRODUCT_DEFINITION_SHAPE('',$,#1138);
#1136=SHAPE_REPRESENTATION('',(#682),#1128);
#1137=PRODUCT_DEFINITION_CONTEXT('part definition',#1142,'design');
#1138=PRODUCT_DEFINITION('(\X2\C800C7A5B418C9C0\X0\ \X2\C54AC74C\X0\)',
'(\X2\C800C7A5B418C9C0\X0\ \X2\C54AC74C\X0\)',#1139,#1137);
#1139=PRODUCT_DEFINITION_FORMATION('',$,#1144);
#1140=PRODUCT_RELATED_PRODUCT_CATEGORY('(\X2\C800C7A5B418C9C0\X0\ \X2\C54AC74C\X0\)',
'(\X2\C800C7A5B418C9C0\X0\ \X2\C54AC74C\X0\)',(#1144));
#1141=APPLICATION_PROTOCOL_DEFINITION('international standard',
'automotive_design',2009,#1142);
#1142=APPLICATION_CONTEXT(
'Core Data for Automotive Mechanical Design Process');
#1143=PRODUCT_CONTEXT('part definition',#1142,'mechanical');
#1144=PRODUCT('(\X2\C800C7A5B418C9C0\X0\ \X2\C54AC74C\X0\)',
'(\X2\C800C7A5B418C9C0\X0\ \X2\C54AC74C\X0\)',$,(#1143));
#1145=PRESENTATION_STYLE_ASSIGNMENT((#1146));
#1146=SURFACE_STYLE_USAGE(.BOTH.,#1147);
#1147=SURFACE_SIDE_STYLE('',(#1148));
#1148=SURFACE_STYLE_FILL_AREA(#1149);
#1149=FILL_AREA_STYLE('\X2\AC15CCA0\X0\ - \X2\C0C8D2F4\X0\',(#1150));
#1150=FILL_AREA_STYLE_COLOUR('\X2\AC15CCA0\X0\ - \X2\C0C8D2F4\X0\',#1151);
#1151=COLOUR_RGB('\X2\AC15CCA0\X0\ - \X2\C0C8D2F4\X0\',0.627450980392157,
0.627450980392157,0.627450980392157);
ENDSEC;
END-ISO-10303-21;
