ISO-10303-21;
HEADER;
/* Generated by software containing ST-Developer
 * from STEP Tools, Inc. (www.steptools.com) 
 */

FILE_DESCRIPTION(
/* description */ (''),
/* implementation_level */ '2;1');

FILE_NAME(
/* name */ 'TRARM02_Link4A_30x40x2.step',
/* time_stamp */ '2026-06-11T09:10:34+09:00',
/* author */ (''),
/* organization */ (''),
/* preprocessor_version */ 'ST-DEVELOPER v20.1',
/* originating_system */ 'Autodesk Translation Framework v15.8.0.0',
/* authorisation */ '');

FILE_SCHEMA (('AUTOMOTIVE_DESIGN { 1 0 10303 214 3 1 1 }'));
ENDSEC;

DATA;
#10=MECHANICAL_DESIGN_GEOMETRIC_PRESENTATION_REPRESENTATION('',(#13),#1395);
#11=SHAPE_REPRESENTATION_RELATIONSHIP('SRR','None',#1402,#12);
#12=ADVANCED_BREP_SHAPE_REPRESENTATION('',(#14),#1394);
#13=STYLED_ITEM('',(#1411),#14);
#14=MANIFOLD_SOLID_BREP('\X2\BCF8CCB4\X0\1',#833);
#15=(
BOUNDED_CURVE()
B_SPLINE_CURVE(2,(#1346,#1347,#1348),.UNSPECIFIED.,.F.,.F.)
B_SPLINE_CURVE_WITH_KNOTS((3,3),(0.,0.203960780543714),.UNSPECIFIED.)
CURVE()
GEOMETRIC_REPRESENTATION_ITEM()
RATIONAL_B_SPLINE_CURVE((1.,1.08333333333335,1.))
REPRESENTATION_ITEM('')
);
#16=(
BOUNDED_CURVE()
B_SPLINE_CURVE(2,(#1363,#1364,#1365),.UNSPECIFIED.,.F.,.F.)
B_SPLINE_CURVE_WITH_KNOTS((3,3),(0.,0.20396078054371),.UNSPECIFIED.)
CURVE()
GEOMETRIC_REPRESENTATION_ITEM()
RATIONAL_B_SPLINE_CURVE((1.,1.08333333333335,1.))
REPRESENTATION_ITEM('')
);
#17=FACE_BOUND('',#132,.T.);
#18=FACE_BOUND('',#133,.T.);
#19=FACE_BOUND('',#134,.T.);
#20=FACE_BOUND('',#135,.T.);
#21=FACE_BOUND('',#136,.T.);
#22=FACE_BOUND('',#155,.T.);
#23=FACE_BOUND('',#156,.T.);
#24=FACE_BOUND('',#157,.T.);
#25=FACE_BOUND('',#159,.T.);
#26=FACE_BOUND('',#173,.T.);
#27=FACE_BOUND('',#174,.T.);
#28=FACE_BOUND('',#175,.T.);
#29=FACE_BOUND('',#176,.T.);
#30=FACE_BOUND('',#177,.T.);
#31=CONICAL_SURFACE('',#863,2.5,0.785398163397448);
#32=CONICAL_SURFACE('',#875,2.5,0.785398163397448);
#33=CONICAL_SURFACE('',#904,1.85,0.785398163397448);
#34=CONICAL_SURFACE('',#909,1.85,0.785398163397448);
#35=CIRCLE('',#849,1.5);
#36=CIRCLE('',#850,1.5);
#37=CIRCLE('',#853,1.5);
#38=CIRCLE('',#854,1.5);
#39=CIRCLE('',#857,1.5);
#40=CIRCLE('',#858,1.5);
#41=CIRCLE('',#861,1.5);
#42=CIRCLE('',#862,1.5);
#43=CIRCLE('',#864,3.5);
#44=CIRCLE('',#865,1.5);
#45=CIRCLE('',#867,20.);
#46=CIRCLE('',#868,3.5);
#47=CIRCLE('',#869,2.6);
#48=CIRCLE('',#870,2.6);
#49=CIRCLE('',#871,2.6);
#50=CIRCLE('',#872,2.6);
#51=CIRCLE('',#874,1.5);
#52=CIRCLE('',#876,1.5);
#53=CIRCLE('',#878,1.5);
#54=CIRCLE('',#880,18.);
#55=CIRCLE('',#881,18.);
#56=CIRCLE('',#884,3.00000000000585);
#57=CIRCLE('',#885,3.00000000000585);
#58=CIRCLE('',#892,2.99999999999999);
#59=CIRCLE('',#893,2.99999999999999);
#60=CIRCLE('',#899,19.);
#61=CIRCLE('',#900,19.);
#62=CIRCLE('',#903,20.);
#63=CIRCLE('',#905,1.1);
#64=CIRCLE('',#908,1.1);
#65=CIRCLE('',#910,1.1);
#66=CIRCLE('',#913,1.1);
#67=CYLINDRICAL_SURFACE('',#848,1.5);
#68=CYLINDRICAL_SURFACE('',#852,1.5);
#69=CYLINDRICAL_SURFACE('',#856,1.5);
#70=CYLINDRICAL_SURFACE('',#860,1.5);
#71=CYLINDRICAL_SURFACE('',#873,1.5);
#72=CYLINDRICAL_SURFACE('',#877,1.5);
#73=CYLINDRICAL_SURFACE('',#879,18.);
#74=CYLINDRICAL_SURFACE('',#883,3.00000000000585);
#75=CYLINDRICAL_SURFACE('',#891,2.99999999999999);
#76=CYLINDRICAL_SURFACE('',#898,19.);
#77=CYLINDRICAL_SURFACE('',#907,1.1);
#78=CYLINDRICAL_SURFACE('',#912,1.1);
#79=CYLINDRICAL_SURFACE('',#919,20.);
#80=FACE_OUTER_BOUND('',#122,.T.);
#81=FACE_OUTER_BOUND('',#123,.T.);
#82=FACE_OUTER_BOUND('',#124,.T.);
#83=FACE_OUTER_BOUND('',#125,.T.);
#84=FACE_OUTER_BOUND('',#126,.T.);
#85=FACE_OUTER_BOUND('',#127,.T.);
#86=FACE_OUTER_BOUND('',#128,.T.);
#87=FACE_OUTER_BOUND('',#129,.T.);
#88=FACE_OUTER_BOUND('',#130,.T.);
#89=FACE_OUTER_BOUND('',#131,.T.);
#90=FACE_OUTER_BOUND('',#137,.T.);
#91=FACE_OUTER_BOUND('',#138,.T.);
#92=FACE_OUTER_BOUND('',#139,.T.);
#93=FACE_OUTER_BOUND('',#140,.T.);
#94=FACE_OUTER_BOUND('',#141,.T.);
#95=FACE_OUTER_BOUND('',#142,.T.);
#96=FACE_OUTER_BOUND('',#143,.T.);
#97=FACE_OUTER_BOUND('',#144,.T.);
#98=FACE_OUTER_BOUND('',#145,.T.);
#99=FACE_OUTER_BOUND('',#146,.T.);
#100=FACE_OUTER_BOUND('',#147,.T.);
#101=FACE_OUTER_BOUND('',#148,.T.);
#102=FACE_OUTER_BOUND('',#149,.T.);
#103=FACE_OUTER_BOUND('',#150,.T.);
#104=FACE_OUTER_BOUND('',#151,.T.);
#105=FACE_OUTER_BOUND('',#152,.T.);
#106=FACE_OUTER_BOUND('',#153,.T.);
#107=FACE_OUTER_BOUND('',#154,.T.);
#108=FACE_OUTER_BOUND('',#158,.T.);
#109=FACE_OUTER_BOUND('',#160,.T.);
#110=FACE_OUTER_BOUND('',#161,.T.);
#111=FACE_OUTER_BOUND('',#162,.T.);
#112=FACE_OUTER_BOUND('',#163,.T.);
#113=FACE_OUTER_BOUND('',#164,.T.);
#114=FACE_OUTER_BOUND('',#165,.T.);
#115=FACE_OUTER_BOUND('',#166,.T.);
#116=FACE_OUTER_BOUND('',#167,.T.);
#117=FACE_OUTER_BOUND('',#168,.T.);
#118=FACE_OUTER_BOUND('',#169,.T.);
#119=FACE_OUTER_BOUND('',#170,.T.);
#120=FACE_OUTER_BOUND('',#171,.T.);
#121=FACE_OUTER_BOUND('',#172,.T.);
#122=EDGE_LOOP('',(#534,#535,#536,#537));
#123=EDGE_LOOP('',(#538,#539,#540,#541));
#124=EDGE_LOOP('',(#542,#543,#544,#545));
#125=EDGE_LOOP('',(#546,#547,#548,#549));
#126=EDGE_LOOP('',(#550,#551,#552,#553));
#127=EDGE_LOOP('',(#554,#555,#556,#557));
#128=EDGE_LOOP('',(#558,#559,#560,#561));
#129=EDGE_LOOP('',(#562,#563,#564,#565));
#130=EDGE_LOOP('',(#566,#567,#568,#569));
#131=EDGE_LOOP('',(#570,#571,#572,#573));
#132=EDGE_LOOP('',(#574,#575,#576,#577));
#133=EDGE_LOOP('',(#578,#579,#580,#581));
#134=EDGE_LOOP('',(#582));
#135=EDGE_LOOP('',(#583,#584,#585,#586,#587,#588,#589,#590,#591,#592));
#136=EDGE_LOOP('',(#593));
#137=EDGE_LOOP('',(#594,#595,#596,#597));
#138=EDGE_LOOP('',(#598,#599,#600,#601));
#139=EDGE_LOOP('',(#602,#603,#604,#605));
#140=EDGE_LOOP('',(#606,#607,#608,#609));
#141=EDGE_LOOP('',(#610,#611,#612,#613));
#142=EDGE_LOOP('',(#614,#615,#616,#617));
#143=EDGE_LOOP('',(#618,#619,#620,#621));
#144=EDGE_LOOP('',(#622,#623,#624,#625));
#145=EDGE_LOOP('',(#626,#627,#628,#629));
#146=EDGE_LOOP('',(#630,#631,#632,#633));
#147=EDGE_LOOP('',(#634,#635,#636,#637));
#148=EDGE_LOOP('',(#638,#639,#640,#641));
#149=EDGE_LOOP('',(#642,#643,#644,#645));
#150=EDGE_LOOP('',(#646,#647,#648,#649));
#151=EDGE_LOOP('',(#650,#651,#652,#653));
#152=EDGE_LOOP('',(#654,#655,#656,#657));
#153=EDGE_LOOP('',(#658,#659,#660,#661));
#154=EDGE_LOOP('',(#662,#663,#664,#665));
#155=EDGE_LOOP('',(#666));
#156=EDGE_LOOP('',(#667));
#157=EDGE_LOOP('',(#668,#669,#670,#671,#672,#673,#674,#675,#676,#677));
#158=EDGE_LOOP('',(#678,#679,#680,#681));
#159=EDGE_LOOP('',(#682,#683,#684,#685));
#160=EDGE_LOOP('',(#686,#687,#688,#689,#690,#691));
#161=EDGE_LOOP('',(#692,#693,#694,#695,#696,#697));
#162=EDGE_LOOP('',(#698,#699,#700,#701));
#163=EDGE_LOOP('',(#702,#703,#704,#705,#706,#707));
#164=EDGE_LOOP('',(#708,#709,#710,#711,#712,#713));
#165=EDGE_LOOP('',(#714,#715,#716,#717));
#166=EDGE_LOOP('',(#718,#719,#720,#721));
#167=EDGE_LOOP('',(#722,#723,#724,#725));
#168=EDGE_LOOP('',(#726,#727,#728,#729));
#169=EDGE_LOOP('',(#730,#731,#732,#733));
#170=EDGE_LOOP('',(#734,#735,#736,#737));
#171=EDGE_LOOP('',(#738,#739,#740,#741));
#172=EDGE_LOOP('',(#742,#743,#744,#745,#746,#747,#748,#749,#750,#751));
#173=EDGE_LOOP('',(#752,#753,#754,#755));
#174=EDGE_LOOP('',(#756,#757,#758,#759));
#175=EDGE_LOOP('',(#760,#761,#762,#763));
#176=EDGE_LOOP('',(#764));
#177=EDGE_LOOP('',(#765));
#178=LINE('',#1157,#260);
#179=LINE('',#1159,#261);
#180=LINE('',#1161,#262);
#181=LINE('',#1162,#263);
#182=LINE('',#1167,#264);
#183=LINE('',#1171,#265);
#184=LINE('',#1173,#266);
#185=LINE('',#1174,#267);
#186=LINE('',#1181,#268);
#187=LINE('',#1183,#269);
#188=LINE('',#1185,#270);
#189=LINE('',#1186,#271);
#190=LINE('',#1191,#272);
#191=LINE('',#1195,#273);
#192=LINE('',#1197,#274);
#193=LINE('',#1198,#275);
#194=LINE('',#1206,#276);
#195=LINE('',#1213,#277);
#196=LINE('',#1215,#278);
#197=LINE('',#1216,#279);
#198=LINE('',#1223,#280);
#199=LINE('',#1225,#281);
#200=LINE('',#1227,#282);
#201=LINE('',#1233,#283);
#202=LINE('',#1235,#284);
#203=LINE('',#1237,#285);
#204=LINE('',#1242,#286);
#205=LINE('',#1245,#287);
#206=LINE('',#1250,#288);
#207=LINE('',#1256,#289);
#208=LINE('',#1259,#290);
#209=LINE('',#1262,#291);
#210=LINE('',#1264,#292);
#211=LINE('',#1265,#293);
#212=LINE('',#1271,#294);
#213=LINE('',#1274,#295);
#214=LINE('',#1276,#296);
#215=LINE('',#1277,#297);
#216=LINE('',#1280,#298);
#217=LINE('',#1282,#299);
#218=LINE('',#1283,#300);
#219=LINE('',#1286,#301);
#220=LINE('',#1288,#302);
#221=LINE('',#1289,#303);
#222=LINE('',#1292,#304);
#223=LINE('',#1294,#305);
#224=LINE('',#1295,#306);
#225=LINE('',#1298,#307);
#226=LINE('',#1300,#308);
#227=LINE('',#1301,#309);
#228=LINE('',#1307,#310);
#229=LINE('',#1309,#311);
#230=LINE('',#1310,#312);
#231=LINE('',#1314,#313);
#232=LINE('',#1316,#314);
#233=LINE('',#1318,#315);
#234=LINE('',#1319,#316);
#235=LINE('',#1322,#317);
#236=LINE('',#1324,#318);
#237=LINE('',#1325,#319);
#238=LINE('',#1328,#320);
#239=LINE('',#1330,#321);
#240=LINE('',#1331,#322);
#241=LINE('',#1341,#323);
#242=LINE('',#1343,#324);
#243=LINE('',#1344,#325);
#244=LINE('',#1350,#326);
#245=LINE('',#1354,#327);
#246=LINE('',#1356,#328);
#247=LINE('',#1357,#329);
#248=LINE('',#1361,#330);
#249=LINE('',#1367,#331);
#250=LINE('',#1371,#332);
#251=LINE('',#1373,#333);
#252=LINE('',#1374,#334);
#253=LINE('',#1378,#335);
#254=LINE('',#1380,#336);
#255=LINE('',#1382,#337);
#256=LINE('',#1384,#338);
#257=LINE('',#1385,#339);
#258=LINE('',#1387,#340);
#259=LINE('',#1389,#341);
#260=VECTOR('',#925,10.);
#261=VECTOR('',#926,10.);
#262=VECTOR('',#927,10.);
#263=VECTOR('',#928,10.);
#264=VECTOR('',#933,10.);
#265=VECTOR('',#938,10.);
#266=VECTOR('',#939,10.);
#267=VECTOR('',#940,10.);
#268=VECTOR('',#949,10.);
#269=VECTOR('',#950,10.);
#270=VECTOR('',#951,10.);
#271=VECTOR('',#952,10.);
#272=VECTOR('',#957,10.);
#273=VECTOR('',#962,10.);
#274=VECTOR('',#963,10.);
#275=VECTOR('',#964,10.);
#276=VECTOR('',#975,2.5);
#277=VECTOR('',#982,10.);
#278=VECTOR('',#983,10.);
#279=VECTOR('',#984,10.);
#280=VECTOR('',#989,10.);
#281=VECTOR('',#990,10.);
#282=VECTOR('',#991,10.);
#283=VECTOR('',#996,10.);
#284=VECTOR('',#997,10.);
#285=VECTOR('',#998,10.);
#286=VECTOR('',#1005,1.5);
#287=VECTOR('',#1008,2.5);
#288=VECTOR('',#1015,1.5);
#289=VECTOR('',#1020,10.);
#290=VECTOR('',#1023,10.);
#291=VECTOR('',#1026,10.);
#292=VECTOR('',#1027,10.);
#293=VECTOR('',#1028,10.);
#294=VECTOR('',#1035,10.);
#295=VECTOR('',#1038,10.);
#296=VECTOR('',#1039,10.);
#297=VECTOR('',#1040,10.);
#298=VECTOR('',#1043,10.);
#299=VECTOR('',#1044,10.);
#300=VECTOR('',#1045,10.);
#301=VECTOR('',#1048,10.);
#302=VECTOR('',#1049,10.);
#303=VECTOR('',#1050,10.);
#304=VECTOR('',#1053,10.);
#305=VECTOR('',#1054,10.);
#306=VECTOR('',#1055,10.);
#307=VECTOR('',#1058,10.);
#308=VECTOR('',#1059,10.);
#309=VECTOR('',#1060,10.);
#310=VECTOR('',#1067,10.);
#311=VECTOR('',#1070,10.);
#312=VECTOR('',#1071,10.);
#313=VECTOR('',#1074,10.);
#314=VECTOR('',#1075,10.);
#315=VECTOR('',#1076,10.);
#316=VECTOR('',#1077,10.);
#317=VECTOR('',#1080,10.);
#318=VECTOR('',#1081,10.);
#319=VECTOR('',#1082,10.);
#320=VECTOR('',#1085,10.);
#321=VECTOR('',#1086,10.);
#322=VECTOR('',#1087,10.);
#323=VECTOR('',#1100,10.);
#324=VECTOR('',#1101,10.);
#325=VECTOR('',#1102,10.);
#326=VECTOR('',#1105,1.85);
#327=VECTOR('',#1110,10.);
#328=VECTOR('',#1111,10.);
#329=VECTOR('',#1112,10.);
#330=VECTOR('',#1117,1.1);
#331=VECTOR('',#1120,1.85);
#332=VECTOR('',#1125,10.);
#333=VECTOR('',#1126,10.);
#334=VECTOR('',#1127,10.);
#335=VECTOR('',#1132,1.1);
#336=VECTOR('',#1135,10.);
#337=VECTOR('',#1138,10.);
#338=VECTOR('',#1141,10.);
#339=VECTOR('',#1142,10.);
#340=VECTOR('',#1145,10.);
#341=VECTOR('',#1148,10.);
#342=VERTEX_POINT('',#1155);
#343=VERTEX_POINT('',#1156);
#344=VERTEX_POINT('',#1158);
#345=VERTEX_POINT('',#1160);
#346=VERTEX_POINT('',#1164);
#347=VERTEX_POINT('',#1166);
#348=VERTEX_POINT('',#1170);
#349=VERTEX_POINT('',#1172);
#350=VERTEX_POINT('',#1179);
#351=VERTEX_POINT('',#1180);
#352=VERTEX_POINT('',#1182);
#353=VERTEX_POINT('',#1184);
#354=VERTEX_POINT('',#1188);
#355=VERTEX_POINT('',#1190);
#356=VERTEX_POINT('',#1194);
#357=VERTEX_POINT('',#1196);
#358=VERTEX_POINT('',#1203);
#359=VERTEX_POINT('',#1205);
#360=VERTEX_POINT('',#1209);
#361=VERTEX_POINT('',#1210);
#362=VERTEX_POINT('',#1212);
#363=VERTEX_POINT('',#1214);
#364=VERTEX_POINT('',#1217);
#365=VERTEX_POINT('',#1219);
#366=VERTEX_POINT('',#1220);
#367=VERTEX_POINT('',#1222);
#368=VERTEX_POINT('',#1224);
#369=VERTEX_POINT('',#1226);
#370=VERTEX_POINT('',#1228);
#371=VERTEX_POINT('',#1230);
#372=VERTEX_POINT('',#1232);
#373=VERTEX_POINT('',#1234);
#374=VERTEX_POINT('',#1236);
#375=VERTEX_POINT('',#1240);
#376=VERTEX_POINT('',#1244);
#377=VERTEX_POINT('',#1248);
#378=VERTEX_POINT('',#1252);
#379=VERTEX_POINT('',#1253);
#380=VERTEX_POINT('',#1255);
#381=VERTEX_POINT('',#1257);
#382=VERTEX_POINT('',#1261);
#383=VERTEX_POINT('',#1263);
#384=VERTEX_POINT('',#1267);
#385=VERTEX_POINT('',#1269);
#386=VERTEX_POINT('',#1273);
#387=VERTEX_POINT('',#1275);
#388=VERTEX_POINT('',#1279);
#389=VERTEX_POINT('',#1281);
#390=VERTEX_POINT('',#1285);
#391=VERTEX_POINT('',#1287);
#392=VERTEX_POINT('',#1291);
#393=VERTEX_POINT('',#1293);
#394=VERTEX_POINT('',#1297);
#395=VERTEX_POINT('',#1299);
#396=VERTEX_POINT('',#1303);
#397=VERTEX_POINT('',#1305);
#398=VERTEX_POINT('',#1312);
#399=VERTEX_POINT('',#1313);
#400=VERTEX_POINT('',#1315);
#401=VERTEX_POINT('',#1317);
#402=VERTEX_POINT('',#1321);
#403=VERTEX_POINT('',#1323);
#404=VERTEX_POINT('',#1327);
#405=VERTEX_POINT('',#1329);
#406=VERTEX_POINT('',#1337);
#407=VERTEX_POINT('',#1338);
#408=VERTEX_POINT('',#1340);
#409=VERTEX_POINT('',#1342);
#410=VERTEX_POINT('',#1349);
#411=VERTEX_POINT('',#1353);
#412=VERTEX_POINT('',#1355);
#413=VERTEX_POINT('',#1359);
#414=VERTEX_POINT('',#1366);
#415=VERTEX_POINT('',#1370);
#416=VERTEX_POINT('',#1372);
#417=VERTEX_POINT('',#1376);
#418=EDGE_CURVE('',#342,#343,#178,.T.);
#419=EDGE_CURVE('',#342,#344,#179,.T.);
#420=EDGE_CURVE('',#345,#344,#180,.T.);
#421=EDGE_CURVE('',#343,#345,#181,.T.);
#422=EDGE_CURVE('',#346,#342,#35,.T.);
#423=EDGE_CURVE('',#346,#347,#182,.T.);
#424=EDGE_CURVE('',#344,#347,#36,.T.);
#425=EDGE_CURVE('',#348,#346,#183,.T.);
#426=EDGE_CURVE('',#348,#349,#184,.T.);
#427=EDGE_CURVE('',#347,#349,#185,.T.);
#428=EDGE_CURVE('',#343,#348,#37,.T.);
#429=EDGE_CURVE('',#349,#345,#38,.T.);
#430=EDGE_CURVE('',#350,#351,#186,.T.);
#431=EDGE_CURVE('',#350,#352,#187,.T.);
#432=EDGE_CURVE('',#353,#352,#188,.T.);
#433=EDGE_CURVE('',#351,#353,#189,.T.);
#434=EDGE_CURVE('',#354,#350,#39,.T.);
#435=EDGE_CURVE('',#354,#355,#190,.T.);
#436=EDGE_CURVE('',#352,#355,#40,.T.);
#437=EDGE_CURVE('',#356,#354,#191,.T.);
#438=EDGE_CURVE('',#356,#357,#192,.T.);
#439=EDGE_CURVE('',#355,#357,#193,.T.);
#440=EDGE_CURVE('',#351,#356,#41,.T.);
#441=EDGE_CURVE('',#357,#353,#42,.T.);
#442=EDGE_CURVE('',#358,#358,#43,.T.);
#443=EDGE_CURVE('',#358,#359,#194,.T.);
#444=EDGE_CURVE('',#359,#359,#44,.T.);
#445=EDGE_CURVE('',#360,#361,#45,.T.);
#446=EDGE_CURVE('',#362,#360,#195,.T.);
#447=EDGE_CURVE('',#362,#363,#196,.T.);
#448=EDGE_CURVE('',#363,#361,#197,.T.);
#449=EDGE_CURVE('',#364,#364,#46,.T.);
#450=EDGE_CURVE('',#365,#366,#47,.T.);
#451=EDGE_CURVE('',#365,#367,#198,.T.);
#452=EDGE_CURVE('',#367,#368,#199,.T.);
#453=EDGE_CURVE('',#368,#369,#200,.T.);
#454=EDGE_CURVE('',#370,#369,#48,.T.);
#455=EDGE_CURVE('',#371,#370,#49,.T.);
#456=EDGE_CURVE('',#371,#372,#201,.T.);
#457=EDGE_CURVE('',#372,#373,#202,.T.);
#458=EDGE_CURVE('',#373,#374,#203,.T.);
#459=EDGE_CURVE('',#366,#374,#50,.T.);
#460=EDGE_CURVE('',#375,#375,#51,.T.);
#461=EDGE_CURVE('',#375,#359,#204,.T.);
#462=EDGE_CURVE('',#364,#376,#205,.T.);
#463=EDGE_CURVE('',#376,#376,#52,.T.);
#464=EDGE_CURVE('',#377,#377,#53,.T.);
#465=EDGE_CURVE('',#377,#376,#206,.T.);
#466=EDGE_CURVE('',#378,#379,#54,.T.);
#467=EDGE_CURVE('',#378,#380,#207,.T.);
#468=EDGE_CURVE('',#381,#380,#55,.T.);
#469=EDGE_CURVE('',#379,#381,#208,.T.);
#470=EDGE_CURVE('',#379,#382,#209,.T.);
#471=EDGE_CURVE('',#383,#381,#210,.T.);
#472=EDGE_CURVE('',#382,#383,#211,.T.);
#473=EDGE_CURVE('',#382,#384,#56,.T.);
#474=EDGE_CURVE('',#385,#383,#57,.T.);
#475=EDGE_CURVE('',#384,#385,#212,.T.);
#476=EDGE_CURVE('',#384,#386,#213,.T.);
#477=EDGE_CURVE('',#387,#385,#214,.T.);
#478=EDGE_CURVE('',#386,#387,#215,.T.);
#479=EDGE_CURVE('',#386,#388,#216,.T.);
#480=EDGE_CURVE('',#389,#387,#217,.T.);
#481=EDGE_CURVE('',#388,#389,#218,.T.);
#482=EDGE_CURVE('',#388,#390,#219,.T.);
#483=EDGE_CURVE('',#391,#389,#220,.T.);
#484=EDGE_CURVE('',#390,#391,#221,.T.);
#485=EDGE_CURVE('',#390,#392,#222,.T.);
#486=EDGE_CURVE('',#393,#391,#223,.T.);
#487=EDGE_CURVE('',#392,#393,#224,.T.);
#488=EDGE_CURVE('',#392,#394,#225,.T.);
#489=EDGE_CURVE('',#395,#393,#226,.T.);
#490=EDGE_CURVE('',#394,#395,#227,.T.);
#491=EDGE_CURVE('',#394,#396,#58,.T.);
#492=EDGE_CURVE('',#397,#395,#59,.T.);
#493=EDGE_CURVE('',#396,#397,#228,.T.);
#494=EDGE_CURVE('',#396,#378,#229,.T.);
#495=EDGE_CURVE('',#380,#397,#230,.T.);
#496=EDGE_CURVE('',#398,#399,#231,.T.);
#497=EDGE_CURVE('',#398,#400,#232,.T.);
#498=EDGE_CURVE('',#401,#400,#233,.T.);
#499=EDGE_CURVE('',#399,#401,#234,.T.);
#500=EDGE_CURVE('',#399,#402,#235,.T.);
#501=EDGE_CURVE('',#403,#401,#236,.T.);
#502=EDGE_CURVE('',#402,#403,#237,.T.);
#503=EDGE_CURVE('',#402,#404,#238,.T.);
#504=EDGE_CURVE('',#405,#403,#239,.T.);
#505=EDGE_CURVE('',#404,#405,#240,.T.);
#506=EDGE_CURVE('',#404,#398,#60,.T.);
#507=EDGE_CURVE('',#400,#405,#61,.T.);
#508=EDGE_CURVE('',#406,#407,#62,.T.);
#509=EDGE_CURVE('',#407,#408,#241,.T.);
#510=EDGE_CURVE('',#408,#409,#242,.T.);
#511=EDGE_CURVE('',#409,#406,#243,.T.);
#512=EDGE_CURVE('',#374,#365,#15,.T.);
#513=EDGE_CURVE('',#366,#410,#244,.T.);
#514=EDGE_CURVE('',#410,#410,#63,.T.);
#515=EDGE_CURVE('',#411,#373,#245,.T.);
#516=EDGE_CURVE('',#412,#411,#246,.T.);
#517=EDGE_CURVE('',#412,#367,#247,.T.);
#518=EDGE_CURVE('',#413,#413,#64,.T.);
#519=EDGE_CURVE('',#413,#410,#248,.T.);
#520=EDGE_CURVE('',#369,#371,#16,.T.);
#521=EDGE_CURVE('',#370,#414,#249,.T.);
#522=EDGE_CURVE('',#414,#414,#65,.T.);
#523=EDGE_CURVE('',#415,#368,#250,.T.);
#524=EDGE_CURVE('',#416,#415,#251,.T.);
#525=EDGE_CURVE('',#416,#372,#252,.T.);
#526=EDGE_CURVE('',#417,#417,#66,.T.);
#527=EDGE_CURVE('',#417,#414,#253,.T.);
#528=EDGE_CURVE('',#415,#412,#254,.T.);
#529=EDGE_CURVE('',#411,#416,#255,.T.);
#530=EDGE_CURVE('',#360,#406,#256,.T.);
#531=EDGE_CURVE('',#362,#409,#257,.T.);
#532=EDGE_CURVE('',#363,#408,#258,.T.);
#533=EDGE_CURVE('',#361,#407,#259,.T.);
#534=ORIENTED_EDGE('',*,*,#418,.F.);
#535=ORIENTED_EDGE('',*,*,#419,.T.);
#536=ORIENTED_EDGE('',*,*,#420,.F.);
#537=ORIENTED_EDGE('',*,*,#421,.F.);
#538=ORIENTED_EDGE('',*,*,#422,.F.);
#539=ORIENTED_EDGE('',*,*,#423,.T.);
#540=ORIENTED_EDGE('',*,*,#424,.F.);
#541=ORIENTED_EDGE('',*,*,#419,.F.);
#542=ORIENTED_EDGE('',*,*,#425,.F.);
#543=ORIENTED_EDGE('',*,*,#426,.T.);
#544=ORIENTED_EDGE('',*,*,#427,.F.);
#545=ORIENTED_EDGE('',*,*,#423,.F.);
#546=ORIENTED_EDGE('',*,*,#428,.F.);
#547=ORIENTED_EDGE('',*,*,#421,.T.);
#548=ORIENTED_EDGE('',*,*,#429,.F.);
#549=ORIENTED_EDGE('',*,*,#426,.F.);
#550=ORIENTED_EDGE('',*,*,#430,.F.);
#551=ORIENTED_EDGE('',*,*,#431,.T.);
#552=ORIENTED_EDGE('',*,*,#432,.F.);
#553=ORIENTED_EDGE('',*,*,#433,.F.);
#554=ORIENTED_EDGE('',*,*,#434,.F.);
#555=ORIENTED_EDGE('',*,*,#435,.T.);
#556=ORIENTED_EDGE('',*,*,#436,.F.);
#557=ORIENTED_EDGE('',*,*,#431,.F.);
#558=ORIENTED_EDGE('',*,*,#437,.F.);
#559=ORIENTED_EDGE('',*,*,#438,.T.);
#560=ORIENTED_EDGE('',*,*,#439,.F.);
#561=ORIENTED_EDGE('',*,*,#435,.F.);
#562=ORIENTED_EDGE('',*,*,#440,.F.);
#563=ORIENTED_EDGE('',*,*,#433,.T.);
#564=ORIENTED_EDGE('',*,*,#441,.F.);
#565=ORIENTED_EDGE('',*,*,#438,.F.);
#566=ORIENTED_EDGE('',*,*,#442,.T.);
#567=ORIENTED_EDGE('',*,*,#443,.T.);
#568=ORIENTED_EDGE('',*,*,#444,.T.);
#569=ORIENTED_EDGE('',*,*,#443,.F.);
#570=ORIENTED_EDGE('',*,*,#445,.F.);
#571=ORIENTED_EDGE('',*,*,#446,.F.);
#572=ORIENTED_EDGE('',*,*,#447,.T.);
#573=ORIENTED_EDGE('',*,*,#448,.T.);
#574=ORIENTED_EDGE('',*,*,#420,.T.);
#575=ORIENTED_EDGE('',*,*,#424,.T.);
#576=ORIENTED_EDGE('',*,*,#427,.T.);
#577=ORIENTED_EDGE('',*,*,#429,.T.);
#578=ORIENTED_EDGE('',*,*,#432,.T.);
#579=ORIENTED_EDGE('',*,*,#436,.T.);
#580=ORIENTED_EDGE('',*,*,#439,.T.);
#581=ORIENTED_EDGE('',*,*,#441,.T.);
#582=ORIENTED_EDGE('',*,*,#449,.F.);
#583=ORIENTED_EDGE('',*,*,#450,.F.);
#584=ORIENTED_EDGE('',*,*,#451,.T.);
#585=ORIENTED_EDGE('',*,*,#452,.T.);
#586=ORIENTED_EDGE('',*,*,#453,.T.);
#587=ORIENTED_EDGE('',*,*,#454,.F.);
#588=ORIENTED_EDGE('',*,*,#455,.F.);
#589=ORIENTED_EDGE('',*,*,#456,.T.);
#590=ORIENTED_EDGE('',*,*,#457,.T.);
#591=ORIENTED_EDGE('',*,*,#458,.T.);
#592=ORIENTED_EDGE('',*,*,#459,.F.);
#593=ORIENTED_EDGE('',*,*,#442,.F.);
#594=ORIENTED_EDGE('',*,*,#460,.F.);
#595=ORIENTED_EDGE('',*,*,#461,.T.);
#596=ORIENTED_EDGE('',*,*,#444,.F.);
#597=ORIENTED_EDGE('',*,*,#461,.F.);
#598=ORIENTED_EDGE('',*,*,#449,.T.);
#599=ORIENTED_EDGE('',*,*,#462,.T.);
#600=ORIENTED_EDGE('',*,*,#463,.T.);
#601=ORIENTED_EDGE('',*,*,#462,.F.);
#602=ORIENTED_EDGE('',*,*,#464,.F.);
#603=ORIENTED_EDGE('',*,*,#465,.T.);
#604=ORIENTED_EDGE('',*,*,#463,.F.);
#605=ORIENTED_EDGE('',*,*,#465,.F.);
#606=ORIENTED_EDGE('',*,*,#466,.F.);
#607=ORIENTED_EDGE('',*,*,#467,.T.);
#608=ORIENTED_EDGE('',*,*,#468,.F.);
#609=ORIENTED_EDGE('',*,*,#469,.F.);
#610=ORIENTED_EDGE('',*,*,#470,.F.);
#611=ORIENTED_EDGE('',*,*,#469,.T.);
#612=ORIENTED_EDGE('',*,*,#471,.F.);
#613=ORIENTED_EDGE('',*,*,#472,.F.);
#614=ORIENTED_EDGE('',*,*,#473,.F.);
#615=ORIENTED_EDGE('',*,*,#472,.T.);
#616=ORIENTED_EDGE('',*,*,#474,.F.);
#617=ORIENTED_EDGE('',*,*,#475,.F.);
#618=ORIENTED_EDGE('',*,*,#476,.F.);
#619=ORIENTED_EDGE('',*,*,#475,.T.);
#620=ORIENTED_EDGE('',*,*,#477,.F.);
#621=ORIENTED_EDGE('',*,*,#478,.F.);
#622=ORIENTED_EDGE('',*,*,#479,.F.);
#623=ORIENTED_EDGE('',*,*,#478,.T.);
#624=ORIENTED_EDGE('',*,*,#480,.F.);
#625=ORIENTED_EDGE('',*,*,#481,.F.);
#626=ORIENTED_EDGE('',*,*,#482,.F.);
#627=ORIENTED_EDGE('',*,*,#481,.T.);
#628=ORIENTED_EDGE('',*,*,#483,.F.);
#629=ORIENTED_EDGE('',*,*,#484,.F.);
#630=ORIENTED_EDGE('',*,*,#485,.F.);
#631=ORIENTED_EDGE('',*,*,#484,.T.);
#632=ORIENTED_EDGE('',*,*,#486,.F.);
#633=ORIENTED_EDGE('',*,*,#487,.F.);
#634=ORIENTED_EDGE('',*,*,#488,.F.);
#635=ORIENTED_EDGE('',*,*,#487,.T.);
#636=ORIENTED_EDGE('',*,*,#489,.F.);
#637=ORIENTED_EDGE('',*,*,#490,.F.);
#638=ORIENTED_EDGE('',*,*,#491,.F.);
#639=ORIENTED_EDGE('',*,*,#490,.T.);
#640=ORIENTED_EDGE('',*,*,#492,.F.);
#641=ORIENTED_EDGE('',*,*,#493,.F.);
#642=ORIENTED_EDGE('',*,*,#494,.F.);
#643=ORIENTED_EDGE('',*,*,#493,.T.);
#644=ORIENTED_EDGE('',*,*,#495,.F.);
#645=ORIENTED_EDGE('',*,*,#467,.F.);
#646=ORIENTED_EDGE('',*,*,#496,.F.);
#647=ORIENTED_EDGE('',*,*,#497,.T.);
#648=ORIENTED_EDGE('',*,*,#498,.F.);
#649=ORIENTED_EDGE('',*,*,#499,.F.);
#650=ORIENTED_EDGE('',*,*,#500,.F.);
#651=ORIENTED_EDGE('',*,*,#499,.T.);
#652=ORIENTED_EDGE('',*,*,#501,.F.);
#653=ORIENTED_EDGE('',*,*,#502,.F.);
#654=ORIENTED_EDGE('',*,*,#503,.F.);
#655=ORIENTED_EDGE('',*,*,#502,.T.);
#656=ORIENTED_EDGE('',*,*,#504,.F.);
#657=ORIENTED_EDGE('',*,*,#505,.F.);
#658=ORIENTED_EDGE('',*,*,#506,.F.);
#659=ORIENTED_EDGE('',*,*,#505,.T.);
#660=ORIENTED_EDGE('',*,*,#507,.F.);
#661=ORIENTED_EDGE('',*,*,#497,.F.);
#662=ORIENTED_EDGE('',*,*,#507,.T.);
#663=ORIENTED_EDGE('',*,*,#504,.T.);
#664=ORIENTED_EDGE('',*,*,#501,.T.);
#665=ORIENTED_EDGE('',*,*,#498,.T.);
#666=ORIENTED_EDGE('',*,*,#464,.T.);
#667=ORIENTED_EDGE('',*,*,#460,.T.);
#668=ORIENTED_EDGE('',*,*,#495,.T.);
#669=ORIENTED_EDGE('',*,*,#492,.T.);
#670=ORIENTED_EDGE('',*,*,#489,.T.);
#671=ORIENTED_EDGE('',*,*,#486,.T.);
#672=ORIENTED_EDGE('',*,*,#483,.T.);
#673=ORIENTED_EDGE('',*,*,#480,.T.);
#674=ORIENTED_EDGE('',*,*,#477,.T.);
#675=ORIENTED_EDGE('',*,*,#474,.T.);
#676=ORIENTED_EDGE('',*,*,#471,.T.);
#677=ORIENTED_EDGE('',*,*,#468,.T.);
#678=ORIENTED_EDGE('',*,*,#508,.T.);
#679=ORIENTED_EDGE('',*,*,#509,.T.);
#680=ORIENTED_EDGE('',*,*,#510,.T.);
#681=ORIENTED_EDGE('',*,*,#511,.T.);
#682=ORIENTED_EDGE('',*,*,#496,.T.);
#683=ORIENTED_EDGE('',*,*,#500,.T.);
#684=ORIENTED_EDGE('',*,*,#503,.T.);
#685=ORIENTED_EDGE('',*,*,#506,.T.);
#686=ORIENTED_EDGE('',*,*,#512,.T.);
#687=ORIENTED_EDGE('',*,*,#450,.T.);
#688=ORIENTED_EDGE('',*,*,#513,.T.);
#689=ORIENTED_EDGE('',*,*,#514,.T.);
#690=ORIENTED_EDGE('',*,*,#513,.F.);
#691=ORIENTED_EDGE('',*,*,#459,.T.);
#692=ORIENTED_EDGE('',*,*,#512,.F.);
#693=ORIENTED_EDGE('',*,*,#458,.F.);
#694=ORIENTED_EDGE('',*,*,#515,.F.);
#695=ORIENTED_EDGE('',*,*,#516,.F.);
#696=ORIENTED_EDGE('',*,*,#517,.T.);
#697=ORIENTED_EDGE('',*,*,#451,.F.);
#698=ORIENTED_EDGE('',*,*,#518,.F.);
#699=ORIENTED_EDGE('',*,*,#519,.T.);
#700=ORIENTED_EDGE('',*,*,#514,.F.);
#701=ORIENTED_EDGE('',*,*,#519,.F.);
#702=ORIENTED_EDGE('',*,*,#520,.T.);
#703=ORIENTED_EDGE('',*,*,#455,.T.);
#704=ORIENTED_EDGE('',*,*,#521,.T.);
#705=ORIENTED_EDGE('',*,*,#522,.T.);
#706=ORIENTED_EDGE('',*,*,#521,.F.);
#707=ORIENTED_EDGE('',*,*,#454,.T.);
#708=ORIENTED_EDGE('',*,*,#520,.F.);
#709=ORIENTED_EDGE('',*,*,#453,.F.);
#710=ORIENTED_EDGE('',*,*,#523,.F.);
#711=ORIENTED_EDGE('',*,*,#524,.F.);
#712=ORIENTED_EDGE('',*,*,#525,.T.);
#713=ORIENTED_EDGE('',*,*,#456,.F.);
#714=ORIENTED_EDGE('',*,*,#526,.F.);
#715=ORIENTED_EDGE('',*,*,#527,.T.);
#716=ORIENTED_EDGE('',*,*,#522,.F.);
#717=ORIENTED_EDGE('',*,*,#527,.F.);
#718=ORIENTED_EDGE('',*,*,#528,.F.);
#719=ORIENTED_EDGE('',*,*,#523,.T.);
#720=ORIENTED_EDGE('',*,*,#452,.F.);
#721=ORIENTED_EDGE('',*,*,#517,.F.);
#722=ORIENTED_EDGE('',*,*,#529,.F.);
#723=ORIENTED_EDGE('',*,*,#515,.T.);
#724=ORIENTED_EDGE('',*,*,#457,.F.);
#725=ORIENTED_EDGE('',*,*,#525,.F.);
#726=ORIENTED_EDGE('',*,*,#446,.T.);
#727=ORIENTED_EDGE('',*,*,#530,.T.);
#728=ORIENTED_EDGE('',*,*,#511,.F.);
#729=ORIENTED_EDGE('',*,*,#531,.F.);
#730=ORIENTED_EDGE('',*,*,#447,.F.);
#731=ORIENTED_EDGE('',*,*,#531,.T.);
#732=ORIENTED_EDGE('',*,*,#510,.F.);
#733=ORIENTED_EDGE('',*,*,#532,.F.);
#734=ORIENTED_EDGE('',*,*,#448,.F.);
#735=ORIENTED_EDGE('',*,*,#532,.T.);
#736=ORIENTED_EDGE('',*,*,#509,.F.);
#737=ORIENTED_EDGE('',*,*,#533,.F.);
#738=ORIENTED_EDGE('',*,*,#445,.T.);
#739=ORIENTED_EDGE('',*,*,#533,.T.);
#740=ORIENTED_EDGE('',*,*,#508,.F.);
#741=ORIENTED_EDGE('',*,*,#530,.F.);
#742=ORIENTED_EDGE('',*,*,#466,.T.);
#743=ORIENTED_EDGE('',*,*,#470,.T.);
#744=ORIENTED_EDGE('',*,*,#473,.T.);
#745=ORIENTED_EDGE('',*,*,#476,.T.);
#746=ORIENTED_EDGE('',*,*,#479,.T.);
#747=ORIENTED_EDGE('',*,*,#482,.T.);
#748=ORIENTED_EDGE('',*,*,#485,.T.);
#749=ORIENTED_EDGE('',*,*,#488,.T.);
#750=ORIENTED_EDGE('',*,*,#491,.T.);
#751=ORIENTED_EDGE('',*,*,#494,.T.);
#752=ORIENTED_EDGE('',*,*,#418,.T.);
#753=ORIENTED_EDGE('',*,*,#428,.T.);
#754=ORIENTED_EDGE('',*,*,#425,.T.);
#755=ORIENTED_EDGE('',*,*,#422,.T.);
#756=ORIENTED_EDGE('',*,*,#430,.T.);
#757=ORIENTED_EDGE('',*,*,#440,.T.);
#758=ORIENTED_EDGE('',*,*,#437,.T.);
#759=ORIENTED_EDGE('',*,*,#434,.T.);
#760=ORIENTED_EDGE('',*,*,#528,.T.);
#761=ORIENTED_EDGE('',*,*,#516,.T.);
#762=ORIENTED_EDGE('',*,*,#529,.T.);
#763=ORIENTED_EDGE('',*,*,#524,.T.);
#764=ORIENTED_EDGE('',*,*,#526,.T.);
#765=ORIENTED_EDGE('',*,*,#518,.T.);
#766=PLANE('',#847);
#767=PLANE('',#851);
#768=PLANE('',#855);
#769=PLANE('',#859);
#770=PLANE('',#866);
#771=PLANE('',#882);
#772=PLANE('',#886);
#773=PLANE('',#887);
#774=PLANE('',#888);
#775=PLANE('',#889);
#776=PLANE('',#890);
#777=PLANE('',#894);
#778=PLANE('',#895);
#779=PLANE('',#896);
#780=PLANE('',#897);
#781=PLANE('',#901);
#782=PLANE('',#902);
#783=PLANE('',#906);
#784=PLANE('',#911);
#785=PLANE('',#914);
#786=PLANE('',#915);
#787=PLANE('',#916);
#788=PLANE('',#917);
#789=PLANE('',#918);
#790=PLANE('',#920);
#791=ADVANCED_FACE('',(#80),#766,.F.);
#792=ADVANCED_FACE('',(#81),#67,.F.);
#793=ADVANCED_FACE('',(#82),#767,.F.);
#794=ADVANCED_FACE('',(#83),#68,.F.);
#795=ADVANCED_FACE('',(#84),#768,.F.);
#796=ADVANCED_FACE('',(#85),#69,.F.);
#797=ADVANCED_FACE('',(#86),#769,.F.);
#798=ADVANCED_FACE('',(#87),#70,.F.);
#799=ADVANCED_FACE('',(#88),#31,.F.);
#800=ADVANCED_FACE('',(#89,#17,#18,#19,#20,#21),#770,.F.);
#801=ADVANCED_FACE('',(#90),#71,.F.);
#802=ADVANCED_FACE('',(#91),#32,.F.);
#803=ADVANCED_FACE('',(#92),#72,.F.);
#804=ADVANCED_FACE('',(#93),#73,.F.);
#805=ADVANCED_FACE('',(#94),#771,.T.);
#806=ADVANCED_FACE('',(#95),#74,.T.);
#807=ADVANCED_FACE('',(#96),#772,.T.);
#808=ADVANCED_FACE('',(#97),#773,.T.);
#809=ADVANCED_FACE('',(#98),#774,.T.);
#810=ADVANCED_FACE('',(#99),#775,.T.);
#811=ADVANCED_FACE('',(#100),#776,.T.);
#812=ADVANCED_FACE('',(#101),#75,.T.);
#813=ADVANCED_FACE('',(#102),#777,.T.);
#814=ADVANCED_FACE('',(#103),#778,.T.);
#815=ADVANCED_FACE('',(#104),#779,.T.);
#816=ADVANCED_FACE('',(#105),#780,.T.);
#817=ADVANCED_FACE('',(#106),#76,.T.);
#818=ADVANCED_FACE('',(#107,#22,#23,#24),#781,.T.);
#819=ADVANCED_FACE('',(#108,#25),#782,.T.);
#820=ADVANCED_FACE('',(#109),#33,.F.);
#821=ADVANCED_FACE('',(#110),#783,.F.);
#822=ADVANCED_FACE('',(#111),#77,.F.);
#823=ADVANCED_FACE('',(#112),#34,.F.);
#824=ADVANCED_FACE('',(#113),#784,.F.);
#825=ADVANCED_FACE('',(#114),#78,.F.);
#826=ADVANCED_FACE('',(#115),#785,.F.);
#827=ADVANCED_FACE('',(#116),#786,.F.);
#828=ADVANCED_FACE('',(#117),#787,.T.);
#829=ADVANCED_FACE('',(#118),#788,.T.);
#830=ADVANCED_FACE('',(#119),#789,.T.);
#831=ADVANCED_FACE('',(#120),#79,.T.);
#832=ADVANCED_FACE('',(#121,#26,#27,#28,#29,#30),#790,.T.);
#833=CLOSED_SHELL('',(#791,#792,#793,#794,#795,#796,#797,#798,#799,#800,
#801,#802,#803,#804,#805,#806,#807,#808,#809,#810,#811,#812,#813,#814,#815,
#816,#817,#818,#819,#820,#821,#822,#823,#824,#825,#826,#827,#828,#829,#830,
#831,#832));
#834=DERIVED_UNIT_ELEMENT(#836,1.);
#835=DERIVED_UNIT_ELEMENT(#1397,-3.);
#836=(
MASS_UNIT()
NAMED_UNIT(*)
SI_UNIT(.KILO.,.GRAM.)
);
#837=DERIVED_UNIT((#834,#835));
#838=MEASURE_REPRESENTATION_ITEM('density measure',
POSITIVE_RATIO_MEASURE(7850.),#837);
#839=PROPERTY_DEFINITION_REPRESENTATION(#844,#841);
#840=PROPERTY_DEFINITION_REPRESENTATION(#845,#842);
#841=REPRESENTATION('material name',(#843),#1394);
#842=REPRESENTATION('density',(#838),#1394);
#843=DESCRIPTIVE_REPRESENTATION_ITEM('\X2\AC15CCA0\X0\','\X2\AC15CCA0\X0\');
#844=PROPERTY_DEFINITION('material property','material name',#1404);
#845=PROPERTY_DEFINITION('material property','density of part',#1404);
#846=AXIS2_PLACEMENT_3D('',#1153,#921,#922);
#847=AXIS2_PLACEMENT_3D('',#1154,#923,#924);
#848=AXIS2_PLACEMENT_3D('',#1163,#929,#930);
#849=AXIS2_PLACEMENT_3D('',#1165,#931,#932);
#850=AXIS2_PLACEMENT_3D('',#1168,#934,#935);
#851=AXIS2_PLACEMENT_3D('',#1169,#936,#937);
#852=AXIS2_PLACEMENT_3D('',#1175,#941,#942);
#853=AXIS2_PLACEMENT_3D('',#1176,#943,#944);
#854=AXIS2_PLACEMENT_3D('',#1177,#945,#946);
#855=AXIS2_PLACEMENT_3D('',#1178,#947,#948);
#856=AXIS2_PLACEMENT_3D('',#1187,#953,#954);
#857=AXIS2_PLACEMENT_3D('',#1189,#955,#956);
#858=AXIS2_PLACEMENT_3D('',#1192,#958,#959);
#859=AXIS2_PLACEMENT_3D('',#1193,#960,#961);
#860=AXIS2_PLACEMENT_3D('',#1199,#965,#966);
#861=AXIS2_PLACEMENT_3D('',#1200,#967,#968);
#862=AXIS2_PLACEMENT_3D('',#1201,#969,#970);
#863=AXIS2_PLACEMENT_3D('',#1202,#971,#972);
#864=AXIS2_PLACEMENT_3D('',#1204,#973,#974);
#865=AXIS2_PLACEMENT_3D('',#1207,#976,#977);
#866=AXIS2_PLACEMENT_3D('',#1208,#978,#979);
#867=AXIS2_PLACEMENT_3D('',#1211,#980,#981);
#868=AXIS2_PLACEMENT_3D('',#1218,#985,#986);
#869=AXIS2_PLACEMENT_3D('',#1221,#987,#988);
#870=AXIS2_PLACEMENT_3D('',#1229,#992,#993);
#871=AXIS2_PLACEMENT_3D('',#1231,#994,#995);
#872=AXIS2_PLACEMENT_3D('',#1238,#999,#1000);
#873=AXIS2_PLACEMENT_3D('',#1239,#1001,#1002);
#874=AXIS2_PLACEMENT_3D('',#1241,#1003,#1004);
#875=AXIS2_PLACEMENT_3D('',#1243,#1006,#1007);
#876=AXIS2_PLACEMENT_3D('',#1246,#1009,#1010);
#877=AXIS2_PLACEMENT_3D('',#1247,#1011,#1012);
#878=AXIS2_PLACEMENT_3D('',#1249,#1013,#1014);
#879=AXIS2_PLACEMENT_3D('',#1251,#1016,#1017);
#880=AXIS2_PLACEMENT_3D('',#1254,#1018,#1019);
#881=AXIS2_PLACEMENT_3D('',#1258,#1021,#1022);
#882=AXIS2_PLACEMENT_3D('',#1260,#1024,#1025);
#883=AXIS2_PLACEMENT_3D('',#1266,#1029,#1030);
#884=AXIS2_PLACEMENT_3D('',#1268,#1031,#1032);
#885=AXIS2_PLACEMENT_3D('',#1270,#1033,#1034);
#886=AXIS2_PLACEMENT_3D('',#1272,#1036,#1037);
#887=AXIS2_PLACEMENT_3D('',#1278,#1041,#1042);
#888=AXIS2_PLACEMENT_3D('',#1284,#1046,#1047);
#889=AXIS2_PLACEMENT_3D('',#1290,#1051,#1052);
#890=AXIS2_PLACEMENT_3D('',#1296,#1056,#1057);
#891=AXIS2_PLACEMENT_3D('',#1302,#1061,#1062);
#892=AXIS2_PLACEMENT_3D('',#1304,#1063,#1064);
#893=AXIS2_PLACEMENT_3D('',#1306,#1065,#1066);
#894=AXIS2_PLACEMENT_3D('',#1308,#1068,#1069);
#895=AXIS2_PLACEMENT_3D('',#1311,#1072,#1073);
#896=AXIS2_PLACEMENT_3D('',#1320,#1078,#1079);
#897=AXIS2_PLACEMENT_3D('',#1326,#1083,#1084);
#898=AXIS2_PLACEMENT_3D('',#1332,#1088,#1089);
#899=AXIS2_PLACEMENT_3D('',#1333,#1090,#1091);
#900=AXIS2_PLACEMENT_3D('',#1334,#1092,#1093);
#901=AXIS2_PLACEMENT_3D('',#1335,#1094,#1095);
#902=AXIS2_PLACEMENT_3D('',#1336,#1096,#1097);
#903=AXIS2_PLACEMENT_3D('',#1339,#1098,#1099);
#904=AXIS2_PLACEMENT_3D('',#1345,#1103,#1104);
#905=AXIS2_PLACEMENT_3D('',#1351,#1106,#1107);
#906=AXIS2_PLACEMENT_3D('',#1352,#1108,#1109);
#907=AXIS2_PLACEMENT_3D('',#1358,#1113,#1114);
#908=AXIS2_PLACEMENT_3D('',#1360,#1115,#1116);
#909=AXIS2_PLACEMENT_3D('',#1362,#1118,#1119);
#910=AXIS2_PLACEMENT_3D('',#1368,#1121,#1122);
#911=AXIS2_PLACEMENT_3D('',#1369,#1123,#1124);
#912=AXIS2_PLACEMENT_3D('',#1375,#1128,#1129);
#913=AXIS2_PLACEMENT_3D('',#1377,#1130,#1131);
#914=AXIS2_PLACEMENT_3D('',#1379,#1133,#1134);
#915=AXIS2_PLACEMENT_3D('',#1381,#1136,#1137);
#916=AXIS2_PLACEMENT_3D('',#1383,#1139,#1140);
#917=AXIS2_PLACEMENT_3D('',#1386,#1143,#1144);
#918=AXIS2_PLACEMENT_3D('',#1388,#1146,#1147);
#919=AXIS2_PLACEMENT_3D('',#1390,#1149,#1150);
#920=AXIS2_PLACEMENT_3D('',#1391,#1151,#1152);
#921=DIRECTION('axis',(0.,0.,1.));
#922=DIRECTION('refdir',(1.,0.,0.));
#923=DIRECTION('center_axis',(1.,0.,0.));
#924=DIRECTION('ref_axis',(0.,-1.,0.));
#925=DIRECTION('',(0.,-1.,0.));
#926=DIRECTION('',(0.,0.,-1.));
#927=DIRECTION('',(0.,1.,0.));
#928=DIRECTION('',(0.,0.,-1.));
#929=DIRECTION('center_axis',(0.,0.,-1.));
#930=DIRECTION('ref_axis',(1.,0.,0.));
#931=DIRECTION('center_axis',(0.,0.,-1.));
#932=DIRECTION('ref_axis',(1.,0.,0.));
#933=DIRECTION('',(0.,0.,-1.));
#934=DIRECTION('center_axis',(0.,0.,1.));
#935=DIRECTION('ref_axis',(1.,0.,0.));
#936=DIRECTION('center_axis',(-1.,0.,0.));
#937=DIRECTION('ref_axis',(0.,1.,0.));
#938=DIRECTION('',(0.,1.,0.));
#939=DIRECTION('',(0.,0.,-1.));
#940=DIRECTION('',(0.,-1.,0.));
#941=DIRECTION('center_axis',(0.,0.,-1.));
#942=DIRECTION('ref_axis',(-1.,-6.12323399553543E-17,0.));
#943=DIRECTION('center_axis',(0.,0.,-1.));
#944=DIRECTION('ref_axis',(-1.,-6.12323399553543E-17,0.));
#945=DIRECTION('center_axis',(0.,0.,1.));
#946=DIRECTION('ref_axis',(-1.,-6.12323399553543E-17,0.));
#947=DIRECTION('center_axis',(1.,0.,0.));
#948=DIRECTION('ref_axis',(0.,-1.,0.));
#949=DIRECTION('',(0.,-1.,0.));
#950=DIRECTION('',(0.,0.,-1.));
#951=DIRECTION('',(0.,1.,0.));
#952=DIRECTION('',(0.,0.,-1.));
#953=DIRECTION('center_axis',(0.,0.,-1.));
#954=DIRECTION('ref_axis',(1.,0.,0.));
#955=DIRECTION('center_axis',(0.,0.,-1.));
#956=DIRECTION('ref_axis',(1.,0.,0.));
#957=DIRECTION('',(0.,0.,-1.));
#958=DIRECTION('center_axis',(0.,0.,1.));
#959=DIRECTION('ref_axis',(1.,0.,0.));
#960=DIRECTION('center_axis',(-1.,-8.88178419700125E-16,0.));
#961=DIRECTION('ref_axis',(-8.88178419700125E-16,1.,0.));
#962=DIRECTION('',(-8.88178419700125E-16,1.,0.));
#963=DIRECTION('',(0.,0.,-1.));
#964=DIRECTION('',(8.88178419700125E-16,-1.,0.));
#965=DIRECTION('center_axis',(0.,0.,-1.));
#966=DIRECTION('ref_axis',(-1.,-7.51303136454747E-16,0.));
#967=DIRECTION('center_axis',(0.,0.,-1.));
#968=DIRECTION('ref_axis',(-1.,-7.51303136454747E-16,0.));
#969=DIRECTION('center_axis',(0.,0.,1.));
#970=DIRECTION('ref_axis',(-1.,-7.51303136454747E-16,0.));
#971=DIRECTION('center_axis',(0.,0.,-1.));
#972=DIRECTION('ref_axis',(-1.,0.,0.));
#973=DIRECTION('center_axis',(0.,0.,-1.));
#974=DIRECTION('ref_axis',(-1.,0.,0.));
#975=DIRECTION('',(-0.707106781186547,8.65956056235493E-17,0.707106781186548));
#976=DIRECTION('center_axis',(0.,0.,1.));
#977=DIRECTION('ref_axis',(-1.,0.,0.));
#978=DIRECTION('center_axis',(0.,0.,1.));
#979=DIRECTION('ref_axis',(1.,0.,0.));
#980=DIRECTION('center_axis',(0.,0.,1.));
#981=DIRECTION('ref_axis',(-1.,0.,0.));
#982=DIRECTION('',(0.,-1.,0.));
#983=DIRECTION('',(1.,0.,0.));
#984=DIRECTION('',(0.,-1.,0.));
#985=DIRECTION('center_axis',(0.,0.,-1.));
#986=DIRECTION('ref_axis',(-1.,0.,0.));
#987=DIRECTION('center_axis',(0.,0.,-1.));
#988=DIRECTION('ref_axis',(-1.,0.,0.));
#989=DIRECTION('',(1.,0.,0.));
#990=DIRECTION('',(0.,1.,0.));
#991=DIRECTION('',(-1.,0.,0.));
#992=DIRECTION('center_axis',(0.,0.,-1.));
#993=DIRECTION('ref_axis',(-1.,0.,0.));
#994=DIRECTION('center_axis',(0.,0.,-1.));
#995=DIRECTION('ref_axis',(-1.,0.,0.));
#996=DIRECTION('',(-1.,0.,0.));
#997=DIRECTION('',(0.,-1.,0.));
#998=DIRECTION('',(1.,0.,0.));
#999=DIRECTION('center_axis',(0.,0.,-1.));
#1000=DIRECTION('ref_axis',(-1.,0.,0.));
#1001=DIRECTION('center_axis',(0.,0.,-1.));
#1002=DIRECTION('ref_axis',(-1.,0.,0.));
#1003=DIRECTION('center_axis',(0.,0.,-1.));
#1004=DIRECTION('ref_axis',(-1.,0.,0.));
#1005=DIRECTION('',(0.,0.,-1.));
#1006=DIRECTION('center_axis',(0.,0.,-1.));
#1007=DIRECTION('ref_axis',(-1.,0.,0.));
#1008=DIRECTION('',(-0.707106781186547,8.65956056235493E-17,0.707106781186548));
#1009=DIRECTION('center_axis',(0.,0.,1.));
#1010=DIRECTION('ref_axis',(-1.,0.,0.));
#1011=DIRECTION('center_axis',(0.,0.,-1.));
#1012=DIRECTION('ref_axis',(-1.,0.,0.));
#1013=DIRECTION('center_axis',(0.,0.,-1.));
#1014=DIRECTION('ref_axis',(-1.,0.,0.));
#1015=DIRECTION('',(0.,0.,-1.));
#1016=DIRECTION('center_axis',(0.,0.,1.));
#1017=DIRECTION('ref_axis',(-1.,-6.93889390390723E-17,0.));
#1018=DIRECTION('center_axis',(0.,0.,1.));
#1019=DIRECTION('ref_axis',(-1.,-6.93889390390723E-17,0.));
#1020=DIRECTION('',(0.,0.,1.));
#1021=DIRECTION('center_axis',(0.,0.,-1.));
#1022=DIRECTION('ref_axis',(-1.,-6.93889390390723E-17,0.));
#1023=DIRECTION('',(0.,0.,1.));
#1024=DIRECTION('center_axis',(-4.62592926927744E-17,-1.,0.));
#1025=DIRECTION('ref_axis',(1.,-4.62592926927744E-17,0.));
#1026=DIRECTION('',(-1.,4.62592926927744E-17,0.));
#1027=DIRECTION('',(1.,-4.62592926927744E-17,0.));
#1028=DIRECTION('',(0.,0.,1.));
#1029=DIRECTION('center_axis',(0.,0.,1.));
#1030=DIRECTION('ref_axis',(-2.24185638053161E-6,0.999999999997487,0.));
#1031=DIRECTION('center_axis',(0.,0.,-1.));
#1032=DIRECTION('ref_axis',(-2.24185638053161E-6,0.999999999997487,0.));
#1033=DIRECTION('center_axis',(0.,0.,1.));
#1034=DIRECTION('ref_axis',(-2.24185638053161E-6,0.999999999997487,0.));
#1035=DIRECTION('',(0.,0.,1.));
#1036=DIRECTION('center_axis',(7.40148683083438E-16,1.,0.));
#1037=DIRECTION('ref_axis',(-1.,7.40148683083438E-16,0.));
#1038=DIRECTION('',(1.,-7.40148683083438E-16,0.));
#1039=DIRECTION('',(-1.,7.40148683083438E-16,0.));
#1040=DIRECTION('',(0.,0.,1.));
#1041=DIRECTION('center_axis',(-1.,2.01858731750028E-16,0.));
#1042=DIRECTION('ref_axis',(-2.01858731750028E-16,-1.,0.));
#1043=DIRECTION('',(2.01858731750028E-16,1.,0.));
#1044=DIRECTION('',(-2.01858731750028E-16,-1.,0.));
#1045=DIRECTION('',(0.,0.,1.));
#1046=DIRECTION('center_axis',(2.46716227694479E-16,-1.,0.));
#1047=DIRECTION('ref_axis',(1.,2.46716227694479E-16,0.));
#1048=DIRECTION('',(-1.,-2.46716227694479E-16,0.));
#1049=DIRECTION('',(1.,2.46716227694479E-16,0.));
#1050=DIRECTION('',(0.,0.,1.));
#1051=DIRECTION('center_axis',(1.,-1.00929365875014E-16,0.));
#1052=DIRECTION('ref_axis',(1.00929365875014E-16,1.,0.));
#1053=DIRECTION('',(-1.00929365875014E-16,-1.,0.));
#1054=DIRECTION('',(1.00929365875014E-16,1.,0.));
#1055=DIRECTION('',(0.,0.,1.));
#1056=DIRECTION('center_axis',(7.40148683083438E-16,1.,0.));
#1057=DIRECTION('ref_axis',(-1.,7.40148683083438E-16,0.));
#1058=DIRECTION('',(1.,-7.40148683083438E-16,0.));
#1059=DIRECTION('',(-1.,7.40148683083438E-16,0.));
#1060=DIRECTION('',(0.,0.,1.));
#1061=DIRECTION('center_axis',(0.,0.,1.));
#1062=DIRECTION('ref_axis',(0.,-1.,0.));
#1063=DIRECTION('center_axis',(0.,0.,-1.));
#1064=DIRECTION('ref_axis',(0.,-1.,0.));
#1065=DIRECTION('center_axis',(0.,0.,1.));
#1066=DIRECTION('ref_axis',(0.,-1.,0.));
#1067=DIRECTION('',(0.,0.,1.));
#1068=DIRECTION('center_axis',(9.25185853854296E-17,-1.,0.));
#1069=DIRECTION('ref_axis',(1.,9.25185853854296E-17,0.));
#1070=DIRECTION('',(-1.,-9.25185853854296E-17,0.));
#1071=DIRECTION('',(1.,9.25185853854296E-17,0.));
#1072=DIRECTION('center_axis',(-1.,0.,0.));
#1073=DIRECTION('ref_axis',(0.,-1.,0.));
#1074=DIRECTION('',(0.,1.,0.));
#1075=DIRECTION('',(0.,0.,1.));
#1076=DIRECTION('',(0.,-1.,0.));
#1077=DIRECTION('',(0.,0.,1.));
#1078=DIRECTION('center_axis',(2.3373116307898E-16,1.,0.));
#1079=DIRECTION('ref_axis',(-1.,2.3373116307898E-16,0.));
#1080=DIRECTION('',(1.,-2.3373116307898E-16,0.));
#1081=DIRECTION('',(-1.,2.3373116307898E-16,0.));
#1082=DIRECTION('',(0.,0.,1.));
#1083=DIRECTION('center_axis',(1.,7.65671051465625E-17,0.));
#1084=DIRECTION('ref_axis',(-7.65671051465625E-17,1.,0.));
#1085=DIRECTION('',(7.65671051465625E-17,-1.,0.));
#1086=DIRECTION('',(-7.65671051465625E-17,1.,0.));
#1087=DIRECTION('',(0.,0.,1.));
#1088=DIRECTION('center_axis',(0.,0.,1.));
#1089=DIRECTION('ref_axis',(-1.,0.,0.));
#1090=DIRECTION('center_axis',(0.,0.,-1.));
#1091=DIRECTION('ref_axis',(-1.,0.,0.));
#1092=DIRECTION('center_axis',(0.,0.,1.));
#1093=DIRECTION('ref_axis',(-1.,0.,0.));
#1094=DIRECTION('center_axis',(0.,0.,1.));
#1095=DIRECTION('ref_axis',(-1.,0.,0.));
#1096=DIRECTION('center_axis',(0.,0.,1.));
#1097=DIRECTION('ref_axis',(1.,0.,0.));
#1098=DIRECTION('center_axis',(0.,0.,1.));
#1099=DIRECTION('ref_axis',(-1.,0.,0.));
#1100=DIRECTION('',(0.,1.,0.));
#1101=DIRECTION('',(-1.,0.,0.));
#1102=DIRECTION('',(0.,-1.,0.));
#1103=DIRECTION('center_axis',(0.,0.,-1.));
#1104=DIRECTION('ref_axis',(-1.,0.,0.));
#1105=DIRECTION('',(-0.707106781186547,8.65956056235493E-17,0.707106781186548));
#1106=DIRECTION('center_axis',(0.,0.,1.));
#1107=DIRECTION('ref_axis',(-1.,0.,0.));
#1108=DIRECTION('center_axis',(0.,-1.,0.));
#1109=DIRECTION('ref_axis',(-1.,0.,0.));
#1110=DIRECTION('',(0.,0.,-1.));
#1111=DIRECTION('',(-1.,0.,0.));
#1112=DIRECTION('',(0.,0.,-1.));
#1113=DIRECTION('center_axis',(0.,0.,-1.));
#1114=DIRECTION('ref_axis',(-1.,0.,0.));
#1115=DIRECTION('center_axis',(0.,0.,-1.));
#1116=DIRECTION('ref_axis',(-1.,0.,0.));
#1117=DIRECTION('',(0.,0.,-1.));
#1118=DIRECTION('center_axis',(0.,0.,-1.));
#1119=DIRECTION('ref_axis',(-1.,0.,0.));
#1120=DIRECTION('',(-0.707106781186547,8.65956056235493E-17,0.707106781186548));
#1121=DIRECTION('center_axis',(0.,0.,1.));
#1122=DIRECTION('ref_axis',(-1.,0.,0.));
#1123=DIRECTION('center_axis',(0.,1.,0.));
#1124=DIRECTION('ref_axis',(1.,0.,0.));
#1125=DIRECTION('',(0.,0.,-1.));
#1126=DIRECTION('',(1.,0.,0.));
#1127=DIRECTION('',(0.,0.,-1.));
#1128=DIRECTION('center_axis',(0.,0.,-1.));
#1129=DIRECTION('ref_axis',(-1.,0.,0.));
#1130=DIRECTION('center_axis',(0.,0.,-1.));
#1131=DIRECTION('ref_axis',(-1.,0.,0.));
#1132=DIRECTION('',(0.,0.,-1.));
#1133=DIRECTION('center_axis',(1.,0.,0.));
#1134=DIRECTION('ref_axis',(0.,-1.,0.));
#1135=DIRECTION('',(0.,-1.,0.));
#1136=DIRECTION('center_axis',(-1.,0.,0.));
#1137=DIRECTION('ref_axis',(0.,1.,0.));
#1138=DIRECTION('',(0.,1.,0.));
#1139=DIRECTION('center_axis',(-1.,0.,0.));
#1140=DIRECTION('ref_axis',(0.,-1.,0.));
#1141=DIRECTION('',(0.,0.,1.));
#1142=DIRECTION('',(0.,0.,1.));
#1143=DIRECTION('center_axis',(0.,1.,0.));
#1144=DIRECTION('ref_axis',(-1.,0.,0.));
#1145=DIRECTION('',(0.,0.,1.));
#1146=DIRECTION('center_axis',(1.,0.,0.));
#1147=DIRECTION('ref_axis',(0.,1.,0.));
#1148=DIRECTION('',(0.,0.,1.));
#1149=DIRECTION('center_axis',(0.,0.,1.));
#1150=DIRECTION('ref_axis',(-1.,0.,0.));
#1151=DIRECTION('center_axis',(0.,0.,1.));
#1152=DIRECTION('ref_axis',(1.,0.,0.));
#1153=CARTESIAN_POINT('',(0.,0.,0.));
#1154=CARTESIAN_POINT('Origin',(10.5,10.,2.));
#1155=CARTESIAN_POINT('',(10.5,10.,2.));
#1156=CARTESIAN_POINT('',(10.5,-1.06210640619653E-15,2.));
#1157=CARTESIAN_POINT('',(10.5,7.5,2.));
#1158=CARTESIAN_POINT('',(10.5,10.,0.));
#1159=CARTESIAN_POINT('',(10.5,10.,2.));
#1160=CARTESIAN_POINT('',(10.5,-1.06210640619653E-15,0.));
#1161=CARTESIAN_POINT('',(10.5,7.5,0.));
#1162=CARTESIAN_POINT('',(10.5,-1.06210640619653E-15,2.));
#1163=CARTESIAN_POINT('Origin',(9.,10.,2.));
#1164=CARTESIAN_POINT('',(7.5,10.,2.));
#1165=CARTESIAN_POINT('Origin',(9.,10.,2.));
#1166=CARTESIAN_POINT('',(7.5,10.,0.));
#1167=CARTESIAN_POINT('',(7.5,10.,2.));
#1168=CARTESIAN_POINT('Origin',(9.,10.,0.));
#1169=CARTESIAN_POINT('Origin',(7.5,-1.19701432832417E-15,2.));
#1170=CARTESIAN_POINT('',(7.5,-1.19701432832417E-15,2.));
#1171=CARTESIAN_POINT('',(7.5,2.5,2.));
#1172=CARTESIAN_POINT('',(7.5,-1.19701432832417E-15,0.));
#1173=CARTESIAN_POINT('',(7.5,-1.19701432832417E-15,2.));
#1174=CARTESIAN_POINT('',(7.5,2.5,0.));
#1175=CARTESIAN_POINT('Origin',(9.,-1.10516581839113E-15,2.));
#1176=CARTESIAN_POINT('Origin',(9.,-1.10516581839113E-15,2.));
#1177=CARTESIAN_POINT('Origin',(9.,-1.10516581839113E-15,0.));
#1178=CARTESIAN_POINT('Origin',(-7.5,10.,2.));
#1179=CARTESIAN_POINT('',(-7.5,10.,2.));
#1180=CARTESIAN_POINT('',(-7.5,9.4325768481002E-16,2.));
#1181=CARTESIAN_POINT('',(-7.5,7.5,2.));
#1182=CARTESIAN_POINT('',(-7.5,10.,0.));
#1183=CARTESIAN_POINT('',(-7.5,10.,2.));
#1184=CARTESIAN_POINT('',(-7.5,9.4325768481002E-16,0.));
#1185=CARTESIAN_POINT('',(-7.5,7.5,0.));
#1186=CARTESIAN_POINT('',(-7.5,9.4325768481002E-16,2.));
#1187=CARTESIAN_POINT('Origin',(-9.,10.,2.));
#1188=CARTESIAN_POINT('',(-10.5,10.,2.));
#1189=CARTESIAN_POINT('Origin',(-9.,10.,2.));
#1190=CARTESIAN_POINT('',(-10.5,10.,0.));
#1191=CARTESIAN_POINT('',(-10.5,10.,2.));
#1192=CARTESIAN_POINT('Origin',(-9.,10.,0.));
#1193=CARTESIAN_POINT('Origin',(-10.5,-1.12695470468212E-15,2.));
#1194=CARTESIAN_POINT('',(-10.5,-1.12695470468212E-15,2.));
#1195=CARTESIAN_POINT('',(-10.5,2.5,2.));
#1196=CARTESIAN_POINT('',(-10.5,-1.12695470468212E-15,0.));
#1197=CARTESIAN_POINT('',(-10.5,-1.12695470468212E-15,2.));
#1198=CARTESIAN_POINT('',(-10.5,2.5,0.));
#1199=CARTESIAN_POINT('Origin',(-9.,0.,2.));
#1200=CARTESIAN_POINT('Origin',(-9.,0.,2.));
#1201=CARTESIAN_POINT('Origin',(-9.,0.,0.));
#1202=CARTESIAN_POINT('Origin',(-15.,3.,1.));
#1203=CARTESIAN_POINT('',(-11.5,3.,0.));
#1204=CARTESIAN_POINT('Origin',(-15.,3.,0.));
#1205=CARTESIAN_POINT('',(-13.5,3.,2.));
#1206=CARTESIAN_POINT('',(-12.5,3.,1.));
#1207=CARTESIAN_POINT('Origin',(-15.,3.,2.));
#1208=CARTESIAN_POINT('Origin',(0.,5.,0.));
#1209=CARTESIAN_POINT('',(-20.,0.,0.));
#1210=CARTESIAN_POINT('',(20.,-2.44929359829471E-15,0.));
#1211=CARTESIAN_POINT('Origin',(0.,0.,0.));
#1212=CARTESIAN_POINT('',(-20.,30.,0.));
#1213=CARTESIAN_POINT('',(-20.,30.,0.));
#1214=CARTESIAN_POINT('',(20.,30.,0.));
#1215=CARTESIAN_POINT('',(-20.,30.,0.));
#1216=CARTESIAN_POINT('',(20.,30.,0.));
#1217=CARTESIAN_POINT('',(18.5000067255691,3.00000000000169,0.));
#1218=CARTESIAN_POINT('Origin',(15.0000067255691,3.00000000000169,0.));
#1219=CARTESIAN_POINT('',(1.00000000000001,-6.35,0.));
#1220=CARTESIAN_POINT('',(2.6,-8.75,-4.16333634234434E-16));
#1221=CARTESIAN_POINT('Origin',(0.,-8.75,0.));
#1222=CARTESIAN_POINT('',(6.1,-6.35,0.));
#1223=CARTESIAN_POINT('',(3.05,-6.35,0.));
#1224=CARTESIAN_POINT('',(6.1,16.65,0.));
#1225=CARTESIAN_POINT('',(6.1,10.825,0.));
#1226=CARTESIAN_POINT('',(1.,16.65,0.));
#1227=CARTESIAN_POINT('',(-3.05,16.65,0.));
#1228=CARTESIAN_POINT('',(2.6,19.05,-9.71445146547012E-16));
#1229=CARTESIAN_POINT('Origin',(0.,19.05,0.));
#1230=CARTESIAN_POINT('',(-1.,16.65,0.));
#1231=CARTESIAN_POINT('Origin',(0.,19.05,0.));
#1232=CARTESIAN_POINT('',(-6.1,16.65,0.));
#1233=CARTESIAN_POINT('',(-3.05,16.65,0.));
#1234=CARTESIAN_POINT('',(-6.1,-6.35,0.));
#1235=CARTESIAN_POINT('',(-6.1,-0.675000000000002,0.));
#1236=CARTESIAN_POINT('',(-1.00000000000001,-6.35,0.));
#1237=CARTESIAN_POINT('',(3.05,-6.35,0.));
#1238=CARTESIAN_POINT('Origin',(0.,-8.75,0.));
#1239=CARTESIAN_POINT('Origin',(-15.,3.,4.));
#1240=CARTESIAN_POINT('',(-13.5,3.,4.));
#1241=CARTESIAN_POINT('Origin',(-15.,3.,4.));
#1242=CARTESIAN_POINT('',(-13.5,3.,4.));
#1243=CARTESIAN_POINT('Origin',(15.0000067255691,3.00000000000169,1.));
#1244=CARTESIAN_POINT('',(16.5000067255691,3.00000000000169,2.));
#1245=CARTESIAN_POINT('',(17.5000067255691,3.00000000000169,1.));
#1246=CARTESIAN_POINT('Origin',(15.0000067255691,3.00000000000169,2.));
#1247=CARTESIAN_POINT('Origin',(15.0000067255691,3.00000000000169,4.));
#1248=CARTESIAN_POINT('',(16.5000067255691,3.00000000000169,4.));
#1249=CARTESIAN_POINT('Origin',(15.0000067255691,3.00000000000169,4.));
#1250=CARTESIAN_POINT('',(16.5000067255691,3.00000000000169,4.));
#1251=CARTESIAN_POINT('Origin',(0.,0.,2.));
#1252=CARTESIAN_POINT('',(-18.,-1.2490009027033E-15,2.));
#1253=CARTESIAN_POINT('',(18.,-9.55363335761934E-16,2.));
#1254=CARTESIAN_POINT('Origin',(0.,0.,2.));
#1255=CARTESIAN_POINT('',(-18.,-1.2490009027033E-15,4.));
#1256=CARTESIAN_POINT('',(-18.,-1.2490009027033E-15,2.));
#1257=CARTESIAN_POINT('',(18.,-9.55363335761934E-16,4.));
#1258=CARTESIAN_POINT('Origin',(0.,0.,4.));
#1259=CARTESIAN_POINT('',(18.,-9.55363335761934E-16,2.));
#1260=CARTESIAN_POINT('Origin',(15.,-6.93889390391615E-16,2.));
#1261=CARTESIAN_POINT('',(14.9999999999945,3.38263978338716E-12,2.));
#1262=CARTESIAN_POINT('',(7.5,-5.55111512312578E-16,2.));
#1263=CARTESIAN_POINT('',(14.9999999999945,3.38263978338716E-12,4.));
#1264=CARTESIAN_POINT('',(15.,-6.93889390391615E-16,4.));
#1265=CARTESIAN_POINT('',(14.9999999999945,3.38263978338716E-12,2.));
#1266=CARTESIAN_POINT('Origin',(15.0000067255691,3.00000000000169,2.));
#1267=CARTESIAN_POINT('',(15.,6.,2.));
#1268=CARTESIAN_POINT('Origin',(15.0000067255691,3.00000000000169,2.));
#1269=CARTESIAN_POINT('',(15.,6.,4.));
#1270=CARTESIAN_POINT('Origin',(15.0000067255691,3.00000000000169,4.));
#1271=CARTESIAN_POINT('',(15.,6.,2.));
#1272=CARTESIAN_POINT('Origin',(18.,6.,2.));
#1273=CARTESIAN_POINT('',(18.,6.,2.));
#1274=CARTESIAN_POINT('',(9.,6.,2.));
#1275=CARTESIAN_POINT('',(18.,6.,4.));
#1276=CARTESIAN_POINT('',(15.,6.,4.));
#1277=CARTESIAN_POINT('',(18.,6.,2.));
#1278=CARTESIAN_POINT('Origin',(18.,28.,2.));
#1279=CARTESIAN_POINT('',(18.,28.,2.));
#1280=CARTESIAN_POINT('',(18.,16.5,2.));
#1281=CARTESIAN_POINT('',(18.,28.,4.));
#1282=CARTESIAN_POINT('',(18.,6.,4.));
#1283=CARTESIAN_POINT('',(18.,28.,2.));
#1284=CARTESIAN_POINT('Origin',(-18.,28.,2.));
#1285=CARTESIAN_POINT('',(-18.,28.,2.));
#1286=CARTESIAN_POINT('',(-9.,28.,2.));
#1287=CARTESIAN_POINT('',(-18.,28.,4.));
#1288=CARTESIAN_POINT('',(-18.,28.,4.));
#1289=CARTESIAN_POINT('',(-18.,28.,2.));
#1290=CARTESIAN_POINT('Origin',(-18.,5.99999999999999,2.));
#1291=CARTESIAN_POINT('',(-18.,5.99999999999999,2.));
#1292=CARTESIAN_POINT('',(-18.,5.5,2.));
#1293=CARTESIAN_POINT('',(-18.,5.99999999999999,4.));
#1294=CARTESIAN_POINT('',(-18.,28.,4.));
#1295=CARTESIAN_POINT('',(-18.,5.99999999999999,2.));
#1296=CARTESIAN_POINT('Origin',(-15.,5.99999999999999,2.));
#1297=CARTESIAN_POINT('',(-15.,5.99999999999999,2.));
#1298=CARTESIAN_POINT('',(-7.5,5.99999999999998,2.));
#1299=CARTESIAN_POINT('',(-15.,5.99999999999999,4.));
#1300=CARTESIAN_POINT('',(-15.,5.99999999999999,4.));
#1301=CARTESIAN_POINT('',(-15.,5.99999999999999,2.));
#1302=CARTESIAN_POINT('Origin',(-15.,2.99999999999999,2.));
#1303=CARTESIAN_POINT('',(-15.,-1.11022302462516E-15,2.));
#1304=CARTESIAN_POINT('Origin',(-15.,2.99999999999999,2.));
#1305=CARTESIAN_POINT('',(-15.,-1.11022302462516E-15,4.));
#1306=CARTESIAN_POINT('Origin',(-15.,2.99999999999999,4.));
#1307=CARTESIAN_POINT('',(-15.,-1.11022302462516E-15,2.));
#1308=CARTESIAN_POINT('Origin',(-18.,-1.2490009027033E-15,2.));
#1309=CARTESIAN_POINT('',(-9.,-5.55111512312578E-16,2.));
#1310=CARTESIAN_POINT('',(-15.,-9.71445146547012E-16,4.));
#1311=CARTESIAN_POINT('Origin',(-19.,29.,2.));
#1312=CARTESIAN_POINT('',(-19.,0.,2.));
#1313=CARTESIAN_POINT('',(-19.,29.,2.));
#1314=CARTESIAN_POINT('',(-19.,17.,2.));
#1315=CARTESIAN_POINT('',(-19.,0.,4.));
#1316=CARTESIAN_POINT('',(-19.,0.,2.));
#1317=CARTESIAN_POINT('',(-19.,29.,4.));
#1318=CARTESIAN_POINT('',(-19.,29.,4.));
#1319=CARTESIAN_POINT('',(-19.,29.,2.));
#1320=CARTESIAN_POINT('Origin',(19.,29.,2.));
#1321=CARTESIAN_POINT('',(19.,29.,2.));
#1322=CARTESIAN_POINT('',(9.5,29.,2.));
#1323=CARTESIAN_POINT('',(19.,29.,4.));
#1324=CARTESIAN_POINT('',(-19.,29.,4.));
#1325=CARTESIAN_POINT('',(19.,29.,2.));
#1326=CARTESIAN_POINT('Origin',(19.,-2.32682891837997E-15,2.));
#1327=CARTESIAN_POINT('',(19.,-2.32682891837997E-15,2.));
#1328=CARTESIAN_POINT('',(19.,2.5,2.));
#1329=CARTESIAN_POINT('',(19.,-2.32682891837997E-15,4.));
#1330=CARTESIAN_POINT('',(19.,-2.32682891837997E-15,4.));
#1331=CARTESIAN_POINT('',(19.,-2.32682891837997E-15,2.));
#1332=CARTESIAN_POINT('Origin',(0.,0.,2.));
#1333=CARTESIAN_POINT('Origin',(0.,0.,2.));
#1334=CARTESIAN_POINT('Origin',(0.,0.,4.));
#1335=CARTESIAN_POINT('Origin',(0.,5.,4.));
#1336=CARTESIAN_POINT('Origin',(0.,5.,2.));
#1337=CARTESIAN_POINT('',(-20.,0.,2.));
#1338=CARTESIAN_POINT('',(20.,-2.44929359829471E-15,2.));
#1339=CARTESIAN_POINT('Origin',(0.,0.,2.));
#1340=CARTESIAN_POINT('',(20.,30.,2.));
#1341=CARTESIAN_POINT('',(20.,30.,2.));
#1342=CARTESIAN_POINT('',(-20.,30.,2.));
#1343=CARTESIAN_POINT('',(-20.,30.,2.));
#1344=CARTESIAN_POINT('',(-20.,30.,2.));
#1345=CARTESIAN_POINT('Origin',(0.,-8.75,0.75));
#1346=CARTESIAN_POINT('Ctrl Pts',(-1.00000000000001,-6.35,0.));
#1347=CARTESIAN_POINT('Ctrl Pts',(0.,-6.35,0.384615384615393));
#1348=CARTESIAN_POINT('Ctrl Pts',(1.00000000000001,-6.35,0.));
#1349=CARTESIAN_POINT('',(1.1,-8.75,1.5));
#1350=CARTESIAN_POINT('',(1.85,-8.75,0.75));
#1351=CARTESIAN_POINT('Origin',(0.,-8.75,1.5));
#1352=CARTESIAN_POINT('Origin',(6.1,-6.35,2.));
#1353=CARTESIAN_POINT('',(-6.1,-6.35,2.));
#1354=CARTESIAN_POINT('',(-6.1,-6.35,2.));
#1355=CARTESIAN_POINT('',(6.1,-6.35,2.));
#1356=CARTESIAN_POINT('',(3.05,-6.35,2.));
#1357=CARTESIAN_POINT('',(6.1,-6.35,2.));
#1358=CARTESIAN_POINT('Origin',(0.,-8.75,2.));
#1359=CARTESIAN_POINT('',(1.1,-8.75,2.));
#1360=CARTESIAN_POINT('Origin',(0.,-8.75,2.));
#1361=CARTESIAN_POINT('',(1.1,-8.75,2.));
#1362=CARTESIAN_POINT('Origin',(0.,19.05,0.75));
#1363=CARTESIAN_POINT('Ctrl Pts',(0.999999999999992,16.65,5.55111512312578E-16));
#1364=CARTESIAN_POINT('Ctrl Pts',(0.,16.65,0.384615384615379));
#1365=CARTESIAN_POINT('Ctrl Pts',(-0.999999999999992,16.65,5.55111512312578E-16));
#1366=CARTESIAN_POINT('',(1.1,19.05,1.5));
#1367=CARTESIAN_POINT('',(1.85,19.05,0.75));
#1368=CARTESIAN_POINT('Origin',(0.,19.05,1.5));
#1369=CARTESIAN_POINT('Origin',(-6.1,16.65,2.));
#1370=CARTESIAN_POINT('',(6.1,16.65,2.));
#1371=CARTESIAN_POINT('',(6.1,16.65,2.));
#1372=CARTESIAN_POINT('',(-6.1,16.65,2.));
#1373=CARTESIAN_POINT('',(-3.05,16.65,2.));
#1374=CARTESIAN_POINT('',(-6.1,16.65,2.));
#1375=CARTESIAN_POINT('Origin',(0.,19.05,2.));
#1376=CARTESIAN_POINT('',(1.1,19.05,2.));
#1377=CARTESIAN_POINT('Origin',(0.,19.05,2.));
#1378=CARTESIAN_POINT('',(1.1,19.05,2.));
#1379=CARTESIAN_POINT('Origin',(6.1,16.65,2.));
#1380=CARTESIAN_POINT('',(6.1,10.825,2.));
#1381=CARTESIAN_POINT('Origin',(-6.1,-6.35,2.));
#1382=CARTESIAN_POINT('',(-6.1,-0.675000000000002,2.));
#1383=CARTESIAN_POINT('Origin',(-20.,30.,0.));
#1384=CARTESIAN_POINT('',(-20.,0.,0.));
#1385=CARTESIAN_POINT('',(-20.,30.,0.));
#1386=CARTESIAN_POINT('Origin',(20.,30.,0.));
#1387=CARTESIAN_POINT('',(20.,30.,0.));
#1388=CARTESIAN_POINT('Origin',(20.,0.,0.));
#1389=CARTESIAN_POINT('',(20.,-2.44929359829471E-15,0.));
#1390=CARTESIAN_POINT('Origin',(0.,0.,0.));
#1391=CARTESIAN_POINT('Origin',(0.,5.,2.));
#1392=UNCERTAINTY_MEASURE_WITH_UNIT(LENGTH_MEASURE(0.01),#1396,
'DISTANCE_ACCURACY_VALUE',
'Maximum model space distance between geometric entities at asserted c
onnectivities');
#1393=UNCERTAINTY_MEASURE_WITH_UNIT(LENGTH_MEASURE(0.01),#1396,
'DISTANCE_ACCURACY_VALUE',
'Maximum model space distance between geometric entities at asserted c
onnectivities');
#1394=(
GEOMETRIC_REPRESENTATION_CONTEXT(3)
GLOBAL_UNCERTAINTY_ASSIGNED_CONTEXT((#1392))
GLOBAL_UNIT_ASSIGNED_CONTEXT((#1396,#1398,#1399))
REPRESENTATION_CONTEXT('','3D')
);
#1395=(
GEOMETRIC_REPRESENTATION_CONTEXT(3)
GLOBAL_UNCERTAINTY_ASSIGNED_CONTEXT((#1393))
GLOBAL_UNIT_ASSIGNED_CONTEXT((#1396,#1398,#1399))
REPRESENTATION_CONTEXT('','3D')
);
#1396=(
LENGTH_UNIT()
NAMED_UNIT(*)
SI_UNIT(.MILLI.,.METRE.)
);
#1397=(
LENGTH_UNIT()
NAMED_UNIT(*)
SI_UNIT($,.METRE.)
);
#1398=(
NAMED_UNIT(*)
PLANE_ANGLE_UNIT()
SI_UNIT($,.RADIAN.)
);
#1399=(
NAMED_UNIT(*)
SI_UNIT($,.STERADIAN.)
SOLID_ANGLE_UNIT()
);
#1400=SHAPE_DEFINITION_REPRESENTATION(#1401,#1402);
#1401=PRODUCT_DEFINITION_SHAPE('',$,#1404);
#1402=SHAPE_REPRESENTATION('',(#846),#1394);
#1403=PRODUCT_DEFINITION_CONTEXT('part definition',#1408,'design');
#1404=PRODUCT_DEFINITION('(\X2\C800C7A5B418C9C0\X0\ \X2\C54AC74C\X0\)',
'(\X2\C800C7A5B418C9C0\X0\ \X2\C54AC74C\X0\)',#1405,#1403);
#1405=PRODUCT_DEFINITION_FORMATION('',$,#1410);
#1406=PRODUCT_RELATED_PRODUCT_CATEGORY('(\X2\C800C7A5B418C9C0\X0\ \X2\C54AC74C\X0\)',
'(\X2\C800C7A5B418C9C0\X0\ \X2\C54AC74C\X0\)',(#1410));
#1407=APPLICATION_PROTOCOL_DEFINITION('international standard',
'automotive_design',2009,#1408);
#1408=APPLICATION_CONTEXT(
'Core Data for Automotive Mechanical Design Process');
#1409=PRODUCT_CONTEXT('part definition',#1408,'mechanical');
#1410=PRODUCT('(\X2\C800C7A5B418C9C0\X0\ \X2\C54AC74C\X0\)',
'(\X2\C800C7A5B418C9C0\X0\ \X2\C54AC74C\X0\)',$,(#1409));
#1411=PRESENTATION_STYLE_ASSIGNMENT((#1412));
#1412=SURFACE_STYLE_USAGE(.BOTH.,#1413);
#1413=SURFACE_SIDE_STYLE('',(#1414));
#1414=SURFACE_STYLE_FILL_AREA(#1415);
#1415=FILL_AREA_STYLE('\X2\AC15CCA0\X0\ - \X2\C0C8D2F4\X0\',(#1416));
#1416=FILL_AREA_STYLE_COLOUR('\X2\AC15CCA0\X0\ - \X2\C0C8D2F4\X0\',#1417);
#1417=COLOUR_RGB('\X2\AC15CCA0\X0\ - \X2\C0C8D2F4\X0\',0.627450980392157,
0.627450980392157,0.627450980392157);
ENDSEC;
END-ISO-10303-21;
