ISO-10303-21;
HEADER;
/* Generated by software containing ST-Developer
 * from STEP Tools, Inc. (www.steptools.com) 
 */

FILE_DESCRIPTION(
/* description */ (''),
/* implementation_level */ '2;1');

FILE_NAME(
/* name */ 'TRARM02_Link3A_100x50x7.step',
/* time_stamp */ '2026-06-11T09:10:13+09:00',
/* author */ (''),
/* organization */ (''),
/* preprocessor_version */ 'ST-DEVELOPER v20.1',
/* originating_system */ 'Autodesk Translation Framework v15.8.0.0',
/* authorisation */ '');

FILE_SCHEMA (('AUTOMOTIVE_DESIGN { 1 0 10303 214 3 1 1 }'));
ENDSEC;

DATA;
#10=MECHANICAL_DESIGN_GEOMETRIC_PRESENTATION_REPRESENTATION('',(#13),#1430);
#11=SHAPE_REPRESENTATION_RELATIONSHIP('SRR','None',#1437,#12);
#12=ADVANCED_BREP_SHAPE_REPRESENTATION('',(#14),#1429);
#13=STYLED_ITEM('',(#1446),#14);
#14=MANIFOLD_SOLID_BREP('\X2\BCF8CCB4\X0\1',#834);
#15=FACE_BOUND('',#187,.T.);
#16=FACE_BOUND('',#201,.T.);
#17=FACE_BOUND('',#203,.T.);
#18=FACE_BOUND('',#204,.T.);
#19=FACE_BOUND('',#205,.T.);
#20=FACE_BOUND('',#206,.T.);
#21=FACE_BOUND('',#208,.T.);
#22=FACE_BOUND('',#209,.T.);
#23=FACE_BOUND('',#210,.T.);
#24=FACE_BOUND('',#211,.T.);
#25=FACE_BOUND('',#212,.T.);
#26=FACE_BOUND('',#218,.T.);
#27=FACE_BOUND('',#219,.T.);
#28=FACE_BOUND('',#220,.T.);
#29=FACE_BOUND('',#221,.T.);
#30=FACE_BOUND('',#222,.T.);
#31=FACE_BOUND('',#224,.T.);
#32=FACE_BOUND('',#225,.T.);
#33=FACE_BOUND('',#226,.T.);
#34=FACE_BOUND('',#227,.T.);
#35=FACE_BOUND('',#228,.T.);
#36=FACE_BOUND('',#229,.T.);
#37=FACE_BOUND('',#230,.T.);
#38=FACE_BOUND('',#231,.T.);
#39=FACE_BOUND('',#232,.T.);
#40=FACE_BOUND('',#233,.T.);
#41=FACE_BOUND('',#234,.T.);
#42=FACE_BOUND('',#235,.T.);
#43=FACE_BOUND('',#236,.T.);
#44=FACE_BOUND('',#237,.T.);
#45=CIRCLE('',#850,2.49999999999626);
#46=CIRCLE('',#851,2.49999999999626);
#47=CIRCLE('',#854,2.50000000000155);
#48=CIRCLE('',#855,2.50000000000155);
#49=CIRCLE('',#858,2.49999999999998);
#50=CIRCLE('',#859,2.49999999999998);
#51=CIRCLE('',#862,2.49999999999998);
#52=CIRCLE('',#863,2.49999999999998);
#53=CIRCLE('',#866,2.50000000000007);
#54=CIRCLE('',#867,2.50000000000007);
#55=CIRCLE('',#870,2.50000000000018);
#56=CIRCLE('',#871,2.50000000000018);
#57=CIRCLE('',#874,2.50000000000002);
#58=CIRCLE('',#875,2.50000000000002);
#59=CIRCLE('',#878,2.49999999999993);
#60=CIRCLE('',#879,2.49999999999993);
#61=CIRCLE('',#881,1.5);
#62=CIRCLE('',#882,1.5);
#63=CIRCLE('',#884,1.5);
#64=CIRCLE('',#885,1.5);
#65=CIRCLE('',#887,1.5);
#66=CIRCLE('',#888,1.5);
#67=CIRCLE('',#890,1.5);
#68=CIRCLE('',#891,1.5);
#69=CIRCLE('',#893,19.9999985098839);
#70=CIRCLE('',#894,19.9999985098839);
#71=CIRCLE('',#895,20.);
#72=CIRCLE('',#896,19.9999985098839);
#73=CIRCLE('',#897,20.);
#74=CIRCLE('',#898,19.9999985098839);
#75=CIRCLE('',#900,19.);
#76=CIRCLE('',#902,6.);
#77=CIRCLE('',#903,6.);
#78=CIRCLE('',#905,2.);
#79=CIRCLE('',#906,2.);
#80=CIRCLE('',#908,1.);
#81=CIRCLE('',#909,1.);
#82=CIRCLE('',#911,2.);
#83=CIRCLE('',#912,2.);
#84=CIRCLE('',#914,2.);
#85=CIRCLE('',#915,2.);
#86=CIRCLE('',#917,1.);
#87=CIRCLE('',#918,1.);
#88=CIRCLE('',#920,23.9691157837137);
#89=CIRCLE('',#921,23.9691157837137);
#90=CIRCLE('',#923,19.);
#91=CIRCLE('',#925,20.);
#92=CIRCLE('',#928,25.);
#93=CIRCLE('',#929,25.);
#94=CIRCLE('',#932,25.);
#95=CIRCLE('',#937,25.);
#96=CIRCLE('',#940,20.);
#97=CYLINDRICAL_SURFACE('',#849,2.49999999999626);
#98=CYLINDRICAL_SURFACE('',#853,2.50000000000155);
#99=CYLINDRICAL_SURFACE('',#857,2.49999999999998);
#100=CYLINDRICAL_SURFACE('',#861,2.49999999999998);
#101=CYLINDRICAL_SURFACE('',#865,2.50000000000007);
#102=CYLINDRICAL_SURFACE('',#869,2.50000000000018);
#103=CYLINDRICAL_SURFACE('',#873,2.50000000000002);
#104=CYLINDRICAL_SURFACE('',#877,2.49999999999993);
#105=CYLINDRICAL_SURFACE('',#880,1.5);
#106=CYLINDRICAL_SURFACE('',#883,1.5);
#107=CYLINDRICAL_SURFACE('',#886,1.5);
#108=CYLINDRICAL_SURFACE('',#889,1.5);
#109=CYLINDRICAL_SURFACE('',#892,19.9999985098839);
#110=CYLINDRICAL_SURFACE('',#901,6.);
#111=CYLINDRICAL_SURFACE('',#904,2.);
#112=CYLINDRICAL_SURFACE('',#907,1.);
#113=CYLINDRICAL_SURFACE('',#910,2.);
#114=CYLINDRICAL_SURFACE('',#913,2.);
#115=CYLINDRICAL_SURFACE('',#916,1.);
#116=CYLINDRICAL_SURFACE('',#919,23.9691157837137);
#117=CYLINDRICAL_SURFACE('',#922,19.);
#118=CYLINDRICAL_SURFACE('',#924,20.);
#119=CYLINDRICAL_SURFACE('',#927,25.);
#120=CYLINDRICAL_SURFACE('',#936,25.);
#121=CYLINDRICAL_SURFACE('',#939,20.);
#122=FACE_OUTER_BOUND('',#165,.T.);
#123=FACE_OUTER_BOUND('',#166,.T.);
#124=FACE_OUTER_BOUND('',#167,.T.);
#125=FACE_OUTER_BOUND('',#168,.T.);
#126=FACE_OUTER_BOUND('',#169,.T.);
#127=FACE_OUTER_BOUND('',#170,.T.);
#128=FACE_OUTER_BOUND('',#171,.T.);
#129=FACE_OUTER_BOUND('',#172,.T.);
#130=FACE_OUTER_BOUND('',#173,.T.);
#131=FACE_OUTER_BOUND('',#174,.T.);
#132=FACE_OUTER_BOUND('',#175,.T.);
#133=FACE_OUTER_BOUND('',#176,.T.);
#134=FACE_OUTER_BOUND('',#177,.T.);
#135=FACE_OUTER_BOUND('',#178,.T.);
#136=FACE_OUTER_BOUND('',#179,.T.);
#137=FACE_OUTER_BOUND('',#180,.T.);
#138=FACE_OUTER_BOUND('',#181,.T.);
#139=FACE_OUTER_BOUND('',#182,.T.);
#140=FACE_OUTER_BOUND('',#183,.T.);
#141=FACE_OUTER_BOUND('',#184,.T.);
#142=FACE_OUTER_BOUND('',#185,.T.);
#143=FACE_OUTER_BOUND('',#186,.T.);
#144=FACE_OUTER_BOUND('',#188,.T.);
#145=FACE_OUTER_BOUND('',#189,.T.);
#146=FACE_OUTER_BOUND('',#190,.T.);
#147=FACE_OUTER_BOUND('',#191,.T.);
#148=FACE_OUTER_BOUND('',#192,.T.);
#149=FACE_OUTER_BOUND('',#193,.T.);
#150=FACE_OUTER_BOUND('',#194,.T.);
#151=FACE_OUTER_BOUND('',#195,.T.);
#152=FACE_OUTER_BOUND('',#196,.T.);
#153=FACE_OUTER_BOUND('',#197,.T.);
#154=FACE_OUTER_BOUND('',#198,.T.);
#155=FACE_OUTER_BOUND('',#199,.T.);
#156=FACE_OUTER_BOUND('',#200,.T.);
#157=FACE_OUTER_BOUND('',#202,.T.);
#158=FACE_OUTER_BOUND('',#207,.T.);
#159=FACE_OUTER_BOUND('',#213,.T.);
#160=FACE_OUTER_BOUND('',#214,.T.);
#161=FACE_OUTER_BOUND('',#215,.T.);
#162=FACE_OUTER_BOUND('',#216,.T.);
#163=FACE_OUTER_BOUND('',#217,.T.);
#164=FACE_OUTER_BOUND('',#223,.T.);
#165=EDGE_LOOP('',(#547,#548,#549,#550));
#166=EDGE_LOOP('',(#551,#552,#553,#554));
#167=EDGE_LOOP('',(#555,#556,#557,#558));
#168=EDGE_LOOP('',(#559,#560,#561,#562));
#169=EDGE_LOOP('',(#563,#564,#565,#566));
#170=EDGE_LOOP('',(#567,#568,#569,#570));
#171=EDGE_LOOP('',(#571,#572,#573,#574));
#172=EDGE_LOOP('',(#575,#576,#577,#578));
#173=EDGE_LOOP('',(#579,#580,#581,#582));
#174=EDGE_LOOP('',(#583,#584,#585,#586));
#175=EDGE_LOOP('',(#587,#588,#589,#590));
#176=EDGE_LOOP('',(#591,#592,#593,#594));
#177=EDGE_LOOP('',(#595,#596,#597,#598));
#178=EDGE_LOOP('',(#599,#600,#601,#602));
#179=EDGE_LOOP('',(#603,#604,#605,#606));
#180=EDGE_LOOP('',(#607,#608,#609,#610));
#181=EDGE_LOOP('',(#611,#612,#613,#614));
#182=EDGE_LOOP('',(#615,#616,#617,#618));
#183=EDGE_LOOP('',(#619,#620,#621,#622));
#184=EDGE_LOOP('',(#623,#624,#625,#626));
#185=EDGE_LOOP('',(#627,#628,#629,#630,#631,#632,#633,#634));
#186=EDGE_LOOP('',(#635));
#187=EDGE_LOOP('',(#636));
#188=EDGE_LOOP('',(#637,#638,#639,#640));
#189=EDGE_LOOP('',(#641,#642,#643,#644));
#190=EDGE_LOOP('',(#645,#646,#647,#648));
#191=EDGE_LOOP('',(#649,#650,#651,#652));
#192=EDGE_LOOP('',(#653,#654,#655,#656));
#193=EDGE_LOOP('',(#657,#658,#659,#660));
#194=EDGE_LOOP('',(#661,#662,#663,#664));
#195=EDGE_LOOP('',(#665,#666,#667,#668));
#196=EDGE_LOOP('',(#669,#670,#671,#672));
#197=EDGE_LOOP('',(#673,#674,#675,#676));
#198=EDGE_LOOP('',(#677,#678,#679,#680));
#199=EDGE_LOOP('',(#681,#682,#683,#684));
#200=EDGE_LOOP('',(#685,#686,#687,#688,#689,#690,#691,#692,#693));
#201=EDGE_LOOP('',(#694));
#202=EDGE_LOOP('',(#695,#696,#697,#698));
#203=EDGE_LOOP('',(#699));
#204=EDGE_LOOP('',(#700));
#205=EDGE_LOOP('',(#701));
#206=EDGE_LOOP('',(#702));
#207=EDGE_LOOP('',(#703));
#208=EDGE_LOOP('',(#704,#705,#706,#707));
#209=EDGE_LOOP('',(#708,#709,#710,#711));
#210=EDGE_LOOP('',(#712));
#211=EDGE_LOOP('',(#713));
#212=EDGE_LOOP('',(#714));
#213=EDGE_LOOP('',(#715,#716,#717,#718));
#214=EDGE_LOOP('',(#719,#720,#721,#722));
#215=EDGE_LOOP('',(#723,#724,#725,#726));
#216=EDGE_LOOP('',(#727,#728,#729,#730));
#217=EDGE_LOOP('',(#731));
#218=EDGE_LOOP('',(#732,#733,#734,#735));
#219=EDGE_LOOP('',(#736,#737,#738,#739));
#220=EDGE_LOOP('',(#740));
#221=EDGE_LOOP('',(#741));
#222=EDGE_LOOP('',(#742));
#223=EDGE_LOOP('',(#743,#744,#745,#746));
#224=EDGE_LOOP('',(#747,#748,#749,#750));
#225=EDGE_LOOP('',(#751,#752,#753,#754));
#226=EDGE_LOOP('',(#755,#756,#757,#758));
#227=EDGE_LOOP('',(#759,#760,#761,#762));
#228=EDGE_LOOP('',(#763));
#229=EDGE_LOOP('',(#764));
#230=EDGE_LOOP('',(#765));
#231=EDGE_LOOP('',(#766));
#232=EDGE_LOOP('',(#767));
#233=EDGE_LOOP('',(#768));
#234=EDGE_LOOP('',(#769));
#235=EDGE_LOOP('',(#770));
#236=EDGE_LOOP('',(#771));
#237=EDGE_LOOP('',(#772));
#238=LINE('',#1200,#299);
#239=LINE('',#1202,#300);
#240=LINE('',#1204,#301);
#241=LINE('',#1205,#302);
#242=LINE('',#1210,#303);
#243=LINE('',#1214,#304);
#244=LINE('',#1216,#305);
#245=LINE('',#1217,#306);
#246=LINE('',#1224,#307);
#247=LINE('',#1226,#308);
#248=LINE('',#1228,#309);
#249=LINE('',#1229,#310);
#250=LINE('',#1234,#311);
#251=LINE('',#1238,#312);
#252=LINE('',#1240,#313);
#253=LINE('',#1241,#314);
#254=LINE('',#1248,#315);
#255=LINE('',#1250,#316);
#256=LINE('',#1252,#317);
#257=LINE('',#1253,#318);
#258=LINE('',#1258,#319);
#259=LINE('',#1262,#320);
#260=LINE('',#1264,#321);
#261=LINE('',#1265,#322);
#262=LINE('',#1272,#323);
#263=LINE('',#1274,#324);
#264=LINE('',#1276,#325);
#265=LINE('',#1277,#326);
#266=LINE('',#1282,#327);
#267=LINE('',#1286,#328);
#268=LINE('',#1288,#329);
#269=LINE('',#1289,#330);
#270=LINE('',#1297,#331);
#271=LINE('',#1303,#332);
#272=LINE('',#1309,#333);
#273=LINE('',#1315,#334);
#274=LINE('',#1321,#335);
#275=LINE('',#1338,#336);
#276=LINE('',#1344,#337);
#277=LINE('',#1350,#338);
#278=LINE('',#1356,#339);
#279=LINE('',#1362,#340);
#280=LINE('',#1368,#341);
#281=LINE('',#1374,#342);
#282=LINE('',#1378,#343);
#283=LINE('',#1384,#344);
#284=LINE('',#1385,#345);
#285=LINE('',#1388,#346);
#286=LINE('',#1390,#347);
#287=LINE('',#1391,#348);
#288=LINE('',#1397,#349);
#289=LINE('',#1399,#350);
#290=LINE('',#1400,#351);
#291=LINE('',#1403,#352);
#292=LINE('',#1406,#353);
#293=LINE('',#1412,#354);
#294=LINE('',#1413,#355);
#295=LINE('',#1414,#356);
#296=LINE('',#1418,#357);
#297=LINE('',#1421,#358);
#298=LINE('',#1422,#359);
#299=VECTOR('',#947,10.);
#300=VECTOR('',#948,10.);
#301=VECTOR('',#949,10.);
#302=VECTOR('',#950,10.);
#303=VECTOR('',#955,10.);
#304=VECTOR('',#960,10.);
#305=VECTOR('',#961,10.);
#306=VECTOR('',#962,10.);
#307=VECTOR('',#971,10.);
#308=VECTOR('',#972,10.);
#309=VECTOR('',#973,10.);
#310=VECTOR('',#974,10.);
#311=VECTOR('',#979,10.);
#312=VECTOR('',#984,10.);
#313=VECTOR('',#985,10.);
#314=VECTOR('',#986,10.);
#315=VECTOR('',#995,10.);
#316=VECTOR('',#996,10.);
#317=VECTOR('',#997,10.);
#318=VECTOR('',#998,10.);
#319=VECTOR('',#1003,10.);
#320=VECTOR('',#1008,10.);
#321=VECTOR('',#1009,10.);
#322=VECTOR('',#1010,10.);
#323=VECTOR('',#1019,10.);
#324=VECTOR('',#1020,10.);
#325=VECTOR('',#1021,10.);
#326=VECTOR('',#1022,10.);
#327=VECTOR('',#1027,10.);
#328=VECTOR('',#1032,10.);
#329=VECTOR('',#1033,10.);
#330=VECTOR('',#1034,10.);
#331=VECTOR('',#1045,1.5);
#332=VECTOR('',#1052,1.5);
#333=VECTOR('',#1059,1.5);
#334=VECTOR('',#1066,1.5);
#335=VECTOR('',#1073,19.9999985098839);
#336=VECTOR('',#1092,6.);
#337=VECTOR('',#1099,2.);
#338=VECTOR('',#1106,1.);
#339=VECTOR('',#1113,2.);
#340=VECTOR('',#1120,2.);
#341=VECTOR('',#1127,1.);
#342=VECTOR('',#1134,23.9691157837138);
#343=VECTOR('',#1139,19.);
#344=VECTOR('',#1146,10.);
#345=VECTOR('',#1147,10.);
#346=VECTOR('',#1150,10.);
#347=VECTOR('',#1151,10.);
#348=VECTOR('',#1152,10.);
#349=VECTOR('',#1159,10.);
#350=VECTOR('',#1162,10.);
#351=VECTOR('',#1163,10.);
#352=VECTOR('',#1166,10.);
#353=VECTOR('',#1169,10.);
#354=VECTOR('',#1176,10.);
#355=VECTOR('',#1177,10.);
#356=VECTOR('',#1178,10.);
#357=VECTOR('',#1183,10.);
#358=VECTOR('',#1186,10.);
#359=VECTOR('',#1187,10.);
#360=VERTEX_POINT('',#1198);
#361=VERTEX_POINT('',#1199);
#362=VERTEX_POINT('',#1201);
#363=VERTEX_POINT('',#1203);
#364=VERTEX_POINT('',#1207);
#365=VERTEX_POINT('',#1209);
#366=VERTEX_POINT('',#1213);
#367=VERTEX_POINT('',#1215);
#368=VERTEX_POINT('',#1222);
#369=VERTEX_POINT('',#1223);
#370=VERTEX_POINT('',#1225);
#371=VERTEX_POINT('',#1227);
#372=VERTEX_POINT('',#1231);
#373=VERTEX_POINT('',#1233);
#374=VERTEX_POINT('',#1237);
#375=VERTEX_POINT('',#1239);
#376=VERTEX_POINT('',#1246);
#377=VERTEX_POINT('',#1247);
#378=VERTEX_POINT('',#1249);
#379=VERTEX_POINT('',#1251);
#380=VERTEX_POINT('',#1255);
#381=VERTEX_POINT('',#1257);
#382=VERTEX_POINT('',#1261);
#383=VERTEX_POINT('',#1263);
#384=VERTEX_POINT('',#1270);
#385=VERTEX_POINT('',#1271);
#386=VERTEX_POINT('',#1273);
#387=VERTEX_POINT('',#1275);
#388=VERTEX_POINT('',#1279);
#389=VERTEX_POINT('',#1281);
#390=VERTEX_POINT('',#1285);
#391=VERTEX_POINT('',#1287);
#392=VERTEX_POINT('',#1294);
#393=VERTEX_POINT('',#1296);
#394=VERTEX_POINT('',#1300);
#395=VERTEX_POINT('',#1302);
#396=VERTEX_POINT('',#1306);
#397=VERTEX_POINT('',#1308);
#398=VERTEX_POINT('',#1312);
#399=VERTEX_POINT('',#1314);
#400=VERTEX_POINT('',#1318);
#401=VERTEX_POINT('',#1320);
#402=VERTEX_POINT('',#1322);
#403=VERTEX_POINT('',#1324);
#404=VERTEX_POINT('',#1326);
#405=VERTEX_POINT('',#1328);
#406=VERTEX_POINT('',#1332);
#407=VERTEX_POINT('',#1335);
#408=VERTEX_POINT('',#1337);
#409=VERTEX_POINT('',#1341);
#410=VERTEX_POINT('',#1343);
#411=VERTEX_POINT('',#1347);
#412=VERTEX_POINT('',#1349);
#413=VERTEX_POINT('',#1353);
#414=VERTEX_POINT('',#1355);
#415=VERTEX_POINT('',#1359);
#416=VERTEX_POINT('',#1361);
#417=VERTEX_POINT('',#1365);
#418=VERTEX_POINT('',#1367);
#419=VERTEX_POINT('',#1371);
#420=VERTEX_POINT('',#1373);
#421=VERTEX_POINT('',#1377);
#422=VERTEX_POINT('',#1381);
#423=VERTEX_POINT('',#1382);
#424=VERTEX_POINT('',#1387);
#425=VERTEX_POINT('',#1389);
#426=VERTEX_POINT('',#1393);
#427=VERTEX_POINT('',#1395);
#428=VERTEX_POINT('',#1402);
#429=VERTEX_POINT('',#1404);
#430=VERTEX_POINT('',#1410);
#431=VERTEX_POINT('',#1411);
#432=VERTEX_POINT('',#1416);
#433=VERTEX_POINT('',#1420);
#434=EDGE_CURVE('',#360,#361,#238,.T.);
#435=EDGE_CURVE('',#360,#362,#239,.T.);
#436=EDGE_CURVE('',#363,#362,#240,.T.);
#437=EDGE_CURVE('',#361,#363,#241,.T.);
#438=EDGE_CURVE('',#364,#360,#45,.T.);
#439=EDGE_CURVE('',#364,#365,#242,.T.);
#440=EDGE_CURVE('',#362,#365,#46,.T.);
#441=EDGE_CURVE('',#366,#364,#243,.T.);
#442=EDGE_CURVE('',#366,#367,#244,.T.);
#443=EDGE_CURVE('',#365,#367,#245,.T.);
#444=EDGE_CURVE('',#361,#366,#47,.T.);
#445=EDGE_CURVE('',#367,#363,#48,.T.);
#446=EDGE_CURVE('',#368,#369,#246,.T.);
#447=EDGE_CURVE('',#368,#370,#247,.T.);
#448=EDGE_CURVE('',#371,#370,#248,.T.);
#449=EDGE_CURVE('',#369,#371,#249,.T.);
#450=EDGE_CURVE('',#372,#368,#49,.T.);
#451=EDGE_CURVE('',#372,#373,#250,.T.);
#452=EDGE_CURVE('',#370,#373,#50,.T.);
#453=EDGE_CURVE('',#374,#372,#251,.T.);
#454=EDGE_CURVE('',#374,#375,#252,.T.);
#455=EDGE_CURVE('',#373,#375,#253,.T.);
#456=EDGE_CURVE('',#369,#374,#51,.T.);
#457=EDGE_CURVE('',#375,#371,#52,.T.);
#458=EDGE_CURVE('',#376,#377,#254,.T.);
#459=EDGE_CURVE('',#376,#378,#255,.T.);
#460=EDGE_CURVE('',#379,#378,#256,.T.);
#461=EDGE_CURVE('',#377,#379,#257,.T.);
#462=EDGE_CURVE('',#380,#376,#53,.T.);
#463=EDGE_CURVE('',#380,#381,#258,.T.);
#464=EDGE_CURVE('',#378,#381,#54,.T.);
#465=EDGE_CURVE('',#382,#380,#259,.T.);
#466=EDGE_CURVE('',#382,#383,#260,.T.);
#467=EDGE_CURVE('',#381,#383,#261,.T.);
#468=EDGE_CURVE('',#377,#382,#55,.T.);
#469=EDGE_CURVE('',#383,#379,#56,.T.);
#470=EDGE_CURVE('',#384,#385,#262,.T.);
#471=EDGE_CURVE('',#384,#386,#263,.T.);
#472=EDGE_CURVE('',#387,#386,#264,.T.);
#473=EDGE_CURVE('',#385,#387,#265,.T.);
#474=EDGE_CURVE('',#388,#384,#57,.T.);
#475=EDGE_CURVE('',#388,#389,#266,.T.);
#476=EDGE_CURVE('',#386,#389,#58,.T.);
#477=EDGE_CURVE('',#390,#388,#267,.T.);
#478=EDGE_CURVE('',#390,#391,#268,.T.);
#479=EDGE_CURVE('',#389,#391,#269,.T.);
#480=EDGE_CURVE('',#385,#390,#59,.T.);
#481=EDGE_CURVE('',#391,#387,#60,.T.);
#482=EDGE_CURVE('',#392,#392,#61,.T.);
#483=EDGE_CURVE('',#392,#393,#270,.T.);
#484=EDGE_CURVE('',#393,#393,#62,.T.);
#485=EDGE_CURVE('',#394,#394,#63,.T.);
#486=EDGE_CURVE('',#394,#395,#271,.T.);
#487=EDGE_CURVE('',#395,#395,#64,.T.);
#488=EDGE_CURVE('',#396,#396,#65,.T.);
#489=EDGE_CURVE('',#396,#397,#272,.T.);
#490=EDGE_CURVE('',#397,#397,#66,.T.);
#491=EDGE_CURVE('',#398,#398,#67,.T.);
#492=EDGE_CURVE('',#398,#399,#273,.T.);
#493=EDGE_CURVE('',#399,#399,#68,.T.);
#494=EDGE_CURVE('',#400,#400,#69,.T.);
#495=EDGE_CURVE('',#400,#401,#274,.T.);
#496=EDGE_CURVE('',#402,#401,#70,.T.);
#497=EDGE_CURVE('',#402,#403,#71,.T.);
#498=EDGE_CURVE('',#404,#403,#72,.T.);
#499=EDGE_CURVE('',#404,#405,#73,.T.);
#500=EDGE_CURVE('',#401,#405,#74,.T.);
#501=EDGE_CURVE('',#406,#406,#75,.T.);
#502=EDGE_CURVE('',#407,#407,#76,.T.);
#503=EDGE_CURVE('',#407,#408,#275,.T.);
#504=EDGE_CURVE('',#408,#408,#77,.T.);
#505=EDGE_CURVE('',#409,#409,#78,.T.);
#506=EDGE_CURVE('',#409,#410,#276,.T.);
#507=EDGE_CURVE('',#410,#410,#79,.T.);
#508=EDGE_CURVE('',#411,#411,#80,.T.);
#509=EDGE_CURVE('',#411,#412,#277,.T.);
#510=EDGE_CURVE('',#412,#412,#81,.T.);
#511=EDGE_CURVE('',#413,#413,#82,.T.);
#512=EDGE_CURVE('',#413,#414,#278,.T.);
#513=EDGE_CURVE('',#414,#414,#83,.T.);
#514=EDGE_CURVE('',#415,#415,#84,.T.);
#515=EDGE_CURVE('',#415,#416,#279,.T.);
#516=EDGE_CURVE('',#416,#416,#85,.T.);
#517=EDGE_CURVE('',#417,#417,#86,.T.);
#518=EDGE_CURVE('',#417,#418,#280,.T.);
#519=EDGE_CURVE('',#418,#418,#87,.T.);
#520=EDGE_CURVE('',#419,#419,#88,.T.);
#521=EDGE_CURVE('',#419,#420,#281,.T.);
#522=EDGE_CURVE('',#420,#420,#89,.T.);
#523=EDGE_CURVE('',#406,#421,#282,.T.);
#524=EDGE_CURVE('',#421,#421,#90,.T.);
#525=EDGE_CURVE('',#422,#423,#91,.T.);
#526=EDGE_CURVE('',#422,#405,#283,.T.);
#527=EDGE_CURVE('',#423,#404,#284,.T.);
#528=EDGE_CURVE('',#423,#424,#285,.T.);
#529=EDGE_CURVE('',#425,#404,#286,.T.);
#530=EDGE_CURVE('',#424,#425,#287,.T.);
#531=EDGE_CURVE('',#424,#426,#92,.T.);
#532=EDGE_CURVE('',#427,#425,#93,.T.);
#533=EDGE_CURVE('',#426,#427,#288,.T.);
#534=EDGE_CURVE('',#426,#422,#289,.T.);
#535=EDGE_CURVE('',#405,#427,#290,.T.);
#536=EDGE_CURVE('',#403,#428,#291,.T.);
#537=EDGE_CURVE('',#428,#429,#94,.T.);
#538=EDGE_CURVE('',#429,#402,#292,.T.);
#539=EDGE_CURVE('',#430,#431,#293,.T.);
#540=EDGE_CURVE('',#430,#402,#294,.T.);
#541=EDGE_CURVE('',#431,#429,#295,.T.);
#542=EDGE_CURVE('',#432,#431,#95,.T.);
#543=EDGE_CURVE('',#432,#428,#296,.T.);
#544=EDGE_CURVE('',#433,#432,#297,.T.);
#545=EDGE_CURVE('',#433,#403,#298,.T.);
#546=EDGE_CURVE('',#430,#433,#96,.T.);
#547=ORIENTED_EDGE('',*,*,#434,.F.);
#548=ORIENTED_EDGE('',*,*,#435,.T.);
#549=ORIENTED_EDGE('',*,*,#436,.F.);
#550=ORIENTED_EDGE('',*,*,#437,.F.);
#551=ORIENTED_EDGE('',*,*,#438,.F.);
#552=ORIENTED_EDGE('',*,*,#439,.T.);
#553=ORIENTED_EDGE('',*,*,#440,.F.);
#554=ORIENTED_EDGE('',*,*,#435,.F.);
#555=ORIENTED_EDGE('',*,*,#441,.F.);
#556=ORIENTED_EDGE('',*,*,#442,.T.);
#557=ORIENTED_EDGE('',*,*,#443,.F.);
#558=ORIENTED_EDGE('',*,*,#439,.F.);
#559=ORIENTED_EDGE('',*,*,#444,.F.);
#560=ORIENTED_EDGE('',*,*,#437,.T.);
#561=ORIENTED_EDGE('',*,*,#445,.F.);
#562=ORIENTED_EDGE('',*,*,#442,.F.);
#563=ORIENTED_EDGE('',*,*,#446,.F.);
#564=ORIENTED_EDGE('',*,*,#447,.T.);
#565=ORIENTED_EDGE('',*,*,#448,.F.);
#566=ORIENTED_EDGE('',*,*,#449,.F.);
#567=ORIENTED_EDGE('',*,*,#450,.F.);
#568=ORIENTED_EDGE('',*,*,#451,.T.);
#569=ORIENTED_EDGE('',*,*,#452,.F.);
#570=ORIENTED_EDGE('',*,*,#447,.F.);
#571=ORIENTED_EDGE('',*,*,#453,.F.);
#572=ORIENTED_EDGE('',*,*,#454,.T.);
#573=ORIENTED_EDGE('',*,*,#455,.F.);
#574=ORIENTED_EDGE('',*,*,#451,.F.);
#575=ORIENTED_EDGE('',*,*,#456,.F.);
#576=ORIENTED_EDGE('',*,*,#449,.T.);
#577=ORIENTED_EDGE('',*,*,#457,.F.);
#578=ORIENTED_EDGE('',*,*,#454,.F.);
#579=ORIENTED_EDGE('',*,*,#458,.F.);
#580=ORIENTED_EDGE('',*,*,#459,.T.);
#581=ORIENTED_EDGE('',*,*,#460,.F.);
#582=ORIENTED_EDGE('',*,*,#461,.F.);
#583=ORIENTED_EDGE('',*,*,#462,.F.);
#584=ORIENTED_EDGE('',*,*,#463,.T.);
#585=ORIENTED_EDGE('',*,*,#464,.F.);
#586=ORIENTED_EDGE('',*,*,#459,.F.);
#587=ORIENTED_EDGE('',*,*,#465,.F.);
#588=ORIENTED_EDGE('',*,*,#466,.T.);
#589=ORIENTED_EDGE('',*,*,#467,.F.);
#590=ORIENTED_EDGE('',*,*,#463,.F.);
#591=ORIENTED_EDGE('',*,*,#468,.F.);
#592=ORIENTED_EDGE('',*,*,#461,.T.);
#593=ORIENTED_EDGE('',*,*,#469,.F.);
#594=ORIENTED_EDGE('',*,*,#466,.F.);
#595=ORIENTED_EDGE('',*,*,#470,.F.);
#596=ORIENTED_EDGE('',*,*,#471,.T.);
#597=ORIENTED_EDGE('',*,*,#472,.F.);
#598=ORIENTED_EDGE('',*,*,#473,.F.);
#599=ORIENTED_EDGE('',*,*,#474,.F.);
#600=ORIENTED_EDGE('',*,*,#475,.T.);
#601=ORIENTED_EDGE('',*,*,#476,.F.);
#602=ORIENTED_EDGE('',*,*,#471,.F.);
#603=ORIENTED_EDGE('',*,*,#477,.F.);
#604=ORIENTED_EDGE('',*,*,#478,.T.);
#605=ORIENTED_EDGE('',*,*,#479,.F.);
#606=ORIENTED_EDGE('',*,*,#475,.F.);
#607=ORIENTED_EDGE('',*,*,#480,.F.);
#608=ORIENTED_EDGE('',*,*,#473,.T.);
#609=ORIENTED_EDGE('',*,*,#481,.F.);
#610=ORIENTED_EDGE('',*,*,#478,.F.);
#611=ORIENTED_EDGE('',*,*,#482,.F.);
#612=ORIENTED_EDGE('',*,*,#483,.T.);
#613=ORIENTED_EDGE('',*,*,#484,.F.);
#614=ORIENTED_EDGE('',*,*,#483,.F.);
#615=ORIENTED_EDGE('',*,*,#485,.F.);
#616=ORIENTED_EDGE('',*,*,#486,.T.);
#617=ORIENTED_EDGE('',*,*,#487,.F.);
#618=ORIENTED_EDGE('',*,*,#486,.F.);
#619=ORIENTED_EDGE('',*,*,#488,.F.);
#620=ORIENTED_EDGE('',*,*,#489,.T.);
#621=ORIENTED_EDGE('',*,*,#490,.F.);
#622=ORIENTED_EDGE('',*,*,#489,.F.);
#623=ORIENTED_EDGE('',*,*,#491,.F.);
#624=ORIENTED_EDGE('',*,*,#492,.T.);
#625=ORIENTED_EDGE('',*,*,#493,.F.);
#626=ORIENTED_EDGE('',*,*,#492,.F.);
#627=ORIENTED_EDGE('',*,*,#494,.F.);
#628=ORIENTED_EDGE('',*,*,#495,.T.);
#629=ORIENTED_EDGE('',*,*,#496,.F.);
#630=ORIENTED_EDGE('',*,*,#497,.T.);
#631=ORIENTED_EDGE('',*,*,#498,.F.);
#632=ORIENTED_EDGE('',*,*,#499,.T.);
#633=ORIENTED_EDGE('',*,*,#500,.F.);
#634=ORIENTED_EDGE('',*,*,#495,.F.);
#635=ORIENTED_EDGE('',*,*,#494,.T.);
#636=ORIENTED_EDGE('',*,*,#501,.T.);
#637=ORIENTED_EDGE('',*,*,#502,.F.);
#638=ORIENTED_EDGE('',*,*,#503,.T.);
#639=ORIENTED_EDGE('',*,*,#504,.F.);
#640=ORIENTED_EDGE('',*,*,#503,.F.);
#641=ORIENTED_EDGE('',*,*,#505,.F.);
#642=ORIENTED_EDGE('',*,*,#506,.T.);
#643=ORIENTED_EDGE('',*,*,#507,.F.);
#644=ORIENTED_EDGE('',*,*,#506,.F.);
#645=ORIENTED_EDGE('',*,*,#508,.F.);
#646=ORIENTED_EDGE('',*,*,#509,.T.);
#647=ORIENTED_EDGE('',*,*,#510,.F.);
#648=ORIENTED_EDGE('',*,*,#509,.F.);
#649=ORIENTED_EDGE('',*,*,#511,.F.);
#650=ORIENTED_EDGE('',*,*,#512,.T.);
#651=ORIENTED_EDGE('',*,*,#513,.F.);
#652=ORIENTED_EDGE('',*,*,#512,.F.);
#653=ORIENTED_EDGE('',*,*,#514,.F.);
#654=ORIENTED_EDGE('',*,*,#515,.T.);
#655=ORIENTED_EDGE('',*,*,#516,.F.);
#656=ORIENTED_EDGE('',*,*,#515,.F.);
#657=ORIENTED_EDGE('',*,*,#517,.F.);
#658=ORIENTED_EDGE('',*,*,#518,.T.);
#659=ORIENTED_EDGE('',*,*,#519,.F.);
#660=ORIENTED_EDGE('',*,*,#518,.F.);
#661=ORIENTED_EDGE('',*,*,#520,.F.);
#662=ORIENTED_EDGE('',*,*,#521,.T.);
#663=ORIENTED_EDGE('',*,*,#522,.F.);
#664=ORIENTED_EDGE('',*,*,#521,.F.);
#665=ORIENTED_EDGE('',*,*,#501,.F.);
#666=ORIENTED_EDGE('',*,*,#523,.T.);
#667=ORIENTED_EDGE('',*,*,#524,.F.);
#668=ORIENTED_EDGE('',*,*,#523,.F.);
#669=ORIENTED_EDGE('',*,*,#525,.F.);
#670=ORIENTED_EDGE('',*,*,#526,.T.);
#671=ORIENTED_EDGE('',*,*,#499,.F.);
#672=ORIENTED_EDGE('',*,*,#527,.F.);
#673=ORIENTED_EDGE('',*,*,#528,.F.);
#674=ORIENTED_EDGE('',*,*,#527,.T.);
#675=ORIENTED_EDGE('',*,*,#529,.F.);
#676=ORIENTED_EDGE('',*,*,#530,.F.);
#677=ORIENTED_EDGE('',*,*,#531,.F.);
#678=ORIENTED_EDGE('',*,*,#530,.T.);
#679=ORIENTED_EDGE('',*,*,#532,.F.);
#680=ORIENTED_EDGE('',*,*,#533,.F.);
#681=ORIENTED_EDGE('',*,*,#534,.F.);
#682=ORIENTED_EDGE('',*,*,#533,.T.);
#683=ORIENTED_EDGE('',*,*,#535,.F.);
#684=ORIENTED_EDGE('',*,*,#526,.F.);
#685=ORIENTED_EDGE('',*,*,#498,.T.);
#686=ORIENTED_EDGE('',*,*,#536,.T.);
#687=ORIENTED_EDGE('',*,*,#537,.T.);
#688=ORIENTED_EDGE('',*,*,#538,.T.);
#689=ORIENTED_EDGE('',*,*,#496,.T.);
#690=ORIENTED_EDGE('',*,*,#500,.T.);
#691=ORIENTED_EDGE('',*,*,#535,.T.);
#692=ORIENTED_EDGE('',*,*,#532,.T.);
#693=ORIENTED_EDGE('',*,*,#529,.T.);
#694=ORIENTED_EDGE('',*,*,#520,.T.);
#695=ORIENTED_EDGE('',*,*,#525,.T.);
#696=ORIENTED_EDGE('',*,*,#528,.T.);
#697=ORIENTED_EDGE('',*,*,#531,.T.);
#698=ORIENTED_EDGE('',*,*,#534,.T.);
#699=ORIENTED_EDGE('',*,*,#482,.T.);
#700=ORIENTED_EDGE('',*,*,#485,.T.);
#701=ORIENTED_EDGE('',*,*,#488,.T.);
#702=ORIENTED_EDGE('',*,*,#491,.T.);
#703=ORIENTED_EDGE('',*,*,#524,.T.);
#704=ORIENTED_EDGE('',*,*,#446,.T.);
#705=ORIENTED_EDGE('',*,*,#456,.T.);
#706=ORIENTED_EDGE('',*,*,#453,.T.);
#707=ORIENTED_EDGE('',*,*,#450,.T.);
#708=ORIENTED_EDGE('',*,*,#470,.T.);
#709=ORIENTED_EDGE('',*,*,#480,.T.);
#710=ORIENTED_EDGE('',*,*,#477,.T.);
#711=ORIENTED_EDGE('',*,*,#474,.T.);
#712=ORIENTED_EDGE('',*,*,#502,.T.);
#713=ORIENTED_EDGE('',*,*,#508,.T.);
#714=ORIENTED_EDGE('',*,*,#517,.T.);
#715=ORIENTED_EDGE('',*,*,#539,.F.);
#716=ORIENTED_EDGE('',*,*,#540,.T.);
#717=ORIENTED_EDGE('',*,*,#538,.F.);
#718=ORIENTED_EDGE('',*,*,#541,.F.);
#719=ORIENTED_EDGE('',*,*,#542,.T.);
#720=ORIENTED_EDGE('',*,*,#541,.T.);
#721=ORIENTED_EDGE('',*,*,#537,.F.);
#722=ORIENTED_EDGE('',*,*,#543,.F.);
#723=ORIENTED_EDGE('',*,*,#544,.T.);
#724=ORIENTED_EDGE('',*,*,#543,.T.);
#725=ORIENTED_EDGE('',*,*,#536,.F.);
#726=ORIENTED_EDGE('',*,*,#545,.F.);
#727=ORIENTED_EDGE('',*,*,#546,.T.);
#728=ORIENTED_EDGE('',*,*,#545,.T.);
#729=ORIENTED_EDGE('',*,*,#497,.F.);
#730=ORIENTED_EDGE('',*,*,#540,.F.);
#731=ORIENTED_EDGE('',*,*,#522,.T.);
#732=ORIENTED_EDGE('',*,*,#434,.T.);
#733=ORIENTED_EDGE('',*,*,#444,.T.);
#734=ORIENTED_EDGE('',*,*,#441,.T.);
#735=ORIENTED_EDGE('',*,*,#438,.T.);
#736=ORIENTED_EDGE('',*,*,#458,.T.);
#737=ORIENTED_EDGE('',*,*,#468,.T.);
#738=ORIENTED_EDGE('',*,*,#465,.T.);
#739=ORIENTED_EDGE('',*,*,#462,.T.);
#740=ORIENTED_EDGE('',*,*,#505,.T.);
#741=ORIENTED_EDGE('',*,*,#511,.T.);
#742=ORIENTED_EDGE('',*,*,#514,.T.);
#743=ORIENTED_EDGE('',*,*,#546,.F.);
#744=ORIENTED_EDGE('',*,*,#539,.T.);
#745=ORIENTED_EDGE('',*,*,#542,.F.);
#746=ORIENTED_EDGE('',*,*,#544,.F.);
#747=ORIENTED_EDGE('',*,*,#436,.T.);
#748=ORIENTED_EDGE('',*,*,#440,.T.);
#749=ORIENTED_EDGE('',*,*,#443,.T.);
#750=ORIENTED_EDGE('',*,*,#445,.T.);
#751=ORIENTED_EDGE('',*,*,#448,.T.);
#752=ORIENTED_EDGE('',*,*,#452,.T.);
#753=ORIENTED_EDGE('',*,*,#455,.T.);
#754=ORIENTED_EDGE('',*,*,#457,.T.);
#755=ORIENTED_EDGE('',*,*,#460,.T.);
#756=ORIENTED_EDGE('',*,*,#464,.T.);
#757=ORIENTED_EDGE('',*,*,#467,.T.);
#758=ORIENTED_EDGE('',*,*,#469,.T.);
#759=ORIENTED_EDGE('',*,*,#472,.T.);
#760=ORIENTED_EDGE('',*,*,#476,.T.);
#761=ORIENTED_EDGE('',*,*,#479,.T.);
#762=ORIENTED_EDGE('',*,*,#481,.T.);
#763=ORIENTED_EDGE('',*,*,#484,.T.);
#764=ORIENTED_EDGE('',*,*,#487,.T.);
#765=ORIENTED_EDGE('',*,*,#490,.T.);
#766=ORIENTED_EDGE('',*,*,#493,.T.);
#767=ORIENTED_EDGE('',*,*,#504,.T.);
#768=ORIENTED_EDGE('',*,*,#507,.T.);
#769=ORIENTED_EDGE('',*,*,#510,.T.);
#770=ORIENTED_EDGE('',*,*,#513,.T.);
#771=ORIENTED_EDGE('',*,*,#516,.T.);
#772=ORIENTED_EDGE('',*,*,#519,.T.);
#773=PLANE('',#848);
#774=PLANE('',#852);
#775=PLANE('',#856);
#776=PLANE('',#860);
#777=PLANE('',#864);
#778=PLANE('',#868);
#779=PLANE('',#872);
#780=PLANE('',#876);
#781=PLANE('',#899);
#782=PLANE('',#926);
#783=PLANE('',#930);
#784=PLANE('',#931);
#785=PLANE('',#933);
#786=PLANE('',#934);
#787=PLANE('',#935);
#788=PLANE('',#938);
#789=PLANE('',#941);
#790=PLANE('',#942);
#791=ADVANCED_FACE('',(#122),#773,.F.);
#792=ADVANCED_FACE('',(#123),#97,.F.);
#793=ADVANCED_FACE('',(#124),#774,.F.);
#794=ADVANCED_FACE('',(#125),#98,.F.);
#795=ADVANCED_FACE('',(#126),#775,.F.);
#796=ADVANCED_FACE('',(#127),#99,.F.);
#797=ADVANCED_FACE('',(#128),#776,.F.);
#798=ADVANCED_FACE('',(#129),#100,.F.);
#799=ADVANCED_FACE('',(#130),#777,.F.);
#800=ADVANCED_FACE('',(#131),#101,.F.);
#801=ADVANCED_FACE('',(#132),#778,.F.);
#802=ADVANCED_FACE('',(#133),#102,.F.);
#803=ADVANCED_FACE('',(#134),#779,.F.);
#804=ADVANCED_FACE('',(#135),#103,.F.);
#805=ADVANCED_FACE('',(#136),#780,.F.);
#806=ADVANCED_FACE('',(#137),#104,.F.);
#807=ADVANCED_FACE('',(#138),#105,.F.);
#808=ADVANCED_FACE('',(#139),#106,.F.);
#809=ADVANCED_FACE('',(#140),#107,.F.);
#810=ADVANCED_FACE('',(#141),#108,.F.);
#811=ADVANCED_FACE('',(#142),#109,.T.);
#812=ADVANCED_FACE('',(#143,#15),#781,.T.);
#813=ADVANCED_FACE('',(#144),#110,.F.);
#814=ADVANCED_FACE('',(#145),#111,.F.);
#815=ADVANCED_FACE('',(#146),#112,.F.);
#816=ADVANCED_FACE('',(#147),#113,.F.);
#817=ADVANCED_FACE('',(#148),#114,.F.);
#818=ADVANCED_FACE('',(#149),#115,.F.);
#819=ADVANCED_FACE('',(#150),#116,.F.);
#820=ADVANCED_FACE('',(#151),#117,.F.);
#821=ADVANCED_FACE('',(#152),#118,.T.);
#822=ADVANCED_FACE('',(#153),#782,.T.);
#823=ADVANCED_FACE('',(#154),#119,.T.);
#824=ADVANCED_FACE('',(#155),#783,.T.);
#825=ADVANCED_FACE('',(#156,#16),#784,.T.);
#826=ADVANCED_FACE('',(#157,#17,#18,#19,#20),#785,.T.);
#827=ADVANCED_FACE('',(#158,#21,#22,#23,#24,#25),#786,.T.);
#828=ADVANCED_FACE('',(#159),#787,.T.);
#829=ADVANCED_FACE('',(#160),#120,.T.);
#830=ADVANCED_FACE('',(#161),#788,.T.);
#831=ADVANCED_FACE('',(#162),#121,.T.);
#832=ADVANCED_FACE('',(#163,#26,#27,#28,#29,#30),#789,.T.);
#833=ADVANCED_FACE('',(#164,#31,#32,#33,#34,#35,#36,#37,#38,#39,#40,#41,
#42,#43,#44),#790,.F.);
#834=CLOSED_SHELL('',(#791,#792,#793,#794,#795,#796,#797,#798,#799,#800,
#801,#802,#803,#804,#805,#806,#807,#808,#809,#810,#811,#812,#813,#814,#815,
#816,#817,#818,#819,#820,#821,#822,#823,#824,#825,#826,#827,#828,#829,#830,
#831,#832,#833));
#835=DERIVED_UNIT_ELEMENT(#837,1.);
#836=DERIVED_UNIT_ELEMENT(#1432,-3.);
#837=(
MASS_UNIT()
NAMED_UNIT(*)
SI_UNIT(.KILO.,.GRAM.)
);
#838=DERIVED_UNIT((#835,#836));
#839=MEASURE_REPRESENTATION_ITEM('density measure',
POSITIVE_RATIO_MEASURE(7850.),#838);
#840=PROPERTY_DEFINITION_REPRESENTATION(#845,#842);
#841=PROPERTY_DEFINITION_REPRESENTATION(#846,#843);
#842=REPRESENTATION('material name',(#844),#1429);
#843=REPRESENTATION('density',(#839),#1429);
#844=DESCRIPTIVE_REPRESENTATION_ITEM('\X2\AC15CCA0\X0\','\X2\AC15CCA0\X0\');
#845=PROPERTY_DEFINITION('material property','material name',#1439);
#846=PROPERTY_DEFINITION('material property','density of part',#1439);
#847=AXIS2_PLACEMENT_3D('',#1196,#943,#944);
#848=AXIS2_PLACEMENT_3D('',#1197,#945,#946);
#849=AXIS2_PLACEMENT_3D('',#1206,#951,#952);
#850=AXIS2_PLACEMENT_3D('',#1208,#953,#954);
#851=AXIS2_PLACEMENT_3D('',#1211,#956,#957);
#852=AXIS2_PLACEMENT_3D('',#1212,#958,#959);
#853=AXIS2_PLACEMENT_3D('',#1218,#963,#964);
#854=AXIS2_PLACEMENT_3D('',#1219,#965,#966);
#855=AXIS2_PLACEMENT_3D('',#1220,#967,#968);
#856=AXIS2_PLACEMENT_3D('',#1221,#969,#970);
#857=AXIS2_PLACEMENT_3D('',#1230,#975,#976);
#858=AXIS2_PLACEMENT_3D('',#1232,#977,#978);
#859=AXIS2_PLACEMENT_3D('',#1235,#980,#981);
#860=AXIS2_PLACEMENT_3D('',#1236,#982,#983);
#861=AXIS2_PLACEMENT_3D('',#1242,#987,#988);
#862=AXIS2_PLACEMENT_3D('',#1243,#989,#990);
#863=AXIS2_PLACEMENT_3D('',#1244,#991,#992);
#864=AXIS2_PLACEMENT_3D('',#1245,#993,#994);
#865=AXIS2_PLACEMENT_3D('',#1254,#999,#1000);
#866=AXIS2_PLACEMENT_3D('',#1256,#1001,#1002);
#867=AXIS2_PLACEMENT_3D('',#1259,#1004,#1005);
#868=AXIS2_PLACEMENT_3D('',#1260,#1006,#1007);
#869=AXIS2_PLACEMENT_3D('',#1266,#1011,#1012);
#870=AXIS2_PLACEMENT_3D('',#1267,#1013,#1014);
#871=AXIS2_PLACEMENT_3D('',#1268,#1015,#1016);
#872=AXIS2_PLACEMENT_3D('',#1269,#1017,#1018);
#873=AXIS2_PLACEMENT_3D('',#1278,#1023,#1024);
#874=AXIS2_PLACEMENT_3D('',#1280,#1025,#1026);
#875=AXIS2_PLACEMENT_3D('',#1283,#1028,#1029);
#876=AXIS2_PLACEMENT_3D('',#1284,#1030,#1031);
#877=AXIS2_PLACEMENT_3D('',#1290,#1035,#1036);
#878=AXIS2_PLACEMENT_3D('',#1291,#1037,#1038);
#879=AXIS2_PLACEMENT_3D('',#1292,#1039,#1040);
#880=AXIS2_PLACEMENT_3D('',#1293,#1041,#1042);
#881=AXIS2_PLACEMENT_3D('',#1295,#1043,#1044);
#882=AXIS2_PLACEMENT_3D('',#1298,#1046,#1047);
#883=AXIS2_PLACEMENT_3D('',#1299,#1048,#1049);
#884=AXIS2_PLACEMENT_3D('',#1301,#1050,#1051);
#885=AXIS2_PLACEMENT_3D('',#1304,#1053,#1054);
#886=AXIS2_PLACEMENT_3D('',#1305,#1055,#1056);
#887=AXIS2_PLACEMENT_3D('',#1307,#1057,#1058);
#888=AXIS2_PLACEMENT_3D('',#1310,#1060,#1061);
#889=AXIS2_PLACEMENT_3D('',#1311,#1062,#1063);
#890=AXIS2_PLACEMENT_3D('',#1313,#1064,#1065);
#891=AXIS2_PLACEMENT_3D('',#1316,#1067,#1068);
#892=AXIS2_PLACEMENT_3D('',#1317,#1069,#1070);
#893=AXIS2_PLACEMENT_3D('',#1319,#1071,#1072);
#894=AXIS2_PLACEMENT_3D('',#1323,#1074,#1075);
#895=AXIS2_PLACEMENT_3D('',#1325,#1076,#1077);
#896=AXIS2_PLACEMENT_3D('',#1327,#1078,#1079);
#897=AXIS2_PLACEMENT_3D('',#1329,#1080,#1081);
#898=AXIS2_PLACEMENT_3D('',#1330,#1082,#1083);
#899=AXIS2_PLACEMENT_3D('',#1331,#1084,#1085);
#900=AXIS2_PLACEMENT_3D('',#1333,#1086,#1087);
#901=AXIS2_PLACEMENT_3D('',#1334,#1088,#1089);
#902=AXIS2_PLACEMENT_3D('',#1336,#1090,#1091);
#903=AXIS2_PLACEMENT_3D('',#1339,#1093,#1094);
#904=AXIS2_PLACEMENT_3D('',#1340,#1095,#1096);
#905=AXIS2_PLACEMENT_3D('',#1342,#1097,#1098);
#906=AXIS2_PLACEMENT_3D('',#1345,#1100,#1101);
#907=AXIS2_PLACEMENT_3D('',#1346,#1102,#1103);
#908=AXIS2_PLACEMENT_3D('',#1348,#1104,#1105);
#909=AXIS2_PLACEMENT_3D('',#1351,#1107,#1108);
#910=AXIS2_PLACEMENT_3D('',#1352,#1109,#1110);
#911=AXIS2_PLACEMENT_3D('',#1354,#1111,#1112);
#912=AXIS2_PLACEMENT_3D('',#1357,#1114,#1115);
#913=AXIS2_PLACEMENT_3D('',#1358,#1116,#1117);
#914=AXIS2_PLACEMENT_3D('',#1360,#1118,#1119);
#915=AXIS2_PLACEMENT_3D('',#1363,#1121,#1122);
#916=AXIS2_PLACEMENT_3D('',#1364,#1123,#1124);
#917=AXIS2_PLACEMENT_3D('',#1366,#1125,#1126);
#918=AXIS2_PLACEMENT_3D('',#1369,#1128,#1129);
#919=AXIS2_PLACEMENT_3D('',#1370,#1130,#1131);
#920=AXIS2_PLACEMENT_3D('',#1372,#1132,#1133);
#921=AXIS2_PLACEMENT_3D('',#1375,#1135,#1136);
#922=AXIS2_PLACEMENT_3D('',#1376,#1137,#1138);
#923=AXIS2_PLACEMENT_3D('',#1379,#1140,#1141);
#924=AXIS2_PLACEMENT_3D('',#1380,#1142,#1143);
#925=AXIS2_PLACEMENT_3D('',#1383,#1144,#1145);
#926=AXIS2_PLACEMENT_3D('',#1386,#1148,#1149);
#927=AXIS2_PLACEMENT_3D('',#1392,#1153,#1154);
#928=AXIS2_PLACEMENT_3D('',#1394,#1155,#1156);
#929=AXIS2_PLACEMENT_3D('',#1396,#1157,#1158);
#930=AXIS2_PLACEMENT_3D('',#1398,#1160,#1161);
#931=AXIS2_PLACEMENT_3D('',#1401,#1164,#1165);
#932=AXIS2_PLACEMENT_3D('',#1405,#1167,#1168);
#933=AXIS2_PLACEMENT_3D('',#1407,#1170,#1171);
#934=AXIS2_PLACEMENT_3D('',#1408,#1172,#1173);
#935=AXIS2_PLACEMENT_3D('',#1409,#1174,#1175);
#936=AXIS2_PLACEMENT_3D('',#1415,#1179,#1180);
#937=AXIS2_PLACEMENT_3D('',#1417,#1181,#1182);
#938=AXIS2_PLACEMENT_3D('',#1419,#1184,#1185);
#939=AXIS2_PLACEMENT_3D('',#1423,#1188,#1189);
#940=AXIS2_PLACEMENT_3D('',#1424,#1190,#1191);
#941=AXIS2_PLACEMENT_3D('',#1425,#1192,#1193);
#942=AXIS2_PLACEMENT_3D('',#1426,#1194,#1195);
#943=DIRECTION('axis',(0.,0.,1.));
#944=DIRECTION('refdir',(1.,0.,0.));
#945=DIRECTION('center_axis',(-1.59872057855921E-14,-1.,0.));
#946=DIRECTION('ref_axis',(-1.,1.59872057855921E-14,0.));
#947=DIRECTION('',(-1.,1.59872057855921E-14,0.));
#948=DIRECTION('',(0.,0.,-1.));
#949=DIRECTION('',(1.,-1.59872057855921E-14,0.));
#950=DIRECTION('',(0.,0.,-1.));
#951=DIRECTION('center_axis',(0.,0.,-1.));
#952=DIRECTION('ref_axis',(0.,-1.,0.));
#953=DIRECTION('center_axis',(0.,0.,-1.));
#954=DIRECTION('ref_axis',(0.,-1.,0.));
#955=DIRECTION('',(0.,0.,-1.));
#956=DIRECTION('center_axis',(0.,0.,1.));
#957=DIRECTION('ref_axis',(0.,-1.,0.));
#958=DIRECTION('center_axis',(1.9095843796532E-14,1.,0.));
#959=DIRECTION('ref_axis',(1.,-1.9095843796532E-14,0.));
#960=DIRECTION('',(1.,-1.9095843796532E-14,0.));
#961=DIRECTION('',(0.,0.,-1.));
#962=DIRECTION('',(-1.,1.9095843796532E-14,0.));
#963=DIRECTION('center_axis',(0.,0.,-1.));
#964=DIRECTION('ref_axis',(-0.99999999999882,1.53604461087668E-6,0.));
#965=DIRECTION('center_axis',(0.,0.,-1.));
#966=DIRECTION('ref_axis',(1.62820320292922E-6,0.999999999998675,0.));
#967=DIRECTION('center_axis',(0.,0.,1.));
#968=DIRECTION('ref_axis',(1.62820320292922E-6,0.999999999998675,0.));
#969=DIRECTION('center_axis',(0.,-1.,0.));
#970=DIRECTION('ref_axis',(-1.,0.,0.));
#971=DIRECTION('',(-1.,0.,0.));
#972=DIRECTION('',(0.,0.,-1.));
#973=DIRECTION('',(1.,0.,0.));
#974=DIRECTION('',(0.,0.,-1.));
#975=DIRECTION('center_axis',(0.,0.,-1.));
#976=DIRECTION('ref_axis',(0.,-1.,0.));
#977=DIRECTION('center_axis',(0.,0.,-1.));
#978=DIRECTION('ref_axis',(0.,-1.,0.));
#979=DIRECTION('',(0.,0.,-1.));
#980=DIRECTION('center_axis',(0.,0.,1.));
#981=DIRECTION('ref_axis',(0.,-1.,0.));
#982=DIRECTION('center_axis',(0.,1.,0.));
#983=DIRECTION('ref_axis',(1.,0.,0.));
#984=DIRECTION('',(1.,0.,0.));
#985=DIRECTION('',(0.,0.,-1.));
#986=DIRECTION('',(-1.,0.,0.));
#987=DIRECTION('center_axis',(0.,0.,-1.));
#988=DIRECTION('ref_axis',(0.,1.,0.));
#989=DIRECTION('center_axis',(0.,0.,-1.));
#990=DIRECTION('ref_axis',(0.,1.,0.));
#991=DIRECTION('center_axis',(0.,0.,1.));
#992=DIRECTION('ref_axis',(0.,1.,0.));
#993=DIRECTION('center_axis',(1.15463195421284E-14,-1.,0.));
#994=DIRECTION('ref_axis',(-1.,-1.15463195421284E-14,0.));
#995=DIRECTION('',(-1.,-1.15463195421284E-14,0.));
#996=DIRECTION('',(0.,0.,-1.));
#997=DIRECTION('',(1.,1.15463195421284E-14,0.));
#998=DIRECTION('',(0.,0.,-1.));
#999=DIRECTION('center_axis',(0.,0.,-1.));
#1000=DIRECTION('ref_axis',(0.,-1.,0.));
#1001=DIRECTION('center_axis',(0.,0.,-1.));
#1002=DIRECTION('ref_axis',(0.,-1.,0.));
#1003=DIRECTION('',(0.,0.,-1.));
#1004=DIRECTION('center_axis',(0.,0.,1.));
#1005=DIRECTION('ref_axis',(0.,-1.,0.));
#1006=DIRECTION('center_axis',(1.15463195421284E-14,1.,0.));
#1007=DIRECTION('ref_axis',(1.,-1.15463195421284E-14,0.));
#1008=DIRECTION('',(1.,-1.15463195421284E-14,0.));
#1009=DIRECTION('',(0.,0.,-1.));
#1010=DIRECTION('',(-1.,1.15463195421284E-14,0.));
#1011=DIRECTION('center_axis',(0.,0.,-1.));
#1012=DIRECTION('ref_axis',(2.22044604925015E-16,1.,0.));
#1013=DIRECTION('center_axis',(0.,0.,-1.));
#1014=DIRECTION('ref_axis',(2.22044604925015E-16,1.,0.));
#1015=DIRECTION('center_axis',(0.,0.,1.));
#1016=DIRECTION('ref_axis',(2.22044604925015E-16,1.,0.));
#1017=DIRECTION('center_axis',(0.,-1.,0.));
#1018=DIRECTION('ref_axis',(-1.,0.,0.));
#1019=DIRECTION('',(-1.,0.,0.));
#1020=DIRECTION('',(0.,0.,-1.));
#1021=DIRECTION('',(1.,0.,0.));
#1022=DIRECTION('',(0.,0.,-1.));
#1023=DIRECTION('center_axis',(0.,0.,-1.));
#1024=DIRECTION('ref_axis',(0.999997908154783,0.00204540608625784,0.));
#1025=DIRECTION('center_axis',(0.,0.,-1.));
#1026=DIRECTION('ref_axis',(0.,-1.,0.));
#1027=DIRECTION('',(0.,0.,-1.));
#1028=DIRECTION('center_axis',(0.,0.,1.));
#1029=DIRECTION('ref_axis',(0.,-1.,0.));
#1030=DIRECTION('center_axis',(-0.00409080361518117,0.999991632627885,0.));
#1031=DIRECTION('ref_axis',(0.999991632627885,0.00409080361518117,0.));
#1032=DIRECTION('',(0.999991632627885,0.00409080361518117,0.));
#1033=DIRECTION('',(0.,0.,-1.));
#1034=DIRECTION('',(-0.999991632627885,-0.00409080361518117,0.));
#1035=DIRECTION('center_axis',(0.,0.,-1.));
#1036=DIRECTION('ref_axis',(-0.996083777102295,0.0884144162092641,0.));
#1037=DIRECTION('center_axis',(0.,0.,-1.));
#1038=DIRECTION('ref_axis',(0.176137537575578,0.984365566167779,0.));
#1039=DIRECTION('center_axis',(0.,0.,1.));
#1040=DIRECTION('ref_axis',(0.176137537575578,0.984365566167779,0.));
#1041=DIRECTION('center_axis',(0.,0.,-1.));
#1042=DIRECTION('ref_axis',(-1.,0.,0.));
#1043=DIRECTION('center_axis',(0.,0.,-1.));
#1044=DIRECTION('ref_axis',(-1.,0.,0.));
#1045=DIRECTION('',(0.,0.,-1.));
#1046=DIRECTION('center_axis',(0.,0.,1.));
#1047=DIRECTION('ref_axis',(-1.,0.,0.));
#1048=DIRECTION('center_axis',(0.,0.,-1.));
#1049=DIRECTION('ref_axis',(-1.,0.,0.));
#1050=DIRECTION('center_axis',(0.,0.,-1.));
#1051=DIRECTION('ref_axis',(-1.,0.,0.));
#1052=DIRECTION('',(0.,0.,-1.));
#1053=DIRECTION('center_axis',(0.,0.,1.));
#1054=DIRECTION('ref_axis',(-1.,0.,0.));
#1055=DIRECTION('center_axis',(0.,0.,-1.));
#1056=DIRECTION('ref_axis',(-1.,0.,0.));
#1057=DIRECTION('center_axis',(0.,0.,-1.));
#1058=DIRECTION('ref_axis',(-1.,0.,0.));
#1059=DIRECTION('',(0.,0.,-1.));
#1060=DIRECTION('center_axis',(0.,0.,1.));
#1061=DIRECTION('ref_axis',(-1.,0.,0.));
#1062=DIRECTION('center_axis',(0.,0.,-1.));
#1063=DIRECTION('ref_axis',(-1.,0.,0.));
#1064=DIRECTION('center_axis',(0.,0.,-1.));
#1065=DIRECTION('ref_axis',(-1.,0.,0.));
#1066=DIRECTION('',(0.,0.,-1.));
#1067=DIRECTION('center_axis',(0.,0.,1.));
#1068=DIRECTION('ref_axis',(-1.,0.,0.));
#1069=DIRECTION('center_axis',(0.,0.,1.));
#1070=DIRECTION('ref_axis',(-1.,0.,0.));
#1071=DIRECTION('center_axis',(0.,0.,1.));
#1072=DIRECTION('ref_axis',(-1.,0.,0.));
#1073=DIRECTION('',(0.,0.,-1.));
#1074=DIRECTION('center_axis',(0.,0.,-1.));
#1075=DIRECTION('ref_axis',(-1.,0.,0.));
#1076=DIRECTION('center_axis',(0.,0.,1.));
#1077=DIRECTION('ref_axis',(0.99876463134855,0.0496911578371381,0.));
#1078=DIRECTION('center_axis',(0.,0.,-1.));
#1079=DIRECTION('ref_axis',(-1.,0.,0.));
#1080=DIRECTION('center_axis',(0.,0.,1.));
#1081=DIRECTION('ref_axis',(-0.964342458842673,-0.26465755623686,0.));
#1082=DIRECTION('center_axis',(0.,0.,-1.));
#1083=DIRECTION('ref_axis',(-1.,0.,0.));
#1084=DIRECTION('center_axis',(0.,0.,1.));
#1085=DIRECTION('ref_axis',(-1.,0.,0.));
#1086=DIRECTION('center_axis',(0.,0.,-1.));
#1087=DIRECTION('ref_axis',(-1.,0.,0.));
#1088=DIRECTION('center_axis',(0.,0.,-1.));
#1089=DIRECTION('ref_axis',(-1.,0.,0.));
#1090=DIRECTION('center_axis',(0.,0.,-1.));
#1091=DIRECTION('ref_axis',(-1.,0.,0.));
#1092=DIRECTION('',(0.,0.,-1.));
#1093=DIRECTION('center_axis',(0.,0.,1.));
#1094=DIRECTION('ref_axis',(-1.,0.,0.));
#1095=DIRECTION('center_axis',(0.,0.,-1.));
#1096=DIRECTION('ref_axis',(-1.,0.,0.));
#1097=DIRECTION('center_axis',(0.,0.,-1.));
#1098=DIRECTION('ref_axis',(-1.,0.,0.));
#1099=DIRECTION('',(0.,0.,-1.));
#1100=DIRECTION('center_axis',(0.,0.,1.));
#1101=DIRECTION('ref_axis',(-1.,0.,0.));
#1102=DIRECTION('center_axis',(0.,0.,-1.));
#1103=DIRECTION('ref_axis',(-1.,0.,0.));
#1104=DIRECTION('center_axis',(0.,0.,-1.));
#1105=DIRECTION('ref_axis',(-1.,0.,0.));
#1106=DIRECTION('',(0.,0.,-1.));
#1107=DIRECTION('center_axis',(0.,0.,1.));
#1108=DIRECTION('ref_axis',(-1.,0.,0.));
#1109=DIRECTION('center_axis',(0.,0.,-1.));
#1110=DIRECTION('ref_axis',(-1.,0.,0.));
#1111=DIRECTION('center_axis',(0.,0.,-1.));
#1112=DIRECTION('ref_axis',(-1.,0.,0.));
#1113=DIRECTION('',(0.,0.,-1.));
#1114=DIRECTION('center_axis',(0.,0.,1.));
#1115=DIRECTION('ref_axis',(-1.,0.,0.));
#1116=DIRECTION('center_axis',(0.,0.,-1.));
#1117=DIRECTION('ref_axis',(-1.,0.,0.));
#1118=DIRECTION('center_axis',(0.,0.,-1.));
#1119=DIRECTION('ref_axis',(-1.,0.,0.));
#1120=DIRECTION('',(0.,0.,-1.));
#1121=DIRECTION('center_axis',(0.,0.,1.));
#1122=DIRECTION('ref_axis',(-1.,0.,0.));
#1123=DIRECTION('center_axis',(0.,0.,-1.));
#1124=DIRECTION('ref_axis',(-1.,0.,0.));
#1125=DIRECTION('center_axis',(0.,0.,-1.));
#1126=DIRECTION('ref_axis',(-1.,0.,0.));
#1127=DIRECTION('',(0.,0.,-1.));
#1128=DIRECTION('center_axis',(0.,0.,1.));
#1129=DIRECTION('ref_axis',(-1.,0.,0.));
#1130=DIRECTION('center_axis',(0.,0.,1.));
#1131=DIRECTION('ref_axis',(-1.,0.,0.));
#1132=DIRECTION('center_axis',(0.,0.,-1.));
#1133=DIRECTION('ref_axis',(-1.,0.,0.));
#1134=DIRECTION('',(0.,0.,-1.));
#1135=DIRECTION('center_axis',(0.,0.,1.));
#1136=DIRECTION('ref_axis',(-1.,0.,0.));
#1137=DIRECTION('center_axis',(0.,0.,1.));
#1138=DIRECTION('ref_axis',(-1.,0.,0.));
#1139=DIRECTION('',(0.,0.,-1.));
#1140=DIRECTION('center_axis',(0.,0.,1.));
#1141=DIRECTION('ref_axis',(-1.,0.,0.));
#1142=DIRECTION('center_axis',(0.,0.,1.));
#1143=DIRECTION('ref_axis',(-0.964342458842673,-0.26465755623686,0.));
#1144=DIRECTION('center_axis',(0.,0.,-1.));
#1145=DIRECTION('ref_axis',(-0.964342458842673,-0.26465755623686,0.));
#1146=DIRECTION('',(0.,0.,1.));
#1147=DIRECTION('',(0.,0.,1.));
#1148=DIRECTION('center_axis',(0.99876463134855,-0.0496911578371374,0.));
#1149=DIRECTION('ref_axis',(0.0496911578371374,0.99876463134855,0.));
#1150=DIRECTION('',(-0.0496911578371374,-0.99876463134855,0.));
#1151=DIRECTION('',(0.0496911578371374,0.99876463134855,0.));
#1152=DIRECTION('',(0.,0.,1.));
#1153=DIRECTION('center_axis',(0.,0.,1.));
#1154=DIRECTION('ref_axis',(0.943457911682335,0.331492336086383,0.));
#1155=DIRECTION('center_axis',(0.,0.,-1.));
#1156=DIRECTION('ref_axis',(0.943457911682335,0.331492336086383,0.));
#1157=DIRECTION('center_axis',(0.,0.,1.));
#1158=DIRECTION('ref_axis',(0.943457911682335,0.331492336086383,0.));
#1159=DIRECTION('',(0.,0.,1.));
#1160=DIRECTION('center_axis',(-0.99876463134855,-0.0496911578371372,0.));
#1161=DIRECTION('ref_axis',(0.0496911578371372,-0.99876463134855,0.));
#1162=DIRECTION('',(-0.0496911578371372,0.99876463134855,0.));
#1163=DIRECTION('',(0.0496911578371372,-0.99876463134855,0.));
#1164=DIRECTION('center_axis',(0.,0.,1.));
#1165=DIRECTION('ref_axis',(-1.,0.,0.));
#1166=DIRECTION('',(-0.0496911578371373,-0.99876463134855,0.));
#1167=DIRECTION('center_axis',(0.,0.,1.));
#1168=DIRECTION('ref_axis',(-1.,0.,0.));
#1169=DIRECTION('',(-0.0496911578371373,0.99876463134855,0.));
#1170=DIRECTION('center_axis',(0.,0.,1.));
#1171=DIRECTION('ref_axis',(1.,0.,0.));
#1172=DIRECTION('center_axis',(0.,0.,1.));
#1173=DIRECTION('ref_axis',(1.,0.,0.));
#1174=DIRECTION('center_axis',(0.99876463134855,0.0496911578371373,0.));
#1175=DIRECTION('ref_axis',(-0.0496911578371373,0.99876463134855,0.));
#1176=DIRECTION('',(0.0496911578371373,-0.99876463134855,0.));
#1177=DIRECTION('',(0.,0.,1.));
#1178=DIRECTION('',(0.,0.,1.));
#1179=DIRECTION('center_axis',(0.,0.,1.));
#1180=DIRECTION('ref_axis',(-1.,0.,0.));
#1181=DIRECTION('center_axis',(0.,0.,1.));
#1182=DIRECTION('ref_axis',(-1.,0.,0.));
#1183=DIRECTION('',(0.,0.,1.));
#1184=DIRECTION('center_axis',(-0.99876463134855,0.0496911578371373,0.));
#1185=DIRECTION('ref_axis',(-0.0496911578371373,-0.99876463134855,0.));
#1186=DIRECTION('',(-0.0496911578371373,-0.99876463134855,0.));
#1187=DIRECTION('',(0.,0.,1.));
#1188=DIRECTION('center_axis',(0.,0.,1.));
#1189=DIRECTION('ref_axis',(0.99876463134855,0.0496911578371381,0.));
#1190=DIRECTION('center_axis',(0.,0.,1.));
#1191=DIRECTION('ref_axis',(0.99876463134855,0.0496911578371381,0.));
#1192=DIRECTION('center_axis',(0.,0.,1.));
#1193=DIRECTION('ref_axis',(1.,0.,0.));
#1194=DIRECTION('center_axis',(0.,0.,1.));
#1195=DIRECTION('ref_axis',(1.,0.,0.));
#1196=CARTESIAN_POINT('',(0.,0.,0.));
#1197=CARTESIAN_POINT('Origin',(5.,-18.4999999999963,2.));
#1198=CARTESIAN_POINT('',(5.,-18.4999999999963,2.));
#1199=CARTESIAN_POINT('',(-5.00000360971464,-18.5000000000007,2.));
#1200=CARTESIAN_POINT('',(2.49999999999947,-18.4999999999962,2.));
#1201=CARTESIAN_POINT('',(5.,-18.4999999999963,0.));
#1202=CARTESIAN_POINT('',(5.,-18.4999999999963,2.));
#1203=CARTESIAN_POINT('',(-5.00000360971464,-18.5000000000007,0.));
#1204=CARTESIAN_POINT('',(2.49999999999947,-18.4999999999962,0.));
#1205=CARTESIAN_POINT('',(-5.00000360971464,-18.5000000000007,2.));
#1206=CARTESIAN_POINT('Origin',(5.,-16.,2.));
#1207=CARTESIAN_POINT('',(5.,-13.5000000000037,2.));
#1208=CARTESIAN_POINT('Origin',(5.,-16.,2.));
#1209=CARTESIAN_POINT('',(5.,-13.5000000000037,0.));
#1210=CARTESIAN_POINT('',(5.,-13.5000000000037,2.));
#1211=CARTESIAN_POINT('Origin',(5.,-16.,0.));
#1212=CARTESIAN_POINT('Origin',(-4.99999592949159,-13.5000000000035,2.));
#1213=CARTESIAN_POINT('',(-4.99999592949159,-13.5000000000035,2.));
#1214=CARTESIAN_POINT('',(-2.49999796474638,-13.5000000000036,2.));
#1215=CARTESIAN_POINT('',(-4.99999592949159,-13.5000000000035,0.));
#1216=CARTESIAN_POINT('',(-4.99999592949159,-13.5000000000035,2.));
#1217=CARTESIAN_POINT('',(-2.49999796474638,-13.5000000000036,0.));
#1218=CARTESIAN_POINT('Origin',(-4.9999999999996,-16.0000000000018,2.));
#1219=CARTESIAN_POINT('Origin',(-4.9999999999996,-16.0000000000018,2.));
#1220=CARTESIAN_POINT('Origin',(-4.9999999999996,-16.0000000000018,0.));
#1221=CARTESIAN_POINT('Origin',(5.,107.500001490116,2.));
#1222=CARTESIAN_POINT('',(5.,107.500001490116,2.));
#1223=CARTESIAN_POINT('',(-5.,107.500001490116,2.));
#1224=CARTESIAN_POINT('',(2.5,107.500001490116,2.));
#1225=CARTESIAN_POINT('',(5.,107.500001490116,0.));
#1226=CARTESIAN_POINT('',(5.,107.500001490116,2.));
#1227=CARTESIAN_POINT('',(-5.,107.500001490116,0.));
#1228=CARTESIAN_POINT('',(2.5,107.500001490116,0.));
#1229=CARTESIAN_POINT('',(-5.,107.500001490116,2.));
#1230=CARTESIAN_POINT('Origin',(5.,110.000001490116,2.));
#1231=CARTESIAN_POINT('',(5.,112.500001490116,2.));
#1232=CARTESIAN_POINT('Origin',(5.,110.000001490116,2.));
#1233=CARTESIAN_POINT('',(5.,112.500001490116,0.));
#1234=CARTESIAN_POINT('',(5.,112.500001490116,2.));
#1235=CARTESIAN_POINT('Origin',(5.,110.000001490116,0.));
#1236=CARTESIAN_POINT('Origin',(-5.,112.500001490116,2.));
#1237=CARTESIAN_POINT('',(-5.,112.500001490116,2.));
#1238=CARTESIAN_POINT('',(-2.5,112.500001490116,2.));
#1239=CARTESIAN_POINT('',(-5.,112.500001490116,0.));
#1240=CARTESIAN_POINT('',(-5.,112.500001490116,2.));
#1241=CARTESIAN_POINT('',(-2.5,112.500001490116,0.));
#1242=CARTESIAN_POINT('Origin',(-5.,110.000001490116,2.));
#1243=CARTESIAN_POINT('Origin',(-5.,110.000001490116,2.));
#1244=CARTESIAN_POINT('Origin',(-5.,110.000001490116,0.));
#1245=CARTESIAN_POINT('Origin',(5.,13.4999999999999,2.));
#1246=CARTESIAN_POINT('',(5.,13.4999999999999,2.));
#1247=CARTESIAN_POINT('',(-4.99999992549419,13.4999999999998,2.));
#1248=CARTESIAN_POINT('',(2.5000000000002,13.4999999999999,2.));
#1249=CARTESIAN_POINT('',(5.,13.4999999999999,0.));
#1250=CARTESIAN_POINT('',(5.,13.4999999999999,2.));
#1251=CARTESIAN_POINT('',(-4.99999992549419,13.4999999999998,0.));
#1252=CARTESIAN_POINT('',(2.5000000000002,13.4999999999999,0.));
#1253=CARTESIAN_POINT('',(-4.99999992549419,13.4999999999998,2.));
#1254=CARTESIAN_POINT('Origin',(5.,16.,2.));
#1255=CARTESIAN_POINT('',(5.,18.5000000000001,2.));
#1256=CARTESIAN_POINT('Origin',(5.,16.,2.));
#1257=CARTESIAN_POINT('',(5.,18.5000000000001,0.));
#1258=CARTESIAN_POINT('',(5.,18.5000000000001,2.));
#1259=CARTESIAN_POINT('Origin',(5.,16.,0.));
#1260=CARTESIAN_POINT('Origin',(-4.99999992549419,18.5000000000002,2.));
#1261=CARTESIAN_POINT('',(-4.99999992549419,18.5000000000002,2.));
#1262=CARTESIAN_POINT('',(-2.49999996274726,18.5000000000002,2.));
#1263=CARTESIAN_POINT('',(-4.99999992549419,18.5000000000002,0.));
#1264=CARTESIAN_POINT('',(-4.99999992549419,18.5000000000002,2.));
#1265=CARTESIAN_POINT('',(-2.49999996274726,18.5000000000002,0.));
#1266=CARTESIAN_POINT('Origin',(-4.99999992549419,16.,2.));
#1267=CARTESIAN_POINT('Origin',(-4.99999992549419,16.,2.));
#1268=CARTESIAN_POINT('Origin',(-4.99999992549419,16.,0.));
#1269=CARTESIAN_POINT('Origin',(5.,87.5000014901161,2.));
#1270=CARTESIAN_POINT('',(5.,87.5000014901161,2.));
#1271=CARTESIAN_POINT('',(-4.99999693640389,87.5000014901181,2.));
#1272=CARTESIAN_POINT('',(2.5,87.5000014901161,2.));
#1273=CARTESIAN_POINT('',(5.,87.5000014901161,0.));
#1274=CARTESIAN_POINT('',(5.,87.5000014901161,2.));
#1275=CARTESIAN_POINT('',(-4.99999693640389,87.5000014901181,0.));
#1276=CARTESIAN_POINT('',(2.5,87.5000014901161,0.));
#1277=CARTESIAN_POINT('',(-4.99999693640389,87.5000014901181,2.));
#1278=CARTESIAN_POINT('Origin',(5.,90.0000014901161,2.));
#1279=CARTESIAN_POINT('',(4.98977299096207,92.4999805716858,2.));
#1280=CARTESIAN_POINT('Origin',(5.,90.0000014901161,2.));
#1281=CARTESIAN_POINT('',(4.98977299096207,92.4999805716858,0.));
#1282=CARTESIAN_POINT('',(4.98977299096207,92.4999805716858,2.));
#1283=CARTESIAN_POINT('Origin',(5.,90.0000014901161,0.));
#1284=CARTESIAN_POINT('Origin',(-4.55965615606107,92.4609154055355,2.));
#1285=CARTESIAN_POINT('',(-4.55965615606107,92.4609154055355,2.));
#1286=CARTESIAN_POINT('',(-2.37182859836231,92.4698654533063,2.));
#1287=CARTESIAN_POINT('',(-4.55965615606107,92.4609154055355,0.));
#1288=CARTESIAN_POINT('',(-4.55965615606107,92.4609154055355,2.));
#1289=CARTESIAN_POINT('',(-2.37182859836231,92.4698654533063,-1.38777878078145E-16));
#1290=CARTESIAN_POINT('Origin',(-5.,90.0000014901161,2.));
#1291=CARTESIAN_POINT('Origin',(-5.,90.0000014901161,2.));
#1292=CARTESIAN_POINT('Origin',(-5.,90.0000014901161,0.));
#1293=CARTESIAN_POINT('Origin',(15.,80.0000014901161,2.));
#1294=CARTESIAN_POINT('',(16.5,80.0000014901161,2.));
#1295=CARTESIAN_POINT('Origin',(15.,80.0000014901161,2.));
#1296=CARTESIAN_POINT('',(16.5,80.0000014901161,0.));
#1297=CARTESIAN_POINT('',(16.5,80.0000014901161,2.));
#1298=CARTESIAN_POINT('Origin',(15.,80.0000014901161,0.));
#1299=CARTESIAN_POINT('Origin',(18.,25.,2.));
#1300=CARTESIAN_POINT('',(19.5,25.,2.));
#1301=CARTESIAN_POINT('Origin',(18.,25.,2.));
#1302=CARTESIAN_POINT('',(19.5,25.,0.));
#1303=CARTESIAN_POINT('',(19.5,25.,2.));
#1304=CARTESIAN_POINT('Origin',(18.,25.,0.));
#1305=CARTESIAN_POINT('Origin',(-15.,80.0000014901162,2.));
#1306=CARTESIAN_POINT('',(-13.5,80.0000014901162,2.));
#1307=CARTESIAN_POINT('Origin',(-15.,80.0000014901162,2.));
#1308=CARTESIAN_POINT('',(-13.5,80.0000014901162,0.));
#1309=CARTESIAN_POINT('',(-13.5,80.0000014901162,2.));
#1310=CARTESIAN_POINT('Origin',(-15.,80.0000014901162,0.));
#1311=CARTESIAN_POINT('Origin',(-18.,25.,2.));
#1312=CARTESIAN_POINT('',(-16.5,25.,2.));
#1313=CARTESIAN_POINT('Origin',(-18.,25.,2.));
#1314=CARTESIAN_POINT('',(-16.5,25.,0.));
#1315=CARTESIAN_POINT('',(-16.5,25.,2.));
#1316=CARTESIAN_POINT('Origin',(-18.,25.,0.));
#1317=CARTESIAN_POINT('Origin',(0.,100.000001490116,7.));
#1318=CARTESIAN_POINT('',(19.9999985098839,100.000001490116,14.));
#1319=CARTESIAN_POINT('Origin',(0.,100.000001490116,14.));
#1320=CARTESIAN_POINT('',(19.9999985098839,100.000001490116,7.));
#1321=CARTESIAN_POINT('',(19.9999985098839,100.000001490116,7.));
#1322=CARTESIAN_POINT('',(19.975292626971,100.993823156743,7.));
#1323=CARTESIAN_POINT('Origin',(0.,100.000001490116,7.));
#1324=CARTESIAN_POINT('',(-19.975292626971,100.993823156743,7.));
#1325=CARTESIAN_POINT('Origin',(0.,100.,7.));
#1326=CARTESIAN_POINT('',(-19.2868491768535,94.7068488752628,7.));
#1327=CARTESIAN_POINT('Origin',(0.,100.000001490116,7.));
#1328=CARTESIAN_POINT('',(19.2868491768535,94.7068488752628,7.));
#1329=CARTESIAN_POINT('Origin',(0.,100.,7.));
#1330=CARTESIAN_POINT('Origin',(0.,100.000001490116,7.));
#1331=CARTESIAN_POINT('Origin',(0.,100.000001490116,14.));
#1332=CARTESIAN_POINT('',(19.,100.,14.));
#1333=CARTESIAN_POINT('Origin',(0.,100.,14.));
#1334=CARTESIAN_POINT('Origin',(0.,100.000001490116,2.));
#1335=CARTESIAN_POINT('',(6.,100.000001490116,2.));
#1336=CARTESIAN_POINT('Origin',(0.,100.000001490116,2.));
#1337=CARTESIAN_POINT('',(6.,100.000001490116,0.));
#1338=CARTESIAN_POINT('',(6.,100.000001490116,2.));
#1339=CARTESIAN_POINT('Origin',(0.,100.000001490116,0.));
#1340=CARTESIAN_POINT('Origin',(-8.7,0.,2.));
#1341=CARTESIAN_POINT('',(-6.7,2.44929359829471E-16,2.));
#1342=CARTESIAN_POINT('Origin',(-8.7,0.,2.));
#1343=CARTESIAN_POINT('',(-6.7,2.44929359829471E-16,0.));
#1344=CARTESIAN_POINT('',(-6.7,-2.44929359829471E-16,2.));
#1345=CARTESIAN_POINT('Origin',(-8.7,0.,0.));
#1346=CARTESIAN_POINT('Origin',(11.,100.000001490116,2.));
#1347=CARTESIAN_POINT('',(12.,100.000001490116,2.));
#1348=CARTESIAN_POINT('Origin',(11.,100.000001490116,2.));
#1349=CARTESIAN_POINT('',(12.,100.000001490116,0.));
#1350=CARTESIAN_POINT('',(12.,100.000001490116,2.));
#1351=CARTESIAN_POINT('Origin',(11.,100.000001490116,0.));
#1352=CARTESIAN_POINT('Origin',(8.7,0.,2.));
#1353=CARTESIAN_POINT('',(10.7,2.44929359829471E-16,2.));
#1354=CARTESIAN_POINT('Origin',(8.7,0.,2.));
#1355=CARTESIAN_POINT('',(10.7,2.44929359829471E-16,0.));
#1356=CARTESIAN_POINT('',(10.7,-2.44929359829471E-16,2.));
#1357=CARTESIAN_POINT('Origin',(8.7,0.,0.));
#1358=CARTESIAN_POINT('Origin',(0.,0.,2.));
#1359=CARTESIAN_POINT('',(2.,2.44929359829471E-16,2.));
#1360=CARTESIAN_POINT('Origin',(0.,0.,2.));
#1361=CARTESIAN_POINT('',(2.,2.44929359829471E-16,0.));
#1362=CARTESIAN_POINT('',(2.,-2.44929359829471E-16,2.));
#1363=CARTESIAN_POINT('Origin',(0.,0.,0.));
#1364=CARTESIAN_POINT('Origin',(-11.,100.000001490116,2.));
#1365=CARTESIAN_POINT('',(-10.,100.000001490116,2.));
#1366=CARTESIAN_POINT('Origin',(-11.,100.000001490116,2.));
#1367=CARTESIAN_POINT('',(-10.,100.000001490116,0.));
#1368=CARTESIAN_POINT('',(-10.,100.000001490116,2.));
#1369=CARTESIAN_POINT('Origin',(-11.,100.000001490116,0.));
#1370=CARTESIAN_POINT('Origin',(0.,0.,2.));
#1371=CARTESIAN_POINT('',(23.9691157837137,0.,7.));
#1372=CARTESIAN_POINT('Origin',(0.,0.,7.));
#1373=CARTESIAN_POINT('',(23.9691157837137,2.93537009229173E-15,2.));
#1374=CARTESIAN_POINT('',(23.9691157837137,2.93537009229173E-15,2.));
#1375=CARTESIAN_POINT('Origin',(0.,0.,2.));
#1376=CARTESIAN_POINT('Origin',(0.,100.,2.));
#1377=CARTESIAN_POINT('',(19.,100.,2.));
#1378=CARTESIAN_POINT('',(19.,100.,2.));
#1379=CARTESIAN_POINT('Origin',(0.,100.,2.));
#1380=CARTESIAN_POINT('Origin',(0.,100.,2.));
#1381=CARTESIAN_POINT('',(19.2868491768535,94.7068488752628,2.));
#1382=CARTESIAN_POINT('',(-19.2868491768535,94.7068488752628,2.));
#1383=CARTESIAN_POINT('Origin',(0.,100.,2.));
#1384=CARTESIAN_POINT('',(19.2868491768535,94.7068488752628,2.));
#1385=CARTESIAN_POINT('',(-19.2868491768535,94.7068488752628,2.));
#1386=CARTESIAN_POINT('Origin',(-23.5864477920584,8.28730840215956,2.));
#1387=CARTESIAN_POINT('',(-23.5864477920584,8.28730840215956,2.));
#1388=CARTESIAN_POINT('',(-22.5842693809758,28.4305369936715,2.));
#1389=CARTESIAN_POINT('',(-23.5864477920584,8.28730840215956,7.));
#1390=CARTESIAN_POINT('',(-19.2868491768535,94.7068488752628,7.));
#1391=CARTESIAN_POINT('',(-23.5864477920584,8.28730840215956,2.));
#1392=CARTESIAN_POINT('Origin',(0.,0.,2.));
#1393=CARTESIAN_POINT('',(23.5864477920584,8.28730840215958,2.));
#1394=CARTESIAN_POINT('Origin',(0.,0.,2.));
#1395=CARTESIAN_POINT('',(23.5864477920584,8.28730840215957,7.));
#1396=CARTESIAN_POINT('Origin',(0.,0.,7.));
#1397=CARTESIAN_POINT('',(23.5864477920584,8.28730840215958,2.));
#1398=CARTESIAN_POINT('Origin',(19.2868491768535,94.7068488752628,2.));
#1399=CARTESIAN_POINT('',(20.4344700733734,71.6403072302231,2.));
#1400=CARTESIAN_POINT('',(23.5864477920584,8.28730840215958,7.));
#1401=CARTESIAN_POINT('Origin',(0.,47.5,7.));
#1402=CARTESIAN_POINT('',(-25.,0.,7.));
#1403=CARTESIAN_POINT('',(-19.975292626971,100.993823156743,7.));
#1404=CARTESIAN_POINT('',(25.,0.,7.));
#1405=CARTESIAN_POINT('Origin',(0.,0.,7.));
#1406=CARTESIAN_POINT('',(25.,0.,7.));
#1407=CARTESIAN_POINT('Origin',(0.,47.5,2.));
#1408=CARTESIAN_POINT('Origin',(0.,47.5,2.));
#1409=CARTESIAN_POINT('Origin',(25.,1.77635683940025E-14,0.));
#1410=CARTESIAN_POINT('',(19.975292626971,100.993823156743,0.));
#1411=CARTESIAN_POINT('',(25.,-3.06161699786838E-15,0.));
#1412=CARTESIAN_POINT('',(19.975292626971,100.993823156743,0.));
#1413=CARTESIAN_POINT('',(19.975292626971,100.993823156743,0.));
#1414=CARTESIAN_POINT('',(25.,-3.06161699786838E-15,0.));
#1415=CARTESIAN_POINT('Origin',(0.,0.,0.));
#1416=CARTESIAN_POINT('',(-25.,0.,0.));
#1417=CARTESIAN_POINT('Origin',(0.,0.,0.));
#1418=CARTESIAN_POINT('',(-25.,0.,0.));
#1419=CARTESIAN_POINT('Origin',(-19.975292626971,100.993823156743,0.));
#1420=CARTESIAN_POINT('',(-19.975292626971,100.993823156743,0.));
#1421=CARTESIAN_POINT('',(-19.975292626971,100.993823156743,0.));
#1422=CARTESIAN_POINT('',(-19.975292626971,100.993823156743,0.));
#1423=CARTESIAN_POINT('Origin',(0.,100.,0.));
#1424=CARTESIAN_POINT('Origin',(0.,100.,0.));
#1425=CARTESIAN_POINT('Origin',(0.,47.5,2.));
#1426=CARTESIAN_POINT('Origin',(0.,47.5,0.));
#1427=UNCERTAINTY_MEASURE_WITH_UNIT(LENGTH_MEASURE(0.01),#1431,
'DISTANCE_ACCURACY_VALUE',
'Maximum model space distance between geometric entities at asserted c
onnectivities');
#1428=UNCERTAINTY_MEASURE_WITH_UNIT(LENGTH_MEASURE(0.01),#1431,
'DISTANCE_ACCURACY_VALUE',
'Maximum model space distance between geometric entities at asserted c
onnectivities');
#1429=(
GEOMETRIC_REPRESENTATION_CONTEXT(3)
GLOBAL_UNCERTAINTY_ASSIGNED_CONTEXT((#1427))
GLOBAL_UNIT_ASSIGNED_CONTEXT((#1431,#1433,#1434))
REPRESENTATION_CONTEXT('','3D')
);
#1430=(
GEOMETRIC_REPRESENTATION_CONTEXT(3)
GLOBAL_UNCERTAINTY_ASSIGNED_CONTEXT((#1428))
GLOBAL_UNIT_ASSIGNED_CONTEXT((#1431,#1433,#1434))
REPRESENTATION_CONTEXT('','3D')
);
#1431=(
LENGTH_UNIT()
NAMED_UNIT(*)
SI_UNIT(.MILLI.,.METRE.)
);
#1432=(
LENGTH_UNIT()
NAMED_UNIT(*)
SI_UNIT($,.METRE.)
);
#1433=(
NAMED_UNIT(*)
PLANE_ANGLE_UNIT()
SI_UNIT($,.RADIAN.)
);
#1434=(
NAMED_UNIT(*)
SI_UNIT($,.STERADIAN.)
SOLID_ANGLE_UNIT()
);
#1435=SHAPE_DEFINITION_REPRESENTATION(#1436,#1437);
#1436=PRODUCT_DEFINITION_SHAPE('',$,#1439);
#1437=SHAPE_REPRESENTATION('',(#847),#1429);
#1438=PRODUCT_DEFINITION_CONTEXT('part definition',#1443,'design');
#1439=PRODUCT_DEFINITION('(\X2\C800C7A5B418C9C0\X0\ \X2\C54AC74C\X0\)',
'(\X2\C800C7A5B418C9C0\X0\ \X2\C54AC74C\X0\)',#1440,#1438);
#1440=PRODUCT_DEFINITION_FORMATION('',$,#1445);
#1441=PRODUCT_RELATED_PRODUCT_CATEGORY('(\X2\C800C7A5B418C9C0\X0\ \X2\C54AC74C\X0\)',
'(\X2\C800C7A5B418C9C0\X0\ \X2\C54AC74C\X0\)',(#1445));
#1442=APPLICATION_PROTOCOL_DEFINITION('international standard',
'automotive_design',2009,#1443);
#1443=APPLICATION_CONTEXT(
'Core Data for Automotive Mechanical Design Process');
#1444=PRODUCT_CONTEXT('part definition',#1443,'mechanical');
#1445=PRODUCT('(\X2\C800C7A5B418C9C0\X0\ \X2\C54AC74C\X0\)',
'(\X2\C800C7A5B418C9C0\X0\ \X2\C54AC74C\X0\)',$,(#1444));
#1446=PRESENTATION_STYLE_ASSIGNMENT((#1447));
#1447=SURFACE_STYLE_USAGE(.BOTH.,#1448);
#1448=SURFACE_SIDE_STYLE('',(#1449));
#1449=SURFACE_STYLE_FILL_AREA(#1450);
#1450=FILL_AREA_STYLE('\X2\AC15CCA0\X0\ - \X2\C0C8D2F4\X0\',(#1451));
#1451=FILL_AREA_STYLE_COLOUR('\X2\AC15CCA0\X0\ - \X2\C0C8D2F4\X0\',#1452);
#1452=COLOUR_RGB('\X2\AC15CCA0\X0\ - \X2\C0C8D2F4\X0\',0.627450980392157,
0.627450980392157,0.627450980392157);
ENDSEC;
END-ISO-10303-21;
