ISO-10303-21;
HEADER;
/* Generated by software containing ST-Developer
 * from STEP Tools, Inc. (www.steptools.com) 
 */

FILE_DESCRIPTION(
/* description */ (''),
/* implementation_level */ '2;1');

FILE_NAME(
/* name */ 'TRARM02_Base_Bottom_100x100x20.step',
/* time_stamp */ '2026-06-11T09:08:57+09:00',
/* author */ (''),
/* organization */ (''),
/* preprocessor_version */ 'ST-DEVELOPER v20.1',
/* originating_system */ 'Autodesk Translation Framework v15.8.0.0',
/* authorisation */ '');

FILE_SCHEMA (('AUTOMOTIVE_DESIGN { 1 0 10303 214 3 1 1 }'));
ENDSEC;

DATA;
#10=MECHANICAL_DESIGN_GEOMETRIC_PRESENTATION_REPRESENTATION('',(#13),#1855);
#11=SHAPE_REPRESENTATION_RELATIONSHIP('SRR','None',#1862,#12);
#12=ADVANCED_BREP_SHAPE_REPRESENTATION('',(#14),#1854);
#13=STYLED_ITEM('',(#1871),#14);
#14=MANIFOLD_SOLID_BREP('\X2\BCF8CCB4\X0\4',#1123);
#15=FACE_BOUND('',#164,.T.);
#16=FACE_BOUND('',#166,.T.);
#17=FACE_BOUND('',#168,.T.);
#18=FACE_BOUND('',#169,.T.);
#19=FACE_BOUND('',#171,.T.);
#20=FACE_BOUND('',#172,.T.);
#21=FACE_BOUND('',#174,.T.);
#22=FACE_BOUND('',#175,.T.);
#23=FACE_BOUND('',#177,.T.);
#24=FACE_BOUND('',#178,.T.);
#25=FACE_BOUND('',#194,.T.);
#26=FACE_BOUND('',#196,.T.);
#27=FACE_BOUND('',#197,.T.);
#28=FACE_BOUND('',#199,.T.);
#29=FACE_BOUND('',#200,.T.);
#30=FACE_BOUND('',#204,.T.);
#31=FACE_BOUND('',#215,.T.);
#32=FACE_BOUND('',#216,.T.);
#33=FACE_BOUND('',#220,.T.);
#34=FACE_BOUND('',#221,.T.);
#35=FACE_BOUND('',#227,.T.);
#36=FACE_BOUND('',#228,.T.);
#37=FACE_BOUND('',#229,.T.);
#38=FACE_BOUND('',#230,.T.);
#39=CIRCLE('',#1144,2.1);
#40=CIRCLE('',#1145,2.1);
#41=CIRCLE('',#1147,2.1);
#42=CIRCLE('',#1148,2.1);
#43=CIRCLE('',#1150,2.1);
#44=CIRCLE('',#1151,2.1);
#45=CIRCLE('',#1153,2.1);
#46=CIRCLE('',#1154,2.1);
#47=CIRCLE('',#1156,3.);
#48=CIRCLE('',#1157,3.);
#49=CIRCLE('',#1158,1.45);
#50=CIRCLE('',#1160,3.);
#51=CIRCLE('',#1161,3.);
#52=CIRCLE('',#1162,1.45);
#53=CIRCLE('',#1168,1.45);
#54=CIRCLE('',#1170,1.45);
#55=CIRCLE('',#1171,1.45);
#56=CIRCLE('',#1173,1.45);
#57=CIRCLE('',#1175,1.45);
#58=CIRCLE('',#1176,1.45);
#59=CIRCLE('',#1184,2.1);
#60=CIRCLE('',#1185,2.1);
#61=CIRCLE('',#1187,2.1);
#62=CIRCLE('',#1188,2.1);
#63=CIRCLE('',#1190,2.1);
#64=CIRCLE('',#1191,2.1);
#65=CIRCLE('',#1193,2.1);
#66=CIRCLE('',#1194,2.1);
#67=CIRCLE('',#1196,3.);
#68=CIRCLE('',#1197,3.);
#69=CIRCLE('',#1201,3.);
#70=CIRCLE('',#1204,3.);
#71=CIRCLE('',#1205,3.);
#72=CIRCLE('',#1207,3.);
#73=CIRCLE('',#1210,3.);
#74=CIRCLE('',#1213,3.);
#75=CIRCLE('',#1216,3.);
#76=CIRCLE('',#1218,3.);
#77=CIRCLE('',#1220,3.);
#78=CIRCLE('',#1223,3.);
#79=CYLINDRICAL_SURFACE('',#1143,2.1);
#80=CYLINDRICAL_SURFACE('',#1146,2.1);
#81=CYLINDRICAL_SURFACE('',#1149,2.1);
#82=CYLINDRICAL_SURFACE('',#1152,2.1);
#83=CYLINDRICAL_SURFACE('',#1167,1.45);
#84=CYLINDRICAL_SURFACE('',#1169,1.45);
#85=CYLINDRICAL_SURFACE('',#1172,1.45);
#86=CYLINDRICAL_SURFACE('',#1174,1.45);
#87=CYLINDRICAL_SURFACE('',#1183,2.1);
#88=CYLINDRICAL_SURFACE('',#1186,2.1);
#89=CYLINDRICAL_SURFACE('',#1189,2.1);
#90=CYLINDRICAL_SURFACE('',#1192,2.1);
#91=CYLINDRICAL_SURFACE('',#1200,3.);
#92=CYLINDRICAL_SURFACE('',#1206,3.);
#93=CYLINDRICAL_SURFACE('',#1209,3.);
#94=CYLINDRICAL_SURFACE('',#1212,3.);
#95=CYLINDRICAL_SURFACE('',#1215,3.);
#96=CYLINDRICAL_SURFACE('',#1217,3.);
#97=CYLINDRICAL_SURFACE('',#1219,3.);
#98=CYLINDRICAL_SURFACE('',#1222,3.);
#99=FACE_OUTER_BOUND('',#153,.T.);
#100=FACE_OUTER_BOUND('',#154,.T.);
#101=FACE_OUTER_BOUND('',#155,.T.);
#102=FACE_OUTER_BOUND('',#156,.T.);
#103=FACE_OUTER_BOUND('',#157,.T.);
#104=FACE_OUTER_BOUND('',#158,.T.);
#105=FACE_OUTER_BOUND('',#159,.T.);
#106=FACE_OUTER_BOUND('',#160,.T.);
#107=FACE_OUTER_BOUND('',#161,.T.);
#108=FACE_OUTER_BOUND('',#162,.T.);
#109=FACE_OUTER_BOUND('',#163,.T.);
#110=FACE_OUTER_BOUND('',#165,.T.);
#111=FACE_OUTER_BOUND('',#167,.T.);
#112=FACE_OUTER_BOUND('',#170,.T.);
#113=FACE_OUTER_BOUND('',#173,.T.);
#114=FACE_OUTER_BOUND('',#176,.T.);
#115=FACE_OUTER_BOUND('',#179,.T.);
#116=FACE_OUTER_BOUND('',#180,.T.);
#117=FACE_OUTER_BOUND('',#181,.T.);
#118=FACE_OUTER_BOUND('',#182,.T.);
#119=FACE_OUTER_BOUND('',#183,.T.);
#120=FACE_OUTER_BOUND('',#184,.T.);
#121=FACE_OUTER_BOUND('',#185,.T.);
#122=FACE_OUTER_BOUND('',#186,.T.);
#123=FACE_OUTER_BOUND('',#187,.T.);
#124=FACE_OUTER_BOUND('',#188,.T.);
#125=FACE_OUTER_BOUND('',#189,.T.);
#126=FACE_OUTER_BOUND('',#190,.T.);
#127=FACE_OUTER_BOUND('',#191,.T.);
#128=FACE_OUTER_BOUND('',#192,.T.);
#129=FACE_OUTER_BOUND('',#193,.T.);
#130=FACE_OUTER_BOUND('',#195,.T.);
#131=FACE_OUTER_BOUND('',#198,.T.);
#132=FACE_OUTER_BOUND('',#201,.T.);
#133=FACE_OUTER_BOUND('',#202,.T.);
#134=FACE_OUTER_BOUND('',#203,.T.);
#135=FACE_OUTER_BOUND('',#205,.T.);
#136=FACE_OUTER_BOUND('',#206,.T.);
#137=FACE_OUTER_BOUND('',#207,.T.);
#138=FACE_OUTER_BOUND('',#208,.T.);
#139=FACE_OUTER_BOUND('',#209,.T.);
#140=FACE_OUTER_BOUND('',#210,.T.);
#141=FACE_OUTER_BOUND('',#211,.T.);
#142=FACE_OUTER_BOUND('',#212,.T.);
#143=FACE_OUTER_BOUND('',#213,.T.);
#144=FACE_OUTER_BOUND('',#214,.T.);
#145=FACE_OUTER_BOUND('',#217,.T.);
#146=FACE_OUTER_BOUND('',#218,.T.);
#147=FACE_OUTER_BOUND('',#219,.T.);
#148=FACE_OUTER_BOUND('',#222,.T.);
#149=FACE_OUTER_BOUND('',#223,.T.);
#150=FACE_OUTER_BOUND('',#224,.T.);
#151=FACE_OUTER_BOUND('',#225,.T.);
#152=FACE_OUTER_BOUND('',#226,.T.);
#153=EDGE_LOOP('',(#723,#724,#725,#726));
#154=EDGE_LOOP('',(#727,#728,#729,#730));
#155=EDGE_LOOP('',(#731,#732,#733,#734));
#156=EDGE_LOOP('',(#735,#736,#737,#738));
#157=EDGE_LOOP('',(#739,#740,#741,#742));
#158=EDGE_LOOP('',(#743,#744,#745,#746));
#159=EDGE_LOOP('',(#747,#748,#749,#750));
#160=EDGE_LOOP('',(#751,#752,#753,#754));
#161=EDGE_LOOP('',(#755,#756,#757,#758));
#162=EDGE_LOOP('',(#759,#760,#761,#762));
#163=EDGE_LOOP('',(#763,#764,#765,#766,#767,#768,#769,#770,#771,#772));
#164=EDGE_LOOP('',(#773));
#165=EDGE_LOOP('',(#774,#775,#776,#777,#778,#779,#780,#781,#782,#783));
#166=EDGE_LOOP('',(#784));
#167=EDGE_LOOP('',(#785,#786,#787,#788,#789,#790,#791,#792));
#168=EDGE_LOOP('',(#793));
#169=EDGE_LOOP('',(#794));
#170=EDGE_LOOP('',(#795,#796,#797,#798,#799,#800,#801,#802));
#171=EDGE_LOOP('',(#803));
#172=EDGE_LOOP('',(#804));
#173=EDGE_LOOP('',(#805,#806,#807,#808,#809,#810,#811,#812));
#174=EDGE_LOOP('',(#813));
#175=EDGE_LOOP('',(#814));
#176=EDGE_LOOP('',(#815,#816,#817,#818,#819,#820,#821,#822));
#177=EDGE_LOOP('',(#823));
#178=EDGE_LOOP('',(#824));
#179=EDGE_LOOP('',(#825,#826,#827,#828));
#180=EDGE_LOOP('',(#829,#830,#831,#832));
#181=EDGE_LOOP('',(#833,#834,#835,#836));
#182=EDGE_LOOP('',(#837,#838,#839,#840));
#183=EDGE_LOOP('',(#841,#842,#843,#844));
#184=EDGE_LOOP('',(#845,#846,#847,#848));
#185=EDGE_LOOP('',(#849,#850,#851,#852));
#186=EDGE_LOOP('',(#853,#854,#855,#856));
#187=EDGE_LOOP('',(#857,#858,#859,#860));
#188=EDGE_LOOP('',(#861,#862,#863,#864));
#189=EDGE_LOOP('',(#865,#866,#867,#868));
#190=EDGE_LOOP('',(#869,#870,#871,#872));
#191=EDGE_LOOP('',(#873,#874,#875,#876));
#192=EDGE_LOOP('',(#877,#878,#879,#880));
#193=EDGE_LOOP('',(#881,#882,#883,#884,#885,#886,#887,#888,#889,#890));
#194=EDGE_LOOP('',(#891));
#195=EDGE_LOOP('',(#892,#893,#894,#895,#896,#897,#898,#899));
#196=EDGE_LOOP('',(#900));
#197=EDGE_LOOP('',(#901));
#198=EDGE_LOOP('',(#902,#903,#904,#905,#906,#907,#908,#909));
#199=EDGE_LOOP('',(#910));
#200=EDGE_LOOP('',(#911));
#201=EDGE_LOOP('',(#912,#913,#914,#915));
#202=EDGE_LOOP('',(#916,#917,#918,#919));
#203=EDGE_LOOP('',(#920,#921,#922,#923,#924,#925,#926,#927,#928,#929));
#204=EDGE_LOOP('',(#930));
#205=EDGE_LOOP('',(#931,#932,#933,#934));
#206=EDGE_LOOP('',(#935,#936,#937,#938));
#207=EDGE_LOOP('',(#939,#940,#941,#942));
#208=EDGE_LOOP('',(#943,#944,#945,#946));
#209=EDGE_LOOP('',(#947,#948,#949,#950));
#210=EDGE_LOOP('',(#951,#952,#953,#954));
#211=EDGE_LOOP('',(#955,#956,#957,#958));
#212=EDGE_LOOP('',(#959,#960,#961,#962));
#213=EDGE_LOOP('',(#963,#964,#965,#966));
#214=EDGE_LOOP('',(#967,#968,#969,#970,#971,#972,#973,#974));
#215=EDGE_LOOP('',(#975));
#216=EDGE_LOOP('',(#976));
#217=EDGE_LOOP('',(#977,#978,#979,#980));
#218=EDGE_LOOP('',(#981,#982,#983,#984));
#219=EDGE_LOOP('',(#985,#986,#987,#988,#989,#990,#991,#992));
#220=EDGE_LOOP('',(#993));
#221=EDGE_LOOP('',(#994));
#222=EDGE_LOOP('',(#995,#996,#997,#998));
#223=EDGE_LOOP('',(#999,#1000,#1001,#1002));
#224=EDGE_LOOP('',(#1003,#1004,#1005,#1006));
#225=EDGE_LOOP('',(#1007,#1008,#1009,#1010,#1011,#1012,#1013,#1014,#1015,
#1016,#1017,#1018,#1019,#1020,#1021,#1022));
#226=EDGE_LOOP('',(#1023,#1024,#1025,#1026,#1027,#1028,#1029,#1030));
#227=EDGE_LOOP('',(#1031));
#228=EDGE_LOOP('',(#1032));
#229=EDGE_LOOP('',(#1033));
#230=EDGE_LOOP('',(#1034));
#231=LINE('',#1541,#347);
#232=LINE('',#1543,#348);
#233=LINE('',#1545,#349);
#234=LINE('',#1546,#350);
#235=LINE('',#1550,#351);
#236=LINE('',#1552,#352);
#237=LINE('',#1554,#353);
#238=LINE('',#1555,#354);
#239=LINE('',#1558,#355);
#240=LINE('',#1560,#356);
#241=LINE('',#1561,#357);
#242=LINE('',#1564,#358);
#243=LINE('',#1566,#359);
#244=LINE('',#1567,#360);
#245=LINE('',#1570,#361);
#246=LINE('',#1572,#362);
#247=LINE('',#1573,#363);
#248=LINE('',#1576,#364);
#249=LINE('',#1578,#365);
#250=LINE('',#1579,#366);
#251=LINE('',#1584,#367);
#252=LINE('',#1590,#368);
#253=LINE('',#1596,#369);
#254=LINE('',#1602,#370);
#255=LINE('',#1606,#371);
#256=LINE('',#1608,#372);
#257=LINE('',#1612,#373);
#258=LINE('',#1614,#374);
#259=LINE('',#1616,#375);
#260=LINE('',#1618,#376);
#261=LINE('',#1621,#377);
#262=LINE('',#1626,#378);
#263=LINE('',#1630,#379);
#264=LINE('',#1632,#380);
#265=LINE('',#1634,#381);
#266=LINE('',#1636,#382);
#267=LINE('',#1640,#383);
#268=LINE('',#1641,#384);
#269=LINE('',#1646,#385);
#270=LINE('',#1648,#386);
#271=LINE('',#1650,#387);
#272=LINE('',#1651,#388);
#273=LINE('',#1654,#389);
#274=LINE('',#1656,#390);
#275=LINE('',#1658,#391);
#276=LINE('',#1659,#392);
#277=LINE('',#1662,#393);
#278=LINE('',#1664,#394);
#279=LINE('',#1666,#395);
#280=LINE('',#1667,#396);
#281=LINE('',#1670,#397);
#282=LINE('',#1672,#398);
#283=LINE('',#1674,#399);
#284=LINE('',#1675,#400);
#285=LINE('',#1678,#401);
#286=LINE('',#1684,#402);
#287=LINE('',#1688,#403);
#288=LINE('',#1694,#404);
#289=LINE('',#1698,#405);
#290=LINE('',#1700,#406);
#291=LINE('',#1701,#407);
#292=LINE('',#1705,#408);
#293=LINE('',#1707,#409);
#294=LINE('',#1709,#410);
#295=LINE('',#1710,#411);
#296=LINE('',#1713,#412);
#297=LINE('',#1715,#413);
#298=LINE('',#1716,#414);
#299=LINE('',#1718,#415);
#300=LINE('',#1719,#416);
#301=LINE('',#1723,#417);
#302=LINE('',#1725,#418);
#303=LINE('',#1727,#419);
#304=LINE('',#1728,#420);
#305=LINE('',#1730,#421);
#306=LINE('',#1731,#422);
#307=LINE('',#1736,#423);
#308=LINE('',#1742,#424);
#309=LINE('',#1748,#425);
#310=LINE('',#1754,#426);
#311=LINE('',#1759,#427);
#312=LINE('',#1761,#428);
#313=LINE('',#1763,#429);
#314=LINE('',#1766,#430);
#315=LINE('',#1769,#431);
#316=LINE('',#1771,#432);
#317=LINE('',#1773,#433);
#318=LINE('',#1774,#434);
#319=LINE('',#1777,#435);
#320=LINE('',#1779,#436);
#321=LINE('',#1780,#437);
#322=LINE('',#1783,#438);
#323=LINE('',#1786,#439);
#324=LINE('',#1789,#440);
#325=LINE('',#1790,#441);
#326=LINE('',#1793,#442);
#327=LINE('',#1797,#443);
#328=LINE('',#1798,#444);
#329=LINE('',#1802,#445);
#330=LINE('',#1805,#446);
#331=LINE('',#1807,#447);
#332=LINE('',#1810,#448);
#333=LINE('',#1813,#449);
#334=LINE('',#1815,#450);
#335=LINE('',#1818,#451);
#336=LINE('',#1821,#452);
#337=LINE('',#1823,#453);
#338=LINE('',#1831,#454);
#339=LINE('',#1834,#455);
#340=LINE('',#1835,#456);
#341=LINE('',#1839,#457);
#342=LINE('',#1842,#458);
#343=LINE('',#1843,#459);
#344=LINE('',#1845,#460);
#345=LINE('',#1847,#461);
#346=LINE('',#1849,#462);
#347=VECTOR('',#1235,10.);
#348=VECTOR('',#1236,10.);
#349=VECTOR('',#1237,10.);
#350=VECTOR('',#1238,10.);
#351=VECTOR('',#1241,10.);
#352=VECTOR('',#1242,10.);
#353=VECTOR('',#1243,10.);
#354=VECTOR('',#1244,10.);
#355=VECTOR('',#1247,10.);
#356=VECTOR('',#1248,10.);
#357=VECTOR('',#1249,10.);
#358=VECTOR('',#1252,10.);
#359=VECTOR('',#1253,10.);
#360=VECTOR('',#1254,10.);
#361=VECTOR('',#1257,10.);
#362=VECTOR('',#1258,10.);
#363=VECTOR('',#1259,10.);
#364=VECTOR('',#1262,10.);
#365=VECTOR('',#1263,10.);
#366=VECTOR('',#1264,10.);
#367=VECTOR('',#1269,2.1);
#368=VECTOR('',#1276,2.1);
#369=VECTOR('',#1283,2.1);
#370=VECTOR('',#1290,2.1);
#371=VECTOR('',#1295,10.);
#372=VECTOR('',#1296,10.);
#373=VECTOR('',#1299,10.);
#374=VECTOR('',#1300,10.);
#375=VECTOR('',#1301,10.);
#376=VECTOR('',#1302,10.);
#377=VECTOR('',#1305,10.);
#378=VECTOR('',#1310,10.);
#379=VECTOR('',#1313,10.);
#380=VECTOR('',#1314,10.);
#381=VECTOR('',#1315,10.);
#382=VECTOR('',#1316,10.);
#383=VECTOR('',#1319,10.);
#384=VECTOR('',#1320,10.);
#385=VECTOR('',#1325,10.);
#386=VECTOR('',#1326,10.);
#387=VECTOR('',#1327,10.);
#388=VECTOR('',#1328,10.);
#389=VECTOR('',#1331,10.);
#390=VECTOR('',#1332,10.);
#391=VECTOR('',#1333,10.);
#392=VECTOR('',#1334,10.);
#393=VECTOR('',#1337,10.);
#394=VECTOR('',#1338,10.);
#395=VECTOR('',#1339,10.);
#396=VECTOR('',#1340,10.);
#397=VECTOR('',#1343,10.);
#398=VECTOR('',#1344,10.);
#399=VECTOR('',#1345,10.);
#400=VECTOR('',#1346,10.);
#401=VECTOR('',#1349,1.45);
#402=VECTOR('',#1356,1.45);
#403=VECTOR('',#1361,1.45);
#404=VECTOR('',#1368,1.45);
#405=VECTOR('',#1373,10.);
#406=VECTOR('',#1374,10.);
#407=VECTOR('',#1375,10.);
#408=VECTOR('',#1378,10.);
#409=VECTOR('',#1379,10.);
#410=VECTOR('',#1380,10.);
#411=VECTOR('',#1381,10.);
#412=VECTOR('',#1384,10.);
#413=VECTOR('',#1385,10.);
#414=VECTOR('',#1386,10.);
#415=VECTOR('',#1389,10.);
#416=VECTOR('',#1390,10.);
#417=VECTOR('',#1393,10.);
#418=VECTOR('',#1394,10.);
#419=VECTOR('',#1395,10.);
#420=VECTOR('',#1396,10.);
#421=VECTOR('',#1399,10.);
#422=VECTOR('',#1400,10.);
#423=VECTOR('',#1405,2.1);
#424=VECTOR('',#1412,2.1);
#425=VECTOR('',#1419,2.1);
#426=VECTOR('',#1426,2.1);
#427=VECTOR('',#1433,10.);
#428=VECTOR('',#1434,10.);
#429=VECTOR('',#1435,10.);
#430=VECTOR('',#1438,10.);
#431=VECTOR('',#1441,10.);
#432=VECTOR('',#1442,10.);
#433=VECTOR('',#1443,10.);
#434=VECTOR('',#1444,10.);
#435=VECTOR('',#1447,10.);
#436=VECTOR('',#1448,10.);
#437=VECTOR('',#1449,10.);
#438=VECTOR('',#1452,10.);
#439=VECTOR('',#1455,10.);
#440=VECTOR('',#1458,10.);
#441=VECTOR('',#1459,10.);
#442=VECTOR('',#1462,10.);
#443=VECTOR('',#1465,10.);
#444=VECTOR('',#1466,10.);
#445=VECTOR('',#1471,10.);
#446=VECTOR('',#1474,10.);
#447=VECTOR('',#1477,10.);
#448=VECTOR('',#1480,10.);
#449=VECTOR('',#1483,10.);
#450=VECTOR('',#1486,10.);
#451=VECTOR('',#1489,10.);
#452=VECTOR('',#1492,10.);
#453=VECTOR('',#1495,10.);
#454=VECTOR('',#1508,10.);
#455=VECTOR('',#1511,10.);
#456=VECTOR('',#1512,10.);
#457=VECTOR('',#1519,10.);
#458=VECTOR('',#1522,10.);
#459=VECTOR('',#1523,10.);
#460=VECTOR('',#1526,10.);
#461=VECTOR('',#1529,10.);
#462=VECTOR('',#1532,10.);
#463=VERTEX_POINT('',#1539);
#464=VERTEX_POINT('',#1540);
#465=VERTEX_POINT('',#1542);
#466=VERTEX_POINT('',#1544);
#467=VERTEX_POINT('',#1548);
#468=VERTEX_POINT('',#1549);
#469=VERTEX_POINT('',#1551);
#470=VERTEX_POINT('',#1553);
#471=VERTEX_POINT('',#1557);
#472=VERTEX_POINT('',#1559);
#473=VERTEX_POINT('',#1563);
#474=VERTEX_POINT('',#1565);
#475=VERTEX_POINT('',#1569);
#476=VERTEX_POINT('',#1571);
#477=VERTEX_POINT('',#1575);
#478=VERTEX_POINT('',#1577);
#479=VERTEX_POINT('',#1581);
#480=VERTEX_POINT('',#1583);
#481=VERTEX_POINT('',#1587);
#482=VERTEX_POINT('',#1589);
#483=VERTEX_POINT('',#1593);
#484=VERTEX_POINT('',#1595);
#485=VERTEX_POINT('',#1599);
#486=VERTEX_POINT('',#1601);
#487=VERTEX_POINT('',#1605);
#488=VERTEX_POINT('',#1607);
#489=VERTEX_POINT('',#1609);
#490=VERTEX_POINT('',#1611);
#491=VERTEX_POINT('',#1613);
#492=VERTEX_POINT('',#1615);
#493=VERTEX_POINT('',#1617);
#494=VERTEX_POINT('',#1619);
#495=VERTEX_POINT('',#1622);
#496=VERTEX_POINT('',#1625);
#497=VERTEX_POINT('',#1627);
#498=VERTEX_POINT('',#1629);
#499=VERTEX_POINT('',#1631);
#500=VERTEX_POINT('',#1633);
#501=VERTEX_POINT('',#1635);
#502=VERTEX_POINT('',#1637);
#503=VERTEX_POINT('',#1639);
#504=VERTEX_POINT('',#1642);
#505=VERTEX_POINT('',#1645);
#506=VERTEX_POINT('',#1647);
#507=VERTEX_POINT('',#1649);
#508=VERTEX_POINT('',#1653);
#509=VERTEX_POINT('',#1655);
#510=VERTEX_POINT('',#1657);
#511=VERTEX_POINT('',#1661);
#512=VERTEX_POINT('',#1663);
#513=VERTEX_POINT('',#1665);
#514=VERTEX_POINT('',#1669);
#515=VERTEX_POINT('',#1671);
#516=VERTEX_POINT('',#1673);
#517=VERTEX_POINT('',#1677);
#518=VERTEX_POINT('',#1681);
#519=VERTEX_POINT('',#1683);
#520=VERTEX_POINT('',#1687);
#521=VERTEX_POINT('',#1691);
#522=VERTEX_POINT('',#1693);
#523=VERTEX_POINT('',#1697);
#524=VERTEX_POINT('',#1699);
#525=VERTEX_POINT('',#1703);
#526=VERTEX_POINT('',#1704);
#527=VERTEX_POINT('',#1706);
#528=VERTEX_POINT('',#1708);
#529=VERTEX_POINT('',#1712);
#530=VERTEX_POINT('',#1714);
#531=VERTEX_POINT('',#1721);
#532=VERTEX_POINT('',#1722);
#533=VERTEX_POINT('',#1724);
#534=VERTEX_POINT('',#1726);
#535=VERTEX_POINT('',#1733);
#536=VERTEX_POINT('',#1735);
#537=VERTEX_POINT('',#1739);
#538=VERTEX_POINT('',#1741);
#539=VERTEX_POINT('',#1745);
#540=VERTEX_POINT('',#1747);
#541=VERTEX_POINT('',#1751);
#542=VERTEX_POINT('',#1753);
#543=VERTEX_POINT('',#1757);
#544=VERTEX_POINT('',#1760);
#545=VERTEX_POINT('',#1762);
#546=VERTEX_POINT('',#1764);
#547=VERTEX_POINT('',#1768);
#548=VERTEX_POINT('',#1770);
#549=VERTEX_POINT('',#1772);
#550=VERTEX_POINT('',#1776);
#551=VERTEX_POINT('',#1778);
#552=VERTEX_POINT('',#1782);
#553=VERTEX_POINT('',#1784);
#554=VERTEX_POINT('',#1788);
#555=VERTEX_POINT('',#1792);
#556=VERTEX_POINT('',#1794);
#557=VERTEX_POINT('',#1796);
#558=VERTEX_POINT('',#1801);
#559=VERTEX_POINT('',#1803);
#560=VERTEX_POINT('',#1809);
#561=VERTEX_POINT('',#1811);
#562=VERTEX_POINT('',#1817);
#563=VERTEX_POINT('',#1819);
#564=VERTEX_POINT('',#1829);
#565=VERTEX_POINT('',#1833);
#566=VERTEX_POINT('',#1841);
#567=EDGE_CURVE('',#463,#464,#231,.T.);
#568=EDGE_CURVE('',#465,#463,#232,.T.);
#569=EDGE_CURVE('',#466,#465,#233,.T.);
#570=EDGE_CURVE('',#466,#464,#234,.T.);
#571=EDGE_CURVE('',#467,#468,#235,.T.);
#572=EDGE_CURVE('',#467,#469,#236,.T.);
#573=EDGE_CURVE('',#470,#469,#237,.T.);
#574=EDGE_CURVE('',#468,#470,#238,.T.);
#575=EDGE_CURVE('',#471,#463,#239,.T.);
#576=EDGE_CURVE('',#472,#471,#240,.T.);
#577=EDGE_CURVE('',#465,#472,#241,.T.);
#578=EDGE_CURVE('',#468,#473,#242,.T.);
#579=EDGE_CURVE('',#474,#470,#243,.T.);
#580=EDGE_CURVE('',#473,#474,#244,.T.);
#581=EDGE_CURVE('',#464,#475,#245,.T.);
#582=EDGE_CURVE('',#476,#466,#246,.T.);
#583=EDGE_CURVE('',#475,#476,#247,.T.);
#584=EDGE_CURVE('',#477,#467,#248,.T.);
#585=EDGE_CURVE('',#478,#477,#249,.T.);
#586=EDGE_CURVE('',#469,#478,#250,.T.);
#587=EDGE_CURVE('',#479,#479,#39,.T.);
#588=EDGE_CURVE('',#479,#480,#251,.T.);
#589=EDGE_CURVE('',#480,#480,#40,.T.);
#590=EDGE_CURVE('',#481,#481,#41,.T.);
#591=EDGE_CURVE('',#481,#482,#252,.T.);
#592=EDGE_CURVE('',#482,#482,#42,.T.);
#593=EDGE_CURVE('',#483,#483,#43,.T.);
#594=EDGE_CURVE('',#483,#484,#253,.T.);
#595=EDGE_CURVE('',#484,#484,#44,.T.);
#596=EDGE_CURVE('',#485,#485,#45,.T.);
#597=EDGE_CURVE('',#485,#486,#254,.T.);
#598=EDGE_CURVE('',#486,#486,#46,.T.);
#599=EDGE_CURVE('',#477,#487,#255,.T.);
#600=EDGE_CURVE('',#487,#488,#256,.T.);
#601=EDGE_CURVE('',#489,#488,#47,.T.);
#602=EDGE_CURVE('',#489,#490,#257,.T.);
#603=EDGE_CURVE('',#490,#491,#258,.T.);
#604=EDGE_CURVE('',#491,#492,#259,.T.);
#605=EDGE_CURVE('',#492,#493,#260,.T.);
#606=EDGE_CURVE('',#494,#493,#48,.T.);
#607=EDGE_CURVE('',#494,#478,#261,.T.);
#608=EDGE_CURVE('',#495,#495,#49,.T.);
#609=EDGE_CURVE('',#476,#496,#262,.T.);
#610=EDGE_CURVE('',#497,#496,#50,.T.);
#611=EDGE_CURVE('',#497,#498,#263,.T.);
#612=EDGE_CURVE('',#498,#499,#264,.T.);
#613=EDGE_CURVE('',#499,#500,#265,.T.);
#614=EDGE_CURVE('',#500,#501,#266,.T.);
#615=EDGE_CURVE('',#502,#501,#51,.T.);
#616=EDGE_CURVE('',#502,#503,#267,.T.);
#617=EDGE_CURVE('',#503,#475,#268,.T.);
#618=EDGE_CURVE('',#504,#504,#52,.T.);
#619=EDGE_CURVE('',#505,#494,#269,.T.);
#620=EDGE_CURVE('',#505,#506,#270,.T.);
#621=EDGE_CURVE('',#507,#506,#271,.T.);
#622=EDGE_CURVE('',#474,#507,#272,.T.);
#623=EDGE_CURVE('',#508,#473,#273,.T.);
#624=EDGE_CURVE('',#509,#508,#274,.T.);
#625=EDGE_CURVE('',#510,#509,#275,.T.);
#626=EDGE_CURVE('',#510,#487,#276,.T.);
#627=EDGE_CURVE('',#511,#503,#277,.T.);
#628=EDGE_CURVE('',#512,#511,#278,.T.);
#629=EDGE_CURVE('',#512,#513,#279,.T.);
#630=EDGE_CURVE('',#471,#513,#280,.T.);
#631=EDGE_CURVE('',#514,#472,#281,.T.);
#632=EDGE_CURVE('',#515,#514,#282,.T.);
#633=EDGE_CURVE('',#515,#516,#283,.T.);
#634=EDGE_CURVE('',#496,#516,#284,.T.);
#635=EDGE_CURVE('',#504,#517,#285,.T.);
#636=EDGE_CURVE('',#517,#517,#53,.T.);
#637=EDGE_CURVE('',#518,#518,#54,.T.);
#638=EDGE_CURVE('',#518,#519,#286,.T.);
#639=EDGE_CURVE('',#519,#519,#55,.T.);
#640=EDGE_CURVE('',#495,#520,#287,.T.);
#641=EDGE_CURVE('',#520,#520,#56,.T.);
#642=EDGE_CURVE('',#521,#521,#57,.T.);
#643=EDGE_CURVE('',#521,#522,#288,.T.);
#644=EDGE_CURVE('',#522,#522,#58,.T.);
#645=EDGE_CURVE('',#499,#523,#289,.T.);
#646=EDGE_CURVE('',#524,#498,#290,.T.);
#647=EDGE_CURVE('',#524,#523,#291,.T.);
#648=EDGE_CURVE('',#525,#526,#292,.T.);
#649=EDGE_CURVE('',#525,#527,#293,.T.);
#650=EDGE_CURVE('',#528,#527,#294,.T.);
#651=EDGE_CURVE('',#526,#528,#295,.T.);
#652=EDGE_CURVE('',#523,#529,#296,.T.);
#653=EDGE_CURVE('',#530,#524,#297,.T.);
#654=EDGE_CURVE('',#530,#529,#298,.T.);
#655=EDGE_CURVE('',#529,#491,#299,.T.);
#656=EDGE_CURVE('',#492,#530,#300,.T.);
#657=EDGE_CURVE('',#531,#532,#301,.T.);
#658=EDGE_CURVE('',#533,#531,#302,.T.);
#659=EDGE_CURVE('',#534,#533,#303,.T.);
#660=EDGE_CURVE('',#532,#534,#304,.T.);
#661=EDGE_CURVE('',#532,#525,#305,.T.);
#662=EDGE_CURVE('',#527,#534,#306,.T.);
#663=EDGE_CURVE('',#535,#535,#59,.T.);
#664=EDGE_CURVE('',#535,#536,#307,.T.);
#665=EDGE_CURVE('',#536,#536,#60,.T.);
#666=EDGE_CURVE('',#537,#537,#61,.T.);
#667=EDGE_CURVE('',#537,#538,#308,.T.);
#668=EDGE_CURVE('',#538,#538,#62,.T.);
#669=EDGE_CURVE('',#539,#539,#63,.T.);
#670=EDGE_CURVE('',#539,#540,#309,.T.);
#671=EDGE_CURVE('',#540,#540,#64,.T.);
#672=EDGE_CURVE('',#541,#541,#65,.T.);
#673=EDGE_CURVE('',#541,#542,#310,.T.);
#674=EDGE_CURVE('',#542,#542,#66,.T.);
#675=EDGE_CURVE('',#543,#507,#67,.T.);
#676=EDGE_CURVE('',#543,#533,#311,.T.);
#677=EDGE_CURVE('',#531,#544,#312,.T.);
#678=EDGE_CURVE('',#544,#545,#313,.T.);
#679=EDGE_CURVE('',#546,#545,#68,.T.);
#680=EDGE_CURVE('',#546,#508,#314,.T.);
#681=EDGE_CURVE('',#547,#543,#315,.T.);
#682=EDGE_CURVE('',#547,#548,#316,.T.);
#683=EDGE_CURVE('',#549,#548,#317,.T.);
#684=EDGE_CURVE('',#528,#549,#318,.T.);
#685=EDGE_CURVE('',#550,#490,#319,.T.);
#686=EDGE_CURVE('',#551,#550,#320,.T.);
#687=EDGE_CURVE('',#551,#500,#321,.T.);
#688=EDGE_CURVE('',#545,#552,#322,.T.);
#689=EDGE_CURVE('',#552,#553,#69,.F.);
#690=EDGE_CURVE('',#553,#546,#323,.T.);
#691=EDGE_CURVE('',#554,#544,#324,.T.);
#692=EDGE_CURVE('',#552,#554,#325,.T.);
#693=EDGE_CURVE('',#513,#555,#326,.T.);
#694=EDGE_CURVE('',#556,#555,#70,.T.);
#695=EDGE_CURVE('',#556,#557,#327,.T.);
#696=EDGE_CURVE('',#557,#526,#328,.T.);
#697=EDGE_CURVE('',#514,#549,#71,.T.);
#698=EDGE_CURVE('',#488,#558,#329,.T.);
#699=EDGE_CURVE('',#558,#559,#72,.F.);
#700=EDGE_CURVE('',#559,#489,#330,.T.);
#701=EDGE_CURVE('',#558,#510,#331,.T.);
#702=EDGE_CURVE('',#501,#560,#332,.T.);
#703=EDGE_CURVE('',#560,#561,#73,.F.);
#704=EDGE_CURVE('',#561,#502,#333,.T.);
#705=EDGE_CURVE('',#560,#551,#334,.T.);
#706=EDGE_CURVE('',#555,#562,#335,.T.);
#707=EDGE_CURVE('',#562,#563,#74,.F.);
#708=EDGE_CURVE('',#563,#556,#336,.T.);
#709=EDGE_CURVE('',#562,#512,#337,.T.);
#710=EDGE_CURVE('',#548,#515,#75,.T.);
#711=EDGE_CURVE('',#506,#547,#76,.T.);
#712=EDGE_CURVE('',#516,#564,#77,.T.);
#713=EDGE_CURVE('',#564,#497,#338,.T.);
#714=EDGE_CURVE('',#564,#565,#339,.T.);
#715=EDGE_CURVE('',#493,#565,#340,.T.);
#716=EDGE_CURVE('',#565,#505,#78,.T.);
#717=EDGE_CURVE('',#509,#553,#341,.T.);
#718=EDGE_CURVE('',#566,#557,#342,.T.);
#719=EDGE_CURVE('',#554,#566,#343,.T.);
#720=EDGE_CURVE('',#566,#563,#344,.T.);
#721=EDGE_CURVE('',#511,#561,#345,.T.);
#722=EDGE_CURVE('',#550,#559,#346,.T.);
#723=ORIENTED_EDGE('',*,*,#567,.F.);
#724=ORIENTED_EDGE('',*,*,#568,.F.);
#725=ORIENTED_EDGE('',*,*,#569,.F.);
#726=ORIENTED_EDGE('',*,*,#570,.T.);
#727=ORIENTED_EDGE('',*,*,#571,.F.);
#728=ORIENTED_EDGE('',*,*,#572,.T.);
#729=ORIENTED_EDGE('',*,*,#573,.F.);
#730=ORIENTED_EDGE('',*,*,#574,.F.);
#731=ORIENTED_EDGE('',*,*,#575,.F.);
#732=ORIENTED_EDGE('',*,*,#576,.F.);
#733=ORIENTED_EDGE('',*,*,#577,.F.);
#734=ORIENTED_EDGE('',*,*,#568,.T.);
#735=ORIENTED_EDGE('',*,*,#578,.F.);
#736=ORIENTED_EDGE('',*,*,#574,.T.);
#737=ORIENTED_EDGE('',*,*,#579,.F.);
#738=ORIENTED_EDGE('',*,*,#580,.F.);
#739=ORIENTED_EDGE('',*,*,#581,.F.);
#740=ORIENTED_EDGE('',*,*,#570,.F.);
#741=ORIENTED_EDGE('',*,*,#582,.F.);
#742=ORIENTED_EDGE('',*,*,#583,.F.);
#743=ORIENTED_EDGE('',*,*,#584,.F.);
#744=ORIENTED_EDGE('',*,*,#585,.F.);
#745=ORIENTED_EDGE('',*,*,#586,.F.);
#746=ORIENTED_EDGE('',*,*,#572,.F.);
#747=ORIENTED_EDGE('',*,*,#587,.F.);
#748=ORIENTED_EDGE('',*,*,#588,.T.);
#749=ORIENTED_EDGE('',*,*,#589,.F.);
#750=ORIENTED_EDGE('',*,*,#588,.F.);
#751=ORIENTED_EDGE('',*,*,#590,.F.);
#752=ORIENTED_EDGE('',*,*,#591,.T.);
#753=ORIENTED_EDGE('',*,*,#592,.F.);
#754=ORIENTED_EDGE('',*,*,#591,.F.);
#755=ORIENTED_EDGE('',*,*,#593,.F.);
#756=ORIENTED_EDGE('',*,*,#594,.T.);
#757=ORIENTED_EDGE('',*,*,#595,.F.);
#758=ORIENTED_EDGE('',*,*,#594,.F.);
#759=ORIENTED_EDGE('',*,*,#596,.F.);
#760=ORIENTED_EDGE('',*,*,#597,.T.);
#761=ORIENTED_EDGE('',*,*,#598,.F.);
#762=ORIENTED_EDGE('',*,*,#597,.F.);
#763=ORIENTED_EDGE('',*,*,#585,.T.);
#764=ORIENTED_EDGE('',*,*,#599,.T.);
#765=ORIENTED_EDGE('',*,*,#600,.T.);
#766=ORIENTED_EDGE('',*,*,#601,.F.);
#767=ORIENTED_EDGE('',*,*,#602,.T.);
#768=ORIENTED_EDGE('',*,*,#603,.T.);
#769=ORIENTED_EDGE('',*,*,#604,.T.);
#770=ORIENTED_EDGE('',*,*,#605,.T.);
#771=ORIENTED_EDGE('',*,*,#606,.F.);
#772=ORIENTED_EDGE('',*,*,#607,.T.);
#773=ORIENTED_EDGE('',*,*,#608,.T.);
#774=ORIENTED_EDGE('',*,*,#583,.T.);
#775=ORIENTED_EDGE('',*,*,#609,.T.);
#776=ORIENTED_EDGE('',*,*,#610,.F.);
#777=ORIENTED_EDGE('',*,*,#611,.T.);
#778=ORIENTED_EDGE('',*,*,#612,.T.);
#779=ORIENTED_EDGE('',*,*,#613,.T.);
#780=ORIENTED_EDGE('',*,*,#614,.T.);
#781=ORIENTED_EDGE('',*,*,#615,.F.);
#782=ORIENTED_EDGE('',*,*,#616,.T.);
#783=ORIENTED_EDGE('',*,*,#617,.T.);
#784=ORIENTED_EDGE('',*,*,#618,.T.);
#785=ORIENTED_EDGE('',*,*,#579,.T.);
#786=ORIENTED_EDGE('',*,*,#573,.T.);
#787=ORIENTED_EDGE('',*,*,#586,.T.);
#788=ORIENTED_EDGE('',*,*,#607,.F.);
#789=ORIENTED_EDGE('',*,*,#619,.F.);
#790=ORIENTED_EDGE('',*,*,#620,.T.);
#791=ORIENTED_EDGE('',*,*,#621,.F.);
#792=ORIENTED_EDGE('',*,*,#622,.F.);
#793=ORIENTED_EDGE('',*,*,#598,.T.);
#794=ORIENTED_EDGE('',*,*,#592,.T.);
#795=ORIENTED_EDGE('',*,*,#584,.T.);
#796=ORIENTED_EDGE('',*,*,#571,.T.);
#797=ORIENTED_EDGE('',*,*,#578,.T.);
#798=ORIENTED_EDGE('',*,*,#623,.F.);
#799=ORIENTED_EDGE('',*,*,#624,.F.);
#800=ORIENTED_EDGE('',*,*,#625,.F.);
#801=ORIENTED_EDGE('',*,*,#626,.T.);
#802=ORIENTED_EDGE('',*,*,#599,.F.);
#803=ORIENTED_EDGE('',*,*,#596,.T.);
#804=ORIENTED_EDGE('',*,*,#590,.T.);
#805=ORIENTED_EDGE('',*,*,#575,.T.);
#806=ORIENTED_EDGE('',*,*,#567,.T.);
#807=ORIENTED_EDGE('',*,*,#581,.T.);
#808=ORIENTED_EDGE('',*,*,#617,.F.);
#809=ORIENTED_EDGE('',*,*,#627,.F.);
#810=ORIENTED_EDGE('',*,*,#628,.F.);
#811=ORIENTED_EDGE('',*,*,#629,.T.);
#812=ORIENTED_EDGE('',*,*,#630,.F.);
#813=ORIENTED_EDGE('',*,*,#595,.T.);
#814=ORIENTED_EDGE('',*,*,#589,.T.);
#815=ORIENTED_EDGE('',*,*,#582,.T.);
#816=ORIENTED_EDGE('',*,*,#569,.T.);
#817=ORIENTED_EDGE('',*,*,#577,.T.);
#818=ORIENTED_EDGE('',*,*,#631,.F.);
#819=ORIENTED_EDGE('',*,*,#632,.F.);
#820=ORIENTED_EDGE('',*,*,#633,.T.);
#821=ORIENTED_EDGE('',*,*,#634,.F.);
#822=ORIENTED_EDGE('',*,*,#609,.F.);
#823=ORIENTED_EDGE('',*,*,#593,.T.);
#824=ORIENTED_EDGE('',*,*,#587,.T.);
#825=ORIENTED_EDGE('',*,*,#618,.F.);
#826=ORIENTED_EDGE('',*,*,#635,.T.);
#827=ORIENTED_EDGE('',*,*,#636,.F.);
#828=ORIENTED_EDGE('',*,*,#635,.F.);
#829=ORIENTED_EDGE('',*,*,#637,.F.);
#830=ORIENTED_EDGE('',*,*,#638,.T.);
#831=ORIENTED_EDGE('',*,*,#639,.F.);
#832=ORIENTED_EDGE('',*,*,#638,.F.);
#833=ORIENTED_EDGE('',*,*,#608,.F.);
#834=ORIENTED_EDGE('',*,*,#640,.T.);
#835=ORIENTED_EDGE('',*,*,#641,.F.);
#836=ORIENTED_EDGE('',*,*,#640,.F.);
#837=ORIENTED_EDGE('',*,*,#642,.F.);
#838=ORIENTED_EDGE('',*,*,#643,.T.);
#839=ORIENTED_EDGE('',*,*,#644,.F.);
#840=ORIENTED_EDGE('',*,*,#643,.F.);
#841=ORIENTED_EDGE('',*,*,#645,.F.);
#842=ORIENTED_EDGE('',*,*,#612,.F.);
#843=ORIENTED_EDGE('',*,*,#646,.F.);
#844=ORIENTED_EDGE('',*,*,#647,.T.);
#845=ORIENTED_EDGE('',*,*,#648,.F.);
#846=ORIENTED_EDGE('',*,*,#649,.T.);
#847=ORIENTED_EDGE('',*,*,#650,.F.);
#848=ORIENTED_EDGE('',*,*,#651,.F.);
#849=ORIENTED_EDGE('',*,*,#652,.F.);
#850=ORIENTED_EDGE('',*,*,#647,.F.);
#851=ORIENTED_EDGE('',*,*,#653,.F.);
#852=ORIENTED_EDGE('',*,*,#654,.T.);
#853=ORIENTED_EDGE('',*,*,#655,.F.);
#854=ORIENTED_EDGE('',*,*,#654,.F.);
#855=ORIENTED_EDGE('',*,*,#656,.F.);
#856=ORIENTED_EDGE('',*,*,#604,.F.);
#857=ORIENTED_EDGE('',*,*,#657,.F.);
#858=ORIENTED_EDGE('',*,*,#658,.F.);
#859=ORIENTED_EDGE('',*,*,#659,.F.);
#860=ORIENTED_EDGE('',*,*,#660,.F.);
#861=ORIENTED_EDGE('',*,*,#661,.F.);
#862=ORIENTED_EDGE('',*,*,#660,.T.);
#863=ORIENTED_EDGE('',*,*,#662,.F.);
#864=ORIENTED_EDGE('',*,*,#649,.F.);
#865=ORIENTED_EDGE('',*,*,#663,.F.);
#866=ORIENTED_EDGE('',*,*,#664,.T.);
#867=ORIENTED_EDGE('',*,*,#665,.F.);
#868=ORIENTED_EDGE('',*,*,#664,.F.);
#869=ORIENTED_EDGE('',*,*,#666,.F.);
#870=ORIENTED_EDGE('',*,*,#667,.T.);
#871=ORIENTED_EDGE('',*,*,#668,.F.);
#872=ORIENTED_EDGE('',*,*,#667,.F.);
#873=ORIENTED_EDGE('',*,*,#669,.F.);
#874=ORIENTED_EDGE('',*,*,#670,.T.);
#875=ORIENTED_EDGE('',*,*,#671,.F.);
#876=ORIENTED_EDGE('',*,*,#670,.F.);
#877=ORIENTED_EDGE('',*,*,#672,.F.);
#878=ORIENTED_EDGE('',*,*,#673,.T.);
#879=ORIENTED_EDGE('',*,*,#674,.F.);
#880=ORIENTED_EDGE('',*,*,#673,.F.);
#881=ORIENTED_EDGE('',*,*,#580,.T.);
#882=ORIENTED_EDGE('',*,*,#622,.T.);
#883=ORIENTED_EDGE('',*,*,#675,.F.);
#884=ORIENTED_EDGE('',*,*,#676,.T.);
#885=ORIENTED_EDGE('',*,*,#658,.T.);
#886=ORIENTED_EDGE('',*,*,#677,.T.);
#887=ORIENTED_EDGE('',*,*,#678,.T.);
#888=ORIENTED_EDGE('',*,*,#679,.F.);
#889=ORIENTED_EDGE('',*,*,#680,.T.);
#890=ORIENTED_EDGE('',*,*,#623,.T.);
#891=ORIENTED_EDGE('',*,*,#642,.T.);
#892=ORIENTED_EDGE('',*,*,#650,.T.);
#893=ORIENTED_EDGE('',*,*,#662,.T.);
#894=ORIENTED_EDGE('',*,*,#659,.T.);
#895=ORIENTED_EDGE('',*,*,#676,.F.);
#896=ORIENTED_EDGE('',*,*,#681,.F.);
#897=ORIENTED_EDGE('',*,*,#682,.T.);
#898=ORIENTED_EDGE('',*,*,#683,.F.);
#899=ORIENTED_EDGE('',*,*,#684,.F.);
#900=ORIENTED_EDGE('',*,*,#674,.T.);
#901=ORIENTED_EDGE('',*,*,#668,.T.);
#902=ORIENTED_EDGE('',*,*,#645,.T.);
#903=ORIENTED_EDGE('',*,*,#652,.T.);
#904=ORIENTED_EDGE('',*,*,#655,.T.);
#905=ORIENTED_EDGE('',*,*,#603,.F.);
#906=ORIENTED_EDGE('',*,*,#685,.F.);
#907=ORIENTED_EDGE('',*,*,#686,.F.);
#908=ORIENTED_EDGE('',*,*,#687,.T.);
#909=ORIENTED_EDGE('',*,*,#613,.F.);
#910=ORIENTED_EDGE('',*,*,#671,.T.);
#911=ORIENTED_EDGE('',*,*,#665,.T.);
#912=ORIENTED_EDGE('',*,*,#679,.T.);
#913=ORIENTED_EDGE('',*,*,#688,.T.);
#914=ORIENTED_EDGE('',*,*,#689,.T.);
#915=ORIENTED_EDGE('',*,*,#690,.T.);
#916=ORIENTED_EDGE('',*,*,#688,.F.);
#917=ORIENTED_EDGE('',*,*,#678,.F.);
#918=ORIENTED_EDGE('',*,*,#691,.F.);
#919=ORIENTED_EDGE('',*,*,#692,.F.);
#920=ORIENTED_EDGE('',*,*,#576,.T.);
#921=ORIENTED_EDGE('',*,*,#630,.T.);
#922=ORIENTED_EDGE('',*,*,#693,.T.);
#923=ORIENTED_EDGE('',*,*,#694,.F.);
#924=ORIENTED_EDGE('',*,*,#695,.T.);
#925=ORIENTED_EDGE('',*,*,#696,.T.);
#926=ORIENTED_EDGE('',*,*,#651,.T.);
#927=ORIENTED_EDGE('',*,*,#684,.T.);
#928=ORIENTED_EDGE('',*,*,#697,.F.);
#929=ORIENTED_EDGE('',*,*,#631,.T.);
#930=ORIENTED_EDGE('',*,*,#637,.T.);
#931=ORIENTED_EDGE('',*,*,#601,.T.);
#932=ORIENTED_EDGE('',*,*,#698,.T.);
#933=ORIENTED_EDGE('',*,*,#699,.T.);
#934=ORIENTED_EDGE('',*,*,#700,.T.);
#935=ORIENTED_EDGE('',*,*,#698,.F.);
#936=ORIENTED_EDGE('',*,*,#600,.F.);
#937=ORIENTED_EDGE('',*,*,#626,.F.);
#938=ORIENTED_EDGE('',*,*,#701,.F.);
#939=ORIENTED_EDGE('',*,*,#615,.T.);
#940=ORIENTED_EDGE('',*,*,#702,.T.);
#941=ORIENTED_EDGE('',*,*,#703,.T.);
#942=ORIENTED_EDGE('',*,*,#704,.T.);
#943=ORIENTED_EDGE('',*,*,#702,.F.);
#944=ORIENTED_EDGE('',*,*,#614,.F.);
#945=ORIENTED_EDGE('',*,*,#687,.F.);
#946=ORIENTED_EDGE('',*,*,#705,.F.);
#947=ORIENTED_EDGE('',*,*,#694,.T.);
#948=ORIENTED_EDGE('',*,*,#706,.T.);
#949=ORIENTED_EDGE('',*,*,#707,.T.);
#950=ORIENTED_EDGE('',*,*,#708,.T.);
#951=ORIENTED_EDGE('',*,*,#706,.F.);
#952=ORIENTED_EDGE('',*,*,#693,.F.);
#953=ORIENTED_EDGE('',*,*,#629,.F.);
#954=ORIENTED_EDGE('',*,*,#709,.F.);
#955=ORIENTED_EDGE('',*,*,#697,.T.);
#956=ORIENTED_EDGE('',*,*,#683,.T.);
#957=ORIENTED_EDGE('',*,*,#710,.T.);
#958=ORIENTED_EDGE('',*,*,#632,.T.);
#959=ORIENTED_EDGE('',*,*,#675,.T.);
#960=ORIENTED_EDGE('',*,*,#621,.T.);
#961=ORIENTED_EDGE('',*,*,#711,.T.);
#962=ORIENTED_EDGE('',*,*,#681,.T.);
#963=ORIENTED_EDGE('',*,*,#610,.T.);
#964=ORIENTED_EDGE('',*,*,#634,.T.);
#965=ORIENTED_EDGE('',*,*,#712,.T.);
#966=ORIENTED_EDGE('',*,*,#713,.T.);
#967=ORIENTED_EDGE('',*,*,#646,.T.);
#968=ORIENTED_EDGE('',*,*,#611,.F.);
#969=ORIENTED_EDGE('',*,*,#713,.F.);
#970=ORIENTED_EDGE('',*,*,#714,.T.);
#971=ORIENTED_EDGE('',*,*,#715,.F.);
#972=ORIENTED_EDGE('',*,*,#605,.F.);
#973=ORIENTED_EDGE('',*,*,#656,.T.);
#974=ORIENTED_EDGE('',*,*,#653,.T.);
#975=ORIENTED_EDGE('',*,*,#663,.T.);
#976=ORIENTED_EDGE('',*,*,#669,.T.);
#977=ORIENTED_EDGE('',*,*,#606,.T.);
#978=ORIENTED_EDGE('',*,*,#715,.T.);
#979=ORIENTED_EDGE('',*,*,#716,.T.);
#980=ORIENTED_EDGE('',*,*,#619,.T.);
#981=ORIENTED_EDGE('',*,*,#690,.F.);
#982=ORIENTED_EDGE('',*,*,#717,.F.);
#983=ORIENTED_EDGE('',*,*,#624,.T.);
#984=ORIENTED_EDGE('',*,*,#680,.F.);
#985=ORIENTED_EDGE('',*,*,#648,.T.);
#986=ORIENTED_EDGE('',*,*,#696,.F.);
#987=ORIENTED_EDGE('',*,*,#718,.F.);
#988=ORIENTED_EDGE('',*,*,#719,.F.);
#989=ORIENTED_EDGE('',*,*,#691,.T.);
#990=ORIENTED_EDGE('',*,*,#677,.F.);
#991=ORIENTED_EDGE('',*,*,#657,.T.);
#992=ORIENTED_EDGE('',*,*,#661,.T.);
#993=ORIENTED_EDGE('',*,*,#666,.T.);
#994=ORIENTED_EDGE('',*,*,#672,.T.);
#995=ORIENTED_EDGE('',*,*,#708,.F.);
#996=ORIENTED_EDGE('',*,*,#720,.F.);
#997=ORIENTED_EDGE('',*,*,#718,.T.);
#998=ORIENTED_EDGE('',*,*,#695,.F.);
#999=ORIENTED_EDGE('',*,*,#704,.F.);
#1000=ORIENTED_EDGE('',*,*,#721,.F.);
#1001=ORIENTED_EDGE('',*,*,#627,.T.);
#1002=ORIENTED_EDGE('',*,*,#616,.F.);
#1003=ORIENTED_EDGE('',*,*,#700,.F.);
#1004=ORIENTED_EDGE('',*,*,#722,.F.);
#1005=ORIENTED_EDGE('',*,*,#685,.T.);
#1006=ORIENTED_EDGE('',*,*,#602,.F.);
#1007=ORIENTED_EDGE('',*,*,#701,.T.);
#1008=ORIENTED_EDGE('',*,*,#625,.T.);
#1009=ORIENTED_EDGE('',*,*,#717,.T.);
#1010=ORIENTED_EDGE('',*,*,#689,.F.);
#1011=ORIENTED_EDGE('',*,*,#692,.T.);
#1012=ORIENTED_EDGE('',*,*,#719,.T.);
#1013=ORIENTED_EDGE('',*,*,#720,.T.);
#1014=ORIENTED_EDGE('',*,*,#707,.F.);
#1015=ORIENTED_EDGE('',*,*,#709,.T.);
#1016=ORIENTED_EDGE('',*,*,#628,.T.);
#1017=ORIENTED_EDGE('',*,*,#721,.T.);
#1018=ORIENTED_EDGE('',*,*,#703,.F.);
#1019=ORIENTED_EDGE('',*,*,#705,.T.);
#1020=ORIENTED_EDGE('',*,*,#686,.T.);
#1021=ORIENTED_EDGE('',*,*,#722,.T.);
#1022=ORIENTED_EDGE('',*,*,#699,.F.);
#1023=ORIENTED_EDGE('',*,*,#710,.F.);
#1024=ORIENTED_EDGE('',*,*,#682,.F.);
#1025=ORIENTED_EDGE('',*,*,#711,.F.);
#1026=ORIENTED_EDGE('',*,*,#620,.F.);
#1027=ORIENTED_EDGE('',*,*,#716,.F.);
#1028=ORIENTED_EDGE('',*,*,#714,.F.);
#1029=ORIENTED_EDGE('',*,*,#712,.F.);
#1030=ORIENTED_EDGE('',*,*,#633,.F.);
#1031=ORIENTED_EDGE('',*,*,#636,.T.);
#1032=ORIENTED_EDGE('',*,*,#639,.T.);
#1033=ORIENTED_EDGE('',*,*,#641,.T.);
#1034=ORIENTED_EDGE('',*,*,#644,.T.);
#1035=PLANE('',#1137);
#1036=PLANE('',#1138);
#1037=PLANE('',#1139);
#1038=PLANE('',#1140);
#1039=PLANE('',#1141);
#1040=PLANE('',#1142);
#1041=PLANE('',#1155);
#1042=PLANE('',#1159);
#1043=PLANE('',#1163);
#1044=PLANE('',#1164);
#1045=PLANE('',#1165);
#1046=PLANE('',#1166);
#1047=PLANE('',#1177);
#1048=PLANE('',#1178);
#1049=PLANE('',#1179);
#1050=PLANE('',#1180);
#1051=PLANE('',#1181);
#1052=PLANE('',#1182);
#1053=PLANE('',#1195);
#1054=PLANE('',#1198);
#1055=PLANE('',#1199);
#1056=PLANE('',#1202);
#1057=PLANE('',#1203);
#1058=PLANE('',#1208);
#1059=PLANE('',#1211);
#1060=PLANE('',#1214);
#1061=PLANE('',#1221);
#1062=PLANE('',#1224);
#1063=PLANE('',#1225);
#1064=PLANE('',#1226);
#1065=PLANE('',#1227);
#1066=PLANE('',#1228);
#1067=PLANE('',#1229);
#1068=PLANE('',#1230);
#1069=ADVANCED_FACE('',(#99),#1035,.F.);
#1070=ADVANCED_FACE('',(#100),#1036,.F.);
#1071=ADVANCED_FACE('',(#101),#1037,.F.);
#1072=ADVANCED_FACE('',(#102),#1038,.F.);
#1073=ADVANCED_FACE('',(#103),#1039,.F.);
#1074=ADVANCED_FACE('',(#104),#1040,.F.);
#1075=ADVANCED_FACE('',(#105),#79,.F.);
#1076=ADVANCED_FACE('',(#106),#80,.F.);
#1077=ADVANCED_FACE('',(#107),#81,.F.);
#1078=ADVANCED_FACE('',(#108),#82,.F.);
#1079=ADVANCED_FACE('',(#109,#15),#1041,.T.);
#1080=ADVANCED_FACE('',(#110,#16),#1042,.T.);
#1081=ADVANCED_FACE('',(#111,#17,#18),#1043,.T.);
#1082=ADVANCED_FACE('',(#112,#19,#20),#1044,.T.);
#1083=ADVANCED_FACE('',(#113,#21,#22),#1045,.T.);
#1084=ADVANCED_FACE('',(#114,#23,#24),#1046,.T.);
#1085=ADVANCED_FACE('',(#115),#83,.F.);
#1086=ADVANCED_FACE('',(#116),#84,.F.);
#1087=ADVANCED_FACE('',(#117),#85,.F.);
#1088=ADVANCED_FACE('',(#118),#86,.F.);
#1089=ADVANCED_FACE('',(#119),#1047,.F.);
#1090=ADVANCED_FACE('',(#120),#1048,.F.);
#1091=ADVANCED_FACE('',(#121),#1049,.F.);
#1092=ADVANCED_FACE('',(#122),#1050,.F.);
#1093=ADVANCED_FACE('',(#123),#1051,.F.);
#1094=ADVANCED_FACE('',(#124),#1052,.F.);
#1095=ADVANCED_FACE('',(#125),#87,.F.);
#1096=ADVANCED_FACE('',(#126),#88,.F.);
#1097=ADVANCED_FACE('',(#127),#89,.F.);
#1098=ADVANCED_FACE('',(#128),#90,.F.);
#1099=ADVANCED_FACE('',(#129,#25),#1053,.T.);
#1100=ADVANCED_FACE('',(#130,#26,#27),#1054,.T.);
#1101=ADVANCED_FACE('',(#131,#28,#29),#1055,.T.);
#1102=ADVANCED_FACE('',(#132),#91,.T.);
#1103=ADVANCED_FACE('',(#133),#1056,.T.);
#1104=ADVANCED_FACE('',(#134,#30),#1057,.T.);
#1105=ADVANCED_FACE('',(#135),#92,.T.);
#1106=ADVANCED_FACE('',(#136),#1058,.T.);
#1107=ADVANCED_FACE('',(#137),#93,.T.);
#1108=ADVANCED_FACE('',(#138),#1059,.T.);
#1109=ADVANCED_FACE('',(#139),#94,.T.);
#1110=ADVANCED_FACE('',(#140),#1060,.T.);
#1111=ADVANCED_FACE('',(#141),#95,.T.);
#1112=ADVANCED_FACE('',(#142),#96,.T.);
#1113=ADVANCED_FACE('',(#143),#97,.T.);
#1114=ADVANCED_FACE('',(#144,#31,#32),#1061,.T.);
#1115=ADVANCED_FACE('',(#145),#98,.T.);
#1116=ADVANCED_FACE('',(#146),#1062,.T.);
#1117=ADVANCED_FACE('',(#147,#33,#34),#1063,.T.);
#1118=ADVANCED_FACE('',(#148),#1064,.T.);
#1119=ADVANCED_FACE('',(#149),#1065,.T.);
#1120=ADVANCED_FACE('',(#150),#1066,.T.);
#1121=ADVANCED_FACE('',(#151),#1067,.T.);
#1122=ADVANCED_FACE('',(#152,#35,#36,#37,#38),#1068,.F.);
#1123=CLOSED_SHELL('',(#1069,#1070,#1071,#1072,#1073,#1074,#1075,#1076,
#1077,#1078,#1079,#1080,#1081,#1082,#1083,#1084,#1085,#1086,#1087,#1088,
#1089,#1090,#1091,#1092,#1093,#1094,#1095,#1096,#1097,#1098,#1099,#1100,
#1101,#1102,#1103,#1104,#1105,#1106,#1107,#1108,#1109,#1110,#1111,#1112,
#1113,#1114,#1115,#1116,#1117,#1118,#1119,#1120,#1121,#1122));
#1124=DERIVED_UNIT_ELEMENT(#1126,1.);
#1125=DERIVED_UNIT_ELEMENT(#1857,-3.);
#1126=(
MASS_UNIT()
NAMED_UNIT(*)
SI_UNIT(.KILO.,.GRAM.)
);
#1127=DERIVED_UNIT((#1124,#1125));
#1128=MEASURE_REPRESENTATION_ITEM('density measure',
POSITIVE_RATIO_MEASURE(7850.),#1127);
#1129=PROPERTY_DEFINITION_REPRESENTATION(#1134,#1131);
#1130=PROPERTY_DEFINITION_REPRESENTATION(#1135,#1132);
#1131=REPRESENTATION('material name',(#1133),#1854);
#1132=REPRESENTATION('density',(#1128),#1854);
#1133=DESCRIPTIVE_REPRESENTATION_ITEM('\X2\AC15CCA0\X0\','\X2\AC15CCA0\X0\');
#1134=PROPERTY_DEFINITION('material property','material name',#1864);
#1135=PROPERTY_DEFINITION('material property','density of part',#1864);
#1136=AXIS2_PLACEMENT_3D('',#1537,#1231,#1232);
#1137=AXIS2_PLACEMENT_3D('',#1538,#1233,#1234);
#1138=AXIS2_PLACEMENT_3D('',#1547,#1239,#1240);
#1139=AXIS2_PLACEMENT_3D('',#1556,#1245,#1246);
#1140=AXIS2_PLACEMENT_3D('',#1562,#1250,#1251);
#1141=AXIS2_PLACEMENT_3D('',#1568,#1255,#1256);
#1142=AXIS2_PLACEMENT_3D('',#1574,#1260,#1261);
#1143=AXIS2_PLACEMENT_3D('',#1580,#1265,#1266);
#1144=AXIS2_PLACEMENT_3D('',#1582,#1267,#1268);
#1145=AXIS2_PLACEMENT_3D('',#1585,#1270,#1271);
#1146=AXIS2_PLACEMENT_3D('',#1586,#1272,#1273);
#1147=AXIS2_PLACEMENT_3D('',#1588,#1274,#1275);
#1148=AXIS2_PLACEMENT_3D('',#1591,#1277,#1278);
#1149=AXIS2_PLACEMENT_3D('',#1592,#1279,#1280);
#1150=AXIS2_PLACEMENT_3D('',#1594,#1281,#1282);
#1151=AXIS2_PLACEMENT_3D('',#1597,#1284,#1285);
#1152=AXIS2_PLACEMENT_3D('',#1598,#1286,#1287);
#1153=AXIS2_PLACEMENT_3D('',#1600,#1288,#1289);
#1154=AXIS2_PLACEMENT_3D('',#1603,#1291,#1292);
#1155=AXIS2_PLACEMENT_3D('',#1604,#1293,#1294);
#1156=AXIS2_PLACEMENT_3D('',#1610,#1297,#1298);
#1157=AXIS2_PLACEMENT_3D('',#1620,#1303,#1304);
#1158=AXIS2_PLACEMENT_3D('',#1623,#1306,#1307);
#1159=AXIS2_PLACEMENT_3D('',#1624,#1308,#1309);
#1160=AXIS2_PLACEMENT_3D('',#1628,#1311,#1312);
#1161=AXIS2_PLACEMENT_3D('',#1638,#1317,#1318);
#1162=AXIS2_PLACEMENT_3D('',#1643,#1321,#1322);
#1163=AXIS2_PLACEMENT_3D('',#1644,#1323,#1324);
#1164=AXIS2_PLACEMENT_3D('',#1652,#1329,#1330);
#1165=AXIS2_PLACEMENT_3D('',#1660,#1335,#1336);
#1166=AXIS2_PLACEMENT_3D('',#1668,#1341,#1342);
#1167=AXIS2_PLACEMENT_3D('',#1676,#1347,#1348);
#1168=AXIS2_PLACEMENT_3D('',#1679,#1350,#1351);
#1169=AXIS2_PLACEMENT_3D('',#1680,#1352,#1353);
#1170=AXIS2_PLACEMENT_3D('',#1682,#1354,#1355);
#1171=AXIS2_PLACEMENT_3D('',#1685,#1357,#1358);
#1172=AXIS2_PLACEMENT_3D('',#1686,#1359,#1360);
#1173=AXIS2_PLACEMENT_3D('',#1689,#1362,#1363);
#1174=AXIS2_PLACEMENT_3D('',#1690,#1364,#1365);
#1175=AXIS2_PLACEMENT_3D('',#1692,#1366,#1367);
#1176=AXIS2_PLACEMENT_3D('',#1695,#1369,#1370);
#1177=AXIS2_PLACEMENT_3D('',#1696,#1371,#1372);
#1178=AXIS2_PLACEMENT_3D('',#1702,#1376,#1377);
#1179=AXIS2_PLACEMENT_3D('',#1711,#1382,#1383);
#1180=AXIS2_PLACEMENT_3D('',#1717,#1387,#1388);
#1181=AXIS2_PLACEMENT_3D('',#1720,#1391,#1392);
#1182=AXIS2_PLACEMENT_3D('',#1729,#1397,#1398);
#1183=AXIS2_PLACEMENT_3D('',#1732,#1401,#1402);
#1184=AXIS2_PLACEMENT_3D('',#1734,#1403,#1404);
#1185=AXIS2_PLACEMENT_3D('',#1737,#1406,#1407);
#1186=AXIS2_PLACEMENT_3D('',#1738,#1408,#1409);
#1187=AXIS2_PLACEMENT_3D('',#1740,#1410,#1411);
#1188=AXIS2_PLACEMENT_3D('',#1743,#1413,#1414);
#1189=AXIS2_PLACEMENT_3D('',#1744,#1415,#1416);
#1190=AXIS2_PLACEMENT_3D('',#1746,#1417,#1418);
#1191=AXIS2_PLACEMENT_3D('',#1749,#1420,#1421);
#1192=AXIS2_PLACEMENT_3D('',#1750,#1422,#1423);
#1193=AXIS2_PLACEMENT_3D('',#1752,#1424,#1425);
#1194=AXIS2_PLACEMENT_3D('',#1755,#1427,#1428);
#1195=AXIS2_PLACEMENT_3D('',#1756,#1429,#1430);
#1196=AXIS2_PLACEMENT_3D('',#1758,#1431,#1432);
#1197=AXIS2_PLACEMENT_3D('',#1765,#1436,#1437);
#1198=AXIS2_PLACEMENT_3D('',#1767,#1439,#1440);
#1199=AXIS2_PLACEMENT_3D('',#1775,#1445,#1446);
#1200=AXIS2_PLACEMENT_3D('',#1781,#1450,#1451);
#1201=AXIS2_PLACEMENT_3D('',#1785,#1453,#1454);
#1202=AXIS2_PLACEMENT_3D('',#1787,#1456,#1457);
#1203=AXIS2_PLACEMENT_3D('',#1791,#1460,#1461);
#1204=AXIS2_PLACEMENT_3D('',#1795,#1463,#1464);
#1205=AXIS2_PLACEMENT_3D('',#1799,#1467,#1468);
#1206=AXIS2_PLACEMENT_3D('',#1800,#1469,#1470);
#1207=AXIS2_PLACEMENT_3D('',#1804,#1472,#1473);
#1208=AXIS2_PLACEMENT_3D('',#1806,#1475,#1476);
#1209=AXIS2_PLACEMENT_3D('',#1808,#1478,#1479);
#1210=AXIS2_PLACEMENT_3D('',#1812,#1481,#1482);
#1211=AXIS2_PLACEMENT_3D('',#1814,#1484,#1485);
#1212=AXIS2_PLACEMENT_3D('',#1816,#1487,#1488);
#1213=AXIS2_PLACEMENT_3D('',#1820,#1490,#1491);
#1214=AXIS2_PLACEMENT_3D('',#1822,#1493,#1494);
#1215=AXIS2_PLACEMENT_3D('',#1824,#1496,#1497);
#1216=AXIS2_PLACEMENT_3D('',#1825,#1498,#1499);
#1217=AXIS2_PLACEMENT_3D('',#1826,#1500,#1501);
#1218=AXIS2_PLACEMENT_3D('',#1827,#1502,#1503);
#1219=AXIS2_PLACEMENT_3D('',#1828,#1504,#1505);
#1220=AXIS2_PLACEMENT_3D('',#1830,#1506,#1507);
#1221=AXIS2_PLACEMENT_3D('',#1832,#1509,#1510);
#1222=AXIS2_PLACEMENT_3D('',#1836,#1513,#1514);
#1223=AXIS2_PLACEMENT_3D('',#1837,#1515,#1516);
#1224=AXIS2_PLACEMENT_3D('',#1838,#1517,#1518);
#1225=AXIS2_PLACEMENT_3D('',#1840,#1520,#1521);
#1226=AXIS2_PLACEMENT_3D('',#1844,#1524,#1525);
#1227=AXIS2_PLACEMENT_3D('',#1846,#1527,#1528);
#1228=AXIS2_PLACEMENT_3D('',#1848,#1530,#1531);
#1229=AXIS2_PLACEMENT_3D('',#1850,#1533,#1534);
#1230=AXIS2_PLACEMENT_3D('',#1851,#1535,#1536);
#1231=DIRECTION('axis',(0.,0.,1.));
#1232=DIRECTION('refdir',(1.,0.,0.));
#1233=DIRECTION('center_axis',(0.,2.58191401075618E-16,-1.));
#1234=DIRECTION('ref_axis',(1.23259516440783E-33,1.,2.58191401075618E-16));
#1235=DIRECTION('',(0.,-1.,-2.58191401075618E-16));
#1236=DIRECTION('',(1.,0.,0.));
#1237=DIRECTION('',(1.23259516440783E-33,1.,2.58191401075618E-16));
#1238=DIRECTION('',(1.,0.,0.));
#1239=DIRECTION('center_axis',(0.,2.58191401075618E-16,-1.));
#1240=DIRECTION('ref_axis',(1.23259516440783E-33,1.,2.58191401075618E-16));
#1241=DIRECTION('',(0.,1.,2.58191401075618E-16));
#1242=DIRECTION('',(1.,0.,0.));
#1243=DIRECTION('',(0.,-1.,-2.58191401075618E-16));
#1244=DIRECTION('',(1.,0.,0.));
#1245=DIRECTION('center_axis',(0.,0.991997911723619,-0.126254279673916));
#1246=DIRECTION('ref_axis',(1.55620414611863E-34,0.126254279673916,0.991997911723619));
#1247=DIRECTION('',(0.,-0.126254279673916,-0.991997911723619));
#1248=DIRECTION('',(1.,0.,0.));
#1249=DIRECTION('',(1.55620414611863E-34,0.126254279673916,0.991997911723619));
#1250=DIRECTION('center_axis',(0.,0.991997911723619,-0.126254279673916));
#1251=DIRECTION('ref_axis',(1.55620414611863E-34,0.126254279673916,0.991997911723619));
#1252=DIRECTION('',(0.,0.126254279673916,0.991997911723619));
#1253=DIRECTION('',(0.,-0.126254279673916,-0.991997911723619));
#1254=DIRECTION('',(1.,0.,0.));
#1255=DIRECTION('center_axis',(0.,-0.991997911723619,-0.126254279673913));
#1256=DIRECTION('ref_axis',(1.55620414611859E-34,0.126254279673913,-0.991997911723619));
#1257=DIRECTION('',(0.,-0.126254279673913,0.991997911723619));
#1258=DIRECTION('',(1.55620414611859E-34,0.126254279673913,-0.991997911723619));
#1259=DIRECTION('',(-1.,0.,0.));
#1260=DIRECTION('center_axis',(0.,-0.991997911723619,-0.126254279673913));
#1261=DIRECTION('ref_axis',(1.55620414611859E-34,0.126254279673913,-0.991997911723619));
#1262=DIRECTION('',(0.,0.126254279673913,-0.991997911723619));
#1263=DIRECTION('',(-1.,0.,0.));
#1264=DIRECTION('',(0.,-0.126254279673913,0.991997911723619));
#1265=DIRECTION('center_axis',(1.,0.,0.));
#1266=DIRECTION('ref_axis',(0.,-1.,0.));
#1267=DIRECTION('center_axis',(1.,-1.23259516440783E-33,0.));
#1268=DIRECTION('ref_axis',(0.,-1.,0.));
#1269=DIRECTION('',(1.,0.,0.));
#1270=DIRECTION('center_axis',(-1.,0.,0.));
#1271=DIRECTION('ref_axis',(0.,-1.,0.));
#1272=DIRECTION('center_axis',(1.,0.,0.));
#1273=DIRECTION('ref_axis',(0.,-1.,0.));
#1274=DIRECTION('center_axis',(1.,0.,0.));
#1275=DIRECTION('ref_axis',(0.,-1.,0.));
#1276=DIRECTION('',(1.,0.,0.));
#1277=DIRECTION('center_axis',(-1.,0.,0.));
#1278=DIRECTION('ref_axis',(0.,-1.,0.));
#1279=DIRECTION('center_axis',(1.,0.,0.));
#1280=DIRECTION('ref_axis',(0.,-1.,0.));
#1281=DIRECTION('center_axis',(1.,-1.23259516440783E-33,0.));
#1282=DIRECTION('ref_axis',(0.,-1.,0.));
#1283=DIRECTION('',(1.,0.,0.));
#1284=DIRECTION('center_axis',(-1.,0.,0.));
#1285=DIRECTION('ref_axis',(0.,-1.,0.));
#1286=DIRECTION('center_axis',(1.,0.,0.));
#1287=DIRECTION('ref_axis',(0.,-1.,0.));
#1288=DIRECTION('center_axis',(1.,0.,0.));
#1289=DIRECTION('ref_axis',(0.,-1.,0.));
#1290=DIRECTION('',(1.,0.,0.));
#1291=DIRECTION('center_axis',(-1.,0.,0.));
#1292=DIRECTION('ref_axis',(0.,-1.,0.));
#1293=DIRECTION('center_axis',(0.,0.,1.));
#1294=DIRECTION('ref_axis',(1.,0.,0.));
#1295=DIRECTION('',(0.,-1.,0.));
#1296=DIRECTION('',(-1.,2.77555756156289E-16,0.));
#1297=DIRECTION('center_axis',(0.,0.,-1.));
#1298=DIRECTION('ref_axis',(-0.707106781186548,0.707106781186547,0.));
#1299=DIRECTION('',(0.,-1.,0.));
#1300=DIRECTION('',(-1.,0.,0.));
#1301=DIRECTION('',(0.,-1.,0.));
#1302=DIRECTION('',(1.,0.,0.));
#1303=DIRECTION('center_axis',(0.,0.,-1.));
#1304=DIRECTION('ref_axis',(0.707106781186548,-0.707106781186547,0.));
#1305=DIRECTION('',(0.,1.,0.));
#1306=DIRECTION('center_axis',(0.,0.,-1.));
#1307=DIRECTION('ref_axis',(-1.,0.,0.));
#1308=DIRECTION('center_axis',(0.,0.,1.));
#1309=DIRECTION('ref_axis',(1.,0.,0.));
#1310=DIRECTION('',(0.,-1.,0.));
#1311=DIRECTION('center_axis',(0.,0.,-1.));
#1312=DIRECTION('ref_axis',(-0.707106781186548,-0.707106781186547,0.));
#1313=DIRECTION('',(1.,0.,0.));
#1314=DIRECTION('',(0.,1.,0.));
#1315=DIRECTION('',(-1.,0.,0.));
#1316=DIRECTION('',(1.38777878078145E-16,1.,0.));
#1317=DIRECTION('center_axis',(0.,0.,-1.));
#1318=DIRECTION('ref_axis',(0.707106781186548,0.707106781186547,0.));
#1319=DIRECTION('',(-1.,5.55111514357805E-16,0.));
#1320=DIRECTION('',(0.,1.,0.));
#1321=DIRECTION('center_axis',(0.,0.,-1.));
#1322=DIRECTION('ref_axis',(-1.,0.,0.));
#1323=DIRECTION('center_axis',(1.,0.,0.));
#1324=DIRECTION('ref_axis',(0.,1.,0.));
#1325=DIRECTION('',(0.,0.,1.));
#1326=DIRECTION('',(0.,1.,0.));
#1327=DIRECTION('',(0.,0.,-1.));
#1328=DIRECTION('',(0.,1.,0.));
#1329=DIRECTION('center_axis',(-1.,0.,0.));
#1330=DIRECTION('ref_axis',(0.,-1.,0.));
#1331=DIRECTION('',(0.,-1.,0.));
#1332=DIRECTION('',(0.,0.,1.));
#1333=DIRECTION('',(0.,1.,0.));
#1334=DIRECTION('',(0.,0.,1.));
#1335=DIRECTION('center_axis',(1.,0.,0.));
#1336=DIRECTION('ref_axis',(0.,1.,0.));
#1337=DIRECTION('',(0.,0.,1.));
#1338=DIRECTION('',(0.,-1.,0.));
#1339=DIRECTION('',(0.,0.,1.));
#1340=DIRECTION('',(0.,1.,0.));
#1341=DIRECTION('center_axis',(-1.,1.23259516440783E-33,0.));
#1342=DIRECTION('ref_axis',(-1.23259516440783E-33,-1.,0.));
#1343=DIRECTION('',(0.,-1.,0.));
#1344=DIRECTION('',(0.,0.,1.));
#1345=DIRECTION('',(-1.23259516440783E-33,-1.,0.));
#1346=DIRECTION('',(0.,0.,-1.));
#1347=DIRECTION('center_axis',(0.,0.,-1.));
#1348=DIRECTION('ref_axis',(-1.,0.,0.));
#1349=DIRECTION('',(0.,0.,-1.));
#1350=DIRECTION('center_axis',(0.,0.,1.));
#1351=DIRECTION('ref_axis',(-1.,0.,0.));
#1352=DIRECTION('center_axis',(0.,0.,-1.));
#1353=DIRECTION('ref_axis',(-1.,0.,0.));
#1354=DIRECTION('center_axis',(0.,0.,-1.));
#1355=DIRECTION('ref_axis',(-1.,0.,0.));
#1356=DIRECTION('',(0.,0.,-1.));
#1357=DIRECTION('center_axis',(0.,0.,1.));
#1358=DIRECTION('ref_axis',(-1.,0.,0.));
#1359=DIRECTION('center_axis',(0.,0.,-1.));
#1360=DIRECTION('ref_axis',(-1.,0.,0.));
#1361=DIRECTION('',(0.,0.,-1.));
#1362=DIRECTION('center_axis',(0.,0.,1.));
#1363=DIRECTION('ref_axis',(-1.,0.,0.));
#1364=DIRECTION('center_axis',(0.,0.,-1.));
#1365=DIRECTION('ref_axis',(-1.,0.,0.));
#1366=DIRECTION('center_axis',(0.,0.,-1.));
#1367=DIRECTION('ref_axis',(-1.,0.,0.));
#1368=DIRECTION('',(0.,0.,-1.));
#1369=DIRECTION('center_axis',(0.,0.,1.));
#1370=DIRECTION('ref_axis',(-1.,0.,0.));
#1371=DIRECTION('center_axis',(-0.991997911723619,0.,-0.126254279673916));
#1372=DIRECTION('ref_axis',(-0.126254279673916,2.22314878016948E-34,0.991997911723619));
#1373=DIRECTION('',(0.126254279673916,0.,-0.991997911723619));
#1374=DIRECTION('',(-0.126254279673916,1.55620414611863E-34,0.991997911723619));
#1375=DIRECTION('',(0.,1.,0.));
#1376=DIRECTION('center_axis',(-0.991997911723619,0.,-0.126254279673916));
#1377=DIRECTION('ref_axis',(-0.126254279673916,2.22314878016948E-34,0.991997911723619));
#1378=DIRECTION('',(-0.126254279673916,0.,0.991997911723619));
#1379=DIRECTION('',(0.,1.,0.));
#1380=DIRECTION('',(0.126254279673916,0.,-0.991997911723619));
#1381=DIRECTION('',(0.,1.,0.));
#1382=DIRECTION('center_axis',(-2.58191401075618E-16,0.,-1.));
#1383=DIRECTION('ref_axis',(-1.,1.76085023486833E-33,2.58191401075618E-16));
#1384=DIRECTION('',(1.,0.,-2.58191401075618E-16));
#1385=DIRECTION('',(-1.,1.23259516440783E-33,2.58191401075618E-16));
#1386=DIRECTION('',(0.,1.,0.));
#1387=DIRECTION('center_axis',(0.991997911723619,0.,-0.126254279673913));
#1388=DIRECTION('ref_axis',(-0.126254279673913,2.22314878016942E-34,-0.991997911723619));
#1389=DIRECTION('',(0.126254279673913,0.,0.991997911723619));
#1390=DIRECTION('',(-0.126254279673913,1.55620414611859E-34,-0.991997911723619));
#1391=DIRECTION('center_axis',(0.991997911723619,0.,-0.126254279673913));
#1392=DIRECTION('ref_axis',(-0.126254279673913,2.22314878016942E-34,-0.991997911723619));
#1393=DIRECTION('',(-0.126254279673913,0.,-0.991997911723619));
#1394=DIRECTION('',(0.,-1.,0.));
#1395=DIRECTION('',(0.126254279673913,0.,0.991997911723619));
#1396=DIRECTION('',(0.,1.,0.));
#1397=DIRECTION('center_axis',(-2.58191401075618E-16,0.,-1.));
#1398=DIRECTION('ref_axis',(-1.,1.76085023486833E-33,2.58191401075618E-16));
#1399=DIRECTION('',(-1.,0.,2.58191401075618E-16));
#1400=DIRECTION('',(1.,0.,-2.58191401075618E-16));
#1401=DIRECTION('center_axis',(0.,1.,0.));
#1402=DIRECTION('ref_axis',(1.,0.,0.));
#1403=DIRECTION('center_axis',(1.23259516440783E-33,1.,0.));
#1404=DIRECTION('ref_axis',(1.,0.,0.));
#1405=DIRECTION('',(0.,1.,0.));
#1406=DIRECTION('center_axis',(0.,-1.,0.));
#1407=DIRECTION('ref_axis',(1.,0.,0.));
#1408=DIRECTION('center_axis',(0.,1.,0.));
#1409=DIRECTION('ref_axis',(1.,0.,0.));
#1410=DIRECTION('center_axis',(0.,1.,0.));
#1411=DIRECTION('ref_axis',(1.,0.,0.));
#1412=DIRECTION('',(0.,1.,0.));
#1413=DIRECTION('center_axis',(0.,-1.,0.));
#1414=DIRECTION('ref_axis',(1.,0.,0.));
#1415=DIRECTION('center_axis',(0.,1.,0.));
#1416=DIRECTION('ref_axis',(1.,0.,0.));
#1417=DIRECTION('center_axis',(1.23259516440783E-33,1.,0.));
#1418=DIRECTION('ref_axis',(1.,0.,0.));
#1419=DIRECTION('',(0.,1.,0.));
#1420=DIRECTION('center_axis',(0.,-1.,0.));
#1421=DIRECTION('ref_axis',(1.,0.,0.));
#1422=DIRECTION('center_axis',(0.,1.,0.));
#1423=DIRECTION('ref_axis',(1.,0.,0.));
#1424=DIRECTION('center_axis',(0.,1.,0.));
#1425=DIRECTION('ref_axis',(1.,0.,0.));
#1426=DIRECTION('',(0.,1.,0.));
#1427=DIRECTION('center_axis',(0.,-1.,0.));
#1428=DIRECTION('ref_axis',(1.,0.,0.));
#1429=DIRECTION('center_axis',(0.,0.,1.));
#1430=DIRECTION('ref_axis',(1.,0.,0.));
#1431=DIRECTION('center_axis',(0.,0.,-1.));
#1432=DIRECTION('ref_axis',(0.707106781186548,0.707106781186548,0.));
#1433=DIRECTION('',(-1.,0.,0.));
#1434=DIRECTION('',(1.,0.,0.));
#1435=DIRECTION('',(0.,-1.,0.));
#1436=DIRECTION('center_axis',(0.,0.,-1.));
#1437=DIRECTION('ref_axis',(-0.707106781186548,-0.707106781186548,0.));
#1438=DIRECTION('',(1.,0.,0.));
#1439=DIRECTION('center_axis',(0.,1.,0.));
#1440=DIRECTION('ref_axis',(-1.,0.,0.));
#1441=DIRECTION('',(0.,0.,1.));
#1442=DIRECTION('',(-1.,0.,0.));
#1443=DIRECTION('',(0.,0.,-1.));
#1444=DIRECTION('',(-1.,0.,0.));
#1445=DIRECTION('center_axis',(0.,1.,0.));
#1446=DIRECTION('ref_axis',(-1.,0.,0.));
#1447=DIRECTION('',(0.,0.,1.));
#1448=DIRECTION('',(1.,0.,0.));
#1449=DIRECTION('',(0.,0.,1.));
#1450=DIRECTION('center_axis',(0.,0.,1.));
#1451=DIRECTION('ref_axis',(-0.707106781186548,-0.707106781186548,0.));
#1452=DIRECTION('',(0.,0.,-1.));
#1453=DIRECTION('center_axis',(0.,0.,-1.));
#1454=DIRECTION('ref_axis',(-0.707106781186548,-0.707106781186548,0.));
#1455=DIRECTION('',(0.,0.,1.));
#1456=DIRECTION('center_axis',(-1.,0.,0.));
#1457=DIRECTION('ref_axis',(0.,-1.,0.));
#1458=DIRECTION('',(0.,0.,1.));
#1459=DIRECTION('',(0.,1.,0.));
#1460=DIRECTION('center_axis',(0.,0.,1.));
#1461=DIRECTION('ref_axis',(1.,0.,0.));
#1462=DIRECTION('',(1.,2.22044604925031E-15,0.));
#1463=DIRECTION('center_axis',(0.,0.,-1.));
#1464=DIRECTION('ref_axis',(0.707106781186548,-0.707106781186548,0.));
#1465=DIRECTION('',(4.16333634234434E-16,1.,0.));
#1466=DIRECTION('',(1.,0.,0.));
#1467=DIRECTION('center_axis',(0.,0.,-1.));
#1468=DIRECTION('ref_axis',(-0.707106781186546,0.707106781186549,0.));
#1469=DIRECTION('center_axis',(0.,0.,1.));
#1470=DIRECTION('ref_axis',(-0.707106781186548,0.707106781186547,0.));
#1471=DIRECTION('',(0.,0.,-1.));
#1472=DIRECTION('center_axis',(0.,0.,-1.));
#1473=DIRECTION('ref_axis',(-0.707106781186548,0.707106781186547,0.));
#1474=DIRECTION('',(0.,0.,1.));
#1475=DIRECTION('center_axis',(2.77555756156289E-16,1.,0.));
#1476=DIRECTION('ref_axis',(-1.,2.77555756156289E-16,0.));
#1477=DIRECTION('',(1.,-2.77555756156289E-16,0.));
#1478=DIRECTION('center_axis',(0.,0.,1.));
#1479=DIRECTION('ref_axis',(0.707106781186548,0.707106781186547,0.));
#1480=DIRECTION('',(0.,0.,-1.));
#1481=DIRECTION('center_axis',(0.,0.,-1.));
#1482=DIRECTION('ref_axis',(0.707106781186548,0.707106781186547,0.));
#1483=DIRECTION('',(0.,0.,1.));
#1484=DIRECTION('center_axis',(1.,-1.38777878078145E-16,0.));
#1485=DIRECTION('ref_axis',(1.38777878078145E-16,1.,0.));
#1486=DIRECTION('',(-1.38777878078145E-16,-1.,0.));
#1487=DIRECTION('center_axis',(0.,0.,1.));
#1488=DIRECTION('ref_axis',(0.707106781186548,-0.707106781186548,0.));
#1489=DIRECTION('',(0.,0.,-1.));
#1490=DIRECTION('center_axis',(0.,0.,-1.));
#1491=DIRECTION('ref_axis',(0.707106781186548,-0.707106781186548,0.));
#1492=DIRECTION('',(0.,0.,1.));
#1493=DIRECTION('center_axis',(2.22044604925031E-15,-1.,0.));
#1494=DIRECTION('ref_axis',(1.,2.22044604925031E-15,0.));
#1495=DIRECTION('',(-1.,-2.22044604925031E-15,0.));
#1496=DIRECTION('center_axis',(0.,0.,1.));
#1497=DIRECTION('ref_axis',(-0.707106781186546,0.707106781186549,0.));
#1498=DIRECTION('center_axis',(0.,0.,1.));
#1499=DIRECTION('ref_axis',(-0.707106781186546,0.707106781186549,0.));
#1500=DIRECTION('center_axis',(0.,0.,1.));
#1501=DIRECTION('ref_axis',(0.707106781186548,0.707106781186548,0.));
#1502=DIRECTION('center_axis',(0.,0.,1.));
#1503=DIRECTION('ref_axis',(0.707106781186548,0.707106781186548,0.));
#1504=DIRECTION('center_axis',(0.,0.,1.));
#1505=DIRECTION('ref_axis',(-0.707106781186548,-0.707106781186547,0.));
#1506=DIRECTION('center_axis',(0.,0.,1.));
#1507=DIRECTION('ref_axis',(-0.707106781186548,-0.707106781186547,0.));
#1508=DIRECTION('',(0.,0.,1.));
#1509=DIRECTION('center_axis',(-1.23259516440783E-33,-1.,0.));
#1510=DIRECTION('ref_axis',(1.,-1.23259516440783E-33,0.));
#1511=DIRECTION('',(1.,-1.23259516440783E-33,0.));
#1512=DIRECTION('',(0.,0.,-1.));
#1513=DIRECTION('center_axis',(0.,0.,1.));
#1514=DIRECTION('ref_axis',(0.707106781186548,-0.707106781186547,0.));
#1515=DIRECTION('center_axis',(0.,0.,1.));
#1516=DIRECTION('ref_axis',(0.707106781186548,-0.707106781186547,0.));
#1517=DIRECTION('center_axis',(0.,-1.,0.));
#1518=DIRECTION('ref_axis',(1.,0.,0.));
#1519=DIRECTION('',(-1.,0.,0.));
#1520=DIRECTION('center_axis',(0.,-1.,0.));
#1521=DIRECTION('ref_axis',(1.,0.,0.));
#1522=DIRECTION('',(0.,0.,1.));
#1523=DIRECTION('',(-1.,0.,0.));
#1524=DIRECTION('center_axis',(1.,-4.16333634234434E-16,0.));
#1525=DIRECTION('ref_axis',(4.16333634234434E-16,1.,0.));
#1526=DIRECTION('',(-4.16333634234434E-16,-1.,0.));
#1527=DIRECTION('center_axis',(5.55111514357805E-16,1.,0.));
#1528=DIRECTION('ref_axis',(-1.,5.55111514357805E-16,0.));
#1529=DIRECTION('',(1.,-5.55111514357805E-16,0.));
#1530=DIRECTION('center_axis',(-1.,0.,0.));
#1531=DIRECTION('ref_axis',(0.,-1.,0.));
#1532=DIRECTION('',(0.,1.,0.));
#1533=DIRECTION('center_axis',(0.,0.,1.));
#1534=DIRECTION('ref_axis',(1.,0.,0.));
#1535=DIRECTION('center_axis',(0.,0.,1.));
#1536=DIRECTION('ref_axis',(1.,0.,0.));
#1537=CARTESIAN_POINT('',(0.,0.,0.));
#1538=CARTESIAN_POINT('Origin',(5.10294398064842E-32,41.4,9.));
#1539=CARTESIAN_POINT('',(2.,58.6,9.));
#1540=CARTESIAN_POINT('',(2.,41.4,9.));
#1541=CARTESIAN_POINT('',(2.,25.7,8.99999999999999));
#1542=CARTESIAN_POINT('',(7.22300766342989E-32,58.6,9.));
#1543=CARTESIAN_POINT('',(7.22300766342989E-32,58.6,9.));
#1544=CARTESIAN_POINT('',(5.10294398064842E-32,41.4,9.));
#1545=CARTESIAN_POINT('',(8.71444781236336E-32,70.7,9.00000000000001));
#1546=CARTESIAN_POINT('',(5.10294398064842E-32,41.4,9.));
#1547=CARTESIAN_POINT('Origin',(5.10294398064842E-32,41.4,9.));
#1548=CARTESIAN_POINT('',(98.,41.4,9.));
#1549=CARTESIAN_POINT('',(98.,58.6,9.));
#1550=CARTESIAN_POINT('',(98.,65.7,9.));
#1551=CARTESIAN_POINT('',(100.,41.4,9.));
#1552=CARTESIAN_POINT('',(5.10294398064842E-32,41.4,9.));
#1553=CARTESIAN_POINT('',(100.,58.6,9.));
#1554=CARTESIAN_POINT('',(100.,20.7,8.99999999999999));
#1555=CARTESIAN_POINT('',(7.22300766342989E-32,58.6,9.));
#1556=CARTESIAN_POINT('Origin',(7.22300766342989E-32,58.6,9.));
#1557=CARTESIAN_POINT('',(2.,60.,20.));
#1558=CARTESIAN_POINT('',(2.,57.7743005855562,2.51236174365645));
#1559=CARTESIAN_POINT('',(7.39557098644699E-32,60.,20.));
#1560=CARTESIAN_POINT('',(25.,60.,20.));
#1561=CARTESIAN_POINT('',(7.19420968532066E-32,58.3663630448926,7.16428106701369));
#1562=CARTESIAN_POINT('Origin',(7.22300766342989E-32,58.6,9.));
#1563=CARTESIAN_POINT('',(98.,60.,20.));
#1564=CARTESIAN_POINT('',(98.,58.4119063109954,7.52212101496424));
#1565=CARTESIAN_POINT('',(100.,60.,20.));
#1566=CARTESIAN_POINT('',(100.,57.5693558880937,0.90208197787895));
#1567=CARTESIAN_POINT('',(25.,60.,20.));
#1568=CARTESIAN_POINT('Origin',(4.93038065763132E-32,40.,20.));
#1569=CARTESIAN_POINT('',(2.,40.,20.));
#1570=CARTESIAN_POINT('',(2.,40.8880936890045,13.0221210149642));
#1571=CARTESIAN_POINT('',(4.93038065763132E-32,40.,20.));
#1572=CARTESIAN_POINT('',(5.14369901399598E-32,41.7306441119063,6.40208197787904));
#1573=CARTESIAN_POINT('',(25.,40.,20.));
#1574=CARTESIAN_POINT('Origin',(4.93038065763132E-32,40.,20.));
#1575=CARTESIAN_POINT('',(98.,40.,20.));
#1576=CARTESIAN_POINT('',(98.,41.5256994144437,8.01236174365652));
#1577=CARTESIAN_POINT('',(100.,40.,20.));
#1578=CARTESIAN_POINT('',(25.,40.,20.));
#1579=CARTESIAN_POINT('',(100.,40.9336369551073,12.6642810670136));
#1580=CARTESIAN_POINT('Origin',(7.70371977754894E-32,62.5,14.5));
#1581=CARTESIAN_POINT('',(7.96256476207459E-32,64.6,14.5));
#1582=CARTESIAN_POINT('Origin',(1.23259516440783E-31,62.5,14.5));
#1583=CARTESIAN_POINT('',(2.,64.6,14.5));
#1584=CARTESIAN_POINT('',(7.70371977754894E-32,64.6,14.5));
#1585=CARTESIAN_POINT('Origin',(2.,62.5,14.5));
#1586=CARTESIAN_POINT('Origin',(7.70371977754894E-32,62.5,14.5));
#1587=CARTESIAN_POINT('',(98.,64.6,14.5));
#1588=CARTESIAN_POINT('Origin',(98.,62.5,14.5));
#1589=CARTESIAN_POINT('',(100.,64.6,14.5));
#1590=CARTESIAN_POINT('',(7.70371977754894E-32,64.6,14.5));
#1591=CARTESIAN_POINT('Origin',(100.,62.5,14.5));
#1592=CARTESIAN_POINT('Origin',(4.62223186652937E-32,37.5,14.5));
#1593=CARTESIAN_POINT('',(4.88107685105501E-32,39.6,14.5));
#1594=CARTESIAN_POINT('Origin',(1.23259516440783E-31,37.5,14.5));
#1595=CARTESIAN_POINT('',(2.,39.6,14.5));
#1596=CARTESIAN_POINT('',(4.62223186652937E-32,39.6,14.5));
#1597=CARTESIAN_POINT('Origin',(2.,37.5,14.5));
#1598=CARTESIAN_POINT('Origin',(4.62223186652937E-32,37.5,14.5));
#1599=CARTESIAN_POINT('',(98.,39.6,14.5));
#1600=CARTESIAN_POINT('Origin',(98.,37.5,14.5));
#1601=CARTESIAN_POINT('',(100.,39.6,14.5));
#1602=CARTESIAN_POINT('',(4.62223186652937E-32,39.6,14.5));
#1603=CARTESIAN_POINT('Origin',(100.,37.5,14.5));
#1604=CARTESIAN_POINT('Origin',(50.,50.,20.));
#1605=CARTESIAN_POINT('',(98.,10.,20.));
#1606=CARTESIAN_POINT('',(98.,90.,20.));
#1607=CARTESIAN_POINT('',(93.,10.,20.));
#1608=CARTESIAN_POINT('',(90.,10.,20.));
#1609=CARTESIAN_POINT('',(90.,7.,20.));
#1610=CARTESIAN_POINT('Origin',(93.,7.,20.));
#1611=CARTESIAN_POINT('',(90.,2.,20.));
#1612=CARTESIAN_POINT('',(90.,2.,20.));
#1613=CARTESIAN_POINT('',(60.,2.,20.));
#1614=CARTESIAN_POINT('',(90.,2.,20.));
#1615=CARTESIAN_POINT('',(60.,-1.056510140921E-31,20.));
#1616=CARTESIAN_POINT('',(60.,25.,20.));
#1617=CARTESIAN_POINT('',(97.,0.,20.));
#1618=CARTESIAN_POINT('',(100.,0.,20.));
#1619=CARTESIAN_POINT('',(100.,3.00000000000001,20.));
#1620=CARTESIAN_POINT('Origin',(97.,3.,20.));
#1621=CARTESIAN_POINT('',(100.,100.,20.));
#1622=CARTESIAN_POINT('',(96.45,5.,20.));
#1623=CARTESIAN_POINT('Origin',(95.,5.,20.));
#1624=CARTESIAN_POINT('Origin',(50.,50.,20.));
#1625=CARTESIAN_POINT('',(1.23259516440783E-31,3.,20.));
#1626=CARTESIAN_POINT('',(1.23259516440783E-31,0.,20.));
#1627=CARTESIAN_POINT('',(3.00000000000001,0.,20.));
#1628=CARTESIAN_POINT('Origin',(3.,3.,20.));
#1629=CARTESIAN_POINT('',(40.,-7.04340093947332E-32,20.));
#1630=CARTESIAN_POINT('',(100.,0.,20.));
#1631=CARTESIAN_POINT('',(40.,2.,20.));
#1632=CARTESIAN_POINT('',(40.,25.,20.));
#1633=CARTESIAN_POINT('',(9.99999997052518,2.,20.));
#1634=CARTESIAN_POINT('',(90.,2.,20.));
#1635=CARTESIAN_POINT('',(9.99999997052517,7.,20.));
#1636=CARTESIAN_POINT('',(9.99999997052517,10.,20.));
#1637=CARTESIAN_POINT('',(6.99999997052517,10.,20.));
#1638=CARTESIAN_POINT('Origin',(6.99999997052517,7.,20.));
#1639=CARTESIAN_POINT('',(1.99999999999999,10.,20.));
#1640=CARTESIAN_POINT('',(2.,10.,20.));
#1641=CARTESIAN_POINT('',(2.,10.,20.));
#1642=CARTESIAN_POINT('',(6.45,5.,20.));
#1643=CARTESIAN_POINT('Origin',(5.,5.,20.));
#1644=CARTESIAN_POINT('Origin',(100.,-1.23259516440783E-31,0.));
#1645=CARTESIAN_POINT('',(100.,3.,0.));
#1646=CARTESIAN_POINT('',(100.,3.,0.));
#1647=CARTESIAN_POINT('',(100.,97.,0.));
#1648=CARTESIAN_POINT('',(100.,-1.23259516440783E-31,0.));
#1649=CARTESIAN_POINT('',(100.,97.,20.));
#1650=CARTESIAN_POINT('',(100.,97.,0.));
#1651=CARTESIAN_POINT('',(100.,100.,20.));
#1652=CARTESIAN_POINT('Origin',(98.,90.,2.));
#1653=CARTESIAN_POINT('',(98.,90.,20.));
#1654=CARTESIAN_POINT('',(98.,90.,20.));
#1655=CARTESIAN_POINT('',(98.,90.,2.));
#1656=CARTESIAN_POINT('',(98.,90.,2.));
#1657=CARTESIAN_POINT('',(98.,10.,2.));
#1658=CARTESIAN_POINT('',(98.,70.,2.));
#1659=CARTESIAN_POINT('',(98.,10.,2.));
#1660=CARTESIAN_POINT('Origin',(2.,10.,2.));
#1661=CARTESIAN_POINT('',(2.,10.,2.));
#1662=CARTESIAN_POINT('',(2.,10.,2.));
#1663=CARTESIAN_POINT('',(2.,90.,2.));
#1664=CARTESIAN_POINT('',(2.,30.,2.));
#1665=CARTESIAN_POINT('',(1.99999999999999,90.,20.));
#1666=CARTESIAN_POINT('',(2.,90.,2.));
#1667=CARTESIAN_POINT('',(2.,10.,20.));
#1668=CARTESIAN_POINT('Origin',(1.23259516440783E-31,100.,0.));
#1669=CARTESIAN_POINT('',(1.23259516440783E-31,97.,20.));
#1670=CARTESIAN_POINT('',(1.23259516440783E-31,0.,20.));
#1671=CARTESIAN_POINT('',(1.1956173094756E-31,97.,0.));
#1672=CARTESIAN_POINT('',(0.,97.,0.));
#1673=CARTESIAN_POINT('',(3.6977854932235E-33,3.00000000000001,0.));
#1674=CARTESIAN_POINT('',(1.23259516440783E-31,100.,0.));
#1675=CARTESIAN_POINT('',(0.,3.,0.));
#1676=CARTESIAN_POINT('Origin',(5.,5.,20.));
#1677=CARTESIAN_POINT('',(6.45,5.,0.));
#1678=CARTESIAN_POINT('',(6.45,5.,20.));
#1679=CARTESIAN_POINT('Origin',(5.,5.,0.));
#1680=CARTESIAN_POINT('Origin',(5.,95.,20.));
#1681=CARTESIAN_POINT('',(6.45,95.,20.));
#1682=CARTESIAN_POINT('Origin',(5.,95.,20.));
#1683=CARTESIAN_POINT('',(6.45,95.,0.));
#1684=CARTESIAN_POINT('',(6.45,95.,20.));
#1685=CARTESIAN_POINT('Origin',(5.,95.,0.));
#1686=CARTESIAN_POINT('Origin',(95.,5.,20.));
#1687=CARTESIAN_POINT('',(96.45,5.,0.));
#1688=CARTESIAN_POINT('',(96.45,5.,20.));
#1689=CARTESIAN_POINT('Origin',(95.,5.,0.));
#1690=CARTESIAN_POINT('Origin',(95.,95.,20.));
#1691=CARTESIAN_POINT('',(96.45,95.,20.));
#1692=CARTESIAN_POINT('Origin',(95.,95.,20.));
#1693=CARTESIAN_POINT('',(96.45,95.,0.));
#1694=CARTESIAN_POINT('',(96.45,95.,20.));
#1695=CARTESIAN_POINT('Origin',(95.,95.,0.));
#1696=CARTESIAN_POINT('Origin',(41.4,-7.28991997235489E-32,9.));
#1697=CARTESIAN_POINT('',(41.4,2.,9.));
#1698=CARTESIAN_POINT('',(42.2256994144438,2.,2.51236174365644));
#1699=CARTESIAN_POINT('',(41.4,-7.28991997235489E-32,9.));
#1700=CARTESIAN_POINT('',(41.6336369551074,-5.13174195875765E-32,7.16428106701369));
#1701=CARTESIAN_POINT('',(41.4,-7.28991997235489E-32,9.));
#1702=CARTESIAN_POINT('Origin',(41.4,-7.28991997235489E-32,9.));
#1703=CARTESIAN_POINT('',(41.4,98.,9.));
#1704=CARTESIAN_POINT('',(40.,98.,20.));
#1705=CARTESIAN_POINT('',(41.5880936890046,98.,7.52212101496424));
#1706=CARTESIAN_POINT('',(41.4,100.,9.));
#1707=CARTESIAN_POINT('',(41.4,-7.28991997235489E-32,9.));
#1708=CARTESIAN_POINT('',(40.,100.,20.));
#1709=CARTESIAN_POINT('',(42.4306441119063,100.,0.90208197787895));
#1710=CARTESIAN_POINT('',(40.,25.,20.));
#1711=CARTESIAN_POINT('Origin',(58.6,-1.03185823763284E-31,9.));
#1712=CARTESIAN_POINT('',(58.6,2.,9.));
#1713=CARTESIAN_POINT('',(74.3,2.,8.99999999999999));
#1714=CARTESIAN_POINT('',(58.6,-1.03185823763284E-31,9.));
#1715=CARTESIAN_POINT('',(29.3,-3.61150383171495E-32,9.00000000000001));
#1716=CARTESIAN_POINT('',(58.6,-1.03185823763284E-31,9.));
#1717=CARTESIAN_POINT('Origin',(60.,-1.056510140921E-31,20.));
#1718=CARTESIAN_POINT('',(59.1119063109955,2.,13.0221210149642));
#1719=CARTESIAN_POINT('',(58.2693558880937,-7.18225263008233E-32,6.40208197787904));
#1720=CARTESIAN_POINT('Origin',(60.,-1.056510140921E-31,20.));
#1721=CARTESIAN_POINT('',(60.,98.,20.));
#1722=CARTESIAN_POINT('',(58.6,98.,9.));
#1723=CARTESIAN_POINT('',(58.4743005855563,98.,8.01236174365652));
#1724=CARTESIAN_POINT('',(60.,100.,20.));
#1725=CARTESIAN_POINT('',(60.,25.,20.));
#1726=CARTESIAN_POINT('',(58.6,100.,9.));
#1727=CARTESIAN_POINT('',(59.0663630448927,100.,12.6642810670136));
#1728=CARTESIAN_POINT('',(58.6,-1.03185823763284E-31,9.));
#1729=CARTESIAN_POINT('Origin',(58.6,-1.03185823763284E-31,9.));
#1730=CARTESIAN_POINT('',(34.3,98.,9.));
#1731=CARTESIAN_POINT('',(79.3,100.,8.99999999999999));
#1732=CARTESIAN_POINT('Origin',(62.5,-1.10053139679271E-31,14.5));
#1733=CARTESIAN_POINT('',(60.4,-1.06355354186047E-31,14.5));
#1734=CARTESIAN_POINT('Origin',(62.5,0.,14.5));
#1735=CARTESIAN_POINT('',(60.4,2.,14.5));
#1736=CARTESIAN_POINT('',(60.4,-1.10053139679271E-31,14.5));
#1737=CARTESIAN_POINT('Origin',(62.5,2.,14.5));
#1738=CARTESIAN_POINT('Origin',(62.5,-1.10053139679271E-31,14.5));
#1739=CARTESIAN_POINT('',(60.4,98.,14.5));
#1740=CARTESIAN_POINT('Origin',(62.5,98.,14.5));
#1741=CARTESIAN_POINT('',(60.4,100.,14.5));
#1742=CARTESIAN_POINT('',(60.4,-1.10053139679271E-31,14.5));
#1743=CARTESIAN_POINT('Origin',(62.5,100.,14.5));
#1744=CARTESIAN_POINT('Origin',(37.5,-6.60318838075624E-32,14.5));
#1745=CARTESIAN_POINT('',(35.4,-6.23340983143389E-32,14.5));
#1746=CARTESIAN_POINT('Origin',(37.5,0.,14.5));
#1747=CARTESIAN_POINT('',(35.4,2.,14.5));
#1748=CARTESIAN_POINT('',(35.4,-6.60318838075624E-32,14.5));
#1749=CARTESIAN_POINT('Origin',(37.5,2.,14.5));
#1750=CARTESIAN_POINT('Origin',(37.5,-6.60318838075624E-32,14.5));
#1751=CARTESIAN_POINT('',(35.4,98.,14.5));
#1752=CARTESIAN_POINT('Origin',(37.5,98.,14.5));
#1753=CARTESIAN_POINT('',(35.4,100.,14.5));
#1754=CARTESIAN_POINT('',(35.4,-6.60318838075624E-32,14.5));
#1755=CARTESIAN_POINT('Origin',(37.5,100.,14.5));
#1756=CARTESIAN_POINT('Origin',(50.,50.,20.));
#1757=CARTESIAN_POINT('',(97.,100.,20.));
#1758=CARTESIAN_POINT('Origin',(97.,97.,20.));
#1759=CARTESIAN_POINT('',(1.23259516440783E-31,100.,20.));
#1760=CARTESIAN_POINT('',(90.,98.,20.));
#1761=CARTESIAN_POINT('',(10.,98.,20.));
#1762=CARTESIAN_POINT('',(90.,93.,20.));
#1763=CARTESIAN_POINT('',(90.,98.,20.));
#1764=CARTESIAN_POINT('',(93.,90.,20.));
#1765=CARTESIAN_POINT('Origin',(93.,93.,20.));
#1766=CARTESIAN_POINT('',(90.,90.,20.));
#1767=CARTESIAN_POINT('Origin',(100.,100.,0.));
#1768=CARTESIAN_POINT('',(97.,100.,0.));
#1769=CARTESIAN_POINT('',(97.,100.,0.));
#1770=CARTESIAN_POINT('',(3.00000000000001,100.,0.));
#1771=CARTESIAN_POINT('',(100.,100.,0.));
#1772=CARTESIAN_POINT('',(3.,100.,20.));
#1773=CARTESIAN_POINT('',(3.,100.,0.));
#1774=CARTESIAN_POINT('',(1.23259516440783E-31,100.,20.));
#1775=CARTESIAN_POINT('Origin',(90.,2.,2.));
#1776=CARTESIAN_POINT('',(90.,2.,2.));
#1777=CARTESIAN_POINT('',(90.,2.,2.));
#1778=CARTESIAN_POINT('',(9.99999997052517,2.,2.));
#1779=CARTESIAN_POINT('',(70.,2.,2.));
#1780=CARTESIAN_POINT('',(9.99999997052517,2.,2.));
#1781=CARTESIAN_POINT('Origin',(93.,93.,2.));
#1782=CARTESIAN_POINT('',(90.,93.,2.));
#1783=CARTESIAN_POINT('',(90.,93.,2.));
#1784=CARTESIAN_POINT('',(93.,90.,2.));
#1785=CARTESIAN_POINT('Origin',(93.,93.,2.));
#1786=CARTESIAN_POINT('',(93.,90.,2.));
#1787=CARTESIAN_POINT('Origin',(90.,98.,2.));
#1788=CARTESIAN_POINT('',(90.,98.,2.));
#1789=CARTESIAN_POINT('',(90.,98.,2.));
#1790=CARTESIAN_POINT('',(90.,74.,2.));
#1791=CARTESIAN_POINT('Origin',(50.,50.,20.));
#1792=CARTESIAN_POINT('',(7.,90.,20.));
#1793=CARTESIAN_POINT('',(2.,90.,20.));
#1794=CARTESIAN_POINT('',(10.,93.,20.));
#1795=CARTESIAN_POINT('Origin',(7.,93.,20.));
#1796=CARTESIAN_POINT('',(10.,98.,20.));
#1797=CARTESIAN_POINT('',(10.,90.,20.));
#1798=CARTESIAN_POINT('',(10.,98.,20.));
#1799=CARTESIAN_POINT('Origin',(3.,97.,20.));
#1800=CARTESIAN_POINT('Origin',(93.,7.,2.));
#1801=CARTESIAN_POINT('',(93.,10.,2.));
#1802=CARTESIAN_POINT('',(93.,10.,2.));
#1803=CARTESIAN_POINT('',(90.,7.,2.));
#1804=CARTESIAN_POINT('Origin',(93.,7.,2.));
#1805=CARTESIAN_POINT('',(90.,7.,2.));
#1806=CARTESIAN_POINT('Origin',(98.,10.,2.));
#1807=CARTESIAN_POINT('',(74.,10.,2.));
#1808=CARTESIAN_POINT('Origin',(6.99999997052517,7.,2.));
#1809=CARTESIAN_POINT('',(9.99999997052517,7.,2.));
#1810=CARTESIAN_POINT('',(9.99999997052517,7.,2.));
#1811=CARTESIAN_POINT('',(6.99999997052517,10.,2.));
#1812=CARTESIAN_POINT('Origin',(6.99999997052517,7.,2.));
#1813=CARTESIAN_POINT('',(6.99999997052517,10.,2.));
#1814=CARTESIAN_POINT('Origin',(9.99999997052517,2.,2.));
#1815=CARTESIAN_POINT('',(9.99999997052517,26.,2.));
#1816=CARTESIAN_POINT('Origin',(7.,93.,2.));
#1817=CARTESIAN_POINT('',(7.,90.,2.));
#1818=CARTESIAN_POINT('',(7.,90.,2.));
#1819=CARTESIAN_POINT('',(10.,93.,2.));
#1820=CARTESIAN_POINT('Origin',(7.,93.,2.));
#1821=CARTESIAN_POINT('',(10.,93.,2.));
#1822=CARTESIAN_POINT('Origin',(2.,90.,2.));
#1823=CARTESIAN_POINT('',(26.,90.0000000000001,2.));
#1824=CARTESIAN_POINT('Origin',(3.,97.,0.));
#1825=CARTESIAN_POINT('Origin',(3.,97.,0.));
#1826=CARTESIAN_POINT('Origin',(97.,97.,0.));
#1827=CARTESIAN_POINT('Origin',(97.,97.,0.));
#1828=CARTESIAN_POINT('Origin',(3.,3.,0.));
#1829=CARTESIAN_POINT('',(3.,-3.69778549322349E-33,0.));
#1830=CARTESIAN_POINT('Origin',(3.,3.,0.));
#1831=CARTESIAN_POINT('',(3.,0.,0.));
#1832=CARTESIAN_POINT('Origin',(0.,0.,0.));
#1833=CARTESIAN_POINT('',(97.,-1.1956173094756E-31,0.));
#1834=CARTESIAN_POINT('',(0.,0.,0.));
#1835=CARTESIAN_POINT('',(97.,0.,0.));
#1836=CARTESIAN_POINT('Origin',(97.,3.,0.));
#1837=CARTESIAN_POINT('Origin',(97.,3.,0.));
#1838=CARTESIAN_POINT('Origin',(90.,90.,2.));
#1839=CARTESIAN_POINT('',(70.,90.,2.));
#1840=CARTESIAN_POINT('Origin',(10.,98.,2.));
#1841=CARTESIAN_POINT('',(10.,98.,2.));
#1842=CARTESIAN_POINT('',(10.,98.,2.));
#1843=CARTESIAN_POINT('',(30.,98.,2.));
#1844=CARTESIAN_POINT('Origin',(10.,90.,2.));
#1845=CARTESIAN_POINT('',(9.99999999999999,70.,2.));
#1846=CARTESIAN_POINT('Origin',(9.99999997052517,10.,2.));
#1847=CARTESIAN_POINT('',(29.9999999852626,9.99999999999999,2.));
#1848=CARTESIAN_POINT('Origin',(90.,10.,2.));
#1849=CARTESIAN_POINT('',(90.,30.,2.));
#1850=CARTESIAN_POINT('Origin',(50.,50.,2.));
#1851=CARTESIAN_POINT('Origin',(50.,50.,0.));
#1852=UNCERTAINTY_MEASURE_WITH_UNIT(LENGTH_MEASURE(0.01),#1856,
'DISTANCE_ACCURACY_VALUE',
'Maximum model space distance between geometric entities at asserted c
onnectivities');
#1853=UNCERTAINTY_MEASURE_WITH_UNIT(LENGTH_MEASURE(0.01),#1856,
'DISTANCE_ACCURACY_VALUE',
'Maximum model space distance between geometric entities at asserted c
onnectivities');
#1854=(
GEOMETRIC_REPRESENTATION_CONTEXT(3)
GLOBAL_UNCERTAINTY_ASSIGNED_CONTEXT((#1852))
GLOBAL_UNIT_ASSIGNED_CONTEXT((#1856,#1858,#1859))
REPRESENTATION_CONTEXT('','3D')
);
#1855=(
GEOMETRIC_REPRESENTATION_CONTEXT(3)
GLOBAL_UNCERTAINTY_ASSIGNED_CONTEXT((#1853))
GLOBAL_UNIT_ASSIGNED_CONTEXT((#1856,#1858,#1859))
REPRESENTATION_CONTEXT('','3D')
);
#1856=(
LENGTH_UNIT()
NAMED_UNIT(*)
SI_UNIT(.MILLI.,.METRE.)
);
#1857=(
LENGTH_UNIT()
NAMED_UNIT(*)
SI_UNIT($,.METRE.)
);
#1858=(
NAMED_UNIT(*)
PLANE_ANGLE_UNIT()
SI_UNIT($,.RADIAN.)
);
#1859=(
NAMED_UNIT(*)
SI_UNIT($,.STERADIAN.)
SOLID_ANGLE_UNIT()
);
#1860=SHAPE_DEFINITION_REPRESENTATION(#1861,#1862);
#1861=PRODUCT_DEFINITION_SHAPE('',$,#1864);
#1862=SHAPE_REPRESENTATION('',(#1136),#1854);
#1863=PRODUCT_DEFINITION_CONTEXT('part definition',#1868,'design');
#1864=PRODUCT_DEFINITION('(\X2\C800C7A5B418C9C0\X0\ \X2\C54AC74C\X0\)',
'(\X2\C800C7A5B418C9C0\X0\ \X2\C54AC74C\X0\)',#1865,#1863);
#1865=PRODUCT_DEFINITION_FORMATION('',$,#1870);
#1866=PRODUCT_RELATED_PRODUCT_CATEGORY('(\X2\C800C7A5B418C9C0\X0\ \X2\C54AC74C\X0\)',
'(\X2\C800C7A5B418C9C0\X0\ \X2\C54AC74C\X0\)',(#1870));
#1867=APPLICATION_PROTOCOL_DEFINITION('international standard',
'automotive_design',2009,#1868);
#1868=APPLICATION_CONTEXT(
'Core Data for Automotive Mechanical Design Process');
#1869=PRODUCT_CONTEXT('part definition',#1868,'mechanical');
#1870=PRODUCT('(\X2\C800C7A5B418C9C0\X0\ \X2\C54AC74C\X0\)',
'(\X2\C800C7A5B418C9C0\X0\ \X2\C54AC74C\X0\)',$,(#1869));
#1871=PRESENTATION_STYLE_ASSIGNMENT((#1872));
#1872=SURFACE_STYLE_USAGE(.BOTH.,#1873);
#1873=SURFACE_SIDE_STYLE('',(#1874));
#1874=SURFACE_STYLE_FILL_AREA(#1875);
#1875=FILL_AREA_STYLE('\X2\AC15CCA0\X0\ - \X2\C0C8D2F4\X0\',(#1876));
#1876=FILL_AREA_STYLE_COLOUR('\X2\AC15CCA0\X0\ - \X2\C0C8D2F4\X0\',#1877);
#1877=COLOUR_RGB('\X2\AC15CCA0\X0\ - \X2\C0C8D2F4\X0\',0.627450980392157,
0.627450980392157,0.627450980392157);
ENDSEC;
END-ISO-10303-21;
