ISO-10303-21;
HEADER;
/* Generated by software containing ST-Developer
 * from STEP Tools, Inc. (www.steptools.com) 
 */

FILE_DESCRIPTION(
/* description */ (''),
/* implementation_level */ '2;1');

FILE_NAME(
/* name */ 'TRARM02_Base_Top_100x100x10.step',
/* time_stamp */ '2026-06-11T09:09:07+09:00',
/* author */ (''),
/* organization */ (''),
/* preprocessor_version */ 'ST-DEVELOPER v20.1',
/* originating_system */ 'Autodesk Translation Framework v15.8.0.0',
/* authorisation */ '');

FILE_SCHEMA (('AUTOMOTIVE_DESIGN { 1 0 10303 214 3 1 1 }'));
ENDSEC;

DATA;
#10=MECHANICAL_DESIGN_GEOMETRIC_PRESENTATION_REPRESENTATION('',(#13),#1456);
#11=SHAPE_REPRESENTATION_RELATIONSHIP('SRR','None',#1463,#12);
#12=ADVANCED_BREP_SHAPE_REPRESENTATION('',(#14),#1455);
#13=STYLED_ITEM('',(#1472),#14);
#14=MANIFOLD_SOLID_BREP('\X2\BCF8CCB4\X0\1',#868);
#15=FACE_BOUND('',#118,.T.);
#16=FACE_BOUND('',#119,.T.);
#17=FACE_BOUND('',#120,.T.);
#18=FACE_BOUND('',#121,.T.);
#19=FACE_BOUND('',#122,.T.);
#20=FACE_BOUND('',#123,.T.);
#21=FACE_BOUND('',#124,.T.);
#22=FACE_BOUND('',#125,.T.);
#23=FACE_BOUND('',#126,.T.);
#24=FACE_BOUND('',#127,.T.);
#25=FACE_BOUND('',#138,.T.);
#26=FACE_BOUND('',#139,.T.);
#27=FACE_BOUND('',#140,.T.);
#28=FACE_BOUND('',#141,.T.);
#29=FACE_BOUND('',#142,.T.);
#30=FACE_BOUND('',#166,.T.);
#31=FACE_BOUND('',#167,.T.);
#32=FACE_BOUND('',#168,.T.);
#33=FACE_BOUND('',#169,.T.);
#34=FACE_BOUND('',#170,.T.);
#35=FACE_BOUND('',#171,.T.);
#36=CONICAL_SURFACE('',#901,2.5,0.785398163397447);
#37=CONICAL_SURFACE('',#914,2.5,0.785398163397447);
#38=CONICAL_SURFACE('',#918,2.5,0.785398163397448);
#39=CONICAL_SURFACE('',#922,2.5,0.785398163397448);
#40=PLANE('',#885);
#41=PLANE('',#886);
#42=PLANE('',#887);
#43=PLANE('',#888);
#44=PLANE('',#904);
#45=PLANE('',#929);
#46=PLANE('',#930);
#47=PLANE('',#940);
#48=PLANE('',#943);
#49=PLANE('',#946);
#50=PLANE('',#948);
#51=PLANE('',#950);
#52=PLANE('',#952);
#53=PLANE('',#954);
#54=PLANE('',#955);
#55=PLANE('',#956);
#56=PLANE('',#957);
#57=PLANE('',#958);
#58=PLANE('',#959);
#59=PLANE('',#960);
#60=PLANE('',#961);
#61=PLANE('',#962);
#62=PLANE('',#963);
#63=FACE_OUTER_BOUND('',#107,.T.);
#64=FACE_OUTER_BOUND('',#108,.T.);
#65=FACE_OUTER_BOUND('',#109,.T.);
#66=FACE_OUTER_BOUND('',#110,.T.);
#67=FACE_OUTER_BOUND('',#111,.T.);
#68=FACE_OUTER_BOUND('',#112,.T.);
#69=FACE_OUTER_BOUND('',#113,.T.);
#70=FACE_OUTER_BOUND('',#114,.T.);
#71=FACE_OUTER_BOUND('',#115,.T.);
#72=FACE_OUTER_BOUND('',#116,.T.);
#73=FACE_OUTER_BOUND('',#117,.T.);
#74=FACE_OUTER_BOUND('',#128,.T.);
#75=FACE_OUTER_BOUND('',#129,.T.);
#76=FACE_OUTER_BOUND('',#130,.T.);
#77=FACE_OUTER_BOUND('',#131,.T.);
#78=FACE_OUTER_BOUND('',#132,.T.);
#79=FACE_OUTER_BOUND('',#133,.T.);
#80=FACE_OUTER_BOUND('',#134,.T.);
#81=FACE_OUTER_BOUND('',#135,.T.);
#82=FACE_OUTER_BOUND('',#136,.T.);
#83=FACE_OUTER_BOUND('',#137,.T.);
#84=FACE_OUTER_BOUND('',#143,.T.);
#85=FACE_OUTER_BOUND('',#144,.T.);
#86=FACE_OUTER_BOUND('',#145,.T.);
#87=FACE_OUTER_BOUND('',#146,.T.);
#88=FACE_OUTER_BOUND('',#147,.T.);
#89=FACE_OUTER_BOUND('',#148,.T.);
#90=FACE_OUTER_BOUND('',#149,.T.);
#91=FACE_OUTER_BOUND('',#150,.T.);
#92=FACE_OUTER_BOUND('',#151,.T.);
#93=FACE_OUTER_BOUND('',#152,.T.);
#94=FACE_OUTER_BOUND('',#153,.T.);
#95=FACE_OUTER_BOUND('',#154,.T.);
#96=FACE_OUTER_BOUND('',#155,.T.);
#97=FACE_OUTER_BOUND('',#156,.T.);
#98=FACE_OUTER_BOUND('',#157,.T.);
#99=FACE_OUTER_BOUND('',#158,.T.);
#100=FACE_OUTER_BOUND('',#159,.T.);
#101=FACE_OUTER_BOUND('',#160,.T.);
#102=FACE_OUTER_BOUND('',#161,.T.);
#103=FACE_OUTER_BOUND('',#162,.T.);
#104=FACE_OUTER_BOUND('',#163,.T.);
#105=FACE_OUTER_BOUND('',#164,.T.);
#106=FACE_OUTER_BOUND('',#165,.T.);
#107=EDGE_LOOP('',(#569,#570,#571,#572));
#108=EDGE_LOOP('',(#573,#574,#575,#576));
#109=EDGE_LOOP('',(#577,#578,#579,#580));
#110=EDGE_LOOP('',(#581,#582,#583,#584));
#111=EDGE_LOOP('',(#585,#586,#587,#588));
#112=EDGE_LOOP('',(#589,#590,#591,#592));
#113=EDGE_LOOP('',(#593,#594,#595,#596));
#114=EDGE_LOOP('',(#597,#598,#599,#600));
#115=EDGE_LOOP('',(#601,#602,#603,#604));
#116=EDGE_LOOP('',(#605,#606,#607,#608));
#117=EDGE_LOOP('',(#609,#610,#611,#612,#613,#614,#615,#616));
#118=EDGE_LOOP('',(#617));
#119=EDGE_LOOP('',(#618,#619,#620,#621));
#120=EDGE_LOOP('',(#622));
#121=EDGE_LOOP('',(#623));
#122=EDGE_LOOP('',(#624));
#123=EDGE_LOOP('',(#625));
#124=EDGE_LOOP('',(#626));
#125=EDGE_LOOP('',(#627));
#126=EDGE_LOOP('',(#628));
#127=EDGE_LOOP('',(#629));
#128=EDGE_LOOP('',(#630,#631,#632,#633));
#129=EDGE_LOOP('',(#634,#635,#636,#637));
#130=EDGE_LOOP('',(#638,#639,#640,#641));
#131=EDGE_LOOP('',(#642,#643,#644,#645));
#132=EDGE_LOOP('',(#646,#647,#648,#649));
#133=EDGE_LOOP('',(#650,#651,#652,#653));
#134=EDGE_LOOP('',(#654,#655,#656,#657));
#135=EDGE_LOOP('',(#658,#659,#660,#661));
#136=EDGE_LOOP('',(#662,#663,#664,#665));
#137=EDGE_LOOP('',(#666,#667,#668,#669,#670,#671,#672,#673));
#138=EDGE_LOOP('',(#674));
#139=EDGE_LOOP('',(#675));
#140=EDGE_LOOP('',(#676));
#141=EDGE_LOOP('',(#677));
#142=EDGE_LOOP('',(#678,#679,#680,#681,#682,#683,#684,#685,#686,#687,#688,
#689,#690,#691,#692,#693));
#143=EDGE_LOOP('',(#694,#695,#696,#697));
#144=EDGE_LOOP('',(#698,#699,#700,#701));
#145=EDGE_LOOP('',(#702,#703,#704,#705));
#146=EDGE_LOOP('',(#706,#707,#708,#709));
#147=EDGE_LOOP('',(#710,#711,#712,#713));
#148=EDGE_LOOP('',(#714,#715,#716,#717));
#149=EDGE_LOOP('',(#718,#719,#720,#721));
#150=EDGE_LOOP('',(#722,#723,#724,#725));
#151=EDGE_LOOP('',(#726,#727,#728,#729));
#152=EDGE_LOOP('',(#730,#731,#732,#733));
#153=EDGE_LOOP('',(#734,#735,#736,#737));
#154=EDGE_LOOP('',(#738,#739,#740,#741));
#155=EDGE_LOOP('',(#742,#743,#744,#745));
#156=EDGE_LOOP('',(#746,#747,#748,#749));
#157=EDGE_LOOP('',(#750,#751,#752,#753));
#158=EDGE_LOOP('',(#754,#755,#756,#757));
#159=EDGE_LOOP('',(#758,#759,#760,#761));
#160=EDGE_LOOP('',(#762,#763,#764,#765));
#161=EDGE_LOOP('',(#766,#767,#768,#769));
#162=EDGE_LOOP('',(#770,#771,#772,#773));
#163=EDGE_LOOP('',(#774,#775,#776,#777));
#164=EDGE_LOOP('',(#778,#779,#780,#781));
#165=EDGE_LOOP('',(#782,#783,#784,#785,#786,#787,#788,#789,#790,#791,#792,
#793,#794,#795,#796,#797));
#166=EDGE_LOOP('',(#798));
#167=EDGE_LOOP('',(#799,#800,#801,#802));
#168=EDGE_LOOP('',(#803));
#169=EDGE_LOOP('',(#804));
#170=EDGE_LOOP('',(#805));
#171=EDGE_LOOP('',(#806));
#172=LINE('',#1216,#253);
#173=LINE('',#1221,#254);
#174=LINE('',#1223,#255);
#175=LINE('',#1225,#256);
#176=LINE('',#1226,#257);
#177=LINE('',#1229,#258);
#178=LINE('',#1231,#259);
#179=LINE('',#1232,#260);
#180=LINE('',#1235,#261);
#181=LINE('',#1237,#262);
#182=LINE('',#1238,#263);
#183=LINE('',#1240,#264);
#184=LINE('',#1241,#265);
#185=LINE('',#1246,#266);
#186=LINE('',#1252,#267);
#187=LINE('',#1258,#268);
#188=LINE('',#1264,#269);
#189=LINE('',#1270,#270);
#190=LINE('',#1277,#271);
#191=LINE('',#1281,#272);
#192=LINE('',#1285,#273);
#193=LINE('',#1288,#274);
#194=LINE('',#1298,#275);
#195=LINE('',#1301,#276);
#196=LINE('',#1306,#277);
#197=LINE('',#1309,#278);
#198=LINE('',#1314,#279);
#199=LINE('',#1317,#280);
#200=LINE('',#1322,#281);
#201=LINE('',#1328,#282);
#202=LINE('',#1331,#283);
#203=LINE('',#1334,#284);
#204=LINE('',#1336,#285);
#205=LINE('',#1337,#286);
#206=LINE('',#1343,#287);
#207=LINE('',#1347,#288);
#208=LINE('',#1351,#289);
#209=LINE('',#1354,#290);
#210=LINE('',#1356,#291);
#211=LINE('',#1358,#292);
#212=LINE('',#1360,#293);
#213=LINE('',#1364,#294);
#214=LINE('',#1366,#295);
#215=LINE('',#1368,#296);
#216=LINE('',#1372,#297);
#217=LINE('',#1374,#298);
#218=LINE('',#1376,#299);
#219=LINE('',#1380,#300);
#220=LINE('',#1381,#301);
#221=LINE('',#1384,#302);
#222=LINE('',#1387,#303);
#223=LINE('',#1390,#304);
#224=LINE('',#1391,#305);
#225=LINE('',#1394,#306);
#226=LINE('',#1397,#307);
#227=LINE('',#1400,#308);
#228=LINE('',#1401,#309);
#229=LINE('',#1404,#310);
#230=LINE('',#1407,#311);
#231=LINE('',#1410,#312);
#232=LINE('',#1411,#313);
#233=LINE('',#1413,#314);
#234=LINE('',#1414,#315);
#235=LINE('',#1416,#316);
#236=LINE('',#1418,#317);
#237=LINE('',#1420,#318);
#238=LINE('',#1422,#319);
#239=LINE('',#1424,#320);
#240=LINE('',#1426,#321);
#241=LINE('',#1430,#322);
#242=LINE('',#1431,#323);
#243=LINE('',#1433,#324);
#244=LINE('',#1436,#325);
#245=LINE('',#1437,#326);
#246=LINE('',#1439,#327);
#247=LINE('',#1442,#328);
#248=LINE('',#1443,#329);
#249=LINE('',#1445,#330);
#250=LINE('',#1448,#331);
#251=LINE('',#1449,#332);
#252=LINE('',#1451,#333);
#253=VECTOR('',#970,2.25);
#254=VECTOR('',#975,10.);
#255=VECTOR('',#976,10.);
#256=VECTOR('',#977,10.);
#257=VECTOR('',#978,10.);
#258=VECTOR('',#981,10.);
#259=VECTOR('',#982,10.);
#260=VECTOR('',#983,10.);
#261=VECTOR('',#986,10.);
#262=VECTOR('',#987,10.);
#263=VECTOR('',#988,10.);
#264=VECTOR('',#991,10.);
#265=VECTOR('',#992,10.);
#266=VECTOR('',#997,2.25);
#267=VECTOR('',#1004,2.25);
#268=VECTOR('',#1011,2.25);
#269=VECTOR('',#1018,5.);
#270=VECTOR('',#1025,2.5);
#271=VECTOR('',#1032,10.);
#272=VECTOR('',#1035,10.);
#273=VECTOR('',#1038,10.);
#274=VECTOR('',#1041,10.);
#275=VECTOR('',#1052,1.5);
#276=VECTOR('',#1055,2.5);
#277=VECTOR('',#1062,1.5);
#278=VECTOR('',#1065,2.5);
#279=VECTOR('',#1072,1.5);
#280=VECTOR('',#1075,2.5);
#281=VECTOR('',#1082,1.5);
#282=VECTOR('',#1087,10.);
#283=VECTOR('',#1090,10.);
#284=VECTOR('',#1093,10.);
#285=VECTOR('',#1094,10.);
#286=VECTOR('',#1095,10.);
#287=VECTOR('',#1100,10.);
#288=VECTOR('',#1103,10.);
#289=VECTOR('',#1106,10.);
#290=VECTOR('',#1109,10.);
#291=VECTOR('',#1110,10.);
#292=VECTOR('',#1111,10.);
#293=VECTOR('',#1112,10.);
#294=VECTOR('',#1115,10.);
#295=VECTOR('',#1116,10.);
#296=VECTOR('',#1117,10.);
#297=VECTOR('',#1120,10.);
#298=VECTOR('',#1121,10.);
#299=VECTOR('',#1122,10.);
#300=VECTOR('',#1125,10.);
#301=VECTOR('',#1126,10.);
#302=VECTOR('',#1129,10.);
#303=VECTOR('',#1132,10.);
#304=VECTOR('',#1135,10.);
#305=VECTOR('',#1136,10.);
#306=VECTOR('',#1139,10.);
#307=VECTOR('',#1142,10.);
#308=VECTOR('',#1145,10.);
#309=VECTOR('',#1146,10.);
#310=VECTOR('',#1149,10.);
#311=VECTOR('',#1152,10.);
#312=VECTOR('',#1155,10.);
#313=VECTOR('',#1156,10.);
#314=VECTOR('',#1159,10.);
#315=VECTOR('',#1160,10.);
#316=VECTOR('',#1163,10.);
#317=VECTOR('',#1166,10.);
#318=VECTOR('',#1169,10.);
#319=VECTOR('',#1172,10.);
#320=VECTOR('',#1175,10.);
#321=VECTOR('',#1178,10.);
#322=VECTOR('',#1183,10.);
#323=VECTOR('',#1184,10.);
#324=VECTOR('',#1187,10.);
#325=VECTOR('',#1190,10.);
#326=VECTOR('',#1191,10.);
#327=VECTOR('',#1194,10.);
#328=VECTOR('',#1197,10.);
#329=VECTOR('',#1198,10.);
#330=VECTOR('',#1201,10.);
#331=VECTOR('',#1204,10.);
#332=VECTOR('',#1205,10.);
#333=VECTOR('',#1208,10.);
#334=CIRCLE('',#883,2.25);
#335=CIRCLE('',#884,2.25);
#336=CIRCLE('',#890,2.25);
#337=CIRCLE('',#891,2.25);
#338=CIRCLE('',#893,2.25);
#339=CIRCLE('',#894,2.25);
#340=CIRCLE('',#896,2.25);
#341=CIRCLE('',#897,2.25);
#342=CIRCLE('',#899,5.);
#343=CIRCLE('',#900,5.);
#344=CIRCLE('',#902,3.5);
#345=CIRCLE('',#903,1.5);
#346=CIRCLE('',#905,3.);
#347=CIRCLE('',#906,3.);
#348=CIRCLE('',#907,3.);
#349=CIRCLE('',#908,3.);
#350=CIRCLE('',#909,3.5);
#351=CIRCLE('',#910,3.5);
#352=CIRCLE('',#911,3.5);
#353=CIRCLE('',#913,1.5);
#354=CIRCLE('',#915,1.5);
#355=CIRCLE('',#917,1.5);
#356=CIRCLE('',#919,1.5);
#357=CIRCLE('',#921,1.5);
#358=CIRCLE('',#923,1.5);
#359=CIRCLE('',#925,1.5);
#360=CIRCLE('',#927,3.);
#361=CIRCLE('',#928,3.);
#362=CIRCLE('',#931,3.);
#363=CIRCLE('',#932,3.);
#364=CIRCLE('',#933,3.);
#365=CIRCLE('',#934,3.);
#366=CIRCLE('',#935,3.);
#367=CIRCLE('',#936,3.);
#368=CIRCLE('',#937,3.);
#369=CIRCLE('',#939,3.);
#370=CIRCLE('',#942,3.);
#371=CIRCLE('',#945,3.);
#372=VERTEX_POINT('',#1213);
#373=VERTEX_POINT('',#1215);
#374=VERTEX_POINT('',#1219);
#375=VERTEX_POINT('',#1220);
#376=VERTEX_POINT('',#1222);
#377=VERTEX_POINT('',#1224);
#378=VERTEX_POINT('',#1228);
#379=VERTEX_POINT('',#1230);
#380=VERTEX_POINT('',#1234);
#381=VERTEX_POINT('',#1236);
#382=VERTEX_POINT('',#1243);
#383=VERTEX_POINT('',#1245);
#384=VERTEX_POINT('',#1249);
#385=VERTEX_POINT('',#1251);
#386=VERTEX_POINT('',#1255);
#387=VERTEX_POINT('',#1257);
#388=VERTEX_POINT('',#1261);
#389=VERTEX_POINT('',#1263);
#390=VERTEX_POINT('',#1267);
#391=VERTEX_POINT('',#1269);
#392=VERTEX_POINT('',#1273);
#393=VERTEX_POINT('',#1274);
#394=VERTEX_POINT('',#1276);
#395=VERTEX_POINT('',#1278);
#396=VERTEX_POINT('',#1280);
#397=VERTEX_POINT('',#1282);
#398=VERTEX_POINT('',#1284);
#399=VERTEX_POINT('',#1286);
#400=VERTEX_POINT('',#1289);
#401=VERTEX_POINT('',#1291);
#402=VERTEX_POINT('',#1293);
#403=VERTEX_POINT('',#1296);
#404=VERTEX_POINT('',#1300);
#405=VERTEX_POINT('',#1304);
#406=VERTEX_POINT('',#1308);
#407=VERTEX_POINT('',#1312);
#408=VERTEX_POINT('',#1316);
#409=VERTEX_POINT('',#1320);
#410=VERTEX_POINT('',#1324);
#411=VERTEX_POINT('',#1325);
#412=VERTEX_POINT('',#1327);
#413=VERTEX_POINT('',#1329);
#414=VERTEX_POINT('',#1333);
#415=VERTEX_POINT('',#1335);
#416=VERTEX_POINT('',#1339);
#417=VERTEX_POINT('',#1340);
#418=VERTEX_POINT('',#1342);
#419=VERTEX_POINT('',#1344);
#420=VERTEX_POINT('',#1346);
#421=VERTEX_POINT('',#1348);
#422=VERTEX_POINT('',#1350);
#423=VERTEX_POINT('',#1352);
#424=VERTEX_POINT('',#1355);
#425=VERTEX_POINT('',#1357);
#426=VERTEX_POINT('',#1359);
#427=VERTEX_POINT('',#1361);
#428=VERTEX_POINT('',#1363);
#429=VERTEX_POINT('',#1365);
#430=VERTEX_POINT('',#1367);
#431=VERTEX_POINT('',#1369);
#432=VERTEX_POINT('',#1371);
#433=VERTEX_POINT('',#1373);
#434=VERTEX_POINT('',#1375);
#435=VERTEX_POINT('',#1377);
#436=VERTEX_POINT('',#1379);
#437=VERTEX_POINT('',#1383);
#438=VERTEX_POINT('',#1385);
#439=VERTEX_POINT('',#1389);
#440=VERTEX_POINT('',#1393);
#441=VERTEX_POINT('',#1395);
#442=VERTEX_POINT('',#1399);
#443=VERTEX_POINT('',#1403);
#444=VERTEX_POINT('',#1405);
#445=VERTEX_POINT('',#1409);
#446=VERTEX_POINT('',#1429);
#447=VERTEX_POINT('',#1435);
#448=VERTEX_POINT('',#1441);
#449=VERTEX_POINT('',#1447);
#450=EDGE_CURVE('',#372,#372,#334,.T.);
#451=EDGE_CURVE('',#372,#373,#172,.T.);
#452=EDGE_CURVE('',#373,#373,#335,.T.);
#453=EDGE_CURVE('',#374,#375,#173,.T.);
#454=EDGE_CURVE('',#374,#376,#174,.T.);
#455=EDGE_CURVE('',#377,#376,#175,.T.);
#456=EDGE_CURVE('',#375,#377,#176,.T.);
#457=EDGE_CURVE('',#378,#374,#177,.T.);
#458=EDGE_CURVE('',#378,#379,#178,.T.);
#459=EDGE_CURVE('',#376,#379,#179,.T.);
#460=EDGE_CURVE('',#380,#378,#180,.T.);
#461=EDGE_CURVE('',#380,#381,#181,.T.);
#462=EDGE_CURVE('',#379,#381,#182,.T.);
#463=EDGE_CURVE('',#375,#380,#183,.T.);
#464=EDGE_CURVE('',#381,#377,#184,.T.);
#465=EDGE_CURVE('',#382,#382,#336,.T.);
#466=EDGE_CURVE('',#382,#383,#185,.T.);
#467=EDGE_CURVE('',#383,#383,#337,.T.);
#468=EDGE_CURVE('',#384,#384,#338,.T.);
#469=EDGE_CURVE('',#384,#385,#186,.T.);
#470=EDGE_CURVE('',#385,#385,#339,.T.);
#471=EDGE_CURVE('',#386,#386,#340,.T.);
#472=EDGE_CURVE('',#386,#387,#187,.T.);
#473=EDGE_CURVE('',#387,#387,#341,.T.);
#474=EDGE_CURVE('',#388,#388,#342,.T.);
#475=EDGE_CURVE('',#388,#389,#188,.T.);
#476=EDGE_CURVE('',#389,#389,#343,.T.);
#477=EDGE_CURVE('',#390,#390,#344,.T.);
#478=EDGE_CURVE('',#390,#391,#189,.T.);
#479=EDGE_CURVE('',#391,#391,#345,.T.);
#480=EDGE_CURVE('',#392,#393,#346,.T.);
#481=EDGE_CURVE('',#394,#392,#190,.T.);
#482=EDGE_CURVE('',#395,#394,#347,.T.);
#483=EDGE_CURVE('',#396,#395,#191,.T.);
#484=EDGE_CURVE('',#397,#396,#348,.T.);
#485=EDGE_CURVE('',#398,#397,#192,.T.);
#486=EDGE_CURVE('',#399,#398,#349,.T.);
#487=EDGE_CURVE('',#393,#399,#193,.T.);
#488=EDGE_CURVE('',#400,#400,#350,.T.);
#489=EDGE_CURVE('',#401,#401,#351,.T.);
#490=EDGE_CURVE('',#402,#402,#352,.T.);
#491=EDGE_CURVE('',#403,#403,#353,.T.);
#492=EDGE_CURVE('',#403,#391,#194,.T.);
#493=EDGE_CURVE('',#400,#404,#195,.T.);
#494=EDGE_CURVE('',#404,#404,#354,.T.);
#495=EDGE_CURVE('',#405,#405,#355,.T.);
#496=EDGE_CURVE('',#405,#404,#196,.T.);
#497=EDGE_CURVE('',#402,#406,#197,.T.);
#498=EDGE_CURVE('',#406,#406,#356,.T.);
#499=EDGE_CURVE('',#407,#407,#357,.T.);
#500=EDGE_CURVE('',#407,#406,#198,.T.);
#501=EDGE_CURVE('',#401,#408,#199,.T.);
#502=EDGE_CURVE('',#408,#408,#358,.T.);
#503=EDGE_CURVE('',#409,#409,#359,.T.);
#504=EDGE_CURVE('',#409,#408,#200,.T.);
#505=EDGE_CURVE('',#410,#411,#360,.T.);
#506=EDGE_CURVE('',#411,#412,#201,.T.);
#507=EDGE_CURVE('',#412,#413,#361,.F.);
#508=EDGE_CURVE('',#413,#410,#202,.T.);
#509=EDGE_CURVE('',#414,#411,#203,.T.);
#510=EDGE_CURVE('',#415,#414,#204,.T.);
#511=EDGE_CURVE('',#412,#415,#205,.T.);
#512=EDGE_CURVE('',#416,#417,#362,.T.);
#513=EDGE_CURVE('',#416,#418,#206,.T.);
#514=EDGE_CURVE('',#419,#418,#363,.T.);
#515=EDGE_CURVE('',#419,#420,#207,.T.);
#516=EDGE_CURVE('',#421,#420,#364,.T.);
#517=EDGE_CURVE('',#421,#422,#208,.T.);
#518=EDGE_CURVE('',#423,#422,#365,.T.);
#519=EDGE_CURVE('',#423,#417,#209,.T.);
#520=EDGE_CURVE('',#410,#424,#210,.T.);
#521=EDGE_CURVE('',#424,#425,#211,.T.);
#522=EDGE_CURVE('',#425,#426,#212,.T.);
#523=EDGE_CURVE('',#427,#426,#366,.T.);
#524=EDGE_CURVE('',#427,#428,#213,.T.);
#525=EDGE_CURVE('',#428,#429,#214,.T.);
#526=EDGE_CURVE('',#429,#430,#215,.T.);
#527=EDGE_CURVE('',#431,#430,#367,.T.);
#528=EDGE_CURVE('',#431,#432,#216,.T.);
#529=EDGE_CURVE('',#432,#433,#217,.T.);
#530=EDGE_CURVE('',#433,#434,#218,.T.);
#531=EDGE_CURVE('',#435,#434,#368,.T.);
#532=EDGE_CURVE('',#435,#436,#219,.T.);
#533=EDGE_CURVE('',#436,#414,#220,.T.);
#534=EDGE_CURVE('',#434,#437,#221,.T.);
#535=EDGE_CURVE('',#437,#438,#369,.F.);
#536=EDGE_CURVE('',#438,#435,#222,.T.);
#537=EDGE_CURVE('',#439,#433,#223,.T.);
#538=EDGE_CURVE('',#437,#439,#224,.T.);
#539=EDGE_CURVE('',#426,#440,#225,.T.);
#540=EDGE_CURVE('',#440,#441,#370,.F.);
#541=EDGE_CURVE('',#441,#427,#226,.T.);
#542=EDGE_CURVE('',#442,#425,#227,.T.);
#543=EDGE_CURVE('',#440,#442,#228,.T.);
#544=EDGE_CURVE('',#430,#443,#229,.T.);
#545=EDGE_CURVE('',#443,#444,#371,.F.);
#546=EDGE_CURVE('',#444,#431,#230,.T.);
#547=EDGE_CURVE('',#445,#429,#231,.T.);
#548=EDGE_CURVE('',#443,#445,#232,.T.);
#549=EDGE_CURVE('',#417,#392,#233,.T.);
#550=EDGE_CURVE('',#393,#416,#234,.T.);
#551=EDGE_CURVE('',#394,#423,#235,.T.);
#552=EDGE_CURVE('',#422,#395,#236,.T.);
#553=EDGE_CURVE('',#396,#421,#237,.T.);
#554=EDGE_CURVE('',#420,#397,#238,.T.);
#555=EDGE_CURVE('',#398,#419,#239,.T.);
#556=EDGE_CURVE('',#418,#399,#240,.T.);
#557=EDGE_CURVE('',#442,#446,#241,.T.);
#558=EDGE_CURVE('',#446,#424,#242,.T.);
#559=EDGE_CURVE('',#446,#413,#243,.T.);
#560=EDGE_CURVE('',#415,#447,#244,.T.);
#561=EDGE_CURVE('',#447,#436,#245,.T.);
#562=EDGE_CURVE('',#447,#438,#246,.T.);
#563=EDGE_CURVE('',#439,#448,#247,.T.);
#564=EDGE_CURVE('',#448,#432,#248,.T.);
#565=EDGE_CURVE('',#448,#444,#249,.T.);
#566=EDGE_CURVE('',#445,#449,#250,.T.);
#567=EDGE_CURVE('',#449,#428,#251,.T.);
#568=EDGE_CURVE('',#449,#441,#252,.T.);
#569=ORIENTED_EDGE('',*,*,#450,.F.);
#570=ORIENTED_EDGE('',*,*,#451,.T.);
#571=ORIENTED_EDGE('',*,*,#452,.F.);
#572=ORIENTED_EDGE('',*,*,#451,.F.);
#573=ORIENTED_EDGE('',*,*,#453,.F.);
#574=ORIENTED_EDGE('',*,*,#454,.T.);
#575=ORIENTED_EDGE('',*,*,#455,.F.);
#576=ORIENTED_EDGE('',*,*,#456,.F.);
#577=ORIENTED_EDGE('',*,*,#457,.F.);
#578=ORIENTED_EDGE('',*,*,#458,.T.);
#579=ORIENTED_EDGE('',*,*,#459,.F.);
#580=ORIENTED_EDGE('',*,*,#454,.F.);
#581=ORIENTED_EDGE('',*,*,#460,.F.);
#582=ORIENTED_EDGE('',*,*,#461,.T.);
#583=ORIENTED_EDGE('',*,*,#462,.F.);
#584=ORIENTED_EDGE('',*,*,#458,.F.);
#585=ORIENTED_EDGE('',*,*,#463,.F.);
#586=ORIENTED_EDGE('',*,*,#456,.T.);
#587=ORIENTED_EDGE('',*,*,#464,.F.);
#588=ORIENTED_EDGE('',*,*,#461,.F.);
#589=ORIENTED_EDGE('',*,*,#465,.F.);
#590=ORIENTED_EDGE('',*,*,#466,.T.);
#591=ORIENTED_EDGE('',*,*,#467,.F.);
#592=ORIENTED_EDGE('',*,*,#466,.F.);
#593=ORIENTED_EDGE('',*,*,#468,.F.);
#594=ORIENTED_EDGE('',*,*,#469,.T.);
#595=ORIENTED_EDGE('',*,*,#470,.F.);
#596=ORIENTED_EDGE('',*,*,#469,.F.);
#597=ORIENTED_EDGE('',*,*,#471,.F.);
#598=ORIENTED_EDGE('',*,*,#472,.T.);
#599=ORIENTED_EDGE('',*,*,#473,.F.);
#600=ORIENTED_EDGE('',*,*,#472,.F.);
#601=ORIENTED_EDGE('',*,*,#474,.F.);
#602=ORIENTED_EDGE('',*,*,#475,.T.);
#603=ORIENTED_EDGE('',*,*,#476,.F.);
#604=ORIENTED_EDGE('',*,*,#475,.F.);
#605=ORIENTED_EDGE('',*,*,#477,.T.);
#606=ORIENTED_EDGE('',*,*,#478,.T.);
#607=ORIENTED_EDGE('',*,*,#479,.T.);
#608=ORIENTED_EDGE('',*,*,#478,.F.);
#609=ORIENTED_EDGE('',*,*,#480,.F.);
#610=ORIENTED_EDGE('',*,*,#481,.F.);
#611=ORIENTED_EDGE('',*,*,#482,.F.);
#612=ORIENTED_EDGE('',*,*,#483,.F.);
#613=ORIENTED_EDGE('',*,*,#484,.F.);
#614=ORIENTED_EDGE('',*,*,#485,.F.);
#615=ORIENTED_EDGE('',*,*,#486,.F.);
#616=ORIENTED_EDGE('',*,*,#487,.F.);
#617=ORIENTED_EDGE('',*,*,#452,.T.);
#618=ORIENTED_EDGE('',*,*,#455,.T.);
#619=ORIENTED_EDGE('',*,*,#459,.T.);
#620=ORIENTED_EDGE('',*,*,#462,.T.);
#621=ORIENTED_EDGE('',*,*,#464,.T.);
#622=ORIENTED_EDGE('',*,*,#467,.T.);
#623=ORIENTED_EDGE('',*,*,#470,.T.);
#624=ORIENTED_EDGE('',*,*,#473,.T.);
#625=ORIENTED_EDGE('',*,*,#476,.T.);
#626=ORIENTED_EDGE('',*,*,#488,.F.);
#627=ORIENTED_EDGE('',*,*,#489,.F.);
#628=ORIENTED_EDGE('',*,*,#490,.F.);
#629=ORIENTED_EDGE('',*,*,#477,.F.);
#630=ORIENTED_EDGE('',*,*,#491,.F.);
#631=ORIENTED_EDGE('',*,*,#492,.T.);
#632=ORIENTED_EDGE('',*,*,#479,.F.);
#633=ORIENTED_EDGE('',*,*,#492,.F.);
#634=ORIENTED_EDGE('',*,*,#488,.T.);
#635=ORIENTED_EDGE('',*,*,#493,.T.);
#636=ORIENTED_EDGE('',*,*,#494,.T.);
#637=ORIENTED_EDGE('',*,*,#493,.F.);
#638=ORIENTED_EDGE('',*,*,#495,.F.);
#639=ORIENTED_EDGE('',*,*,#496,.T.);
#640=ORIENTED_EDGE('',*,*,#494,.F.);
#641=ORIENTED_EDGE('',*,*,#496,.F.);
#642=ORIENTED_EDGE('',*,*,#490,.T.);
#643=ORIENTED_EDGE('',*,*,#497,.T.);
#644=ORIENTED_EDGE('',*,*,#498,.T.);
#645=ORIENTED_EDGE('',*,*,#497,.F.);
#646=ORIENTED_EDGE('',*,*,#499,.F.);
#647=ORIENTED_EDGE('',*,*,#500,.T.);
#648=ORIENTED_EDGE('',*,*,#498,.F.);
#649=ORIENTED_EDGE('',*,*,#500,.F.);
#650=ORIENTED_EDGE('',*,*,#489,.T.);
#651=ORIENTED_EDGE('',*,*,#501,.T.);
#652=ORIENTED_EDGE('',*,*,#502,.T.);
#653=ORIENTED_EDGE('',*,*,#501,.F.);
#654=ORIENTED_EDGE('',*,*,#503,.F.);
#655=ORIENTED_EDGE('',*,*,#504,.T.);
#656=ORIENTED_EDGE('',*,*,#502,.F.);
#657=ORIENTED_EDGE('',*,*,#504,.F.);
#658=ORIENTED_EDGE('',*,*,#505,.T.);
#659=ORIENTED_EDGE('',*,*,#506,.T.);
#660=ORIENTED_EDGE('',*,*,#507,.T.);
#661=ORIENTED_EDGE('',*,*,#508,.T.);
#662=ORIENTED_EDGE('',*,*,#506,.F.);
#663=ORIENTED_EDGE('',*,*,#509,.F.);
#664=ORIENTED_EDGE('',*,*,#510,.F.);
#665=ORIENTED_EDGE('',*,*,#511,.F.);
#666=ORIENTED_EDGE('',*,*,#512,.F.);
#667=ORIENTED_EDGE('',*,*,#513,.T.);
#668=ORIENTED_EDGE('',*,*,#514,.F.);
#669=ORIENTED_EDGE('',*,*,#515,.T.);
#670=ORIENTED_EDGE('',*,*,#516,.F.);
#671=ORIENTED_EDGE('',*,*,#517,.T.);
#672=ORIENTED_EDGE('',*,*,#518,.F.);
#673=ORIENTED_EDGE('',*,*,#519,.T.);
#674=ORIENTED_EDGE('',*,*,#491,.T.);
#675=ORIENTED_EDGE('',*,*,#495,.T.);
#676=ORIENTED_EDGE('',*,*,#503,.T.);
#677=ORIENTED_EDGE('',*,*,#499,.T.);
#678=ORIENTED_EDGE('',*,*,#505,.F.);
#679=ORIENTED_EDGE('',*,*,#520,.T.);
#680=ORIENTED_EDGE('',*,*,#521,.T.);
#681=ORIENTED_EDGE('',*,*,#522,.T.);
#682=ORIENTED_EDGE('',*,*,#523,.F.);
#683=ORIENTED_EDGE('',*,*,#524,.T.);
#684=ORIENTED_EDGE('',*,*,#525,.T.);
#685=ORIENTED_EDGE('',*,*,#526,.T.);
#686=ORIENTED_EDGE('',*,*,#527,.F.);
#687=ORIENTED_EDGE('',*,*,#528,.T.);
#688=ORIENTED_EDGE('',*,*,#529,.T.);
#689=ORIENTED_EDGE('',*,*,#530,.T.);
#690=ORIENTED_EDGE('',*,*,#531,.F.);
#691=ORIENTED_EDGE('',*,*,#532,.T.);
#692=ORIENTED_EDGE('',*,*,#533,.T.);
#693=ORIENTED_EDGE('',*,*,#509,.T.);
#694=ORIENTED_EDGE('',*,*,#531,.T.);
#695=ORIENTED_EDGE('',*,*,#534,.T.);
#696=ORIENTED_EDGE('',*,*,#535,.T.);
#697=ORIENTED_EDGE('',*,*,#536,.T.);
#698=ORIENTED_EDGE('',*,*,#534,.F.);
#699=ORIENTED_EDGE('',*,*,#530,.F.);
#700=ORIENTED_EDGE('',*,*,#537,.F.);
#701=ORIENTED_EDGE('',*,*,#538,.F.);
#702=ORIENTED_EDGE('',*,*,#523,.T.);
#703=ORIENTED_EDGE('',*,*,#539,.T.);
#704=ORIENTED_EDGE('',*,*,#540,.T.);
#705=ORIENTED_EDGE('',*,*,#541,.T.);
#706=ORIENTED_EDGE('',*,*,#539,.F.);
#707=ORIENTED_EDGE('',*,*,#522,.F.);
#708=ORIENTED_EDGE('',*,*,#542,.F.);
#709=ORIENTED_EDGE('',*,*,#543,.F.);
#710=ORIENTED_EDGE('',*,*,#527,.T.);
#711=ORIENTED_EDGE('',*,*,#544,.T.);
#712=ORIENTED_EDGE('',*,*,#545,.T.);
#713=ORIENTED_EDGE('',*,*,#546,.T.);
#714=ORIENTED_EDGE('',*,*,#544,.F.);
#715=ORIENTED_EDGE('',*,*,#526,.F.);
#716=ORIENTED_EDGE('',*,*,#547,.F.);
#717=ORIENTED_EDGE('',*,*,#548,.F.);
#718=ORIENTED_EDGE('',*,*,#512,.T.);
#719=ORIENTED_EDGE('',*,*,#549,.T.);
#720=ORIENTED_EDGE('',*,*,#480,.T.);
#721=ORIENTED_EDGE('',*,*,#550,.T.);
#722=ORIENTED_EDGE('',*,*,#549,.F.);
#723=ORIENTED_EDGE('',*,*,#519,.F.);
#724=ORIENTED_EDGE('',*,*,#551,.F.);
#725=ORIENTED_EDGE('',*,*,#481,.T.);
#726=ORIENTED_EDGE('',*,*,#518,.T.);
#727=ORIENTED_EDGE('',*,*,#552,.T.);
#728=ORIENTED_EDGE('',*,*,#482,.T.);
#729=ORIENTED_EDGE('',*,*,#551,.T.);
#730=ORIENTED_EDGE('',*,*,#552,.F.);
#731=ORIENTED_EDGE('',*,*,#517,.F.);
#732=ORIENTED_EDGE('',*,*,#553,.F.);
#733=ORIENTED_EDGE('',*,*,#483,.T.);
#734=ORIENTED_EDGE('',*,*,#516,.T.);
#735=ORIENTED_EDGE('',*,*,#554,.T.);
#736=ORIENTED_EDGE('',*,*,#484,.T.);
#737=ORIENTED_EDGE('',*,*,#553,.T.);
#738=ORIENTED_EDGE('',*,*,#554,.F.);
#739=ORIENTED_EDGE('',*,*,#515,.F.);
#740=ORIENTED_EDGE('',*,*,#555,.F.);
#741=ORIENTED_EDGE('',*,*,#485,.T.);
#742=ORIENTED_EDGE('',*,*,#514,.T.);
#743=ORIENTED_EDGE('',*,*,#556,.T.);
#744=ORIENTED_EDGE('',*,*,#486,.T.);
#745=ORIENTED_EDGE('',*,*,#555,.T.);
#746=ORIENTED_EDGE('',*,*,#550,.F.);
#747=ORIENTED_EDGE('',*,*,#487,.T.);
#748=ORIENTED_EDGE('',*,*,#556,.F.);
#749=ORIENTED_EDGE('',*,*,#513,.F.);
#750=ORIENTED_EDGE('',*,*,#557,.F.);
#751=ORIENTED_EDGE('',*,*,#542,.T.);
#752=ORIENTED_EDGE('',*,*,#521,.F.);
#753=ORIENTED_EDGE('',*,*,#558,.F.);
#754=ORIENTED_EDGE('',*,*,#508,.F.);
#755=ORIENTED_EDGE('',*,*,#559,.F.);
#756=ORIENTED_EDGE('',*,*,#558,.T.);
#757=ORIENTED_EDGE('',*,*,#520,.F.);
#758=ORIENTED_EDGE('',*,*,#560,.F.);
#759=ORIENTED_EDGE('',*,*,#510,.T.);
#760=ORIENTED_EDGE('',*,*,#533,.F.);
#761=ORIENTED_EDGE('',*,*,#561,.F.);
#762=ORIENTED_EDGE('',*,*,#536,.F.);
#763=ORIENTED_EDGE('',*,*,#562,.F.);
#764=ORIENTED_EDGE('',*,*,#561,.T.);
#765=ORIENTED_EDGE('',*,*,#532,.F.);
#766=ORIENTED_EDGE('',*,*,#563,.F.);
#767=ORIENTED_EDGE('',*,*,#537,.T.);
#768=ORIENTED_EDGE('',*,*,#529,.F.);
#769=ORIENTED_EDGE('',*,*,#564,.F.);
#770=ORIENTED_EDGE('',*,*,#546,.F.);
#771=ORIENTED_EDGE('',*,*,#565,.F.);
#772=ORIENTED_EDGE('',*,*,#564,.T.);
#773=ORIENTED_EDGE('',*,*,#528,.F.);
#774=ORIENTED_EDGE('',*,*,#566,.F.);
#775=ORIENTED_EDGE('',*,*,#547,.T.);
#776=ORIENTED_EDGE('',*,*,#525,.F.);
#777=ORIENTED_EDGE('',*,*,#567,.F.);
#778=ORIENTED_EDGE('',*,*,#541,.F.);
#779=ORIENTED_EDGE('',*,*,#568,.F.);
#780=ORIENTED_EDGE('',*,*,#567,.T.);
#781=ORIENTED_EDGE('',*,*,#524,.F.);
#782=ORIENTED_EDGE('',*,*,#557,.T.);
#783=ORIENTED_EDGE('',*,*,#559,.T.);
#784=ORIENTED_EDGE('',*,*,#507,.F.);
#785=ORIENTED_EDGE('',*,*,#511,.T.);
#786=ORIENTED_EDGE('',*,*,#560,.T.);
#787=ORIENTED_EDGE('',*,*,#562,.T.);
#788=ORIENTED_EDGE('',*,*,#535,.F.);
#789=ORIENTED_EDGE('',*,*,#538,.T.);
#790=ORIENTED_EDGE('',*,*,#563,.T.);
#791=ORIENTED_EDGE('',*,*,#565,.T.);
#792=ORIENTED_EDGE('',*,*,#545,.F.);
#793=ORIENTED_EDGE('',*,*,#548,.T.);
#794=ORIENTED_EDGE('',*,*,#566,.T.);
#795=ORIENTED_EDGE('',*,*,#568,.T.);
#796=ORIENTED_EDGE('',*,*,#540,.F.);
#797=ORIENTED_EDGE('',*,*,#543,.T.);
#798=ORIENTED_EDGE('',*,*,#450,.T.);
#799=ORIENTED_EDGE('',*,*,#453,.T.);
#800=ORIENTED_EDGE('',*,*,#463,.T.);
#801=ORIENTED_EDGE('',*,*,#460,.T.);
#802=ORIENTED_EDGE('',*,*,#457,.T.);
#803=ORIENTED_EDGE('',*,*,#465,.T.);
#804=ORIENTED_EDGE('',*,*,#468,.T.);
#805=ORIENTED_EDGE('',*,*,#471,.T.);
#806=ORIENTED_EDGE('',*,*,#474,.T.);
#807=CYLINDRICAL_SURFACE('',#882,2.25);
#808=CYLINDRICAL_SURFACE('',#889,2.25);
#809=CYLINDRICAL_SURFACE('',#892,2.25);
#810=CYLINDRICAL_SURFACE('',#895,2.25);
#811=CYLINDRICAL_SURFACE('',#898,5.);
#812=CYLINDRICAL_SURFACE('',#912,1.5);
#813=CYLINDRICAL_SURFACE('',#916,1.5);
#814=CYLINDRICAL_SURFACE('',#920,1.5);
#815=CYLINDRICAL_SURFACE('',#924,1.5);
#816=CYLINDRICAL_SURFACE('',#926,3.);
#817=CYLINDRICAL_SURFACE('',#938,3.);
#818=CYLINDRICAL_SURFACE('',#941,3.);
#819=CYLINDRICAL_SURFACE('',#944,3.);
#820=CYLINDRICAL_SURFACE('',#947,3.);
#821=CYLINDRICAL_SURFACE('',#949,3.);
#822=CYLINDRICAL_SURFACE('',#951,3.);
#823=CYLINDRICAL_SURFACE('',#953,3.);
#824=ADVANCED_FACE('',(#63),#807,.F.);
#825=ADVANCED_FACE('',(#64),#40,.F.);
#826=ADVANCED_FACE('',(#65),#41,.F.);
#827=ADVANCED_FACE('',(#66),#42,.F.);
#828=ADVANCED_FACE('',(#67),#43,.F.);
#829=ADVANCED_FACE('',(#68),#808,.F.);
#830=ADVANCED_FACE('',(#69),#809,.F.);
#831=ADVANCED_FACE('',(#70),#810,.F.);
#832=ADVANCED_FACE('',(#71),#811,.F.);
#833=ADVANCED_FACE('',(#72),#36,.F.);
#834=ADVANCED_FACE('',(#73,#15,#16,#17,#18,#19,#20,#21,#22,#23,#24),#44,
 .F.);
#835=ADVANCED_FACE('',(#74),#812,.F.);
#836=ADVANCED_FACE('',(#75),#37,.F.);
#837=ADVANCED_FACE('',(#76),#813,.F.);
#838=ADVANCED_FACE('',(#77),#38,.F.);
#839=ADVANCED_FACE('',(#78),#814,.F.);
#840=ADVANCED_FACE('',(#79),#39,.F.);
#841=ADVANCED_FACE('',(#80),#815,.F.);
#842=ADVANCED_FACE('',(#81),#816,.T.);
#843=ADVANCED_FACE('',(#82),#45,.T.);
#844=ADVANCED_FACE('',(#83,#25,#26,#27,#28,#29),#46,.T.);
#845=ADVANCED_FACE('',(#84),#817,.T.);
#846=ADVANCED_FACE('',(#85),#47,.T.);
#847=ADVANCED_FACE('',(#86),#818,.T.);
#848=ADVANCED_FACE('',(#87),#48,.T.);
#849=ADVANCED_FACE('',(#88),#819,.T.);
#850=ADVANCED_FACE('',(#89),#49,.T.);
#851=ADVANCED_FACE('',(#90),#820,.T.);
#852=ADVANCED_FACE('',(#91),#50,.T.);
#853=ADVANCED_FACE('',(#92),#821,.T.);
#854=ADVANCED_FACE('',(#93),#51,.T.);
#855=ADVANCED_FACE('',(#94),#822,.T.);
#856=ADVANCED_FACE('',(#95),#52,.T.);
#857=ADVANCED_FACE('',(#96),#823,.T.);
#858=ADVANCED_FACE('',(#97),#53,.T.);
#859=ADVANCED_FACE('',(#98),#54,.T.);
#860=ADVANCED_FACE('',(#99),#55,.T.);
#861=ADVANCED_FACE('',(#100),#56,.T.);
#862=ADVANCED_FACE('',(#101),#57,.T.);
#863=ADVANCED_FACE('',(#102),#58,.T.);
#864=ADVANCED_FACE('',(#103),#59,.T.);
#865=ADVANCED_FACE('',(#104),#60,.T.);
#866=ADVANCED_FACE('',(#105),#61,.T.);
#867=ADVANCED_FACE('',(#106,#30,#31,#32,#33,#34,#35),#62,.T.);
#868=CLOSED_SHELL('',(#824,#825,#826,#827,#828,#829,#830,#831,#832,#833,
#834,#835,#836,#837,#838,#839,#840,#841,#842,#843,#844,#845,#846,#847,#848,
#849,#850,#851,#852,#853,#854,#855,#856,#857,#858,#859,#860,#861,#862,#863,
#864,#865,#866,#867));
#869=DERIVED_UNIT_ELEMENT(#871,1.);
#870=DERIVED_UNIT_ELEMENT(#1458,-3.);
#871=(
MASS_UNIT()
NAMED_UNIT(*)
SI_UNIT(.KILO.,.GRAM.)
);
#872=DERIVED_UNIT((#869,#870));
#873=MEASURE_REPRESENTATION_ITEM('density measure',
POSITIVE_RATIO_MEASURE(7850.),#872);
#874=PROPERTY_DEFINITION_REPRESENTATION(#879,#876);
#875=PROPERTY_DEFINITION_REPRESENTATION(#880,#877);
#876=REPRESENTATION('material name',(#878),#1455);
#877=REPRESENTATION('density',(#873),#1455);
#878=DESCRIPTIVE_REPRESENTATION_ITEM('\X2\AC15CCA0\X0\','\X2\AC15CCA0\X0\');
#879=PROPERTY_DEFINITION('material property','material name',#1465);
#880=PROPERTY_DEFINITION('material property','density of part',#1465);
#881=AXIS2_PLACEMENT_3D('',#1211,#964,#965);
#882=AXIS2_PLACEMENT_3D('',#1212,#966,#967);
#883=AXIS2_PLACEMENT_3D('',#1214,#968,#969);
#884=AXIS2_PLACEMENT_3D('',#1217,#971,#972);
#885=AXIS2_PLACEMENT_3D('',#1218,#973,#974);
#886=AXIS2_PLACEMENT_3D('',#1227,#979,#980);
#887=AXIS2_PLACEMENT_3D('',#1233,#984,#985);
#888=AXIS2_PLACEMENT_3D('',#1239,#989,#990);
#889=AXIS2_PLACEMENT_3D('',#1242,#993,#994);
#890=AXIS2_PLACEMENT_3D('',#1244,#995,#996);
#891=AXIS2_PLACEMENT_3D('',#1247,#998,#999);
#892=AXIS2_PLACEMENT_3D('',#1248,#1000,#1001);
#893=AXIS2_PLACEMENT_3D('',#1250,#1002,#1003);
#894=AXIS2_PLACEMENT_3D('',#1253,#1005,#1006);
#895=AXIS2_PLACEMENT_3D('',#1254,#1007,#1008);
#896=AXIS2_PLACEMENT_3D('',#1256,#1009,#1010);
#897=AXIS2_PLACEMENT_3D('',#1259,#1012,#1013);
#898=AXIS2_PLACEMENT_3D('',#1260,#1014,#1015);
#899=AXIS2_PLACEMENT_3D('',#1262,#1016,#1017);
#900=AXIS2_PLACEMENT_3D('',#1265,#1019,#1020);
#901=AXIS2_PLACEMENT_3D('',#1266,#1021,#1022);
#902=AXIS2_PLACEMENT_3D('',#1268,#1023,#1024);
#903=AXIS2_PLACEMENT_3D('',#1271,#1026,#1027);
#904=AXIS2_PLACEMENT_3D('',#1272,#1028,#1029);
#905=AXIS2_PLACEMENT_3D('',#1275,#1030,#1031);
#906=AXIS2_PLACEMENT_3D('',#1279,#1033,#1034);
#907=AXIS2_PLACEMENT_3D('',#1283,#1036,#1037);
#908=AXIS2_PLACEMENT_3D('',#1287,#1039,#1040);
#909=AXIS2_PLACEMENT_3D('',#1290,#1042,#1043);
#910=AXIS2_PLACEMENT_3D('',#1292,#1044,#1045);
#911=AXIS2_PLACEMENT_3D('',#1294,#1046,#1047);
#912=AXIS2_PLACEMENT_3D('',#1295,#1048,#1049);
#913=AXIS2_PLACEMENT_3D('',#1297,#1050,#1051);
#914=AXIS2_PLACEMENT_3D('',#1299,#1053,#1054);
#915=AXIS2_PLACEMENT_3D('',#1302,#1056,#1057);
#916=AXIS2_PLACEMENT_3D('',#1303,#1058,#1059);
#917=AXIS2_PLACEMENT_3D('',#1305,#1060,#1061);
#918=AXIS2_PLACEMENT_3D('',#1307,#1063,#1064);
#919=AXIS2_PLACEMENT_3D('',#1310,#1066,#1067);
#920=AXIS2_PLACEMENT_3D('',#1311,#1068,#1069);
#921=AXIS2_PLACEMENT_3D('',#1313,#1070,#1071);
#922=AXIS2_PLACEMENT_3D('',#1315,#1073,#1074);
#923=AXIS2_PLACEMENT_3D('',#1318,#1076,#1077);
#924=AXIS2_PLACEMENT_3D('',#1319,#1078,#1079);
#925=AXIS2_PLACEMENT_3D('',#1321,#1080,#1081);
#926=AXIS2_PLACEMENT_3D('',#1323,#1083,#1084);
#927=AXIS2_PLACEMENT_3D('',#1326,#1085,#1086);
#928=AXIS2_PLACEMENT_3D('',#1330,#1088,#1089);
#929=AXIS2_PLACEMENT_3D('',#1332,#1091,#1092);
#930=AXIS2_PLACEMENT_3D('',#1338,#1096,#1097);
#931=AXIS2_PLACEMENT_3D('',#1341,#1098,#1099);
#932=AXIS2_PLACEMENT_3D('',#1345,#1101,#1102);
#933=AXIS2_PLACEMENT_3D('',#1349,#1104,#1105);
#934=AXIS2_PLACEMENT_3D('',#1353,#1107,#1108);
#935=AXIS2_PLACEMENT_3D('',#1362,#1113,#1114);
#936=AXIS2_PLACEMENT_3D('',#1370,#1118,#1119);
#937=AXIS2_PLACEMENT_3D('',#1378,#1123,#1124);
#938=AXIS2_PLACEMENT_3D('',#1382,#1127,#1128);
#939=AXIS2_PLACEMENT_3D('',#1386,#1130,#1131);
#940=AXIS2_PLACEMENT_3D('',#1388,#1133,#1134);
#941=AXIS2_PLACEMENT_3D('',#1392,#1137,#1138);
#942=AXIS2_PLACEMENT_3D('',#1396,#1140,#1141);
#943=AXIS2_PLACEMENT_3D('',#1398,#1143,#1144);
#944=AXIS2_PLACEMENT_3D('',#1402,#1147,#1148);
#945=AXIS2_PLACEMENT_3D('',#1406,#1150,#1151);
#946=AXIS2_PLACEMENT_3D('',#1408,#1153,#1154);
#947=AXIS2_PLACEMENT_3D('',#1412,#1157,#1158);
#948=AXIS2_PLACEMENT_3D('',#1415,#1161,#1162);
#949=AXIS2_PLACEMENT_3D('',#1417,#1164,#1165);
#950=AXIS2_PLACEMENT_3D('',#1419,#1167,#1168);
#951=AXIS2_PLACEMENT_3D('',#1421,#1170,#1171);
#952=AXIS2_PLACEMENT_3D('',#1423,#1173,#1174);
#953=AXIS2_PLACEMENT_3D('',#1425,#1176,#1177);
#954=AXIS2_PLACEMENT_3D('',#1427,#1179,#1180);
#955=AXIS2_PLACEMENT_3D('',#1428,#1181,#1182);
#956=AXIS2_PLACEMENT_3D('',#1432,#1185,#1186);
#957=AXIS2_PLACEMENT_3D('',#1434,#1188,#1189);
#958=AXIS2_PLACEMENT_3D('',#1438,#1192,#1193);
#959=AXIS2_PLACEMENT_3D('',#1440,#1195,#1196);
#960=AXIS2_PLACEMENT_3D('',#1444,#1199,#1200);
#961=AXIS2_PLACEMENT_3D('',#1446,#1202,#1203);
#962=AXIS2_PLACEMENT_3D('',#1450,#1206,#1207);
#963=AXIS2_PLACEMENT_3D('',#1452,#1209,#1210);
#964=DIRECTION('axis',(0.,0.,1.));
#965=DIRECTION('refdir',(1.,0.,0.));
#966=DIRECTION('center_axis',(0.,0.,-1.));
#967=DIRECTION('ref_axis',(-1.,0.,0.));
#968=DIRECTION('center_axis',(0.,0.,-1.));
#969=DIRECTION('ref_axis',(-1.,0.,0.));
#970=DIRECTION('',(0.,0.,-1.));
#971=DIRECTION('center_axis',(0.,0.,1.));
#972=DIRECTION('ref_axis',(-1.,0.,0.));
#973=DIRECTION('center_axis',(1.,-8.62309145339928E-16,0.));
#974=DIRECTION('ref_axis',(-8.62309145339928E-16,-1.,0.));
#975=DIRECTION('',(-8.62309145339928E-16,-1.,0.));
#976=DIRECTION('',(0.,0.,-1.));
#977=DIRECTION('',(8.62309145339928E-16,1.,0.));
#978=DIRECTION('',(0.,0.,-1.));
#979=DIRECTION('center_axis',(0.,1.,0.));
#980=DIRECTION('ref_axis',(1.,0.,0.));
#981=DIRECTION('',(1.,0.,0.));
#982=DIRECTION('',(0.,0.,-1.));
#983=DIRECTION('',(-1.,0.,0.));
#984=DIRECTION('center_axis',(-1.,0.,0.));
#985=DIRECTION('ref_axis',(0.,1.,0.));
#986=DIRECTION('',(0.,1.,0.));
#987=DIRECTION('',(0.,0.,-1.));
#988=DIRECTION('',(0.,-1.,0.));
#989=DIRECTION('center_axis',(-1.08314441426845E-16,-1.,0.));
#990=DIRECTION('ref_axis',(-1.,1.08314441426845E-16,0.));
#991=DIRECTION('',(-1.,1.08314441426845E-16,0.));
#992=DIRECTION('',(1.,-1.08314441426845E-16,0.));
#993=DIRECTION('center_axis',(0.,0.,-1.));
#994=DIRECTION('ref_axis',(-1.,0.,0.));
#995=DIRECTION('center_axis',(0.,0.,-1.));
#996=DIRECTION('ref_axis',(-1.,0.,0.));
#997=DIRECTION('',(0.,0.,-1.));
#998=DIRECTION('center_axis',(0.,0.,1.));
#999=DIRECTION('ref_axis',(-1.,0.,0.));
#1000=DIRECTION('center_axis',(0.,0.,-1.));
#1001=DIRECTION('ref_axis',(-1.,0.,0.));
#1002=DIRECTION('center_axis',(0.,0.,-1.));
#1003=DIRECTION('ref_axis',(-1.,0.,0.));
#1004=DIRECTION('',(0.,0.,-1.));
#1005=DIRECTION('center_axis',(0.,0.,1.));
#1006=DIRECTION('ref_axis',(-1.,0.,0.));
#1007=DIRECTION('center_axis',(0.,0.,-1.));
#1008=DIRECTION('ref_axis',(-1.,0.,0.));
#1009=DIRECTION('center_axis',(0.,0.,-1.));
#1010=DIRECTION('ref_axis',(-1.,0.,0.));
#1011=DIRECTION('',(0.,0.,-1.));
#1012=DIRECTION('center_axis',(0.,0.,1.));
#1013=DIRECTION('ref_axis',(-1.,0.,0.));
#1014=DIRECTION('center_axis',(0.,0.,-1.));
#1015=DIRECTION('ref_axis',(-1.,0.,0.));
#1016=DIRECTION('center_axis',(0.,0.,-1.));
#1017=DIRECTION('ref_axis',(-1.,0.,0.));
#1018=DIRECTION('',(0.,0.,-1.));
#1019=DIRECTION('center_axis',(0.,0.,1.));
#1020=DIRECTION('ref_axis',(-1.,0.,0.));
#1021=DIRECTION('center_axis',(0.,0.,-1.));
#1022=DIRECTION('ref_axis',(-1.,0.,0.));
#1023=DIRECTION('center_axis',(0.,0.,-1.));
#1024=DIRECTION('ref_axis',(-1.,0.,0.));
#1025=DIRECTION('',(-0.707106781186546,8.65956056235492E-17,0.707106781186549));
#1026=DIRECTION('center_axis',(0.,0.,1.));
#1027=DIRECTION('ref_axis',(-1.,0.,0.));
#1028=DIRECTION('center_axis',(0.,0.,1.));
#1029=DIRECTION('ref_axis',(1.,0.,0.));
#1030=DIRECTION('center_axis',(0.,0.,1.));
#1031=DIRECTION('ref_axis',(-0.707106781186546,0.707106781186549,0.));
#1032=DIRECTION('',(-1.,0.,0.));
#1033=DIRECTION('center_axis',(0.,0.,1.));
#1034=DIRECTION('ref_axis',(0.707106781186548,0.707106781186548,0.));
#1035=DIRECTION('',(0.,1.,0.));
#1036=DIRECTION('center_axis',(0.,0.,1.));
#1037=DIRECTION('ref_axis',(0.707106781186548,-0.707106781186547,0.));
#1038=DIRECTION('',(1.,0.,0.));
#1039=DIRECTION('center_axis',(0.,0.,1.));
#1040=DIRECTION('ref_axis',(-0.707106781186548,-0.707106781186547,0.));
#1041=DIRECTION('',(-2.46519032881566E-33,-1.,0.));
#1042=DIRECTION('center_axis',(0.,0.,-1.));
#1043=DIRECTION('ref_axis',(-1.,0.,0.));
#1044=DIRECTION('center_axis',(0.,0.,-1.));
#1045=DIRECTION('ref_axis',(-1.,0.,0.));
#1046=DIRECTION('center_axis',(0.,0.,-1.));
#1047=DIRECTION('ref_axis',(-1.,0.,0.));
#1048=DIRECTION('center_axis',(0.,0.,-1.));
#1049=DIRECTION('ref_axis',(-1.,0.,0.));
#1050=DIRECTION('center_axis',(0.,0.,-1.));
#1051=DIRECTION('ref_axis',(-1.,0.,0.));
#1052=DIRECTION('',(0.,0.,-1.));
#1053=DIRECTION('center_axis',(0.,0.,-1.));
#1054=DIRECTION('ref_axis',(-1.,0.,0.));
#1055=DIRECTION('',(-0.707106781186546,8.65956056235492E-17,0.707106781186549));
#1056=DIRECTION('center_axis',(0.,0.,1.));
#1057=DIRECTION('ref_axis',(-1.,0.,0.));
#1058=DIRECTION('center_axis',(0.,0.,-1.));
#1059=DIRECTION('ref_axis',(-1.,0.,0.));
#1060=DIRECTION('center_axis',(0.,0.,-1.));
#1061=DIRECTION('ref_axis',(-1.,0.,0.));
#1062=DIRECTION('',(0.,0.,-1.));
#1063=DIRECTION('center_axis',(0.,0.,-1.));
#1064=DIRECTION('ref_axis',(-1.,0.,0.));
#1065=DIRECTION('',(-0.707106781186548,8.65956056235493E-17,0.707106781186547));
#1066=DIRECTION('center_axis',(0.,0.,1.));
#1067=DIRECTION('ref_axis',(-1.,0.,0.));
#1068=DIRECTION('center_axis',(0.,0.,-1.));
#1069=DIRECTION('ref_axis',(-1.,0.,0.));
#1070=DIRECTION('center_axis',(0.,0.,-1.));
#1071=DIRECTION('ref_axis',(-1.,0.,0.));
#1072=DIRECTION('',(0.,0.,-1.));
#1073=DIRECTION('center_axis',(0.,0.,-1.));
#1074=DIRECTION('ref_axis',(-1.,0.,0.));
#1075=DIRECTION('',(-0.707106781186548,8.65956056235493E-17,0.707106781186547));
#1076=DIRECTION('center_axis',(0.,0.,1.));
#1077=DIRECTION('ref_axis',(-1.,0.,0.));
#1078=DIRECTION('center_axis',(0.,0.,-1.));
#1079=DIRECTION('ref_axis',(-1.,0.,0.));
#1080=DIRECTION('center_axis',(0.,0.,-1.));
#1081=DIRECTION('ref_axis',(-1.,0.,0.));
#1082=DIRECTION('',(0.,0.,-1.));
#1083=DIRECTION('center_axis',(0.,0.,1.));
#1084=DIRECTION('ref_axis',(-0.707106781186548,0.707106781186547,0.));
#1085=DIRECTION('center_axis',(0.,0.,-1.));
#1086=DIRECTION('ref_axis',(-0.707106781186548,0.707106781186547,0.));
#1087=DIRECTION('',(0.,0.,-1.));
#1088=DIRECTION('center_axis',(0.,0.,-1.));
#1089=DIRECTION('ref_axis',(-0.707106781186548,0.707106781186547,0.));
#1090=DIRECTION('',(0.,0.,1.));
#1091=DIRECTION('center_axis',(-2.77555756156289E-16,1.,0.));
#1092=DIRECTION('ref_axis',(-1.,-2.77555756156289E-16,0.));
#1093=DIRECTION('',(-1.,-2.77555756156289E-16,0.));
#1094=DIRECTION('',(0.,0.,1.));
#1095=DIRECTION('',(1.,2.77555756156289E-16,0.));
#1096=DIRECTION('center_axis',(0.,0.,1.));
#1097=DIRECTION('ref_axis',(1.,0.,0.));
#1098=DIRECTION('center_axis',(0.,0.,-1.));
#1099=DIRECTION('ref_axis',(-0.707106781186546,0.707106781186549,0.));
#1100=DIRECTION('',(0.,-1.,0.));
#1101=DIRECTION('center_axis',(0.,0.,-1.));
#1102=DIRECTION('ref_axis',(-0.707106781186548,-0.707106781186547,0.));
#1103=DIRECTION('',(1.,0.,0.));
#1104=DIRECTION('center_axis',(0.,0.,-1.));
#1105=DIRECTION('ref_axis',(0.707106781186548,-0.707106781186547,0.));
#1106=DIRECTION('',(0.,1.,0.));
#1107=DIRECTION('center_axis',(0.,0.,-1.));
#1108=DIRECTION('ref_axis',(0.707106781186548,0.707106781186548,0.));
#1109=DIRECTION('',(-1.,0.,0.));
#1110=DIRECTION('',(0.,-1.,0.));
#1111=DIRECTION('',(-1.,0.,0.));
#1112=DIRECTION('',(0.,1.,0.));
#1113=DIRECTION('center_axis',(0.,0.,-1.));
#1114=DIRECTION('ref_axis',(0.707106781186548,0.707106781186548,0.));
#1115=DIRECTION('',(-1.,0.,0.));
#1116=DIRECTION('',(0.,1.,0.));
#1117=DIRECTION('',(1.,0.,0.));
#1118=DIRECTION('center_axis',(0.,0.,-1.));
#1119=DIRECTION('ref_axis',(0.707106781186547,-0.707106781186548,0.));
#1120=DIRECTION('',(2.77555756156289E-16,1.,0.));
#1121=DIRECTION('',(1.,0.,0.));
#1122=DIRECTION('',(0.,-1.,0.));
#1123=DIRECTION('center_axis',(0.,0.,-1.));
#1124=DIRECTION('ref_axis',(-0.707106781186548,-0.707106781186548,0.));
#1125=DIRECTION('',(1.,0.,0.));
#1126=DIRECTION('',(0.,-1.,0.));
#1127=DIRECTION('center_axis',(0.,0.,1.));
#1128=DIRECTION('ref_axis',(-0.707106781186548,-0.707106781186548,0.));
#1129=DIRECTION('',(0.,0.,-1.));
#1130=DIRECTION('center_axis',(0.,0.,-1.));
#1131=DIRECTION('ref_axis',(-0.707106781186548,-0.707106781186548,0.));
#1132=DIRECTION('',(0.,0.,1.));
#1133=DIRECTION('center_axis',(-1.,0.,0.));
#1134=DIRECTION('ref_axis',(0.,-1.,0.));
#1135=DIRECTION('',(0.,0.,1.));
#1136=DIRECTION('',(0.,1.,0.));
#1137=DIRECTION('center_axis',(0.,0.,1.));
#1138=DIRECTION('ref_axis',(0.707106781186548,0.707106781186548,0.));
#1139=DIRECTION('',(0.,0.,-1.));
#1140=DIRECTION('center_axis',(0.,0.,-1.));
#1141=DIRECTION('ref_axis',(0.707106781186548,0.707106781186548,0.));
#1142=DIRECTION('',(0.,0.,1.));
#1143=DIRECTION('center_axis',(1.,0.,0.));
#1144=DIRECTION('ref_axis',(0.,1.,0.));
#1145=DIRECTION('',(0.,0.,1.));
#1146=DIRECTION('',(0.,-1.,0.));
#1147=DIRECTION('center_axis',(0.,0.,1.));
#1148=DIRECTION('ref_axis',(0.707106781186547,-0.707106781186548,0.));
#1149=DIRECTION('',(0.,0.,-1.));
#1150=DIRECTION('center_axis',(0.,0.,-1.));
#1151=DIRECTION('ref_axis',(0.707106781186547,-0.707106781186548,0.));
#1152=DIRECTION('',(0.,0.,1.));
#1153=DIRECTION('center_axis',(0.,-1.,0.));
#1154=DIRECTION('ref_axis',(1.,0.,0.));
#1155=DIRECTION('',(0.,0.,1.));
#1156=DIRECTION('',(-1.,0.,0.));
#1157=DIRECTION('center_axis',(0.,0.,1.));
#1158=DIRECTION('ref_axis',(-0.707106781186546,0.707106781186549,0.));
#1159=DIRECTION('',(0.,0.,-1.));
#1160=DIRECTION('',(0.,0.,1.));
#1161=DIRECTION('center_axis',(0.,1.,0.));
#1162=DIRECTION('ref_axis',(-1.,0.,0.));
#1163=DIRECTION('',(0.,0.,1.));
#1164=DIRECTION('center_axis',(0.,0.,1.));
#1165=DIRECTION('ref_axis',(0.707106781186548,0.707106781186548,0.));
#1166=DIRECTION('',(0.,0.,-1.));
#1167=DIRECTION('center_axis',(1.,0.,0.));
#1168=DIRECTION('ref_axis',(0.,1.,0.));
#1169=DIRECTION('',(0.,0.,1.));
#1170=DIRECTION('center_axis',(0.,0.,1.));
#1171=DIRECTION('ref_axis',(0.707106781186548,-0.707106781186547,0.));
#1172=DIRECTION('',(0.,0.,-1.));
#1173=DIRECTION('center_axis',(0.,-1.,0.));
#1174=DIRECTION('ref_axis',(1.,0.,0.));
#1175=DIRECTION('',(0.,0.,1.));
#1176=DIRECTION('center_axis',(0.,0.,1.));
#1177=DIRECTION('ref_axis',(-0.707106781186548,-0.707106781186547,0.));
#1178=DIRECTION('',(0.,0.,-1.));
#1179=DIRECTION('center_axis',(-1.,2.46519032881566E-33,0.));
#1180=DIRECTION('ref_axis',(-2.46519032881566E-33,-1.,0.));
#1181=DIRECTION('center_axis',(0.,1.,0.));
#1182=DIRECTION('ref_axis',(-1.,0.,0.));
#1183=DIRECTION('',(1.,0.,0.));
#1184=DIRECTION('',(0.,0.,1.));
#1185=DIRECTION('center_axis',(-1.,0.,0.));
#1186=DIRECTION('ref_axis',(0.,-1.,0.));
#1187=DIRECTION('',(0.,1.,0.));
#1188=DIRECTION('center_axis',(-1.,0.,0.));
#1189=DIRECTION('ref_axis',(0.,-1.,0.));
#1190=DIRECTION('',(0.,1.,0.));
#1191=DIRECTION('',(0.,0.,1.));
#1192=DIRECTION('center_axis',(0.,-1.,0.));
#1193=DIRECTION('ref_axis',(1.,0.,0.));
#1194=DIRECTION('',(-1.,0.,0.));
#1195=DIRECTION('center_axis',(0.,-1.,0.));
#1196=DIRECTION('ref_axis',(1.,0.,0.));
#1197=DIRECTION('',(-1.,0.,0.));
#1198=DIRECTION('',(0.,0.,1.));
#1199=DIRECTION('center_axis',(1.,-2.77555756156289E-16,0.));
#1200=DIRECTION('ref_axis',(2.77555756156289E-16,1.,0.));
#1201=DIRECTION('',(-2.77555756156289E-16,-1.,0.));
#1202=DIRECTION('center_axis',(1.,0.,0.));
#1203=DIRECTION('ref_axis',(0.,1.,0.));
#1204=DIRECTION('',(0.,-1.,0.));
#1205=DIRECTION('',(0.,0.,1.));
#1206=DIRECTION('center_axis',(0.,1.,0.));
#1207=DIRECTION('ref_axis',(-1.,0.,0.));
#1208=DIRECTION('',(1.,0.,0.));
#1209=DIRECTION('center_axis',(0.,0.,1.));
#1210=DIRECTION('ref_axis',(1.,0.,0.));
#1211=CARTESIAN_POINT('',(0.,0.,0.));
#1212=CARTESIAN_POINT('Origin',(84.5,55.1,2.));
#1213=CARTESIAN_POINT('',(86.75,55.1,2.));
#1214=CARTESIAN_POINT('Origin',(84.5,55.1,2.));
#1215=CARTESIAN_POINT('',(86.75,55.1,0.));
#1216=CARTESIAN_POINT('',(86.75,55.1,2.));
#1217=CARTESIAN_POINT('Origin',(84.5,55.1,0.));
#1218=CARTESIAN_POINT('Origin',(80.5,60.3,2.));
#1219=CARTESIAN_POINT('',(80.5,60.3,2.));
#1220=CARTESIAN_POINT('',(80.5,39.7,2.));
#1221=CARTESIAN_POINT('',(80.5,55.15,2.));
#1222=CARTESIAN_POINT('',(80.5,60.3,0.));
#1223=CARTESIAN_POINT('',(80.5,60.3,2.));
#1224=CARTESIAN_POINT('',(80.5,39.7,0.));
#1225=CARTESIAN_POINT('',(80.5,55.15,0.));
#1226=CARTESIAN_POINT('',(80.5,39.7,2.));
#1227=CARTESIAN_POINT('Origin',(39.5,60.3,2.));
#1228=CARTESIAN_POINT('',(39.5,60.3,2.));
#1229=CARTESIAN_POINT('',(44.75,60.3,2.));
#1230=CARTESIAN_POINT('',(39.5,60.3,0.));
#1231=CARTESIAN_POINT('',(39.5,60.3,2.));
#1232=CARTESIAN_POINT('',(44.75,60.3,0.));
#1233=CARTESIAN_POINT('Origin',(39.5,39.7,2.));
#1234=CARTESIAN_POINT('',(39.5,39.7,2.));
#1235=CARTESIAN_POINT('',(39.5,44.85,2.));
#1236=CARTESIAN_POINT('',(39.5,39.7,0.));
#1237=CARTESIAN_POINT('',(39.5,39.7,2.));
#1238=CARTESIAN_POINT('',(39.5,44.85,0.));
#1239=CARTESIAN_POINT('Origin',(80.5,39.7,2.));
#1240=CARTESIAN_POINT('',(65.25,39.7,2.));
#1241=CARTESIAN_POINT('',(65.25,39.7,0.));
#1242=CARTESIAN_POINT('Origin',(84.5,45.1,2.));
#1243=CARTESIAN_POINT('',(86.75,45.1,2.));
#1244=CARTESIAN_POINT('Origin',(84.5,45.1,2.));
#1245=CARTESIAN_POINT('',(86.75,45.1,0.));
#1246=CARTESIAN_POINT('',(86.75,45.1,2.));
#1247=CARTESIAN_POINT('Origin',(84.5,45.1,0.));
#1248=CARTESIAN_POINT('Origin',(35.5,45.1,2.));
#1249=CARTESIAN_POINT('',(37.75,45.1,2.));
#1250=CARTESIAN_POINT('Origin',(35.5,45.1,2.));
#1251=CARTESIAN_POINT('',(37.75,45.1,0.));
#1252=CARTESIAN_POINT('',(37.75,45.1,2.));
#1253=CARTESIAN_POINT('Origin',(35.5,45.1,0.));
#1254=CARTESIAN_POINT('Origin',(35.5,55.1,2.));
#1255=CARTESIAN_POINT('',(37.75,55.1,2.));
#1256=CARTESIAN_POINT('Origin',(35.5,55.1,2.));
#1257=CARTESIAN_POINT('',(37.75,55.1,0.));
#1258=CARTESIAN_POINT('',(37.75,55.1,2.));
#1259=CARTESIAN_POINT('Origin',(35.5,55.1,0.));
#1260=CARTESIAN_POINT('Origin',(25.,50.,2.));
#1261=CARTESIAN_POINT('',(30.,50.,2.));
#1262=CARTESIAN_POINT('Origin',(25.,50.,2.));
#1263=CARTESIAN_POINT('',(30.,50.,0.));
#1264=CARTESIAN_POINT('',(30.,50.,2.));
#1265=CARTESIAN_POINT('Origin',(25.,50.,0.));
#1266=CARTESIAN_POINT('Origin',(95.,95.,1.));
#1267=CARTESIAN_POINT('',(98.5,95.,0.));
#1268=CARTESIAN_POINT('Origin',(95.,95.,0.));
#1269=CARTESIAN_POINT('',(96.5,95.,2.));
#1270=CARTESIAN_POINT('',(97.5,95.,1.));
#1271=CARTESIAN_POINT('Origin',(95.,95.,2.));
#1272=CARTESIAN_POINT('Origin',(50.,50.,0.));
#1273=CARTESIAN_POINT('',(3.00000000000001,100.,0.));
#1274=CARTESIAN_POINT('',(2.39123461895119E-31,97.,0.));
#1275=CARTESIAN_POINT('Origin',(3.,97.,0.));
#1276=CARTESIAN_POINT('',(97.,100.,0.));
#1277=CARTESIAN_POINT('',(100.,100.,0.));
#1278=CARTESIAN_POINT('',(100.,97.,0.));
#1279=CARTESIAN_POINT('Origin',(97.,97.,0.));
#1280=CARTESIAN_POINT('',(100.,3.,0.));
#1281=CARTESIAN_POINT('',(100.,0.,0.));
#1282=CARTESIAN_POINT('',(97.,0.,0.));
#1283=CARTESIAN_POINT('Origin',(97.,3.,0.));
#1284=CARTESIAN_POINT('',(3.,0.,0.));
#1285=CARTESIAN_POINT('',(0.,0.,0.));
#1286=CARTESIAN_POINT('',(7.39557098644699E-33,3.00000000000001,0.));
#1287=CARTESIAN_POINT('Origin',(3.,3.,0.));
#1288=CARTESIAN_POINT('',(2.46519032881566E-31,100.,0.));
#1289=CARTESIAN_POINT('',(98.5,5.,0.));
#1290=CARTESIAN_POINT('Origin',(95.,5.,0.));
#1291=CARTESIAN_POINT('',(8.5,95.,0.));
#1292=CARTESIAN_POINT('Origin',(5.,95.,0.));
#1293=CARTESIAN_POINT('',(8.5,5.,0.));
#1294=CARTESIAN_POINT('Origin',(5.,5.,0.));
#1295=CARTESIAN_POINT('Origin',(95.,95.,10.));
#1296=CARTESIAN_POINT('',(96.5,95.,10.));
#1297=CARTESIAN_POINT('Origin',(95.,95.,10.));
#1298=CARTESIAN_POINT('',(96.5,95.,10.));
#1299=CARTESIAN_POINT('Origin',(95.,5.,1.));
#1300=CARTESIAN_POINT('',(96.5,5.,2.));
#1301=CARTESIAN_POINT('',(97.5,5.,1.));
#1302=CARTESIAN_POINT('Origin',(95.,5.,2.));
#1303=CARTESIAN_POINT('Origin',(95.,5.,10.));
#1304=CARTESIAN_POINT('',(96.5,5.,10.));
#1305=CARTESIAN_POINT('Origin',(95.,5.,10.));
#1306=CARTESIAN_POINT('',(96.5,5.,10.));
#1307=CARTESIAN_POINT('Origin',(5.,5.,1.));
#1308=CARTESIAN_POINT('',(6.5,5.,2.));
#1309=CARTESIAN_POINT('',(7.5,5.,1.));
#1310=CARTESIAN_POINT('Origin',(5.,5.,2.));
#1311=CARTESIAN_POINT('Origin',(5.,5.,10.));
#1312=CARTESIAN_POINT('',(6.5,5.,10.));
#1313=CARTESIAN_POINT('Origin',(5.,5.,10.));
#1314=CARTESIAN_POINT('',(6.5,5.,10.));
#1315=CARTESIAN_POINT('Origin',(5.,95.,1.));
#1316=CARTESIAN_POINT('',(6.5,95.,2.));
#1317=CARTESIAN_POINT('',(7.5,95.,1.));
#1318=CARTESIAN_POINT('Origin',(5.,95.,2.));
#1319=CARTESIAN_POINT('Origin',(5.,95.,10.));
#1320=CARTESIAN_POINT('',(6.5,95.,10.));
#1321=CARTESIAN_POINT('Origin',(5.,95.,10.));
#1322=CARTESIAN_POINT('',(6.5,95.,10.));
#1323=CARTESIAN_POINT('Origin',(93.,7.,2.));
#1324=CARTESIAN_POINT('',(90.,7.,10.));
#1325=CARTESIAN_POINT('',(93.,10.,10.));
#1326=CARTESIAN_POINT('Origin',(93.,7.,10.));
#1327=CARTESIAN_POINT('',(93.,10.,2.));
#1328=CARTESIAN_POINT('',(93.,10.,2.));
#1329=CARTESIAN_POINT('',(90.,7.,2.));
#1330=CARTESIAN_POINT('Origin',(93.,7.,2.));
#1331=CARTESIAN_POINT('',(90.,7.,2.));
#1332=CARTESIAN_POINT('Origin',(98.,10.,2.));
#1333=CARTESIAN_POINT('',(98.,10.,10.));
#1334=CARTESIAN_POINT('',(98.,10.,10.));
#1335=CARTESIAN_POINT('',(98.,10.,2.));
#1336=CARTESIAN_POINT('',(98.,10.,2.));
#1337=CARTESIAN_POINT('',(74.,10.,2.));
#1338=CARTESIAN_POINT('Origin',(50.,50.,10.));
#1339=CARTESIAN_POINT('',(2.46519032881566E-31,97.,10.));
#1340=CARTESIAN_POINT('',(3.,100.,10.));
#1341=CARTESIAN_POINT('Origin',(3.,97.,10.));
#1342=CARTESIAN_POINT('',(2.46519032881566E-31,3.,10.));
#1343=CARTESIAN_POINT('',(2.46519032881566E-31,0.,10.));
#1344=CARTESIAN_POINT('',(3.00000000000001,0.,10.));
#1345=CARTESIAN_POINT('Origin',(3.,3.,10.));
#1346=CARTESIAN_POINT('',(97.,0.,10.));
#1347=CARTESIAN_POINT('',(100.,0.,10.));
#1348=CARTESIAN_POINT('',(100.,3.00000000000001,10.));
#1349=CARTESIAN_POINT('Origin',(97.,3.,10.));
#1350=CARTESIAN_POINT('',(100.,97.,10.));
#1351=CARTESIAN_POINT('',(100.,100.,10.));
#1352=CARTESIAN_POINT('',(97.,100.,10.));
#1353=CARTESIAN_POINT('Origin',(97.,97.,10.));
#1354=CARTESIAN_POINT('',(2.46519032881566E-31,100.,10.));
#1355=CARTESIAN_POINT('',(90.,2.,10.));
#1356=CARTESIAN_POINT('',(90.,10.,10.));
#1357=CARTESIAN_POINT('',(10.,2.,10.));
#1358=CARTESIAN_POINT('',(90.,2.,10.));
#1359=CARTESIAN_POINT('',(10.,7.,10.));
#1360=CARTESIAN_POINT('',(10.,2.,10.));
#1361=CARTESIAN_POINT('',(7.,10.,10.));
#1362=CARTESIAN_POINT('Origin',(7.,7.,10.));
#1363=CARTESIAN_POINT('',(2.,10.,10.));
#1364=CARTESIAN_POINT('',(10.,10.,10.));
#1365=CARTESIAN_POINT('',(2.,90.,10.));
#1366=CARTESIAN_POINT('',(2.,10.,10.));
#1367=CARTESIAN_POINT('',(7.00000000000001,90.,10.));
#1368=CARTESIAN_POINT('',(2.,90.,10.));
#1369=CARTESIAN_POINT('',(10.,93.,10.));
#1370=CARTESIAN_POINT('Origin',(7.00000000000001,93.,10.));
#1371=CARTESIAN_POINT('',(10.,98.,10.));
#1372=CARTESIAN_POINT('',(10.,90.,10.));
#1373=CARTESIAN_POINT('',(90.,98.,10.));
#1374=CARTESIAN_POINT('',(10.,98.,10.));
#1375=CARTESIAN_POINT('',(90.,93.,10.));
#1376=CARTESIAN_POINT('',(90.,98.,10.));
#1377=CARTESIAN_POINT('',(93.,90.,10.));
#1378=CARTESIAN_POINT('Origin',(93.,93.,10.));
#1379=CARTESIAN_POINT('',(98.,90.,10.));
#1380=CARTESIAN_POINT('',(90.,90.,10.));
#1381=CARTESIAN_POINT('',(98.,90.,10.));
#1382=CARTESIAN_POINT('Origin',(93.,93.,2.));
#1383=CARTESIAN_POINT('',(90.,93.,2.));
#1384=CARTESIAN_POINT('',(90.,93.,2.));
#1385=CARTESIAN_POINT('',(93.,90.,2.));
#1386=CARTESIAN_POINT('Origin',(93.,93.,2.));
#1387=CARTESIAN_POINT('',(93.,90.,2.));
#1388=CARTESIAN_POINT('Origin',(90.,98.,2.));
#1389=CARTESIAN_POINT('',(90.,98.,2.));
#1390=CARTESIAN_POINT('',(90.,98.,2.));
#1391=CARTESIAN_POINT('',(90.,74.,2.));
#1392=CARTESIAN_POINT('Origin',(7.,7.,2.));
#1393=CARTESIAN_POINT('',(10.,7.,2.));
#1394=CARTESIAN_POINT('',(10.,7.,2.));
#1395=CARTESIAN_POINT('',(7.,10.,2.));
#1396=CARTESIAN_POINT('Origin',(7.,7.,2.));
#1397=CARTESIAN_POINT('',(7.,10.,2.));
#1398=CARTESIAN_POINT('Origin',(10.,2.,2.));
#1399=CARTESIAN_POINT('',(10.,2.,2.));
#1400=CARTESIAN_POINT('',(10.,2.,2.));
#1401=CARTESIAN_POINT('',(10.,26.,2.));
#1402=CARTESIAN_POINT('Origin',(7.00000000000001,93.,2.));
#1403=CARTESIAN_POINT('',(7.00000000000001,90.,2.));
#1404=CARTESIAN_POINT('',(7.00000000000001,90.,2.));
#1405=CARTESIAN_POINT('',(10.,93.,2.));
#1406=CARTESIAN_POINT('Origin',(7.00000000000001,93.,2.));
#1407=CARTESIAN_POINT('',(10.,93.,2.));
#1408=CARTESIAN_POINT('Origin',(2.,90.,2.));
#1409=CARTESIAN_POINT('',(2.,90.,2.));
#1410=CARTESIAN_POINT('',(2.,90.,2.));
#1411=CARTESIAN_POINT('',(26.,90.,2.));
#1412=CARTESIAN_POINT('Origin',(3.,97.,0.));
#1413=CARTESIAN_POINT('',(3.,100.,0.));
#1414=CARTESIAN_POINT('',(0.,97.,0.));
#1415=CARTESIAN_POINT('Origin',(100.,100.,0.));
#1416=CARTESIAN_POINT('',(97.,100.,0.));
#1417=CARTESIAN_POINT('Origin',(97.,97.,0.));
#1418=CARTESIAN_POINT('',(100.,97.,0.));
#1419=CARTESIAN_POINT('Origin',(100.,0.,0.));
#1420=CARTESIAN_POINT('',(100.,3.,0.));
#1421=CARTESIAN_POINT('Origin',(97.,3.,0.));
#1422=CARTESIAN_POINT('',(97.,0.,0.));
#1423=CARTESIAN_POINT('Origin',(0.,0.,0.));
#1424=CARTESIAN_POINT('',(3.,0.,0.));
#1425=CARTESIAN_POINT('Origin',(3.,3.,0.));
#1426=CARTESIAN_POINT('',(0.,3.,0.));
#1427=CARTESIAN_POINT('Origin',(2.46519032881566E-31,100.,0.));
#1428=CARTESIAN_POINT('Origin',(90.,2.,2.));
#1429=CARTESIAN_POINT('',(90.,2.,2.));
#1430=CARTESIAN_POINT('',(70.,2.,2.));
#1431=CARTESIAN_POINT('',(90.,2.,2.));
#1432=CARTESIAN_POINT('Origin',(90.,10.,2.));
#1433=CARTESIAN_POINT('',(90.,30.,2.));
#1434=CARTESIAN_POINT('Origin',(98.,90.,2.));
#1435=CARTESIAN_POINT('',(98.,90.,2.));
#1436=CARTESIAN_POINT('',(98.,70.,2.));
#1437=CARTESIAN_POINT('',(98.,90.,2.));
#1438=CARTESIAN_POINT('Origin',(90.,90.,2.));
#1439=CARTESIAN_POINT('',(70.,90.,2.));
#1440=CARTESIAN_POINT('Origin',(10.,98.,2.));
#1441=CARTESIAN_POINT('',(10.,98.,2.));
#1442=CARTESIAN_POINT('',(30.,98.,2.));
#1443=CARTESIAN_POINT('',(10.,98.,2.));
#1444=CARTESIAN_POINT('Origin',(10.,90.,2.));
#1445=CARTESIAN_POINT('',(10.,70.,2.));
#1446=CARTESIAN_POINT('Origin',(2.,10.,2.));
#1447=CARTESIAN_POINT('',(2.,10.,2.));
#1448=CARTESIAN_POINT('',(2.,30.,2.));
#1449=CARTESIAN_POINT('',(2.,10.,2.));
#1450=CARTESIAN_POINT('Origin',(10.,10.,2.));
#1451=CARTESIAN_POINT('',(30.,10.,2.));
#1452=CARTESIAN_POINT('Origin',(50.,50.,2.));
#1453=UNCERTAINTY_MEASURE_WITH_UNIT(LENGTH_MEASURE(0.01),#1457,
'DISTANCE_ACCURACY_VALUE',
'Maximum model space distance between geometric entities at asserted c
onnectivities');
#1454=UNCERTAINTY_MEASURE_WITH_UNIT(LENGTH_MEASURE(0.01),#1457,
'DISTANCE_ACCURACY_VALUE',
'Maximum model space distance between geometric entities at asserted c
onnectivities');
#1455=(
GEOMETRIC_REPRESENTATION_CONTEXT(3)
GLOBAL_UNCERTAINTY_ASSIGNED_CONTEXT((#1453))
GLOBAL_UNIT_ASSIGNED_CONTEXT((#1457,#1459,#1460))
REPRESENTATION_CONTEXT('','3D')
);
#1456=(
GEOMETRIC_REPRESENTATION_CONTEXT(3)
GLOBAL_UNCERTAINTY_ASSIGNED_CONTEXT((#1454))
GLOBAL_UNIT_ASSIGNED_CONTEXT((#1457,#1459,#1460))
REPRESENTATION_CONTEXT('','3D')
);
#1457=(
LENGTH_UNIT()
NAMED_UNIT(*)
SI_UNIT(.MILLI.,.METRE.)
);
#1458=(
LENGTH_UNIT()
NAMED_UNIT(*)
SI_UNIT($,.METRE.)
);
#1459=(
NAMED_UNIT(*)
PLANE_ANGLE_UNIT()
SI_UNIT($,.RADIAN.)
);
#1460=(
NAMED_UNIT(*)
SI_UNIT($,.STERADIAN.)
SOLID_ANGLE_UNIT()
);
#1461=SHAPE_DEFINITION_REPRESENTATION(#1462,#1463);
#1462=PRODUCT_DEFINITION_SHAPE('',$,#1465);
#1463=SHAPE_REPRESENTATION('',(#881),#1455);
#1464=PRODUCT_DEFINITION_CONTEXT('part definition',#1469,'design');
#1465=PRODUCT_DEFINITION('(\X2\C800C7A5B418C9C0\X0\ \X2\C54AC74C\X0\)',
'(\X2\C800C7A5B418C9C0\X0\ \X2\C54AC74C\X0\)',#1466,#1464);
#1466=PRODUCT_DEFINITION_FORMATION('',$,#1471);
#1467=PRODUCT_RELATED_PRODUCT_CATEGORY('(\X2\C800C7A5B418C9C0\X0\ \X2\C54AC74C\X0\)',
'(\X2\C800C7A5B418C9C0\X0\ \X2\C54AC74C\X0\)',(#1471));
#1468=APPLICATION_PROTOCOL_DEFINITION('international standard',
'automotive_design',2009,#1469);
#1469=APPLICATION_CONTEXT(
'Core Data for Automotive Mechanical Design Process');
#1470=PRODUCT_CONTEXT('part definition',#1469,'mechanical');
#1471=PRODUCT('(\X2\C800C7A5B418C9C0\X0\ \X2\C54AC74C\X0\)',
'(\X2\C800C7A5B418C9C0\X0\ \X2\C54AC74C\X0\)',$,(#1470));
#1472=PRESENTATION_STYLE_ASSIGNMENT((#1473));
#1473=SURFACE_STYLE_USAGE(.BOTH.,#1474);
#1474=SURFACE_SIDE_STYLE('',(#1475));
#1475=SURFACE_STYLE_FILL_AREA(#1476);
#1476=FILL_AREA_STYLE('\X2\AC15CCA0\X0\ - \X2\C0C8D2F4\X0\',(#1477));
#1477=FILL_AREA_STYLE_COLOUR('\X2\AC15CCA0\X0\ - \X2\C0C8D2F4\X0\',#1478);
#1478=COLOUR_RGB('\X2\AC15CCA0\X0\ - \X2\C0C8D2F4\X0\',0.627450980392157,
0.627450980392157,0.627450980392157);
ENDSEC;
END-ISO-10303-21;
