ISO-10303-21;
HEADER;
/* Generated by software containing ST-Developer
 * from STEP Tools, Inc. (www.steptools.com) 
 */

FILE_DESCRIPTION(
/* description */ (''),
/* implementation_level */ '2;1');

FILE_NAME(
/* name */ 'TRGRIP01_Base_Top_60x30x14.step',
/* time_stamp */ '2026-06-11T09:11:03+09:00',
/* author */ (''),
/* organization */ (''),
/* preprocessor_version */ 'ST-DEVELOPER v20.1',
/* originating_system */ 'Autodesk Translation Framework v15.8.0.0',
/* authorisation */ '');

FILE_SCHEMA (('AUTOMOTIVE_DESIGN { 1 0 10303 214 3 1 1 }'));
ENDSEC;

DATA;
#10=MECHANICAL_DESIGN_GEOMETRIC_PRESENTATION_REPRESENTATION('',(#13),#1404);
#11=SHAPE_REPRESENTATION_RELATIONSHIP('SRR','None',#1411,#12);
#12=ADVANCED_BREP_SHAPE_REPRESENTATION('',(#14),#1403);
#13=STYLED_ITEM('',(#1420),#14);
#14=MANIFOLD_SOLID_BREP('\X2\BCF8CCB4\X0\1',#828);
#15=FACE_BOUND('',#115,.T.);
#16=FACE_BOUND('',#116,.T.);
#17=FACE_BOUND('',#117,.T.);
#18=FACE_BOUND('',#118,.T.);
#19=FACE_BOUND('',#127,.T.);
#20=FACE_BOUND('',#128,.T.);
#21=FACE_BOUND('',#129,.T.);
#22=FACE_BOUND('',#130,.T.);
#23=FACE_BOUND('',#131,.T.);
#24=FACE_BOUND('',#144,.T.);
#25=FACE_BOUND('',#145,.T.);
#26=FACE_BOUND('',#146,.T.);
#27=FACE_BOUND('',#147,.T.);
#28=FACE_BOUND('',#148,.T.);
#29=FACE_BOUND('',#158,.T.);
#30=FACE_BOUND('',#167,.T.);
#31=FACE_BOUND('',#168,.T.);
#32=FACE_BOUND('',#169,.T.);
#33=FACE_BOUND('',#170,.T.);
#34=FACE_BOUND('',#172,.T.);
#35=FACE_BOUND('',#173,.T.);
#36=FACE_BOUND('',#174,.T.);
#37=PLANE('',#857);
#38=PLANE('',#858);
#39=PLANE('',#872);
#40=PLANE('',#875);
#41=PLANE('',#878);
#42=PLANE('',#881);
#43=PLANE('',#884);
#44=PLANE('',#890);
#45=PLANE('',#893);
#46=PLANE('',#896);
#47=PLANE('',#899);
#48=PLANE('',#900);
#49=PLANE('',#901);
#50=PLANE('',#902);
#51=PLANE('',#903);
#52=PLANE('',#904);
#53=PLANE('',#905);
#54=PLANE('',#909);
#55=PLANE('',#913);
#56=PLANE('',#920);
#57=PLANE('',#921);
#58=PLANE('',#922);
#59=PLANE('',#923);
#60=PLANE('',#924);
#61=PLANE('',#925);
#62=PLANE('',#926);
#63=FACE_OUTER_BOUND('',#108,.T.);
#64=FACE_OUTER_BOUND('',#109,.T.);
#65=FACE_OUTER_BOUND('',#110,.T.);
#66=FACE_OUTER_BOUND('',#111,.T.);
#67=FACE_OUTER_BOUND('',#112,.T.);
#68=FACE_OUTER_BOUND('',#113,.T.);
#69=FACE_OUTER_BOUND('',#114,.T.);
#70=FACE_OUTER_BOUND('',#119,.T.);
#71=FACE_OUTER_BOUND('',#120,.T.);
#72=FACE_OUTER_BOUND('',#121,.T.);
#73=FACE_OUTER_BOUND('',#122,.T.);
#74=FACE_OUTER_BOUND('',#123,.T.);
#75=FACE_OUTER_BOUND('',#124,.T.);
#76=FACE_OUTER_BOUND('',#125,.T.);
#77=FACE_OUTER_BOUND('',#126,.T.);
#78=FACE_OUTER_BOUND('',#132,.T.);
#79=FACE_OUTER_BOUND('',#133,.T.);
#80=FACE_OUTER_BOUND('',#134,.T.);
#81=FACE_OUTER_BOUND('',#135,.T.);
#82=FACE_OUTER_BOUND('',#136,.T.);
#83=FACE_OUTER_BOUND('',#137,.T.);
#84=FACE_OUTER_BOUND('',#138,.T.);
#85=FACE_OUTER_BOUND('',#139,.T.);
#86=FACE_OUTER_BOUND('',#140,.T.);
#87=FACE_OUTER_BOUND('',#141,.T.);
#88=FACE_OUTER_BOUND('',#142,.T.);
#89=FACE_OUTER_BOUND('',#143,.T.);
#90=FACE_OUTER_BOUND('',#149,.T.);
#91=FACE_OUTER_BOUND('',#150,.T.);
#92=FACE_OUTER_BOUND('',#151,.T.);
#93=FACE_OUTER_BOUND('',#152,.T.);
#94=FACE_OUTER_BOUND('',#153,.T.);
#95=FACE_OUTER_BOUND('',#154,.T.);
#96=FACE_OUTER_BOUND('',#155,.T.);
#97=FACE_OUTER_BOUND('',#156,.T.);
#98=FACE_OUTER_BOUND('',#157,.T.);
#99=FACE_OUTER_BOUND('',#159,.T.);
#100=FACE_OUTER_BOUND('',#160,.T.);
#101=FACE_OUTER_BOUND('',#161,.T.);
#102=FACE_OUTER_BOUND('',#162,.T.);
#103=FACE_OUTER_BOUND('',#163,.T.);
#104=FACE_OUTER_BOUND('',#164,.T.);
#105=FACE_OUTER_BOUND('',#165,.T.);
#106=FACE_OUTER_BOUND('',#166,.T.);
#107=FACE_OUTER_BOUND('',#171,.T.);
#108=EDGE_LOOP('',(#542,#543,#544,#545));
#109=EDGE_LOOP('',(#546,#547,#548,#549));
#110=EDGE_LOOP('',(#550,#551,#552,#553));
#111=EDGE_LOOP('',(#554,#555,#556,#557));
#112=EDGE_LOOP('',(#558,#559,#560,#561));
#113=EDGE_LOOP('',(#562,#563,#564,#565));
#114=EDGE_LOOP('',(#566,#567,#568,#569,#570,#571,#572,#573,#574,#575,#576,
#577,#578,#579,#580,#581,#582,#583));
#115=EDGE_LOOP('',(#584));
#116=EDGE_LOOP('',(#585));
#117=EDGE_LOOP('',(#586));
#118=EDGE_LOOP('',(#587));
#119=EDGE_LOOP('',(#588,#589,#590,#591,#592,#593));
#120=EDGE_LOOP('',(#594,#595,#596,#597));
#121=EDGE_LOOP('',(#598,#599,#600,#601));
#122=EDGE_LOOP('',(#602,#603,#604,#605));
#123=EDGE_LOOP('',(#606,#607,#608,#609));
#124=EDGE_LOOP('',(#610,#611,#612,#613));
#125=EDGE_LOOP('',(#614,#615,#616,#617));
#126=EDGE_LOOP('',(#618,#619,#620,#621));
#127=EDGE_LOOP('',(#622));
#128=EDGE_LOOP('',(#623));
#129=EDGE_LOOP('',(#624));
#130=EDGE_LOOP('',(#625));
#131=EDGE_LOOP('',(#626));
#132=EDGE_LOOP('',(#627,#628,#629,#630));
#133=EDGE_LOOP('',(#631,#632,#633,#634));
#134=EDGE_LOOP('',(#635,#636,#637,#638,#639,#640));
#135=EDGE_LOOP('',(#641,#642,#643,#644));
#136=EDGE_LOOP('',(#645));
#137=EDGE_LOOP('',(#646,#647,#648,#649));
#138=EDGE_LOOP('',(#650));
#139=EDGE_LOOP('',(#651,#652,#653,#654));
#140=EDGE_LOOP('',(#655));
#141=EDGE_LOOP('',(#656,#657,#658,#659));
#142=EDGE_LOOP('',(#660));
#143=EDGE_LOOP('',(#661,#662,#663,#664));
#144=EDGE_LOOP('',(#665));
#145=EDGE_LOOP('',(#666));
#146=EDGE_LOOP('',(#667));
#147=EDGE_LOOP('',(#668));
#148=EDGE_LOOP('',(#669));
#149=EDGE_LOOP('',(#670,#671,#672,#673));
#150=EDGE_LOOP('',(#674,#675,#676,#677));
#151=EDGE_LOOP('',(#678,#679,#680,#681));
#152=EDGE_LOOP('',(#682,#683,#684,#685));
#153=EDGE_LOOP('',(#686,#687,#688,#689));
#154=EDGE_LOOP('',(#690,#691,#692,#693));
#155=EDGE_LOOP('',(#694));
#156=EDGE_LOOP('',(#695,#696,#697,#698));
#157=EDGE_LOOP('',(#699));
#158=EDGE_LOOP('',(#700));
#159=EDGE_LOOP('',(#701,#702,#703,#704));
#160=EDGE_LOOP('',(#705,#706,#707,#708));
#161=EDGE_LOOP('',(#709,#710,#711,#712));
#162=EDGE_LOOP('',(#713,#714,#715,#716));
#163=EDGE_LOOP('',(#717,#718,#719,#720));
#164=EDGE_LOOP('',(#721,#722,#723,#724));
#165=EDGE_LOOP('',(#725,#726,#727,#728));
#166=EDGE_LOOP('',(#729,#730,#731,#732,#733,#734,#735,#736,#737,#738,#739,
#740,#741,#742));
#167=EDGE_LOOP('',(#743));
#168=EDGE_LOOP('',(#744));
#169=EDGE_LOOP('',(#745));
#170=EDGE_LOOP('',(#746,#747,#748,#749));
#171=EDGE_LOOP('',(#750,#751,#752,#753,#754,#755,#756,#757));
#172=EDGE_LOOP('',(#758));
#173=EDGE_LOOP('',(#759));
#174=EDGE_LOOP('',(#760,#761,#762,#763));
#175=LINE('',#1175,#246);
#176=LINE('',#1181,#247);
#177=LINE('',#1187,#248);
#178=LINE('',#1193,#249);
#179=LINE('',#1199,#250);
#180=LINE('',#1204,#251);
#181=LINE('',#1206,#252);
#182=LINE('',#1208,#253);
#183=LINE('',#1209,#254);
#184=LINE('',#1215,#255);
#185=LINE('',#1217,#256);
#186=LINE('',#1219,#257);
#187=LINE('',#1223,#258);
#188=LINE('',#1225,#259);
#189=LINE('',#1227,#260);
#190=LINE('',#1231,#261);
#191=LINE('',#1233,#262);
#192=LINE('',#1235,#263);
#193=LINE('',#1239,#264);
#194=LINE('',#1243,#265);
#195=LINE('',#1246,#266);
#196=LINE('',#1257,#267);
#197=LINE('',#1261,#268);
#198=LINE('',#1264,#269);
#199=LINE('',#1265,#270);
#200=LINE('',#1268,#271);
#201=LINE('',#1271,#272);
#202=LINE('',#1274,#273);
#203=LINE('',#1275,#274);
#204=LINE('',#1278,#275);
#205=LINE('',#1281,#276);
#206=LINE('',#1284,#277);
#207=LINE('',#1285,#278);
#208=LINE('',#1288,#279);
#209=LINE('',#1291,#280);
#210=LINE('',#1294,#281);
#211=LINE('',#1295,#282);
#212=LINE('',#1298,#283);
#213=LINE('',#1301,#284);
#214=LINE('',#1304,#285);
#215=LINE('',#1308,#286);
#216=LINE('',#1311,#287);
#217=LINE('',#1316,#288);
#218=LINE('',#1321,#289);
#219=LINE('',#1326,#290);
#220=LINE('',#1331,#291);
#221=LINE('',#1332,#292);
#222=LINE('',#1334,#293);
#223=LINE('',#1337,#294);
#224=LINE('',#1338,#295);
#225=LINE('',#1340,#296);
#226=LINE('',#1343,#297);
#227=LINE('',#1344,#298);
#228=LINE('',#1346,#299);
#229=LINE('',#1351,#300);
#230=LINE('',#1358,#301);
#231=LINE('',#1365,#302);
#232=LINE('',#1371,#303);
#233=LINE('',#1376,#304);
#234=LINE('',#1378,#305);
#235=LINE('',#1380,#306);
#236=LINE('',#1381,#307);
#237=LINE('',#1384,#308);
#238=LINE('',#1386,#309);
#239=LINE('',#1387,#310);
#240=LINE('',#1390,#311);
#241=LINE('',#1392,#312);
#242=LINE('',#1393,#313);
#243=LINE('',#1395,#314);
#244=LINE('',#1396,#315);
#245=LINE('',#1398,#316);
#246=VECTOR('',#933,1.5);
#247=VECTOR('',#940,1.5);
#248=VECTOR('',#947,1.5);
#249=VECTOR('',#954,1.5);
#250=VECTOR('',#961,1.5);
#251=VECTOR('',#966,10.);
#252=VECTOR('',#967,10.);
#253=VECTOR('',#968,10.);
#254=VECTOR('',#969,10.);
#255=VECTOR('',#974,10.);
#256=VECTOR('',#975,10.);
#257=VECTOR('',#976,10.);
#258=VECTOR('',#979,10.);
#259=VECTOR('',#980,10.);
#260=VECTOR('',#981,10.);
#261=VECTOR('',#984,10.);
#262=VECTOR('',#985,10.);
#263=VECTOR('',#986,10.);
#264=VECTOR('',#989,10.);
#265=VECTOR('',#992,10.);
#266=VECTOR('',#995,10.);
#267=VECTOR('',#1006,10.);
#268=VECTOR('',#1011,10.);
#269=VECTOR('',#1014,10.);
#270=VECTOR('',#1015,10.);
#271=VECTOR('',#1018,10.);
#272=VECTOR('',#1021,10.);
#273=VECTOR('',#1024,10.);
#274=VECTOR('',#1025,10.);
#275=VECTOR('',#1028,10.);
#276=VECTOR('',#1031,10.);
#277=VECTOR('',#1034,10.);
#278=VECTOR('',#1035,10.);
#279=VECTOR('',#1038,10.);
#280=VECTOR('',#1041,10.);
#281=VECTOR('',#1044,10.);
#282=VECTOR('',#1045,10.);
#283=VECTOR('',#1048,10.);
#284=VECTOR('',#1053,10.);
#285=VECTOR('',#1056,10.);
#286=VECTOR('',#1061,10.);
#287=VECTOR('',#1064,0.95);
#288=VECTOR('',#1071,0.949999999999998);
#289=VECTOR('',#1078,0.95);
#290=VECTOR('',#1085,0.949999999999998);
#291=VECTOR('',#1092,10.);
#292=VECTOR('',#1093,10.);
#293=VECTOR('',#1096,10.);
#294=VECTOR('',#1099,10.);
#295=VECTOR('',#1100,10.);
#296=VECTOR('',#1103,10.);
#297=VECTOR('',#1106,10.);
#298=VECTOR('',#1107,10.);
#299=VECTOR('',#1110,10.);
#300=VECTOR('',#1115,2.3);
#301=VECTOR('',#1124,5.);
#302=VECTOR('',#1133,1.09999999999999);
#303=VECTOR('',#1140,1.1);
#304=VECTOR('',#1145,10.);
#305=VECTOR('',#1146,10.);
#306=VECTOR('',#1147,10.);
#307=VECTOR('',#1148,10.);
#308=VECTOR('',#1151,10.);
#309=VECTOR('',#1152,10.);
#310=VECTOR('',#1153,10.);
#311=VECTOR('',#1156,10.);
#312=VECTOR('',#1157,10.);
#313=VECTOR('',#1158,10.);
#314=VECTOR('',#1161,10.);
#315=VECTOR('',#1162,10.);
#316=VECTOR('',#1165,10.);
#317=CIRCLE('',#843,1.5);
#318=CIRCLE('',#844,1.5);
#319=CIRCLE('',#846,1.5);
#320=CIRCLE('',#847,1.5);
#321=CIRCLE('',#849,1.5);
#322=CIRCLE('',#850,1.5);
#323=CIRCLE('',#852,1.5);
#324=CIRCLE('',#853,1.5);
#325=CIRCLE('',#855,1.5);
#326=CIRCLE('',#856,1.5);
#327=CIRCLE('',#859,3.);
#328=CIRCLE('',#860,3.);
#329=CIRCLE('',#861,3.);
#330=CIRCLE('',#862,3.);
#331=CIRCLE('',#863,3.);
#332=CIRCLE('',#864,3.);
#333=CIRCLE('',#865,0.95);
#334=CIRCLE('',#866,0.949999999999998);
#335=CIRCLE('',#867,0.95);
#336=CIRCLE('',#868,0.949999999999998);
#337=CIRCLE('',#870,3.);
#338=CIRCLE('',#871,3.);
#339=CIRCLE('',#874,3.);
#340=CIRCLE('',#877,3.);
#341=CIRCLE('',#880,3.);
#342=CIRCLE('',#883,3.);
#343=CIRCLE('',#886,3.);
#344=CIRCLE('',#887,3.);
#345=CIRCLE('',#889,0.95);
#346=CIRCLE('',#892,0.949999999999998);
#347=CIRCLE('',#895,0.95);
#348=CIRCLE('',#898,0.949999999999998);
#349=CIRCLE('',#907,2.3);
#350=CIRCLE('',#908,2.3);
#351=CIRCLE('',#911,5.);
#352=CIRCLE('',#912,5.);
#353=CIRCLE('',#915,1.09999999999999);
#354=CIRCLE('',#916,1.09999999999999);
#355=CIRCLE('',#918,1.1);
#356=CIRCLE('',#919,1.1);
#357=VERTEX_POINT('',#1172);
#358=VERTEX_POINT('',#1174);
#359=VERTEX_POINT('',#1178);
#360=VERTEX_POINT('',#1180);
#361=VERTEX_POINT('',#1184);
#362=VERTEX_POINT('',#1186);
#363=VERTEX_POINT('',#1190);
#364=VERTEX_POINT('',#1192);
#365=VERTEX_POINT('',#1196);
#366=VERTEX_POINT('',#1198);
#367=VERTEX_POINT('',#1202);
#368=VERTEX_POINT('',#1203);
#369=VERTEX_POINT('',#1205);
#370=VERTEX_POINT('',#1207);
#371=VERTEX_POINT('',#1211);
#372=VERTEX_POINT('',#1212);
#373=VERTEX_POINT('',#1214);
#374=VERTEX_POINT('',#1216);
#375=VERTEX_POINT('',#1218);
#376=VERTEX_POINT('',#1220);
#377=VERTEX_POINT('',#1222);
#378=VERTEX_POINT('',#1224);
#379=VERTEX_POINT('',#1226);
#380=VERTEX_POINT('',#1228);
#381=VERTEX_POINT('',#1230);
#382=VERTEX_POINT('',#1232);
#383=VERTEX_POINT('',#1234);
#384=VERTEX_POINT('',#1236);
#385=VERTEX_POINT('',#1238);
#386=VERTEX_POINT('',#1240);
#387=VERTEX_POINT('',#1242);
#388=VERTEX_POINT('',#1244);
#389=VERTEX_POINT('',#1247);
#390=VERTEX_POINT('',#1249);
#391=VERTEX_POINT('',#1251);
#392=VERTEX_POINT('',#1253);
#393=VERTEX_POINT('',#1256);
#394=VERTEX_POINT('',#1259);
#395=VERTEX_POINT('',#1263);
#396=VERTEX_POINT('',#1267);
#397=VERTEX_POINT('',#1269);
#398=VERTEX_POINT('',#1273);
#399=VERTEX_POINT('',#1277);
#400=VERTEX_POINT('',#1279);
#401=VERTEX_POINT('',#1283);
#402=VERTEX_POINT('',#1287);
#403=VERTEX_POINT('',#1289);
#404=VERTEX_POINT('',#1293);
#405=VERTEX_POINT('',#1297);
#406=VERTEX_POINT('',#1303);
#407=VERTEX_POINT('',#1306);
#408=VERTEX_POINT('',#1310);
#409=VERTEX_POINT('',#1315);
#410=VERTEX_POINT('',#1320);
#411=VERTEX_POINT('',#1325);
#412=VERTEX_POINT('',#1330);
#413=VERTEX_POINT('',#1336);
#414=VERTEX_POINT('',#1342);
#415=VERTEX_POINT('',#1348);
#416=VERTEX_POINT('',#1350);
#417=VERTEX_POINT('',#1355);
#418=VERTEX_POINT('',#1357);
#419=VERTEX_POINT('',#1362);
#420=VERTEX_POINT('',#1364);
#421=VERTEX_POINT('',#1368);
#422=VERTEX_POINT('',#1370);
#423=VERTEX_POINT('',#1374);
#424=VERTEX_POINT('',#1375);
#425=VERTEX_POINT('',#1377);
#426=VERTEX_POINT('',#1379);
#427=VERTEX_POINT('',#1383);
#428=VERTEX_POINT('',#1385);
#429=VERTEX_POINT('',#1389);
#430=VERTEX_POINT('',#1391);
#431=EDGE_CURVE('',#357,#357,#317,.T.);
#432=EDGE_CURVE('',#357,#358,#175,.T.);
#433=EDGE_CURVE('',#358,#358,#318,.T.);
#434=EDGE_CURVE('',#359,#359,#319,.T.);
#435=EDGE_CURVE('',#359,#360,#176,.T.);
#436=EDGE_CURVE('',#360,#360,#320,.T.);
#437=EDGE_CURVE('',#361,#361,#321,.T.);
#438=EDGE_CURVE('',#361,#362,#177,.T.);
#439=EDGE_CURVE('',#362,#362,#322,.T.);
#440=EDGE_CURVE('',#363,#363,#323,.T.);
#441=EDGE_CURVE('',#363,#364,#178,.T.);
#442=EDGE_CURVE('',#364,#364,#324,.T.);
#443=EDGE_CURVE('',#365,#365,#325,.T.);
#444=EDGE_CURVE('',#365,#366,#179,.T.);
#445=EDGE_CURVE('',#366,#366,#326,.T.);
#446=EDGE_CURVE('',#367,#368,#180,.T.);
#447=EDGE_CURVE('',#369,#367,#181,.T.);
#448=EDGE_CURVE('',#369,#370,#182,.T.);
#449=EDGE_CURVE('',#368,#370,#183,.T.);
#450=EDGE_CURVE('',#371,#372,#327,.T.);
#451=EDGE_CURVE('',#371,#373,#184,.T.);
#452=EDGE_CURVE('',#373,#374,#185,.T.);
#453=EDGE_CURVE('',#374,#375,#186,.T.);
#454=EDGE_CURVE('',#376,#375,#328,.T.);
#455=EDGE_CURVE('',#376,#377,#187,.T.);
#456=EDGE_CURVE('',#377,#378,#188,.T.);
#457=EDGE_CURVE('',#378,#379,#189,.T.);
#458=EDGE_CURVE('',#380,#379,#329,.T.);
#459=EDGE_CURVE('',#380,#381,#190,.T.);
#460=EDGE_CURVE('',#381,#382,#191,.T.);
#461=EDGE_CURVE('',#382,#383,#192,.T.);
#462=EDGE_CURVE('',#384,#383,#330,.T.);
#463=EDGE_CURVE('',#384,#385,#193,.T.);
#464=EDGE_CURVE('',#386,#385,#331,.T.);
#465=EDGE_CURVE('',#386,#387,#194,.T.);
#466=EDGE_CURVE('',#388,#387,#332,.T.);
#467=EDGE_CURVE('',#388,#372,#195,.T.);
#468=EDGE_CURVE('',#389,#389,#333,.T.);
#469=EDGE_CURVE('',#390,#390,#334,.T.);
#470=EDGE_CURVE('',#391,#391,#335,.T.);
#471=EDGE_CURVE('',#392,#392,#336,.T.);
#472=EDGE_CURVE('',#383,#393,#196,.T.);
#473=EDGE_CURVE('',#393,#368,#337,.F.);
#474=EDGE_CURVE('',#370,#394,#338,.T.);
#475=EDGE_CURVE('',#394,#384,#197,.T.);
#476=EDGE_CURVE('',#395,#382,#198,.T.);
#477=EDGE_CURVE('',#393,#395,#199,.T.);
#478=EDGE_CURVE('',#375,#396,#200,.T.);
#479=EDGE_CURVE('',#396,#397,#339,.F.);
#480=EDGE_CURVE('',#397,#376,#201,.T.);
#481=EDGE_CURVE('',#398,#374,#202,.T.);
#482=EDGE_CURVE('',#396,#398,#203,.T.);
#483=EDGE_CURVE('',#379,#399,#204,.T.);
#484=EDGE_CURVE('',#399,#400,#340,.F.);
#485=EDGE_CURVE('',#400,#380,#205,.T.);
#486=EDGE_CURVE('',#401,#378,#206,.T.);
#487=EDGE_CURVE('',#399,#401,#207,.T.);
#488=EDGE_CURVE('',#387,#402,#208,.T.);
#489=EDGE_CURVE('',#402,#403,#341,.T.);
#490=EDGE_CURVE('',#403,#388,#209,.T.);
#491=EDGE_CURVE('',#404,#386,#210,.T.);
#492=EDGE_CURVE('',#404,#402,#211,.T.);
#493=EDGE_CURVE('',#385,#405,#212,.T.);
#494=EDGE_CURVE('',#405,#404,#342,.T.);
#495=EDGE_CURVE('',#394,#405,#213,.T.);
#496=EDGE_CURVE('',#372,#406,#214,.T.);
#497=EDGE_CURVE('',#406,#369,#343,.T.);
#498=EDGE_CURVE('',#367,#407,#344,.F.);
#499=EDGE_CURVE('',#407,#371,#215,.T.);
#500=EDGE_CURVE('',#389,#408,#216,.T.);
#501=EDGE_CURVE('',#408,#408,#345,.T.);
#502=EDGE_CURVE('',#390,#409,#217,.T.);
#503=EDGE_CURVE('',#409,#409,#346,.T.);
#504=EDGE_CURVE('',#391,#410,#218,.T.);
#505=EDGE_CURVE('',#410,#410,#347,.T.);
#506=EDGE_CURVE('',#392,#411,#219,.T.);
#507=EDGE_CURVE('',#411,#411,#348,.T.);
#508=EDGE_CURVE('',#401,#412,#220,.T.);
#509=EDGE_CURVE('',#412,#377,#221,.T.);
#510=EDGE_CURVE('',#412,#397,#222,.T.);
#511=EDGE_CURVE('',#398,#413,#223,.T.);
#512=EDGE_CURVE('',#413,#373,#224,.T.);
#513=EDGE_CURVE('',#413,#407,#225,.T.);
#514=EDGE_CURVE('',#395,#414,#226,.T.);
#515=EDGE_CURVE('',#414,#381,#227,.T.);
#516=EDGE_CURVE('',#414,#400,#228,.T.);
#517=EDGE_CURVE('',#415,#415,#349,.T.);
#518=EDGE_CURVE('',#415,#416,#229,.T.);
#519=EDGE_CURVE('',#416,#416,#350,.T.);
#520=EDGE_CURVE('',#417,#417,#351,.T.);
#521=EDGE_CURVE('',#417,#418,#230,.T.);
#522=EDGE_CURVE('',#418,#418,#352,.T.);
#523=EDGE_CURVE('',#419,#419,#353,.T.);
#524=EDGE_CURVE('',#419,#420,#231,.T.);
#525=EDGE_CURVE('',#420,#420,#354,.T.);
#526=EDGE_CURVE('',#421,#421,#355,.T.);
#527=EDGE_CURVE('',#421,#422,#232,.T.);
#528=EDGE_CURVE('',#422,#422,#356,.T.);
#529=EDGE_CURVE('',#423,#424,#233,.T.);
#530=EDGE_CURVE('',#423,#425,#234,.T.);
#531=EDGE_CURVE('',#426,#425,#235,.T.);
#532=EDGE_CURVE('',#424,#426,#236,.T.);
#533=EDGE_CURVE('',#427,#423,#237,.T.);
#534=EDGE_CURVE('',#427,#428,#238,.T.);
#535=EDGE_CURVE('',#425,#428,#239,.T.);
#536=EDGE_CURVE('',#429,#427,#240,.T.);
#537=EDGE_CURVE('',#429,#430,#241,.T.);
#538=EDGE_CURVE('',#428,#430,#242,.T.);
#539=EDGE_CURVE('',#424,#429,#243,.T.);
#540=EDGE_CURVE('',#430,#426,#244,.T.);
#541=EDGE_CURVE('',#403,#406,#245,.T.);
#542=ORIENTED_EDGE('',*,*,#431,.F.);
#543=ORIENTED_EDGE('',*,*,#432,.T.);
#544=ORIENTED_EDGE('',*,*,#433,.F.);
#545=ORIENTED_EDGE('',*,*,#432,.F.);
#546=ORIENTED_EDGE('',*,*,#434,.F.);
#547=ORIENTED_EDGE('',*,*,#435,.T.);
#548=ORIENTED_EDGE('',*,*,#436,.F.);
#549=ORIENTED_EDGE('',*,*,#435,.F.);
#550=ORIENTED_EDGE('',*,*,#437,.F.);
#551=ORIENTED_EDGE('',*,*,#438,.T.);
#552=ORIENTED_EDGE('',*,*,#439,.F.);
#553=ORIENTED_EDGE('',*,*,#438,.F.);
#554=ORIENTED_EDGE('',*,*,#440,.F.);
#555=ORIENTED_EDGE('',*,*,#441,.T.);
#556=ORIENTED_EDGE('',*,*,#442,.F.);
#557=ORIENTED_EDGE('',*,*,#441,.F.);
#558=ORIENTED_EDGE('',*,*,#443,.F.);
#559=ORIENTED_EDGE('',*,*,#444,.T.);
#560=ORIENTED_EDGE('',*,*,#445,.F.);
#561=ORIENTED_EDGE('',*,*,#444,.F.);
#562=ORIENTED_EDGE('',*,*,#446,.F.);
#563=ORIENTED_EDGE('',*,*,#447,.F.);
#564=ORIENTED_EDGE('',*,*,#448,.T.);
#565=ORIENTED_EDGE('',*,*,#449,.F.);
#566=ORIENTED_EDGE('',*,*,#450,.F.);
#567=ORIENTED_EDGE('',*,*,#451,.T.);
#568=ORIENTED_EDGE('',*,*,#452,.T.);
#569=ORIENTED_EDGE('',*,*,#453,.T.);
#570=ORIENTED_EDGE('',*,*,#454,.F.);
#571=ORIENTED_EDGE('',*,*,#455,.T.);
#572=ORIENTED_EDGE('',*,*,#456,.T.);
#573=ORIENTED_EDGE('',*,*,#457,.T.);
#574=ORIENTED_EDGE('',*,*,#458,.F.);
#575=ORIENTED_EDGE('',*,*,#459,.T.);
#576=ORIENTED_EDGE('',*,*,#460,.T.);
#577=ORIENTED_EDGE('',*,*,#461,.T.);
#578=ORIENTED_EDGE('',*,*,#462,.F.);
#579=ORIENTED_EDGE('',*,*,#463,.T.);
#580=ORIENTED_EDGE('',*,*,#464,.F.);
#581=ORIENTED_EDGE('',*,*,#465,.T.);
#582=ORIENTED_EDGE('',*,*,#466,.F.);
#583=ORIENTED_EDGE('',*,*,#467,.T.);
#584=ORIENTED_EDGE('',*,*,#468,.T.);
#585=ORIENTED_EDGE('',*,*,#469,.T.);
#586=ORIENTED_EDGE('',*,*,#470,.T.);
#587=ORIENTED_EDGE('',*,*,#471,.T.);
#588=ORIENTED_EDGE('',*,*,#462,.T.);
#589=ORIENTED_EDGE('',*,*,#472,.T.);
#590=ORIENTED_EDGE('',*,*,#473,.T.);
#591=ORIENTED_EDGE('',*,*,#449,.T.);
#592=ORIENTED_EDGE('',*,*,#474,.T.);
#593=ORIENTED_EDGE('',*,*,#475,.T.);
#594=ORIENTED_EDGE('',*,*,#472,.F.);
#595=ORIENTED_EDGE('',*,*,#461,.F.);
#596=ORIENTED_EDGE('',*,*,#476,.F.);
#597=ORIENTED_EDGE('',*,*,#477,.F.);
#598=ORIENTED_EDGE('',*,*,#454,.T.);
#599=ORIENTED_EDGE('',*,*,#478,.T.);
#600=ORIENTED_EDGE('',*,*,#479,.T.);
#601=ORIENTED_EDGE('',*,*,#480,.T.);
#602=ORIENTED_EDGE('',*,*,#478,.F.);
#603=ORIENTED_EDGE('',*,*,#453,.F.);
#604=ORIENTED_EDGE('',*,*,#481,.F.);
#605=ORIENTED_EDGE('',*,*,#482,.F.);
#606=ORIENTED_EDGE('',*,*,#458,.T.);
#607=ORIENTED_EDGE('',*,*,#483,.T.);
#608=ORIENTED_EDGE('',*,*,#484,.T.);
#609=ORIENTED_EDGE('',*,*,#485,.T.);
#610=ORIENTED_EDGE('',*,*,#483,.F.);
#611=ORIENTED_EDGE('',*,*,#457,.F.);
#612=ORIENTED_EDGE('',*,*,#486,.F.);
#613=ORIENTED_EDGE('',*,*,#487,.F.);
#614=ORIENTED_EDGE('',*,*,#466,.T.);
#615=ORIENTED_EDGE('',*,*,#488,.T.);
#616=ORIENTED_EDGE('',*,*,#489,.T.);
#617=ORIENTED_EDGE('',*,*,#490,.T.);
#618=ORIENTED_EDGE('',*,*,#488,.F.);
#619=ORIENTED_EDGE('',*,*,#465,.F.);
#620=ORIENTED_EDGE('',*,*,#491,.F.);
#621=ORIENTED_EDGE('',*,*,#492,.T.);
#622=ORIENTED_EDGE('',*,*,#431,.T.);
#623=ORIENTED_EDGE('',*,*,#434,.T.);
#624=ORIENTED_EDGE('',*,*,#437,.T.);
#625=ORIENTED_EDGE('',*,*,#440,.T.);
#626=ORIENTED_EDGE('',*,*,#443,.T.);
#627=ORIENTED_EDGE('',*,*,#464,.T.);
#628=ORIENTED_EDGE('',*,*,#493,.T.);
#629=ORIENTED_EDGE('',*,*,#494,.T.);
#630=ORIENTED_EDGE('',*,*,#491,.T.);
#631=ORIENTED_EDGE('',*,*,#493,.F.);
#632=ORIENTED_EDGE('',*,*,#463,.F.);
#633=ORIENTED_EDGE('',*,*,#475,.F.);
#634=ORIENTED_EDGE('',*,*,#495,.T.);
#635=ORIENTED_EDGE('',*,*,#450,.T.);
#636=ORIENTED_EDGE('',*,*,#496,.T.);
#637=ORIENTED_EDGE('',*,*,#497,.T.);
#638=ORIENTED_EDGE('',*,*,#447,.T.);
#639=ORIENTED_EDGE('',*,*,#498,.T.);
#640=ORIENTED_EDGE('',*,*,#499,.T.);
#641=ORIENTED_EDGE('',*,*,#468,.F.);
#642=ORIENTED_EDGE('',*,*,#500,.T.);
#643=ORIENTED_EDGE('',*,*,#501,.T.);
#644=ORIENTED_EDGE('',*,*,#500,.F.);
#645=ORIENTED_EDGE('',*,*,#501,.F.);
#646=ORIENTED_EDGE('',*,*,#469,.F.);
#647=ORIENTED_EDGE('',*,*,#502,.T.);
#648=ORIENTED_EDGE('',*,*,#503,.T.);
#649=ORIENTED_EDGE('',*,*,#502,.F.);
#650=ORIENTED_EDGE('',*,*,#503,.F.);
#651=ORIENTED_EDGE('',*,*,#470,.F.);
#652=ORIENTED_EDGE('',*,*,#504,.T.);
#653=ORIENTED_EDGE('',*,*,#505,.T.);
#654=ORIENTED_EDGE('',*,*,#504,.F.);
#655=ORIENTED_EDGE('',*,*,#505,.F.);
#656=ORIENTED_EDGE('',*,*,#471,.F.);
#657=ORIENTED_EDGE('',*,*,#506,.T.);
#658=ORIENTED_EDGE('',*,*,#507,.T.);
#659=ORIENTED_EDGE('',*,*,#506,.F.);
#660=ORIENTED_EDGE('',*,*,#507,.F.);
#661=ORIENTED_EDGE('',*,*,#508,.F.);
#662=ORIENTED_EDGE('',*,*,#486,.T.);
#663=ORIENTED_EDGE('',*,*,#456,.F.);
#664=ORIENTED_EDGE('',*,*,#509,.F.);
#665=ORIENTED_EDGE('',*,*,#433,.T.);
#666=ORIENTED_EDGE('',*,*,#436,.T.);
#667=ORIENTED_EDGE('',*,*,#439,.T.);
#668=ORIENTED_EDGE('',*,*,#442,.T.);
#669=ORIENTED_EDGE('',*,*,#445,.T.);
#670=ORIENTED_EDGE('',*,*,#480,.F.);
#671=ORIENTED_EDGE('',*,*,#510,.F.);
#672=ORIENTED_EDGE('',*,*,#509,.T.);
#673=ORIENTED_EDGE('',*,*,#455,.F.);
#674=ORIENTED_EDGE('',*,*,#511,.F.);
#675=ORIENTED_EDGE('',*,*,#481,.T.);
#676=ORIENTED_EDGE('',*,*,#452,.F.);
#677=ORIENTED_EDGE('',*,*,#512,.F.);
#678=ORIENTED_EDGE('',*,*,#499,.F.);
#679=ORIENTED_EDGE('',*,*,#513,.F.);
#680=ORIENTED_EDGE('',*,*,#512,.T.);
#681=ORIENTED_EDGE('',*,*,#451,.F.);
#682=ORIENTED_EDGE('',*,*,#514,.F.);
#683=ORIENTED_EDGE('',*,*,#476,.T.);
#684=ORIENTED_EDGE('',*,*,#460,.F.);
#685=ORIENTED_EDGE('',*,*,#515,.F.);
#686=ORIENTED_EDGE('',*,*,#485,.F.);
#687=ORIENTED_EDGE('',*,*,#516,.F.);
#688=ORIENTED_EDGE('',*,*,#515,.T.);
#689=ORIENTED_EDGE('',*,*,#459,.F.);
#690=ORIENTED_EDGE('',*,*,#517,.F.);
#691=ORIENTED_EDGE('',*,*,#518,.T.);
#692=ORIENTED_EDGE('',*,*,#519,.F.);
#693=ORIENTED_EDGE('',*,*,#518,.F.);
#694=ORIENTED_EDGE('',*,*,#517,.T.);
#695=ORIENTED_EDGE('',*,*,#520,.F.);
#696=ORIENTED_EDGE('',*,*,#521,.T.);
#697=ORIENTED_EDGE('',*,*,#522,.F.);
#698=ORIENTED_EDGE('',*,*,#521,.F.);
#699=ORIENTED_EDGE('',*,*,#520,.T.);
#700=ORIENTED_EDGE('',*,*,#519,.T.);
#701=ORIENTED_EDGE('',*,*,#523,.F.);
#702=ORIENTED_EDGE('',*,*,#524,.T.);
#703=ORIENTED_EDGE('',*,*,#525,.F.);
#704=ORIENTED_EDGE('',*,*,#524,.F.);
#705=ORIENTED_EDGE('',*,*,#526,.F.);
#706=ORIENTED_EDGE('',*,*,#527,.T.);
#707=ORIENTED_EDGE('',*,*,#528,.F.);
#708=ORIENTED_EDGE('',*,*,#527,.F.);
#709=ORIENTED_EDGE('',*,*,#529,.F.);
#710=ORIENTED_EDGE('',*,*,#530,.T.);
#711=ORIENTED_EDGE('',*,*,#531,.F.);
#712=ORIENTED_EDGE('',*,*,#532,.F.);
#713=ORIENTED_EDGE('',*,*,#533,.F.);
#714=ORIENTED_EDGE('',*,*,#534,.T.);
#715=ORIENTED_EDGE('',*,*,#535,.F.);
#716=ORIENTED_EDGE('',*,*,#530,.F.);
#717=ORIENTED_EDGE('',*,*,#536,.F.);
#718=ORIENTED_EDGE('',*,*,#537,.T.);
#719=ORIENTED_EDGE('',*,*,#538,.F.);
#720=ORIENTED_EDGE('',*,*,#534,.F.);
#721=ORIENTED_EDGE('',*,*,#539,.F.);
#722=ORIENTED_EDGE('',*,*,#532,.T.);
#723=ORIENTED_EDGE('',*,*,#540,.F.);
#724=ORIENTED_EDGE('',*,*,#537,.F.);
#725=ORIENTED_EDGE('',*,*,#490,.F.);
#726=ORIENTED_EDGE('',*,*,#541,.T.);
#727=ORIENTED_EDGE('',*,*,#496,.F.);
#728=ORIENTED_EDGE('',*,*,#467,.F.);
#729=ORIENTED_EDGE('',*,*,#446,.T.);
#730=ORIENTED_EDGE('',*,*,#473,.F.);
#731=ORIENTED_EDGE('',*,*,#477,.T.);
#732=ORIENTED_EDGE('',*,*,#514,.T.);
#733=ORIENTED_EDGE('',*,*,#516,.T.);
#734=ORIENTED_EDGE('',*,*,#484,.F.);
#735=ORIENTED_EDGE('',*,*,#487,.T.);
#736=ORIENTED_EDGE('',*,*,#508,.T.);
#737=ORIENTED_EDGE('',*,*,#510,.T.);
#738=ORIENTED_EDGE('',*,*,#479,.F.);
#739=ORIENTED_EDGE('',*,*,#482,.T.);
#740=ORIENTED_EDGE('',*,*,#511,.T.);
#741=ORIENTED_EDGE('',*,*,#513,.T.);
#742=ORIENTED_EDGE('',*,*,#498,.F.);
#743=ORIENTED_EDGE('',*,*,#522,.T.);
#744=ORIENTED_EDGE('',*,*,#523,.T.);
#745=ORIENTED_EDGE('',*,*,#526,.T.);
#746=ORIENTED_EDGE('',*,*,#529,.T.);
#747=ORIENTED_EDGE('',*,*,#539,.T.);
#748=ORIENTED_EDGE('',*,*,#536,.T.);
#749=ORIENTED_EDGE('',*,*,#533,.T.);
#750=ORIENTED_EDGE('',*,*,#489,.F.);
#751=ORIENTED_EDGE('',*,*,#492,.F.);
#752=ORIENTED_EDGE('',*,*,#494,.F.);
#753=ORIENTED_EDGE('',*,*,#495,.F.);
#754=ORIENTED_EDGE('',*,*,#474,.F.);
#755=ORIENTED_EDGE('',*,*,#448,.F.);
#756=ORIENTED_EDGE('',*,*,#497,.F.);
#757=ORIENTED_EDGE('',*,*,#541,.F.);
#758=ORIENTED_EDGE('',*,*,#525,.T.);
#759=ORIENTED_EDGE('',*,*,#528,.T.);
#760=ORIENTED_EDGE('',*,*,#531,.T.);
#761=ORIENTED_EDGE('',*,*,#535,.T.);
#762=ORIENTED_EDGE('',*,*,#538,.T.);
#763=ORIENTED_EDGE('',*,*,#540,.T.);
#764=CYLINDRICAL_SURFACE('',#842,1.5);
#765=CYLINDRICAL_SURFACE('',#845,1.5);
#766=CYLINDRICAL_SURFACE('',#848,1.5);
#767=CYLINDRICAL_SURFACE('',#851,1.5);
#768=CYLINDRICAL_SURFACE('',#854,1.5);
#769=CYLINDRICAL_SURFACE('',#869,3.);
#770=CYLINDRICAL_SURFACE('',#873,3.);
#771=CYLINDRICAL_SURFACE('',#876,3.);
#772=CYLINDRICAL_SURFACE('',#879,3.);
#773=CYLINDRICAL_SURFACE('',#882,3.);
#774=CYLINDRICAL_SURFACE('',#885,3.);
#775=CYLINDRICAL_SURFACE('',#888,0.95);
#776=CYLINDRICAL_SURFACE('',#891,0.949999999999998);
#777=CYLINDRICAL_SURFACE('',#894,0.95);
#778=CYLINDRICAL_SURFACE('',#897,0.949999999999998);
#779=CYLINDRICAL_SURFACE('',#906,2.3);
#780=CYLINDRICAL_SURFACE('',#910,5.);
#781=CYLINDRICAL_SURFACE('',#914,1.09999999999999);
#782=CYLINDRICAL_SURFACE('',#917,1.1);
#783=ADVANCED_FACE('',(#63),#764,.F.);
#784=ADVANCED_FACE('',(#64),#765,.F.);
#785=ADVANCED_FACE('',(#65),#766,.F.);
#786=ADVANCED_FACE('',(#66),#767,.F.);
#787=ADVANCED_FACE('',(#67),#768,.F.);
#788=ADVANCED_FACE('',(#68),#37,.T.);
#789=ADVANCED_FACE('',(#69,#15,#16,#17,#18),#38,.T.);
#790=ADVANCED_FACE('',(#70),#769,.T.);
#791=ADVANCED_FACE('',(#71),#39,.T.);
#792=ADVANCED_FACE('',(#72),#770,.T.);
#793=ADVANCED_FACE('',(#73),#40,.T.);
#794=ADVANCED_FACE('',(#74),#771,.T.);
#795=ADVANCED_FACE('',(#75),#41,.T.);
#796=ADVANCED_FACE('',(#76),#772,.T.);
#797=ADVANCED_FACE('',(#77,#19,#20,#21,#22,#23),#42,.T.);
#798=ADVANCED_FACE('',(#78),#773,.T.);
#799=ADVANCED_FACE('',(#79),#43,.T.);
#800=ADVANCED_FACE('',(#80),#774,.T.);
#801=ADVANCED_FACE('',(#81),#775,.F.);
#802=ADVANCED_FACE('',(#82),#44,.T.);
#803=ADVANCED_FACE('',(#83),#776,.F.);
#804=ADVANCED_FACE('',(#84),#45,.T.);
#805=ADVANCED_FACE('',(#85),#777,.F.);
#806=ADVANCED_FACE('',(#86),#46,.T.);
#807=ADVANCED_FACE('',(#87),#778,.F.);
#808=ADVANCED_FACE('',(#88),#47,.T.);
#809=ADVANCED_FACE('',(#89,#24,#25,#26,#27,#28),#48,.T.);
#810=ADVANCED_FACE('',(#90),#49,.T.);
#811=ADVANCED_FACE('',(#91),#50,.T.);
#812=ADVANCED_FACE('',(#92),#51,.T.);
#813=ADVANCED_FACE('',(#93),#52,.T.);
#814=ADVANCED_FACE('',(#94),#53,.T.);
#815=ADVANCED_FACE('',(#95),#779,.T.);
#816=ADVANCED_FACE('',(#96),#54,.T.);
#817=ADVANCED_FACE('',(#97),#780,.T.);
#818=ADVANCED_FACE('',(#98,#29),#55,.T.);
#819=ADVANCED_FACE('',(#99),#781,.F.);
#820=ADVANCED_FACE('',(#100),#782,.F.);
#821=ADVANCED_FACE('',(#101),#56,.F.);
#822=ADVANCED_FACE('',(#102),#57,.F.);
#823=ADVANCED_FACE('',(#103),#58,.F.);
#824=ADVANCED_FACE('',(#104),#59,.F.);
#825=ADVANCED_FACE('',(#105),#60,.T.);
#826=ADVANCED_FACE('',(#106,#30,#31,#32,#33),#61,.T.);
#827=ADVANCED_FACE('',(#107,#34,#35,#36),#62,.F.);
#828=CLOSED_SHELL('',(#783,#784,#785,#786,#787,#788,#789,#790,#791,#792,
#793,#794,#795,#796,#797,#798,#799,#800,#801,#802,#803,#804,#805,#806,#807,
#808,#809,#810,#811,#812,#813,#814,#815,#816,#817,#818,#819,#820,#821,#822,
#823,#824,#825,#826,#827));
#829=DERIVED_UNIT_ELEMENT(#831,1.);
#830=DERIVED_UNIT_ELEMENT(#1406,-3.);
#831=(
MASS_UNIT()
NAMED_UNIT(*)
SI_UNIT(.KILO.,.GRAM.)
);
#832=DERIVED_UNIT((#829,#830));
#833=MEASURE_REPRESENTATION_ITEM('density measure',
POSITIVE_RATIO_MEASURE(7850.),#832);
#834=PROPERTY_DEFINITION_REPRESENTATION(#839,#836);
#835=PROPERTY_DEFINITION_REPRESENTATION(#840,#837);
#836=REPRESENTATION('material name',(#838),#1403);
#837=REPRESENTATION('density',(#833),#1403);
#838=DESCRIPTIVE_REPRESENTATION_ITEM('\X2\AC15CCA0\X0\','\X2\AC15CCA0\X0\');
#839=PROPERTY_DEFINITION('material property','material name',#1413);
#840=PROPERTY_DEFINITION('material property','density of part',#1413);
#841=AXIS2_PLACEMENT_3D('',#1170,#927,#928);
#842=AXIS2_PLACEMENT_3D('',#1171,#929,#930);
#843=AXIS2_PLACEMENT_3D('',#1173,#931,#932);
#844=AXIS2_PLACEMENT_3D('',#1176,#934,#935);
#845=AXIS2_PLACEMENT_3D('',#1177,#936,#937);
#846=AXIS2_PLACEMENT_3D('',#1179,#938,#939);
#847=AXIS2_PLACEMENT_3D('',#1182,#941,#942);
#848=AXIS2_PLACEMENT_3D('',#1183,#943,#944);
#849=AXIS2_PLACEMENT_3D('',#1185,#945,#946);
#850=AXIS2_PLACEMENT_3D('',#1188,#948,#949);
#851=AXIS2_PLACEMENT_3D('',#1189,#950,#951);
#852=AXIS2_PLACEMENT_3D('',#1191,#952,#953);
#853=AXIS2_PLACEMENT_3D('',#1194,#955,#956);
#854=AXIS2_PLACEMENT_3D('',#1195,#957,#958);
#855=AXIS2_PLACEMENT_3D('',#1197,#959,#960);
#856=AXIS2_PLACEMENT_3D('',#1200,#962,#963);
#857=AXIS2_PLACEMENT_3D('',#1201,#964,#965);
#858=AXIS2_PLACEMENT_3D('',#1210,#970,#971);
#859=AXIS2_PLACEMENT_3D('',#1213,#972,#973);
#860=AXIS2_PLACEMENT_3D('',#1221,#977,#978);
#861=AXIS2_PLACEMENT_3D('',#1229,#982,#983);
#862=AXIS2_PLACEMENT_3D('',#1237,#987,#988);
#863=AXIS2_PLACEMENT_3D('',#1241,#990,#991);
#864=AXIS2_PLACEMENT_3D('',#1245,#993,#994);
#865=AXIS2_PLACEMENT_3D('',#1248,#996,#997);
#866=AXIS2_PLACEMENT_3D('',#1250,#998,#999);
#867=AXIS2_PLACEMENT_3D('',#1252,#1000,#1001);
#868=AXIS2_PLACEMENT_3D('',#1254,#1002,#1003);
#869=AXIS2_PLACEMENT_3D('',#1255,#1004,#1005);
#870=AXIS2_PLACEMENT_3D('',#1258,#1007,#1008);
#871=AXIS2_PLACEMENT_3D('',#1260,#1009,#1010);
#872=AXIS2_PLACEMENT_3D('',#1262,#1012,#1013);
#873=AXIS2_PLACEMENT_3D('',#1266,#1016,#1017);
#874=AXIS2_PLACEMENT_3D('',#1270,#1019,#1020);
#875=AXIS2_PLACEMENT_3D('',#1272,#1022,#1023);
#876=AXIS2_PLACEMENT_3D('',#1276,#1026,#1027);
#877=AXIS2_PLACEMENT_3D('',#1280,#1029,#1030);
#878=AXIS2_PLACEMENT_3D('',#1282,#1032,#1033);
#879=AXIS2_PLACEMENT_3D('',#1286,#1036,#1037);
#880=AXIS2_PLACEMENT_3D('',#1290,#1039,#1040);
#881=AXIS2_PLACEMENT_3D('',#1292,#1042,#1043);
#882=AXIS2_PLACEMENT_3D('',#1296,#1046,#1047);
#883=AXIS2_PLACEMENT_3D('',#1299,#1049,#1050);
#884=AXIS2_PLACEMENT_3D('',#1300,#1051,#1052);
#885=AXIS2_PLACEMENT_3D('',#1302,#1054,#1055);
#886=AXIS2_PLACEMENT_3D('',#1305,#1057,#1058);
#887=AXIS2_PLACEMENT_3D('',#1307,#1059,#1060);
#888=AXIS2_PLACEMENT_3D('',#1309,#1062,#1063);
#889=AXIS2_PLACEMENT_3D('',#1312,#1065,#1066);
#890=AXIS2_PLACEMENT_3D('',#1313,#1067,#1068);
#891=AXIS2_PLACEMENT_3D('',#1314,#1069,#1070);
#892=AXIS2_PLACEMENT_3D('',#1317,#1072,#1073);
#893=AXIS2_PLACEMENT_3D('',#1318,#1074,#1075);
#894=AXIS2_PLACEMENT_3D('',#1319,#1076,#1077);
#895=AXIS2_PLACEMENT_3D('',#1322,#1079,#1080);
#896=AXIS2_PLACEMENT_3D('',#1323,#1081,#1082);
#897=AXIS2_PLACEMENT_3D('',#1324,#1083,#1084);
#898=AXIS2_PLACEMENT_3D('',#1327,#1086,#1087);
#899=AXIS2_PLACEMENT_3D('',#1328,#1088,#1089);
#900=AXIS2_PLACEMENT_3D('',#1329,#1090,#1091);
#901=AXIS2_PLACEMENT_3D('',#1333,#1094,#1095);
#902=AXIS2_PLACEMENT_3D('',#1335,#1097,#1098);
#903=AXIS2_PLACEMENT_3D('',#1339,#1101,#1102);
#904=AXIS2_PLACEMENT_3D('',#1341,#1104,#1105);
#905=AXIS2_PLACEMENT_3D('',#1345,#1108,#1109);
#906=AXIS2_PLACEMENT_3D('',#1347,#1111,#1112);
#907=AXIS2_PLACEMENT_3D('',#1349,#1113,#1114);
#908=AXIS2_PLACEMENT_3D('',#1352,#1116,#1117);
#909=AXIS2_PLACEMENT_3D('',#1353,#1118,#1119);
#910=AXIS2_PLACEMENT_3D('',#1354,#1120,#1121);
#911=AXIS2_PLACEMENT_3D('',#1356,#1122,#1123);
#912=AXIS2_PLACEMENT_3D('',#1359,#1125,#1126);
#913=AXIS2_PLACEMENT_3D('',#1360,#1127,#1128);
#914=AXIS2_PLACEMENT_3D('',#1361,#1129,#1130);
#915=AXIS2_PLACEMENT_3D('',#1363,#1131,#1132);
#916=AXIS2_PLACEMENT_3D('',#1366,#1134,#1135);
#917=AXIS2_PLACEMENT_3D('',#1367,#1136,#1137);
#918=AXIS2_PLACEMENT_3D('',#1369,#1138,#1139);
#919=AXIS2_PLACEMENT_3D('',#1372,#1141,#1142);
#920=AXIS2_PLACEMENT_3D('',#1373,#1143,#1144);
#921=AXIS2_PLACEMENT_3D('',#1382,#1149,#1150);
#922=AXIS2_PLACEMENT_3D('',#1388,#1154,#1155);
#923=AXIS2_PLACEMENT_3D('',#1394,#1159,#1160);
#924=AXIS2_PLACEMENT_3D('',#1397,#1163,#1164);
#925=AXIS2_PLACEMENT_3D('',#1399,#1166,#1167);
#926=AXIS2_PLACEMENT_3D('',#1400,#1168,#1169);
#927=DIRECTION('axis',(0.,0.,1.));
#928=DIRECTION('refdir',(1.,0.,0.));
#929=DIRECTION('center_axis',(0.,-1.,0.));
#930=DIRECTION('ref_axis',(-1.,0.,0.));
#931=DIRECTION('center_axis',(0.,-1.,0.));
#932=DIRECTION('ref_axis',(-1.,0.,0.));
#933=DIRECTION('',(0.,-1.,0.));
#934=DIRECTION('center_axis',(0.,1.,0.));
#935=DIRECTION('ref_axis',(-1.,0.,0.));
#936=DIRECTION('center_axis',(0.,-1.,0.));
#937=DIRECTION('ref_axis',(-1.,0.,0.));
#938=DIRECTION('center_axis',(0.,-1.,0.));
#939=DIRECTION('ref_axis',(-1.,0.,0.));
#940=DIRECTION('',(0.,-1.,0.));
#941=DIRECTION('center_axis',(0.,1.,0.));
#942=DIRECTION('ref_axis',(-1.,0.,0.));
#943=DIRECTION('center_axis',(0.,-1.,0.));
#944=DIRECTION('ref_axis',(-1.,0.,0.));
#945=DIRECTION('center_axis',(0.,-1.,0.));
#946=DIRECTION('ref_axis',(-1.,0.,0.));
#947=DIRECTION('',(0.,-1.,0.));
#948=DIRECTION('center_axis',(0.,1.,0.));
#949=DIRECTION('ref_axis',(-1.,0.,0.));
#950=DIRECTION('center_axis',(0.,-1.,0.));
#951=DIRECTION('ref_axis',(-1.,0.,0.));
#952=DIRECTION('center_axis',(0.,-1.,0.));
#953=DIRECTION('ref_axis',(-1.,0.,0.));
#954=DIRECTION('',(0.,-1.,0.));
#955=DIRECTION('center_axis',(0.,1.,0.));
#956=DIRECTION('ref_axis',(-1.,0.,0.));
#957=DIRECTION('center_axis',(0.,-1.,0.));
#958=DIRECTION('ref_axis',(-1.,0.,0.));
#959=DIRECTION('center_axis',(0.,-1.,0.));
#960=DIRECTION('ref_axis',(-1.,0.,0.));
#961=DIRECTION('',(0.,-1.,0.));
#962=DIRECTION('center_axis',(0.,1.,0.));
#963=DIRECTION('ref_axis',(-1.,0.,0.));
#964=DIRECTION('center_axis',(0.,-1.,0.));
#965=DIRECTION('ref_axis',(1.,0.,0.));
#966=DIRECTION('',(1.,0.,0.));
#967=DIRECTION('',(0.,0.,1.));
#968=DIRECTION('',(1.,0.,0.));
#969=DIRECTION('',(0.,0.,-1.));
#970=DIRECTION('center_axis',(0.,0.,1.));
#971=DIRECTION('ref_axis',(1.,0.,0.));
#972=DIRECTION('center_axis',(0.,0.,-1.));
#973=DIRECTION('ref_axis',(0.707106781186548,0.707106781186548,0.));
#974=DIRECTION('',(-1.,0.,0.));
#975=DIRECTION('',(0.,1.,0.));
#976=DIRECTION('',(1.,0.,0.));
#977=DIRECTION('center_axis',(0.,0.,-1.));
#978=DIRECTION('ref_axis',(0.707106781186547,-0.707106781186548,0.));
#979=DIRECTION('',(0.,1.,0.));
#980=DIRECTION('',(1.,0.,0.));
#981=DIRECTION('',(-4.44089209850063E-15,-1.,0.));
#982=DIRECTION('center_axis',(0.,0.,-1.));
#983=DIRECTION('ref_axis',(-0.707106781186548,-0.707106781186548,0.));
#984=DIRECTION('',(1.,0.,0.));
#985=DIRECTION('',(9.86864910777917E-16,-1.,0.));
#986=DIRECTION('',(-1.,0.,0.));
#987=DIRECTION('center_axis',(0.,0.,-1.));
#988=DIRECTION('ref_axis',(0.707106781186546,-0.707106781186549,0.));
#989=DIRECTION('',(0.,1.,0.));
#990=DIRECTION('center_axis',(0.,0.,-1.));
#991=DIRECTION('ref_axis',(0.707106781186549,0.707106781186546,0.));
#992=DIRECTION('',(-1.,0.,0.));
#993=DIRECTION('center_axis',(0.,0.,-1.));
#994=DIRECTION('ref_axis',(-0.707106781186548,0.707106781186547,0.));
#995=DIRECTION('',(-1.64346021921044E-32,-1.,0.));
#996=DIRECTION('center_axis',(0.,0.,-1.));
#997=DIRECTION('ref_axis',(-1.,0.,0.));
#998=DIRECTION('center_axis',(0.,0.,-1.));
#999=DIRECTION('ref_axis',(-1.,0.,0.));
#1000=DIRECTION('center_axis',(0.,0.,-1.));
#1001=DIRECTION('ref_axis',(-1.,0.,0.));
#1002=DIRECTION('center_axis',(0.,0.,-1.));
#1003=DIRECTION('ref_axis',(-1.,0.,0.));
#1004=DIRECTION('center_axis',(0.,0.,1.));
#1005=DIRECTION('ref_axis',(-0.707106781186548,-0.707106781186547,0.));
#1006=DIRECTION('',(0.,0.,-1.));
#1007=DIRECTION('center_axis',(0.,0.,-1.));
#1008=DIRECTION('ref_axis',(-0.707106781186546,0.707106781186549,0.));
#1009=DIRECTION('center_axis',(0.,0.,1.));
#1010=DIRECTION('ref_axis',(0.707106781186546,-0.707106781186549,0.));
#1011=DIRECTION('',(0.,0.,1.));
#1012=DIRECTION('center_axis',(0.,1.,0.));
#1013=DIRECTION('ref_axis',(-1.,0.,0.));
#1014=DIRECTION('',(0.,0.,1.));
#1015=DIRECTION('',(1.,0.,0.));
#1016=DIRECTION('center_axis',(0.,0.,1.));
#1017=DIRECTION('ref_axis',(0.707106781186547,-0.707106781186548,0.));
#1018=DIRECTION('',(0.,0.,-1.));
#1019=DIRECTION('center_axis',(0.,0.,-1.));
#1020=DIRECTION('ref_axis',(0.707106781186547,-0.707106781186548,0.));
#1021=DIRECTION('',(0.,0.,1.));
#1022=DIRECTION('center_axis',(0.,-1.,0.));
#1023=DIRECTION('ref_axis',(1.,0.,0.));
#1024=DIRECTION('',(0.,0.,1.));
#1025=DIRECTION('',(-1.,0.,0.));
#1026=DIRECTION('center_axis',(0.,0.,1.));
#1027=DIRECTION('ref_axis',(-0.707106781186548,-0.707106781186548,0.));
#1028=DIRECTION('',(0.,0.,-1.));
#1029=DIRECTION('center_axis',(0.,0.,-1.));
#1030=DIRECTION('ref_axis',(-0.707106781186548,-0.707106781186548,0.));
#1031=DIRECTION('',(0.,0.,1.));
#1032=DIRECTION('center_axis',(-1.,4.44089209850063E-15,0.));
#1033=DIRECTION('ref_axis',(-4.44089209850063E-15,-1.,0.));
#1034=DIRECTION('',(0.,0.,1.));
#1035=DIRECTION('',(4.44089209850063E-15,1.,0.));
#1036=DIRECTION('center_axis',(0.,0.,1.));
#1037=DIRECTION('ref_axis',(-0.707106781186548,0.707106781186547,0.));
#1038=DIRECTION('',(0.,0.,-1.));
#1039=DIRECTION('center_axis',(0.,0.,1.));
#1040=DIRECTION('ref_axis',(-0.707106781186548,0.707106781186547,0.));
#1041=DIRECTION('',(0.,0.,1.));
#1042=DIRECTION('center_axis',(0.,1.,0.));
#1043=DIRECTION('ref_axis',(-1.,0.,0.));
#1044=DIRECTION('',(0.,0.,1.));
#1045=DIRECTION('',(-1.,0.,0.));
#1046=DIRECTION('center_axis',(0.,0.,1.));
#1047=DIRECTION('ref_axis',(0.707106781186549,0.707106781186546,0.));
#1048=DIRECTION('',(0.,0.,-1.));
#1049=DIRECTION('center_axis',(0.,0.,1.));
#1050=DIRECTION('ref_axis',(0.707106781186549,0.707106781186546,0.));
#1051=DIRECTION('center_axis',(1.,0.,0.));
#1052=DIRECTION('ref_axis',(0.,1.,0.));
#1053=DIRECTION('',(0.,1.,0.));
#1054=DIRECTION('center_axis',(0.,0.,1.));
#1055=DIRECTION('ref_axis',(0.707106781186548,-0.707106781186548,0.));
#1056=DIRECTION('',(0.,0.,-1.));
#1057=DIRECTION('center_axis',(0.,0.,1.));
#1058=DIRECTION('ref_axis',(-0.707106781186548,-0.707106781186548,0.));
#1059=DIRECTION('center_axis',(0.,0.,-1.));
#1060=DIRECTION('ref_axis',(0.707106781186548,-0.707106781186548,0.));
#1061=DIRECTION('',(0.,0.,1.));
#1062=DIRECTION('center_axis',(0.,0.,-1.));
#1063=DIRECTION('ref_axis',(-1.,0.,0.));
#1064=DIRECTION('',(0.,0.,-1.));
#1065=DIRECTION('center_axis',(0.,0.,-1.));
#1066=DIRECTION('ref_axis',(-1.,0.,0.));
#1067=DIRECTION('center_axis',(0.,0.,1.));
#1068=DIRECTION('ref_axis',(-1.,0.,0.));
#1069=DIRECTION('center_axis',(0.,0.,-1.));
#1070=DIRECTION('ref_axis',(-1.,0.,0.));
#1071=DIRECTION('',(0.,0.,-1.));
#1072=DIRECTION('center_axis',(0.,0.,-1.));
#1073=DIRECTION('ref_axis',(-1.,0.,0.));
#1074=DIRECTION('center_axis',(0.,0.,1.));
#1075=DIRECTION('ref_axis',(-1.,0.,0.));
#1076=DIRECTION('center_axis',(0.,0.,-1.));
#1077=DIRECTION('ref_axis',(-1.,0.,0.));
#1078=DIRECTION('',(0.,0.,-1.));
#1079=DIRECTION('center_axis',(0.,0.,-1.));
#1080=DIRECTION('ref_axis',(-1.,0.,0.));
#1081=DIRECTION('center_axis',(0.,0.,1.));
#1082=DIRECTION('ref_axis',(-1.,0.,0.));
#1083=DIRECTION('center_axis',(0.,0.,-1.));
#1084=DIRECTION('ref_axis',(-1.,0.,0.));
#1085=DIRECTION('',(0.,0.,-1.));
#1086=DIRECTION('center_axis',(0.,0.,-1.));
#1087=DIRECTION('ref_axis',(-1.,0.,0.));
#1088=DIRECTION('center_axis',(0.,0.,1.));
#1089=DIRECTION('ref_axis',(-1.,0.,0.));
#1090=DIRECTION('center_axis',(0.,-1.,0.));
#1091=DIRECTION('ref_axis',(1.,0.,0.));
#1092=DIRECTION('',(-1.,0.,0.));
#1093=DIRECTION('',(0.,0.,1.));
#1094=DIRECTION('center_axis',(1.,0.,0.));
#1095=DIRECTION('ref_axis',(0.,1.,0.));
#1096=DIRECTION('',(0.,-1.,0.));
#1097=DIRECTION('center_axis',(1.,0.,0.));
#1098=DIRECTION('ref_axis',(0.,1.,0.));
#1099=DIRECTION('',(0.,-1.,0.));
#1100=DIRECTION('',(0.,0.,1.));
#1101=DIRECTION('center_axis',(0.,1.,0.));
#1102=DIRECTION('ref_axis',(-1.,0.,0.));
#1103=DIRECTION('',(1.,0.,0.));
#1104=DIRECTION('center_axis',(-1.,-9.86864910777917E-16,0.));
#1105=DIRECTION('ref_axis',(9.86864910777917E-16,-1.,0.));
#1106=DIRECTION('',(-9.86864910777917E-16,1.,0.));
#1107=DIRECTION('',(0.,0.,1.));
#1108=DIRECTION('center_axis',(0.,-1.,0.));
#1109=DIRECTION('ref_axis',(1.,0.,0.));
#1110=DIRECTION('',(-1.,0.,0.));
#1111=DIRECTION('center_axis',(0.,0.,1.));
#1112=DIRECTION('ref_axis',(-1.,0.,0.));
#1113=DIRECTION('center_axis',(0.,0.,1.));
#1114=DIRECTION('ref_axis',(-1.,0.,0.));
#1115=DIRECTION('',(0.,0.,-1.));
#1116=DIRECTION('center_axis',(0.,0.,-1.));
#1117=DIRECTION('ref_axis',(-1.,0.,0.));
#1118=DIRECTION('center_axis',(0.,0.,1.));
#1119=DIRECTION('ref_axis',(-1.,0.,0.));
#1120=DIRECTION('center_axis',(0.,0.,1.));
#1121=DIRECTION('ref_axis',(-1.,0.,0.));
#1122=DIRECTION('center_axis',(0.,0.,1.));
#1123=DIRECTION('ref_axis',(-1.,0.,0.));
#1124=DIRECTION('',(0.,0.,-1.));
#1125=DIRECTION('center_axis',(0.,0.,-1.));
#1126=DIRECTION('ref_axis',(-1.,0.,0.));
#1127=DIRECTION('center_axis',(0.,0.,1.));
#1128=DIRECTION('ref_axis',(-1.,0.,0.));
#1129=DIRECTION('center_axis',(0.,0.,-1.));
#1130=DIRECTION('ref_axis',(-1.,0.,0.));
#1131=DIRECTION('center_axis',(0.,0.,-1.));
#1132=DIRECTION('ref_axis',(-1.,0.,0.));
#1133=DIRECTION('',(0.,0.,-1.));
#1134=DIRECTION('center_axis',(0.,0.,1.));
#1135=DIRECTION('ref_axis',(-1.,0.,0.));
#1136=DIRECTION('center_axis',(0.,0.,-1.));
#1137=DIRECTION('ref_axis',(-1.,0.,0.));
#1138=DIRECTION('center_axis',(0.,0.,-1.));
#1139=DIRECTION('ref_axis',(-1.,0.,0.));
#1140=DIRECTION('',(0.,0.,-1.));
#1141=DIRECTION('center_axis',(0.,0.,1.));
#1142=DIRECTION('ref_axis',(-1.,0.,0.));
#1143=DIRECTION('center_axis',(-1.,0.,0.));
#1144=DIRECTION('ref_axis',(0.,1.,0.));
#1145=DIRECTION('',(0.,1.,0.));
#1146=DIRECTION('',(0.,0.,-1.));
#1147=DIRECTION('',(0.,-1.,0.));
#1148=DIRECTION('',(0.,0.,-1.));
#1149=DIRECTION('center_axis',(7.24058494320754E-17,-1.,0.));
#1150=DIRECTION('ref_axis',(-1.,-7.24058494320754E-17,0.));
#1151=DIRECTION('',(-1.,-7.24058494320754E-17,0.));
#1152=DIRECTION('',(0.,0.,-1.));
#1153=DIRECTION('',(1.,7.24058494320754E-17,0.));
#1154=DIRECTION('center_axis',(1.,0.,0.));
#1155=DIRECTION('ref_axis',(0.,-1.,0.));
#1156=DIRECTION('',(0.,-1.,0.));
#1157=DIRECTION('',(0.,0.,-1.));
#1158=DIRECTION('',(0.,1.,0.));
#1159=DIRECTION('center_axis',(0.,1.,0.));
#1160=DIRECTION('ref_axis',(1.,0.,0.));
#1161=DIRECTION('',(1.,0.,0.));
#1162=DIRECTION('',(-1.,0.,0.));
#1163=DIRECTION('center_axis',(-1.,1.64346021921044E-32,0.));
#1164=DIRECTION('ref_axis',(-1.64346021921044E-32,-1.,0.));
#1165=DIRECTION('',(-1.64346021921044E-32,-1.,0.));
#1166=DIRECTION('center_axis',(0.,0.,1.));
#1167=DIRECTION('ref_axis',(1.,0.,0.));
#1168=DIRECTION('center_axis',(0.,0.,1.));
#1169=DIRECTION('ref_axis',(1.,0.,0.));
#1170=CARTESIAN_POINT('',(0.,0.,0.));
#1171=CARTESIAN_POINT('Origin',(10.,30.,8.00000013245477));
#1172=CARTESIAN_POINT('',(11.5,30.,8.00000013245477));
#1173=CARTESIAN_POINT('Origin',(10.,30.,8.00000013245477));
#1174=CARTESIAN_POINT('',(11.5,28.,8.00000013245477));
#1175=CARTESIAN_POINT('',(11.5,30.,8.00000013245477));
#1176=CARTESIAN_POINT('Origin',(10.,28.,8.00000013245477));
#1177=CARTESIAN_POINT('Origin',(30.,30.,8.));
#1178=CARTESIAN_POINT('',(31.5,30.,8.));
#1179=CARTESIAN_POINT('Origin',(30.,30.,8.));
#1180=CARTESIAN_POINT('',(31.5,28.,8.));
#1181=CARTESIAN_POINT('',(31.5,30.,8.));
#1182=CARTESIAN_POINT('Origin',(30.,28.,8.));
#1183=CARTESIAN_POINT('Origin',(40.0000005960464,30.,8.00000011920929));
#1184=CARTESIAN_POINT('',(41.5000005960464,30.,8.00000011920929));
#1185=CARTESIAN_POINT('Origin',(40.0000005960464,30.,8.00000011920929));
#1186=CARTESIAN_POINT('',(41.5000005960464,28.,8.00000011920929));
#1187=CARTESIAN_POINT('',(41.5000005960464,30.,8.00000011920929));
#1188=CARTESIAN_POINT('Origin',(40.0000005960464,28.,8.00000011920929));
#1189=CARTESIAN_POINT('Origin',(50.,30.,8.));
#1190=CARTESIAN_POINT('',(51.5,30.,8.));
#1191=CARTESIAN_POINT('Origin',(50.,30.,8.));
#1192=CARTESIAN_POINT('',(51.5,28.,8.));
#1193=CARTESIAN_POINT('',(51.5,30.,8.));
#1194=CARTESIAN_POINT('Origin',(50.,28.,8.));
#1195=CARTESIAN_POINT('Origin',(20.0000002980232,30.,8.00000011920929));
#1196=CARTESIAN_POINT('',(21.5000002980232,30.,8.00000011920929));
#1197=CARTESIAN_POINT('Origin',(20.0000002980232,30.,8.00000011920929));
#1198=CARTESIAN_POINT('',(21.5000002980232,28.,8.00000011920929));
#1199=CARTESIAN_POINT('',(21.5000002980232,30.,8.00000011920929));
#1200=CARTESIAN_POINT('Origin',(20.0000002980232,28.,8.00000011920929));
#1201=CARTESIAN_POINT('Origin',(0.,0.,0.));
#1202=CARTESIAN_POINT('',(3.,0.,2.));
#1203=CARTESIAN_POINT('',(57.,0.,2.));
#1204=CARTESIAN_POINT('',(0.,0.,2.));
#1205=CARTESIAN_POINT('',(3.,0.,0.));
#1206=CARTESIAN_POINT('',(3.,0.,0.));
#1207=CARTESIAN_POINT('',(57.,0.,0.));
#1208=CARTESIAN_POINT('',(0.,0.,0.));
#1209=CARTESIAN_POINT('',(57.,0.,0.));
#1210=CARTESIAN_POINT('Origin',(30.,15.,14.));
#1211=CARTESIAN_POINT('',(3.,6.,14.));
#1212=CARTESIAN_POINT('',(4.93038065763132E-32,3.,14.));
#1213=CARTESIAN_POINT('Origin',(3.,3.,14.));
#1214=CARTESIAN_POINT('',(2.,6.,14.));
#1215=CARTESIAN_POINT('',(2.,6.,14.));
#1216=CARTESIAN_POINT('',(2.,24.,14.));
#1217=CARTESIAN_POINT('',(2.,24.,14.));
#1218=CARTESIAN_POINT('',(3.,24.,14.));
#1219=CARTESIAN_POINT('',(2.,24.,14.));
#1220=CARTESIAN_POINT('',(6.,27.,14.));
#1221=CARTESIAN_POINT('Origin',(3.,27.,14.));
#1222=CARTESIAN_POINT('',(6.,28.,14.));
#1223=CARTESIAN_POINT('',(6.,24.,14.));
#1224=CARTESIAN_POINT('',(54.,28.,14.));
#1225=CARTESIAN_POINT('',(54.,28.,14.));
#1226=CARTESIAN_POINT('',(54.,27.,14.));
#1227=CARTESIAN_POINT('',(54.,28.,14.));
#1228=CARTESIAN_POINT('',(57.,24.,14.));
#1229=CARTESIAN_POINT('Origin',(57.,27.,14.));
#1230=CARTESIAN_POINT('',(58.,24.,14.));
#1231=CARTESIAN_POINT('',(54.,24.,14.));
#1232=CARTESIAN_POINT('',(58.,6.,14.));
#1233=CARTESIAN_POINT('',(58.,24.,14.));
#1234=CARTESIAN_POINT('',(57.,6.,14.));
#1235=CARTESIAN_POINT('',(58.,6.,14.));
#1236=CARTESIAN_POINT('',(60.,3.,14.));
#1237=CARTESIAN_POINT('Origin',(57.,3.,14.));
#1238=CARTESIAN_POINT('',(60.,27.,14.));
#1239=CARTESIAN_POINT('',(60.,30.,14.));
#1240=CARTESIAN_POINT('',(57.,30.,14.));
#1241=CARTESIAN_POINT('Origin',(57.,27.,14.));
#1242=CARTESIAN_POINT('',(3.00000000000001,30.,14.));
#1243=CARTESIAN_POINT('',(60.,30.,14.));
#1244=CARTESIAN_POINT('',(4.43734259186819E-31,27.,14.));
#1245=CARTESIAN_POINT('Origin',(3.,27.,14.));
#1246=CARTESIAN_POINT('',(0.,0.,14.));
#1247=CARTESIAN_POINT('',(3.95,3.,14.));
#1248=CARTESIAN_POINT('Origin',(3.,3.,14.));
#1249=CARTESIAN_POINT('',(57.95,3.,14.));
#1250=CARTESIAN_POINT('Origin',(57.,3.,14.));
#1251=CARTESIAN_POINT('',(3.95,27.0000004023314,14.));
#1252=CARTESIAN_POINT('Origin',(3.,27.0000004023314,14.));
#1253=CARTESIAN_POINT('',(57.95,27.0000004023314,14.));
#1254=CARTESIAN_POINT('Origin',(57.,27.0000004023314,14.));
#1255=CARTESIAN_POINT('Origin',(57.,3.,2.));
#1256=CARTESIAN_POINT('',(57.,6.,2.));
#1257=CARTESIAN_POINT('',(57.,6.,2.));
#1258=CARTESIAN_POINT('Origin',(57.,3.,2.));
#1259=CARTESIAN_POINT('',(60.,3.,0.));
#1260=CARTESIAN_POINT('Origin',(57.,3.,0.));
#1261=CARTESIAN_POINT('',(60.,3.,0.));
#1262=CARTESIAN_POINT('Origin',(58.,6.,2.));
#1263=CARTESIAN_POINT('',(58.,6.,2.));
#1264=CARTESIAN_POINT('',(58.,6.,2.));
#1265=CARTESIAN_POINT('',(44.,6.,2.));
#1266=CARTESIAN_POINT('Origin',(3.,27.,2.));
#1267=CARTESIAN_POINT('',(3.,24.,2.));
#1268=CARTESIAN_POINT('',(3.,24.,2.));
#1269=CARTESIAN_POINT('',(6.,27.,2.));
#1270=CARTESIAN_POINT('Origin',(3.,27.,2.));
#1271=CARTESIAN_POINT('',(6.,27.,2.));
#1272=CARTESIAN_POINT('Origin',(2.,24.,2.));
#1273=CARTESIAN_POINT('',(2.,24.,2.));
#1274=CARTESIAN_POINT('',(2.,24.,2.));
#1275=CARTESIAN_POINT('',(16.,24.,2.));
#1276=CARTESIAN_POINT('Origin',(57.,27.,2.));
#1277=CARTESIAN_POINT('',(54.,27.,2.));
#1278=CARTESIAN_POINT('',(54.,27.,2.));
#1279=CARTESIAN_POINT('',(57.,24.,2.));
#1280=CARTESIAN_POINT('Origin',(57.,27.,2.));
#1281=CARTESIAN_POINT('',(57.,24.,2.));
#1282=CARTESIAN_POINT('Origin',(54.,28.,2.));
#1283=CARTESIAN_POINT('',(54.,28.,2.));
#1284=CARTESIAN_POINT('',(54.,28.,2.));
#1285=CARTESIAN_POINT('',(54.,21.4999999999999,2.));
#1286=CARTESIAN_POINT('Origin',(3.,27.,0.));
#1287=CARTESIAN_POINT('',(3.00000000000001,30.,0.));
#1288=CARTESIAN_POINT('',(3.,30.,0.));
#1289=CARTESIAN_POINT('',(4.43734259186819E-31,27.,0.));
#1290=CARTESIAN_POINT('Origin',(3.,27.,0.));
#1291=CARTESIAN_POINT('',(0.,27.,0.));
#1292=CARTESIAN_POINT('Origin',(60.,30.,0.));
#1293=CARTESIAN_POINT('',(57.,30.,0.));
#1294=CARTESIAN_POINT('',(57.,30.,0.));
#1295=CARTESIAN_POINT('',(60.,30.,0.));
#1296=CARTESIAN_POINT('Origin',(57.,27.,0.));
#1297=CARTESIAN_POINT('',(60.,27.,0.));
#1298=CARTESIAN_POINT('',(60.,27.,0.));
#1299=CARTESIAN_POINT('Origin',(57.,27.,0.));
#1300=CARTESIAN_POINT('Origin',(60.,0.,0.));
#1301=CARTESIAN_POINT('',(60.,0.,0.));
#1302=CARTESIAN_POINT('Origin',(3.,3.,0.));
#1303=CARTESIAN_POINT('',(4.93038065763132E-32,3.,0.));
#1304=CARTESIAN_POINT('',(0.,3.,0.));
#1305=CARTESIAN_POINT('Origin',(3.,3.,0.));
#1306=CARTESIAN_POINT('',(3.,6.,2.));
#1307=CARTESIAN_POINT('Origin',(3.,3.,2.));
#1308=CARTESIAN_POINT('',(3.,6.,2.));
#1309=CARTESIAN_POINT('Origin',(3.,3.,14.));
#1310=CARTESIAN_POINT('',(3.95,3.,9.));
#1311=CARTESIAN_POINT('',(3.95,3.,14.));
#1312=CARTESIAN_POINT('Origin',(3.,3.,9.));
#1313=CARTESIAN_POINT('Origin',(3.,3.,9.));
#1314=CARTESIAN_POINT('Origin',(57.,3.,14.));
#1315=CARTESIAN_POINT('',(57.95,3.,9.));
#1316=CARTESIAN_POINT('',(57.95,3.,14.));
#1317=CARTESIAN_POINT('Origin',(57.,3.,9.));
#1318=CARTESIAN_POINT('Origin',(57.,3.,9.));
#1319=CARTESIAN_POINT('Origin',(3.,27.0000004023314,14.));
#1320=CARTESIAN_POINT('',(3.95,27.0000004023314,9.));
#1321=CARTESIAN_POINT('',(3.95,27.0000004023314,14.));
#1322=CARTESIAN_POINT('Origin',(3.,27.0000004023314,9.));
#1323=CARTESIAN_POINT('Origin',(3.,27.0000004023314,9.));
#1324=CARTESIAN_POINT('Origin',(57.,27.0000004023314,14.));
#1325=CARTESIAN_POINT('',(57.95,27.0000004023314,9.));
#1326=CARTESIAN_POINT('',(57.95,27.0000004023314,14.));
#1327=CARTESIAN_POINT('Origin',(57.,27.0000004023314,9.));
#1328=CARTESIAN_POINT('Origin',(57.,27.0000004023314,9.));
#1329=CARTESIAN_POINT('Origin',(6.,28.,2.));
#1330=CARTESIAN_POINT('',(6.,28.,2.));
#1331=CARTESIAN_POINT('',(18.,28.,2.));
#1332=CARTESIAN_POINT('',(6.,28.,2.));
#1333=CARTESIAN_POINT('Origin',(6.,24.,2.));
#1334=CARTESIAN_POINT('',(6.,19.5,2.));
#1335=CARTESIAN_POINT('Origin',(2.,6.,2.));
#1336=CARTESIAN_POINT('',(2.,6.,2.));
#1337=CARTESIAN_POINT('',(2.,10.5,2.));
#1338=CARTESIAN_POINT('',(2.,6.,2.));
#1339=CARTESIAN_POINT('Origin',(6.,6.,2.));
#1340=CARTESIAN_POINT('',(18.,6.,2.));
#1341=CARTESIAN_POINT('Origin',(58.,24.,2.));
#1342=CARTESIAN_POINT('',(58.,24.,2.));
#1343=CARTESIAN_POINT('',(58.,19.5,2.));
#1344=CARTESIAN_POINT('',(58.,24.,2.));
#1345=CARTESIAN_POINT('Origin',(54.,24.,2.));
#1346=CARTESIAN_POINT('',(42.,24.,2.));
#1347=CARTESIAN_POINT('Origin',(15.,8.1,11.));
#1348=CARTESIAN_POINT('',(17.3,8.1,13.));
#1349=CARTESIAN_POINT('Origin',(15.,8.1,13.));
#1350=CARTESIAN_POINT('',(17.3,8.1,11.));
#1351=CARTESIAN_POINT('',(17.3,8.1,11.));
#1352=CARTESIAN_POINT('Origin',(15.,8.1,11.));
#1353=CARTESIAN_POINT('Origin',(15.,8.1,13.));
#1354=CARTESIAN_POINT('Origin',(15.,8.1,2.));
#1355=CARTESIAN_POINT('',(20.,8.1,11.));
#1356=CARTESIAN_POINT('Origin',(15.,8.1,11.));
#1357=CARTESIAN_POINT('',(20.,8.1,2.));
#1358=CARTESIAN_POINT('',(20.,8.1,2.));
#1359=CARTESIAN_POINT('Origin',(15.,8.1,2.));
#1360=CARTESIAN_POINT('Origin',(15.,8.1,11.));
#1361=CARTESIAN_POINT('Origin',(53.75,8.1,2.));
#1362=CARTESIAN_POINT('',(54.85,8.1,2.));
#1363=CARTESIAN_POINT('Origin',(53.75,8.1,2.));
#1364=CARTESIAN_POINT('',(54.85,8.1,0.));
#1365=CARTESIAN_POINT('',(54.85,8.1,2.));
#1366=CARTESIAN_POINT('Origin',(53.75,8.1,0.));
#1367=CARTESIAN_POINT('Origin',(25.95,8.1,2.));
#1368=CARTESIAN_POINT('',(27.05,8.1,2.));
#1369=CARTESIAN_POINT('Origin',(25.95,8.1,2.));
#1370=CARTESIAN_POINT('',(27.05,8.1,0.));
#1371=CARTESIAN_POINT('',(27.05,8.1,2.));
#1372=CARTESIAN_POINT('Origin',(25.95,8.1,0.));
#1373=CARTESIAN_POINT('Origin',(28.35,2.,2.));
#1374=CARTESIAN_POINT('',(28.35,2.,2.));
#1375=CARTESIAN_POINT('',(28.35,14.2,2.));
#1376=CARTESIAN_POINT('',(28.35,8.5,2.));
#1377=CARTESIAN_POINT('',(28.35,2.,0.));
#1378=CARTESIAN_POINT('',(28.35,2.,2.));
#1379=CARTESIAN_POINT('',(28.35,14.2,0.));
#1380=CARTESIAN_POINT('',(28.35,8.5,0.));
#1381=CARTESIAN_POINT('',(28.35,14.2,2.));
#1382=CARTESIAN_POINT('Origin',(51.35,2.,2.));
#1383=CARTESIAN_POINT('',(51.35,2.,2.));
#1384=CARTESIAN_POINT('',(40.675,2.,2.));
#1385=CARTESIAN_POINT('',(51.35,2.,0.));
#1386=CARTESIAN_POINT('',(51.35,2.,2.));
#1387=CARTESIAN_POINT('',(40.675,2.,0.));
#1388=CARTESIAN_POINT('Origin',(51.35,14.2,2.));
#1389=CARTESIAN_POINT('',(51.35,14.2,2.));
#1390=CARTESIAN_POINT('',(51.35,14.6,2.));
#1391=CARTESIAN_POINT('',(51.35,14.2,0.));
#1392=CARTESIAN_POINT('',(51.35,14.2,2.));
#1393=CARTESIAN_POINT('',(51.35,14.6,0.));
#1394=CARTESIAN_POINT('Origin',(28.35,14.2,2.));
#1395=CARTESIAN_POINT('',(29.175,14.2,2.));
#1396=CARTESIAN_POINT('',(29.175,14.2,0.));
#1397=CARTESIAN_POINT('Origin',(4.93038065763132E-31,30.,0.));
#1398=CARTESIAN_POINT('',(4.93038065763132E-31,30.,0.));
#1399=CARTESIAN_POINT('Origin',(30.,15.,2.));
#1400=CARTESIAN_POINT('Origin',(30.,15.,0.));
#1401=UNCERTAINTY_MEASURE_WITH_UNIT(LENGTH_MEASURE(0.01),#1405,
'DISTANCE_ACCURACY_VALUE',
'Maximum model space distance between geometric entities at asserted c
onnectivities');
#1402=UNCERTAINTY_MEASURE_WITH_UNIT(LENGTH_MEASURE(0.01),#1405,
'DISTANCE_ACCURACY_VALUE',
'Maximum model space distance between geometric entities at asserted c
onnectivities');
#1403=(
GEOMETRIC_REPRESENTATION_CONTEXT(3)
GLOBAL_UNCERTAINTY_ASSIGNED_CONTEXT((#1401))
GLOBAL_UNIT_ASSIGNED_CONTEXT((#1405,#1407,#1408))
REPRESENTATION_CONTEXT('','3D')
);
#1404=(
GEOMETRIC_REPRESENTATION_CONTEXT(3)
GLOBAL_UNCERTAINTY_ASSIGNED_CONTEXT((#1402))
GLOBAL_UNIT_ASSIGNED_CONTEXT((#1405,#1407,#1408))
REPRESENTATION_CONTEXT('','3D')
);
#1405=(
LENGTH_UNIT()
NAMED_UNIT(*)
SI_UNIT(.MILLI.,.METRE.)
);
#1406=(
LENGTH_UNIT()
NAMED_UNIT(*)
SI_UNIT($,.METRE.)
);
#1407=(
NAMED_UNIT(*)
PLANE_ANGLE_UNIT()
SI_UNIT($,.RADIAN.)
);
#1408=(
NAMED_UNIT(*)
SI_UNIT($,.STERADIAN.)
SOLID_ANGLE_UNIT()
);
#1409=SHAPE_DEFINITION_REPRESENTATION(#1410,#1411);
#1410=PRODUCT_DEFINITION_SHAPE('',$,#1413);
#1411=SHAPE_REPRESENTATION('',(#841),#1403);
#1412=PRODUCT_DEFINITION_CONTEXT('part definition',#1417,'design');
#1413=PRODUCT_DEFINITION('(\X2\C800C7A5B418C9C0\X0\ \X2\C54AC74C\X0\)',
'(\X2\C800C7A5B418C9C0\X0\ \X2\C54AC74C\X0\)',#1414,#1412);
#1414=PRODUCT_DEFINITION_FORMATION('',$,#1419);
#1415=PRODUCT_RELATED_PRODUCT_CATEGORY('(\X2\C800C7A5B418C9C0\X0\ \X2\C54AC74C\X0\)',
'(\X2\C800C7A5B418C9C0\X0\ \X2\C54AC74C\X0\)',(#1419));
#1416=APPLICATION_PROTOCOL_DEFINITION('international standard',
'automotive_design',2009,#1417);
#1417=APPLICATION_CONTEXT(
'Core Data for Automotive Mechanical Design Process');
#1418=PRODUCT_CONTEXT('part definition',#1417,'mechanical');
#1419=PRODUCT('(\X2\C800C7A5B418C9C0\X0\ \X2\C54AC74C\X0\)',
'(\X2\C800C7A5B418C9C0\X0\ \X2\C54AC74C\X0\)',$,(#1418));
#1420=PRESENTATION_STYLE_ASSIGNMENT((#1421));
#1421=SURFACE_STYLE_USAGE(.BOTH.,#1422);
#1422=SURFACE_SIDE_STYLE('',(#1423));
#1423=SURFACE_STYLE_FILL_AREA(#1424);
#1424=FILL_AREA_STYLE('\X2\AC15CCA0\X0\ - \X2\C0C8D2F4\X0\',(#1425));
#1425=FILL_AREA_STYLE_COLOUR('\X2\AC15CCA0\X0\ - \X2\C0C8D2F4\X0\',#1426);
#1426=COLOUR_RGB('\X2\AC15CCA0\X0\ - \X2\C0C8D2F4\X0\',0.627450980392157,
0.627450980392157,0.627450980392157);
ENDSEC;
END-ISO-10303-21;
