ISO-10303-21;
HEADER;
/* Generated by software containing ST-Developer
 * from STEP Tools, Inc. (www.steptools.com) 
 */

FILE_DESCRIPTION(
/* description */ (''),
/* implementation_level */ '2;1');

FILE_NAME(
/* name */ 'TRGRIP01_Base_Bottom_60x30x4.step',
/* time_stamp */ '2026-06-11T09:10:54+09:00',
/* author */ (''),
/* organization */ (''),
/* preprocessor_version */ 'ST-DEVELOPER v20.1',
/* originating_system */ 'Autodesk Translation Framework v15.8.0.0',
/* authorisation */ '');

FILE_SCHEMA (('AUTOMOTIVE_DESIGN { 1 0 10303 214 3 1 1 }'));
ENDSEC;

DATA;
#10=MECHANICAL_DESIGN_GEOMETRIC_PRESENTATION_REPRESENTATION('',(#13),#1071);
#11=SHAPE_REPRESENTATION_RELATIONSHIP('SRR','None',#1078,#12);
#12=ADVANCED_BREP_SHAPE_REPRESENTATION('',(#14),#1070);
#13=STYLED_ITEM('',(#1087),#14);
#14=MANIFOLD_SOLID_BREP('\X2\BCF8CCB4\X0\1',#627);
#15=FACE_BOUND('',#87,.T.);
#16=FACE_BOUND('',#88,.T.);
#17=FACE_BOUND('',#89,.T.);
#18=FACE_BOUND('',#90,.T.);
#19=FACE_BOUND('',#99,.T.);
#20=FACE_BOUND('',#100,.T.);
#21=FACE_BOUND('',#101,.T.);
#22=FACE_BOUND('',#102,.T.);
#23=FACE_BOUND('',#123,.T.);
#24=FACE_BOUND('',#124,.T.);
#25=CONICAL_SURFACE('',#649,1.75,0.785398163397448);
#26=CONICAL_SURFACE('',#662,1.75,0.785398163397448);
#27=CONICAL_SURFACE('',#666,1.75,0.78539816339745);
#28=CONICAL_SURFACE('',#670,1.75,0.78539816339745);
#29=PLANE('',#644);
#30=PLANE('',#648);
#31=PLANE('',#652);
#32=PLANE('',#674);
#33=PLANE('',#681);
#34=PLANE('',#684);
#35=PLANE('',#687);
#36=PLANE('',#690);
#37=PLANE('',#692);
#38=PLANE('',#696);
#39=PLANE('',#697);
#40=PLANE('',#698);
#41=PLANE('',#699);
#42=PLANE('',#700);
#43=PLANE('',#701);
#44=PLANE('',#702);
#45=PLANE('',#703);
#46=PLANE('',#704);
#47=FACE_OUTER_BOUND('',#81,.T.);
#48=FACE_OUTER_BOUND('',#82,.T.);
#49=FACE_OUTER_BOUND('',#83,.T.);
#50=FACE_OUTER_BOUND('',#84,.T.);
#51=FACE_OUTER_BOUND('',#85,.T.);
#52=FACE_OUTER_BOUND('',#86,.T.);
#53=FACE_OUTER_BOUND('',#91,.T.);
#54=FACE_OUTER_BOUND('',#92,.T.);
#55=FACE_OUTER_BOUND('',#93,.T.);
#56=FACE_OUTER_BOUND('',#94,.T.);
#57=FACE_OUTER_BOUND('',#95,.T.);
#58=FACE_OUTER_BOUND('',#96,.T.);
#59=FACE_OUTER_BOUND('',#97,.T.);
#60=FACE_OUTER_BOUND('',#98,.T.);
#61=FACE_OUTER_BOUND('',#103,.T.);
#62=FACE_OUTER_BOUND('',#104,.T.);
#63=FACE_OUTER_BOUND('',#105,.T.);
#64=FACE_OUTER_BOUND('',#106,.T.);
#65=FACE_OUTER_BOUND('',#107,.T.);
#66=FACE_OUTER_BOUND('',#108,.T.);
#67=FACE_OUTER_BOUND('',#109,.T.);
#68=FACE_OUTER_BOUND('',#110,.T.);
#69=FACE_OUTER_BOUND('',#111,.T.);
#70=FACE_OUTER_BOUND('',#112,.T.);
#71=FACE_OUTER_BOUND('',#113,.T.);
#72=FACE_OUTER_BOUND('',#114,.T.);
#73=FACE_OUTER_BOUND('',#115,.T.);
#74=FACE_OUTER_BOUND('',#116,.T.);
#75=FACE_OUTER_BOUND('',#117,.T.);
#76=FACE_OUTER_BOUND('',#118,.T.);
#77=FACE_OUTER_BOUND('',#119,.T.);
#78=FACE_OUTER_BOUND('',#120,.T.);
#79=FACE_OUTER_BOUND('',#121,.T.);
#80=FACE_OUTER_BOUND('',#122,.T.);
#81=EDGE_LOOP('',(#409,#410,#411,#412));
#82=EDGE_LOOP('',(#413));
#83=EDGE_LOOP('',(#414,#415,#416,#417));
#84=EDGE_LOOP('',(#418));
#85=EDGE_LOOP('',(#419,#420,#421,#422));
#86=EDGE_LOOP('',(#423,#424,#425,#426,#427,#428,#429,#430));
#87=EDGE_LOOP('',(#431));
#88=EDGE_LOOP('',(#432));
#89=EDGE_LOOP('',(#433));
#90=EDGE_LOOP('',(#434));
#91=EDGE_LOOP('',(#435,#436,#437,#438));
#92=EDGE_LOOP('',(#439,#440,#441,#442));
#93=EDGE_LOOP('',(#443,#444,#445,#446));
#94=EDGE_LOOP('',(#447,#448,#449,#450));
#95=EDGE_LOOP('',(#451,#452,#453,#454));
#96=EDGE_LOOP('',(#455,#456,#457,#458));
#97=EDGE_LOOP('',(#459,#460,#461,#462));
#98=EDGE_LOOP('',(#463,#464,#465,#466,#467,#468,#469,#470,#471,#472,#473,
#474,#475,#476,#477,#478,#479,#480));
#99=EDGE_LOOP('',(#481));
#100=EDGE_LOOP('',(#482));
#101=EDGE_LOOP('',(#483));
#102=EDGE_LOOP('',(#484));
#103=EDGE_LOOP('',(#485,#486,#487,#488));
#104=EDGE_LOOP('',(#489,#490,#491,#492,#493,#494));
#105=EDGE_LOOP('',(#495,#496,#497,#498));
#106=EDGE_LOOP('',(#499,#500,#501,#502));
#107=EDGE_LOOP('',(#503,#504,#505,#506));
#108=EDGE_LOOP('',(#507,#508,#509,#510));
#109=EDGE_LOOP('',(#511,#512,#513,#514));
#110=EDGE_LOOP('',(#515,#516,#517,#518));
#111=EDGE_LOOP('',(#519,#520,#521,#522));
#112=EDGE_LOOP('',(#523,#524,#525,#526));
#113=EDGE_LOOP('',(#527,#528,#529,#530,#531,#532));
#114=EDGE_LOOP('',(#533,#534,#535,#536));
#115=EDGE_LOOP('',(#537,#538,#539,#540));
#116=EDGE_LOOP('',(#541,#542,#543,#544));
#117=EDGE_LOOP('',(#545,#546,#547,#548));
#118=EDGE_LOOP('',(#549,#550,#551,#552));
#119=EDGE_LOOP('',(#553,#554,#555,#556));
#120=EDGE_LOOP('',(#557,#558,#559,#560));
#121=EDGE_LOOP('',(#561,#562,#563,#564));
#122=EDGE_LOOP('',(#565,#566,#567,#568,#569,#570,#571,#572,#573,#574,#575,
#576,#577,#578));
#123=EDGE_LOOP('',(#579));
#124=EDGE_LOOP('',(#580));
#125=LINE('',#896,#181);
#126=LINE('',#903,#182);
#127=LINE('',#910,#183);
#128=LINE('',#917,#184);
#129=LINE('',#921,#185);
#130=LINE('',#925,#186);
#131=LINE('',#928,#187);
#132=LINE('',#938,#188);
#133=LINE('',#941,#189);
#134=LINE('',#946,#190);
#135=LINE('',#949,#191);
#136=LINE('',#954,#192);
#137=LINE('',#957,#193);
#138=LINE('',#962,#194);
#139=LINE('',#968,#195);
#140=LINE('',#972,#196);
#141=LINE('',#976,#197);
#142=LINE('',#980,#198);
#143=LINE('',#982,#199);
#144=LINE('',#984,#200);
#145=LINE('',#988,#201);
#146=LINE('',#990,#202);
#147=LINE('',#992,#203);
#148=LINE('',#996,#204);
#149=LINE('',#998,#205);
#150=LINE('',#999,#206);
#151=LINE('',#1003,#207);
#152=LINE('',#1004,#208);
#153=LINE('',#1005,#209);
#154=LINE('',#1008,#210);
#155=LINE('',#1010,#211);
#156=LINE('',#1013,#212);
#157=LINE('',#1014,#213);
#158=LINE('',#1017,#214);
#159=LINE('',#1020,#215);
#160=LINE('',#1023,#216);
#161=LINE('',#1024,#217);
#162=LINE('',#1027,#218);
#163=LINE('',#1030,#219);
#164=LINE('',#1033,#220);
#165=LINE('',#1034,#221);
#166=LINE('',#1036,#222);
#167=LINE('',#1037,#223);
#168=LINE('',#1039,#224);
#169=LINE('',#1041,#225);
#170=LINE('',#1043,#226);
#171=LINE('',#1046,#227);
#172=LINE('',#1050,#228);
#173=LINE('',#1051,#229);
#174=LINE('',#1053,#230);
#175=LINE('',#1056,#231);
#176=LINE('',#1057,#232);
#177=LINE('',#1059,#233);
#178=LINE('',#1062,#234);
#179=LINE('',#1063,#235);
#180=LINE('',#1065,#236);
#181=VECTOR('',#711,2.3);
#182=VECTOR('',#720,2.3);
#183=VECTOR('',#729,1.75);
#184=VECTOR('',#736,10.);
#185=VECTOR('',#739,10.);
#186=VECTOR('',#742,10.);
#187=VECTOR('',#745,10.);
#188=VECTOR('',#756,1.);
#189=VECTOR('',#759,1.75);
#190=VECTOR('',#766,1.);
#191=VECTOR('',#769,1.75);
#192=VECTOR('',#776,0.999999999999996);
#193=VECTOR('',#779,1.75);
#194=VECTOR('',#786,0.999999999999996);
#195=VECTOR('',#791,10.);
#196=VECTOR('',#794,10.);
#197=VECTOR('',#797,10.);
#198=VECTOR('',#800,10.);
#199=VECTOR('',#801,10.);
#200=VECTOR('',#802,10.);
#201=VECTOR('',#805,10.);
#202=VECTOR('',#806,10.);
#203=VECTOR('',#807,10.);
#204=VECTOR('',#810,10.);
#205=VECTOR('',#811,10.);
#206=VECTOR('',#812,10.);
#207=VECTOR('',#815,10.);
#208=VECTOR('',#816,10.);
#209=VECTOR('',#817,10.);
#210=VECTOR('',#820,10.);
#211=VECTOR('',#823,10.);
#212=VECTOR('',#826,10.);
#213=VECTOR('',#827,10.);
#214=VECTOR('',#830,10.);
#215=VECTOR('',#833,10.);
#216=VECTOR('',#836,10.);
#217=VECTOR('',#837,10.);
#218=VECTOR('',#840,10.);
#219=VECTOR('',#843,10.);
#220=VECTOR('',#846,10.);
#221=VECTOR('',#847,10.);
#222=VECTOR('',#850,10.);
#223=VECTOR('',#851,10.);
#224=VECTOR('',#854,10.);
#225=VECTOR('',#857,10.);
#226=VECTOR('',#860,10.);
#227=VECTOR('',#863,10.);
#228=VECTOR('',#868,10.);
#229=VECTOR('',#869,10.);
#230=VECTOR('',#872,10.);
#231=VECTOR('',#875,10.);
#232=VECTOR('',#876,10.);
#233=VECTOR('',#879,10.);
#234=VECTOR('',#882,10.);
#235=VECTOR('',#883,10.);
#236=VECTOR('',#886,10.);
#237=CIRCLE('',#642,2.3);
#238=CIRCLE('',#643,2.3);
#239=CIRCLE('',#646,2.3);
#240=CIRCLE('',#647,2.3);
#241=CIRCLE('',#650,2.5);
#242=CIRCLE('',#651,1.);
#243=CIRCLE('',#653,3.);
#244=CIRCLE('',#654,3.);
#245=CIRCLE('',#655,3.);
#246=CIRCLE('',#656,3.);
#247=CIRCLE('',#657,2.5);
#248=CIRCLE('',#658,2.5);
#249=CIRCLE('',#659,2.5);
#250=CIRCLE('',#661,1.);
#251=CIRCLE('',#663,1.);
#252=CIRCLE('',#665,1.);
#253=CIRCLE('',#667,0.999999999999996);
#254=CIRCLE('',#669,0.999999999999996);
#255=CIRCLE('',#671,0.999999999999996);
#256=CIRCLE('',#673,0.999999999999996);
#257=CIRCLE('',#675,3.);
#258=CIRCLE('',#676,3.);
#259=CIRCLE('',#677,3.);
#260=CIRCLE('',#678,3.);
#261=CIRCLE('',#679,3.);
#262=CIRCLE('',#680,3.);
#263=CIRCLE('',#683,3.);
#264=CIRCLE('',#686,3.);
#265=CIRCLE('',#689,3.);
#266=CIRCLE('',#695,3.);
#267=VERTEX_POINT('',#893);
#268=VERTEX_POINT('',#895);
#269=VERTEX_POINT('',#900);
#270=VERTEX_POINT('',#902);
#271=VERTEX_POINT('',#907);
#272=VERTEX_POINT('',#909);
#273=VERTEX_POINT('',#913);
#274=VERTEX_POINT('',#914);
#275=VERTEX_POINT('',#916);
#276=VERTEX_POINT('',#918);
#277=VERTEX_POINT('',#920);
#278=VERTEX_POINT('',#922);
#279=VERTEX_POINT('',#924);
#280=VERTEX_POINT('',#926);
#281=VERTEX_POINT('',#929);
#282=VERTEX_POINT('',#931);
#283=VERTEX_POINT('',#933);
#284=VERTEX_POINT('',#936);
#285=VERTEX_POINT('',#940);
#286=VERTEX_POINT('',#944);
#287=VERTEX_POINT('',#948);
#288=VERTEX_POINT('',#952);
#289=VERTEX_POINT('',#956);
#290=VERTEX_POINT('',#960);
#291=VERTEX_POINT('',#964);
#292=VERTEX_POINT('',#965);
#293=VERTEX_POINT('',#967);
#294=VERTEX_POINT('',#969);
#295=VERTEX_POINT('',#971);
#296=VERTEX_POINT('',#973);
#297=VERTEX_POINT('',#975);
#298=VERTEX_POINT('',#977);
#299=VERTEX_POINT('',#979);
#300=VERTEX_POINT('',#981);
#301=VERTEX_POINT('',#983);
#302=VERTEX_POINT('',#985);
#303=VERTEX_POINT('',#987);
#304=VERTEX_POINT('',#989);
#305=VERTEX_POINT('',#991);
#306=VERTEX_POINT('',#993);
#307=VERTEX_POINT('',#995);
#308=VERTEX_POINT('',#997);
#309=VERTEX_POINT('',#1001);
#310=VERTEX_POINT('',#1002);
#311=VERTEX_POINT('',#1007);
#312=VERTEX_POINT('',#1012);
#313=VERTEX_POINT('',#1016);
#314=VERTEX_POINT('',#1018);
#315=VERTEX_POINT('',#1022);
#316=VERTEX_POINT('',#1026);
#317=VERTEX_POINT('',#1028);
#318=VERTEX_POINT('',#1032);
#319=VERTEX_POINT('',#1044);
#320=VERTEX_POINT('',#1049);
#321=VERTEX_POINT('',#1055);
#322=VERTEX_POINT('',#1061);
#323=EDGE_CURVE('',#267,#267,#237,.T.);
#324=EDGE_CURVE('',#267,#268,#125,.T.);
#325=EDGE_CURVE('',#268,#268,#238,.T.);
#326=EDGE_CURVE('',#269,#269,#239,.T.);
#327=EDGE_CURVE('',#269,#270,#126,.T.);
#328=EDGE_CURVE('',#270,#270,#240,.T.);
#329=EDGE_CURVE('',#271,#271,#241,.T.);
#330=EDGE_CURVE('',#271,#272,#127,.T.);
#331=EDGE_CURVE('',#272,#272,#242,.T.);
#332=EDGE_CURVE('',#273,#274,#243,.T.);
#333=EDGE_CURVE('',#275,#273,#128,.T.);
#334=EDGE_CURVE('',#276,#275,#244,.T.);
#335=EDGE_CURVE('',#277,#276,#129,.T.);
#336=EDGE_CURVE('',#278,#277,#245,.T.);
#337=EDGE_CURVE('',#279,#278,#130,.T.);
#338=EDGE_CURVE('',#280,#279,#246,.T.);
#339=EDGE_CURVE('',#274,#280,#131,.T.);
#340=EDGE_CURVE('',#281,#281,#247,.T.);
#341=EDGE_CURVE('',#282,#282,#248,.T.);
#342=EDGE_CURVE('',#283,#283,#249,.T.);
#343=EDGE_CURVE('',#284,#284,#250,.T.);
#344=EDGE_CURVE('',#284,#272,#132,.T.);
#345=EDGE_CURVE('',#281,#285,#133,.T.);
#346=EDGE_CURVE('',#285,#285,#251,.T.);
#347=EDGE_CURVE('',#286,#286,#252,.T.);
#348=EDGE_CURVE('',#286,#285,#134,.T.);
#349=EDGE_CURVE('',#283,#287,#135,.T.);
#350=EDGE_CURVE('',#287,#287,#253,.T.);
#351=EDGE_CURVE('',#288,#288,#254,.T.);
#352=EDGE_CURVE('',#288,#287,#136,.T.);
#353=EDGE_CURVE('',#282,#289,#137,.T.);
#354=EDGE_CURVE('',#289,#289,#255,.T.);
#355=EDGE_CURVE('',#290,#290,#256,.T.);
#356=EDGE_CURVE('',#290,#289,#138,.T.);
#357=EDGE_CURVE('',#291,#292,#257,.T.);
#358=EDGE_CURVE('',#291,#293,#139,.T.);
#359=EDGE_CURVE('',#294,#293,#258,.T.);
#360=EDGE_CURVE('',#294,#295,#140,.T.);
#361=EDGE_CURVE('',#296,#295,#259,.T.);
#362=EDGE_CURVE('',#296,#297,#141,.T.);
#363=EDGE_CURVE('',#298,#297,#260,.T.);
#364=EDGE_CURVE('',#298,#299,#142,.T.);
#365=EDGE_CURVE('',#299,#300,#143,.T.);
#366=EDGE_CURVE('',#300,#301,#144,.T.);
#367=EDGE_CURVE('',#302,#301,#261,.T.);
#368=EDGE_CURVE('',#302,#303,#145,.T.);
#369=EDGE_CURVE('',#303,#304,#146,.T.);
#370=EDGE_CURVE('',#304,#305,#147,.T.);
#371=EDGE_CURVE('',#306,#305,#262,.T.);
#372=EDGE_CURVE('',#306,#307,#148,.T.);
#373=EDGE_CURVE('',#307,#308,#149,.T.);
#374=EDGE_CURVE('',#308,#292,#150,.T.);
#375=EDGE_CURVE('',#309,#310,#151,.T.);
#376=EDGE_CURVE('',#277,#309,#152,.T.);
#377=EDGE_CURVE('',#310,#276,#153,.T.);
#378=EDGE_CURVE('',#292,#311,#154,.T.);
#379=EDGE_CURVE('',#311,#310,#263,.F.);
#380=EDGE_CURVE('',#275,#291,#155,.T.);
#381=EDGE_CURVE('',#312,#308,#156,.T.);
#382=EDGE_CURVE('',#311,#312,#157,.T.);
#383=EDGE_CURVE('',#301,#313,#158,.T.);
#384=EDGE_CURVE('',#313,#314,#264,.F.);
#385=EDGE_CURVE('',#314,#302,#159,.T.);
#386=EDGE_CURVE('',#315,#300,#160,.T.);
#387=EDGE_CURVE('',#313,#315,#161,.T.);
#388=EDGE_CURVE('',#305,#316,#162,.T.);
#389=EDGE_CURVE('',#316,#317,#265,.F.);
#390=EDGE_CURVE('',#317,#306,#163,.T.);
#391=EDGE_CURVE('',#318,#304,#164,.T.);
#392=EDGE_CURVE('',#316,#318,#165,.T.);
#393=EDGE_CURVE('',#293,#273,#166,.T.);
#394=EDGE_CURVE('',#274,#294,#167,.T.);
#395=EDGE_CURVE('',#295,#280,#168,.T.);
#396=EDGE_CURVE('',#279,#296,#169,.T.);
#397=EDGE_CURVE('',#297,#278,#170,.T.);
#398=EDGE_CURVE('',#309,#319,#266,.F.);
#399=EDGE_CURVE('',#319,#298,#171,.T.);
#400=EDGE_CURVE('',#318,#320,#172,.T.);
#401=EDGE_CURVE('',#320,#303,#173,.T.);
#402=EDGE_CURVE('',#320,#314,#174,.T.);
#403=EDGE_CURVE('',#315,#321,#175,.T.);
#404=EDGE_CURVE('',#321,#299,#176,.T.);
#405=EDGE_CURVE('',#321,#319,#177,.T.);
#406=EDGE_CURVE('',#312,#322,#178,.T.);
#407=EDGE_CURVE('',#322,#307,#179,.T.);
#408=EDGE_CURVE('',#322,#317,#180,.T.);
#409=ORIENTED_EDGE('',*,*,#323,.F.);
#410=ORIENTED_EDGE('',*,*,#324,.T.);
#411=ORIENTED_EDGE('',*,*,#325,.F.);
#412=ORIENTED_EDGE('',*,*,#324,.F.);
#413=ORIENTED_EDGE('',*,*,#323,.T.);
#414=ORIENTED_EDGE('',*,*,#326,.F.);
#415=ORIENTED_EDGE('',*,*,#327,.T.);
#416=ORIENTED_EDGE('',*,*,#328,.F.);
#417=ORIENTED_EDGE('',*,*,#327,.F.);
#418=ORIENTED_EDGE('',*,*,#326,.T.);
#419=ORIENTED_EDGE('',*,*,#329,.T.);
#420=ORIENTED_EDGE('',*,*,#330,.T.);
#421=ORIENTED_EDGE('',*,*,#331,.T.);
#422=ORIENTED_EDGE('',*,*,#330,.F.);
#423=ORIENTED_EDGE('',*,*,#332,.F.);
#424=ORIENTED_EDGE('',*,*,#333,.F.);
#425=ORIENTED_EDGE('',*,*,#334,.F.);
#426=ORIENTED_EDGE('',*,*,#335,.F.);
#427=ORIENTED_EDGE('',*,*,#336,.F.);
#428=ORIENTED_EDGE('',*,*,#337,.F.);
#429=ORIENTED_EDGE('',*,*,#338,.F.);
#430=ORIENTED_EDGE('',*,*,#339,.F.);
#431=ORIENTED_EDGE('',*,*,#340,.F.);
#432=ORIENTED_EDGE('',*,*,#341,.F.);
#433=ORIENTED_EDGE('',*,*,#342,.F.);
#434=ORIENTED_EDGE('',*,*,#329,.F.);
#435=ORIENTED_EDGE('',*,*,#343,.F.);
#436=ORIENTED_EDGE('',*,*,#344,.T.);
#437=ORIENTED_EDGE('',*,*,#331,.F.);
#438=ORIENTED_EDGE('',*,*,#344,.F.);
#439=ORIENTED_EDGE('',*,*,#340,.T.);
#440=ORIENTED_EDGE('',*,*,#345,.T.);
#441=ORIENTED_EDGE('',*,*,#346,.T.);
#442=ORIENTED_EDGE('',*,*,#345,.F.);
#443=ORIENTED_EDGE('',*,*,#347,.F.);
#444=ORIENTED_EDGE('',*,*,#348,.T.);
#445=ORIENTED_EDGE('',*,*,#346,.F.);
#446=ORIENTED_EDGE('',*,*,#348,.F.);
#447=ORIENTED_EDGE('',*,*,#342,.T.);
#448=ORIENTED_EDGE('',*,*,#349,.T.);
#449=ORIENTED_EDGE('',*,*,#350,.T.);
#450=ORIENTED_EDGE('',*,*,#349,.F.);
#451=ORIENTED_EDGE('',*,*,#351,.F.);
#452=ORIENTED_EDGE('',*,*,#352,.T.);
#453=ORIENTED_EDGE('',*,*,#350,.F.);
#454=ORIENTED_EDGE('',*,*,#352,.F.);
#455=ORIENTED_EDGE('',*,*,#341,.T.);
#456=ORIENTED_EDGE('',*,*,#353,.T.);
#457=ORIENTED_EDGE('',*,*,#354,.T.);
#458=ORIENTED_EDGE('',*,*,#353,.F.);
#459=ORIENTED_EDGE('',*,*,#355,.F.);
#460=ORIENTED_EDGE('',*,*,#356,.T.);
#461=ORIENTED_EDGE('',*,*,#354,.F.);
#462=ORIENTED_EDGE('',*,*,#356,.F.);
#463=ORIENTED_EDGE('',*,*,#357,.F.);
#464=ORIENTED_EDGE('',*,*,#358,.T.);
#465=ORIENTED_EDGE('',*,*,#359,.F.);
#466=ORIENTED_EDGE('',*,*,#360,.T.);
#467=ORIENTED_EDGE('',*,*,#361,.F.);
#468=ORIENTED_EDGE('',*,*,#362,.T.);
#469=ORIENTED_EDGE('',*,*,#363,.F.);
#470=ORIENTED_EDGE('',*,*,#364,.T.);
#471=ORIENTED_EDGE('',*,*,#365,.T.);
#472=ORIENTED_EDGE('',*,*,#366,.T.);
#473=ORIENTED_EDGE('',*,*,#367,.F.);
#474=ORIENTED_EDGE('',*,*,#368,.T.);
#475=ORIENTED_EDGE('',*,*,#369,.T.);
#476=ORIENTED_EDGE('',*,*,#370,.T.);
#477=ORIENTED_EDGE('',*,*,#371,.F.);
#478=ORIENTED_EDGE('',*,*,#372,.T.);
#479=ORIENTED_EDGE('',*,*,#373,.T.);
#480=ORIENTED_EDGE('',*,*,#374,.T.);
#481=ORIENTED_EDGE('',*,*,#343,.T.);
#482=ORIENTED_EDGE('',*,*,#347,.T.);
#483=ORIENTED_EDGE('',*,*,#355,.T.);
#484=ORIENTED_EDGE('',*,*,#351,.T.);
#485=ORIENTED_EDGE('',*,*,#375,.F.);
#486=ORIENTED_EDGE('',*,*,#376,.F.);
#487=ORIENTED_EDGE('',*,*,#335,.T.);
#488=ORIENTED_EDGE('',*,*,#377,.F.);
#489=ORIENTED_EDGE('',*,*,#357,.T.);
#490=ORIENTED_EDGE('',*,*,#378,.T.);
#491=ORIENTED_EDGE('',*,*,#379,.T.);
#492=ORIENTED_EDGE('',*,*,#377,.T.);
#493=ORIENTED_EDGE('',*,*,#334,.T.);
#494=ORIENTED_EDGE('',*,*,#380,.T.);
#495=ORIENTED_EDGE('',*,*,#378,.F.);
#496=ORIENTED_EDGE('',*,*,#374,.F.);
#497=ORIENTED_EDGE('',*,*,#381,.F.);
#498=ORIENTED_EDGE('',*,*,#382,.F.);
#499=ORIENTED_EDGE('',*,*,#367,.T.);
#500=ORIENTED_EDGE('',*,*,#383,.T.);
#501=ORIENTED_EDGE('',*,*,#384,.T.);
#502=ORIENTED_EDGE('',*,*,#385,.T.);
#503=ORIENTED_EDGE('',*,*,#383,.F.);
#504=ORIENTED_EDGE('',*,*,#366,.F.);
#505=ORIENTED_EDGE('',*,*,#386,.F.);
#506=ORIENTED_EDGE('',*,*,#387,.F.);
#507=ORIENTED_EDGE('',*,*,#371,.T.);
#508=ORIENTED_EDGE('',*,*,#388,.T.);
#509=ORIENTED_EDGE('',*,*,#389,.T.);
#510=ORIENTED_EDGE('',*,*,#390,.T.);
#511=ORIENTED_EDGE('',*,*,#388,.F.);
#512=ORIENTED_EDGE('',*,*,#370,.F.);
#513=ORIENTED_EDGE('',*,*,#391,.F.);
#514=ORIENTED_EDGE('',*,*,#392,.F.);
#515=ORIENTED_EDGE('',*,*,#359,.T.);
#516=ORIENTED_EDGE('',*,*,#393,.T.);
#517=ORIENTED_EDGE('',*,*,#332,.T.);
#518=ORIENTED_EDGE('',*,*,#394,.T.);
#519=ORIENTED_EDGE('',*,*,#394,.F.);
#520=ORIENTED_EDGE('',*,*,#339,.T.);
#521=ORIENTED_EDGE('',*,*,#395,.F.);
#522=ORIENTED_EDGE('',*,*,#360,.F.);
#523=ORIENTED_EDGE('',*,*,#361,.T.);
#524=ORIENTED_EDGE('',*,*,#395,.T.);
#525=ORIENTED_EDGE('',*,*,#338,.T.);
#526=ORIENTED_EDGE('',*,*,#396,.T.);
#527=ORIENTED_EDGE('',*,*,#363,.T.);
#528=ORIENTED_EDGE('',*,*,#397,.T.);
#529=ORIENTED_EDGE('',*,*,#336,.T.);
#530=ORIENTED_EDGE('',*,*,#376,.T.);
#531=ORIENTED_EDGE('',*,*,#398,.T.);
#532=ORIENTED_EDGE('',*,*,#399,.T.);
#533=ORIENTED_EDGE('',*,*,#396,.F.);
#534=ORIENTED_EDGE('',*,*,#337,.T.);
#535=ORIENTED_EDGE('',*,*,#397,.F.);
#536=ORIENTED_EDGE('',*,*,#362,.F.);
#537=ORIENTED_EDGE('',*,*,#400,.F.);
#538=ORIENTED_EDGE('',*,*,#391,.T.);
#539=ORIENTED_EDGE('',*,*,#369,.F.);
#540=ORIENTED_EDGE('',*,*,#401,.F.);
#541=ORIENTED_EDGE('',*,*,#385,.F.);
#542=ORIENTED_EDGE('',*,*,#402,.F.);
#543=ORIENTED_EDGE('',*,*,#401,.T.);
#544=ORIENTED_EDGE('',*,*,#368,.F.);
#545=ORIENTED_EDGE('',*,*,#403,.F.);
#546=ORIENTED_EDGE('',*,*,#386,.T.);
#547=ORIENTED_EDGE('',*,*,#365,.F.);
#548=ORIENTED_EDGE('',*,*,#404,.F.);
#549=ORIENTED_EDGE('',*,*,#399,.F.);
#550=ORIENTED_EDGE('',*,*,#405,.F.);
#551=ORIENTED_EDGE('',*,*,#404,.T.);
#552=ORIENTED_EDGE('',*,*,#364,.F.);
#553=ORIENTED_EDGE('',*,*,#406,.F.);
#554=ORIENTED_EDGE('',*,*,#381,.T.);
#555=ORIENTED_EDGE('',*,*,#373,.F.);
#556=ORIENTED_EDGE('',*,*,#407,.F.);
#557=ORIENTED_EDGE('',*,*,#390,.F.);
#558=ORIENTED_EDGE('',*,*,#408,.F.);
#559=ORIENTED_EDGE('',*,*,#407,.T.);
#560=ORIENTED_EDGE('',*,*,#372,.F.);
#561=ORIENTED_EDGE('',*,*,#393,.F.);
#562=ORIENTED_EDGE('',*,*,#358,.F.);
#563=ORIENTED_EDGE('',*,*,#380,.F.);
#564=ORIENTED_EDGE('',*,*,#333,.T.);
#565=ORIENTED_EDGE('',*,*,#375,.T.);
#566=ORIENTED_EDGE('',*,*,#379,.F.);
#567=ORIENTED_EDGE('',*,*,#382,.T.);
#568=ORIENTED_EDGE('',*,*,#406,.T.);
#569=ORIENTED_EDGE('',*,*,#408,.T.);
#570=ORIENTED_EDGE('',*,*,#389,.F.);
#571=ORIENTED_EDGE('',*,*,#392,.T.);
#572=ORIENTED_EDGE('',*,*,#400,.T.);
#573=ORIENTED_EDGE('',*,*,#402,.T.);
#574=ORIENTED_EDGE('',*,*,#384,.F.);
#575=ORIENTED_EDGE('',*,*,#387,.T.);
#576=ORIENTED_EDGE('',*,*,#403,.T.);
#577=ORIENTED_EDGE('',*,*,#405,.T.);
#578=ORIENTED_EDGE('',*,*,#398,.F.);
#579=ORIENTED_EDGE('',*,*,#325,.T.);
#580=ORIENTED_EDGE('',*,*,#328,.T.);
#581=CYLINDRICAL_SURFACE('',#641,2.3);
#582=CYLINDRICAL_SURFACE('',#645,2.3);
#583=CYLINDRICAL_SURFACE('',#660,1.);
#584=CYLINDRICAL_SURFACE('',#664,1.);
#585=CYLINDRICAL_SURFACE('',#668,0.999999999999996);
#586=CYLINDRICAL_SURFACE('',#672,0.999999999999996);
#587=CYLINDRICAL_SURFACE('',#682,3.);
#588=CYLINDRICAL_SURFACE('',#685,3.);
#589=CYLINDRICAL_SURFACE('',#688,3.);
#590=CYLINDRICAL_SURFACE('',#691,3.);
#591=CYLINDRICAL_SURFACE('',#693,3.);
#592=CYLINDRICAL_SURFACE('',#694,3.);
#593=ADVANCED_FACE('',(#47),#581,.T.);
#594=ADVANCED_FACE('',(#48),#29,.T.);
#595=ADVANCED_FACE('',(#49),#582,.T.);
#596=ADVANCED_FACE('',(#50),#30,.T.);
#597=ADVANCED_FACE('',(#51),#25,.F.);
#598=ADVANCED_FACE('',(#52,#15,#16,#17,#18),#31,.F.);
#599=ADVANCED_FACE('',(#53),#583,.F.);
#600=ADVANCED_FACE('',(#54),#26,.F.);
#601=ADVANCED_FACE('',(#55),#584,.F.);
#602=ADVANCED_FACE('',(#56),#27,.F.);
#603=ADVANCED_FACE('',(#57),#585,.F.);
#604=ADVANCED_FACE('',(#58),#28,.F.);
#605=ADVANCED_FACE('',(#59),#586,.F.);
#606=ADVANCED_FACE('',(#60,#19,#20,#21,#22),#32,.T.);
#607=ADVANCED_FACE('',(#61),#33,.T.);
#608=ADVANCED_FACE('',(#62),#587,.T.);
#609=ADVANCED_FACE('',(#63),#34,.T.);
#610=ADVANCED_FACE('',(#64),#588,.T.);
#611=ADVANCED_FACE('',(#65),#35,.T.);
#612=ADVANCED_FACE('',(#66),#589,.T.);
#613=ADVANCED_FACE('',(#67),#36,.T.);
#614=ADVANCED_FACE('',(#68),#590,.T.);
#615=ADVANCED_FACE('',(#69),#37,.T.);
#616=ADVANCED_FACE('',(#70),#591,.T.);
#617=ADVANCED_FACE('',(#71),#592,.T.);
#618=ADVANCED_FACE('',(#72),#38,.T.);
#619=ADVANCED_FACE('',(#73),#39,.T.);
#620=ADVANCED_FACE('',(#74),#40,.T.);
#621=ADVANCED_FACE('',(#75),#41,.T.);
#622=ADVANCED_FACE('',(#76),#42,.T.);
#623=ADVANCED_FACE('',(#77),#43,.T.);
#624=ADVANCED_FACE('',(#78),#44,.T.);
#625=ADVANCED_FACE('',(#79),#45,.T.);
#626=ADVANCED_FACE('',(#80,#23,#24),#46,.T.);
#627=CLOSED_SHELL('',(#593,#594,#595,#596,#597,#598,#599,#600,#601,#602,
#603,#604,#605,#606,#607,#608,#609,#610,#611,#612,#613,#614,#615,#616,#617,
#618,#619,#620,#621,#622,#623,#624,#625,#626));
#628=DERIVED_UNIT_ELEMENT(#630,1.);
#629=DERIVED_UNIT_ELEMENT(#1073,-3.);
#630=(
MASS_UNIT()
NAMED_UNIT(*)
SI_UNIT(.KILO.,.GRAM.)
);
#631=DERIVED_UNIT((#628,#629));
#632=MEASURE_REPRESENTATION_ITEM('density measure',
POSITIVE_RATIO_MEASURE(7850.),#631);
#633=PROPERTY_DEFINITION_REPRESENTATION(#638,#635);
#634=PROPERTY_DEFINITION_REPRESENTATION(#639,#636);
#635=REPRESENTATION('material name',(#637),#1070);
#636=REPRESENTATION('density',(#632),#1070);
#637=DESCRIPTIVE_REPRESENTATION_ITEM('\X2\AC15CCA0\X0\','\X2\AC15CCA0\X0\');
#638=PROPERTY_DEFINITION('material property','material name',#1080);
#639=PROPERTY_DEFINITION('material property','density of part',#1080);
#640=AXIS2_PLACEMENT_3D('',#891,#705,#706);
#641=AXIS2_PLACEMENT_3D('',#892,#707,#708);
#642=AXIS2_PLACEMENT_3D('',#894,#709,#710);
#643=AXIS2_PLACEMENT_3D('',#897,#712,#713);
#644=AXIS2_PLACEMENT_3D('',#898,#714,#715);
#645=AXIS2_PLACEMENT_3D('',#899,#716,#717);
#646=AXIS2_PLACEMENT_3D('',#901,#718,#719);
#647=AXIS2_PLACEMENT_3D('',#904,#721,#722);
#648=AXIS2_PLACEMENT_3D('',#905,#723,#724);
#649=AXIS2_PLACEMENT_3D('',#906,#725,#726);
#650=AXIS2_PLACEMENT_3D('',#908,#727,#728);
#651=AXIS2_PLACEMENT_3D('',#911,#730,#731);
#652=AXIS2_PLACEMENT_3D('',#912,#732,#733);
#653=AXIS2_PLACEMENT_3D('',#915,#734,#735);
#654=AXIS2_PLACEMENT_3D('',#919,#737,#738);
#655=AXIS2_PLACEMENT_3D('',#923,#740,#741);
#656=AXIS2_PLACEMENT_3D('',#927,#743,#744);
#657=AXIS2_PLACEMENT_3D('',#930,#746,#747);
#658=AXIS2_PLACEMENT_3D('',#932,#748,#749);
#659=AXIS2_PLACEMENT_3D('',#934,#750,#751);
#660=AXIS2_PLACEMENT_3D('',#935,#752,#753);
#661=AXIS2_PLACEMENT_3D('',#937,#754,#755);
#662=AXIS2_PLACEMENT_3D('',#939,#757,#758);
#663=AXIS2_PLACEMENT_3D('',#942,#760,#761);
#664=AXIS2_PLACEMENT_3D('',#943,#762,#763);
#665=AXIS2_PLACEMENT_3D('',#945,#764,#765);
#666=AXIS2_PLACEMENT_3D('',#947,#767,#768);
#667=AXIS2_PLACEMENT_3D('',#950,#770,#771);
#668=AXIS2_PLACEMENT_3D('',#951,#772,#773);
#669=AXIS2_PLACEMENT_3D('',#953,#774,#775);
#670=AXIS2_PLACEMENT_3D('',#955,#777,#778);
#671=AXIS2_PLACEMENT_3D('',#958,#780,#781);
#672=AXIS2_PLACEMENT_3D('',#959,#782,#783);
#673=AXIS2_PLACEMENT_3D('',#961,#784,#785);
#674=AXIS2_PLACEMENT_3D('',#963,#787,#788);
#675=AXIS2_PLACEMENT_3D('',#966,#789,#790);
#676=AXIS2_PLACEMENT_3D('',#970,#792,#793);
#677=AXIS2_PLACEMENT_3D('',#974,#795,#796);
#678=AXIS2_PLACEMENT_3D('',#978,#798,#799);
#679=AXIS2_PLACEMENT_3D('',#986,#803,#804);
#680=AXIS2_PLACEMENT_3D('',#994,#808,#809);
#681=AXIS2_PLACEMENT_3D('',#1000,#813,#814);
#682=AXIS2_PLACEMENT_3D('',#1006,#818,#819);
#683=AXIS2_PLACEMENT_3D('',#1009,#821,#822);
#684=AXIS2_PLACEMENT_3D('',#1011,#824,#825);
#685=AXIS2_PLACEMENT_3D('',#1015,#828,#829);
#686=AXIS2_PLACEMENT_3D('',#1019,#831,#832);
#687=AXIS2_PLACEMENT_3D('',#1021,#834,#835);
#688=AXIS2_PLACEMENT_3D('',#1025,#838,#839);
#689=AXIS2_PLACEMENT_3D('',#1029,#841,#842);
#690=AXIS2_PLACEMENT_3D('',#1031,#844,#845);
#691=AXIS2_PLACEMENT_3D('',#1035,#848,#849);
#692=AXIS2_PLACEMENT_3D('',#1038,#852,#853);
#693=AXIS2_PLACEMENT_3D('',#1040,#855,#856);
#694=AXIS2_PLACEMENT_3D('',#1042,#858,#859);
#695=AXIS2_PLACEMENT_3D('',#1045,#861,#862);
#696=AXIS2_PLACEMENT_3D('',#1047,#864,#865);
#697=AXIS2_PLACEMENT_3D('',#1048,#866,#867);
#698=AXIS2_PLACEMENT_3D('',#1052,#870,#871);
#699=AXIS2_PLACEMENT_3D('',#1054,#873,#874);
#700=AXIS2_PLACEMENT_3D('',#1058,#877,#878);
#701=AXIS2_PLACEMENT_3D('',#1060,#880,#881);
#702=AXIS2_PLACEMENT_3D('',#1064,#884,#885);
#703=AXIS2_PLACEMENT_3D('',#1066,#887,#888);
#704=AXIS2_PLACEMENT_3D('',#1067,#889,#890);
#705=DIRECTION('axis',(0.,0.,1.));
#706=DIRECTION('refdir',(1.,0.,0.));
#707=DIRECTION('center_axis',(0.,0.,1.));
#708=DIRECTION('ref_axis',(-1.,0.,0.));
#709=DIRECTION('center_axis',(0.,0.,1.));
#710=DIRECTION('ref_axis',(-1.,0.,0.));
#711=DIRECTION('',(0.,0.,-1.));
#712=DIRECTION('center_axis',(0.,0.,-1.));
#713=DIRECTION('ref_axis',(-1.,0.,0.));
#714=DIRECTION('center_axis',(0.,0.,1.));
#715=DIRECTION('ref_axis',(-1.,0.,0.));
#716=DIRECTION('center_axis',(0.,0.,1.));
#717=DIRECTION('ref_axis',(-1.,0.,0.));
#718=DIRECTION('center_axis',(0.,0.,1.));
#719=DIRECTION('ref_axis',(-1.,0.,0.));
#720=DIRECTION('',(0.,0.,-1.));
#721=DIRECTION('center_axis',(0.,0.,-1.));
#722=DIRECTION('ref_axis',(-1.,0.,0.));
#723=DIRECTION('center_axis',(0.,0.,1.));
#724=DIRECTION('ref_axis',(-1.,0.,0.));
#725=DIRECTION('center_axis',(0.,0.,-1.));
#726=DIRECTION('ref_axis',(-1.,0.,0.));
#727=DIRECTION('center_axis',(0.,0.,-1.));
#728=DIRECTION('ref_axis',(-1.,0.,0.));
#729=DIRECTION('',(-0.707106781186547,8.65956056235493E-17,0.707106781186548));
#730=DIRECTION('center_axis',(0.,0.,1.));
#731=DIRECTION('ref_axis',(-1.,0.,0.));
#732=DIRECTION('center_axis',(0.,0.,1.));
#733=DIRECTION('ref_axis',(1.,0.,0.));
#734=DIRECTION('center_axis',(0.,0.,1.));
#735=DIRECTION('ref_axis',(0.707106781186549,0.707106781186546,0.));
#736=DIRECTION('',(0.,1.,0.));
#737=DIRECTION('center_axis',(0.,0.,1.));
#738=DIRECTION('ref_axis',(0.707106781186546,-0.707106781186549,0.));
#739=DIRECTION('',(1.,0.,0.));
#740=DIRECTION('center_axis',(0.,0.,1.));
#741=DIRECTION('ref_axis',(-0.707106781186548,-0.707106781186548,0.));
#742=DIRECTION('',(-1.64346021921044E-32,-1.,0.));
#743=DIRECTION('center_axis',(0.,0.,1.));
#744=DIRECTION('ref_axis',(-0.707106781186548,0.707106781186547,0.));
#745=DIRECTION('',(-1.,0.,0.));
#746=DIRECTION('center_axis',(0.,0.,-1.));
#747=DIRECTION('ref_axis',(-1.,0.,0.));
#748=DIRECTION('center_axis',(0.,0.,-1.));
#749=DIRECTION('ref_axis',(-1.,0.,0.));
#750=DIRECTION('center_axis',(0.,0.,-1.));
#751=DIRECTION('ref_axis',(-1.,0.,0.));
#752=DIRECTION('center_axis',(0.,0.,-1.));
#753=DIRECTION('ref_axis',(-1.,0.,0.));
#754=DIRECTION('center_axis',(0.,0.,-1.));
#755=DIRECTION('ref_axis',(-1.,0.,0.));
#756=DIRECTION('',(0.,0.,-1.));
#757=DIRECTION('center_axis',(0.,0.,-1.));
#758=DIRECTION('ref_axis',(-1.,0.,0.));
#759=DIRECTION('',(-0.707106781186547,8.65956056235493E-17,0.707106781186548));
#760=DIRECTION('center_axis',(0.,0.,1.));
#761=DIRECTION('ref_axis',(-1.,0.,0.));
#762=DIRECTION('center_axis',(0.,0.,-1.));
#763=DIRECTION('ref_axis',(-1.,0.,0.));
#764=DIRECTION('center_axis',(0.,0.,-1.));
#765=DIRECTION('ref_axis',(-1.,0.,0.));
#766=DIRECTION('',(0.,0.,-1.));
#767=DIRECTION('center_axis',(0.,0.,-1.));
#768=DIRECTION('ref_axis',(-1.,0.,0.));
#769=DIRECTION('',(-0.707106781186548,8.65956056235494E-17,0.707106781186547));
#770=DIRECTION('center_axis',(0.,0.,1.));
#771=DIRECTION('ref_axis',(-1.,0.,0.));
#772=DIRECTION('center_axis',(0.,0.,-1.));
#773=DIRECTION('ref_axis',(-1.,0.,0.));
#774=DIRECTION('center_axis',(0.,0.,-1.));
#775=DIRECTION('ref_axis',(-1.,0.,0.));
#776=DIRECTION('',(0.,0.,-1.));
#777=DIRECTION('center_axis',(0.,0.,-1.));
#778=DIRECTION('ref_axis',(-1.,0.,0.));
#779=DIRECTION('',(-0.707106781186548,8.65956056235494E-17,0.707106781186547));
#780=DIRECTION('center_axis',(0.,0.,1.));
#781=DIRECTION('ref_axis',(-1.,0.,0.));
#782=DIRECTION('center_axis',(0.,0.,-1.));
#783=DIRECTION('ref_axis',(-1.,0.,0.));
#784=DIRECTION('center_axis',(0.,0.,-1.));
#785=DIRECTION('ref_axis',(-1.,0.,0.));
#786=DIRECTION('',(0.,0.,-1.));
#787=DIRECTION('center_axis',(0.,0.,1.));
#788=DIRECTION('ref_axis',(1.,0.,0.));
#789=DIRECTION('center_axis',(0.,0.,-1.));
#790=DIRECTION('ref_axis',(0.707106781186546,-0.707106781186549,0.));
#791=DIRECTION('',(0.,1.,0.));
#792=DIRECTION('center_axis',(0.,0.,-1.));
#793=DIRECTION('ref_axis',(0.707106781186549,0.707106781186546,0.));
#794=DIRECTION('',(-1.,0.,0.));
#795=DIRECTION('center_axis',(0.,0.,-1.));
#796=DIRECTION('ref_axis',(-0.707106781186548,0.707106781186547,0.));
#797=DIRECTION('',(-1.64346021921044E-32,-1.,0.));
#798=DIRECTION('center_axis',(0.,0.,-1.));
#799=DIRECTION('ref_axis',(0.707106781186548,0.707106781186548,0.));
#800=DIRECTION('',(-1.,0.,0.));
#801=DIRECTION('',(0.,1.,0.));
#802=DIRECTION('',(1.,0.,0.));
#803=DIRECTION('center_axis',(0.,0.,-1.));
#804=DIRECTION('ref_axis',(0.707106781186547,-0.707106781186548,0.));
#805=DIRECTION('',(0.,1.,0.));
#806=DIRECTION('',(1.,0.,0.));
#807=DIRECTION('',(-4.44089209850063E-15,-1.,0.));
#808=DIRECTION('center_axis',(0.,0.,-1.));
#809=DIRECTION('ref_axis',(-0.707106781186548,-0.707106781186548,0.));
#810=DIRECTION('',(1.,0.,0.));
#811=DIRECTION('',(9.86864910777917E-16,-1.,0.));
#812=DIRECTION('',(-1.,0.,0.));
#813=DIRECTION('center_axis',(0.,-1.,0.));
#814=DIRECTION('ref_axis',(1.,0.,0.));
#815=DIRECTION('',(1.,0.,0.));
#816=DIRECTION('',(0.,0.,1.));
#817=DIRECTION('',(0.,0.,-1.));
#818=DIRECTION('center_axis',(0.,0.,1.));
#819=DIRECTION('ref_axis',(-0.707106781186548,-0.707106781186547,0.));
#820=DIRECTION('',(0.,0.,-1.));
#821=DIRECTION('center_axis',(0.,0.,-1.));
#822=DIRECTION('ref_axis',(-0.707106781186546,0.707106781186549,0.));
#823=DIRECTION('',(0.,0.,1.));
#824=DIRECTION('center_axis',(0.,1.,0.));
#825=DIRECTION('ref_axis',(-1.,0.,0.));
#826=DIRECTION('',(0.,0.,1.));
#827=DIRECTION('',(1.,0.,0.));
#828=DIRECTION('center_axis',(0.,0.,1.));
#829=DIRECTION('ref_axis',(0.707106781186547,-0.707106781186548,0.));
#830=DIRECTION('',(0.,0.,-1.));
#831=DIRECTION('center_axis',(0.,0.,-1.));
#832=DIRECTION('ref_axis',(0.707106781186547,-0.707106781186548,0.));
#833=DIRECTION('',(0.,0.,1.));
#834=DIRECTION('center_axis',(0.,-1.,0.));
#835=DIRECTION('ref_axis',(1.,0.,0.));
#836=DIRECTION('',(0.,0.,1.));
#837=DIRECTION('',(-1.,0.,0.));
#838=DIRECTION('center_axis',(0.,0.,1.));
#839=DIRECTION('ref_axis',(-0.707106781186548,-0.707106781186548,0.));
#840=DIRECTION('',(0.,0.,-1.));
#841=DIRECTION('center_axis',(0.,0.,-1.));
#842=DIRECTION('ref_axis',(-0.707106781186548,-0.707106781186548,0.));
#843=DIRECTION('',(0.,0.,1.));
#844=DIRECTION('center_axis',(-1.,4.44089209850063E-15,0.));
#845=DIRECTION('ref_axis',(-4.44089209850063E-15,-1.,0.));
#846=DIRECTION('',(0.,0.,1.));
#847=DIRECTION('',(4.44089209850063E-15,1.,0.));
#848=DIRECTION('center_axis',(0.,0.,1.));
#849=DIRECTION('ref_axis',(0.707106781186549,0.707106781186546,0.));
#850=DIRECTION('',(0.,0.,-1.));
#851=DIRECTION('',(0.,0.,1.));
#852=DIRECTION('center_axis',(0.,1.,0.));
#853=DIRECTION('ref_axis',(-1.,0.,0.));
#854=DIRECTION('',(0.,0.,-1.));
#855=DIRECTION('center_axis',(0.,0.,1.));
#856=DIRECTION('ref_axis',(-0.707106781186548,0.707106781186547,0.));
#857=DIRECTION('',(0.,0.,1.));
#858=DIRECTION('center_axis',(0.,0.,1.));
#859=DIRECTION('ref_axis',(0.707106781186548,-0.707106781186548,0.));
#860=DIRECTION('',(0.,0.,-1.));
#861=DIRECTION('center_axis',(0.,0.,-1.));
#862=DIRECTION('ref_axis',(0.707106781186548,-0.707106781186548,0.));
#863=DIRECTION('',(0.,0.,1.));
#864=DIRECTION('center_axis',(-1.,1.64346021921044E-32,0.));
#865=DIRECTION('ref_axis',(-1.64346021921044E-32,-1.,0.));
#866=DIRECTION('center_axis',(0.,-1.,0.));
#867=DIRECTION('ref_axis',(1.,0.,0.));
#868=DIRECTION('',(-1.,0.,0.));
#869=DIRECTION('',(0.,0.,1.));
#870=DIRECTION('center_axis',(1.,0.,0.));
#871=DIRECTION('ref_axis',(0.,1.,0.));
#872=DIRECTION('',(0.,-1.,0.));
#873=DIRECTION('center_axis',(1.,0.,0.));
#874=DIRECTION('ref_axis',(0.,1.,0.));
#875=DIRECTION('',(0.,-1.,0.));
#876=DIRECTION('',(0.,0.,1.));
#877=DIRECTION('center_axis',(0.,1.,0.));
#878=DIRECTION('ref_axis',(-1.,0.,0.));
#879=DIRECTION('',(1.,0.,0.));
#880=DIRECTION('center_axis',(-1.,-9.86864910777917E-16,0.));
#881=DIRECTION('ref_axis',(9.86864910777917E-16,-1.,0.));
#882=DIRECTION('',(-9.86864910777917E-16,1.,0.));
#883=DIRECTION('',(0.,0.,1.));
#884=DIRECTION('center_axis',(0.,-1.,0.));
#885=DIRECTION('ref_axis',(1.,0.,0.));
#886=DIRECTION('',(-1.,0.,0.));
#887=DIRECTION('center_axis',(1.,0.,0.));
#888=DIRECTION('ref_axis',(0.,1.,0.));
#889=DIRECTION('center_axis',(0.,0.,1.));
#890=DIRECTION('ref_axis',(1.,0.,0.));
#891=CARTESIAN_POINT('',(0.,0.,0.));
#892=CARTESIAN_POINT('Origin',(15.,8.1,2.));
#893=CARTESIAN_POINT('',(17.3,8.1,3.5));
#894=CARTESIAN_POINT('Origin',(15.,8.1,3.5));
#895=CARTESIAN_POINT('',(17.3,8.1,2.));
#896=CARTESIAN_POINT('',(17.3,8.1,2.));
#897=CARTESIAN_POINT('Origin',(15.,8.1,2.));
#898=CARTESIAN_POINT('Origin',(15.,8.1,3.5));
#899=CARTESIAN_POINT('Origin',(44.9999997764826,8.1,2.));
#900=CARTESIAN_POINT('',(47.2999997764826,8.1,3.5));
#901=CARTESIAN_POINT('Origin',(44.9999997764826,8.1,3.5));
#902=CARTESIAN_POINT('',(47.2999997764826,8.1,2.));
#903=CARTESIAN_POINT('',(47.2999997764826,8.1,2.));
#904=CARTESIAN_POINT('Origin',(44.9999997764826,8.1,2.));
#905=CARTESIAN_POINT('Origin',(44.9999997764826,8.1,3.5));
#906=CARTESIAN_POINT('Origin',(3.,3.,0.75));
#907=CARTESIAN_POINT('',(5.5,3.,0.));
#908=CARTESIAN_POINT('Origin',(3.,3.,0.));
#909=CARTESIAN_POINT('',(4.,3.,1.5));
#910=CARTESIAN_POINT('',(4.75,3.,0.75));
#911=CARTESIAN_POINT('Origin',(3.,3.,1.5));
#912=CARTESIAN_POINT('Origin',(30.,15.,0.));
#913=CARTESIAN_POINT('',(60.,27.,0.));
#914=CARTESIAN_POINT('',(57.,30.,0.));
#915=CARTESIAN_POINT('Origin',(57.,27.,0.));
#916=CARTESIAN_POINT('',(60.,3.,0.));
#917=CARTESIAN_POINT('',(60.,0.,0.));
#918=CARTESIAN_POINT('',(57.,0.,0.));
#919=CARTESIAN_POINT('Origin',(57.,3.,0.));
#920=CARTESIAN_POINT('',(3.,0.,0.));
#921=CARTESIAN_POINT('',(0.,0.,0.));
#922=CARTESIAN_POINT('',(4.93038065763132E-32,3.,0.));
#923=CARTESIAN_POINT('Origin',(3.,3.,0.));
#924=CARTESIAN_POINT('',(4.43734259186819E-31,27.,0.));
#925=CARTESIAN_POINT('',(4.93038065763132E-31,30.,0.));
#926=CARTESIAN_POINT('',(3.00000000000001,30.,0.));
#927=CARTESIAN_POINT('Origin',(3.,27.,0.));
#928=CARTESIAN_POINT('',(60.,30.,0.));
#929=CARTESIAN_POINT('',(5.5,27.,0.));
#930=CARTESIAN_POINT('Origin',(3.,27.,0.));
#931=CARTESIAN_POINT('',(59.5,3.,0.));
#932=CARTESIAN_POINT('Origin',(57.,3.,0.));
#933=CARTESIAN_POINT('',(59.5,27.,0.));
#934=CARTESIAN_POINT('Origin',(57.,27.,0.));
#935=CARTESIAN_POINT('Origin',(3.,3.,4.));
#936=CARTESIAN_POINT('',(4.,3.,4.));
#937=CARTESIAN_POINT('Origin',(3.,3.,4.));
#938=CARTESIAN_POINT('',(4.,3.,4.));
#939=CARTESIAN_POINT('Origin',(3.,27.,0.75));
#940=CARTESIAN_POINT('',(4.,27.,1.5));
#941=CARTESIAN_POINT('',(4.75,27.,0.75));
#942=CARTESIAN_POINT('Origin',(3.,27.,1.5));
#943=CARTESIAN_POINT('Origin',(3.,27.,4.));
#944=CARTESIAN_POINT('',(4.,27.,4.));
#945=CARTESIAN_POINT('Origin',(3.,27.,4.));
#946=CARTESIAN_POINT('',(4.,27.,4.));
#947=CARTESIAN_POINT('Origin',(57.,27.,0.75));
#948=CARTESIAN_POINT('',(58.,27.,1.5));
#949=CARTESIAN_POINT('',(58.75,27.,0.75));
#950=CARTESIAN_POINT('Origin',(57.,27.,1.5));
#951=CARTESIAN_POINT('Origin',(57.,27.,4.));
#952=CARTESIAN_POINT('',(58.,27.,4.));
#953=CARTESIAN_POINT('Origin',(57.,27.,4.));
#954=CARTESIAN_POINT('',(58.,27.,4.));
#955=CARTESIAN_POINT('Origin',(57.,3.,0.75));
#956=CARTESIAN_POINT('',(58.,3.,1.5));
#957=CARTESIAN_POINT('',(58.75,3.,0.75));
#958=CARTESIAN_POINT('Origin',(57.,3.,1.5));
#959=CARTESIAN_POINT('Origin',(57.,3.,4.));
#960=CARTESIAN_POINT('',(58.,3.,4.));
#961=CARTESIAN_POINT('Origin',(57.,3.,4.));
#962=CARTESIAN_POINT('',(58.,3.,4.));
#963=CARTESIAN_POINT('Origin',(30.,15.,4.));
#964=CARTESIAN_POINT('',(60.,3.,4.));
#965=CARTESIAN_POINT('',(57.,6.,4.));
#966=CARTESIAN_POINT('Origin',(57.,3.,4.));
#967=CARTESIAN_POINT('',(60.,27.,4.));
#968=CARTESIAN_POINT('',(60.,30.,4.));
#969=CARTESIAN_POINT('',(57.,30.,4.));
#970=CARTESIAN_POINT('Origin',(57.,27.,4.));
#971=CARTESIAN_POINT('',(3.00000000000001,30.,4.));
#972=CARTESIAN_POINT('',(60.,30.,4.));
#973=CARTESIAN_POINT('',(4.43734259186819E-31,27.,4.));
#974=CARTESIAN_POINT('Origin',(3.,27.,4.));
#975=CARTESIAN_POINT('',(4.93038065763132E-32,3.,4.));
#976=CARTESIAN_POINT('',(0.,0.,4.));
#977=CARTESIAN_POINT('',(3.,6.,4.));
#978=CARTESIAN_POINT('Origin',(3.,3.,4.));
#979=CARTESIAN_POINT('',(2.,6.,4.));
#980=CARTESIAN_POINT('',(2.,6.,4.));
#981=CARTESIAN_POINT('',(2.,24.,4.));
#982=CARTESIAN_POINT('',(2.,24.,4.));
#983=CARTESIAN_POINT('',(3.,24.,4.));
#984=CARTESIAN_POINT('',(2.,24.,4.));
#985=CARTESIAN_POINT('',(6.,27.,4.));
#986=CARTESIAN_POINT('Origin',(3.,27.,4.));
#987=CARTESIAN_POINT('',(6.,28.,4.));
#988=CARTESIAN_POINT('',(6.,24.,4.));
#989=CARTESIAN_POINT('',(54.,28.,4.));
#990=CARTESIAN_POINT('',(54.,28.,4.));
#991=CARTESIAN_POINT('',(54.,27.,4.));
#992=CARTESIAN_POINT('',(54.,28.,4.));
#993=CARTESIAN_POINT('',(57.,24.,4.));
#994=CARTESIAN_POINT('Origin',(57.,27.,4.));
#995=CARTESIAN_POINT('',(58.,24.,4.));
#996=CARTESIAN_POINT('',(54.,24.,4.));
#997=CARTESIAN_POINT('',(58.,6.,4.));
#998=CARTESIAN_POINT('',(58.,24.,4.));
#999=CARTESIAN_POINT('',(58.,6.,4.));
#1000=CARTESIAN_POINT('Origin',(0.,0.,0.));
#1001=CARTESIAN_POINT('',(3.,0.,2.));
#1002=CARTESIAN_POINT('',(57.,0.,2.));
#1003=CARTESIAN_POINT('',(0.,0.,2.));
#1004=CARTESIAN_POINT('',(3.,0.,0.));
#1005=CARTESIAN_POINT('',(57.,0.,0.));
#1006=CARTESIAN_POINT('Origin',(57.,3.,2.));
#1007=CARTESIAN_POINT('',(57.,6.,2.));
#1008=CARTESIAN_POINT('',(57.,6.,2.));
#1009=CARTESIAN_POINT('Origin',(57.,3.,2.));
#1010=CARTESIAN_POINT('',(60.,3.,0.));
#1011=CARTESIAN_POINT('Origin',(58.,6.,2.));
#1012=CARTESIAN_POINT('',(58.,6.,2.));
#1013=CARTESIAN_POINT('',(58.,6.,2.));
#1014=CARTESIAN_POINT('',(44.,6.,2.));
#1015=CARTESIAN_POINT('Origin',(3.,27.,2.));
#1016=CARTESIAN_POINT('',(3.,24.,2.));
#1017=CARTESIAN_POINT('',(3.,24.,2.));
#1018=CARTESIAN_POINT('',(6.,27.,2.));
#1019=CARTESIAN_POINT('Origin',(3.,27.,2.));
#1020=CARTESIAN_POINT('',(6.,27.,2.));
#1021=CARTESIAN_POINT('Origin',(2.,24.,2.));
#1022=CARTESIAN_POINT('',(2.,24.,2.));
#1023=CARTESIAN_POINT('',(2.,24.,2.));
#1024=CARTESIAN_POINT('',(16.,24.,2.));
#1025=CARTESIAN_POINT('Origin',(57.,27.,2.));
#1026=CARTESIAN_POINT('',(54.,27.,2.));
#1027=CARTESIAN_POINT('',(54.,27.,2.));
#1028=CARTESIAN_POINT('',(57.,24.,2.));
#1029=CARTESIAN_POINT('Origin',(57.,27.,2.));
#1030=CARTESIAN_POINT('',(57.,24.,2.));
#1031=CARTESIAN_POINT('Origin',(54.,28.,2.));
#1032=CARTESIAN_POINT('',(54.,28.,2.));
#1033=CARTESIAN_POINT('',(54.,28.,2.));
#1034=CARTESIAN_POINT('',(54.,21.4999999999999,2.));
#1035=CARTESIAN_POINT('Origin',(57.,27.,0.));
#1036=CARTESIAN_POINT('',(60.,27.,0.));
#1037=CARTESIAN_POINT('',(57.,30.,0.));
#1038=CARTESIAN_POINT('Origin',(60.,30.,0.));
#1039=CARTESIAN_POINT('',(3.,30.,0.));
#1040=CARTESIAN_POINT('Origin',(3.,27.,0.));
#1041=CARTESIAN_POINT('',(0.,27.,0.));
#1042=CARTESIAN_POINT('Origin',(3.,3.,0.));
#1043=CARTESIAN_POINT('',(0.,3.,0.));
#1044=CARTESIAN_POINT('',(3.,6.,2.));
#1045=CARTESIAN_POINT('Origin',(3.,3.,2.));
#1046=CARTESIAN_POINT('',(3.,6.,2.));
#1047=CARTESIAN_POINT('Origin',(4.93038065763132E-31,30.,0.));
#1048=CARTESIAN_POINT('Origin',(6.,28.,2.));
#1049=CARTESIAN_POINT('',(6.,28.,2.));
#1050=CARTESIAN_POINT('',(18.,28.,2.));
#1051=CARTESIAN_POINT('',(6.,28.,2.));
#1052=CARTESIAN_POINT('Origin',(6.,24.,2.));
#1053=CARTESIAN_POINT('',(6.,19.5,2.));
#1054=CARTESIAN_POINT('Origin',(2.,6.,2.));
#1055=CARTESIAN_POINT('',(2.,6.,2.));
#1056=CARTESIAN_POINT('',(2.,10.5,2.));
#1057=CARTESIAN_POINT('',(2.,6.,2.));
#1058=CARTESIAN_POINT('Origin',(6.,6.,2.));
#1059=CARTESIAN_POINT('',(18.,6.,2.));
#1060=CARTESIAN_POINT('Origin',(58.,24.,2.));
#1061=CARTESIAN_POINT('',(58.,24.,2.));
#1062=CARTESIAN_POINT('',(58.,19.5,2.));
#1063=CARTESIAN_POINT('',(58.,24.,2.));
#1064=CARTESIAN_POINT('Origin',(54.,24.,2.));
#1065=CARTESIAN_POINT('',(42.,24.,2.));
#1066=CARTESIAN_POINT('Origin',(60.,0.,0.));
#1067=CARTESIAN_POINT('Origin',(30.,15.,2.));
#1068=UNCERTAINTY_MEASURE_WITH_UNIT(LENGTH_MEASURE(0.01),#1072,
'DISTANCE_ACCURACY_VALUE',
'Maximum model space distance between geometric entities at asserted c
onnectivities');
#1069=UNCERTAINTY_MEASURE_WITH_UNIT(LENGTH_MEASURE(0.01),#1072,
'DISTANCE_ACCURACY_VALUE',
'Maximum model space distance between geometric entities at asserted c
onnectivities');
#1070=(
GEOMETRIC_REPRESENTATION_CONTEXT(3)
GLOBAL_UNCERTAINTY_ASSIGNED_CONTEXT((#1068))
GLOBAL_UNIT_ASSIGNED_CONTEXT((#1072,#1074,#1075))
REPRESENTATION_CONTEXT('','3D')
);
#1071=(
GEOMETRIC_REPRESENTATION_CONTEXT(3)
GLOBAL_UNCERTAINTY_ASSIGNED_CONTEXT((#1069))
GLOBAL_UNIT_ASSIGNED_CONTEXT((#1072,#1074,#1075))
REPRESENTATION_CONTEXT('','3D')
);
#1072=(
LENGTH_UNIT()
NAMED_UNIT(*)
SI_UNIT(.MILLI.,.METRE.)
);
#1073=(
LENGTH_UNIT()
NAMED_UNIT(*)
SI_UNIT($,.METRE.)
);
#1074=(
NAMED_UNIT(*)
PLANE_ANGLE_UNIT()
SI_UNIT($,.RADIAN.)
);
#1075=(
NAMED_UNIT(*)
SI_UNIT($,.STERADIAN.)
SOLID_ANGLE_UNIT()
);
#1076=SHAPE_DEFINITION_REPRESENTATION(#1077,#1078);
#1077=PRODUCT_DEFINITION_SHAPE('',$,#1080);
#1078=SHAPE_REPRESENTATION('',(#640),#1070);
#1079=PRODUCT_DEFINITION_CONTEXT('part definition',#1084,'design');
#1080=PRODUCT_DEFINITION('(\X2\C800C7A5B418C9C0\X0\ \X2\C54AC74C\X0\)',
'(\X2\C800C7A5B418C9C0\X0\ \X2\C54AC74C\X0\)',#1081,#1079);
#1081=PRODUCT_DEFINITION_FORMATION('',$,#1086);
#1082=PRODUCT_RELATED_PRODUCT_CATEGORY('(\X2\C800C7A5B418C9C0\X0\ \X2\C54AC74C\X0\)',
'(\X2\C800C7A5B418C9C0\X0\ \X2\C54AC74C\X0\)',(#1086));
#1083=APPLICATION_PROTOCOL_DEFINITION('international standard',
'automotive_design',2009,#1084);
#1084=APPLICATION_CONTEXT(
'Core Data for Automotive Mechanical Design Process');
#1085=PRODUCT_CONTEXT('part definition',#1084,'mechanical');
#1086=PRODUCT('(\X2\C800C7A5B418C9C0\X0\ \X2\C54AC74C\X0\)',
'(\X2\C800C7A5B418C9C0\X0\ \X2\C54AC74C\X0\)',$,(#1085));
#1087=PRESENTATION_STYLE_ASSIGNMENT((#1088));
#1088=SURFACE_STYLE_USAGE(.BOTH.,#1089);
#1089=SURFACE_SIDE_STYLE('',(#1090));
#1090=SURFACE_STYLE_FILL_AREA(#1091);
#1091=FILL_AREA_STYLE('\X2\AC15CCA0\X0\ - \X2\C0C8D2F4\X0\',(#1092));
#1092=FILL_AREA_STYLE_COLOUR('\X2\AC15CCA0\X0\ - \X2\C0C8D2F4\X0\',#1093);
#1093=COLOUR_RGB('\X2\AC15CCA0\X0\ - \X2\C0C8D2F4\X0\',0.627450980392157,
0.627450980392157,0.627450980392157);
ENDSEC;
END-ISO-10303-21;
